<svg width="70" height="70" viewBox="0 0 70 70" fill="none" xmlns="http://www.w3.org/2000/svg">
<path d="M28.6054 37.1322L39.652 22.8366C40.723 23.6643 42.2625 23.4669 43.0902 22.3958L32.7124 14.3765C31.3275 16.1688 28.7514 16.4992 26.959 15.1142L17.9307 26.7979C19.723 28.1829 20.0534 30.7589 18.6684 32.5513L29.0462 40.5707C29.8741 39.4994 29.6767 37.9602 28.6054 37.1322Z" fill="#EF7F72"/>
<path d="M62.5712 37.4491L52.1934 29.4297C51.3657 30.501 51.5632 32.0402 52.6342 32.8679L41.5876 47.1635C40.5166 46.3358 38.9771 46.5332 38.1494 47.6042L48.5272 55.6236C49.9121 53.8312 52.4882 53.5009 54.2806 54.8859L63.3089 43.2022C61.5163 41.8172 61.1862 39.2414 62.5712 37.4491Z" fill="#E8383B"/>
<path d="M41.5875 47.1637L52.6341 32.8681C51.563 32.0404 51.3656 30.501 52.1933 29.4299L43.0903 22.396C42.2626 23.4673 40.7231 23.6645 39.6521 22.8368L28.6055 37.1324C29.6768 37.9601 29.8739 39.4995 29.0462 40.5706L38.1493 47.6045C38.977 46.5334 40.5164 46.336 41.5875 47.1637Z" fill="#E95947"/>
<path d="M48.5269 56.4441C48.3516 56.4441 48.1752 56.3883 48.0259 56.2729L18.1671 33.2003C17.8083 32.9233 17.7424 32.4081 18.0194 32.0496C19.1255 30.6179 18.8608 28.5529 17.4294 27.4469C17.2571 27.3137 17.145 27.1179 17.1171 26.9019C17.0892 26.6862 17.1485 26.4682 17.2817 26.296L26.3103 14.6123C26.4432 14.4403 26.6393 14.3279 26.855 14.3003C27.0724 14.2724 27.2892 14.332 27.461 14.4649C28.1547 15.0008 29.0163 15.2341 29.8844 15.123C30.754 15.0115 31.5278 14.5682 32.0637 13.8748C32.3407 13.5166 32.8559 13.4504 33.2144 13.7271L63.0729 36.7995C63.4317 37.0765 63.4976 37.5917 63.2206 37.9501C62.1142 39.3819 62.3789 41.4466 63.8104 42.5529C64.1691 42.8299 64.235 43.3451 63.958 43.7035L54.9297 55.3873C54.6529 55.7457 54.1375 55.8119 53.779 55.5349C52.3476 54.4286 50.2826 54.6933 49.1763 56.125C49.0149 56.3344 48.7721 56.4441 48.5269 56.4441ZM19.7651 32.3619L48.4339 54.515C49.9662 53.0983 52.2508 52.8055 54.0913 53.7896L62.1998 43.2959C60.7834 41.7632 60.4908 39.4789 61.4747 37.6384L32.8069 15.4856C32.0613 16.1769 31.122 16.6185 30.0933 16.7503C29.0644 16.8821 28.0442 16.692 27.1481 16.211L19.0399 26.7045C20.4563 28.2371 20.7492 30.5214 19.7651 32.3619Z" fill="#1C2D6B"/>
<path d="M58.3228 37.0595C58.1475 37.0595 57.9712 37.0037 57.8219 36.8883C57.4631 36.6113 57.3972 36.0961 57.6742 35.7377L58.6774 34.4394C58.9544 34.0809 59.4699 34.0147 59.8281 34.292C60.1868 34.569 60.2527 35.0842 59.9757 35.4426L58.9725 36.7409C58.8109 36.9498 58.5681 37.0595 58.3228 37.0595Z" fill="#1C2D6B"/>
<path d="M48.0035 50.4123C47.8282 50.4123 47.6518 50.3565 47.5025 50.2412C47.1438 49.9642 47.0779 49.449 47.3549 49.0905L49.0745 46.865C49.3515 46.5068 49.8667 46.4406 50.2251 46.7174C50.5839 46.9944 50.6498 47.5095 50.3728 47.868L48.6531 50.0935C48.4915 50.3027 48.2487 50.4123 48.0035 50.4123ZM51.443 45.9613C51.2678 45.9613 51.0914 45.9055 50.9421 45.7901C50.5833 45.5131 50.5174 44.998 50.7944 44.6395L52.5141 42.414C52.7911 42.0555 53.3065 41.9896 53.6647 42.2663C54.0235 42.5433 54.0894 43.0585 53.8124 43.417L52.0927 45.6425C51.9311 45.8519 51.6883 45.9613 51.443 45.9613ZM54.8823 41.5106C54.7071 41.5106 54.5307 41.4548 54.3814 41.3394C54.0226 41.0624 53.9567 40.5472 54.2337 40.1888L55.9534 37.9633C56.2304 37.6048 56.7458 37.5389 57.104 37.8156C57.4628 38.0926 57.5287 38.6078 57.2517 38.9662L55.532 41.1917C55.3704 41.4009 55.1276 41.5106 54.8823 41.5106Z" fill="#1C2D6B"/>
<path d="M45.2818 53.936C45.1065 53.936 44.9301 53.8802 44.7808 53.7648C44.4221 53.4878 44.3562 52.9727 44.6332 52.6142L45.6361 51.3159C45.9134 50.9574 46.4283 50.8913 46.7868 51.1683C47.1455 51.4452 47.2114 51.9604 46.9344 52.3189L45.9315 53.6172C45.7699 53.8263 45.5271 53.936 45.2818 53.936Z" fill="#1C2D6B"/>
<path d="M22.6055 31.4556L32.6297 18.4782L39.1184 23.4903L29.0941 36.4677L22.6055 31.4556Z" fill="#A4D4A0"/>
<path d="M36.875 42.4893L46.8992 29.5119L53.3879 34.524L43.3637 47.5014L36.875 42.4893Z" fill="#419B46"/>
<path d="M29.0918 36.4712L39.116 23.4939L46.9024 29.5084L36.8782 42.4857L29.0918 36.4712Z" fill="#65BC49"/>
<path d="M43.3921 48.33C43.2169 48.33 43.0405 48.2742 42.8912 48.1588L22.1198 32.1083C21.9475 31.9751 21.8354 31.7793 21.8075 31.5633C21.7796 31.3476 21.839 31.1296 21.9721 30.9574L32.004 17.9754C32.281 17.6172 32.7962 17.551 33.1546 17.8277L53.9258 33.8782C54.2845 34.1552 54.3504 34.6704 54.0734 35.0289L44.0418 48.0109C43.8805 48.2206 43.6377 48.33 43.3921 48.33ZM23.7719 31.3118L43.2453 46.359L52.2736 34.6753L32.8005 19.628L23.7719 31.3118Z" fill="#1C2D6B"/>
<path d="M34.2722 26.1064L34.0171 27.3686C33.9857 27.5239 34.0327 27.6844 34.1429 27.7982L35.0381 28.7237C35.3154 29.0103 35.1434 29.4905 34.7474 29.5358L33.4683 29.6832C33.3111 29.7013 33.1727 29.7956 33.0986 29.9356L32.4949 31.0731C32.3078 31.4253 31.7984 31.4103 31.6325 31.0477L31.0971 29.8766C31.0312 29.7325 30.8988 29.6302 30.7427 29.6028L29.4745 29.38C29.0818 29.3111 28.9386 28.8216 29.2322 28.552L30.1805 27.6808C30.297 27.5737 30.3536 27.4162 30.3314 27.2595L30.1512 25.9844C30.0955 25.5896 30.5166 25.3022 30.8638 25.4983L31.9855 26.131C32.1233 26.2087 32.2906 26.2139 32.4328 26.1441L33.5897 25.5789C33.9479 25.4037 34.3512 25.7154 34.2722 26.1064Z" fill="#1C2D6B"/>
<path d="M40.2947 30.7597L40.0396 32.0219C40.0081 32.1772 40.0552 32.3377 40.1653 32.4515L41.0606 33.3771C41.3378 33.6636 41.1659 34.1438 40.7699 34.1892L39.4908 34.3366C39.3335 34.3546 39.1952 34.4489 39.1211 34.5889L38.5173 35.7264C38.3303 36.0786 37.8209 36.0636 37.6549 35.701L37.1195 34.5299C37.0536 34.3858 36.9213 34.2835 36.7652 34.2562L35.4969 34.0333C35.1043 33.9644 34.961 33.4749 35.2547 33.2053L36.203 32.3342C36.3194 32.227 36.3761 32.0695 36.3539 31.9128L36.1737 30.6378C36.1179 30.2429 36.539 29.9555 36.8863 30.1516L38.0079 30.7843C38.1457 30.862 38.3131 30.8672 38.4553 30.7974L39.6122 30.2323C39.9701 30.0573 40.3734 30.369 40.2947 30.7597Z" fill="#1C2D6B"/>
<path d="M46.3172 35.4135L46.062 36.6757C46.0306 36.831 46.0776 36.9915 46.1878 37.1053L47.0831 38.0309C47.3603 38.3174 47.1883 38.7976 46.7924 38.843L45.5132 38.9904C45.356 39.0084 45.2177 39.1027 45.1436 39.2427L44.5398 40.3802C44.3528 40.7324 43.8434 40.7174 43.6774 40.3548L43.142 39.1837C43.0761 39.0396 42.9438 38.9373 42.7876 38.91L41.5194 38.6871C41.1268 38.6182 40.9835 38.1287 41.2771 37.8591L42.2254 36.988C42.3419 36.8808 42.3985 36.7233 42.3764 36.5666L42.1962 35.2916C42.1404 34.8967 42.5615 34.6093 42.9087 34.8054L44.0304 35.4381C44.1682 35.5158 44.3355 35.521 44.4777 35.4513L45.6347 34.8861C45.9926 34.7111 46.3962 35.0228 46.3172 35.4135Z" fill="#1C2D6B"/>
<path d="M21.456 53.1724V35.1059C22.8098 35.1059 23.9071 34.0086 23.9071 32.6548H10.792C10.792 34.9199 8.95559 36.7563 6.69043 36.7563V51.522C8.95559 51.522 10.792 53.3584 10.792 55.6235H23.9071C23.9074 54.2697 22.8098 53.1724 21.456 53.1724Z" fill="#EDE49D"/>
<path d="M48.5273 32.6548H35.4121C35.4121 34.0086 36.5094 35.1059 37.8632 35.1059V53.1724C36.5094 53.1724 35.4121 54.2697 35.4121 55.6235H48.5273C48.5273 53.3584 50.3637 51.522 52.6288 51.522V36.7563C50.3637 36.7563 48.5273 34.9199 48.5273 32.6548Z" fill="#D3BA2A"/>
<path d="M37.863 53.1724V35.1059C36.5092 35.1059 35.4119 34.0086 35.4119 32.6548H23.9081C23.9081 34.0086 22.8108 35.1059 21.457 35.1059V53.1724C22.8108 53.1724 23.9081 54.2697 23.9081 55.6235H35.4122C35.4119 54.2697 36.5095 53.1724 37.863 53.1724Z" fill="#EEE045"/>
<path d="M48.5273 56.4438H10.793C10.3399 56.4438 9.97266 56.0766 9.97266 55.6235C9.97266 53.8142 8.50074 52.3423 6.69141 52.3423C6.23832 52.3423 5.87109 51.975 5.87109 51.522V36.7563C5.87109 36.3033 6.23832 35.936 6.69141 35.936C8.50074 35.936 9.97266 34.4641 9.97266 32.6548C9.97266 32.2017 10.3399 31.8345 10.793 31.8345H48.5273C48.9804 31.8345 49.3477 32.2017 49.3477 32.6548C49.3477 34.4641 50.8196 35.936 52.6289 35.936C53.082 35.936 53.4492 36.3033 53.4492 36.7563V51.522C53.4492 51.975 53.082 52.3423 52.6289 52.3423C50.8196 52.3423 49.3477 53.8142 49.3477 55.6235C49.3477 56.0766 48.9804 56.4438 48.5273 56.4438ZM11.5449 54.8032H47.7754C48.1221 52.7453 49.7507 51.1167 51.8086 50.77V37.5083C49.7507 37.1616 48.1221 35.533 47.7754 33.4751H11.5449C11.1982 35.533 9.56961 37.1616 7.51172 37.5083V50.77C9.56961 51.1167 11.1982 52.745 11.5449 54.8032Z" fill="#1C2D6B"/>
<path d="M44.4258 35.1157C43.9727 35.1157 43.6055 34.7485 43.6055 34.2954V32.6548C43.6055 32.2017 43.9727 31.8345 44.4258 31.8345C44.8789 31.8345 45.2461 32.2017 45.2461 32.6548V34.2954C45.2461 34.7485 44.8789 35.1157 44.4258 35.1157Z" fill="#1C2D6B"/>
<path d="M44.4258 51.9908C43.9727 51.9908 43.6055 51.6236 43.6055 51.1705V48.358C43.6055 47.9049 43.9727 47.5376 44.4258 47.5376C44.8789 47.5376 45.2461 47.9049 45.2461 48.358V51.1705C45.2461 51.6236 44.8789 51.9908 44.4258 51.9908ZM44.4258 46.3657C43.9727 46.3657 43.6055 45.9985 43.6055 45.5454V42.7328C43.6055 42.2797 43.9727 41.9125 44.4258 41.9125C44.8789 41.9125 45.2461 42.2797 45.2461 42.7328V45.5454C45.2461 45.9985 44.8789 46.3657 44.4258 46.3657ZM44.4258 40.7408C43.9727 40.7408 43.6055 40.3736 43.6055 39.9205V37.1079C43.6055 36.6548 43.9727 36.2876 44.4258 36.2876C44.8789 36.2876 45.2461 36.6548 45.2461 37.1079V39.9205C45.2461 40.3736 44.8789 40.7408 44.4258 40.7408Z" fill="#1C2D6B"/>
<path d="M44.4258 56.4438C43.9727 56.4438 43.6055 56.0766 43.6055 55.6235V53.9829C43.6055 53.5298 43.9727 53.1626 44.4258 53.1626C44.8789 53.1626 45.2461 53.5298 45.2461 53.9829V55.6235C45.2461 56.0766 44.8789 56.4438 44.4258 56.4438Z" fill="#1C2D6B"/>
<path d="M13.2529 35.936H21.4561V52.3423H13.2529V35.936Z" fill="#89AADB"/>
<path d="M31.2998 35.936H39.5029V52.3423H31.2998V35.936Z" fill="#4B67B0"/>
<path d="M21.4561 35.936H31.2998V52.3423H21.4561V35.936Z" fill="#6287C5"/>
<path d="M39.5039 53.1626H13.2539C12.8008 53.1626 12.4336 52.7954 12.4336 52.3423V35.936C12.4336 35.4829 12.8008 35.1157 13.2539 35.1157H39.5039C39.957 35.1157 40.3242 35.4829 40.3242 35.936V52.3423C40.3242 52.7954 39.957 53.1626 39.5039 53.1626ZM14.0742 51.522H38.6836V36.7563H14.0742V51.522Z" fill="#1C2D6B"/>
<path d="M19.1987 40.9829L19.7685 42.1376C19.8385 42.2795 19.9741 42.378 20.1308 42.4007L21.405 42.5858C21.7996 42.6432 21.9571 43.128 21.6716 43.4064L20.7496 44.3051C20.6361 44.4156 20.5844 44.5747 20.6112 44.7309L20.8289 46.0002C20.8962 46.3931 20.4838 46.6928 20.1311 46.5071L18.9914 45.908C18.8514 45.8345 18.6838 45.8345 18.5438 45.908L17.4041 46.5071C17.0511 46.6925 16.6387 46.3931 16.7063 46.0002L16.9239 44.7309C16.9507 44.5747 16.8991 44.4156 16.7856 44.3051L15.8636 43.4064C15.5781 43.128 15.7356 42.6432 16.1302 42.5858L17.4044 42.4007C17.5611 42.378 17.6964 42.2795 17.7667 42.1376L18.3365 40.9829C18.5126 40.6255 19.0223 40.6255 19.1987 40.9829Z" fill="#1C2D6B"/>
<path d="M26.81 40.9829L27.3798 42.1376C27.4498 42.2795 27.5855 42.378 27.7421 42.4007L29.0164 42.5858C29.4109 42.6432 29.5684 43.128 29.283 43.4064L28.3609 44.3051C28.2475 44.4156 28.1958 44.5747 28.2226 44.7309L28.4402 46.0002C28.5075 46.3931 28.0952 46.6928 27.7424 46.5071L26.6027 45.908C26.4627 45.8345 26.2951 45.8345 26.1551 45.908L25.0154 46.5071C24.6624 46.6925 24.2501 46.3931 24.3176 46.0002L24.5353 44.7309C24.5621 44.5747 24.5104 44.4156 24.3969 44.3051L23.4749 43.4064C23.1894 43.128 23.3469 42.6432 23.7415 42.5858L25.0157 42.4007C25.1724 42.378 25.3077 42.2795 25.378 42.1376L25.9478 40.9829C26.1237 40.6255 26.6336 40.6255 26.81 40.9829Z" fill="#1C2D6B"/>
<path d="M34.4213 40.9829L34.9912 42.1376C35.0612 42.2795 35.1968 42.378 35.3535 42.4007L36.6277 42.5858C37.0223 42.6432 37.1798 43.128 36.8943 43.4064L35.9723 44.3051C35.8588 44.4156 35.8071 44.5747 35.8339 44.7309L36.0516 46.0002C36.1188 46.3931 35.7065 46.6928 35.3537 46.5071L34.2141 45.908C34.0741 45.8345 33.9064 45.8345 33.7664 45.908L32.6268 46.5071C32.2737 46.6925 31.8614 46.3931 31.9289 46.0002L32.1466 44.7309C32.1734 44.5747 32.1217 44.4156 32.0082 44.3051L31.0862 43.4064C30.8007 43.128 30.9582 42.6432 31.3528 42.5858L32.627 42.4007C32.7837 42.378 32.9191 42.2795 32.9893 42.1376L33.5592 40.9829C33.735 40.6255 34.2447 40.6255 34.4213 40.9829Z" fill="#1C2D6B"/>
</svg>
