<svg width="100" height="100" viewBox="0 0 100 100" fill="none" xmlns="http://www.w3.org/2000/svg">
<mask id="mask0" mask-type="alpha" maskUnits="userSpaceOnUse" x="0" y="0" width="100" height="100">
<path d="M50 100C77.6142 100 100 77.6142 100 50C100 22.3858 77.6142 0 50 0C22.3858 0 0 22.3858 0 50C0 77.6142 22.3858 100 50 100Z" fill="white"/>
</mask>
<g mask="url(#mask0)">
<path d="M50 100C77.6142 100 100 77.6142 100 50C100 22.3858 77.6142 0 50 0C22.3858 0 0 22.3858 0 50C0 77.6142 22.3858 100 50 100Z" fill="url(#paint0_linear)"/>
<path d="M53.6218 16.5684C52.2884 10.735 58.6108 6.25867 65.1218 9.3316C80.4551 16.5684 71.5576 27.4017 66.0576 26.235C60.5576 25.0684 54.9551 22.4017 53.6218 16.5684Z" fill="url(#paint1_linear)"/>
<path d="M57.3336 53.3333C50.1724 56.7735 49.1278 56.5892 33.3336 43.6666C9.50023 24.1666 32.0002 6.33329 56.1669 15.8333C82.3336 27.3333 73.567 45.5349 57.3336 53.3333Z" fill="url(#paint2_linear)"/>
<path fill-rule="evenodd" clip-rule="evenodd" d="M57.9997 67C55.5553 72.3333 52.4442 75 49.9997 75C47.5553 75 44.4442 72.3333 41.9997 67V60.3333C41.2747 60.3546 40.6636 60.3546 40.1664 60.3333C32.3699 59.9992 29.7646 47.4577 30.9881 34.9126C31.8841 25.7254 39.6664 38.3333 52.333 29.5C51.833 39.1667 55.9997 38.1667 57.833 37C66.1664 33.1667 66.333 48.8333 58.0967 47.6193C58.1001 47.7861 58.0677 54.2463 57.9997 67Z" fill="url(#paint3_linear)"/>
<path d="M42 60.3333C45 60.1111 48.7371 58.4333 53.2112 55.2998C51.8403 60.0213 48.1032 62.8103 42 63.6667V60.3333Z" fill="#FF9768"/>
<path fill-rule="evenodd" clip-rule="evenodd" d="M39.2444 68.9389C39.5797 66.6241 40.1404 65.3676 40.9267 65.1693C42.106 64.8718 48.9986 64.8359 49.0048 66.1693C49.006 66.414 49.2421 69.037 50.0281 69.037C50.8142 69.037 51.0162 66.4139 51.0174 66.1693C51.0236 64.8359 57.8762 64.8874 59.0955 65.1693C59.9084 65.3572 60.4675 66.6152 60.7728 68.9433C72.7722 74.5938 79.4036 78.6251 80.667 81.037C82.2966 84.1481 83.5189 91.3704 84.3337 102.704H15.667C16.4818 91.3704 17.704 84.1481 19.3337 81.037C20.5965 78.6262 27.2334 74.5934 39.2444 68.9389Z" fill="url(#paint4_linear)"/>
<path fill-rule="evenodd" clip-rule="evenodd" d="M50.0003 79.6667C49.2639 79.6667 48.667 79.0697 48.667 78.3333C48.667 77.597 49.2639 77 50.0003 77C50.7367 77 51.3337 77.597 51.3337 78.3333C51.3337 79.0697 50.7367 79.6667 50.0003 79.6667ZM50.0003 86.3333C49.2639 86.3333 48.667 85.7364 48.667 85C48.667 84.2636 49.2639 83.6667 50.0003 83.6667C50.7367 83.6667 51.3337 84.2636 51.3337 85C51.3337 85.7364 50.7367 86.3333 50.0003 86.3333ZM50.0003 93C49.2639 93 48.667 92.403 48.667 91.6667C48.667 90.9303 49.2639 90.3333 50.0003 90.3333C50.7367 90.3333 51.3337 90.9303 51.3337 91.6667C51.3337 92.403 50.7367 93 50.0003 93Z" fill="#664F4D"/>
<path d="M53.5301 26.476C48.1967 39.8093 51.1967 46.3093 55.3634 54.1426C58.1412 59.3649 57.8078 64.4204 54.3634 69.3093C58.3634 66.7538 60.3634 62.6426 60.3634 56.976C60.3634 48.476 54.3634 43.1426 59.3634 36.1426C64.3634 29.1426 58.8634 13.1426 53.5301 26.476Z" fill="url(#paint5_linear)"/>
</g>
<defs>
<linearGradient id="paint0_linear" x1="50" y1="0" x2="50" y2="100" gradientUnits="userSpaceOnUse">
<stop stop-color="#806A6A"/>
<stop offset="1" stop-color="#665654"/>
</linearGradient>
<linearGradient id="paint1_linear" x1="63.5547" y1="8.33337" x2="63.5547" y2="26.322" gradientUnits="userSpaceOnUse">
<stop stop-color="#1D0024"/>
<stop offset="1" stop-color="#100014"/>
</linearGradient>
<linearGradient id="paint2_linear" x1="47.9816" y1="13.2024" x2="47.9816" y2="55.2278" gradientUnits="userSpaceOnUse">
<stop stop-color="#1D0024"/>
<stop offset="1" stop-color="#100014"/>
</linearGradient>
<linearGradient id="paint3_linear" x1="47.4399" y1="29.5" x2="47.4399" y2="75" gradientUnits="userSpaceOnUse">
<stop stop-color="#F7B186"/>
<stop offset="1" stop-color="#FFC299"/>
</linearGradient>
<linearGradient id="paint4_linear" x1="50.0003" y1="102.704" x2="50.0003" y2="65" gradientUnits="userSpaceOnUse">
<stop stop-color="#FCF2EB"/>
<stop offset="1" stop-color="#FFF9F5"/>
</linearGradient>
<linearGradient id="paint5_linear" x1="55.9974" y1="21.3334" x2="55.9974" y2="69.3093" gradientUnits="userSpaceOnUse">
<stop stop-color="#1D0024"/>
<stop offset="1" stop-color="#100014"/>
</linearGradient>
</defs>
</svg>
