<svg width="120" height="120" viewBox="0 0 120 120" fill="none" xmlns="http://www.w3.org/2000/svg">
<mask id="mask0" mask-type="alpha" maskUnits="userSpaceOnUse" x="0" y="0" width="120" height="120">
<path d="M60 120C93.137 120 120 93.137 120 60C120 26.863 93.137 0 60 0C26.863 0 0 26.863 0 60C0 93.137 26.863 120 60 120Z" fill="white"/>
</mask>
<g mask="url(#mask0)">
<path d="M60 120C93.137 120 120 93.137 120 60C120 26.863 93.137 0 60 0C26.863 0 0 26.863 0 60C0 93.137 26.863 120 60 120Z" fill="url(#paint0_linear)"/>
<path fill-rule="evenodd" clip-rule="evenodd" d="M72.8003 70.4V81.6H47.2004C47.2324 70.5605 47.2324 61.3855 47.2004 54.0751C41.4675 46.6445 41.4675 42 46.0004 37.2C49.0222 34 61.2889 31.6 82.8003 30C84.4143 45.5226 85.3477 55.3894 85.6004 59.6C85.7528 62.1401 87.4004 70.4 81.0003 70.4C78.6015 70.4 75.8681 70.4 72.8003 70.4Z" fill="url(#paint1_linear)"/>
<path fill-rule="evenodd" clip-rule="evenodd" d="M72.7992 69.6C66.9327 68.9333 61.9992 67.3334 57.9993 64.8C59.866 69.8667 64.7993 73.2001 72.7992 74.8V69.6Z" fill="#F08956"/>
<path fill-rule="evenodd" clip-rule="evenodd" d="M52.408 42.082C51.1359 40.9894 49.5903 40.254 47.4055 41.3891C42.2259 44.0803 45.6635 54.4537 51.46 54.2513C53.4587 54.1816 52.543 58.1674 47.1999 60.7998C47.1999 56.5998 40.7998 46.1998 40.2417 36.7308C33.7998 34.3329 35.3998 24.7381 39.8229 24.7381C39.1155 15.9415 53.1999 11.3998 58.6534 16.4461C64.1998 9.79976 78.1998 13.1998 79.0453 18.9658C88.6719 13.8267 94.9998 28.5997 85.9859 34.3329C82.2768 36.6919 73.5999 37.5909 61.0749 37.5909C55.0643 37.5909 58.5209 51.6589 60.3999 56.1997C62.7999 61.9998 76.1998 62.7997 80.3998 62.1997C83.6796 61.7313 85.3998 60.3997 85.5999 59.5998C88.5999 67.5997 84.7998 72.3997 78.7998 72.3997C68.5998 72.3997 58.3998 69.3997 56.7999 61.9998C55.5264 56.1104 55.5963 46.6062 52.408 42.082Z" fill="white"/>
<mask id="mask1" mask-type="alpha" maskUnits="userSpaceOnUse" x="12" y="76" width="96" height="47">
<path d="M102 97.3232C104.539 102.485 106.539 111.018 108 122.923H12.0001C13.462 111.017 15.4621 102.484 18.0001 97.3232C19.6865 93.8942 28.3532 88.8797 44.0001 82.2797C44.3116 79.2626 44.845 77.538 45.6001 77.1055C46.7327 76.4569 73.0509 76.4569 74.4001 77.1055C75.2996 77.5379 75.8329 79.2617 76 82.2769C91.6503 88.8857 100.317 93.9011 102 97.3232Z" fill="white"/>
</mask>
<g mask="url(#mask1)">
<path d="M102 97.3232C104.539 102.485 106.539 111.018 108 122.923H12.0001C13.462 111.017 15.4621 102.484 18.0001 97.3232C19.6865 93.8942 28.3532 88.8797 44.0001 82.2797C44.3116 79.2626 44.845 77.538 45.6001 77.1055C46.7327 76.4569 73.0509 76.4569 74.4001 77.1055C75.2996 77.5379 75.8329 79.2617 76 82.2769C91.6503 88.8857 100.317 93.9011 102 97.3232Z" fill="url(#paint2_linear)"/>
<path d="M5.59998 90.4002H113.2V93.6001H5.59998V90.4002ZM5.59998 98.4001H113.2V101.6H5.59998V98.4001ZM5.59998 106.4H113.2V109.6H5.59998V106.4ZM5.59998 114.4H113.2V117.6H5.59998V114.4Z" fill="#FFA789"/>
</g>
</g>
<mask id="mask2" mask-type="alpha" maskUnits="userSpaceOnUse" x="0" y="0" width="120" height="120">
<path d="M60 120C93.137 120 120 93.137 120 60C120 26.863 93.137 0 60 0C26.863 0 0 26.863 0 60C0 93.137 26.863 120 60 120Z" fill="white"/>
</mask>
<g mask="url(#mask2)">
<path d="M60 120C93.137 120 120 93.137 120 60C120 26.863 93.137 0 60 0C26.863 0 0 26.863 0 60C0 93.137 26.863 120 60 120Z" fill="url(#paint3_linear)"/>
<path fill-rule="evenodd" clip-rule="evenodd" d="M72.8003 70.4V79.2C72.8003 79.7809 68.5336 80.9504 60.0003 82.7089C51.467 81.1982 47.2004 80.0286 47.2004 79.2C47.2004 76.8481 47.2485 65.0406 47.2004 54.0751C41.4675 46.6445 41.4675 42 46.0004 37.2C49.0222 34 61.2889 31.6 82.8003 30C84.4143 45.5226 85.3477 55.3894 85.6004 59.6C85.7528 62.1401 87.4004 70.4 81.0003 70.4C78.6015 70.4 75.8681 70.4 72.8003 70.4Z" fill="url(#paint4_linear)"/>
<g style="mix-blend-mode:multiply">
<g style="mix-blend-mode:multiply">
<path fill-rule="evenodd" clip-rule="evenodd" d="M72.7992 69.6492V74.4641C64.2262 72.9371 59.2929 69.7157 57.9993 64.8C61.7326 67.3334 66.5326 68.9333 72.3993 69.6C72.5333 69.6153 72.6666 69.6317 72.7992 69.6492Z" fill="#F5C6A6"/>
</g>
</g>
<path d="M102 97.3232C104.539 102.485 106.539 111.018 108 122.923H12.0001C13.462 111.017 15.4621 102.484 18.0001 97.3232C19.6865 93.8942 28.3532 88.8797 44.0001 82.2796L76 82.277C91.6503 88.8856 100.317 93.901 102 97.3232Z" fill="url(#paint5_linear)"/>
<path fill-rule="evenodd" clip-rule="evenodd" d="M62.8 84.8L64.8001 121.6H55.2001L57.2001 84.8C58.4445 83.4667 59.3779 82.8 60.0001 82.8C60.6223 82.8 61.5556 83.4667 62.8 84.8Z" fill="url(#paint6_linear)"/>
<path fill-rule="evenodd" clip-rule="evenodd" d="M63.2049 92.2471L56.9905 88.6567L57.2002 84.8C58.4446 83.4667 59.3779 82.8 60.0001 82.8C60.6223 82.8 61.5557 83.4667 62.8001 84.8L63.2049 92.2471Z" fill="#D24B24"/>
<path fill-rule="evenodd" clip-rule="evenodd" d="M59.9993 82.7962L55.9992 89.9997L43.5992 82.3997L47.1992 77.1998L59.9993 81.9281L72.7992 77.1998L76.3992 82.3997L63.9992 89.9997L59.9993 82.7962Z" fill="white"/>
<path d="M52.408 42.082C51.1359 40.9894 49.5903 40.254 47.4055 41.3891C42.2259 44.0803 45.6635 54.4537 51.46 54.2513C53.4587 54.1816 52.543 58.1674 47.1999 60.7998C47.1999 56.5998 40.7998 46.1998 40.2417 36.7308C33.7998 34.3329 35.3998 24.7381 39.8229 24.7381C39.1155 15.9415 53.1999 11.3998 58.6534 16.4461C64.1998 9.79976 78.1998 13.1998 79.0453 18.9658C88.6719 13.8267 94.9998 28.5997 85.9859 34.3329C82.2768 36.6919 73.5999 37.5909 61.0749 37.5909C55.0643 37.5909 58.5209 51.6589 60.3999 56.1997C62.7999 61.9998 76.1998 62.7997 80.3998 62.1997C83.6796 61.7313 85.3998 60.3997 85.5999 59.5998C88.5999 67.5997 84.7998 72.3997 78.7998 72.3997C68.5998 72.3997 58.3998 69.3997 56.7999 61.9998C55.5264 56.1104 55.5963 46.6062 52.408 42.082Z" fill="url(#paint7_linear)"/>
</g>
<defs>
<linearGradient id="paint0_linear" x1="60" y1="0" x2="60" y2="120" gradientUnits="userSpaceOnUse">
<stop stop-color="#806A6A"/>
<stop offset="1" stop-color="#665654"/>
</linearGradient>
<linearGradient id="paint1_linear" x1="64.3193" y1="30" x2="64.3193" y2="81.6" gradientUnits="userSpaceOnUse">
<stop stop-color="#F7B186"/>
<stop offset="1" stop-color="#FFC299"/>
</linearGradient>
<linearGradient id="paint2_linear" x1="60.0001" y1="122.923" x2="60.0001" y2="76.619" gradientUnits="userSpaceOnUse">
<stop stop-color="#FFC9B3"/>
<stop offset="1" stop-color="#FFD2C2"/>
</linearGradient>
<linearGradient id="paint3_linear" x1="60" y1="120" x2="60" y2="0" gradientUnits="userSpaceOnUse">
<stop stop-color="#FFC9B3"/>
<stop offset="1" stop-color="#FFD2C2"/>
</linearGradient>
<linearGradient id="paint4_linear" x1="64.3193" y1="30" x2="64.3193" y2="82.7089" gradientUnits="userSpaceOnUse">
<stop stop-color="#E6864E"/>
<stop offset="1" stop-color="#EB965E"/>
</linearGradient>
<linearGradient id="paint5_linear" x1="60.0001" y1="82.277" x2="60.0001" y2="122.923" gradientUnits="userSpaceOnUse">
<stop stop-color="#130027"/>
<stop offset="1" stop-color="#130017"/>
</linearGradient>
<linearGradient id="paint6_linear" x1="60.0001" y1="121.6" x2="60.0001" y2="82.8" gradientUnits="userSpaceOnUse">
<stop stop-color="#E6864E"/>
<stop offset="1" stop-color="#E67240"/>
</linearGradient>
<linearGradient id="paint7_linear" x1="63.1395" y1="12.7984" x2="63.1395" y2="72.3997" gradientUnits="userSpaceOnUse">
<stop stop-color="#130027"/>
<stop offset="1" stop-color="#130017"/>
</linearGradient>
</defs>
</svg>