<svg width="120" height="120" viewBox="0 0 100 100" fill="none" xmlns="http://www.w3.org/2000/svg">
<mask id="mask0" mask-type="alpha" maskUnits="userSpaceOnUse" x="0" y="0" width="120" height="120">
<path d="M50 100C77.6142 100 100 77.6142 100 50C100 22.3858 77.6142 0 50 0C22.3858 0 0 22.3858 0 50C0 77.6142 22.3858 100 50 100Z" fill="white"/>
</mask>
<g mask="url(#mask0)">
<path d="M50 100C77.6142 100 100 77.6142 100 50C100 22.3858 77.6142 0 50 0C22.3858 0 0 22.3858 0 50C0 77.6142 22.3858 100 50 100Z" fill="url(#paint0_linear)"/>
<path fill-rule="evenodd" clip-rule="evenodd" d="M41.0898 69.6505C43.9773 64.8484 50.6063 55.6434 66.392 42.7086C90.2123 23.1901 67.7265 5.34209 43.5735 14.8518C40.9897 15.8691 33.8291 11.7981 27.197 16.0886C22.9187 18.8564 24.5843 21.0249 22.9185 23.1935C21.2527 25.3622 14.8299 25.2354 13.4237 30.8675C12.5907 34.2038 14.897 37.6982 14.5892 40.209C14.2814 42.7198 11.847 44.9837 11.7312 48.2986C11.5254 54.1913 16.1285 59.1348 22.0125 59.3403C22.0447 65.071 26.5779 69.8147 32.3392 70.0159C34.1778 70.0801 35.9239 69.6741 37.4621 68.9057C39.0378 70.3575 40.3903 70.8138 41.0898 69.6505Z" fill="url(#paint1_linear)"/>
<path d="M46.9997 13.6666C42.8945 16.3002 37.8152 24.9365 40.0448 36.5302C40.5313 39.06 39.0116 39.8173 37.7114 36.6968C33.7891 27.2832 33.3346 18.7936 40.0442 14.7325C41.2114 14.0302 41.8781 14.5993 42.7114 14.5302C44.2963 14.3988 46.4303 13.276 46.9997 13.6666Z" fill="url(#paint2_linear)"/>
<mask id="mask1" mask-type="alpha" maskUnits="userSpaceOnUse" x="35" y="26" width="35" height="54">
<path d="M41.6667 64.6666C41.6667 61.6666 41.5646 46.8694 41.5696 46.6192C33.3333 47.8333 33.5 32.1666 41.8333 35.9999C43.6667 37.1666 48.8333 35.9999 48.3333 26.3333C57.3333 35.9999 67.7822 24.7253 68.6783 33.9125C69.9018 46.4577 68.6711 59.5863 60.8746 59.5871C60.1285 59.5872 59.2814 59.5026 58.3333 59.3332C58.3333 61.2221 58.3333 63.4444 58.3333 64.6666C58.3333 66.8888 60.3333 68.5555 64.3333 69.6666C57.4241 76.1767 52.5352 79.4143 49.6667 79.3793C46.7981 79.3443 42.1314 76.1068 35.6667 69.6666C39.6667 68.5555 41.6667 66.8888 41.6667 64.6666Z" fill="white"/>
</mask>
<g mask="url(#mask1)">
<path d="M41.6667 64.6666C41.6667 61.6666 41.5646 46.8694 41.5696 46.6192C33.3333 47.8333 33.5 32.1666 41.8333 35.9999C43.6667 37.1666 48.8333 35.9999 48.3333 26.3333C57.3333 35.9999 67.7822 24.7253 68.6783 33.9125C69.9018 46.4577 68.6711 59.5863 60.8746 59.5871C60.1285 59.5872 59.2814 59.5026 58.3333 59.3332C58.3333 61.2221 58.3333 63.4444 58.3333 64.6666C58.3333 66.8888 60.3333 68.5555 64.3333 69.6666C57.4241 76.1767 52.5352 79.4143 49.6667 79.3793C46.7981 79.3443 42.1314 76.1068 35.6667 69.6666C39.6667 68.5555 41.6667 66.8888 41.6667 64.6666Z" fill="url(#paint3_linear)"/>
<g style="mix-blend-mode:multiply">
<path fill-rule="evenodd" clip-rule="evenodd" d="M58.3335 59.3333C53.8172 58.3543 49.969 56.6765 46.7889 54.2998C48.7075 58.9888 52.5523 61.7778 58.3233 62.6666L58.3335 59.3333Z" fill="#FFDBC9"/>
</g>
</g>
<mask id="mask2" mask-type="alpha" maskUnits="userSpaceOnUse" x="15" y="68" width="70" height="34">
<path d="M80.6665 79.6667C82.2788 83.2494 83.501 90.4716 84.3332 101.333H15.6665C16.4987 90.4716 17.7209 83.2494 19.3332 79.6667C21.4517 74.959 35.4127 69.5537 39.5041 68C41.8673 70.6426 45.252 72.3333 49.9998 72.3333C54.7477 72.3333 58.1324 70.6426 60.4956 68C64.587 69.5537 78.548 74.959 80.6665 79.6667Z" fill="white"/>
</mask>
<g mask="url(#mask2)">
<path d="M80.6665 79.6667C82.2788 83.2494 83.501 90.4716 84.3332 101.333H15.6665C16.4987 90.4716 17.7209 83.2494 19.3332 79.6667C21.4517 74.959 35.4127 69.5537 39.5041 68C41.8673 70.6426 45.252 72.3333 49.9998 72.3333C54.7477 72.3333 58.1324 70.6426 60.4956 68C64.587 69.5537 78.548 74.959 80.6665 79.6667Z" fill="url(#paint4_linear)"/>
</g>
</g>
<defs>
<linearGradient id="paint0_linear" x1="50" y1="100" x2="50" y2="0" gradientUnits="userSpaceOnUse">
<stop stop-color="#FFC9B3"/>
<stop offset="1" stop-color="#FFD2C2"/>
</linearGradient>
<linearGradient id="paint1_linear" x1="42.9784" y1="70.4143" x2="45.0258" y2="11.7834" gradientUnits="userSpaceOnUse">
<stop stop-color="#E6864E"/>
<stop offset="1" stop-color="#E67240"/>
</linearGradient>
<linearGradient id="paint2_linear" x1="40.9295" y1="13.5845" x2="40.9295" y2="38.7464" gradientUnits="userSpaceOnUse">
<stop stop-color="#1D0024"/>
<stop offset="1" stop-color="#100014"/>
</linearGradient>
<linearGradient id="paint3_linear" x1="52.2866" y1="26.3333" x2="52.2866" y2="79.3796" gradientUnits="userSpaceOnUse">
<stop stop-color="#FFE0CC"/>
<stop offset="1" stop-color="#FFEADB"/>
</linearGradient>
<linearGradient id="paint4_linear" x1="49.9998" y1="68" x2="49.9998" y2="101.333" gradientUnits="userSpaceOnUse">
<stop stop-color="#130027"/>
<stop offset="1" stop-color="#130017"/>
</linearGradient>
</defs>
</svg>
