<svg width="100" height="100" viewBox="0 0 100 100" fill="none" xmlns="http://www.w3.org/2000/svg">
<mask id="mask0" mask-type="alpha" maskUnits="userSpaceOnUse" x="0" y="0" width="100" height="100">
<path d="M50 100C77.6142 100 100 77.6142 100 50C100 22.3858 77.6142 0 50 0C22.3858 0 0 22.3858 0 50C0 77.6142 22.3858 100 50 100Z" fill="white"/>
</mask>
<g mask="url(#mask0)">
<path d="M50 100C77.6142 100 100 77.6142 100 50C100 22.3858 77.6142 0 50 0C22.3858 0 0 22.3858 0 50C0 77.6142 22.3858 100 50 100Z" fill="url(#paint0_linear)"/>
<path fill-rule="evenodd" clip-rule="evenodd" d="M60.6666 58.6667V68H39.3333C39.36 58.8004 39.36 51.1546 39.3333 45.0626C34.5559 38.8704 34.5559 35 38.3333 31C40.8515 28.3333 51.0737 26.3333 68.9999 25C70.3449 37.9355 71.1227 46.1578 71.3333 49.6667C71.4603 51.7834 72.8333 58.6667 67.4999 58.6667C65.5009 58.6667 63.2231 58.6667 60.6666 58.6667Z" fill="url(#paint1_linear)"/>
<path fill-rule="evenodd" clip-rule="evenodd" d="M60.6668 58C55.7779 57.4444 51.6668 56.1111 48.3335 54C49.8891 58.2222 54.0002 61 60.6668 62.3333V58Z" fill="#F08956"/>
<path fill-rule="evenodd" clip-rule="evenodd" d="M43.6734 35.0685C42.6133 34.158 41.3253 33.5452 39.5047 34.4911C35.1883 36.7338 38.053 45.3783 42.8834 45.2096C44.549 45.1515 43.7859 48.473 39.3333 50.6667C39.3333 47.1667 33.9999 38.5 33.5348 30.6092C28.1666 28.6109 29.4999 20.6153 33.1858 20.6153C32.5963 13.2848 44.3333 9.5 48.8779 13.7053C53.4999 8.16666 65.1666 11 65.8712 15.805C73.8933 11.5224 79.1666 23.8333 71.655 28.6109C68.5641 30.5768 61.3333 31.3259 50.8958 31.3259C45.887 31.3259 48.7675 43.0493 50.3333 46.8333C52.3333 51.6667 63.4999 52.3333 66.9999 51.8333C69.7331 51.4429 71.1666 50.3333 71.3333 49.6667C73.8333 56.3333 70.6666 60.3333 65.6666 60.3333C57.1666 60.3333 48.6666 57.8333 47.3333 51.6667C46.2721 46.7589 46.3303 38.8387 43.6734 35.0685Z" fill="white"/>
<mask id="mask1" mask-type="alpha" maskUnits="userSpaceOnUse" x="10" y="63" width="80" height="40">
<path d="M85 81.1026C87.1156 85.4041 88.7823 92.5153 90 102.436H10C11.2183 92.5141 12.885 85.403 15 81.1026C16.4054 78.2451 23.6276 74.0664 36.6667 68.5663C36.9263 66.0522 37.3708 64.6149 38 64.2546C38.9439 63.714 60.8757 63.7141 62 64.2546C62.7496 64.6149 63.194 66.0514 63.3333 68.5641C76.3752 74.0713 83.5974 78.2508 85 81.1026Z" fill="white"/>
</mask>
<g mask="url(#mask1)">
<path d="M85 81.1026C87.1156 85.4041 88.7823 92.5153 90 102.436H10C11.2183 92.5141 12.885 85.403 15 81.1026C16.4054 78.2451 23.6276 74.0664 36.6667 68.5663C36.9263 66.0522 37.3708 64.6149 38 64.2546C38.9439 63.714 60.8757 63.7141 62 64.2546C62.7496 64.6149 63.194 66.0514 63.3333 68.5641C76.3752 74.0713 83.5974 78.2508 85 81.1026Z" fill="url(#paint2_linear)"/>
<path d="M4.6665 75.3334H94.3332V78H4.6665V75.3334ZM4.6665 82H94.3332V84.6667H4.6665V82ZM4.6665 88.6667H94.3332V91.3334H4.6665V88.6667ZM4.6665 95.3334H94.3332V98H4.6665V95.3334Z" fill="#FFA789"/>
</g>
</g>
<defs>
<linearGradient id="paint0_linear" x1="50" y1="0" x2="50" y2="100" gradientUnits="userSpaceOnUse">
<stop stop-color="#806A6A"/>
<stop offset="1" stop-color="#665654"/>
</linearGradient>
<linearGradient id="paint1_linear" x1="53.5991" y1="25" x2="53.5991" y2="68" gradientUnits="userSpaceOnUse">
<stop stop-color="#F7B186"/>
<stop offset="1" stop-color="#FFC299"/>
</linearGradient>
<linearGradient id="paint2_linear" x1="50" y1="102.436" x2="50" y2="63.8492" gradientUnits="userSpaceOnUse">
<stop stop-color="#FFC9B3"/>
<stop offset="1" stop-color="#FFD2C2"/>
</linearGradient>
</defs>
</svg>
