<svg width="100" height="100" viewBox="0 0 100 100" fill="none" xmlns="http://www.w3.org/2000/svg">
<g clip-path="url(#clip0)">
<mask id="mask0" mask-type="alpha" maskUnits="userSpaceOnUse" x="0" y="0" width="100" height="100">
<path d="M50 100C77.6142 100 100 77.6142 100 50C100 22.3858 77.6142 0 50 0C22.3858 0 0 22.3858 0 50C0 77.6142 22.3858 100 50 100Z" fill="white"/>
</mask>
<g mask="url(#mask0)">
<path d="M50 100C22.3858 100 0 77.6142 0 50C0 22.3858 22.3858 0 50 0C77.6142 0 100 22.3858 100 50C100 77.6142 77.6142 100 50 100Z" fill="url(#paint0_linear)"/>
<path fill-rule="evenodd" clip-rule="evenodd" d="M60.3333 58.0001C60.3333 58.0001 60.3333 59.3334 60.3333 62.0001C60.3333 65.5556 62.8889 68.1112 68 69.6667C62.1111 74.1112 56.1111 76.3334 50 76.3334C43.8889 76.3334 37.8889 74.1112 32 69.6667C37.1512 68.1112 39.7068 65.5556 39.6667 62.0001C39.6065 56.6668 39.6466 53.534 39.6065 44.396C34.8291 38.2038 35.1356 34.0477 37.7479 31.1251C43.5826 24.5973 54.4444 22.4445 70.3333 24.6667C71.816 40.6651 70.8715 50.9985 67.5 55.6668C66.0555 57.6668 63.6667 58.4445 60.3333 58.0001Z" fill="url(#paint1_linear)"/>
<path fill-rule="evenodd" clip-rule="evenodd" d="M60.3337 58C55.4448 57.4444 51.5559 56.1111 48.667 54C51.1114 58.1111 55.0003 60.7778 60.3337 62V58Z" fill="#DB6F3D"/>
<mask id="mask1" mask-type="alpha" maskUnits="userSpaceOnUse" x="10" y="67" width="80" height="35">
<path d="M85 79.7692C87.1156 84.0707 88.7823 91.1818 90 101.103H10C11.2183 91.1807 12.885 84.0696 15 79.7692C17.115 75.4688 24.3483 71.3242 36.6998 67.3355C40.2709 74.6682 59.8693 74.6674 63.2903 67.3333C75.6478 71.3224 82.8844 75.4677 85 79.7692Z" fill="white"/>
</mask>
<g mask="url(#mask1)">
<path d="M85 79.7692C87.1156 84.0707 88.7823 91.1818 90 101.103H10C11.2183 91.1807 12.885 84.0696 15 79.7692C17.115 75.4688 24.3483 71.3242 36.6998 67.3355C40.2709 74.6682 59.8693 74.6674 63.2903 67.3333C75.6478 71.3224 82.8844 75.4677 85 79.7692Z" fill="url(#paint2_linear)"/>
<path d="M6.66602 80H93.3327V82.6667H6.66602V80ZM6.66602 86.6667H93.3327V89.3333H6.66602V86.6667ZM6.66602 93.3333H93.3327V96H6.66602V93.3333Z" fill="#FFA789"/>
</g>
<path d="M43.7183 34.403C42.6582 33.4926 41.3703 32.8798 39.5496 33.8257C35.2332 36.0684 38.5 44.6668 42.3333 44.6668C43.3336 44.6668 43.8308 47.8076 39.3782 50.0012C39.3782 46.5012 34.0449 37.8346 33.5797 29.9438C28.2115 27.9455 29.5449 19.9499 33.2307 19.9499C32.6412 12.6193 44.3782 8.83459 48.9229 13.0399C53.5449 7.50126 65.2115 10.3346 65.9161 15.1396C73.9382 10.857 79.2115 23.1679 71.6999 27.9455C68.609 29.9114 61.3782 30.6605 50.9407 30.6605C49.3652 30.6605 48.4825 31.0518 48.9229 33.0001C49.7761 36.7753 47.7956 39.1535 43.7183 34.403Z" fill="url(#paint3_linear)"/>
</g>
</g>
<defs>
<linearGradient id="paint0_linear" x1="50" y1="0" x2="50" y2="100" gradientUnits="userSpaceOnUse">
<stop stop-color="#806A6A"/>
<stop offset="1" stop-color="#665654"/>
</linearGradient>
<linearGradient id="paint1_linear" x1="51.5063" y1="23.8202" x2="51.5063" y2="76.3334" gradientUnits="userSpaceOnUse">
<stop stop-color="#E6864E"/>
<stop offset="1" stop-color="#EB965E"/>
</linearGradient>
<linearGradient id="paint2_linear" x1="50" y1="101.103" x2="50" y2="67.3333" gradientUnits="userSpaceOnUse">
<stop stop-color="#FFC9B3"/>
<stop offset="1" stop-color="#FFD2C2"/>
</linearGradient>
<linearGradient id="paint3_linear" x1="52.6612" y1="10.0001" x2="52.6612" y2="50.0012" gradientUnits="userSpaceOnUse">
<stop stop-color="#1D0024"/>
<stop offset="1" stop-color="#100014"/>
</linearGradient>
<clipPath id="clip0">
<rect width="100" height="100" fill="white"/>
</clipPath>
</defs>
</svg>
