<svg width="125" height="125" viewBox="0 0 125 125" fill="none" xmlns="http://www.w3.org/2000/svg">
<path d="M13.875 1.87109H51.2943V114.129H13.875V1.87109Z" fill="#A4D4A0"/>
<path d="M71.7162 1.87109V95.9158L62.8359 114.129H85.7553L103.685 95.9158V1.87109H71.7162Z" fill="#419B46"/>
<path d="M74.9862 1.87109H45.0508V114.129H68.7497L74.9862 95.9158V1.87109Z" fill="#65BC49"/>
<path d="M84.9676 116H13.871C12.8376 116 12 115.162 12 114.129V1.87096C12 0.837569 12.8376 0 13.871 0H103.677C104.711 0 105.548 0.837569 105.548 1.87096V95.915C105.548 96.4202 105.344 96.9035 104.983 97.2552L86.2729 115.469C85.9237 115.81 85.4553 116 84.9676 116ZM15.7419 112.258H84.2074L101.806 95.1255V3.74193H15.7419V112.258Z" fill="#1C2D6B"/>
<path d="M84.9647 116C84.719 116 84.472 115.952 84.2375 115.853C83.544 115.561 83.0938 114.881 83.0938 114.129V95.9154C83.0938 94.882 83.9313 94.0444 84.9647 94.0444H103.674C104.436 94.0444 105.121 94.5059 105.408 95.2113C105.694 95.9166 105.525 96.7255 104.979 97.2563L86.2694 115.47C85.9133 115.817 85.4431 116 84.9647 116ZM86.8357 97.7864V109.696L99.0705 97.7864H86.8357Z" fill="#1C2D6B"/>
<rect x="25.7305" y="14.0312" width="66.4193" height="3.74193" rx="1.87097" fill="#1C2D6B"/>
<rect x="25.7305" y="21.8296" width="66.4193" height="3.74193" rx="1.87097" fill="#1C2D6B"/>
<rect x="25.7305" y="44.9023" width="66.4193" height="3.74193" rx="1.87097" fill="#1C2D6B"/>
<rect x="25.7305" y="75.7739" width="66.4193" height="3.74193" rx="1.87097" fill="#1C2D6B"/>
<rect x="25.7305" y="52.6992" width="66.4193" height="3.74193" rx="1.87097" fill="#1C2D6B"/>
<rect x="25.7305" y="83.5703" width="66.4193" height="3.74193" rx="1.87097" fill="#1C2D6B"/>
<path d="M72.3569 122.13L72.3569 122.13C72.8934 123.604 74.5235 124.364 75.9977 123.828C77.4719 123.291 78.232 121.661 77.6955 120.187L68.9103 96.0495C68.9103 96.0494 68.9103 96.0494 68.9103 96.0494C68.7364 95.5718 68.2084 95.3256 67.7307 95.4994L72.3569 122.13ZM72.3569 122.13L63.5717 97.9926C63.5716 97.9926 63.5716 97.9926 63.5716 97.9926C63.3978 97.5149 63.644 96.9869 64.1217 96.813C64.1217 96.813 64.1217 96.813 64.1217 96.813L67.7306 95.4994L72.3569 122.13Z" fill="#91BBFF" stroke="#1C2D6B" stroke-width="2"/>
<path d="M67.9034 95.9688L67.9035 95.9687C68.1215 95.8894 68.3626 96.0017 68.4422 96.22C68.4422 96.22 68.4422 96.22 68.4422 96.2201L77.2274 120.357L77.2274 120.357C77.4743 121.036 77.388 121.754 77.0521 122.333L67.5085 96.1125L67.9034 95.9688Z" fill="#9D5E4A" stroke="#1C2D6B" stroke-width="3"/>
<path d="M68.8994 104.318C61.6028 106.974 53.5059 103.198 50.8501 95.9015C48.1943 88.6049 51.97 80.5078 59.2667 77.8521C66.5632 75.1963 74.6601 78.972 77.3159 86.2686C79.9716 93.5653 76.1962 101.662 68.8994 104.318Z" fill="#1C2D6B"/>
<path d="M77.3149 86.2667C74.6592 78.97 66.5623 75.1943 59.2658 77.8501C59.2658 77.8501 59.2658 77.8501 59.2656 77.8501L68.8984 104.316C76.1951 101.66 79.9707 93.5633 77.3149 86.2667Z" fill="#1C2D6B"/>
<path d="M74.3311 91.5483C74.58 85.8977 70.201 81.1152 64.5505 80.8663C58.8999 80.6174 54.1175 84.9964 53.8686 90.647C53.6197 96.2977 57.9987 101.08 63.6492 101.329C69.2998 101.578 74.0822 97.1989 74.3311 91.5483Z" fill="#A4E9FF"/>
<path d="M73.7088 87.5802C71.7774 82.2735 65.8887 79.5276 60.5822 81.4591C60.5822 81.4591 60.5822 81.4591 60.582 81.4591L67.5877 100.707C72.8945 98.7756 75.6404 92.8869 73.7088 87.5802Z" fill="#91BBFF"/>
</svg>
