<svg width="84" height="70" viewBox="0 0 84 70" fill="none" xmlns="http://www.w3.org/2000/svg">
<g clip-path="url(#clip0)">
<path d="M39.4189 8.09101C39.2792 8.09101 39.1395 8.04443 39.0463 7.95128C38.86 7.81155 38.7669 7.5321 38.8135 7.29923L39.2792 5.20336L37.6491 3.80612C37.4628 3.66639 37.3697 3.38694 37.4628 3.15407C37.556 2.9212 37.7423 2.7349 38.0217 2.7349L40.1642 2.5486L40.9559 0.54588C41.0957 0.313008 41.3285 0.173279 41.5614 0.173279C41.7943 0.173279 42.0272 0.313008 42.1669 0.54588L43.0052 2.50202L45.1477 2.68832C45.3805 2.68832 45.6134 2.87462 45.7066 3.10749C45.7997 3.34036 45.7066 3.61982 45.5203 3.75954L43.8901 5.15678L44.3559 7.25265C44.4025 7.48552 44.3093 7.76498 44.123 7.9047C43.9367 8.04442 43.6573 8.04443 43.4244 7.95128L41.5614 6.92662L39.6984 8.04442C39.6052 8.091 39.5121 8.091 39.419 8.091L39.4189 8.09101ZM41.5614 0.592443C41.4682 0.592443 41.4217 0.639022 41.3751 0.732173L40.4436 2.96777L38.0217 3.15407C37.9285 3.15407 37.882 3.20065 37.8354 3.2938C37.8354 3.38695 37.882 3.43353 37.9285 3.4801L39.745 5.06365L39.2326 7.39239C39.2326 7.48554 39.2326 7.53212 39.3258 7.57869C39.3724 7.62527 39.4655 7.62527 39.5587 7.57869L41.5614 6.41432L43.6107 7.62527C43.6573 7.67185 43.7504 7.67185 43.8435 7.62527C43.8901 7.57869 43.9367 7.48554 43.9367 7.43897L43.4244 5.11023L45.2408 3.52668C45.2874 3.4801 45.3339 3.38695 45.2874 3.29381C45.2408 3.20066 45.1942 3.15408 45.1011 3.15408L42.7257 2.92121L41.7943 0.68561C41.7011 0.63903 41.6545 0.592459 41.5614 0.592459L41.5614 0.592443Z" fill="#0075BF"/>
</g>
<path d="M31.1156 32.5392V3.50032C31.1156 2.90671 31.5966 2.42572 32.1902 2.42572H16.2146C15.2578 2.42572 14.4819 3.20161 14.4819 4.15839V31.8812C14.4819 32.8379 15.2578 33.6138 16.2146 33.6138H32.1902C31.5966 33.6138 31.1156 33.1328 31.1156 32.5392Z" fill="#EDE49D"/>
<path d="M66.8086 2.42572H50.833C51.4266 2.42572 51.9076 2.90671 51.9076 3.50032V32.5392C51.9076 33.1328 51.4266 33.6138 50.833 33.6138H66.8086C67.7654 33.6138 68.5413 32.8379 68.5413 31.8812V4.15839C68.5413 3.20161 67.7654 2.42572 66.8086 2.42572Z" fill="#D3BA2A"/>
<path d="M51.9077 32.5392V3.50032C51.9077 2.90671 51.4267 2.42572 50.8331 2.42572H32.1898C31.5962 2.42572 31.1152 2.90671 31.1152 3.50032V32.5392C31.1152 33.1328 31.5962 33.6138 32.1898 33.6138H50.8327C51.4263 33.6138 51.9077 33.1328 51.9077 32.5392Z" fill="#EEE045"/>
<path d="M66.8087 34.6534H16.2147C14.6861 34.6534 13.4424 33.4097 13.4424 31.8812V4.15839C13.4424 2.62982 14.6861 1.38611 16.2147 1.38611H66.8087C68.3373 1.38611 69.581 2.62982 69.581 4.15839V31.8812C69.581 33.4097 68.3373 34.6534 66.8087 34.6534ZM16.2147 3.46532C15.8324 3.46532 15.5216 3.77616 15.5216 4.15839V31.8812C15.5216 32.2634 15.8324 32.5742 16.2147 32.5742H66.8087C67.1909 32.5742 67.5018 32.2634 67.5018 31.8812V4.15839C67.5018 3.77616 67.1909 3.46532 66.8087 3.46532H16.2147Z" fill="#1C2D6B"/>
<path d="M15.1233 37.6011C14.6961 36.3258 14.423 34.388 14.423 32.2166C14.423 28.3767 15.2758 25.2637 16.3282 25.2637C12.4883 25.2637 9.37502 28.3767 9.37502 32.2166C9.37502 34.388 10.3713 36.3258 11.9307 37.6011C9.56215 39.0731 7.98438 41.6974 7.98438 44.6915V46.1227H14.0418V44.6915C14.0421 41.6974 14.4746 39.0731 15.1233 37.6011Z" fill="#A4D4A0"/>
<path d="M20.7253 37.6011C22.2847 36.3258 23.2813 34.388 23.2813 32.2166C23.2813 28.3767 20.1684 25.2637 16.3281 25.2637C17.3802 25.2637 18.2334 28.3767 18.2334 32.2166C18.2334 34.388 17.9603 36.3258 17.533 37.6011C18.1821 39.0731 18.6146 41.6974 18.6146 44.6915V46.1227H24.672V44.6915C24.672 41.6974 23.0939 39.0731 20.7253 37.6011Z" fill="#419B46"/>
<path d="M17.5328 37.6011C17.9601 36.3258 18.2332 34.388 18.2332 32.2166C18.2332 28.3767 17.3804 25.2637 16.3279 25.2637C15.2759 25.2637 14.4227 28.3767 14.4227 32.2166C14.4227 34.388 14.6958 36.3258 15.123 37.6011C14.474 39.0731 14.0415 41.6974 14.0415 44.6915V46.1227H18.614V44.6915C18.6144 41.6974 18.1819 39.0731 17.5328 37.6011Z" fill="#65BC49"/>
<path d="M39.6784 28.8889C39.0283 27.2283 38.6132 24.7041 38.6132 21.8764C38.6132 16.8755 39.9109 12.8218 41.5116 12.8218C36.5107 12.8218 32.457 16.8755 32.457 21.8764C32.457 24.7041 33.7537 27.2286 35.7844 28.8889C32.7003 30.8059 30.646 34.2234 30.646 38.1219V39.9859H38.0334V38.1219C38.0338 34.2234 38.6911 30.8059 39.6784 28.8889Z" fill="#EF7F72"/>
<path d="M47.2385 28.8889C49.2692 27.2283 50.566 24.7041 50.566 21.8764C50.5663 16.8755 46.5122 12.8218 41.5117 12.8218C43.1124 12.8218 44.4101 16.8755 44.4101 21.8764C44.4101 24.7041 43.995 27.2286 43.3449 28.8889C44.3322 30.8059 44.9899 34.2234 44.9899 38.1219V39.9859H52.3773V38.1219C52.377 34.2234 50.3227 30.8059 47.2385 28.8889Z" fill="#E8383B"/>
<path d="M43.345 28.8889C43.9951 27.2283 44.4103 24.7041 44.4103 21.8764C44.4103 16.8755 43.1125 12.8218 41.5119 12.8218C39.9112 12.8218 38.6134 16.8755 38.6134 21.8764C38.6134 24.7041 39.0286 27.2286 39.6787 28.8889C38.6914 30.8059 38.0337 34.2234 38.0337 38.1219V39.9859H44.99V38.1219C44.9897 34.2234 44.3323 30.8059 43.345 28.8889Z" fill="#E95947"/>
<path d="M52.3772 41.0252H30.646C30.0718 41.0252 29.6064 40.5598 29.6064 39.9856V38.1219C29.6064 34.4282 31.2795 31.0211 34.1405 28.7728C32.3964 26.9126 31.4174 24.4633 31.4174 21.8764C31.4174 16.3103 35.9456 11.7822 41.5116 11.7822C47.0777 11.7822 51.6059 16.3103 51.6059 21.8764C51.6059 24.4636 50.6269 26.9126 48.8828 28.7728C51.7438 31.0207 53.4168 34.4279 53.4168 38.1219V39.9856C53.4168 40.5598 52.9511 41.0252 52.3772 41.0252ZM31.6857 38.946H51.3376V38.1219C51.3376 34.7027 49.6001 31.5811 46.6899 29.7718C46.4051 29.5947 46.2231 29.2908 46.2013 28.9561C46.1798 28.6213 46.3209 28.297 46.5808 28.0842C48.4527 26.5532 49.5266 24.2907 49.5266 21.8764C49.5263 17.457 45.931 13.8614 41.5116 13.8614C37.0923 13.8614 33.4966 17.457 33.4966 21.8764C33.4966 24.2907 34.5706 26.5532 36.4425 28.0842C36.7024 28.2966 36.8435 28.6213 36.822 28.9561C36.8005 29.2912 36.6186 29.5951 36.3334 29.7718C33.4232 31.5811 31.6857 34.7027 31.6857 38.1219V38.946Z" fill="#1C2D6B"/>
<path d="M24.6718 47.1624H7.98443C7.41022 47.1624 6.94482 46.697 6.94482 46.1227V44.6916C6.94482 41.8673 8.18542 39.2562 10.318 37.485C9.04586 36.0372 8.33547 34.177 8.33547 32.2167C8.33547 27.8094 11.9211 24.2242 16.3279 24.2242C20.7348 24.2242 24.3204 27.8098 24.3204 32.2167C24.3204 34.1774 23.6104 36.0372 22.3379 37.485C24.4705 39.2562 25.7111 41.8673 25.7111 44.6916V46.1227C25.7114 46.697 25.246 47.1624 24.6718 47.1624ZM9.02403 45.0831H23.6322V44.6916C23.6322 42.1494 22.3403 39.829 20.1766 38.4841C19.8917 38.307 19.7094 38.0031 19.6879 37.6683C19.6665 37.3332 19.8075 37.0085 20.0674 36.7961C21.449 35.6661 22.2416 33.9972 22.2416 32.2163C22.2416 28.9558 19.5888 26.303 16.3283 26.303C13.0677 26.303 10.415 28.9558 10.415 32.2163C10.415 33.9968 11.2075 35.6661 12.5892 36.7961C12.8491 37.0085 12.9901 37.3332 12.9686 37.6683C12.9472 38.0031 12.7652 38.307 12.48 38.4841C10.3163 39.829 9.02438 42.1494 9.02438 44.6916V45.0831H9.02403Z" fill="#1C2D6B"/>
<path d="M65.5735 37.5959C65.1463 36.3206 64.8732 34.3828 64.8732 32.2114C64.8732 28.3715 65.726 25.2585 66.7784 25.2585C62.9385 25.2585 59.8252 28.3715 59.8252 32.2114C59.8252 34.3828 60.8215 36.3206 62.3809 37.5959C60.0123 39.068 58.4346 41.6923 58.4346 44.6863V46.1175H64.492V44.6863C64.492 41.6923 64.9245 39.068 65.5735 37.5959Z" fill="#A4D4A0"/>
<path d="M71.1755 37.5959C72.7349 36.3206 73.7315 34.3828 73.7315 32.2114C73.7315 28.3715 70.6186 25.2585 66.7783 25.2585C67.8304 25.2585 68.6836 28.3715 68.6836 32.2114C68.6836 34.3828 68.4105 36.3206 67.9832 37.5959C68.6323 39.068 69.0648 41.6923 69.0648 44.6863V46.1175H75.1222V44.6863C75.1222 41.6923 73.5444 39.068 71.1755 37.5959Z" fill="#419B46"/>
<path d="M67.983 37.5959C68.4103 36.3206 68.6834 34.3828 68.6834 32.2114C68.6834 28.3715 67.8306 25.2585 66.7781 25.2585C65.7261 25.2585 64.8729 28.3715 64.8729 32.2114C64.8729 34.3828 65.146 36.3206 65.5732 37.5959C64.9242 39.068 64.4917 41.6923 64.4917 44.6863V46.1175H69.0646V44.6863C69.0646 41.6923 68.6321 39.068 67.983 37.5959Z" fill="#65BC49"/>
<path d="M75.122 47.1572H58.4346C57.8604 47.1572 57.395 46.6918 57.395 46.1176V44.6864C57.395 41.8621 58.6356 39.251 60.7682 37.4798C59.4961 36.032 58.7857 34.1718 58.7857 32.2115C58.7857 27.8042 62.3713 24.219 66.7785 24.219C71.1857 24.219 74.771 27.8046 74.771 32.2115C74.771 34.1718 74.0606 36.032 72.7884 37.4798C74.921 39.251 76.1616 41.8621 76.1616 44.6864V46.1176C76.1616 46.6918 75.6962 47.1572 75.122 47.1572ZM59.4742 45.078H74.0824V44.6864C74.0824 42.1442 72.7905 39.8238 70.6268 38.4789C70.3416 38.3018 70.1596 37.9979 70.1381 37.6632C70.1167 37.3281 70.2577 37.0037 70.5176 36.7909C71.8992 35.6609 72.6918 33.9916 72.6918 32.2111C72.6918 28.9506 70.039 26.2979 66.7785 26.2979C63.5176 26.2979 60.8649 28.9506 60.8649 32.2111C60.8649 33.9916 61.6574 35.6609 63.0394 36.7909C63.2993 37.003 63.4403 37.3281 63.4188 37.6632C63.3973 37.9979 63.2151 38.3018 62.9302 38.4789C60.7665 39.8238 59.4746 42.1442 59.4746 44.6864V45.078H59.4742Z" fill="#1C2D6B"/>
<path d="M31.1622 66.6227L35.1813 41.1132C35.288 40.4351 35.5618 39.9856 35.8678 39.9856H28.1605C27.4369 39.9856 26.7896 40.4351 26.537 41.1132L17.0301 66.6227C16.6081 67.7548 17.4453 68.9604 18.6536 68.9604H31.849C31.3379 68.9604 30.984 67.7548 31.1622 66.6227Z" fill="#89AADB"/>
<path d="M65.9934 66.6227L56.4866 41.1132C56.2339 40.4351 55.5866 39.9856 54.863 39.9856H47.1558C47.4618 39.9856 47.7352 40.4351 47.8422 41.1132L51.8614 66.6227C52.0398 67.7548 51.6857 68.9604 51.1749 68.9604H64.3702C65.5779 68.9604 66.4151 67.7548 65.9934 66.6227Z" fill="#4B67B0"/>
<path d="M51.861 66.6227L47.8419 41.1132C47.7351 40.4351 47.4614 39.9856 47.1554 39.9856H35.8673C35.5614 39.9856 35.2879 40.4351 35.1809 41.1132L31.1617 66.6227C30.984 67.7548 31.3378 68.9604 31.8486 68.9604H51.1745C51.6853 68.9604 52.0391 67.7548 51.861 66.6227Z" fill="#6287C5"/>
<path d="M64.3694 70H18.6535C17.7456 70 16.8945 69.555 16.3765 68.809C15.8584 68.0636 15.7388 67.1102 16.0559 66.2595L25.5627 40.75C25.9651 39.6709 27.0092 38.946 28.1607 38.946H54.8629C56.0145 38.946 57.0582 39.6709 57.4609 40.75L66.9677 66.2595C67.2848 67.1102 67.1649 68.0636 66.6472 68.809C66.1288 69.555 65.2777 70 64.3694 70ZM28.1604 41.0252C27.8724 41.0252 27.6115 41.2064 27.5106 41.4764L18.0038 66.9858C17.8894 67.2925 18.0218 67.5337 18.0838 67.6231C18.1459 67.7129 18.3257 67.9208 18.6532 67.9208H64.3694C64.6966 67.9208 64.8764 67.7125 64.9388 67.6231C65.0012 67.5337 65.1332 67.2925 65.0188 66.9858L55.512 41.4764C55.4112 41.2068 55.1502 41.0252 54.8622 41.0252H28.1604Z" fill="#1C2D6B"/>
<path d="M8.17802 56.3808C7.75075 55.1056 7.47768 53.1678 7.47768 50.9964C7.47768 47.1564 8.3305 44.0435 9.38292 44.0435C5.54297 44.0435 2.42971 47.1564 2.42971 50.9964C2.42971 53.1678 3.42599 55.1056 4.9854 56.3808C2.61683 57.8529 1.03906 60.4772 1.03906 63.4713V64.9025H7.09649V63.4713C7.09649 60.4772 7.52896 57.8529 8.17802 56.3808Z" fill="#A4D4A0"/>
<path d="M13.7805 56.3808C15.3399 55.1056 16.3365 53.1678 16.3365 50.9964C16.3365 47.1564 13.2236 44.0435 9.3833 44.0435C10.4354 44.0435 11.2885 47.1564 11.2885 50.9964C11.2885 53.1678 11.0155 55.1056 10.5882 56.3808C11.2373 57.8529 11.6697 60.4772 11.6697 63.4713V64.9025H17.7272V63.4713C17.7268 60.4772 16.149 57.8529 13.7805 56.3808Z" fill="#419B46"/>
<path d="M10.588 56.3808C11.0153 55.1056 11.2884 53.1678 11.2884 50.9964C11.2884 47.1564 10.4355 44.0435 9.38312 44.0435C8.33104 44.0435 7.47787 47.1564 7.47787 50.9964C7.47787 53.1678 7.75094 55.1056 8.17821 56.3808C7.52916 57.8529 7.09668 60.4772 7.09668 63.4713V64.9025H11.6692V63.4713C11.6692 60.4772 11.2371 57.8529 10.588 56.3808Z" fill="#65BC49"/>
<path d="M17.7266 65.9417H1.0396C0.465396 65.9417 0 65.4763 0 64.9021V63.4709C0 60.6467 1.24059 58.0355 3.37282 56.2644C2.10069 54.8169 1.3903 52.9567 1.3903 50.996C1.3903 46.5888 4.97589 43.0035 9.38277 43.0035C13.7897 43.0035 17.3756 46.5888 17.3756 50.996C17.3756 52.9567 16.6652 54.8169 15.3931 56.2644C17.5256 58.0355 18.7662 60.6467 18.7662 63.4709V64.9021C18.7662 65.4763 18.3008 65.9417 17.7266 65.9417ZM2.07921 63.8625H16.6874V63.4709C16.6874 60.9287 15.3955 58.6083 13.2317 57.2638C12.9469 57.0867 12.7646 56.7828 12.7431 56.448C12.7216 56.113 12.8627 55.7882 13.1226 55.5758C14.5042 54.4458 15.2967 52.7765 15.2967 50.9957C15.2967 47.7351 12.644 45.0824 9.38346 45.0824C6.12292 45.0824 3.4702 47.7351 3.4702 50.9957C3.4702 52.7765 4.26272 54.4458 5.64436 55.5758C5.90426 55.7882 6.0453 56.113 6.02381 56.448C6.00233 56.7828 5.82005 57.0867 5.5352 57.2638C3.37144 58.6083 2.07955 60.9287 2.07955 63.4709V63.8625H2.07921Z" fill="#1C2D6B"/>
<path d="M72.5809 56.3757C72.1536 55.1004 71.8805 53.1626 71.8805 50.9912C71.8805 47.1512 72.7333 44.0383 73.7858 44.0383C69.9458 44.0383 66.8325 47.1512 66.8325 50.9912C66.8325 53.1626 67.8288 55.1004 69.3882 56.3757C67.0197 57.8477 65.4419 60.472 65.4419 63.4661V64.8973H71.4993V63.4661C71.4997 60.472 71.9318 57.8477 72.5809 56.3757Z" fill="#A4D4A0"/>
<path d="M78.1833 56.3757C79.7427 55.1004 80.7394 53.1626 80.7394 50.9912C80.7394 47.1512 77.6264 44.0383 73.7861 44.0383C74.8382 44.0383 75.6914 47.1512 75.6914 50.9912C75.6914 53.1626 75.4183 55.1004 74.991 56.3757C75.6401 57.8477 76.0726 60.472 76.0726 63.4661V64.8973H82.13V63.4661C82.13 60.472 80.5519 57.8477 78.1833 56.3757Z" fill="#419B46"/>
<path d="M74.9908 56.3757C75.4181 55.1004 75.6912 53.1626 75.6912 50.9912C75.6912 47.1512 74.8384 44.0383 73.7859 44.0383C72.7339 44.0383 71.8807 47.1512 71.8807 50.9912C71.8807 53.1626 72.1538 55.1004 72.581 56.3757C71.932 57.8477 71.4995 60.472 71.4995 63.4661V64.8973H76.072V63.4661C76.0724 60.472 75.6399 57.8477 74.9908 56.3757Z" fill="#65BC49"/>
<path d="M82.1293 65.9369H65.4419C64.8677 65.9369 64.4023 65.4715 64.4023 64.8973V63.4657C64.4023 60.6415 65.6429 58.0304 67.7755 56.2592C66.5034 54.8117 65.793 52.9515 65.793 50.9912C65.793 46.584 69.3786 42.9987 73.7855 42.9987C78.1923 42.9987 81.7779 46.5843 81.7779 50.9912C81.7779 52.9515 81.0675 54.8114 79.7954 56.2592C81.928 58.0304 83.1686 60.6415 83.1686 63.4657V64.8973C83.1689 65.4718 82.7035 65.9369 82.1293 65.9369ZM66.4819 63.8577H81.0901V63.4657C81.0901 60.9236 79.7982 58.6032 77.6344 57.2583C77.3492 57.0812 77.1673 56.7773 77.1458 56.4425C77.1243 56.1074 77.2654 55.7831 77.5253 55.5703C78.9069 54.4403 79.6994 52.7713 79.6994 50.9908C79.6994 47.7303 77.0467 45.0776 73.7862 45.0776C70.5256 45.0776 67.8729 47.7303 67.8729 50.9908C67.8729 52.7713 68.6654 54.4403 70.047 55.5703C70.3069 55.7824 70.448 56.1074 70.4265 56.4425C70.405 56.7773 70.2227 57.0812 69.9379 57.2583C67.7741 58.6032 66.4822 60.9236 66.4822 63.4657V63.8577H66.4819Z" fill="#1C2D6B"/>
<defs>
<clipPath id="clip0">
<rect width="8.31683" height="8.31683" fill="white" transform="translate(37.4263)"/>
</clipPath>
</defs>
</svg>
