<svg width="125" height="125" viewBox="0 0 125 125" fill="none" xmlns="http://www.w3.org/2000/svg">
<path d="M43.2701 62.4999C43.2701 30.6377 51.8807 4.80762 62.5009 4.80762C30.6387 4.80762 4.80859 30.6377 4.80859 62.4999C4.80859 94.3621 30.6387 120.192 62.5009 120.192C51.8807 120.192 43.2701 94.3621 43.2701 62.4999Z" fill="#EF7F72"/>
<path d="M62.5 4.80762C73.1202 4.80762 81.7308 30.6377 81.7308 62.4999C81.7308 94.3621 73.1202 120.192 62.5 120.192C94.3622 120.192 120.192 94.3621 120.192 62.4999C120.192 30.6377 94.3622 4.80762 62.5 4.80762Z" fill="#E8383B"/>
<path d="M62.5003 120.192C73.1212 120.192 81.7311 94.3625 81.7311 62.4999C81.7311 30.6373 73.1212 4.80762 62.5003 4.80762C51.8794 4.80762 43.2695 30.6373 43.2695 62.4999C43.2695 94.3625 51.8794 120.192 62.5003 120.192Z" fill="#E95947"/>
<path d="M62.5 125C28.0369 125 0 96.9631 0 62.5C0 28.0369 28.0369 0 62.5 0C96.9631 0 125 28.0369 125 62.5C125 96.9631 96.9631 125 62.5 125ZM62.5 9.61539C33.3397 9.61539 9.61539 33.3397 9.61539 62.5C9.61539 91.6603 33.3397 115.385 62.5 115.385C91.6603 115.385 115.385 91.6603 115.385 62.5C115.385 33.3397 91.6603 9.61539 62.5 9.61539Z" fill="#1C2D6B"/>
<path d="M31.2814 66.6779C31.2477 66.6779 31.2173 66.6779 31.1836 66.6779C28.5282 66.625 26.4192 64.4295 26.4737 61.7741C26.7782 46.4808 36.7589 33.0128 51.307 28.258C68.1115 22.7644 86.7606 30.5241 94.6804 46.3061C95.8711 48.6795 94.9128 51.5689 92.5394 52.7596C90.1676 53.9519 87.2766 52.992 86.0859 50.6202C80.2846 39.0545 66.6147 33.3734 54.2926 37.3991C43.6276 40.8847 36.3102 50.7564 36.0859 61.968C36.0346 64.5882 33.892 66.6779 31.2814 66.6779Z" fill="#1C2D6B"/>
<path d="M31.2514 66.6008C29.6873 66.6008 28.1537 65.838 27.2306 64.4342L17.9758 50.3652C16.5158 48.1473 17.1312 45.1649 19.3492 43.7066C21.5703 42.2483 24.5479 42.8637 26.0062 45.08L32.62 55.1329L42.6729 48.5207C44.8925 47.0624 47.8716 47.6778 49.33 49.8941C50.7899 52.1121 50.1745 55.0944 47.9566 56.5528L33.8876 65.8076C33.0751 66.3428 32.1569 66.6008 31.2514 66.6008Z" fill="#1C2D6B"/>
<path d="M62.5846 98.4985C49.2545 98.4985 36.4628 91.0578 30.2577 78.6924C29.067 76.319 30.0253 73.4296 32.3987 72.2389C34.7689 71.0466 37.6616 72.0065 38.8523 74.3783C44.6552 85.944 58.325 91.6267 70.6455 87.5995C81.3106 84.1139 88.6279 74.2421 88.8539 63.0306C88.9068 60.3767 91.1119 58.2902 93.7577 58.3206C96.4116 58.3751 98.5221 60.569 98.4661 63.2245C98.16 78.5178 88.1776 91.9857 73.6311 96.7389C69.9933 97.9296 66.2689 98.4985 62.5846 98.4985Z" fill="#1C2D6B"/>
<path d="M102.957 82.0867C101.393 82.0867 99.8593 81.3238 98.9362 79.92L92.3224 69.8671L82.2696 76.4793C80.0516 77.9376 77.0708 77.3222 75.6125 75.1059C74.1526 72.8879 74.7679 69.9056 76.9859 68.4472L91.0548 59.1924C93.2744 57.7341 96.2551 58.3495 97.7119 60.5658L106.967 74.6348C108.427 76.8527 107.811 79.8351 105.593 81.2934C104.781 81.8303 103.864 82.0867 102.957 82.0867Z" fill="#1C2D6B"/>
</svg>
