<svg width="65" height="70" viewBox="0 0 65 70" fill="none" xmlns="http://www.w3.org/2000/svg">
<path d="M48.2297 59.3728L46.2858 56.7313C42.478 59.8436 37.6139 61.7124 32.3124 61.7124C26.9455 61.7124 22.0267 59.7979 18.1984 56.6162L16.2949 59.1476C21.0182 62.5954 26.6591 64.4745 32.4127 64.4745C38.1264 64.4745 43.5476 62.7181 48.2297 59.3728Z" fill="#EF7F72"/>
<path d="M15.1895 60.6191L13.7686 62.5088C18.8328 66.6161 25.2852 69.0784 32.3134 69.0784C39.2491 69.0784 45.6239 66.6805 50.6575 62.6705L49.3224 60.8561C44.3226 64.4358 38.527 66.3162 32.414 66.3162C26.2603 66.3162 20.2311 64.306 15.1895 60.6191Z" fill="#E8383B"/>
<path d="M32.4112 64.4754C26.6576 64.4754 21.0167 62.5962 16.2934 59.1484L15.187 60.6197C20.2286 64.3066 26.2574 66.3168 32.4112 66.3168C38.5242 66.3168 44.3198 64.4364 49.3196 60.8567L48.2282 59.3737C43.5461 62.719 38.1249 64.4754 32.4112 64.4754Z" fill="#E95947"/>
<path d="M19.6338 15.8168L18.381 13.647C11.185 17.5152 5.78251 24.2865 3.73975 32.394L6.05259 32.8295C8.32493 25.7154 13.1719 19.6353 19.6338 15.8168Z" fill="#EF7F72"/>
<path d="M8.18066 33.231L11.0024 33.7623C12.6363 27.8009 16.7019 22.8487 22.0688 20.0356L20.7077 17.6782C14.785 21.1837 10.3238 26.7332 8.18066 33.231Z" fill="#E8383B"/>
<path d="M20.7096 17.6793L19.6354 15.8188C13.1735 19.6374 8.32623 25.7175 6.0542 32.8316L8.18229 33.2321C10.3254 26.7346 14.7866 21.1851 20.7096 17.6793Z" fill="#E95947"/>
<path d="M45.126 15.8168L46.3788 13.647C53.5748 17.5152 58.9773 24.2865 61.02 32.394L58.7072 32.8295C56.4349 25.7154 51.5879 19.6353 45.126 15.8168Z" fill="#EF7F72"/>
<path d="M56.5795 33.231L53.7578 33.7623C52.1239 27.8009 48.0583 22.8487 42.6914 20.0356L44.0525 17.6782C49.9752 21.1837 54.4361 26.7332 56.5795 33.231Z" fill="#E8383B"/>
<path d="M44.0532 17.6793L45.1274 15.8188C51.5893 19.6374 56.4366 25.7175 58.7086 32.8316L56.5805 33.2321C54.4371 26.7346 49.9762 21.1851 44.0532 17.6793Z" fill="#E95947"/>
<path d="M5.3336 52.9058C5.3336 50.5776 5.72429 48.5376 6.31017 47.3999C5.92286 46.4126 5.67518 44.9036 5.67518 43.2116C5.67518 40.237 6.4403 37.8257 7.38404 37.8257C4.4095 37.8257 1.99814 40.237 1.99814 43.2116C1.99814 44.9036 2.77922 46.4126 3.99947 47.3999C2.15282 48.5376 0.920898 50.5776 0.920898 52.9058V53.9831V56.1372H5.33329V53.9831V52.9058H5.3336Z" fill="#89AADB"/>
<path d="M10.7684 47.3999C11.9886 46.4126 12.7697 44.9036 12.7697 43.2116C12.7697 40.237 10.3583 37.8257 7.38379 37.8257C8.32753 37.8257 9.09264 40.237 9.09264 43.2116C9.09264 44.9036 8.84497 46.4126 8.45765 47.3999C9.04354 48.5376 9.43423 50.5776 9.43423 52.9058V53.9831V56.1372H13.8466V53.9831V52.9058C13.8469 50.5773 12.6153 48.5373 10.7684 47.3999Z" fill="#4B67B0"/>
<path d="M9.43487 52.9058C9.43487 50.5776 9.04417 48.5376 8.45829 47.3999C8.84561 46.4126 9.09328 44.9036 9.09328 43.2116C9.09328 40.237 8.32816 37.8257 7.38442 37.8257C6.44069 37.8257 5.67557 40.237 5.67557 43.2116C5.67557 44.9036 5.92325 46.4126 6.31056 47.3999C5.72468 48.5376 5.33398 50.5776 5.33398 52.9058V53.9831V56.1372H9.43487V53.9831V52.9058Z" fill="#6287C5"/>
<path d="M7.38572 49.5172C3.90816 49.5172 1.0791 46.6882 1.0791 43.2109C1.0791 39.7337 3.90816 36.9043 7.38572 36.9043C10.8633 36.9043 13.6923 39.7334 13.6923 43.2109C13.6923 46.6885 10.8633 49.5172 7.38572 49.5172ZM7.38572 38.7457C4.92371 38.7457 2.92054 40.7486 2.92054 43.2109C2.92054 45.6729 4.92341 47.6758 7.38572 47.6758C9.84802 47.6758 11.8509 45.6729 11.8509 43.2109C11.8509 40.7486 9.84802 38.7457 7.38572 38.7457Z" fill="#1C2D6B"/>
<path d="M13.8467 57.0589H0.920719C0.412175 57.0589 0 56.6467 0 56.1382V52.9068C0 50.3248 1.31448 47.9733 3.51622 46.6167C3.8483 46.412 4.27428 46.439 4.57812 46.6849C5.38068 47.3343 6.35081 47.6774 7.38386 47.6774C8.4169 47.6774 9.38673 47.3343 10.1893 46.6852C10.4931 46.4391 10.9191 46.4124 11.2512 46.6171C13.4532 47.9736 14.7677 50.3248 14.7677 52.9071V56.1385C14.7674 56.6467 14.3552 57.0589 13.8467 57.0589ZM1.84144 55.2175H12.926V52.9068C12.926 51.17 12.1332 49.5723 10.7789 48.526C9.77005 49.1702 8.58754 49.5189 7.38386 49.5189C6.18017 49.5189 4.99766 49.1699 3.98855 48.526C2.63448 49.5723 1.84174 51.1703 1.84174 52.9068V55.2175H1.84144Z" fill="#1C2D6B"/>
<path d="M55.19 52.9058C55.19 50.5776 55.5807 48.5376 56.1666 47.3999C55.7793 46.4126 55.5316 44.9036 55.5316 43.2116C55.5316 40.237 56.2967 37.8257 57.2405 37.8257C54.2659 37.8257 51.8546 40.237 51.8546 43.2116C51.8546 44.9036 52.6354 46.4126 53.8559 47.3999C52.009 48.5376 50.7773 50.5776 50.7773 52.9058V53.9831V56.1372H55.1897V53.9831V52.9058H55.19Z" fill="#89AADB"/>
<path d="M60.6243 47.3999C61.8446 46.4126 62.6256 44.9036 62.6256 43.2116C62.6256 40.237 60.2143 37.8257 57.2397 37.8257C58.1835 37.8257 58.9486 40.237 58.9486 43.2116C58.9486 44.9036 58.7009 46.4126 58.3136 47.3999C58.8995 48.5376 59.2902 50.5776 59.2902 52.9058V53.9831V56.1372H63.7026V53.9831V52.9058C63.7029 50.5773 62.4713 48.5373 60.6243 47.3999Z" fill="#4B67B0"/>
<path d="M59.2903 52.9058C59.2903 50.5776 58.8996 48.5376 58.3138 47.3999C58.7011 46.4126 58.9488 44.9036 58.9488 43.2116C58.9488 40.237 58.1836 37.8257 57.2399 37.8257C56.2962 37.8257 55.531 40.237 55.531 43.2116C55.531 44.9036 55.7787 46.4126 56.166 47.3999C55.5801 48.5376 55.1895 50.5776 55.1895 52.9058V53.9831V56.1372H59.2903V53.9831V52.9058Z" fill="#6287C5"/>
<path d="M57.2412 49.5172C53.7636 49.5172 50.9346 46.6882 50.9346 43.2109C50.9346 39.7337 53.7636 36.9043 57.2412 36.9043C60.7187 36.9043 63.5478 39.7334 63.5478 43.2109C63.5478 46.6885 60.7187 49.5172 57.2412 49.5172ZM57.2412 38.7457C54.7792 38.7457 52.776 40.7486 52.776 43.2109C52.776 45.6729 54.7789 47.6758 57.2412 47.6758C59.7035 47.6758 61.7064 45.6729 61.7064 43.2109C61.7061 40.7486 59.7032 38.7457 57.2412 38.7457Z" fill="#1C2D6B"/>
<path d="M63.7036 57.0591H50.7777C50.2691 57.0591 49.8569 56.6469 49.8569 56.1384V52.907C49.8569 50.3247 51.1714 47.9735 53.3735 46.6169C53.7055 46.4122 54.1318 46.4389 54.4354 46.6851C55.2376 47.3342 56.2077 47.6773 57.2408 47.6773C58.2738 47.6773 59.2437 47.3342 60.0465 46.6848C60.3501 46.4389 60.7763 46.4122 61.1084 46.6166C63.3102 47.9731 64.6246 50.3247 64.6246 52.9067V56.1381C64.6243 56.6469 64.2122 57.0591 63.7036 57.0591ZM51.6984 55.2177H62.7829V52.907C62.7829 51.1702 61.9902 49.5724 60.6361 48.5262C59.627 49.1701 58.4442 49.519 57.2408 49.519C56.0368 49.519 54.8546 49.1701 53.8458 48.5262C52.4914 49.5724 51.6987 51.1705 51.6987 52.907V55.2177H51.6984Z" fill="#1C2D6B"/>
<path d="M30.4 16.001C30.4 13.6729 30.7907 11.6328 31.3766 10.4951C30.9893 9.50783 30.7416 7.99877 30.7416 6.3068C30.7416 3.33226 31.5067 0.920898 32.4504 0.920898C29.4759 0.920898 27.0645 3.33226 27.0645 6.3068C27.0645 7.99877 27.8453 9.50783 29.0659 10.4951C27.2189 11.6328 25.9873 13.6729 25.9873 16.001V17.0783V19.2325H30.3997V17.0783V16.001H30.4Z" fill="#89AADB"/>
<path d="M35.8352 10.4951C37.0555 9.50783 37.8366 7.99877 37.8366 6.3068C37.8366 3.33226 35.4252 0.920898 32.4507 0.920898C33.3944 0.920898 34.1595 3.33226 34.1595 6.3068C34.1595 7.99877 33.9119 9.50783 33.5245 10.4951C34.1104 11.6328 34.5011 13.6729 34.5011 16.001V17.0783V19.2325H38.9135V17.0783V16.001C38.9138 13.6729 37.6822 11.6328 35.8352 10.4951Z" fill="#4B67B0"/>
<path d="M34.5008 16.001C34.5008 13.6729 34.1101 11.6328 33.5242 10.4951C33.9115 9.50783 34.1592 7.99877 34.1592 6.3068C34.1592 3.33226 33.3941 0.920898 32.4503 0.920898C31.5066 0.920898 30.7415 3.33226 30.7415 6.3068C30.7415 7.99877 30.9892 9.50783 31.3765 10.4951C30.7906 11.6328 30.3999 13.6729 30.3999 16.001V17.0783V19.2325H34.5008V17.0783V16.001Z" fill="#6287C5"/>
<path d="M32.4497 12.6129C28.9721 12.6129 26.1431 9.78386 26.1431 6.30631C26.1431 2.82875 28.9721 0 32.4497 0C35.9272 0 38.7563 2.82906 38.7563 6.30631C38.7563 9.78356 35.9272 12.6129 32.4497 12.6129ZM32.4497 1.84144C29.9877 1.84144 27.9845 3.84431 27.9845 6.30631C27.9845 8.76831 29.9874 10.7715 32.4497 10.7715C34.912 10.7715 36.9149 8.76862 36.9149 6.30631C36.9149 3.84431 34.912 1.84144 32.4497 1.84144Z" fill="#1C2D6B"/>
<path d="M38.9146 20.1526H25.9886C25.48 20.1526 25.0679 19.7404 25.0679 19.2319V16.0005C25.0679 13.4182 26.3824 11.0669 28.5844 9.71073C28.9162 9.50602 29.3425 9.53272 29.6463 9.77886C30.4486 10.428 31.4187 10.7711 32.4517 10.7711C33.4848 10.7711 34.4549 10.428 35.2575 9.77886C35.5613 9.53272 35.9876 9.50571 36.3194 9.71073C38.5211 11.0666 39.8356 13.4182 39.8356 16.0005V19.2319C39.8353 19.7404 39.4231 20.1526 38.9146 20.1526ZM26.9093 18.3112H37.9938V16.0005C37.9938 14.2637 37.2014 12.6659 35.847 11.6197C34.8382 12.2639 33.6554 12.6125 32.4517 12.6125C31.248 12.6125 30.0655 12.2636 29.0567 11.6197C27.7024 12.6659 26.9096 14.2637 26.9096 16.0005V18.3112H26.9093Z" fill="#1C2D6B"/>
<path d="M11.0048 34.682C10.9481 34.682 10.891 34.6767 10.8336 34.666L3.57096 33.2987C3.32145 33.2518 3.10232 33.1038 2.96544 32.8899C2.82856 32.676 2.7862 32.4151 2.8482 32.169C4.92596 23.9234 10.4288 16.8765 17.9465 12.8358C18.3844 12.6007 18.931 12.7553 19.1796 13.1865L22.8677 19.5742C22.9932 19.7915 23.0245 20.0502 22.9546 20.2908C22.8849 20.5317 22.7198 20.7334 22.4979 20.85C17.3026 23.5732 13.4371 28.3677 11.8918 34.0046C11.7807 34.4103 11.4118 34.682 11.0048 34.682ZM4.88974 31.673L10.356 32.7021C12.0784 27.2324 15.8273 22.5616 20.8038 19.6816L18.0388 14.8926C11.6592 18.5838 6.93005 24.6206 4.88974 31.673Z" fill="#1C2D6B"/>
<path d="M53.7562 34.6816C53.3492 34.6816 52.9806 34.4103 52.8689 34.004C51.3243 28.3673 47.4585 23.5725 42.2628 20.8494C42.0406 20.733 41.8755 20.5311 41.8059 20.2902C41.7362 20.0493 41.7675 19.7905 41.893 19.5736L45.5814 13.1859C45.8297 12.755 46.3751 12.5991 46.8149 12.8351C54.3325 16.8762 59.8354 23.923 61.9125 32.1684C61.9745 32.4145 61.9319 32.6754 61.7953 32.8893C61.6587 33.1032 61.4396 33.2511 61.1898 33.2981L53.9271 34.6654C53.87 34.6764 53.813 34.6816 53.7562 34.6816ZM43.9573 19.6813C48.9341 22.5616 52.6832 27.2324 54.405 32.7018L59.8713 31.6727C57.8316 24.6203 53.1022 18.5835 46.7225 14.892L43.9573 19.6813Z" fill="#1C2D6B"/>
<path d="M32.3104 69.9999C25.3648 69.9999 18.5727 67.5938 13.1862 63.2246C12.8013 62.9125 12.7322 62.3521 13.0303 61.9562L17.4608 56.0639C17.6121 55.8626 17.8392 55.7318 18.0896 55.7027C18.3413 55.6729 18.5914 55.7481 18.7851 55.9089C22.5741 59.0584 27.3778 60.7927 32.3104 60.7927C37.1798 60.7927 41.9353 59.0977 45.7013 56.0194C45.8972 55.8595 46.1479 55.7877 46.3993 55.8187C46.6494 55.8503 46.8759 55.9832 47.0253 56.1864L51.3957 62.1253C51.6891 62.524 51.6148 63.0829 51.2278 63.3913C45.8014 67.7147 39.26 69.9999 32.3104 69.9999ZM15.0436 62.3423C19.986 66.0994 26.0821 68.1585 32.3104 68.1585C38.5424 68.1585 44.4246 66.2026 49.3796 62.4927L46.1043 58.0419C42.1403 61.01 37.2798 62.6345 32.3104 62.6345C27.2716 62.6345 22.3565 60.9695 18.3637 57.9271L15.0436 62.3423Z" fill="#1C2D6B"/>
<path d="M38.8042 50.8603C38.8106 50.1906 38.8969 49.5814 39.0347 49.1131C39.096 48.9053 39.1341 48.6454 39.1341 48.3679V48.0607C39.1341 47.4644 38.973 46.981 38.7744 46.981H37.2706V32.2495H32.3125V46.981H36.8265C37.4228 46.981 37.9062 47.4644 37.9062 48.0607V48.3679C37.9062 48.6454 37.7917 48.9053 37.6079 49.1131C37.1935 49.5814 36.9354 50.1906 36.9158 50.8603C36.8716 52.3629 38.0974 53.6642 39.6003 53.7056C39.6304 53.7066 39.6598 53.7038 39.6899 53.7035C39.1933 53.6473 38.7898 52.354 38.8042 50.8603Z" fill="#A4D4A0"/>
<path d="M42.2259 32.2495V46.981H40.7217C40.5232 46.981 40.362 47.4644 40.362 48.0607V48.5346C40.362 48.7853 40.3924 49.0244 40.4446 49.2202C40.5704 49.6925 40.6462 50.2907 40.6462 50.9429C40.6462 52.4458 40.2463 53.6648 39.7485 53.7023C41.2422 53.6648 42.4429 52.4458 42.4429 50.9429C42.4429 50.2907 42.2161 49.6925 41.838 49.2202C41.6814 49.0244 41.59 48.7853 41.59 48.5346V48.0607C41.59 47.4644 42.0734 46.981 42.6697 46.981H47.1843V32.2495H42.2259Z" fill="#419B46"/>
<path d="M39.6968 53.7051C39.7113 53.7065 39.7256 53.7032 39.7398 53.7021C39.7229 53.7024 39.7059 53.7032 39.689 53.7032C39.6917 53.7038 39.6943 53.7051 39.6968 53.7051Z" fill="#65BC49"/>
<path d="M40.6449 50.9429C40.6449 50.2907 40.5694 49.6925 40.4433 49.2202C40.3911 49.0244 40.3607 48.7853 40.3607 48.5346V48.0607C40.3607 47.4644 40.5219 46.981 40.7204 46.981H42.2246V32.2495H37.2705V46.981H38.7743C38.9729 46.981 39.134 47.4644 39.134 48.0607V48.3679C39.134 48.6454 39.096 48.9053 39.0346 49.1131C38.8965 49.5814 38.8106 50.1906 38.8041 50.8603C38.7894 52.354 39.193 53.6473 39.6895 53.7035C39.7089 53.7035 39.7282 53.7026 39.7475 53.7023C40.245 53.6648 40.6449 52.4458 40.6449 50.9429Z" fill="#65BC49"/>
<path d="M39.6788 54.6268C39.6441 54.6268 39.6088 54.6265 39.5738 54.6256C38.6019 54.5989 37.691 54.1864 37.0093 53.4645C36.3265 52.7415 35.9662 51.8069 35.9944 50.8328C36.0199 49.9738 36.3476 49.1461 36.9179 48.5022C36.9599 48.4549 36.9851 48.4043 36.9851 48.3674V48.0605C36.9851 47.9728 36.9139 47.9016 36.8258 47.9016H32.3118C31.8033 47.9016 31.3911 47.4894 31.3911 46.9808V32.2493C31.3911 31.7408 31.8033 31.3286 32.3118 31.3286H47.1824C47.6909 31.3286 48.1031 31.7408 48.1031 32.2493V46.9808C48.1031 47.4894 47.6909 47.9016 47.1824 47.9016H42.6681C42.5806 47.9016 42.5091 47.9728 42.5091 48.0605V48.5341C42.5091 48.5682 42.5257 48.6074 42.5551 48.6446C43.0753 49.2943 43.362 50.1104 43.362 50.9424C43.362 51.946 42.9658 52.8839 42.2464 53.5836C41.5525 54.2585 40.644 54.6268 39.6788 54.6268ZM33.2326 46.0598H36.8258C37.9291 46.0598 38.8265 46.9572 38.8265 48.0602V48.3671C38.8265 48.8548 38.6387 49.336 38.2971 49.7221C38.0117 50.0444 37.8478 50.4578 37.8352 50.8865C37.8211 51.3681 38.0031 51.8346 38.3481 52.1995C38.6918 52.5635 39.1451 52.7709 39.6248 52.7841C40.1287 52.7998 40.6029 52.6129 40.9626 52.263C41.3226 51.9128 41.5206 51.4436 41.5206 50.9418C41.5206 50.5207 41.3812 50.1239 41.1176 49.7945C40.8276 49.4318 40.6677 48.984 40.6677 48.5335V48.0599C40.6677 46.9569 41.5651 46.0595 42.6681 46.0595H46.2616V33.1694H33.2326V46.0598Z" fill="#1C2D6B"/>
<path d="M24.1805 32.2504C24.3364 32.2504 24.4629 31.767 24.4629 31.1707V30.6972C24.4629 30.4464 24.4389 30.207 24.3981 30.0115C24.2993 29.5392 24.2401 28.9411 24.2401 28.2889C24.2401 26.7863 24.5537 25.5678 24.9441 25.5298C23.451 25.5681 22.2513 26.7866 22.2513 28.2889C22.2513 28.9411 22.4781 29.5392 22.8562 30.0115C23.0128 30.2073 23.1042 30.4464 23.1042 30.6972V31.1707C23.1042 31.767 22.6208 32.2504 22.0245 32.2504H17.5796V46.9819H23.0183V32.2504H24.1805Z" fill="#EDE49D"/>
<path d="M24.9807 25.5276C24.9692 25.5265 24.9576 25.5295 24.9463 25.5305C24.96 25.5303 24.9737 25.5297 24.9877 25.5297C24.9853 25.5292 24.9829 25.5278 24.9807 25.5276Z" fill="#EEE045"/>
<path d="M36.2795 36.9229C35.6399 36.9214 35.0518 37.1381 34.5832 37.5015C34.3631 37.6721 34.0989 37.7758 33.8205 37.7758H33.6524C32.9885 37.7758 32.4502 37.2375 32.4502 36.5737V32.2515H27.8663C27.2699 32.2515 26.7866 31.7681 26.7866 31.1718V30.8649C26.7866 30.5875 26.901 30.3278 27.0849 30.1201C27.4989 29.652 27.757 29.0428 27.7769 28.3735C27.8214 26.8708 26.5966 25.5696 25.0937 25.5275C25.0587 25.5266 25.0249 25.5297 24.9902 25.53C25.3794 25.5886 25.6955 26.881 25.6838 28.3735C25.6786 29.0428 25.6111 29.652 25.5028 30.1201C25.4546 30.3278 25.4248 30.5878 25.4248 30.8649V31.1718C25.4248 31.7681 25.5513 32.2515 25.7072 32.2515H26.9056V35.7196V36.5737V42.6609V44.1515V46.983H32.4496V42.6609C32.4496 41.997 32.9879 41.4587 33.6517 41.4587C33.9543 41.4587 34.2385 41.5812 34.4675 41.7791C34.9515 42.1974 35.5822 42.4506 36.2721 42.4506C37.8263 42.4506 39.0809 41.1678 39.0346 39.6032C38.9916 38.1349 37.7483 36.9263 36.2795 36.9229Z" fill="#D3BA2A"/>
<path d="M26.9082 36.5725V35.7184V32.2504H25.7097C25.5538 32.2504 25.4274 31.767 25.4274 31.1707V30.8638C25.4274 30.5863 25.4575 30.3267 25.5053 30.1189C25.6137 29.6509 25.6812 29.0417 25.6864 28.3723C25.6981 26.8798 25.382 25.5874 24.9928 25.5288C24.9769 25.5288 24.9612 25.5294 24.9455 25.5297C24.5552 25.5681 24.2415 26.7865 24.2415 28.2888C24.2415 28.941 24.3007 29.5392 24.3996 30.0115C24.4407 30.2073 24.4643 30.4464 24.4643 30.6971V31.1707C24.4643 31.767 24.3379 32.2504 24.182 32.2504H23.02V46.9819H26.9079V44.1503V42.6597V36.5725H26.9082Z" fill="#EEE045"/>
<path d="M32.4504 47.9026H17.5799C17.0714 47.9026 16.6592 47.4904 16.6592 46.9819V32.2504C16.6592 31.7418 17.0714 31.3296 17.5799 31.3296H22.0245C22.112 31.3296 22.1835 31.2584 22.1835 31.1707V30.6971C22.1835 30.663 22.1669 30.6241 22.1375 30.5869C21.6172 29.9366 21.3306 29.1205 21.3306 28.2888C21.3306 27.2849 21.7271 26.3467 22.4468 25.647C23.1665 24.9472 24.1149 24.5814 25.1206 24.6056C26.0922 24.6329 27.0028 25.0457 27.6845 25.7679C28.3673 26.491 28.727 27.4258 28.6985 28.3996C28.673 29.2574 28.3452 30.0848 27.775 30.7287C27.7333 30.776 27.7081 30.8266 27.7081 30.8634V31.1704C27.7081 31.2578 27.7793 31.3293 27.8671 31.3293H32.451C32.9596 31.3293 33.3718 31.7415 33.3718 32.25V36.5722C33.3718 36.7275 33.4979 36.8536 33.6532 36.8536H33.8217C33.8821 36.8536 33.9527 36.8248 34.0199 36.7726C34.6703 36.2674 35.4498 36.0004 36.2736 36.0004H36.2825H36.2828C38.2503 36.0054 39.8984 37.6083 39.9567 39.5741C39.9865 40.5798 39.6173 41.5306 38.9172 42.2515C38.2172 42.9724 37.2784 43.3696 36.2736 43.3696C35.39 43.3696 34.5352 43.0516 33.8668 42.4743C33.8254 42.4384 33.7422 42.378 33.6532 42.378C33.4979 42.378 33.3718 42.5044 33.3718 42.6594V46.9815C33.3711 47.4904 32.959 47.9026 32.4504 47.9026ZM18.5006 46.0611H31.5297V42.6597C31.5297 41.4892 32.482 40.5368 33.6526 40.5368C34.1605 40.5368 34.6638 40.7302 35.0702 41.0813C35.4041 41.3698 35.831 41.5287 36.2729 41.5287C36.7757 41.5287 37.2455 41.3302 37.5957 40.9693C37.9459 40.6086 38.1303 40.1326 38.1153 39.629C38.0868 38.6632 37.2452 37.8449 36.2775 37.8425C36.2763 37.8425 36.2748 37.8425 36.2732 37.8425C35.862 37.8425 35.4731 37.9757 35.1484 38.2277C34.7541 38.5336 34.2952 38.6954 33.8211 38.6954H33.6526C32.482 38.6954 31.5297 37.7431 31.5297 36.5725V33.1711H27.8665C26.7635 33.1711 25.8661 32.2737 25.8661 31.1707V30.8638C25.8661 30.3761 26.0539 29.8948 26.3952 29.5088C26.6806 29.1865 26.8445 28.7734 26.8571 28.345C26.8715 27.8631 26.6895 27.3969 26.3448 27.0317C26.0014 26.6677 25.5481 26.46 25.0687 26.4464C24.562 26.4314 24.09 26.6174 23.7303 26.967C23.3703 27.3171 23.172 27.7864 23.172 28.2885C23.172 28.7099 23.3114 29.1064 23.5747 29.4357C23.8647 29.7979 24.0249 30.2459 24.0249 30.6968V31.1704C24.0249 32.2734 23.1275 33.1708 22.0245 33.1708H18.5006V46.0611Z" fill="#1C2D6B"/>
</svg>
