<svg width="125" height="125" viewBox="0 0 125 125" fill="none" xmlns="http://www.w3.org/2000/svg">
<path d="M21.6875 1.68359H55.3417V102.646H21.6875V1.68359Z" fill="#89AADB"/>
<path d="M73.7055 1.68359V86.2656L65.7188 102.646H86.3319L102.458 86.2656V1.68359H73.7055Z" fill="#4B67B0"/>
<path d="M76.6499 1.68359H49.7266V102.646H71.0409L76.6499 86.2656V1.68359Z" fill="#6287C5"/>
<path d="M85.6257 104.328H21.6827C20.7533 104.328 20 103.575 20 102.645V1.68271C20 0.753293 20.7533 0 21.6827 0H102.453C103.382 0 104.136 0.753293 104.136 1.68271V86.2641C104.136 86.7185 103.952 87.1532 103.627 87.4695L86.7997 103.851C86.4856 104.157 86.0643 104.328 85.6257 104.328ZM23.3654 100.963H84.942L100.77 85.554V3.36542H23.3654V100.963Z" fill="#1C2D6B"/>
<path d="M85.6202 104.329C85.3992 104.329 85.1771 104.285 84.9662 104.196C84.3425 103.933 83.9375 103.322 83.9375 102.646V86.2647C83.9375 85.3353 84.6908 84.582 85.6202 84.582H102.447C103.132 84.582 103.749 84.9971 104.006 85.6315C104.264 86.2659 104.112 86.9934 103.621 87.4707L86.7936 103.852C86.4733 104.164 86.0504 104.329 85.6202 104.329V104.329ZM87.3029 87.9475V98.659L98.3067 87.9475H87.3029Z" fill="#1C2D6B"/>
<rect x="32.3477" y="12.6196" width="59.7362" height="3.36542" rx="1.68271" fill="#1C2D6B"/>
<rect x="32.3477" y="19.6333" width="59.7362" height="3.36543" rx="1.68271" fill="#1C2D6B"/>
<rect x="32.3477" y="68.1499" width="59.7362" height="3.36543" rx="1.68271" fill="#1C2D6B"/>
<rect x="32.3477" y="75.1621" width="59.7362" height="3.36542" rx="1.68271" fill="#1C2D6B"/>
<path d="M61.5215 37.4024L61.5314 37.3939L61.5412 37.3853C62.1637 36.8378 63.4685 36.3823 65.8629 36.3823C67.9112 36.3823 69.9853 36.5482 72.0859 36.8813C73.5421 37.1123 74.933 36.0428 75.0031 34.5167L75.1013 32.379C75.1572 31.1618 74.3236 30.0667 73.1099 29.8209C69.8703 29.1648 67.0529 28.8247 64.6771 28.8247C60.7658 28.8247 57.5732 29.6977 55.4352 31.7563C53.5789 33.5158 52.4549 36.125 51.9003 39.3641H51.2578C49.8771 39.3641 48.7578 40.4834 48.7578 41.8641V43.852C48.7578 45.2327 49.8771 46.352 51.2578 46.352H51.414V46.5136C51.414 46.7209 51.4147 46.9172 51.4162 47.1025H51.2578C49.8771 47.1025 48.7578 48.2217 48.7578 49.6025V51.5903C48.7578 52.971 49.8771 54.0903 51.2578 54.0903H51.9717C52.5602 57.1526 53.7047 59.6385 55.5352 61.3707L55.5405 61.3757L55.5458 61.3807C57.6804 63.3618 60.83 64.2024 64.6771 64.2024C67.3598 64.2024 70.1628 63.8994 73.0832 63.301C74.2865 63.0545 75.1059 61.974 75.0652 60.777L74.9892 58.546C74.9382 57.0507 73.6039 55.9548 72.1485 56.1472C69.6194 56.4815 67.416 56.6449 65.5309 56.6449C63.423 56.6449 62.1909 56.2501 61.5376 55.7412C61.1376 55.4099 60.7582 54.888 60.4515 54.0903H69.7484C71.1291 54.0903 72.2484 52.971 72.2484 51.5903V49.6025C72.2484 48.2217 71.1291 47.1025 69.7484 47.1025H59.6789V46.352H69.7484C71.1291 46.352 72.2484 45.2327 72.2484 43.852V41.8641C72.2484 40.4834 71.1291 39.3641 69.7484 39.3641H60.3736C60.6875 38.3743 61.0974 37.7625 61.5215 37.4024Z" fill="white" stroke="#1C2D6B" stroke-width="3"/>
<path d="M99.1406 99.5454C99.8869 99.7188 100.445 100.385 100.445 101.184V112.066C100.445 112.865 99.8869 113.531 99.1406 113.704C101.357 113.401 103.066 111.505 103.066 109.205V104.044C103.066 101.745 101.357 99.8487 99.1406 99.5454V99.5454Z" fill="#419B46"/>
<path d="M98.5103 99.4985H95.9297V113.752H98.5103C98.5242 113.752 98.5376 113.75 98.5511 113.75V99.5005C98.5376 99.5005 98.5242 99.4985 98.5103 99.4985Z" fill="#A4D4A0"/>
<path d="M98.7605 99.499H98.5625V99.501C98.7593 99.503 98.9517 99.52 99.1417 99.5461C99.019 99.5176 98.8923 99.499 98.7605 99.499Z" fill="#65BC49"/>
<path d="M98.5625 113.753H98.7605C98.8923 113.753 99.019 113.734 99.1417 113.706C98.9517 113.732 98.7593 113.749 98.5625 113.751V113.753Z" fill="#65BC49"/>
<path d="M100.446 112.066V101.184C100.446 100.385 99.888 99.7195 99.1417 99.5461C98.9517 99.52 98.7593 99.503 98.5625 99.501V113.75C98.7593 113.748 98.9517 113.731 99.1417 113.705C99.888 113.531 100.446 112.865 100.446 112.066V112.066Z" fill="#65BC49"/>
<path d="M80.2955 93.0423C80.2955 92.872 80.3022 92.7093 80.3145 92.5541L77.3423 91.2333C76.0334 90.6517 74.5586 91.6098 74.5586 93.0423V120.207C74.5586 121.64 76.033 122.598 77.3423 122.016L80.3145 120.695C80.3026 120.541 80.2955 120.377 80.2955 120.207V93.0423Z" fill="#EF7F72"/>
<path d="M90.006 96.8639L82.8672 93.6914L85.0804 96.8643C85.3021 97.1818 85.445 97.8909 85.445 98.6733V114.577C85.445 115.359 85.3021 116.068 85.0804 116.386L82.8672 119.558L90.006 116.386C90.7211 116.068 91.1815 115.359 91.1815 114.577V98.6733C91.1815 97.8905 90.7207 97.1818 90.006 96.8639Z" fill="#E8383B"/>
<path d="M85.4408 114.577V98.6736C85.4408 97.8913 85.2979 97.1826 85.0762 96.8647L82.863 93.6918L80.3042 92.5547C80.2923 92.7095 80.2852 92.8726 80.2852 93.0429V120.208C80.2852 120.378 80.2919 120.541 80.3042 120.696L82.8626 119.559L85.0758 116.386C85.2983 116.068 85.4408 115.359 85.4408 114.577V114.577Z" fill="#E95947"/>
<path d="M98.5184 114.94H95.9378C95.2817 114.94 94.75 114.408 94.75 113.752V99.4988C94.75 98.8428 95.2817 98.311 95.9378 98.311H98.5184C101.68 98.311 104.252 100.883 104.252 104.045V109.206C104.252 112.368 101.68 114.94 98.5184 114.94ZM97.1255 112.564H98.5184C100.37 112.564 101.877 111.058 101.877 109.206V104.045C101.877 102.193 100.37 100.687 98.5184 100.687H97.1255V112.564Z" fill="#1C2D6B"/>
<path d="M76.5369 123.377C75.9347 123.377 75.3361 123.204 74.8126 122.864C73.9099 122.278 73.3711 121.285 73.3711 120.208V93.0434C73.3711 91.9669 73.9099 90.9739 74.8122 90.3875C75.7153 89.8012 76.8409 89.7117 77.8248 90.1488L90.4943 95.78C91.6369 96.2875 92.3753 97.4238 92.3753 98.6745V114.578C92.3753 115.828 91.6369 116.964 90.4947 117.472L77.8252 123.103C77.4115 123.286 76.9732 123.377 76.5369 123.377V123.377ZM76.5389 92.2491C76.3361 92.2491 76.1798 92.3315 76.1069 92.379C75.9984 92.4495 75.7466 92.655 75.7466 93.043V120.208C75.7466 120.595 75.9988 120.801 76.1069 120.872C76.215 120.942 76.5056 121.089 76.8599 120.932L89.5294 115.301C89.8149 115.174 89.9998 114.89 89.9998 114.577V98.6738C89.9998 98.361 89.8153 98.0771 89.5294 97.9504L76.8599 92.3192C76.7447 92.2682 76.6367 92.2491 76.5389 92.2491V92.2491Z" fill="#1C2D6B"/>
<path d="M51.046 107.094C51.046 101.583 53.2873 96.385 57.3811 92.3407L55.415 90.3745C46.1794 99.6101 46.1794 114.578 55.415 123.814L57.3811 121.847C53.2869 117.803 51.046 112.605 51.046 107.094V107.094Z" fill="#EDE49D"/>
<path d="M60.1975 95.1501L58.3668 93.3193C54.5355 97.1028 52.4375 101.955 52.4375 107.093C52.4375 112.23 54.5351 117.083 58.3668 120.866L60.1975 119.035C53.6011 112.439 53.6011 101.747 60.1975 95.1501Z" fill="#D3BA2A"/>
<path d="M52.4326 107.093C52.4326 101.955 54.5302 97.1023 58.3619 93.3193L57.382 92.3394C53.2882 96.3837 51.0469 101.581 51.0469 107.093C51.0469 112.604 53.2882 117.801 57.382 121.846L58.3619 120.866C54.5302 117.083 52.4326 112.23 52.4326 107.093V107.093Z" fill="#EEE045"/>
<path d="M66.3592 101.314L64.9715 99.9268C61.0147 103.884 61.0147 110.301 64.9715 114.258L66.3592 112.87C64.1393 109.354 64.1393 104.831 66.3592 101.314Z" fill="#EDE49D"/>
<path d="M69.7434 104.704L67.3687 102.33C65.6531 105.263 65.6531 108.922 67.3687 111.856L69.7434 109.481C68.4258 108.163 68.4258 106.022 69.7434 104.704V104.704Z" fill="#D3BA2A"/>
<path d="M67.3668 102.33L66.3524 101.315C64.1325 104.832 64.1325 109.355 66.3524 112.871L67.3668 111.856C65.6513 108.922 65.6513 105.263 67.3668 102.33V102.33Z" fill="#EEE045"/>
<path d="M55.4156 125C55.1115 125 54.8074 124.884 54.5758 124.652C49.8846 119.961 47.3008 113.725 47.3008 107.093C47.3008 100.461 49.8842 94.2245 54.5758 89.5333C55.0394 89.0696 55.7921 89.0696 56.2553 89.5333L61.0321 94.31C61.4961 94.7737 61.4961 95.5259 61.0321 95.9895C54.9104 102.112 54.9104 112.073 61.0321 118.195C61.4961 118.659 61.4961 119.411 61.0321 119.875L56.2553 124.651C56.0237 124.884 55.7196 125 55.4156 125V125ZM55.4373 92.0743C51.7137 96.2041 49.6767 101.492 49.6767 107.092C49.6767 112.693 51.7141 117.981 55.4373 122.11L58.5402 119.008C52.5756 112.211 52.5756 101.973 58.5402 95.1771L55.4373 92.0743Z" fill="#1C2D6B"/>
<path d="M64.9668 115.446C64.6517 115.446 64.3496 115.321 64.1267 115.098C59.713 110.684 59.713 103.501 64.1267 99.0876C64.5721 98.6422 65.3608 98.6418 65.8066 99.0876L70.5838 103.865C71.0478 104.328 71.0478 105.081 70.5838 105.544C70.1708 105.957 69.9436 106.507 69.9436 107.093C69.9436 107.679 70.1708 108.229 70.5838 108.642C71.0478 109.106 71.0478 109.858 70.5838 110.321L65.8066 115.099C65.5841 115.321 65.282 115.446 64.9668 115.446V115.446ZM65.0223 101.663C62.5802 104.856 62.5802 109.33 65.0223 112.524L68.175 109.371C67.3669 107.966 67.3669 106.22 68.175 104.815L65.0223 101.663Z" fill="#1C2D6B"/>
</svg>
