<svg width="125" height="125" viewBox="0 0 125 125" fill="none" xmlns="http://www.w3.org/2000/svg">
<path d="M3.51172 65.0063H27.7859V73.7613H3.51172V65.0063Z" fill="#EF7F72"/>
<path d="M64.0781 65.0063H88.3523V73.7613H64.0781V65.0063Z" fill="#E8383B"/>
<path d="M27.7852 65.0063H64.0744V73.7613H27.7852V65.0063Z" fill="#E95947"/>
<path d="M61.332 16.5278H85.6516V65.0064H61.332V16.5278Z" fill="#D3BA2A"/>
<path d="M6.61719 16.5278H30.9368V65.0064H6.61719V16.5278Z" fill="#EDE49D"/>
<path d="M30.9336 16.5278H61.3327V65.0064H30.9336V16.5278Z" fill="#EEE045"/>
<path d="M85.6548 66.5212H6.61652C5.77976 66.5212 5.10156 65.843 5.10156 65.0063V16.5277C5.10156 15.6909 5.77976 15.0127 6.61652 15.0127H85.6548C86.4916 15.0127 87.1698 15.6909 87.1698 16.5277V65.0063C87.1698 65.8425 86.4916 66.5212 85.6548 66.5212ZM8.13148 63.4913H84.1399V18.0426H8.13148V63.4913Z" fill="#1C2D6B"/>
<path d="M88.3525 75.2765H3.51496C2.6782 75.2765 2 74.5983 2 73.7616V65.0067C2 64.1699 2.6782 63.4917 3.51496 63.4917H88.3525C89.1893 63.4917 89.8675 64.1699 89.8675 65.0067V73.7616C89.8675 74.5983 89.1893 75.2765 88.3525 75.2765ZM5.02941 72.2466H86.8371V66.5216H5.02941V72.2466Z" fill="#1C2D6B"/>
<path d="M97.5141 38.1855C86.5984 38.1855 77.75 47.0344 77.75 57.9497V73.7613H85.6555V80.1559H88.3527V57.9497C88.3522 47.0344 92.4542 38.1855 97.5141 38.1855V38.1855Z" fill="#A4D4A0"/>
<path d="M97.5117 38.1855C102.572 38.1855 106.673 47.0344 106.673 57.9497V80.1559H109.37V73.7613H117.276V57.9497C117.276 47.0344 108.427 38.1855 97.5117 38.1855V38.1855Z" fill="#419B46"/>
<path d="M97.5135 38.1855C92.4536 38.1855 88.3516 47.0344 88.3516 57.9497V80.1559H106.675V57.9497C106.675 47.0344 102.573 38.1855 97.5135 38.1855V38.1855Z" fill="#65BC49"/>
<path d="M117.274 75.2766H109.369C108.532 75.2766 107.854 74.5984 107.854 73.7616C107.854 72.9248 108.532 72.2466 109.369 72.2466H115.759V57.95C115.759 47.8871 107.573 39.7003 97.5101 39.7003C87.4472 39.7003 79.2604 47.8871 79.2604 57.95V72.2466H85.651C86.4877 72.2466 87.1659 72.9248 87.1659 73.7616C87.1659 74.5984 86.4877 75.2766 85.651 75.2766H77.7454C76.9087 75.2766 76.2305 74.5984 76.2305 73.7616V57.95C76.2305 46.2167 85.7762 36.6704 97.5101 36.6704C109.243 36.6704 118.789 46.2162 118.789 57.95V73.7616C118.789 74.5984 118.111 75.2766 117.274 75.2766Z" fill="#1C2D6B"/>
<path d="M91.582 40.9849L97.5116 57.9498L95.6669 40.9849H91.582Z" fill="#EF7F72"/>
<path d="M99.3564 40.9849L97.5117 57.9498L103.441 40.9849H99.3564Z" fill="#E8383B"/>
<path d="M95.6641 40.9849L97.5088 57.9498L99.3535 40.9849H95.6641Z" fill="#E95947"/>
<path d="M97.5114 59.4649C96.8675 59.4649 96.2939 59.0579 96.0813 58.4499L90.1517 41.4844C89.8755 40.6946 90.2921 39.8306 91.0819 39.5544C91.8737 39.2786 92.7357 39.6947 93.012 40.4845L97.5114 53.3581L102.01 40.4845C102.287 39.6952 103.15 39.2786 103.94 39.5544C104.73 39.8301 105.147 40.6946 104.871 41.4844L98.9415 58.4499C98.7289 59.0579 98.1552 59.4649 97.5114 59.4649V59.4649Z" fill="#1C2D6B"/>
<path d="M97.5111 81.6707C96.6743 81.6707 95.9961 80.9925 95.9961 80.1558V57.95C95.9961 57.1133 96.6743 56.4351 97.5111 56.4351C98.3478 56.4351 99.026 57.1133 99.026 57.95V80.1558C99.026 80.992 98.3478 81.6707 97.5111 81.6707Z" fill="#1C2D6B"/>
<path d="M109.369 81.6707H85.6517C84.8149 81.6707 84.1367 80.9925 84.1367 80.1558V57.95C84.1367 57.1133 84.8149 56.4351 85.6517 56.4351C86.4884 56.4351 87.1666 57.1133 87.1666 57.95V78.6408H107.854V57.95C107.854 57.1133 108.532 56.4351 109.369 56.4351C110.206 56.4351 110.884 57.1133 110.884 57.95V80.1558C110.884 80.992 110.206 81.6707 109.369 81.6707Z" fill="#1C2D6B"/>
<path d="M92.2364 26.3267C92.2364 17.5945 94.5962 10.5151 97.5069 10.5151C88.7747 10.5151 81.6953 17.594 81.6953 26.3267C81.6953 35.0595 88.7742 42.1383 97.5069 42.1383C94.5962 42.1383 92.2364 35.059 92.2364 26.3267Z" fill="#EDE49D"/>
<path d="M97.5117 10.5151C100.422 10.5151 102.782 17.594 102.782 26.3267C102.782 35.0595 100.422 42.1383 97.5117 42.1383C106.244 42.1383 113.323 35.0595 113.323 26.3267C113.323 17.594 106.244 10.5151 97.5117 10.5151V10.5151Z" fill="#D3BA2A"/>
<path d="M97.5127 42.1383C100.424 42.1383 102.783 35.0592 102.783 26.3267C102.783 17.5942 100.424 10.5151 97.5127 10.5151C94.6019 10.5151 92.2422 17.5942 92.2422 26.3267C92.2422 35.0592 94.6019 42.1383 97.5127 42.1383Z" fill="#EEE045"/>
<path d="M92.2397 30.9008C92.9568 30.9008 93.538 30.3196 93.538 29.6025C93.538 28.8855 92.9568 28.3042 92.2397 28.3042C91.5227 28.3042 90.9414 28.8855 90.9414 29.6025C90.9414 30.3196 91.5227 30.9008 92.2397 30.9008Z" fill="#1C2D6B"/>
<path d="M102.783 30.9008C103.5 30.9008 104.081 30.3196 104.081 29.6025C104.081 28.8855 103.5 28.3042 102.783 28.3042C102.066 28.3042 101.484 28.8855 101.484 29.6025C101.484 30.3196 102.066 30.9008 102.783 30.9008Z" fill="#1C2D6B"/>
<path d="M97.5123 34.3326C96.3059 34.3326 95.1803 33.6831 94.5748 32.6383C94.3652 32.2768 94.4884 31.8132 94.8505 31.6031C95.2116 31.3935 95.6762 31.5168 95.8857 31.8788C96.221 32.4575 96.8447 32.8176 97.5128 32.8176C98.1809 32.8176 98.804 32.458 99.1393 31.8793C99.3489 31.5168 99.8125 31.3951 100.175 31.6031C100.537 31.8127 100.66 32.2763 100.45 32.6383C99.8443 33.6831 98.7192 34.3326 97.5123 34.3326Z" fill="#1C2D6B"/>
<path d="M97.5069 10.5151C88.7747 10.5151 81.6953 17.594 81.6953 26.3267C85.8382 26.3267 89.6069 24.7315 92.4258 22.1242C93.0398 15.4327 95.081 10.5151 97.5069 10.5151Z" fill="#89AADB"/>
<path d="M102.593 22.1242C105.412 24.7315 109.181 26.3267 113.323 26.3267C113.323 17.5945 106.244 10.5151 97.5117 10.5151C99.9377 10.5151 101.979 15.4327 102.593 22.1242Z" fill="#4B67B0"/>
<path d="M97.5064 10.5151C97.5064 15.1049 99.4638 19.2357 102.587 22.1242C101.974 15.4327 99.9319 10.5151 97.5064 10.5151C95.081 10.5151 93.0393 15.4327 92.4258 22.1242C95.5486 19.2357 97.5064 15.1049 97.5064 10.5151Z" fill="#6287C5"/>
<path d="M113.322 27.842C106.29 27.842 100.224 23.6319 97.5107 17.5994C94.7974 23.6319 88.7305 27.842 81.6986 27.842C80.8618 27.842 80.1836 27.1638 80.1836 26.327C80.1836 16.7732 87.9568 9.00049 97.5107 9.00049C107.064 9.00049 114.837 16.7732 114.837 26.327C114.837 27.1638 114.159 27.842 113.322 27.842ZM95.9063 12.1203C89.3021 12.8611 84.0442 18.1185 83.3029 24.7227C89.9071 23.9819 95.1655 18.724 95.9063 12.1203ZM99.115 12.1203C99.8558 18.7245 105.114 23.9819 111.718 24.7227C110.977 18.1185 105.719 12.8606 99.115 12.1203Z" fill="#1C2D6B"/>
<path d="M97.5107 43.6531C87.9568 43.6531 80.1836 35.8804 80.1836 26.3266C80.1836 16.7727 87.9568 9 97.5107 9C107.064 9 114.837 16.7727 114.837 26.3266C114.837 35.8804 107.064 43.6531 97.5107 43.6531V43.6531ZM97.5107 12.0304C89.6273 12.0304 83.2135 18.4437 83.2135 26.3271C83.2135 34.2104 89.6268 40.6237 97.5107 40.6237C105.393 40.6237 111.807 34.2104 111.807 26.3271C111.807 18.4437 105.393 12.0304 97.5107 12.0304V12.0304Z" fill="#1C2D6B"/>
<path d="M101.462 67.1538C102.179 67.1538 102.761 66.5725 102.761 65.8554C102.761 65.1384 102.179 64.5571 101.462 64.5571C100.745 64.5571 100.164 65.1384 100.164 65.8554C100.164 66.5725 100.745 67.1538 101.462 67.1538Z" fill="#1C2D6B"/>
<path d="M101.462 71.7661C102.179 71.7661 102.761 71.1848 102.761 70.4678C102.761 69.7507 102.179 69.1694 101.462 69.1694C100.745 69.1694 100.164 69.7507 100.164 70.4678C100.164 71.1848 100.745 71.7661 101.462 71.7661Z" fill="#1C2D6B"/>
<path d="M101.462 62.5419C102.179 62.5419 102.761 61.9607 102.761 61.2436C102.761 60.5266 102.179 59.9453 101.462 59.9453C100.745 59.9453 100.164 60.5266 100.164 61.2436C100.164 61.9607 100.745 62.5419 101.462 62.5419Z" fill="#1C2D6B"/>
<path d="M85.6523 80.1562H93.5579V107.425H85.6523V80.1562Z" fill="#89AADB"/>
<path d="M101.465 80.1562H109.37V107.425H101.465V80.1562Z" fill="#4B67B0"/>
<path d="M93.5586 80.1562H101.464V107.425H93.5586V80.1562Z" fill="#6287C5"/>
<path d="M109.369 108.94H85.6517C84.8149 108.94 84.1367 108.262 84.1367 107.425V80.1561C84.1367 79.3193 84.8149 78.6411 85.6517 78.6411H109.369C110.206 78.6411 110.884 79.3193 110.884 80.1561V107.425C110.884 108.262 110.206 108.94 109.369 108.94ZM87.1671 105.91H107.854V81.671H87.1671V105.91Z" fill="#1C2D6B"/>
<path d="M97.5129 108.94C96.6797 108.94 96.002 108.267 95.998 107.432L95.8672 80.1631C95.8632 79.3264 96.5383 78.6452 97.3746 78.6411H97.3822C98.2154 78.6411 98.8931 79.3143 98.8971 80.149L99.0279 107.418C99.0319 108.255 98.3568 108.936 97.5205 108.94C97.518 108.94 97.5155 108.94 97.5129 108.94Z" fill="#1C2D6B"/>
<path d="M91.5177 107.425H88.4231C85.0766 107.425 82.3633 110.139 82.3633 113.485H88.3883V110.555C88.3883 108.826 89.7891 107.425 91.5177 107.425V107.425Z" fill="#EF7F72"/>
<path d="M92.4258 107.425H97.5105V113.485H92.4258V107.425Z" fill="#E8383B"/>
<path d="M91.52 107.425C89.792 107.425 88.3906 108.826 88.3906 110.555V113.485H92.4305V107.425H91.52Z" fill="#E95947"/>
<path d="M103.504 107.425H106.598C109.945 107.425 112.658 110.139 112.658 113.485H106.633V110.555C106.633 108.826 105.232 107.425 103.504 107.425Z" fill="#EF7F72"/>
<path d="M97.5156 107.425H102.6V113.485H97.5156V107.425Z" fill="#E8383B"/>
<path d="M103.508 107.425C105.236 107.425 106.638 108.826 106.638 110.555V113.485H102.598V107.425H103.508Z" fill="#E95947"/>
<path d="M97.5122 115H82.3626C81.5259 115 80.8477 114.322 80.8477 113.485C80.8477 109.308 84.2457 105.91 88.4224 105.91H97.5122C98.3489 105.91 99.0271 106.588 99.0271 107.425V113.485C99.0271 114.321 98.3489 115 97.5122 115ZM84.1371 111.97H95.9972V108.94H88.4224C86.4474 108.94 84.7623 110.206 84.1371 111.97Z" fill="#1C2D6B"/>
<path d="M112.665 115H97.515C96.6782 115 96 114.322 96 113.485V107.425C96 106.588 96.6782 105.91 97.515 105.91H106.605C110.781 105.91 114.179 109.308 114.179 113.485C114.179 114.321 113.501 115 112.665 115ZM99.0299 111.97H110.89C110.265 110.207 108.58 108.94 106.605 108.94H99.0299V111.97Z" fill="#1C2D6B"/>
<path d="M81.3145 73.7612H79.9298C76.3979 73.7612 73.5352 76.624 73.5352 80.1559H78.7628V76.3129C78.7628 74.9035 79.9056 73.7612 81.3145 73.7612Z" fill="#EDE49D"/>
<path d="M81.3125 73.7612H85.6534V80.1559H81.3125V73.7612Z" fill="#D3BA2A"/>
<path d="M78.7617 76.3129V80.1559H81.3134V73.7612C79.9045 73.7612 78.7617 74.9035 78.7617 76.3129Z" fill="#EEE045"/>
<path d="M85.6541 81.6711H73.5345C72.6977 81.6711 72.0195 80.9929 72.0195 80.1562C72.0195 75.7951 75.5676 72.2466 79.9291 72.2466H85.6541C86.4909 72.2466 87.1691 72.9248 87.1691 73.7615V80.1562C87.1691 80.9924 86.4909 81.6711 85.6541 81.6711ZM75.2898 78.6412H84.1387V75.2765H79.9286C77.7673 75.2765 75.9286 76.69 75.2898 78.6412Z" fill="#1C2D6B"/>
<path d="M113.711 73.7612H115.096C118.627 73.7612 121.49 76.624 121.49 80.1559H116.263V76.3129C116.263 74.9035 115.12 73.7612 113.711 73.7612Z" fill="#EDE49D"/>
<path d="M109.371 73.7612H113.712V80.1559H109.371V73.7612Z" fill="#D3BA2A"/>
<path d="M116.263 76.3129V80.1559H113.711V73.7612C115.12 73.7612 116.263 74.9035 116.263 76.3129Z" fill="#EEE045"/>
<path d="M121.49 81.6711H109.37C108.534 81.6711 107.855 80.9929 107.855 80.1562V73.7615C107.855 72.9248 108.534 72.2466 109.37 72.2466H115.096C119.457 72.2466 123.005 75.7946 123.005 80.1562C123.005 80.9924 122.327 81.6711 121.49 81.6711ZM110.885 78.6412H119.734C119.095 76.69 117.258 75.2765 115.095 75.2765H110.885V78.6412H110.885Z" fill="#1C2D6B"/>
<path d="M97.5126 59.4659C97.3076 59.4659 97.099 59.424 96.8991 59.3351L87.9235 55.3518C87.3882 55.1144 87.0382 54.5903 87.0236 54.005L86.92 49.8989L83.2968 43.7639C82.8711 43.0438 83.1104 42.1146 83.831 41.6894C84.5517 41.2647 85.4808 41.503 85.9055 42.2237L89.7288 48.6976C89.8601 48.9198 89.9323 49.1718 89.9389 49.4298L90.0282 52.9713L98.1282 56.5663C98.8933 56.9056 99.2377 57.801 98.8983 58.5655C98.6473 59.1301 98.0939 59.4659 97.5126 59.4659V59.4659Z" fill="#1C2D6B"/>
<path d="M97.5124 59.4655C96.9316 59.4655 96.3777 59.1297 96.1267 58.5646C95.7873 57.8001 96.1322 56.9047 96.8968 56.5654L104.996 52.9709L105.086 49.4294C105.092 49.1714 105.164 48.9194 105.296 48.6972L109.119 42.2233C109.545 41.5032 110.474 41.2638 111.193 41.689C111.914 42.1142 112.153 43.0434 111.728 43.7635L108.104 49.8986L108.001 54.0046C107.986 54.5894 107.636 55.1135 107.101 55.3514L98.1259 59.3347C97.9259 59.4236 97.7174 59.4655 97.5124 59.4655V59.4655Z" fill="#1C2D6B"/>
<path d="M32.3697 73.7612L20.25 113.15H26.3098L38.4295 73.7612H32.3697Z" fill="#65BC49"/>
<path d="M59.6419 73.7612L71.7615 113.15H65.7017L53.582 73.7612H59.6419Z" fill="#65BC49"/>
<path d="M26.3052 114.665H20.2453C19.7646 114.665 19.3121 114.437 19.0268 114.05C18.741 113.663 18.6561 113.165 18.7975 112.705L30.9172 73.3157C31.1126 72.6799 31.6999 72.2461 32.365 72.2461H38.4248C38.9056 72.2461 39.358 72.4743 39.6433 72.8612C39.9292 73.248 40.014 73.7469 39.8726 74.207L27.753 113.596C27.5575 114.232 26.9702 114.665 26.3052 114.665V114.665ZM22.2966 111.635H25.1861L36.3736 75.2765H33.484L22.2966 111.635Z" fill="#1C2D6B"/>
<path d="M71.7569 114.665H65.697C65.032 114.665 64.4447 114.232 64.2492 113.596L52.1296 74.207C51.9882 73.7474 52.073 73.248 52.3588 72.8612C52.6442 72.4743 53.0966 72.2461 53.5774 72.2461H59.6372C60.3023 72.2461 60.8896 72.6799 61.085 73.3157L73.2047 112.705C73.346 113.164 73.2607 113.663 72.9754 114.05C72.6901 114.437 72.2376 114.665 71.7569 114.665V114.665ZM66.8161 111.635H69.7061L58.5187 75.2765H55.6291L66.8161 111.635Z" fill="#1C2D6B"/>
<path d="M77.7489 57.4879H15.7064C14.8696 57.4879 14.1914 56.8097 14.1914 55.973C14.1914 55.1362 14.8696 54.458 15.7064 54.458H77.7489C78.5856 54.458 79.2638 55.1362 79.2638 55.973C79.2638 56.8097 78.5862 57.4879 77.7489 57.4879Z" fill="#1C2D6B"/>
<path d="M15.7033 51.3719C15.2498 51.3719 14.8004 51.1689 14.5024 50.7816C13.9919 50.119 14.1151 49.1676 14.7776 48.6566L29.9272 36.9854C30.4559 36.5783 31.1882 36.5647 31.7315 36.952L42.4872 44.6212L53.7756 24.8662C54.0362 24.4102 54.5139 24.1219 55.0391 24.1037C55.5497 24.0749 56.0602 24.3405 56.3516 24.7773L67.6602 41.7393L75.5047 36.8965C76.2172 36.4566 77.1499 36.6778 77.5898 37.3899C78.0291 38.1019 77.8084 39.0351 77.0964 39.4744L68.0066 45.0858C67.3123 45.5151 66.4028 45.3161 65.9503 44.6369L55.1901 28.4971L44.287 47.5784C44.0744 47.9501 43.7148 48.2147 43.2967 48.3066C42.8771 48.3985 42.4407 48.3087 42.0923 48.0607L30.8867 40.0713L16.6269 51.0568C16.3517 51.2694 16.026 51.3719 15.7033 51.3719V51.3719Z" fill="#1C2D6B"/>
<path d="M30.8541 41.2151C32.5275 41.2151 33.884 39.8586 33.884 38.1852C33.884 36.5118 32.5275 35.1553 30.8541 35.1553C29.1808 35.1553 27.8242 36.5118 27.8242 38.1852C27.8242 39.8586 29.1808 41.2151 30.8541 41.2151Z" fill="#E95947"/>
<path d="M30.8574 42.7299C28.3516 42.7299 26.3125 40.6907 26.3125 38.185C26.3125 35.6793 28.3516 33.6401 30.8574 33.6401C33.3631 33.6401 35.4022 35.6793 35.4022 38.185C35.4022 40.6907 33.3631 42.7299 30.8574 42.7299ZM30.8574 36.6701C30.0221 36.6701 29.3424 37.3498 29.3424 38.185C29.3424 39.0203 30.0221 39.7 30.8574 39.7C31.6926 39.7 32.3723 39.0203 32.3723 38.185C32.3723 37.3498 31.6926 36.6701 30.8574 36.6701Z" fill="#1C2D6B"/>
<path d="M42.9791 49.8567C44.6525 49.8567 46.009 48.5002 46.009 46.8268C46.009 45.1534 44.6525 43.7969 42.9791 43.7969C41.3058 43.7969 39.9492 45.1534 39.9492 46.8268C39.9492 48.5002 41.3058 49.8567 42.9791 49.8567Z" fill="#E95947"/>
<path d="M42.9785 51.372C40.4727 51.372 38.4336 49.3328 38.4336 46.8271C38.4336 44.3214 40.4727 42.2822 42.9785 42.2822C45.4842 42.2822 47.5233 44.3214 47.5233 46.8271C47.5233 49.3328 45.4842 51.372 42.9785 51.372ZM42.9785 45.3121C42.1432 45.3121 41.4635 45.9919 41.4635 46.8271C41.4635 47.6623 42.1432 48.3421 42.9785 48.3421C43.8137 48.3421 44.4934 47.6623 44.4934 46.8271C44.4934 45.9919 43.8137 45.3121 42.9785 45.3121Z" fill="#1C2D6B"/>
<path d="M55.0963 28.6477C56.7697 28.6477 58.1262 27.2912 58.1262 25.6178C58.1262 23.9444 56.7697 22.5879 55.0963 22.5879C53.4229 22.5879 52.0664 23.9444 52.0664 25.6178C52.0664 27.2912 53.4229 28.6477 55.0963 28.6477Z" fill="#E95947"/>
<path d="M55.0957 30.1625C52.5899 30.1625 50.5508 28.1234 50.5508 25.6176C50.5508 23.1119 52.5899 21.0728 55.0957 21.0728C57.6014 21.0728 59.6405 23.1119 59.6405 25.6176C59.6405 28.1234 57.6014 30.1625 55.0957 30.1625ZM55.0957 24.1027C54.2604 24.1027 53.5807 24.7824 53.5807 25.6176C53.5807 26.4529 54.2604 27.1326 55.0957 27.1326C55.9309 27.1326 56.6106 26.4529 56.6106 25.6176C56.6106 24.7824 55.9309 24.1027 55.0957 24.1027Z" fill="#1C2D6B"/>
<path d="M67.2135 46.8269C68.8869 46.8269 70.2434 45.4704 70.2434 43.797C70.2434 42.1236 68.8869 40.7671 67.2135 40.7671C65.5401 40.7671 64.1836 42.1236 64.1836 43.797C64.1836 45.4704 65.5401 46.8269 67.2135 46.8269Z" fill="#E95947"/>
<path d="M67.2167 48.3417C64.7105 48.3417 62.6719 46.3026 62.6719 43.7968C62.6719 41.2911 64.7105 39.252 67.2167 39.252C69.723 39.252 71.7616 41.2911 71.7616 43.7968C71.7616 46.3026 69.723 48.3417 67.2167 48.3417ZM67.2167 42.2819C66.3815 42.2819 65.7018 42.9616 65.7018 43.7968C65.7018 44.6321 66.3815 45.3118 67.2167 45.3118C68.052 45.3118 68.7317 44.6321 68.7317 43.7968C68.7317 42.9616 68.052 42.2819 67.2167 42.2819Z" fill="#1C2D6B"/>
</svg>
