<?xml version="1.0" encoding="utf-8"?>
<!-- Generator: Adobe Illustrator 22.1.0, SVG Export Plug-In . SVG Version: 6.00 Build 0)  -->
<svg version="1.1" id="Layer_1" xmlns="http://www.w3.org/2000/svg" xmlns:xlink="http://www.w3.org/1999/xlink" x="0px" y="0px"
	 viewBox="0 0 512 512" style="enable-background:new 0 0 512 512;" xml:space="preserve">
<style type="text/css">
	.st0{fill:#E95947;}
	.st1{fill:#EF7F72;}
	.st2{fill:#E8383B;}
	.st3{fill:#1C2D6B;}
	.st4{fill:#EDE49D;}
	.st5{fill:#D3BA2A;}
	.st6{fill:#EEE045;}
	.st7{fill:#419B46;}
	.st8{fill:#A4D4A0;}
	.st9{fill:#65BC49;}
	.st10{fill:#89AADB;}
	.st11{fill:#4B67B0;}
	.st12{fill:#6287C5;}
</style>
<g>
	<path class="st0" d="M454.4,232.4V62.6l-169.8,0c0,93.8,65.2,169.8,145.5,169.8H454.4z"/>
	<path class="st1" d="M355.4,62.6l-70.7,0c0,78.1,45.2,143.8,106.7,163.6C370.6,206.4,355.4,140.7,355.4,62.6z"/>
	<path class="st2" d="M391.4,62.6h21.3v168.5c5.8,0.8,11.6,1.3,17.5,1.3h24.2V62.6H391.4z"/>
	<path class="st0" d="M355.4,62.6L355.4,62.6l36,0L355.4,62.6z"/>
	<path class="st0" d="M391.4,62.6h-36c0,78.1,15.2,143.8,36,163.6c6.9,2.2,14,3.9,21.3,4.9V62.6H391.4z"/>
	<path class="st3" d="M454.4,239.4h-24.3c-84.1,0-152.6-79.3-152.6-176.9c0-1.9,0.7-3.7,2.1-5c1.3-1.3,3.1-2.1,5-2.1l169.8,0
		c3.9,0,7.1,3.2,7.1,7.1v169.8C461.5,236.3,458.3,239.4,454.4,239.4z M291.8,69.6c3.2,86.4,64,155.6,138.3,155.6h17.2V69.7
		L291.8,69.6z"/>
	<path class="st3" d="M454.4,437.5H58.3c-3.9,0-7.1-3.2-7.1-7.1V62.6c0-3.9,3.2-7.1,7.1-7.1h396.1c3.9,0,7.1,3.2,7.1,7.1v367.8
		C461.5,434.3,458.3,437.5,454.4,437.5z M65.3,423.4h382V69.7h-382V423.4z"/>
	<path class="st2" d="M425.8,260.7h28.6v169.8h-28.6V260.7z"/>
	<path class="st1" d="M414,260.6c0,0-58.6,28.3-58.6,169.8h42.4c0-141.5,16.6-169.8,16.6-169.8H414z"/>
	<path class="st2" d="M397.8,430.4h28v0L397.8,430.4z"/>
	<path class="st0" d="M414.4,260.7c0,0-16.6,28.3-16.6,169.8h28V260.7H414.4z"/>
	<path class="st3" d="M355.4,437.5c-3.9,0-7.1-3.2-7.1-7.1c0-144.3,60.1-174.9,62.6-176.1c1-0.5,2-0.7,3.1-0.7h40.4
		c3.9,0,7.1,3.2,7.1,7.1v169.8c0,3.9-3.2,7.1-7.1,7.1H355.4C355.4,437.5,355.4,437.5,355.4,437.5z M362.5,423.4h84.8V267.7h-31.4
		C408.1,272.7,364.2,306,362.5,423.4z"/>
	<path class="st4" d="M412,232.4h16.3v28.3H412V232.4z"/>
	<path class="st5" d="M438.1,232.4h16.3v28.3h-16.3V232.4z"/>
	<path class="st6" d="M428.3,232.4h9.8v28.3h-9.8V232.4z"/>
	<path class="st3" d="M454.4,267.7H412c-3.9,0-7.1-3.2-7.1-7.1v-28.3c0-3.9,3.2-7.1,7.1-7.1h42.4c3.9,0,7.1,3.2,7.1,7.1v28.3
		C461.5,264.6,458.3,267.7,454.4,267.7z M419,253.6h28.3v-14.1H419V253.6z"/>
	<path class="st0" d="M58.3,232.4V62.6l169.8,0c0,93.8-65.2,169.8-145.5,169.8H58.3z"/>
	<path class="st1" d="M157.3,62.6l70.7,0c0,78.1-45.2,143.8-106.7,163.6C142.1,206.4,157.3,140.7,157.3,62.6z"/>
	<path class="st2" d="M121.3,62.6H100v168.5c-5.8,0.8-11.6,1.3-17.5,1.3H58.3V62.6H121.3z"/>
	<path class="st0" d="M157.3,62.6L157.3,62.6l-36,0L157.3,62.6z"/>
	<path class="st0" d="M121.3,62.6h36c0,78.1-15.2,143.8-36,163.6c-6.9,2.2-14,3.9-21.3,4.9V62.6H121.3z"/>
	<path class="st3" d="M82.5,239.4H58.3c-3.9,0-7.1-3.2-7.1-7.1V62.6c0-3.9,3.2-7.1,7.1-7.1l169.8,0c1.9,0,3.7,0.7,5,2.1
		c1.3,1.3,2.1,3.1,2.1,5C235.1,160.1,166.7,239.4,82.5,239.4z M65.3,225.3h17.2c74.3,0,135.2-69.2,138.3-155.6l-155.5,0V225.3z"/>
	<path class="st2" d="M58.3,260.7h28.6v169.8H58.3V260.7z"/>
	<path class="st1" d="M98.7,260.6c0,0,58.6,28.3,58.6,169.8h-42.4c0-141.5-16.6-169.8-16.6-169.8H98.7z"/>
	<path class="st2" d="M114.9,430.4h-28v0L114.9,430.4z"/>
	<path class="st0" d="M98.3,260.7c0,0,16.6,28.3,16.6,169.8h-28V260.7H98.3z"/>
	<path class="st3" d="M157.3,437.5C157.3,437.5,157.2,437.5,157.3,437.5h-99c-3.9,0-7.1-3.2-7.1-7.1V260.6c0-3.9,3.2-7.1,7.1-7.1
		h40.4c1.1,0,2.1,0.2,3.1,0.7c2.6,1.2,62.6,31.9,62.6,176.1C164.4,434.3,161.2,437.5,157.3,437.5z M65.3,423.4h84.8
		c-1-66.1-15.4-104.9-27.5-126c-11.1-19.2-22.2-27.4-25.9-29.7H65.3V423.4z"/>
	<path class="st4" d="M84.4,232.4h16.3v28.3H84.4V232.4z"/>
	<path class="st5" d="M58.3,232.4h16.3v28.3H58.3V232.4z"/>
	<path class="st6" d="M74.6,232.4h9.8v28.3h-9.8V232.4z"/>
	<path class="st3" d="M100.7,267.7H58.3c-3.9,0-7.1-3.2-7.1-7.1v-28.3c0-3.9,3.2-7.1,7.1-7.1h42.4c3.9,0,7.1,3.2,7.1,7.1v28.3
		C107.8,264.6,104.6,267.7,100.7,267.7z M65.3,253.6h28.3v-14.1H65.3V253.6z"/>
	<path class="st7" d="M355.2,344.5h-2.7c7.9,0,14.3,6.4,14.3,14.3v71.6h33.8V390C400.6,364.9,380.3,344.5,355.2,344.5z"/>
	<path class="st8" d="M352.5,344.5h-2.7c-25.1,0-45.5,20.3-45.5,45.5v40.4h33.8v-71.6C338.3,350.9,344.7,344.5,352.5,344.5z"/>
	<path class="st9" d="M352.5,344.5c-7.9,0-14.3,6.4-14.3,14.3v71.6h28.6v-71.6C366.8,350.9,360.4,344.5,352.5,344.5z"/>
	<path class="st7" d="M259,344.5h-2.7c7.9,0,14.3,6.4,14.3,14.3v71.6h33.8V390C304.4,364.9,284.1,344.5,259,344.5z"/>
	<path class="st8" d="M256.3,344.5h-2.7c-25.1,0-45.5,20.3-45.5,45.5v40.4h33.8v-71.6C242.1,350.9,248.5,344.5,256.3,344.5z"/>
	<path class="st9" d="M256.3,344.5c-7.9,0-14.3,6.4-14.3,14.3v71.6h28.6v-71.6C270.6,350.9,264.2,344.5,256.3,344.5z"/>
	<path class="st7" d="M162.8,344.5h-2.7c7.9,0,14.3,6.4,14.3,14.3v71.6h33.8V390C208.2,364.9,187.9,344.5,162.8,344.5z"/>
	<path class="st8" d="M160.1,344.5h-2.7c-25.1,0-45.5,20.3-45.5,45.5v40.4h33.8v-71.6C145.8,350.9,152.2,344.5,160.1,344.5z"/>
	<path class="st9" d="M160.1,344.5c-7.9,0-14.3,6.4-14.3,14.3v71.6h28.6v-71.6C174.4,350.9,168,344.5,160.1,344.5z"/>
	<path class="st7" d="M66.6,344.5h-2.7c7.9,0,14.3,6.4,14.3,14.3v71.6H112V390C112,364.9,91.7,344.5,66.6,344.5z"/>
	<path class="st8" d="M63.9,344.5h-2.7c-25.1,0-45.5,20.3-45.5,45.5v40.4h33.8v-71.6C49.6,350.9,56,344.5,63.9,344.5z"/>
	<path class="st9" d="M63.9,344.5c-7.9,0-14.3,6.4-14.3,14.3v71.6h28.6v-71.6C78.2,350.9,71.8,344.5,63.9,344.5z"/>
	<path class="st3" d="M112,437.5H15.8c-3.9,0-7.1-3.2-7.1-7.1V390c0-29,23.6-52.5,52.5-52.5h5.3c29,0,52.5,23.6,52.5,52.5v40.4
		C119.1,434.3,115.9,437.5,112,437.5z M22.9,423.4H105V390c0-21.2-17.2-38.4-38.4-38.4h-5.3c-21.2,0-38.4,17.2-38.4,38.4V423.4z"/>
	<path class="st3" d="M208.2,437.5H112c-3.9,0-7.1-3.2-7.1-7.1V390c0-29,23.6-52.5,52.5-52.5h5.3c29,0,52.5,23.6,52.5,52.5v40.4
		C215.3,434.3,212.1,437.5,208.2,437.5z M119.1,423.4h82.1V390c0-21.2-17.2-38.4-38.4-38.4h-5.3c-21.2,0-38.4,17.2-38.4,38.4V423.4z
		"/>
	<path class="st3" d="M304.4,437.5h-96.2c-3.9,0-7.1-3.2-7.1-7.1V390c0-29,23.6-52.5,52.5-52.5h5.3c29,0,52.5,23.6,52.5,52.5v40.4
		C311.5,434.3,308.3,437.5,304.4,437.5z M215.3,423.4h82.1V390c0-21.2-17.2-38.4-38.4-38.4h-5.3c-21.2,0-38.4,17.2-38.4,38.4V423.4z
		"/>
	<path class="st3" d="M400.6,437.5h-96.2c-3.9,0-7.1-3.2-7.1-7.1V390c0-29,23.6-52.5,52.5-52.5h5.3c29,0,52.5,23.6,52.5,52.5v40.4
		C407.7,434.3,404.6,437.5,400.6,437.5z M311.5,423.4h82.1V390c0-21.2-17.2-38.4-38.4-38.4h-5.3c-21.2,0-38.4,17.2-38.4,38.4
		L311.5,423.4L311.5,423.4z"/>
	<path class="st7" d="M451.4,344.5h-2.7c7.9,0,14.3,6.4,14.3,14.3v71.6h33.8V390C496.9,364.9,476.5,344.5,451.4,344.5z"/>
	<path class="st8" d="M448.7,344.5h-2.7c-25.1,0-45.5,20.3-45.5,45.5v40.4h33.8v-71.6C434.5,350.9,440.9,344.5,448.7,344.5z"/>
	<path class="st9" d="M448.7,344.5c-7.9,0-14.3,6.4-14.3,14.3v71.6H463v-71.6C463,350.9,456.6,344.5,448.7,344.5z"/>
	<path class="st3" d="M496.9,437.5h-96.2c-3.9,0-7.1-3.2-7.1-7.1V390c0-29,23.6-52.5,52.5-52.5h5.3c29,0,52.5,23.6,52.5,52.5v40.4
		C503.9,434.3,500.8,437.5,496.9,437.5z M407.7,423.4h82.1V390c0-21.2-17.2-38.4-38.4-38.4h-5.3c-21.2,0-38.4,17.2-38.4,38.4
		L407.7,423.4L407.7,423.4z"/>
	<path class="st10" d="M440.3,62.6h-35.4c0,27.3,22.2,49.5,49.5,49.5C446.6,112.1,440.3,89.9,440.3,62.6z"/>
	<path class="st11" d="M468.6,62.6c0,27.3-6.3,49.5-14.1,49.5c27.3,0,49.5-22.2,49.5-49.5H468.6z"/>
	<path class="st12" d="M468.6,62.6h-28.3c0,27.3,6.3,49.5,14.1,49.5C462.2,112.1,468.6,89.9,468.6,62.6z"/>
	<path class="st10" d="M341.2,62.6h-35.4c0,27.3,22.2,49.5,49.5,49.5C347.6,112.1,341.2,89.9,341.2,62.6z"/>
	<path class="st11" d="M369.5,62.6c0,27.3-6.3,49.5-14.1,49.5c27.3,0,49.5-22.2,49.5-49.5H369.5z"/>
	<path class="st12" d="M369.5,62.6h-28.3c0,27.3,6.3,49.5,14.1,49.5C363.2,112.1,369.5,89.9,369.5,62.6z"/>
	<path class="st10" d="M242.2,62.6h-35.4c0,27.3,22.2,49.5,49.5,49.5C248.5,112.1,242.2,89.9,242.2,62.6z"/>
	<path class="st11" d="M270.5,62.6c0,27.3-6.3,49.5-14.1,49.5c27.3,0,49.5-22.2,49.5-49.5H270.5z"/>
	<path class="st12" d="M270.5,62.6h-28.3c0,27.3,6.3,49.5,14.1,49.5C264.2,112.1,270.5,89.9,270.5,62.6z"/>
	<path class="st10" d="M143.1,62.6h-35.4c0,27.3,22.2,49.5,49.5,49.5C149.5,112.1,143.1,89.9,143.1,62.6z"/>
	<path class="st11" d="M171.5,62.6c0,27.3-6.3,49.5-14.1,49.5c27.3,0,49.5-22.2,49.5-49.5H171.5z"/>
	<path class="st12" d="M171.4,62.6h-28.3c0,27.3,6.3,49.5,14.1,49.5C165.1,112.1,171.4,89.9,171.4,62.6z"/>
	<path class="st10" d="M44.1,62.6H8.7c0,27.3,22.2,49.5,49.5,49.5C50.4,112.1,44.1,89.9,44.1,62.6z"/>
	<path class="st11" d="M72.4,62.6c0,27.3-6.3,49.5-14.1,49.5c27.3,0,49.5-22.2,49.5-49.5H72.4z"/>
	<path class="st12" d="M72.4,62.6H44.1c0,27.3,6.3,49.5,14.1,49.5C66.1,112.1,72.4,89.9,72.4,62.6z"/>
	<path class="st3" d="M58.3,119.2c-31.2,0-56.6-25.4-56.6-56.6c0-3.9,3.2-7.1,7.1-7.1h99c3.9,0,7.1,3.2,7.1,7.1
		C114.9,93.8,89.5,119.2,58.3,119.2z M16.4,69.7c3.4,20,20.9,35.4,41.9,35.4c21,0,38.5-15.3,41.9-35.4H16.4z"/>
	<path class="st3" d="M157.3,119.2c-31.2,0-56.6-25.4-56.6-56.6c0-3.9,3.2-7.1,7.1-7.1h99c3.9,0,7.1,3.2,7.1,7.1
		C213.9,93.8,188.5,119.2,157.3,119.2z M115.4,69.7c3.4,20,20.9,35.4,41.9,35.4c21,0,38.5-15.3,41.9-35.4H115.4z"/>
	<path class="st3" d="M256.3,119.2c-31.2,0-56.6-25.4-56.6-56.6c0-3.9,3.2-7.1,7.1-7.1h99c3.9,0,7.1,3.2,7.1,7.1
		C312.9,93.8,287.5,119.2,256.3,119.2z M214.5,69.7c3.4,20,20.9,35.4,41.9,35.4c21,0,38.5-15.3,41.9-35.4H214.5z"/>
	<path class="st3" d="M355.4,119.2c-31.2,0-56.6-25.4-56.6-56.6c0-3.9,3.2-7.1,7.1-7.1h99c3.9,0,7.1,3.2,7.1,7.1
		C412,93.8,386.6,119.2,355.4,119.2z M313.5,69.7c3.4,20,20.9,35.4,41.9,35.4s38.5-15.3,41.9-35.4H313.5z"/>
	<path class="st3" d="M454.4,119.2c-31.2,0-56.6-25.4-56.6-56.6c0-3.9,3.2-7.1,7.1-7.1h99c3.9,0,7.1,3.2,7.1,7.1
		C511,93.8,485.6,119.2,454.4,119.2z M412.6,69.7c3.4,20,20.9,35.4,41.9,35.4c21,0,38.5-15.3,41.9-35.4H412.6z"/>
	<path class="st4" d="M221.4,245.8v-42.4h-28.3v42.4c0,23.4,19,56.6,42.4,56.6C227.7,302.4,221.4,269.2,221.4,245.8z"/>
	<path class="st5" d="M249.7,203.3v42.4c0,23.4-6.3,56.6-14.1,56.6c23.4,0,42.4-33.2,42.4-56.6v-42.4H249.7z"/>
	<path class="st6" d="M249.7,245.8v-42.4h-28.3v42.4c0,23.4,6.3,56.6,14.1,56.6C243.3,302.4,249.7,269.2,249.7,245.8z"/>
	<path class="st3" d="M235.5,309.5c-28.7,0-49.5-38-49.5-63.7v-42.4c0-3.9,3.2-7.1,7.1-7.1H278c3.9,0,7.1,3.2,7.1,7.1v42.4
		C285,271.4,264.2,309.5,235.5,309.5z M200.1,210.4v35.4c0,21.2,17.5,49.5,35.4,49.5c17.9,0,35.4-28.4,35.4-49.5v-35.4H200.1z"/>
	<path class="st3" d="M229.9,239.2c-4.5-8.7-12.6-8.7-17,0H229.9z"/>
	<path class="st3" d="M258.2,239.2c-4.5-8.7-12.6-8.7-17,0H258.2z"/>
	<path class="st3" d="M221.4,263.7c7.8,7.8,20.5,7.8,28.3,0H221.4z"/>
	<path class="st4" d="M298.2,259.4l30-30l-20-20l-30,30c-16.6,16.6-26.6,53.5-10,70C262.7,303.9,281.7,276,298.2,259.4z"/>
	<path class="st5" d="M348.3,249.4l-30,30c-16.6,16.6-44.5,35.5-50,30c16.6,16.6,53.5,6.6,70-10l30-30L348.3,249.4z"/>
	<path class="st6" d="M318.2,279.4l30-30l-20-20l-30,30c-16.6,16.6-35.5,44.5-30,50C273.7,315,301.7,296,318.2,279.4z"/>
	<path class="st3" d="M292,325c-11,0-21.3-3.1-28.8-10.5c-20.3-20.3-8.1-61.9,10-80l30-30c1.3-1.3,3.1-2.1,5-2.1
		c1.9,0,3.7,0.7,5,2.1l60,60c2.8,2.8,2.8,7.2,0,10l-30,30C331.8,315.9,311,325,292,325z M308.2,219.4l-25,25c-15,15-22.6,47.4-10,60
		c12.6,12.6,45.1,5,60-10l25-25L308.2,219.4z"/>
	<path class="st3" d="M308.9,260.8c3-9.3-2.7-15-12.1-12.1L308.9,260.8z"/>
	<path class="st3" d="M328.9,280.8c3-9.3-2.7-15-12.1-12.1L328.9,280.8z"/>
	<path class="st3" d="M301.4,296.3c0-11-9-20-20-20L301.4,296.3z"/>
</g>
</svg>
