<svg width="120" height="120" viewBox="0 0 120 120" fill="none" xmlns="http://www.w3.org/2000/svg">
<mask id="mask0" mask-type="alpha" maskUnits="userSpaceOnUse" x="0" y="0" width="120" height="120">
<path d="M60 120C26.8629 120 0 93.1371 0 60C0 26.8629 26.8629 0 60 0C93.1371 0 120 26.8629 120 60C120 93.1371 93.1371 120 60 120Z" fill="url(#paint0_linear)"/>
</mask>
<g mask="url(#mask0)">
<circle cx="60" cy="60" r="60" fill="white"/>
<path d="M107.045 108.463C107.045 114.395 105.158 119.197 101.441 122.734C97.7682 126.23 92.9104 128 87.0038 128H32.3047C26.3981 128 21.5403 126.23 17.8698 122.734C14.1508 119.195 12.2666 114.393 12.2666 108.463C12.2666 106.182 12.342 103.925 12.4928 101.755C12.6462 99.5361 12.9565 97.1215 13.4141 94.5743C13.8752 92.0063 14.468 89.5786 15.1778 87.3599C15.9145 85.0631 16.9112 82.7976 18.1446 80.6274C19.4255 78.3748 20.9301 76.4126 22.6167 74.7971C24.3848 73.1062 26.5463 71.748 29.045 70.7583C31.5351 69.7737 34.2955 69.2745 37.2492 69.2745C38.408 69.2745 39.5304 69.7486 41.6936 71.1578C43.0474 72.041 44.6075 73.0463 46.3296 74.1471C47.8169 75.0952 49.8311 75.9845 52.3211 76.7879C54.5095 77.496 56.7309 77.8912 58.9254 77.9597C59.1672 77.9683 59.409 77.9727 59.6508 77.9727C62.0879 77.9727 64.5528 77.5731 66.9831 76.7879C69.4731 75.9845 71.4899 75.0952 72.9763 74.1471C74.7166 73.0351 76.2767 72.0306 77.6105 71.1604C79.7755 69.7486 80.8962 69.2745 82.0576 69.2745C85.0087 69.2745 87.7691 69.7737 90.2609 70.7583C92.7596 71.748 94.9211 73.1088 96.6874 74.7971C98.3766 76.4126 99.8812 78.3748 101.161 80.6274C102.396 82.7993 103.394 85.0631 104.128 87.3573C104.839 89.5786 105.433 92.0063 105.894 94.576C106.349 97.1259 106.661 99.5405 106.813 101.753C106.967 103.916 107.042 106.173 107.045 108.463Z" fill="#0075BF"/>
<path d="M58.9378 69.1208H58.9248V14.4H58.9378C66.4538 14.4 72.9627 17.0963 78.2843 22.4153C83.6032 27.7342 86.2995 34.2431 86.2995 41.7591C86.2995 49.2777 83.6032 55.7858 78.2843 61.1056C72.9653 66.4245 66.4564 69.1208 58.9378 69.1208Z" fill="#F7B186"/>
<path d="M107.044 108.463C107.044 114.395 105.157 119.197 101.441 122.734C97.7677 126.23 92.9098 128 87.0033 128H58.9248V77.9597C59.1666 77.9683 59.4084 77.9727 59.6502 77.9727C62.0874 77.9727 64.5523 77.5731 66.9825 76.7879C69.4725 75.9845 71.4893 75.0952 72.9757 74.1471C74.7161 73.0351 76.2761 72.0306 77.61 71.1604C79.775 69.7486 80.8956 69.2745 82.057 69.2745C85.0081 69.2745 87.7686 69.7737 90.2603 70.7583C92.759 71.748 94.9206 73.1088 96.6869 74.7971C98.3761 76.4126 99.8807 78.3748 101.161 80.6274C102.395 82.7993 103.393 85.0631 104.127 87.3573C104.838 89.5786 105.433 92.0063 105.894 94.576C106.349 97.1259 106.66 99.5405 106.813 101.753C106.966 103.916 107.041 106.173 107.044 108.463Z" fill="#0075BF"/>
<path d="M86.2997 41.7591C86.2997 49.2777 83.6034 55.7858 78.2844 61.1056C72.9655 66.4245 66.4566 69.1208 58.938 69.1208H58.925C51.4159 69.1182 44.9113 66.4219 39.5924 61.1056C34.2726 55.7858 31.5771 49.2777 31.5771 41.7591C31.5771 34.2431 34.2726 27.7342 39.5924 22.4153C44.9087 17.0981 51.4133 14.4026 58.925 14.4H58.938C66.454 14.4 72.9629 17.0963 78.2844 22.4153C83.6034 27.7342 86.2997 34.2431 86.2997 41.7591Z" fill="#0075BF"/>
<circle cx="60" cy="60" r="59.5" stroke="#C4C4C4"/>
</g>
<defs>
<linearGradient id="paint0_linear" x1="60" y1="0" x2="60" y2="120" gradientUnits="userSpaceOnUse">
<stop stop-color="#806A6A"/>
<stop offset="1" stop-color="#665654"/>
</linearGradient>
</defs>
</svg>
