<svg width="117" height="93" viewBox="0 0 117 93" fill="none" xmlns="http://www.w3.org/2000/svg">
<path d="M107.71 1.9375H75.3711C77.6173 1.9375 79.4379 3.7581 79.4379 6.00431V86.9957C79.4379 89.2419 77.6173 91.0625 75.3711 91.0625H107.71C111.357 91.0625 114.314 88.1059 114.314 84.4588V8.54114C114.313 4.89412 111.357 1.9375 107.71 1.9375Z" fill="#D3BA2A"/>
<path d="M42.7131 86.9944V6.00428C42.7131 3.75809 44.8417 1.9375 47.468 1.9375H9.65844C5.39437 1.9375 1.9375 4.8941 1.9375 8.5411V84.4589C1.9375 88.1059 5.39437 91.0625 9.65844 91.0625H47.4688C44.8425 91.0612 42.7131 89.2406 42.7131 86.9944Z" fill="#EDE49D"/>
<path d="M79.7604 86.995V6.00431C79.7604 3.7581 78.1743 1.9375 76.2173 1.9375H46.1681C44.2112 1.9375 42.625 3.7581 42.625 6.00431V86.9957C42.625 89.2419 44.2112 91.0625 46.1681 91.0625H76.2179C78.1743 91.0618 79.7604 89.2412 79.7604 86.995Z" fill="#EEE045"/>
<path d="M47.4688 1.9375H9.65844C5.39437 1.9375 1.9375 4.89412 1.9375 8.54114V17.4375H42.7131V6.00496C42.7131 3.75875 44.8425 1.9375 47.4688 1.9375Z" fill="#EF7F72"/>
<path d="M114.314 8.54114C114.314 4.89412 111.357 1.9375 107.71 1.9375H75.3711C77.6173 1.9375 79.4379 3.7581 79.4379 6.00431V17.4375H114.313V8.54114H114.314Z" fill="#E8383B"/>
<path d="M75.9247 1.9375H46.1372C44.1973 1.9375 42.625 3.7581 42.625 6.00431V17.4375H79.4375V6.00496C79.4369 3.75875 77.8646 1.9375 75.9247 1.9375Z" fill="#E95947"/>
<path d="M107.709 93H8.54115C3.83173 93 0 89.1683 0 84.4588V8.54114C0 3.83173 3.83173 0 8.54115 0H107.709C112.418 0 116.25 3.83173 116.25 8.54114V84.4595C116.25 89.1689 112.419 93 107.709 93ZM8.54115 3.875C5.96815 3.875 3.875 5.96814 3.875 8.54114V84.4595C3.875 87.0325 5.96815 89.1256 8.54115 89.1256H107.709C110.281 89.1256 112.375 87.0325 112.375 84.4595V8.54114C112.375 5.96814 110.282 3.875 107.709 3.875H8.54115Z" fill="#1C2D6B"/>
<path d="M91.1303 31.146H56.7837C55.8352 31.146 55.0664 30.2786 55.0664 29.2085C55.0664 28.1384 55.8352 27.271 56.7837 27.271H91.1303C92.0789 27.271 92.8477 28.1384 92.8477 29.2085C92.8477 30.2786 92.0789 31.146 91.1303 31.146Z" fill="#1C2D6B"/>
<path d="M91.1303 42.7705H56.7837C55.8352 42.7705 55.0664 41.9032 55.0664 40.833C55.0664 39.7629 55.8352 38.8955 56.7837 38.8955H91.1303C92.0789 38.8955 92.8477 39.7629 92.8477 40.833C92.8477 41.9032 92.0789 42.7705 91.1303 42.7705Z" fill="#1C2D6B"/>
<path d="M91.1303 54.396H56.7837C55.8352 54.396 55.0664 53.5286 55.0664 52.4585C55.0664 51.3883 55.8352 50.521 56.7837 50.521H91.1303C92.0789 50.521 92.8477 51.3883 92.8477 52.4585C92.8477 53.5286 92.0789 54.396 91.1303 54.396Z" fill="#1C2D6B"/>
<path d="M9.69115 12.0517C11.0458 12.0517 12.144 10.9536 12.144 9.59887C12.144 8.24419 11.0458 7.146 9.69115 7.146C8.33647 7.146 7.23828 8.24419 7.23828 9.59887C7.23828 10.9536 8.33647 12.0517 9.69115 12.0517Z" fill="#1C2D6B"/>
<path d="M17.4412 12.0517C18.7958 12.0517 19.894 10.9536 19.894 9.59887C19.894 8.24419 18.7958 7.146 17.4412 7.146C16.0865 7.146 14.9883 8.24419 14.9883 9.59887C14.9883 10.9536 16.0865 12.0517 17.4412 12.0517Z" fill="#1C2D6B"/>
<path d="M25.1951 12.0517C26.5497 12.0517 27.6479 10.9536 27.6479 9.59887C27.6479 8.24419 26.5497 7.146 25.1951 7.146C23.8404 7.146 22.7422 8.24419 22.7422 9.59887C22.7422 10.9536 23.8404 12.0517 25.1951 12.0517Z" fill="#1C2D6B"/>
<path d="M114.313 19.375H1.9375C0.867353 19.375 0 18.5076 0 17.4375V8.54115C0 3.83173 3.83173 0 8.54115 0H107.71C112.419 0 116.251 3.83173 116.251 8.54115V17.4375C116.25 18.5076 115.383 19.375 114.313 19.375ZM3.875 15.5H112.375V8.54115C112.375 5.96815 110.282 3.875 107.709 3.875H8.54115C5.96815 3.875 3.875 5.96815 3.875 8.54115V15.5Z" fill="#1C2D6B"/>
<path d="M24.6955 29.5829C23.6774 28.8905 22.3396 28.8905 21.3214 29.5829L12.7817 35.3905C11.9604 35.949 11.4688 36.8779 11.4688 37.8712V51.2448C11.4688 52.9017 12.8119 54.2448 14.4688 54.2448H31.5482C33.2051 54.2448 34.5482 52.9017 34.5482 51.2448V37.8712C34.5482 36.8779 34.0566 35.949 33.2352 35.3905L24.6955 29.5829Z" fill="#1C2D6B"/>
<path d="M19.2188 47.4208C19.2188 45.2964 20.9409 43.5742 23.0653 43.5742C25.1897 43.5742 26.9119 45.2964 26.9119 47.4208V54.2454H19.2188V47.4208Z" fill="#EDE49D"/>
<rect x="6.07422" y="36.8799" width="20.9896" height="3.875" rx="1.9375" transform="rotate(-34.1871 6.07422 36.8799)" fill="#1C2D6B"/>
<rect x="22.6914" y="25.1709" width="20.9896" height="3.875" rx="1.9375" transform="rotate(34.19 22.6914 25.1709)" fill="#1C2D6B"/>
</svg>
