<svg width="110" height="110" viewBox="0 0 110 110" fill="none" xmlns="http://www.w3.org/2000/svg">
<path d="M36.0625 1.61719H14.57L1.62891 14.5583V108.381H30.6704V14.5583L36.0625 1.61719Z" fill="#89AADB"/>
<path d="M69.6289 1.61719H98.6704V108.381H69.6289V1.61719Z" fill="#4B67B0"/>
<path d="M36.0289 1.61719L30.6367 14.5583V108.381H69.6122V1.61719H36.0289Z" fill="#6287C5"/>
<path d="M98.6761 110H1.61764C0.724164 110 0 109.275 0 108.382V14.5588C0 14.1295 0.170391 13.7181 0.473969 13.4151L13.4151 0.473969C13.7181 0.170391 14.1296 0 14.5588 0H98.6761C99.5696 0 100.294 0.724164 100.294 1.61764V108.382C100.294 109.275 99.5696 110 98.6761 110ZM3.23528 106.764H97.0584V3.23528H15.2285L3.23528 15.229V106.764Z" fill="#1C2D6B"/>
<path d="M37.2027 32.354C36.8609 32.354 36.5179 32.2462 36.2273 32.0267L24.4142 23.0968L15.7037 31.8757C15.0739 32.5093 14.05 32.5136 13.4159 31.8843C12.7817 31.2551 12.7774 30.2311 13.4067 29.5965L23.1136 19.8135C23.6846 19.2392 24.5911 19.174 25.2376 19.6625L37.055 28.5957L52.2349 13.4152C52.6771 12.9725 53.3355 12.8258 53.9227 13.0356L75.7004 20.8132L84.6956 13.3165C85.382 12.7444 86.4022 12.8377 86.9743 13.5236C87.5464 14.21 87.4537 15.2302 86.7673 15.8023L77.0625 23.8905C76.6219 24.2566 76.0202 24.3634 75.4826 24.1714L53.7992 16.4278L38.3469 31.88C38.0337 32.1938 37.619 32.354 37.2027 32.354Z" fill="#1C2D6B"/>
<path d="M50.3281 50.2827H67.5673V95.3697H50.3281V50.2827Z" fill="#EDE49D"/>
<path d="M91.4336 50.2827H108.673V95.3697H91.4336V50.2827Z" fill="#D3BA2A"/>
<path d="M67.5586 50.2827H91.4282V95.3697H67.5586V50.2827Z" fill="#EEE045"/>
<path d="M108.732 96.6957H50.2684C49.5678 96.6957 49 96.1325 49 95.4378V50.2145C49 49.5197 49.5678 48.9565 50.2684 48.9565H108.732C109.432 48.9565 110 49.5197 110 50.2145V95.4378C110 96.1321 109.433 96.6957 108.732 96.6957ZM51.5367 94.1798H107.463V51.4724H51.5367V94.1798Z" fill="#1C2D6B"/>
<path d="M50.3281 50.2827H67.5673V59.5653H50.3281V50.2827Z" fill="#EF7F72"/>
<path d="M91.4336 50.2827H108.673V59.5653H91.4336V50.2827Z" fill="#E8383B"/>
<path d="M67.5586 50.2827H91.4282V59.5653H67.5586V50.2827Z" fill="#E95947"/>
<path d="M108.732 60.8913H50.2684C49.5678 60.8913 49 60.3544 49 59.6919V50.1559C49 49.4935 49.5678 48.9565 50.2684 48.9565H108.732C109.432 48.9565 110 49.4935 110 50.1559V59.6919C110 60.354 109.433 60.8913 108.732 60.8913ZM51.5367 58.4925H107.463V51.3553H51.5367V58.4925Z" fill="#1C2D6B"/>
<path d="M96.7422 67.5215H102.047V72.8258H96.7422V67.5215Z" fill="#E95947"/>
<path d="M83.4844 67.5215H88.7887V72.8258H83.4844V67.5215Z" fill="#E95947"/>
<path d="M71.543 67.5215H76.8473V72.8258H71.543V67.5215Z" fill="#E95947"/>
<path d="M58.2812 67.5215H63.5856V72.8258H58.2812V67.5215Z" fill="#E95947"/>
<path d="M71.543 83.4346H76.8473V87.4128H71.543V83.4346Z" fill="#E95947"/>
<path d="M83.4844 83.4346H88.7887V87.4128H83.4844V83.4346Z" fill="#E95947"/>
<path d="M96.7422 83.4346H102.047V87.4128H96.7422V83.4346Z" fill="#E95947"/>
<path d="M88.7867 88.7393H83.4823C82.7499 88.7393 82.1562 88.2446 82.1562 87.6342V83.214C82.1562 82.6036 82.7499 82.1089 83.4823 82.1089H88.7867C89.5191 82.1089 90.1128 82.6036 90.1128 83.214V87.6342C90.1128 88.2442 89.5196 88.7393 88.7867 88.7393ZM84.8084 86.5292H87.4606V84.319H84.8084V86.5292Z" fill="#1C2D6B"/>
<path d="M100.939 88.7393H96.5191C95.9088 88.7393 95.4141 88.2446 95.4141 87.6342V83.214C95.4141 82.6036 95.9088 82.1089 96.5191 82.1089H100.939C101.55 82.1089 102.044 82.6036 102.044 83.214V87.6342C102.044 88.2442 101.55 88.7393 100.939 88.7393ZM97.6242 86.5292H99.8344V84.319H97.6242V86.5292Z" fill="#1C2D6B"/>
<path d="M58.2812 83.4346H63.5856V87.4128H58.2812V83.4346Z" fill="#E95947"/>
<path d="M100.939 74.1523H96.5191C95.9088 74.1523 95.4141 73.5587 95.4141 72.8262V67.5219C95.4141 66.7894 95.9088 66.1958 96.5191 66.1958H100.939C101.55 66.1958 102.044 66.7894 102.044 67.5219V72.8262C102.044 73.5582 101.55 74.1523 100.939 74.1523ZM97.6242 71.5001H99.8344V68.848H97.6242V71.5001Z" fill="#1C2D6B"/>
<path d="M88.7867 74.1523H83.4823C82.7499 74.1523 82.1562 73.5587 82.1562 72.8262V67.5219C82.1562 66.7894 82.7499 66.1958 83.4823 66.1958H88.7867C89.5191 66.1958 90.1128 66.7894 90.1128 67.5219V72.8262C90.1128 73.5582 89.5196 74.1523 88.7867 74.1523ZM84.8084 71.5001H87.4606V68.848H84.8084V71.5001Z" fill="#1C2D6B"/>
<path d="M75.7441 74.1523H71.3238C70.7135 74.1523 70.2188 73.5587 70.2188 72.8262V67.5219C70.2188 66.7894 70.7135 66.1958 71.3238 66.1958H75.7441C76.3545 66.1958 76.8492 66.7894 76.8492 67.5219V72.8262C76.8492 73.5582 76.3548 74.1523 75.7441 74.1523ZM72.4289 71.5001H74.639V68.848H72.4289V71.5001Z" fill="#1C2D6B"/>
<path d="M63.5914 74.1523H58.287C57.5546 74.1523 56.9609 73.5587 56.9609 72.8262V67.5219C56.9609 66.7894 57.5546 66.1958 58.287 66.1958H63.5914C64.3238 66.1958 64.9175 66.7894 64.9175 67.5219V72.8262C64.9175 73.5582 64.3243 74.1523 63.5914 74.1523ZM59.6131 71.5001H62.2653V68.848H59.6131V71.5001Z" fill="#1C2D6B"/>
<path d="M75.7441 88.7393H71.3238C70.7135 88.7393 70.2188 88.2446 70.2188 87.6342V83.214C70.2188 82.6036 70.7135 82.1089 71.3238 82.1089H75.7441C76.3545 82.1089 76.8492 82.6036 76.8492 83.214V87.6342C76.8492 88.2442 76.3548 88.7393 75.7441 88.7393ZM72.4289 86.5292H74.639V84.319H72.4289V86.5292Z" fill="#1C2D6B"/>
<path d="M63.5914 88.7393H58.287C57.5546 88.7393 56.9609 88.2446 56.9609 87.6342V83.214C56.9609 82.6036 57.5546 82.1089 58.287 82.1089H63.5914C64.3238 82.1089 64.9175 82.6036 64.9175 83.214V87.6342C64.9175 88.2442 64.3243 88.7393 63.5914 88.7393ZM59.6131 86.5292H62.2653V84.319H59.6131V86.5292Z" fill="#1C2D6B"/>
<path d="M99.3944 55.5872C97.9295 55.5872 96.7422 54.3999 96.7422 52.935V47.6307C96.7422 46.1658 97.9295 44.9785 99.3944 44.9785C100.859 44.9785 102.047 46.1658 102.047 47.6307V52.935C102.047 54.3999 100.859 55.5872 99.3944 55.5872Z" fill="#EEE045"/>
<path d="M86.1365 55.5872C84.6717 55.5872 83.4844 54.3999 83.4844 52.935V47.6307C83.4844 46.1658 84.6717 44.9785 86.1365 44.9785C87.6014 44.9785 88.7887 46.1658 88.7887 47.6307V52.935C88.7887 54.3999 87.6014 55.5872 86.1365 55.5872Z" fill="#EEE045"/>
<path d="M74.1951 55.5872C72.7303 55.5872 71.543 54.3999 71.543 52.935V47.6307C71.543 46.1658 72.7303 44.9785 74.1951 44.9785C75.66 44.9785 76.8473 46.1658 76.8473 47.6307V52.935C76.8473 54.3999 75.66 55.5872 74.1951 55.5872Z" fill="#EEE045"/>
<path d="M60.9334 55.5872C59.4685 55.5872 58.2812 54.3999 58.2812 52.935V47.6307C58.2812 46.1658 59.4685 44.9785 60.9334 44.9785C62.3983 44.9785 63.5856 46.1658 63.5856 47.6307V52.935C63.5856 54.3999 62.3983 55.5872 60.9334 55.5872Z" fill="#EEE045"/>
<path d="M98.7293 56.9132C96.9011 56.9132 95.4141 55.1283 95.4141 52.935V47.6306C95.4141 45.4373 96.9011 43.6523 98.7293 43.6523C100.557 43.6523 102.044 45.4373 102.044 47.6306V52.935C102.044 55.1283 100.557 56.9132 98.7293 56.9132ZM98.7293 46.3045C98.12 46.3045 97.6242 46.8995 97.6242 47.6306V52.935C97.6242 53.6661 98.12 54.261 98.7293 54.261C99.3385 54.261 99.8344 53.6661 99.8344 52.935V47.6306C99.8344 46.899 99.3389 46.3045 98.7293 46.3045Z" fill="#1C2D6B"/>
<path d="M86.1345 56.9132C83.9407 56.9132 82.1562 55.1283 82.1562 52.935V47.6306C82.1562 45.4373 83.9407 43.6523 86.1345 43.6523C88.3283 43.6523 90.1128 45.4373 90.1128 47.6306V52.935C90.1128 55.1283 88.3283 56.9132 86.1345 56.9132ZM86.1345 46.3045C85.4034 46.3045 84.8084 46.8995 84.8084 47.6306V52.935C84.8084 53.6661 85.4034 54.261 86.1345 54.261C86.8656 54.261 87.4606 53.6661 87.4606 52.935V47.6306C87.4606 46.899 86.8661 46.3045 86.1345 46.3045Z" fill="#1C2D6B"/>
<path d="M73.534 56.9132C71.7058 56.9132 70.2188 55.1283 70.2188 52.935V47.6306C70.2188 45.4373 71.7058 43.6523 73.534 43.6523C75.3621 43.6523 76.8492 45.4373 76.8492 47.6306V52.935C76.8492 55.1283 75.3621 56.9132 73.534 56.9132ZM73.534 46.3045C72.9247 46.3045 72.4289 46.8995 72.4289 47.6306V52.935C72.4289 53.6661 72.9247 54.261 73.534 54.261C74.1432 54.261 74.639 53.6661 74.639 52.935V47.6306C74.639 46.899 74.1436 46.3045 73.534 46.3045Z" fill="#1C2D6B"/>
<path d="M60.9392 56.9132C58.7454 56.9132 56.9609 55.1283 56.9609 52.935V47.6306C56.9609 45.4373 58.7454 43.6523 60.9392 43.6523C63.133 43.6523 64.9175 45.4373 64.9175 47.6306V52.935C64.9175 55.1283 63.133 56.9132 60.9392 56.9132ZM60.9392 46.3045C60.2081 46.3045 59.6131 46.8995 59.6131 47.6306V52.935C59.6131 53.6661 60.2081 54.261 60.9392 54.261C61.6703 54.261 62.2653 53.6661 62.2653 52.935V47.6306C62.2653 46.899 61.6708 46.3045 60.9392 46.3045Z" fill="#1C2D6B"/>
<path d="M88.9949 38.8925H11.3481C10.4546 38.8925 9.73047 38.1683 9.73047 37.2749C9.73047 36.3814 10.4546 35.6572 11.3481 35.6572H88.9949C89.8884 35.6572 90.6125 36.3814 90.6125 37.2749C90.6125 38.1683 89.8884 38.8925 88.9949 38.8925Z" fill="#1C2D6B"/>
<path d="M24.2514 25.8806C26.9316 25.8806 29.1043 23.7079 29.1043 21.0277C29.1043 18.3475 26.9316 16.1748 24.2514 16.1748C21.5712 16.1748 19.3984 18.3475 19.3984 21.0277C19.3984 23.7079 21.5712 25.8806 24.2514 25.8806Z" fill="#E95947"/>
<path d="M53.3881 19.4139C56.0683 19.4139 58.241 17.2411 58.241 14.5609C58.241 11.8807 56.0683 9.70801 53.3881 9.70801C50.7079 9.70801 48.5352 11.8807 48.5352 14.5609C48.5352 17.2411 50.7079 19.4139 53.3881 19.4139Z" fill="#E95947"/>
<path d="M76.0521 27.6853C78.7323 27.6853 80.9051 25.5126 80.9051 22.8324C80.9051 20.1522 78.7323 17.9795 76.0521 17.9795C73.3719 17.9795 71.1992 20.1522 71.1992 22.8324C71.1992 25.5126 73.3719 27.6853 76.0521 27.6853Z" fill="#E95947"/>
<path d="M24.2401 27.4992C20.6721 27.4992 17.7695 24.5966 17.7695 21.0287C17.7695 17.4607 20.6721 14.5581 24.2401 14.5581C27.8081 14.5581 30.7107 17.4607 30.7107 21.0287C30.7107 24.5966 27.8081 27.4992 24.2401 27.4992ZM24.2401 17.7934C22.4558 17.7934 21.0048 19.2444 21.0048 21.0287C21.0048 22.8129 22.4558 24.2639 24.2401 24.2639C26.0244 24.2639 27.4754 22.8129 27.4754 21.0287C27.4754 19.2444 26.0238 17.7934 24.2401 17.7934Z" fill="#1C2D6B"/>
<path d="M53.369 21.0324C49.801 21.0324 46.8984 18.1298 46.8984 14.5619C46.8984 10.9939 49.801 8.09131 53.369 8.09131C56.937 8.09131 59.8396 10.9939 59.8396 14.5619C59.8396 18.1298 56.937 21.0324 53.369 21.0324ZM53.369 11.3266C51.5847 11.3266 50.1337 12.7776 50.1337 14.5619C50.1337 16.3461 51.5847 17.7972 53.369 17.7972C55.1533 17.7972 56.6043 16.3461 56.6043 14.5619C56.6043 12.7776 55.1527 11.3266 53.369 11.3266Z" fill="#1C2D6B"/>
<path d="M76.0331 29.3039C72.4651 29.3039 69.5625 26.4013 69.5625 22.8333C69.5625 19.2654 72.4651 16.3628 76.0331 16.3628C79.601 16.3628 82.5036 19.2654 82.5036 22.8333C82.5036 26.4013 79.601 29.3039 76.0331 29.3039ZM76.0331 19.5981C74.2488 19.5981 72.7978 21.0491 72.7978 22.8333C72.7978 24.6176 74.2488 26.0686 76.0331 26.0686C77.8173 26.0686 79.2683 24.6176 79.2683 22.8333C79.2683 21.0491 77.8168 19.5981 76.0331 19.5981Z" fill="#1C2D6B"/>
<path d="M11.3008 46.9087H19.9282V66.3107H11.3008V46.9087Z" fill="#65BC49"/>
<path d="M19.9755 67.9293H11.3481C10.4546 67.9293 9.73047 67.2051 9.73047 66.3116V46.9096C9.73047 46.0162 10.4546 45.292 11.3481 45.292H19.9755C20.869 45.292 21.5932 46.0162 21.5932 46.9096V66.3116C21.5932 67.2051 20.869 67.9293 19.9755 67.9293ZM12.9657 64.694H18.3579V48.5273H12.9657V64.694Z" fill="#1C2D6B"/>
<path d="M19.9297 51.7642H28.5571V66.3154H19.9297V51.7642Z" fill="#EDE49D"/>
<path d="M28.5927 67.9344H19.9653C19.0718 67.9344 18.3477 67.2103 18.3477 66.3168V51.7656C18.3477 50.8721 19.0718 50.1479 19.9653 50.1479H28.5927C29.4862 50.1479 30.2104 50.8721 30.2104 51.7656V66.3168C30.2104 67.2103 29.4862 67.9344 28.5927 67.9344ZM21.5829 64.6992H26.9751V53.3832H21.5829V64.6992Z" fill="#1C2D6B"/>
<path d="M28.6094 56.6128H37.2368V66.3434H28.6094V56.6128Z" fill="#EF7F72"/>
<path d="M37.2216 67.962H28.5942C27.7007 67.962 26.9766 67.2379 26.9766 66.3444V56.6137C26.9766 55.7203 27.7007 54.9961 28.5942 54.9961H37.2216C38.1151 54.9961 38.8393 55.7203 38.8393 56.6137V66.3444C38.8393 67.2373 38.1151 67.962 37.2216 67.962ZM30.2118 64.7267H35.604V58.2314H30.2118V64.7267Z" fill="#1C2D6B"/>
<path d="M19.3157 88.9694C19.3157 81.8426 21.5049 76.0649 24.2052 76.0649C17.0785 76.0649 11.3008 81.8426 11.3008 88.9694C11.3008 96.0962 17.0785 101.874 24.2052 101.874C21.5049 101.874 19.3157 96.0962 19.3157 88.9694Z" fill="#A4D4A0"/>
<path d="M24.207 76.0649C26.9074 76.0649 29.0966 81.8426 29.0966 88.9694C29.0966 96.0962 26.9074 101.874 24.207 101.874C31.3338 101.874 37.1115 96.0962 37.1115 88.9694C37.1115 81.8426 31.3338 76.0649 24.207 76.0649Z" fill="#419B46"/>
<path d="M24.2294 101.874C26.9299 101.874 29.119 96.0964 29.119 88.9694C29.119 81.8425 26.9299 76.0649 24.2294 76.0649C21.529 76.0649 19.3398 81.8425 19.3398 88.9694C19.3398 96.0964 21.529 101.874 24.2294 101.874Z" fill="#65BC49"/>
<path d="M24.2526 103.492C16.2447 103.492 9.73047 96.9772 9.73047 88.9699C9.73047 80.9625 16.2447 74.4478 24.2526 74.4478C32.2604 74.4478 38.7747 80.962 38.7747 88.9699C38.7747 96.9777 32.2604 103.492 24.2526 103.492ZM24.2526 77.683C18.029 77.683 12.9658 82.7463 12.9658 88.9699C12.9658 95.1935 18.029 100.257 24.2526 100.257C30.4762 100.257 35.5394 95.1935 35.5394 88.9699C35.5394 82.7463 30.4762 77.683 24.2526 77.683Z" fill="#1C2D6B"/>
<path d="M33.3283 99.7086C32.9141 99.7086 32.5006 99.5506 32.1846 99.2346L13.9349 80.9849C13.3029 80.3535 13.3029 79.329 13.9349 78.6976C14.5669 78.0656 15.5903 78.0656 16.2223 78.6976L34.4719 96.9473C35.1039 97.5787 35.1039 98.6032 34.4719 99.2346C34.156 99.5506 33.7424 99.7086 33.3283 99.7086Z" fill="#1C2D6B"/>
<path d="M21.9488 79.8443C22.5295 77.509 23.3319 76.0649 24.2183 76.0649C20.6547 76.0649 17.4285 77.5095 15.0938 79.8443L24.2183 88.9689L21.9488 79.8443Z" fill="#EDE49D"/>
<path d="M24.207 76.0649C25.0935 76.0649 25.8958 77.5095 26.4766 79.8443L24.207 88.9694L33.3316 79.8448C30.9968 77.5095 27.7707 76.0649 24.207 76.0649Z" fill="#D3BA2A"/>
<path d="M26.4961 79.8443C25.9154 77.509 25.1131 76.0649 24.2266 76.0649C23.3401 76.0649 22.5378 77.5095 21.957 79.8443L24.2266 88.9689L26.4961 79.8443Z" fill="#EEE045"/>
<path d="M24.2037 90.587C23.7745 90.587 23.3631 90.4166 23.06 90.1135L13.9349 80.989C13.6319 80.6854 13.4609 80.274 13.4609 79.8447C13.4609 79.4161 13.6313 79.0041 13.9349 78.7011C16.6773 75.9581 20.3246 74.4478 24.2037 74.4478C28.0828 74.4478 31.73 75.9581 34.4719 78.7011C35.1039 79.3325 35.1039 80.357 34.4719 80.9884L25.3474 90.113C25.0443 90.4166 24.6329 90.587 24.2037 90.587ZM17.4473 79.9256L24.2037 86.682L30.9595 79.9256C29.0199 78.4697 26.6727 77.683 24.2037 77.683C21.7346 77.683 19.3874 78.4697 17.4473 79.9256Z" fill="#1C2D6B"/>
<path d="M33.3321 86.8371C35.6675 87.3833 37.1115 88.1376 37.1115 88.9713C37.1115 85.4076 35.6669 82.1815 33.3321 79.8467L24.207 88.9713L33.3321 86.8371Z" fill="#EF7F72"/>
<path d="M33.3321 91.101L24.207 88.9668L33.3316 98.0914C35.6669 95.756 37.1109 92.5299 37.1109 88.9668C37.1115 89.8004 35.6669 90.5548 33.3321 91.101Z" fill="#E8383B"/>
<path d="M33.3321 91.1068C35.6675 90.5606 37.1115 89.8062 37.1115 88.9726C37.1115 88.139 35.6669 87.3846 33.3321 86.8384L24.207 88.9726L33.3321 91.1068Z" fill="#E95947"/>
<path d="M33.3789 99.7088C32.9648 99.7088 32.5512 99.5508 32.2353 99.2349L23.1107 90.1103C22.4787 89.4789 22.4787 88.4544 23.1107 87.8229L32.2353 78.6984C32.8672 78.0664 33.8906 78.067 34.5226 78.6984C37.2656 81.4408 38.7765 85.0881 38.7765 88.9672C38.7765 92.8463 37.2656 96.4935 34.5226 99.2359C34.2066 99.5508 33.793 99.7088 33.3789 99.7088ZM26.5417 88.9666L33.298 95.723C34.7534 93.7829 35.5406 91.4357 35.5406 88.9666C35.5406 86.4976 34.7534 84.1504 33.298 82.2103L26.5417 88.9666Z" fill="#1C2D6B"/>
<path d="M14.5576 16.1757H1.61755C0.96348 16.1757 0.373041 15.7815 0.123385 15.177C-0.127349 14.5726 0.0112284 13.877 0.473874 13.4143L13.4139 0.473755C13.8755 0.011649 14.57 -0.127468 15.1772 0.123266C15.7816 0.373462 16.1758 0.963361 16.1758 1.61743V14.558C16.1752 15.451 15.4511 16.1757 14.5576 16.1757ZM5.52253 12.9404H12.94V5.52295L5.52253 12.9404Z" fill="#1C2D6B"/>
</svg>
