<svg width="125" height="125" viewBox="0 0 125 125" fill="none" xmlns="http://www.w3.org/2000/svg">
<path d="M13.8125 1.80664H49.9414V110.193H13.8125V1.80664Z" fill="#A4D4A0"/>
<path d="M69.66 1.80664V92.6082L61.0859 110.193H83.2149L100.527 92.6082V1.80664H69.66Z" fill="#419B46"/>
<path d="M72.8133 1.80664H43.9102V110.193H66.7918L72.8133 92.6082V1.80664Z" fill="#65BC49"/>
<path d="M82.4514 112H13.8064C12.8087 112 12 111.191 12 110.193V1.80644C12 0.808685 12.8087 0 13.8064 0H100.516C101.514 0 102.322 0.808685 102.322 1.80644V92.6074C102.322 93.0951 102.125 93.5618 101.776 93.9014L83.7117 111.487C83.3745 111.816 82.9223 112 82.4514 112ZM15.6129 108.387H81.7174L98.7094 91.8451V3.61289H15.6129V108.387Z" fill="#1C2D6B"/>
<path d="M82.4471 112C82.2098 112 81.9714 111.954 81.745 111.858C81.0754 111.575 80.6406 110.92 80.6406 110.193V92.6077C80.6406 91.61 81.4493 90.8013 82.4471 90.8013H100.512C101.247 90.8013 101.909 91.2469 102.185 91.9279C102.461 92.6089 102.298 93.3899 101.771 93.9023L83.7068 111.488C83.3629 111.823 82.9089 112 82.4471 112ZM84.2535 94.4142V105.913L96.0665 94.4142H84.2535Z" fill="#1C2D6B"/>
<rect x="25.2617" y="13.5469" width="64.1288" height="3.61289" rx="1.80645" fill="#1C2D6B"/>
<rect x="25.2617" y="21.0776" width="64.1288" height="3.61289" rx="1.80645" fill="#1C2D6B"/>
<rect x="25.2617" y="43.3535" width="64.1288" height="3.61289" rx="1.80645" fill="#1C2D6B"/>
<rect x="25.2617" y="73.1606" width="64.1288" height="3.61289" rx="1.80645" fill="#1C2D6B"/>
<rect x="25.2617" y="50.8818" width="64.1288" height="3.61289" rx="1.80645" fill="#1C2D6B"/>
<rect x="25.2617" y="80.6885" width="64.1288" height="3.61289" rx="1.80645" fill="#1C2D6B"/>
<path d="M106.955 108.983C105.779 110.231 104.373 111.222 102.82 111.899C101.267 112.575 99.5989 112.923 97.9139 112.921C96.7481 112.922 95.5878 112.757 94.4651 112.433C94.1256 112.322 93.7993 112.212 93.4531 112.088C93.5663 112.013 93.6928 111.93 93.806 111.84C93.9682 111.733 94.1238 111.616 94.272 111.489C94.6316 111.2 94.9778 110.904 95.304 110.587C95.4971 110.415 95.6768 110.222 95.8633 110.03C96.0497 109.837 96.2361 109.617 96.4159 109.403C96.5956 109.19 96.7687 108.969 96.9418 108.715C97.0706 108.556 97.1885 108.388 97.2947 108.212C97.4623 107.977 97.6178 107.734 97.7608 107.482C97.8806 107.296 98.0004 107.097 98.1003 106.904C98.4142 106.295 98.6878 105.665 98.9192 105.018H99.0124C99.7102 104.903 100.385 104.67 101.01 104.329C103.466 105.095 105.575 106.746 106.955 108.983Z" fill="#6287C5"/>
<path d="M118.051 98.2837C117.224 98.2834 116.417 98.0215 115.747 97.5354C115.077 97.0493 114.577 96.364 114.32 95.5772C114.056 94.7706 113.731 93.9849 113.35 93.2266C112.977 92.4905 112.846 91.6549 112.977 90.84C113.109 90.0251 113.495 89.2728 114.081 88.6911C114.316 88.4512 114.448 88.1283 114.448 87.792C114.448 87.4556 114.316 87.1327 114.081 86.8929L112.068 84.886C111.951 84.769 111.812 84.6763 111.659 84.613C111.507 84.5498 111.343 84.5172 111.178 84.5172C111.012 84.5172 110.849 84.5498 110.696 84.613C110.543 84.6763 110.405 84.769 110.288 84.886C109.705 85.4773 108.949 85.868 108.129 86.0015C107.309 86.135 106.468 86.0044 105.728 85.6286C104.971 85.2558 104.188 84.9418 103.383 84.6896C102.596 84.4265 101.911 83.9221 101.426 83.2479C100.941 82.5737 100.681 81.7639 100.683 80.9335C100.664 80.6066 100.523 80.2987 100.288 80.0711C100.052 79.8436 99.7397 79.7133 99.4123 79.7061H96.5769C96.2479 79.7059 95.9318 79.834 95.6957 80.0632C95.4596 80.2924 95.3222 80.6046 95.3126 80.9335C95.3133 81.7654 95.0514 82.5763 94.5643 83.2507C94.0773 83.9251 93.3898 84.4286 92.5999 84.6896C91.792 84.9501 91.006 85.2743 90.2493 85.6593C89.5108 86.0307 88.6737 86.159 87.8579 86.0256C87.0421 85.8922 86.2894 85.504 85.7077 84.9166C85.4689 84.6813 85.147 84.5493 84.8117 84.5493C84.4763 84.5493 84.1545 84.6813 83.9156 84.9166L83.1607 85.6654L81.9333 86.9235C81.815 87.0415 81.7213 87.1817 81.6573 87.336C81.5933 87.4903 81.5604 87.6556 81.5604 87.8227C81.5604 87.9897 81.5933 88.1551 81.6573 88.3094C81.7213 88.4636 81.815 88.6038 81.9333 88.7218C82.5209 89.302 82.9094 90.0537 83.0428 90.8686C83.1763 91.6836 83.0478 92.5199 82.6759 93.2573C82.3051 93.9876 81.9891 94.7446 81.7307 95.5219C81.7307 95.5526 81.7307 95.5833 81.7307 95.6079C81.6462 95.8593 81.5372 96.1018 81.4054 96.3321C81.0568 96.9322 80.5574 97.4309 79.9567 97.7786C79.356 98.1263 78.6749 98.311 77.9808 98.3144C77.646 98.3176 77.326 98.4529 77.0904 98.6908C76.8548 98.9287 76.7227 99.25 76.7227 99.5848V102.42C76.7219 102.586 76.7538 102.751 76.8166 102.905C76.8793 103.058 76.9718 103.198 77.0886 103.316C77.2055 103.434 77.3444 103.528 77.4975 103.592C77.6505 103.656 77.8148 103.69 77.9808 103.691C78.6758 103.69 79.3586 103.873 79.96 104.221C80.5615 104.569 81.0601 105.07 81.4054 105.673C81.5372 105.903 81.6462 106.146 81.7307 106.397C81.9635 107.117 82.2486 107.818 82.5838 108.496C82.6198 108.582 82.6608 108.666 82.7066 108.748C83.078 109.486 83.2063 110.323 83.0729 111.139C82.9395 111.955 82.5513 112.708 81.9639 113.289C81.7275 113.526 81.5946 113.848 81.5946 114.182C81.5946 114.517 81.7275 114.838 81.9639 115.075L82.5777 115.689L83.6026 116.726L83.9647 117.082C84.2036 117.318 84.5254 117.45 84.8608 117.45C85.1961 117.45 85.518 117.318 85.7568 117.082C85.8892 116.954 86.0307 116.835 86.1803 116.726C86.605 116.377 87.1017 116.125 87.6348 115.99C87.9114 115.919 88.1961 115.884 88.4818 115.886C88.8988 115.886 89.3131 115.952 89.7092 116.082C89.8975 116.147 90.0819 116.223 90.2616 116.309L90.4519 116.407C91.1518 116.746 91.8735 117.037 92.6122 117.279C93.3959 117.544 94.0765 118.048 94.5577 118.721C95.039 119.394 95.2966 120.201 95.2942 121.029C95.2934 121.195 95.3255 121.36 95.3887 121.514C95.4519 121.668 95.5449 121.809 95.6623 121.927C95.7798 122.045 95.9195 122.138 96.0732 122.202C96.227 122.266 96.3919 122.299 96.5585 122.299H99.3939C99.7309 122.299 100.054 122.165 100.292 121.927C100.531 121.689 100.664 121.366 100.664 121.029C100.666 120.201 100.927 119.395 101.412 118.724C101.896 118.054 102.58 117.552 103.365 117.291C104.176 117.03 104.966 116.705 105.728 116.321C106.465 115.947 107.301 115.817 108.117 115.948C108.933 116.079 109.687 116.466 110.269 117.052C110.386 117.169 110.525 117.261 110.678 117.325C110.83 117.388 110.994 117.42 111.159 117.42C111.324 117.42 111.488 117.388 111.641 117.325C111.794 117.261 111.932 117.169 112.049 117.052L114.062 115.045C114.299 114.808 114.431 114.487 114.431 114.152C114.431 113.817 114.299 113.496 114.062 113.259C113.476 112.676 113.09 111.923 112.958 111.107C112.827 110.291 112.958 109.454 113.332 108.717C113.718 107.959 114.049 107.173 114.32 106.367C114.578 105.579 115.079 104.894 115.75 104.408C116.421 103.922 117.229 103.66 118.058 103.66C118.225 103.661 118.39 103.629 118.545 103.565C118.699 103.501 118.84 103.408 118.958 103.29C119.076 103.172 119.169 103.031 119.233 102.877C119.296 102.722 119.329 102.557 119.328 102.39V99.5542C119.328 99.3868 119.295 99.2211 119.231 99.0666C119.166 98.912 119.072 98.7717 118.954 98.6536C118.835 98.5356 118.694 98.4421 118.539 98.3787C118.385 98.3152 118.219 98.2829 118.051 98.2837ZM97.9885 115.284C96.1641 115.289 94.3565 114.937 92.6674 114.247C92.3913 114.143 92.1273 114.026 91.8634 113.897C91.4676 113.714 91.0824 113.509 90.7096 113.283C90.3664 113.085 90.0344 112.868 89.7154 112.633C88.9677 112.102 88.2748 111.497 87.6471 110.828C85.3201 108.402 83.9284 105.229 83.7192 101.874C83.7192 101.579 83.7192 101.26 83.7192 100.972C83.7192 100.683 83.7192 100.199 83.7683 99.8058C83.8197 99.0556 83.9305 98.3106 84.0997 97.5779C84.2709 96.8721 84.4967 96.1806 84.7748 95.5097C85.8571 92.8962 87.689 90.6616 90.0394 89.0877C92.3898 87.5139 95.1536 86.6711 97.9823 86.6658C98.3322 86.6658 98.6759 86.6658 99.0134 86.7087C99.351 86.7517 99.7069 86.7701 100.044 86.8192C103.625 87.337 106.876 89.1921 109.144 92.0111C111.412 94.83 112.527 98.4034 112.266 102.012C112.004 105.62 110.385 108.995 107.735 111.458C105.085 113.921 101.6 115.288 97.9823 115.284H97.9885Z" fill="#B9CBEA"/>
<path d="M118.054 95.6145C117.789 95.6131 117.531 95.5281 117.317 95.3716C117.103 95.2151 116.945 94.9951 116.863 94.743C116.55 93.8215 116.173 92.9232 115.734 92.0549C115.615 91.8171 115.574 91.548 115.617 91.2858C115.66 91.0236 115.785 90.7816 115.973 90.5942C116.707 89.8549 117.119 88.8556 117.119 87.814C117.119 86.7724 116.707 85.773 115.973 85.0338L113.96 83.0207C113.221 82.2835 112.22 81.8695 111.177 81.8695C110.133 81.8695 109.132 82.2835 108.394 83.0207C108.212 83.2134 107.972 83.342 107.711 83.3873C107.45 83.4327 107.181 83.3924 106.945 83.2723C106.072 82.8226 105.165 82.4409 104.232 82.1308C103.977 82.0548 103.753 81.8974 103.594 81.6825C103.436 81.4677 103.352 81.2071 103.355 80.9402C103.354 80.0064 103.022 79.1032 102.417 78.3917C101.812 77.6801 100.974 77.2065 100.053 77.0552C99.8503 77.0197 99.645 77.0012 99.4392 77H96.5792C96.0616 76.9992 95.5489 77.1006 95.0704 77.2983C94.592 77.496 94.1574 77.7862 93.7913 78.1522C93.4253 78.5183 93.1351 78.953 92.9374 79.4314C92.7396 79.9098 92.6383 80.4225 92.6391 80.9402C92.6421 81.2071 92.5581 81.4677 92.3997 81.6825C92.2414 81.8974 92.0173 82.0548 91.7614 82.1308C90.8287 82.4398 89.9217 82.8215 89.0487 83.2723C88.8105 83.388 88.5419 83.426 88.2809 83.3809C88.0199 83.3357 87.7797 83.2097 87.5942 83.0207C86.8534 82.2898 85.8546 81.8801 84.814 81.8801C83.7734 81.8801 82.7746 82.2898 82.0338 83.0207L81.3525 83.702L80.0207 85.0338C79.2839 85.7714 78.8701 86.7714 78.8701 87.814C78.8701 88.8566 79.2839 89.8565 80.0207 90.5942C80.2101 90.7809 80.3357 91.0226 80.3798 91.2848C80.4239 91.547 80.3841 91.8165 80.2662 92.0549C79.8189 92.9287 79.4393 93.8356 79.1308 94.7676C79.0791 94.9319 78.9933 95.0835 78.8791 95.2125C78.7649 95.3415 78.6248 95.445 78.468 95.5163C78.3038 95.5972 78.1232 95.6392 77.9402 95.639C77.2545 95.6385 76.5806 95.8172 75.9853 96.1574C75.39 96.4976 74.8939 96.9874 74.5463 97.5784C74.1862 98.1813 73.9973 98.8709 74 99.5731V102.409C74 103.454 74.415 104.457 75.1537 105.197C75.8925 105.937 76.8946 106.353 77.9402 106.355C78.2071 106.352 78.4677 106.436 78.6826 106.594C78.8974 106.753 79.0548 106.977 79.1308 107.232C79.3793 107.972 79.6724 108.695 80.0085 109.399C80.0883 109.583 80.1742 109.767 80.2662 109.939C80.387 110.175 80.4283 110.443 80.3841 110.704C80.3399 110.965 80.2124 111.205 80.0207 111.387C79.4694 111.939 79.0941 112.641 78.9422 113.406C78.7904 114.171 78.8688 114.963 79.1677 115.684C79.3099 116.029 79.5022 116.352 79.7384 116.641C79.7569 116.669 79.7774 116.696 79.7998 116.721C79.8653 116.798 79.9389 116.878 80.0207 116.96L80.8125 117.752L82.0399 118.979C82.7791 119.713 83.7785 120.125 84.8201 120.125C85.8617 120.125 86.8611 119.713 87.6003 118.979C87.7834 118.786 88.0243 118.658 88.2866 118.614C88.549 118.569 88.8186 118.612 89.0549 118.734C89.9293 119.178 90.8362 119.556 91.7676 119.863C92.0234 119.939 92.2475 120.096 92.4059 120.311C92.5642 120.526 92.6483 120.787 92.6452 121.054C92.6444 121.572 92.7457 122.085 92.9434 122.563C93.141 123.042 93.4311 123.477 93.7971 123.844C94.163 124.21 94.5977 124.501 95.0761 124.699C95.5546 124.898 96.0674 125 96.5854 125H99.4208C100.466 124.998 101.469 124.582 102.207 123.842C102.946 123.102 103.361 122.099 103.361 121.054C103.358 120.787 103.442 120.526 103.6 120.311C103.759 120.096 103.983 119.939 104.239 119.863C105.172 119.547 106.081 119.161 106.957 118.709C107.193 118.588 107.461 118.547 107.722 118.591C107.983 118.636 108.223 118.763 108.406 118.955C109.146 119.689 110.147 120.101 111.189 120.101C112.232 120.101 113.232 119.689 113.972 118.955L115.985 116.936C116.352 116.571 116.643 116.137 116.841 115.659C117.04 115.182 117.142 114.669 117.142 114.152C117.142 113.635 117.04 113.123 116.841 112.645C116.643 112.168 116.352 111.734 115.985 111.369C115.795 111.186 115.669 110.946 115.625 110.685C115.582 110.424 115.625 110.156 115.746 109.921C116.184 109.045 116.561 108.141 116.875 107.214C116.951 106.958 117.109 106.734 117.324 106.576C117.538 106.417 117.799 106.333 118.066 106.336C119.111 106.333 120.112 105.916 120.851 105.177C121.589 104.437 122.005 103.435 122.006 102.39V99.5547C122.006 99.0362 121.904 98.5228 121.705 98.044C121.506 97.5651 121.215 97.1302 120.848 96.7642C120.481 96.3982 120.045 96.1082 119.565 95.9109C119.086 95.7136 118.572 95.6129 118.054 95.6145ZM119.324 102.366C119.325 102.533 119.293 102.698 119.229 102.853C119.166 103.007 119.072 103.148 118.954 103.266C118.836 103.384 118.695 103.477 118.541 103.541C118.386 103.604 118.221 103.637 118.054 103.636C117.223 103.639 116.415 103.905 115.744 104.395C115.074 104.886 114.576 105.576 114.322 106.367C114.057 107.173 113.733 107.959 113.353 108.718C112.979 109.455 112.848 110.291 112.979 111.107C113.11 111.923 113.497 112.677 114.083 113.259C114.319 113.496 114.452 113.817 114.452 114.152C114.452 114.487 114.319 114.808 114.083 115.045L112.07 117.052C111.953 117.169 111.814 117.262 111.662 117.325C111.509 117.388 111.345 117.421 111.18 117.421C111.015 117.421 110.851 117.388 110.698 117.325C110.546 117.262 110.407 117.169 110.29 117.052C109.707 116.466 108.954 116.08 108.138 115.948C107.322 115.817 106.485 115.948 105.748 116.322C104.989 116.706 104.201 117.03 103.392 117.292C102.607 117.553 101.923 118.054 101.439 118.725C100.954 119.396 100.693 120.202 100.691 121.029C100.691 121.366 100.557 121.689 100.319 121.927C100.081 122.166 99.7578 122.3 99.4208 122.3H96.5792C96.4111 122.302 96.2443 122.271 96.0883 122.208C95.9324 122.145 95.7906 122.052 95.6711 121.934C95.5517 121.815 95.457 121.674 95.3927 121.519C95.3284 121.364 95.2957 121.197 95.2965 121.029C95.2942 120.2 95.031 119.393 94.544 118.722C94.0571 118.051 93.3713 117.551 92.5838 117.292C91.8451 117.049 91.1234 116.758 90.4235 116.42L90.2332 116.322C90.0536 116.236 89.8692 116.16 89.6809 116.095C89.2847 115.965 88.8704 115.898 88.4534 115.898C88.1678 115.896 87.8831 115.931 87.6065 116.003C87.0597 116.119 86.5459 116.356 86.1028 116.696C85.9533 116.804 85.8117 116.923 85.6794 117.052C85.4405 117.288 85.1186 117.419 84.7833 117.419C84.448 117.419 84.1261 117.288 83.8873 117.052L83.5252 116.696L82.5002 115.659L81.8865 115.045C81.65 114.808 81.5172 114.487 81.5172 114.152C81.5172 113.817 81.65 113.496 81.8865 113.259C82.4738 112.678 82.862 111.925 82.9954 111.109C83.1288 110.293 83.0006 109.456 82.6291 108.718C82.5833 108.636 82.5423 108.552 82.5064 108.466C82.1712 107.788 81.8861 107.087 81.6533 106.367C81.5687 106.116 81.4598 105.873 81.328 105.643C80.9827 105.04 80.484 104.539 79.8826 104.191C79.2811 103.842 78.5983 103.66 77.9034 103.661C77.7373 103.66 77.5731 103.626 77.42 103.562C77.2669 103.498 77.128 103.404 77.0112 103.286C76.8943 103.168 76.8019 103.028 76.7391 102.874C76.6763 102.721 76.6444 102.556 76.6452 102.39V99.5547C76.6452 99.2198 76.7774 98.8985 77.013 98.6606C77.2486 98.4227 77.5686 98.2875 77.9034 98.2842C78.5974 98.2808 79.2786 98.0961 79.8793 97.7484C80.48 97.4007 80.9794 96.902 81.328 96.3019C81.4598 96.0717 81.5687 95.8291 81.6533 95.5777C81.6533 95.5777 81.6533 95.5224 81.6533 95.4918C81.9117 94.7145 82.2276 93.9575 82.5984 93.2271C82.9703 92.4897 83.0988 91.6534 82.9654 90.8385C82.8319 90.0235 82.4435 89.2718 81.8558 88.6916C81.7376 88.5736 81.6438 88.4335 81.5798 88.2792C81.5158 88.1249 81.4829 87.9595 81.4829 87.7925C81.4829 87.6255 81.5158 87.4601 81.5798 87.3058C81.6438 87.1515 81.7376 87.0114 81.8558 86.8934L83.0833 85.6352L83.8382 84.8865C84.077 84.6511 84.3989 84.5191 84.7342 84.5191C85.0695 84.5191 85.3914 84.6511 85.6303 84.8865C86.212 85.4738 86.9646 85.862 87.7805 85.9954C88.5963 86.1288 89.4334 86.0006 90.1719 85.6291C90.9552 85.2507 91.768 84.9367 92.6023 84.6901C93.3937 84.4243 94.0807 83.9148 94.5648 83.2345C95.0488 82.5543 95.3049 81.7382 95.2965 80.9033C95.3061 80.5745 95.4435 80.2623 95.6796 80.0331C95.9157 79.8039 96.2318 79.6757 96.5608 79.6759H99.3963C99.7236 79.6831 100.036 79.8134 100.272 80.041C100.507 80.2685 100.648 80.5764 100.667 80.9033C100.66 81.7412 100.92 82.5596 101.408 83.2402C101.897 83.9209 102.589 84.4286 103.386 84.6901C104.19 84.9423 104.974 85.2563 105.73 85.6291C106.468 86.0006 107.306 86.1288 108.121 85.9954C108.937 85.862 109.69 85.4738 110.272 84.8865C110.388 84.7696 110.527 84.6768 110.68 84.6135C110.833 84.5503 110.996 84.5177 111.162 84.5177C111.327 84.5177 111.49 84.5503 111.643 84.6135C111.796 84.6768 111.935 84.7696 112.051 84.8865L114.064 86.8934C114.3 87.1333 114.432 87.4561 114.432 87.7925C114.432 88.1288 114.3 88.4517 114.064 88.6916C113.479 89.2733 113.093 90.0256 112.961 90.8405C112.83 91.6554 112.961 92.491 113.334 93.2271C113.722 93.9849 114.052 94.7706 114.322 95.5777C114.58 96.3655 115.08 97.0516 115.752 97.5377C116.423 98.0239 117.231 98.2852 118.06 98.2842C118.397 98.2842 118.72 98.4181 118.958 98.6563C119.196 98.8946 119.33 99.2177 119.33 99.5547L119.324 102.366Z" fill="#1C2D6B"/>
<path d="M100.05 86.8199C99.7141 86.7708 99.3704 86.734 99.0185 86.7095C98.681 86.7095 98.3373 86.6665 97.9875 86.6665C95.1598 86.6691 92.3962 87.5086 90.0447 89.0791C87.6933 90.6496 85.8593 92.881 84.7738 95.492C84.4947 96.1689 84.269 96.8666 84.0987 97.5787C83.9185 98.3145 83.7974 99.0636 83.7366 99.8188C83.7059 100.212 83.6875 100.598 83.6875 100.985C83.6875 101.372 83.6875 101.599 83.6875 101.887C83.8933 105.241 85.2806 108.413 87.6031 110.841C88.2308 111.51 88.9237 112.115 89.6714 112.646C89.9904 112.881 90.3224 113.098 90.6656 113.296C91.0384 113.522 91.4236 113.727 91.8194 113.91C92.0834 114.039 92.3473 114.156 92.6234 114.26C94.3125 114.95 96.1201 115.302 97.9445 115.297C101.562 115.301 105.047 113.934 107.697 111.471C110.348 109.008 111.966 105.633 112.228 102.025C112.489 98.4164 111.374 94.843 109.106 92.0241C106.839 89.2051 103.587 87.35 100.007 86.8322L100.05 86.8199ZM91.6967 110.755C91.6046 110.694 91.5187 110.639 91.4328 110.571C91.1735 110.406 90.9254 110.223 90.6902 110.025C90.6258 109.978 90.5644 109.926 90.5061 109.872C90.2127 109.629 89.9321 109.37 89.6653 109.098C90.3053 108.092 91.1225 107.211 92.0772 106.496L92.4086 106.263C92.5812 106.132 92.7638 106.015 92.9549 105.913C93.4755 105.595 94.0265 105.33 94.5997 105.121L95.1275 104.943C95.2027 104.987 95.2806 105.026 95.3607 105.06C95.437 105.108 95.5196 105.145 95.6062 105.171L95.8517 105.269L96.1708 105.385C96.7666 105.571 97.3879 105.663 98.012 105.655H98.2514C98.3249 105.661 98.3988 105.661 98.4723 105.655H98.638C98.7178 105.655 98.7976 105.655 98.8774 105.655H98.9572H99.0431C99.6863 105.553 100.308 105.346 100.884 105.042C103.124 105.705 105.057 107.14 106.34 109.092C105.256 110.205 103.96 111.088 102.529 111.691C101.097 112.294 99.5592 112.604 98.0059 112.603C96.9313 112.603 95.8617 112.456 94.8267 112.167C94.5137 112.069 94.213 111.971 93.8939 111.86C93.6975 111.787 93.5011 111.695 93.2801 111.609L92.8382 111.394C92.7622 111.362 92.6884 111.325 92.6173 111.283C92.4823 111.21 92.3473 111.136 92.2184 111.056C92.0895 110.976 91.8624 110.86 91.6967 110.749V110.755ZM101.43 99.8617C101.433 99.919 101.433 99.9763 101.43 100.034C101.43 100.107 101.431 100.162 101.394 100.224C101.369 100.351 101.336 100.476 101.295 100.598C101.282 100.644 101.265 100.689 101.246 100.733C101.216 100.807 101.185 100.887 101.148 100.96C101.116 101.036 101.079 101.11 101.038 101.181C100.993 101.264 100.944 101.344 100.89 101.421L100.731 101.642C100.449 101.996 100.101 102.291 99.7059 102.513C99.5986 102.574 99.488 102.63 99.3745 102.679L99.1229 102.783C98.9481 102.837 98.7697 102.878 98.5889 102.906C98.4921 102.927 98.3934 102.939 98.2943 102.943H98.0304C97.9282 102.949 97.8257 102.949 97.7236 102.943C97.6728 102.952 97.6208 102.952 97.5701 102.943C97.3754 102.927 97.1835 102.885 96.9994 102.82C96.7958 102.765 96.5999 102.684 96.4163 102.581L96.1954 102.489C96.136 102.457 96.0786 102.423 96.0235 102.384C95.9654 102.345 95.91 102.302 95.8578 102.255C95.7479 102.172 95.6434 102.082 95.5448 101.985C95.2225 101.663 94.967 101.28 94.7932 100.859C94.6194 100.438 94.5307 99.9861 94.5321 99.5303C94.5299 99.3244 94.5484 99.1188 94.5874 98.9166C94.5874 98.8614 94.5874 98.8123 94.5874 98.7693C94.5874 98.7263 94.6426 98.5484 94.6733 98.4502C94.6904 98.3802 94.7151 98.3123 94.747 98.2476C94.747 98.1924 94.7899 98.1433 94.8145 98.0881C94.8751 97.9495 94.947 97.8161 95.0293 97.6891C95.068 97.6229 95.111 97.5594 95.1582 97.4989C95.2344 97.3833 95.3228 97.2763 95.4221 97.1797C95.4578 97.1341 95.4968 97.091 95.5387 97.0509C95.6656 96.9228 95.8031 96.8058 95.9499 96.701L96.1156 96.5906C96.1803 96.5452 96.2479 96.5042 96.3181 96.4678C96.5143 96.3631 96.7197 96.2768 96.9318 96.21C97.1183 96.1533 97.3093 96.1122 97.5026 96.0873H97.656C97.7581 96.0779 97.8608 96.0779 97.9629 96.0873C98.2573 96.0874 98.5504 96.1266 98.8344 96.2039C98.8935 96.2189 98.951 96.2394 99.0063 96.2653C99.046 96.2661 99.0845 96.2789 99.1167 96.3021C99.1784 96.3152 99.2381 96.3358 99.2947 96.3635C99.3767 96.3952 99.4567 96.4321 99.5341 96.4739L99.7857 96.6151L100.025 96.7808C100.121 96.8516 100.213 96.9274 100.301 97.0079C100.462 97.1531 100.606 97.3157 100.731 97.4927C100.783 97.5567 100.83 97.6244 100.872 97.6953C100.928 97.7769 100.978 97.8631 101.019 97.953C101.062 98.0328 101.105 98.1126 101.142 98.1985C101.197 98.3168 101.24 98.4402 101.271 98.5668C101.299 98.6469 101.322 98.729 101.338 98.8123L101.375 99.0209C101.379 99.0884 101.379 99.156 101.375 99.2235C101.382 99.3298 101.382 99.4363 101.375 99.5426C101.399 99.6479 101.418 99.7545 101.43 99.8617ZM108.022 106.852C106.742 105.15 105.054 103.799 103.112 102.924C103.789 101.92 104.15 100.736 104.149 99.5242C104.148 98.2589 103.756 97.0249 103.027 95.991C102.297 94.9572 101.266 94.1741 100.074 93.749C99.7402 93.6266 99.3948 93.5382 99.0431 93.4851C98.7035 93.4181 98.3581 93.3852 98.012 93.3869C97.7911 93.3869 97.5824 93.3869 97.3983 93.3869C96.4245 93.4944 95.4903 93.8321 94.6728 94.3721C93.8553 94.9121 93.1781 95.6389 92.6971 96.4924C92.557 96.7478 92.434 97.0123 92.3288 97.2841C92.0577 97.987 91.9183 98.7339 91.9176 99.4874C91.9114 99.5916 91.9114 99.6961 91.9176 99.8004C91.9173 100.427 92.021 101.049 92.2245 101.642C92.3803 102.097 92.5993 102.529 92.8751 102.924C91.4391 103.567 90.1345 104.47 89.027 105.588C88.6367 105.986 88.2719 106.408 87.9345 106.852C87.8319 106.685 87.7377 106.513 87.6522 106.337C86.9329 104.951 86.5047 103.432 86.3941 101.875C86.3941 101.586 86.3572 101.261 86.3572 100.973C86.3564 100.583 86.3769 100.194 86.4186 99.8065C86.5764 98.3042 87.0202 96.846 87.7259 95.5104C89.0552 93.0331 91.2347 91.1194 93.8632 90.1218C95.1774 89.6169 96.5735 89.3589 97.9813 89.3608C98.3255 89.3565 98.6697 89.3708 99.0124 89.4037C99.3589 89.4309 99.7033 89.4801 100.043 89.551C101.888 89.8786 103.626 90.6477 105.109 91.7925C106.592 92.9373 107.776 94.424 108.559 96.1255C109.343 97.827 109.704 99.693 109.61 101.564C109.517 103.435 108.972 105.256 108.022 106.871V106.852Z" fill="#1C2D6B"/>
<path d="M101.43 99.524C101.436 99.6364 101.436 99.7491 101.43 99.8615C101.433 99.9188 101.433 99.9761 101.43 100.033C101.43 100.107 101.43 100.162 101.393 100.224C101.368 100.35 101.335 100.475 101.295 100.598C101.281 100.644 101.265 100.689 101.246 100.733C101.215 100.807 101.184 100.886 101.147 100.96C101.116 101.036 101.079 101.11 101.037 101.181C100.992 101.264 100.943 101.343 100.89 101.42L100.73 101.641C100.448 101.995 100.1 102.291 99.7052 102.513C99.5979 102.574 99.4872 102.63 99.3738 102.679L99.1221 102.783C98.9474 102.837 98.7689 102.878 98.5882 102.906C98.4913 102.927 98.3927 102.939 98.2936 102.942H98.0297C97.9275 102.949 97.825 102.949 97.7228 102.942C97.6721 102.952 97.6201 102.952 97.5694 102.942C97.1663 102.891 96.7756 102.769 96.4156 102.58L96.1946 102.488C96.1352 102.457 96.0778 102.422 96.0228 102.384C95.9647 102.345 95.9093 102.302 95.8571 102.255C95.7472 102.172 95.6427 102.082 95.5441 101.985C95.2217 101.663 94.9663 101.28 94.7925 100.859C94.6187 100.437 94.53 99.9859 94.5314 99.5301C94.5292 99.3242 94.5477 99.1186 94.5867 98.9164C94.5867 98.8612 94.5867 98.8121 94.5867 98.7691C94.5867 98.7261 94.6419 98.5482 94.6726 98.45C94.6897 98.38 94.7144 98.3121 94.7462 98.2474C94.7462 98.1922 94.7892 98.1431 94.8137 98.0879C94.8744 97.9493 94.9463 97.8159 95.0286 97.6889C95.0672 97.6227 95.1103 97.5592 95.1574 97.4987C95.2336 97.3831 95.3221 97.2761 95.4213 97.1795C95.4571 97.1339 95.4961 97.0908 95.5379 97.0507C95.6648 96.9226 95.8024 96.8056 95.9491 96.7008L96.1149 96.5904C96.1796 96.545 96.2472 96.504 96.3174 96.4676C96.5136 96.3629 96.719 96.2766 96.9311 96.2098C97.1176 96.1531 97.3085 96.112 97.5019 96.0871H97.6553C97.7574 96.0777 97.8601 96.0777 97.9622 96.0871C98.2566 96.0872 98.5496 96.1264 98.8337 96.2037C98.8928 96.2187 98.9503 96.2392 99.0055 96.2651C99.0452 96.2659 99.0838 96.2787 99.116 96.3019C99.1776 96.315 99.2374 96.3356 99.294 96.3633C99.376 96.395 99.456 96.4319 99.5333 96.4737L99.785 96.6149L100.024 96.7806C100.12 96.8514 100.213 96.9272 100.301 97.0077C100.461 97.1529 100.605 97.3155 100.73 97.4925C100.782 97.5565 100.829 97.6242 100.871 97.6951C100.928 97.7767 100.977 97.8629 101.019 97.9528C101.062 98.0326 101.104 98.1124 101.141 98.1983C101.196 98.3166 101.239 98.44 101.27 98.5666C101.298 98.6467 101.321 98.7288 101.338 98.8121L101.375 99.0207C101.378 99.0882 101.378 99.1558 101.375 99.2233C101.399 99.3224 101.417 99.4228 101.43 99.524Z" fill="#6287C5"/>
<path d="M109.626 100.966C109.627 103.036 109.074 105.068 108.024 106.852C106.745 105.15 105.056 103.799 103.114 102.924C103.791 101.919 104.152 100.735 104.151 99.524C104.15 98.2587 103.758 97.0247 103.029 95.9909C102.299 94.957 101.268 94.1739 100.076 93.7488C99.7424 93.6264 99.3969 93.538 99.0452 93.4849C98.7057 93.4179 98.3603 93.385 98.0142 93.3867C97.7932 93.3867 97.5846 93.3867 97.4004 93.3867C96.4266 93.4942 95.4924 93.8319 94.675 94.3719C93.8575 94.9119 93.1803 95.6387 92.6992 96.4922C92.5592 96.7477 92.4361 97.0121 92.331 97.2839C92.0599 97.9869 91.9205 98.7337 91.9198 99.4872C91.9136 99.5914 91.9136 99.696 91.9198 99.8002C91.9195 100.427 92.0232 101.049 92.2267 101.641C92.3825 102.097 92.6014 102.529 92.8772 102.924C91.4413 103.567 90.1366 104.47 89.0291 105.588C88.6389 105.986 88.274 106.408 87.9367 106.852C87.834 106.685 87.7398 106.513 87.6544 106.336C86.935 104.951 86.5069 103.432 86.3962 101.875C86.3962 101.586 86.3594 101.261 86.3594 100.972C86.3586 100.583 86.3791 100.194 86.4208 99.8063C86.5786 98.304 87.0223 96.8458 87.728 95.5102C89.0573 93.0329 91.2369 91.1193 93.8653 90.1216C95.1795 89.6167 96.5756 89.3587 97.9835 89.3606C98.3277 89.3563 98.6719 89.3706 99.0146 89.4036C99.361 89.4307 99.7054 89.4799 100.046 89.5509C102.724 90.0365 105.148 91.4436 106.897 93.5284C108.647 95.6133 109.612 98.2445 109.626 100.966Z" fill="#B9CBEA"/>
<path d="M98.9314 105.557C98.7082 106.135 98.4457 106.697 98.1458 107.239C98.0538 107.41 97.9433 107.588 97.8328 107.754C97.7224 107.92 97.5505 108.196 97.4032 108.405C97.3053 108.561 97.1967 108.711 97.0779 108.853C96.9184 109.055 96.7649 109.252 96.5931 109.466C96.4213 109.681 96.2617 109.841 96.0837 110.025C95.9057 110.209 95.7461 110.369 95.5682 110.522C95.2674 110.804 94.9544 111.068 94.6169 111.326C94.4803 111.439 94.3368 111.544 94.1873 111.639C94.0829 111.719 93.9663 111.792 93.862 111.86L93.2483 111.608L92.8371 111.394C92.761 111.362 92.6872 111.325 92.6161 111.283C92.4811 111.209 92.3461 111.136 92.2172 111.056C92.0883 110.976 91.8674 110.86 91.7017 110.749C91.5359 110.639 91.5237 110.633 91.4377 110.565C91.1785 110.399 90.9304 110.217 90.6951 110.019L90.5049 109.853C90.2115 109.61 89.9309 109.352 89.6641 109.08C90.3041 108.074 91.1213 107.192 92.076 106.478L92.4074 106.244C92.5829 106.118 92.7653 106.001 92.9537 105.895C93.4744 105.577 94.0253 105.312 94.5985 105.103L95.1263 104.925C95.2015 104.969 95.2794 105.007 95.3595 105.041C95.4364 105.088 95.5189 105.125 95.605 105.152L95.8505 105.25L96.1696 105.367C96.7654 105.553 97.3867 105.644 98.0108 105.637H98.2502C98.3237 105.643 98.3976 105.643 98.4711 105.637H98.6368C98.7165 105.643 98.7965 105.643 98.8762 105.637L98.9314 105.557Z" fill="#89AADB"/>
</svg>
