<svg width="125" height="125" viewBox="0 0 125 125" fill="none" xmlns="http://www.w3.org/2000/svg">
<g clip-path="url(#clip0)">
<path d="M79.2552 101.839C79.2552 98.1839 79.8684 94.981 80.7883 93.1951C80.1802 91.6451 79.7915 89.2762 79.7915 86.62C79.7915 81.9505 80.9925 78.165 82.4741 78.165C77.8047 78.165 74.0192 81.9505 74.0192 86.62C74.0192 89.2762 75.2452 91.6451 77.1608 93.1951C74.2617 94.981 72.3281 98.1835 72.3281 101.839V103.53V106.912H79.2552V103.53V101.839Z" fill="#89AADB"/>
<path d="M87.7665 93.1951C89.6821 91.6451 90.908 89.2762 90.908 86.62C90.908 81.9505 87.1226 78.165 82.4531 78.165C83.9348 78.165 85.1357 81.9505 85.1357 86.62C85.1357 89.2762 84.7466 91.6451 84.139 93.1951C85.0588 94.981 85.6721 98.1835 85.6721 101.839V103.53V106.912H92.5991V103.53V101.839C92.5991 98.1835 90.6656 94.981 87.7665 93.1951Z" fill="#4B67B0"/>
<path d="M85.6723 101.839C85.6723 98.1839 85.059 94.981 84.1392 93.1951C84.7472 91.6451 85.1359 89.2762 85.1359 86.62C85.1359 81.9505 83.935 78.165 82.4533 78.165C80.9717 78.165 79.7707 81.9505 79.7707 86.62C79.7707 89.2762 80.1599 91.6451 80.7674 93.1951C79.8476 94.981 79.2344 98.1835 79.2344 101.839V103.53V106.912H85.6723V103.53V101.839Z" fill="#6287C5"/>
<path d="M82.4599 96.4906C77.0178 96.4906 72.5898 92.0631 72.5898 86.6205C72.5898 81.178 77.0178 76.7505 82.4599 76.7505C87.902 76.7505 92.3299 81.178 92.3299 86.6205C92.3299 92.0631 87.902 96.4906 82.4599 96.4906ZM82.4599 79.5807C78.5782 79.5807 75.4201 82.7388 75.4201 86.6205C75.4201 90.5022 78.5777 93.6603 82.4599 93.6603C86.3421 93.6603 89.4997 90.5022 89.4997 86.6205C89.4997 82.7388 86.3416 79.5807 82.4599 79.5807Z" fill="#1C2D6B"/>
<path d="M92.6056 108.326H72.3136C71.5319 108.326 70.8984 107.692 70.8984 106.911V101.838C70.8984 97.795 72.9565 94.1133 76.4042 91.9897C76.9142 91.6755 77.5694 91.7161 78.0363 92.0944C79.3019 93.118 80.8312 93.659 82.4596 93.659C84.0879 93.659 85.6172 93.118 86.8828 92.0944C87.3498 91.7161 88.0045 91.675 88.5149 91.9897C91.9626 94.1133 94.0207 97.795 94.0207 101.838V106.911C94.0207 107.692 93.3872 108.326 92.6056 108.326ZM73.7287 105.496H91.1905V101.838C91.1905 99.095 89.9352 96.5714 87.7913 94.9237C86.2087 95.9388 84.3511 96.4893 82.4596 96.4893C80.568 96.4893 78.7109 95.9388 77.1278 94.9237C74.9839 96.5714 73.7287 99.0946 73.7287 101.838V105.496Z" fill="#1C2D6B"/>
<path d="M77.7587 107.94V103.83C77.7587 103.264 78.2177 102.805 78.7837 102.805H71.0585C70.1137 102.805 69.3477 103.571 69.3477 104.516V107.254C69.3477 108.199 70.1137 108.965 71.0585 108.965H78.7837C78.2177 108.965 77.7587 108.506 77.7587 107.94Z" fill="#EDE49D"/>
<path d="M93.8697 102.805H86.1445C86.7106 102.805 87.1696 103.264 87.1696 103.83V107.94C87.1696 108.506 86.7106 108.965 86.1445 108.965H93.8697C94.8146 108.965 95.5806 108.199 95.5806 107.254V104.517C95.5806 103.571 94.8146 102.805 93.8697 102.805Z" fill="#D3BA2A"/>
<path d="M87.1639 107.94V103.83C87.1639 103.264 86.7049 102.805 86.1389 102.805H78.775C78.209 102.805 77.75 103.264 77.75 103.83V107.94C77.75 108.506 78.209 108.965 78.775 108.965H86.1389C86.7049 108.965 87.1639 108.506 87.1639 107.94Z" fill="#EEE045"/>
<path d="M93.8704 110.38H71.0562C69.3325 110.38 67.9297 108.978 67.9297 107.254V104.517C67.9297 102.793 69.3325 101.391 71.0562 101.391H93.8704C95.594 101.391 96.9969 102.793 96.9969 104.517V107.254C96.9969 108.978 95.594 110.38 93.8704 110.38ZM71.0557 104.22C70.892 104.22 70.7595 104.353 70.7595 104.516V107.254C70.7595 107.417 70.892 107.55 71.0557 107.55H93.8699C94.0336 107.55 94.1662 107.417 94.1662 107.254V104.516C94.1662 104.353 94.0336 104.22 93.8699 104.22H71.0557Z" fill="#1C2D6B"/>
<path d="M45.2864 101.839C45.2864 98.1839 45.8997 94.981 46.8195 93.1951C46.2115 91.6451 45.8228 89.2762 45.8228 86.62C45.8228 81.9505 47.0237 78.165 48.5054 78.165C43.8359 78.165 40.0505 81.9505 40.0505 86.62C40.0505 89.2762 41.2764 91.6451 43.192 93.1951C40.2929 94.981 38.3594 98.1835 38.3594 101.839V103.53V106.912H45.2864V103.53V101.839Z" fill="#A4D4A0"/>
<path d="M53.8055 93.1951C55.7211 91.6451 56.9471 89.2762 56.9471 86.62C56.9471 81.9505 53.1616 78.165 48.4922 78.165C49.9738 78.165 51.1748 81.9505 51.1748 86.62C51.1748 89.2762 50.7856 91.6451 50.1781 93.1951C51.0979 94.981 51.7111 98.1835 51.7111 101.839V103.53V106.912H58.6382V103.53V101.839C58.6382 98.1835 56.7046 94.981 53.8055 93.1951Z" fill="#419B46"/>
<path d="M51.7074 101.839C51.7074 98.1839 51.0942 94.981 50.1744 93.1951C50.7824 91.6451 51.1711 89.2762 51.1711 86.62C51.1711 81.9505 49.9701 78.165 48.4885 78.165C47.0068 78.165 45.8059 81.9505 45.8059 86.62C45.8059 89.2762 46.195 91.6451 46.8026 93.1951C45.8828 94.981 45.2695 98.1835 45.2695 101.839V103.53V106.912H51.7074V103.53V101.839Z" fill="#65BC49"/>
<path d="M48.4951 96.4906C43.0529 96.4906 38.625 92.0631 38.625 86.6205C38.625 81.178 43.0529 76.7505 48.4951 76.7505C53.9372 76.7505 58.3651 81.178 58.3651 86.6205C58.3651 92.0631 53.9372 96.4906 48.4951 96.4906ZM48.4951 79.5807C44.6134 79.5807 41.4553 82.7388 41.4553 86.6205C41.4553 90.5022 44.6129 93.6603 48.4951 93.6603C52.3772 93.6603 55.5348 90.5022 55.5348 86.6205C55.5348 82.7388 52.3768 79.5807 48.4951 79.5807Z" fill="#1C2D6B"/>
<path d="M58.6407 108.326H38.3487C37.5671 108.326 36.9336 107.692 36.9336 106.911V101.838C36.9336 97.795 38.9917 94.1133 42.4394 91.9897C42.9498 91.6755 43.6045 91.7161 44.0715 92.0944C45.3371 93.118 46.8664 93.659 48.4947 93.659C50.1231 93.659 51.6524 93.118 52.918 92.0944C53.385 91.7161 54.0402 91.675 54.5501 91.9897C57.9978 94.1133 60.0559 97.795 60.0559 101.838V106.911C60.0559 107.692 59.4224 108.326 58.6407 108.326ZM39.7639 105.496H57.2256V101.838C57.2256 99.095 55.9704 96.5714 53.8265 94.9237C52.2439 95.9388 50.3863 96.4893 48.4947 96.4893C46.6032 96.4893 44.7461 95.9388 43.163 94.9237C41.0191 96.5714 39.7639 99.0946 39.7639 101.838V105.496Z" fill="#1C2D6B"/>
<path d="M43.7861 107.94V103.83C43.7861 103.264 44.245 102.805 44.8111 102.805H37.0859C36.1411 102.805 35.375 103.571 35.375 104.516V107.254C35.375 108.199 36.1411 108.965 37.0859 108.965H44.8111C44.245 108.965 43.7861 108.506 43.7861 107.94Z" fill="#EDE49D"/>
<path d="M59.8971 102.805H52.1719C52.7379 102.805 53.1969 103.264 53.1969 103.83V107.94C53.1969 108.506 52.7379 108.965 52.1719 108.965H59.8971C60.8419 108.965 61.608 108.199 61.608 107.254V104.517C61.608 103.571 60.8419 102.805 59.8971 102.805Z" fill="#D3BA2A"/>
<path d="M53.1952 107.94V103.83C53.1952 103.264 52.7362 102.805 52.1701 102.805H44.8063C44.2402 102.805 43.7812 103.264 43.7812 103.83V107.94C43.7812 108.506 44.2402 108.965 44.8063 108.965H52.1701C52.7362 108.965 53.1952 108.506 53.1952 107.94Z" fill="#EEE045"/>
<path d="M59.9056 110.38H37.0913C35.3677 110.38 33.9648 108.978 33.9648 107.254V104.517C33.9648 102.793 35.3677 101.391 37.0913 101.391H59.9056C61.6292 101.391 63.0321 102.793 63.0321 104.517V107.254C63.0321 108.978 61.6292 110.38 59.9056 110.38ZM37.0909 104.22C36.9272 104.22 36.7946 104.353 36.7946 104.516V107.254C36.7946 107.417 36.9272 107.55 37.0909 107.55H59.9051C60.0688 107.55 60.2013 107.417 60.2013 107.254V104.516C60.2013 104.353 60.0688 104.22 59.9051 104.22H37.0909Z" fill="#1C2D6B"/>
<path d="M11.3216 101.839C11.3216 98.1839 11.9348 94.981 12.8546 93.1951C12.2466 91.6451 11.8579 89.2762 11.8579 86.62C11.8579 81.9505 13.0589 78.165 14.5405 78.165C9.87108 78.165 6.08561 81.9505 6.08561 86.62C6.08561 89.2762 7.31159 91.6451 9.2272 93.1951C6.32807 94.981 4.39453 98.1835 4.39453 101.839V103.53V106.912H11.3216V103.53V101.839Z" fill="#89AADB"/>
<path d="M19.8407 93.1951C21.7563 91.6451 22.9823 89.2762 22.9823 86.62C22.9823 81.9505 19.1968 78.165 14.5273 78.165C16.009 78.165 17.21 81.9505 17.21 86.62C17.21 89.2762 16.8208 91.6451 16.2132 93.1951C17.1331 94.981 17.7463 98.1835 17.7463 101.839V103.53V106.912H24.6734V103.53V101.839C24.6734 98.1835 22.7398 94.981 19.8407 93.1951Z" fill="#4B67B0"/>
<path d="M17.7543 101.839C17.7543 98.1839 17.1411 94.981 16.2212 93.1951C16.8293 91.6451 17.218 89.2762 17.218 86.62C17.218 81.9505 16.017 78.165 14.5354 78.165C13.0537 78.165 11.8527 81.9505 11.8527 86.62C11.8527 89.2762 12.2419 91.6451 12.8495 93.1951C11.9296 94.981 11.3164 98.1835 11.3164 101.839V103.53V106.912H17.7543V103.53V101.839Z" fill="#6287C5"/>
<path d="M14.5341 96.4906C9.092 96.4906 4.66406 92.0631 4.66406 86.6205C4.66406 81.178 9.092 76.7505 14.5341 76.7505C19.9762 76.7505 24.4042 81.178 24.4042 86.6205C24.4042 92.0631 19.9762 96.4906 14.5341 96.4906ZM14.5341 79.5807C10.6524 79.5807 7.49432 82.7388 7.49432 86.6205C7.49432 90.5022 10.6519 93.6603 14.5341 93.6603C18.4163 93.6603 21.5739 90.5022 21.5739 86.6205C21.5739 82.7388 18.4158 79.5807 14.5341 79.5807Z" fill="#1C2D6B"/>
<path d="M24.6681 108.326H4.37607C3.59444 108.326 2.96094 107.692 2.96094 106.911V101.838C2.96094 97.795 5.01901 94.1133 8.46673 91.9897C8.97712 91.6755 9.63185 91.7161 10.0988 92.0944C11.3644 93.118 12.8937 93.659 14.5221 93.659C16.1504 93.659 17.6797 93.118 18.9453 92.0944C19.4123 91.7161 20.067 91.675 20.5774 91.9897C24.0251 94.1133 26.0832 97.795 26.0832 101.838V106.911C26.0832 107.692 25.4497 108.326 24.6681 108.326ZM5.79119 105.496H23.2529V101.838C23.2529 99.095 21.9977 96.5714 19.8538 94.9237C18.2712 95.9388 16.4136 96.4893 14.5221 96.4893C12.6305 96.4893 10.7734 95.9388 9.19033 94.9237C7.04641 96.5714 5.79119 99.0946 5.79119 101.838V105.496Z" fill="#1C2D6B"/>
<path d="M9.82122 107.94V103.83C9.82122 103.264 10.2802 102.805 10.8462 102.805H3.12105C2.17621 102.805 1.41016 103.571 1.41016 104.516V107.254C1.41016 108.199 2.17621 108.965 3.12105 108.965H10.8462C10.2802 108.965 9.82122 108.506 9.82122 107.94Z" fill="#EDE49D"/>
<path d="M25.9361 102.805H18.2109C18.777 102.805 19.236 103.264 19.236 103.83V107.94C19.236 108.506 18.777 108.965 18.2109 108.965H25.9361C26.881 108.965 27.647 108.199 27.647 107.254V104.517C27.647 103.571 26.881 102.805 25.9361 102.805Z" fill="#D3BA2A"/>
<path d="M19.2347 107.94V103.83C19.2347 103.264 18.7757 102.805 18.2097 102.805H10.8453C10.2793 102.805 9.82031 103.264 9.82031 103.83V107.94C9.82031 108.506 10.2793 108.965 10.8453 108.965H18.2092C18.7757 108.965 19.2347 108.506 19.2347 107.94Z" fill="#EEE045"/>
<path d="M25.9412 110.38H3.12649C1.40287 110.38 0 108.978 0 107.254V104.517C0 102.793 1.40287 101.391 3.12649 101.391H25.9407C27.6644 101.391 29.0672 102.793 29.0672 104.517V107.254C29.0677 108.978 27.6648 110.38 25.9412 110.38ZM3.12649 104.22C2.96281 104.22 2.83026 104.353 2.83026 104.516V107.254C2.83026 107.417 2.96281 107.55 3.12649 107.55H25.9407C26.1044 107.55 26.237 107.417 26.237 107.254V104.516C26.237 104.353 26.1044 104.22 25.9407 104.22H3.12649Z" fill="#1C2D6B"/>
<path d="M62.2708 67.5409C62.2708 63.8861 62.884 60.6832 63.8039 58.8973C63.1958 57.3472 62.8071 54.9783 62.8071 52.3221C62.8071 47.6527 64.0081 43.8672 65.4898 43.8672C60.8203 43.8672 57.0348 47.6527 57.0348 52.3221C57.0348 54.9783 58.2608 57.3472 60.1764 58.8973C57.2773 60.6832 55.3438 63.8856 55.3438 67.5409V69.232V72.6141H62.2708V69.232V67.5409Z" fill="#89AADB"/>
<path d="M70.786 58.8973C72.7016 57.3472 73.9276 54.9783 73.9276 52.3221C73.9276 47.6527 70.1421 43.8672 65.4727 43.8672C66.9543 43.8672 68.1553 47.6527 68.1553 52.3221C68.1553 54.9783 67.7661 57.3472 67.1585 58.8973C68.0784 60.6832 68.6916 63.8856 68.6916 67.5409V69.232V72.6141H75.6187V69.232V67.5409C75.6187 63.8856 73.6851 60.6832 70.786 58.8973Z" fill="#4B67B0"/>
<path d="M68.6879 67.5409C68.6879 63.8861 68.0747 60.6832 67.1548 58.8973C67.7629 57.3472 68.1515 54.9783 68.1515 52.3221C68.1515 47.6527 66.9506 43.8672 65.4689 43.8672C63.9873 43.8672 62.7863 47.6527 62.7863 52.3221C62.7863 54.9783 63.1755 57.3472 63.7831 58.8973C62.8632 60.6832 62.25 63.8856 62.25 67.5409V69.232V72.6141H68.6879V69.232V67.5409Z" fill="#6287C5"/>
<path d="M65.4794 62.1928C60.0373 62.1928 55.6094 57.7653 55.6094 52.3227C55.6094 46.8801 60.0373 42.4526 65.4794 42.4526C70.9215 42.4526 75.3495 46.8801 75.3495 52.3227C75.3495 57.7653 70.9215 62.1928 65.4794 62.1928ZM65.4794 45.2829C61.5977 45.2829 58.4396 48.441 58.4396 52.3227C58.4396 56.2044 61.5973 59.3625 65.4794 59.3625C69.3616 59.3625 72.5192 56.2044 72.5192 52.3227C72.5192 48.441 69.3611 45.2829 65.4794 45.2829Z" fill="#1C2D6B"/>
<path d="M75.6173 74.0302H55.3253C54.5437 74.0302 53.9102 73.3967 53.9102 72.6151V67.5423C53.9102 63.4988 55.9682 59.8176 59.416 57.694C59.9263 57.3793 60.5811 57.4204 61.0481 57.7987C62.3137 58.8223 63.843 59.3633 65.4713 59.3633C67.0996 59.3633 68.6289 58.8223 69.8945 57.7987C70.362 57.4204 71.0162 57.3789 71.5266 57.694C74.9744 59.8176 77.0324 63.4993 77.0324 67.5423V72.6151C77.0324 73.3967 76.3989 74.0302 75.6173 74.0302ZM56.7404 71.1999H74.2022V67.5423C74.2022 64.7988 72.947 62.2757 70.803 60.628C69.2204 61.6431 67.3629 62.1936 65.4713 62.1936C63.5797 62.1936 61.7226 61.6431 60.1396 60.628C57.9956 62.2757 56.7404 64.7988 56.7404 67.5423V71.1999Z" fill="#1C2D6B"/>
<path d="M60.7782 73.6428V69.5328C60.7782 68.9668 61.2372 68.5078 61.8033 68.5078H54.0781C53.1332 68.5078 52.3672 69.2739 52.3672 70.2187V72.9565C52.3672 73.9013 53.1332 74.6674 54.0781 74.6674H61.8033C61.2372 74.6679 60.7782 74.2089 60.7782 73.6428Z" fill="#EDE49D"/>
<path d="M76.8854 68.5078H69.1602C69.7262 68.5078 70.1852 68.9668 70.1852 69.5328V73.6428C70.1852 74.2089 69.7262 74.6679 69.1602 74.6679H76.8854C77.8302 74.6679 78.5962 73.9018 78.5962 72.957V70.2192C78.5962 69.2739 77.8302 68.5078 76.8854 68.5078Z" fill="#D3BA2A"/>
<path d="M70.1795 73.6428V69.5328C70.1795 68.9668 69.7206 68.5078 69.1545 68.5078H61.7907C61.2246 68.5078 60.7656 68.9668 60.7656 69.5328V73.6428C60.7656 74.2089 61.2246 74.6679 61.7907 74.6679H69.1545C69.7206 74.6679 70.1795 74.2089 70.1795 73.6428Z" fill="#EEE045"/>
<path d="M76.886 76.0836H54.0718C52.3482 76.0836 50.9453 74.6812 50.9453 72.9576V70.2198C50.9453 68.4962 52.3482 67.0938 54.0718 67.0938H76.886C78.6097 67.0938 80.0125 68.4962 80.0125 70.2198V72.9576C80.0125 74.6812 78.6097 76.0836 76.886 76.0836ZM54.0713 69.9235C53.9076 69.9235 53.7751 70.0561 53.7751 70.2193V72.9571C53.7751 73.1203 53.9076 73.2529 54.0713 73.2529H76.8856C77.0493 73.2529 77.1818 73.1203 77.1818 72.9571V70.2193C77.1818 70.0561 77.0493 69.9235 76.8856 69.9235H54.0713Z" fill="#1C2D6B"/>
<path d="M28.3021 67.5409C28.3021 63.8861 28.9153 60.6832 29.8351 58.8973C29.2271 57.3472 28.8384 54.9783 28.8384 52.3221C28.8384 47.6527 30.0394 43.8672 31.521 43.8672C26.8516 43.8672 23.0661 47.6527 23.0661 52.3221C23.0661 54.9783 24.2921 57.3472 26.2077 58.8973C23.3085 60.6832 21.375 63.8856 21.375 67.5409V69.232V72.6141H28.3021V69.232V67.5409Z" fill="#A4D4A0"/>
<path d="M36.8212 58.8973C38.7368 57.3472 39.9627 54.9783 39.9627 52.3221C39.9627 47.6527 36.1773 43.8672 31.5078 43.8672C32.9895 43.8672 34.1904 47.6527 34.1904 52.3221C34.1904 54.9783 33.8013 57.3472 33.1937 58.8973C34.1135 60.6832 34.7268 63.8856 34.7268 67.5409V69.232V72.6141H41.6538V69.232V67.5409C41.6538 63.8856 39.7203 60.6832 36.8212 58.8973Z" fill="#419B46"/>
<path d="M34.7231 67.5409C34.7231 63.8861 34.1098 60.6832 33.19 58.8973C33.798 57.3472 34.1867 54.9783 34.1867 52.3221C34.1867 47.6527 32.9858 43.8672 31.5041 43.8672C30.0225 43.8672 28.8215 47.6527 28.8215 52.3221C28.8215 54.9783 29.2107 57.3472 29.8182 58.8973C28.8984 60.6832 28.2852 63.8856 28.2852 67.5409V69.232V72.6141H34.7231V69.232V67.5409Z" fill="#65BC49"/>
<path d="M31.5146 62.1928C26.0725 62.1928 21.6445 57.7653 21.6445 52.3227C21.6445 46.8801 26.0725 42.4526 31.5146 42.4526C36.9567 42.4526 41.3846 46.8801 41.3846 52.3227C41.3846 57.7653 36.9567 62.1928 31.5146 62.1928ZM31.5146 45.2829C27.6329 45.2829 24.4748 48.441 24.4748 52.3227C24.4748 56.2044 27.6324 59.3625 31.5146 59.3625C35.3968 59.3625 38.5544 56.2044 38.5544 52.3227C38.5544 48.441 35.3963 45.2829 31.5146 45.2829Z" fill="#1C2D6B"/>
<path d="M41.6603 74.0302H21.3683C20.5866 74.0302 19.9531 73.3967 19.9531 72.6151V67.5423C19.9531 63.4988 22.0112 59.8176 25.4589 57.694C25.9688 57.3793 26.624 57.4204 27.091 57.7987C28.3566 58.8223 29.8859 59.3633 31.5143 59.3633C33.1426 59.3633 34.6719 58.8223 35.9375 57.7987C36.404 57.4204 37.0592 57.3789 37.5696 57.694C41.0173 59.8176 43.0754 63.4993 43.0754 67.5423V72.6151C43.0754 73.3967 42.4419 74.0302 41.6603 74.0302ZM22.7834 71.1999H40.2451V67.5423C40.2451 64.7988 38.9899 62.2757 36.846 60.628C35.2634 61.6431 33.4058 62.1936 31.5143 62.1936C29.6227 62.1936 27.7656 61.6431 26.1825 60.628C24.0386 62.2757 22.7834 64.7988 22.7834 67.5423V71.1999Z" fill="#1C2D6B"/>
<path d="M26.8056 73.6428V69.5328C26.8056 68.9668 27.2646 68.5078 27.8306 68.5078H20.1054C19.1606 68.5078 18.3945 69.2739 18.3945 70.2187V72.9565C18.3945 73.9013 19.1606 74.6674 20.1054 74.6674H27.8306C27.2646 74.6679 26.8056 74.2089 26.8056 73.6428Z" fill="#EDE49D"/>
<path d="M42.9205 68.5078H35.1953C35.7614 68.5078 36.2203 68.9668 36.2203 69.5328V73.6428C36.2203 74.2089 35.7614 74.6679 35.1953 74.6679H42.9205C43.8653 74.6679 44.6314 73.9018 44.6314 72.957V70.2192C44.6314 69.2739 43.8653 68.5078 42.9205 68.5078Z" fill="#D3BA2A"/>
<path d="M36.2191 73.6428V69.5328C36.2191 68.9668 35.7601 68.5078 35.194 68.5078H27.8297C27.2637 68.5078 26.8047 68.9668 26.8047 69.5328V73.6428C26.8047 74.2089 27.2637 74.6679 27.8297 74.6679H35.1936C35.7601 74.6679 36.2191 74.2089 36.2191 73.6428Z" fill="#EEE045"/>
<path d="M42.9295 76.0836H20.1148C18.3911 76.0836 16.9883 74.6812 16.9883 72.9576V70.2198C16.9883 68.4962 18.3911 67.0938 20.1148 67.0938H42.929C44.6526 67.0938 46.0555 68.4962 46.0555 70.2198V72.9576C46.056 74.6812 44.6531 76.0836 42.9295 76.0836ZM20.1148 69.9235C19.9511 69.9235 19.8185 70.0561 19.8185 70.2193V72.9571C19.8185 73.1203 19.9511 73.2529 20.1148 73.2529H42.929C43.0927 73.2529 43.2253 73.1203 43.2253 72.9571V70.2193C43.2253 70.0561 43.0927 69.9235 42.929 69.9235H20.1148Z" fill="#1C2D6B"/>
<path d="M45.2864 25.0883C45.2864 21.4334 45.8997 18.2305 46.8195 16.4446C46.2115 14.8946 45.8228 12.5257 45.8228 9.86948C45.8228 5.20002 47.0237 1.41455 48.5054 1.41455C43.8359 1.41455 40.0505 5.20002 40.0505 9.86948C40.0505 12.5257 41.2764 14.8946 43.192 16.4446C40.2929 18.2305 38.3594 21.433 38.3594 25.0883V26.7793V38.2079H45.2864V26.7793V25.0883Z" fill="#EF7F72"/>
<path d="M53.8055 16.4446C55.7211 14.8946 56.9471 12.5257 56.9471 9.86948C56.9471 5.20002 53.1616 1.41455 48.4922 1.41455C49.9738 1.41455 51.1748 5.20002 51.1748 9.86948C51.1748 12.5257 50.7856 14.8946 50.1781 16.4446C51.0979 18.2305 51.7111 21.433 51.7111 25.0883V26.7793V38.2079H58.6382V26.7793V25.0883C58.6382 21.433 56.7047 18.2305 53.8055 16.4446Z" fill="#E8383B"/>
<path d="M51.7074 25.0883C51.7074 21.4334 51.0942 18.2305 50.1744 16.4446C50.7824 14.8946 51.1711 12.5257 51.1711 9.86948C51.1711 5.20002 49.9701 1.41455 48.4885 1.41455C47.0068 1.41455 45.8059 5.20002 45.8059 9.86948C45.8059 12.5257 46.195 14.8946 46.8026 16.4446C45.8828 18.2305 45.2695 21.433 45.2695 25.0883V26.7793V38.2079H51.7074V26.7793V25.0883Z" fill="#E95947"/>
<path d="M48.5029 19.7401C43.0608 19.7401 38.6328 15.3126 38.6328 9.87005C38.6328 4.42747 43.0608 0 48.5029 0C53.945 0 58.3729 4.42747 58.3729 9.87005C58.3729 15.3126 53.945 19.7401 48.5029 19.7401ZM48.5029 2.83026C44.6212 2.83026 41.4631 5.98835 41.4631 9.87005C41.4631 13.7518 44.6207 16.9099 48.5029 16.9099C52.385 16.9099 55.5427 13.7518 55.5427 9.87005C55.5427 5.98835 52.3846 2.83026 48.5029 2.83026Z" fill="#1C2D6B"/>
<path d="M58.6407 39.6235H38.3487C37.5671 39.6235 36.9336 38.99 36.9336 38.2084V25.0887C36.9336 21.0452 38.9917 17.364 42.4394 15.2403C42.9498 14.9262 43.605 14.9668 44.0715 15.3451C45.3371 16.3687 46.8664 16.9097 48.4947 16.9097C50.1231 16.9097 51.6524 16.3687 52.9179 15.3451C53.3849 14.9668 54.0401 14.9252 54.5501 15.2403C57.9978 17.364 60.0559 21.0457 60.0559 25.0887V38.2084C60.0559 38.99 59.4224 39.6235 58.6407 39.6235ZM39.7639 36.7932H57.2256V25.0887C57.2256 22.3452 55.9704 19.8221 53.8265 18.1744C52.2439 19.1895 50.3863 19.74 48.4947 19.74C46.6032 19.74 44.7461 19.1895 43.163 18.1744C41.0191 19.8221 39.7639 22.3452 39.7639 25.0887V36.7932Z" fill="#1C2D6B"/>
<path d="M49.4934 18.3955H47.4777C46.7126 18.3955 46.2654 19.2587 46.7074 19.8838L47.9787 21.6819C48.2094 22.0083 48.2094 22.4447 47.9787 22.7711L45.9621 25.623C45.7716 25.8924 45.7357 26.2419 45.8678 26.5448L47.6202 30.5637C47.9494 31.3189 49.0202 31.3189 49.3495 30.5637L51.1028 26.5448C51.2349 26.2419 51.1991 25.8924 51.0085 25.623L48.9919 22.7711C48.7613 22.4447 48.7613 22.0083 48.9919 21.6819L50.2632 19.8838C50.7056 19.2587 50.2589 18.3955 49.4934 18.3955Z" fill="#1C2D6B"/>
<path d="M109.955 108.984C108.779 110.232 107.373 111.223 105.82 111.899C104.267 112.576 102.599 112.923 100.914 112.922C99.7481 112.922 98.5878 112.758 97.4651 112.433C97.1256 112.323 96.7993 112.213 96.4531 112.089C96.5663 112.013 96.6928 111.93 96.806 111.841C96.9682 111.734 97.1238 111.617 97.272 111.49C97.6316 111.201 97.9778 110.905 98.304 110.588C98.4971 110.416 98.6768 110.223 98.8633 110.03C99.0497 109.837 99.2361 109.617 99.4159 109.404C99.5956 109.19 99.7687 108.97 99.9418 108.715C100.071 108.556 100.189 108.388 100.295 108.213C100.462 107.978 100.618 107.734 100.761 107.483C100.881 107.297 101 107.097 101.1 106.905C101.414 106.296 101.688 105.665 101.919 105.018H102.012C102.71 104.903 103.385 104.671 104.01 104.33C106.466 105.096 108.575 106.747 109.955 108.984Z" fill="#6287C5"/>
<path d="M121.051 98.2842C120.224 98.2839 119.417 98.022 118.747 97.5359C118.077 97.0498 117.577 96.3645 117.32 95.5777C117.056 94.7711 116.731 93.9854 116.35 93.2271C115.977 92.491 115.846 91.6554 115.977 90.8405C116.109 90.0256 116.495 89.2732 117.081 88.6916C117.316 88.4517 117.448 88.1288 117.448 87.7925C117.448 87.4561 117.316 87.1332 117.081 86.8933L115.068 84.8864C114.951 84.7695 114.812 84.6768 114.659 84.6135C114.507 84.5502 114.343 84.5177 114.178 84.5177C114.012 84.5177 113.849 84.5502 113.696 84.6135C113.543 84.6768 113.405 84.7695 113.288 84.8864C112.705 85.4778 111.949 85.8685 111.129 86.002C110.309 86.1355 109.468 86.0049 108.728 85.6291C107.971 85.2563 107.188 84.9423 106.383 84.69C105.596 84.427 104.911 83.9226 104.426 83.2484C103.941 82.5742 103.681 81.7644 103.683 80.934C103.664 80.6071 103.523 80.2991 103.288 80.0716C103.052 79.8441 102.74 79.7137 102.412 79.7065H99.5769C99.2479 79.7064 98.9318 79.8345 98.6957 80.0637C98.4596 80.2929 98.3222 80.6051 98.3126 80.934C98.3133 81.7659 98.0514 82.5768 97.5643 83.2512C97.0773 83.9256 96.3898 84.4291 95.5999 84.69C94.792 84.9506 94.006 85.2748 93.2493 85.6597C92.5108 86.0312 91.6737 86.1594 90.8579 86.026C90.0421 85.8926 89.2894 85.5045 88.7077 84.9171C88.4689 84.6817 88.147 84.5498 87.8117 84.5498C87.4763 84.5498 87.1545 84.6817 86.9156 84.9171L86.1607 85.6659L84.9333 86.924C84.815 87.042 84.7213 87.1822 84.6573 87.3365C84.5933 87.4907 84.5604 87.6561 84.5604 87.8232C84.5604 87.9902 84.5933 88.1556 84.6573 88.3098C84.7213 88.4641 84.815 88.6043 84.9333 88.7223C85.5209 89.3025 85.9094 90.0541 86.0428 90.8691C86.1763 91.6841 86.0478 92.5204 85.6759 93.2577C85.3051 93.9881 84.9891 94.7451 84.7307 95.5224C84.7307 95.5531 84.7307 95.5838 84.7307 95.6083C84.6462 95.8598 84.5372 96.1023 84.4054 96.3325C84.0568 96.9327 83.5574 97.4314 82.9567 97.7791C82.356 98.1268 81.6749 98.3115 80.9808 98.3149C80.646 98.3181 80.326 98.4534 80.0904 98.6913C79.8548 98.9292 79.7227 99.2505 79.7227 99.5853V102.421C79.7219 102.587 79.7538 102.751 79.8166 102.905C79.8793 103.059 79.9718 103.199 80.0886 103.317C80.2055 103.435 80.3444 103.528 80.4975 103.593C80.6505 103.657 80.8148 103.69 80.9808 103.691C81.6758 103.69 82.3586 103.873 82.96 104.221C83.5615 104.569 84.0601 105.07 84.4054 105.674C84.5372 105.904 84.6462 106.146 84.7307 106.398C84.9635 107.117 85.2486 107.819 85.5838 108.497C85.6198 108.583 85.6608 108.667 85.7066 108.748C86.078 109.487 86.2063 110.324 86.0729 111.14C85.9395 111.956 85.5513 112.708 84.9639 113.29C84.7275 113.527 84.5946 113.848 84.5946 114.183C84.5946 114.518 84.7275 114.839 84.9639 115.076L85.5777 115.69L86.6026 116.727L86.9647 117.083C87.2036 117.318 87.5254 117.45 87.8608 117.45C88.1961 117.45 88.518 117.318 88.7568 117.083C88.8892 116.954 89.0307 116.835 89.1803 116.727C89.605 116.377 90.1017 116.126 90.6348 115.99C90.9114 115.919 91.1961 115.884 91.4818 115.886C91.8988 115.886 92.3131 115.952 92.7092 116.082C92.8975 116.148 93.0819 116.223 93.2616 116.31L93.4519 116.408C94.1518 116.746 94.8735 117.037 95.6122 117.279C96.3959 117.544 97.0765 118.049 97.5577 118.722C98.039 119.395 98.2966 120.202 98.2942 121.029C98.2934 121.196 98.3255 121.361 98.3887 121.515C98.4519 121.669 98.5449 121.809 98.6623 121.927C98.7798 122.045 98.9195 122.139 99.0732 122.203C99.227 122.267 99.3919 122.3 99.5585 122.3H102.394C102.731 122.3 103.054 122.166 103.292 121.927C103.531 121.689 103.664 121.366 103.664 121.029C103.666 120.202 103.927 119.396 104.412 118.725C104.896 118.054 105.58 117.553 106.365 117.292C107.176 117.03 107.966 116.706 108.728 116.322C109.465 115.948 110.301 115.817 111.117 115.948C111.933 116.08 112.687 116.466 113.269 117.052C113.386 117.169 113.525 117.262 113.678 117.325C113.83 117.388 113.994 117.421 114.159 117.421C114.324 117.421 114.488 117.388 114.641 117.325C114.794 117.262 114.932 117.169 115.049 117.052L117.062 115.045C117.299 114.808 117.431 114.487 117.431 114.152C117.431 113.817 117.299 113.496 117.062 113.259C116.476 112.677 116.09 111.923 115.958 111.107C115.827 110.291 115.958 109.455 116.332 108.718C116.718 107.959 117.049 107.174 117.32 106.367C117.578 105.58 118.079 104.894 118.75 104.408C119.421 103.922 120.229 103.661 121.058 103.661C121.225 103.661 121.39 103.629 121.545 103.565C121.699 103.502 121.84 103.408 121.958 103.29C122.076 103.172 122.169 103.032 122.233 102.877C122.296 102.723 122.329 102.557 122.328 102.39V99.5546C122.328 99.3873 122.295 99.2216 122.231 99.0671C122.166 98.9125 122.072 98.7722 121.954 98.6541C121.835 98.5361 121.694 98.4426 121.539 98.3792C121.385 98.3157 121.219 98.2834 121.051 98.2842ZM100.988 115.285C99.1641 115.289 97.3565 114.937 95.6674 114.247C95.3913 114.143 95.1273 114.026 94.8634 113.898C94.4676 113.715 94.0824 113.51 93.7096 113.284C93.3664 113.086 93.0344 112.868 92.7154 112.633C91.9677 112.102 91.2748 111.498 90.6471 110.829C88.3201 108.403 86.9284 105.23 86.7192 101.875C86.7192 101.58 86.7192 101.261 86.7192 100.972C86.7192 100.684 86.7192 100.199 86.7683 99.8063C86.8197 99.0561 86.9305 98.3111 87.0997 97.5784C87.2709 96.8726 87.4967 96.1811 87.7748 95.5101C88.8571 92.8967 90.689 90.6621 93.0394 89.0882C95.3898 87.5144 98.1536 86.6716 100.982 86.6663C101.332 86.6663 101.676 86.6663 102.013 86.7092C102.351 86.7522 102.707 86.7706 103.044 86.8197C106.625 87.3375 109.876 89.1926 112.144 92.0116C114.412 94.8305 115.527 98.4039 115.266 102.012C115.004 105.621 113.385 108.996 110.735 111.459C108.085 113.921 104.6 115.288 100.982 115.285H100.988Z" fill="#B9CBEA"/>
<path d="M121.054 95.6145C120.789 95.6131 120.531 95.5281 120.317 95.3716C120.103 95.2151 119.945 94.9951 119.863 94.743C119.55 93.8215 119.173 92.9232 118.734 92.0549C118.615 91.8171 118.574 91.548 118.617 91.2858C118.66 91.0236 118.785 90.7816 118.973 90.5942C119.707 89.8549 120.119 88.8556 120.119 87.814C120.119 86.7724 119.707 85.773 118.973 85.0338L116.96 83.0207C116.221 82.2835 115.22 81.8695 114.177 81.8695C113.133 81.8695 112.132 82.2835 111.394 83.0207C111.212 83.2134 110.972 83.342 110.711 83.3873C110.45 83.4327 110.181 83.3924 109.945 83.2723C109.072 82.8226 108.165 82.4409 107.232 82.1308C106.977 82.0548 106.753 81.8974 106.594 81.6825C106.436 81.4677 106.352 81.2071 106.355 80.9402C106.354 80.0064 106.022 79.1032 105.417 78.3917C104.812 77.6801 103.974 77.2065 103.053 77.0552C102.85 77.0197 102.645 77.0012 102.439 77H99.5792C99.0616 76.9992 98.5489 77.1006 98.0704 77.2983C97.592 77.496 97.1574 77.7862 96.7913 78.1522C96.4253 78.5183 96.1351 78.953 95.9374 79.4314C95.7396 79.9098 95.6383 80.4225 95.6391 80.9402C95.6421 81.2071 95.5581 81.4677 95.3997 81.6825C95.2414 81.8974 95.0173 82.0548 94.7614 82.1308C93.8287 82.4398 92.9217 82.8215 92.0487 83.2723C91.8105 83.388 91.5419 83.426 91.2809 83.3809C91.0199 83.3357 90.7797 83.2097 90.5942 83.0207C89.8534 82.2898 88.8546 81.8801 87.814 81.8801C86.7734 81.8801 85.7746 82.2898 85.0338 83.0207L84.3525 83.702L83.0207 85.0338C82.2839 85.7714 81.8701 86.7714 81.8701 87.814C81.8701 88.8566 82.2839 89.8565 83.0207 90.5942C83.2101 90.7809 83.3357 91.0226 83.3798 91.2848C83.4239 91.547 83.3841 91.8165 83.2662 92.0549C82.8189 92.9287 82.4393 93.8356 82.1308 94.7676C82.0791 94.9319 81.9933 95.0835 81.8791 95.2125C81.7649 95.3415 81.6248 95.445 81.468 95.5163C81.3038 95.5972 81.1232 95.6392 80.9402 95.639C80.2545 95.6385 79.5806 95.8172 78.9853 96.1574C78.39 96.4976 77.8939 96.9874 77.5463 97.5784C77.1862 98.1813 76.9973 98.8709 77 99.5731V102.409C77 103.454 77.415 104.457 78.1537 105.197C78.8925 105.937 79.8946 106.353 80.9402 106.355C81.2071 106.352 81.4677 106.436 81.6826 106.594C81.8974 106.753 82.0548 106.977 82.1308 107.232C82.3793 107.972 82.6724 108.695 83.0085 109.399C83.0883 109.583 83.1742 109.767 83.2662 109.939C83.387 110.175 83.4283 110.443 83.3841 110.704C83.3399 110.965 83.2124 111.205 83.0207 111.387C82.4694 111.939 82.0941 112.641 81.9422 113.406C81.7904 114.171 81.8688 114.963 82.1677 115.684C82.3099 116.029 82.5022 116.352 82.7384 116.641C82.7569 116.669 82.7774 116.696 82.7998 116.721C82.8653 116.798 82.9389 116.878 83.0207 116.96L83.8125 117.752L85.0399 118.979C85.7791 119.713 86.7785 120.125 87.8201 120.125C88.8617 120.125 89.8611 119.713 90.6003 118.979C90.7834 118.786 91.0243 118.658 91.2866 118.614C91.549 118.569 91.8186 118.612 92.0549 118.734C92.9293 119.178 93.8362 119.556 94.7676 119.863C95.0234 119.939 95.2475 120.096 95.4059 120.311C95.5642 120.526 95.6483 120.787 95.6452 121.054C95.6444 121.572 95.7457 122.085 95.9434 122.563C96.141 123.042 96.4311 123.477 96.7971 123.844C97.163 124.21 97.5977 124.501 98.0761 124.699C98.5546 124.898 99.0674 125 99.5854 125H102.421C103.466 124.998 104.469 124.582 105.207 123.842C105.946 123.102 106.361 122.099 106.361 121.054C106.358 120.787 106.442 120.526 106.6 120.311C106.759 120.096 106.983 119.939 107.239 119.863C108.172 119.547 109.081 119.161 109.957 118.709C110.193 118.588 110.461 118.547 110.722 118.591C110.983 118.636 111.223 118.763 111.406 118.955C112.146 119.689 113.147 120.101 114.189 120.101C115.232 120.101 116.232 119.689 116.972 118.955L118.985 116.936C119.352 116.571 119.643 116.137 119.841 115.659C120.04 115.182 120.142 114.669 120.142 114.152C120.142 113.635 120.04 113.123 119.841 112.645C119.643 112.168 119.352 111.734 118.985 111.369C118.795 111.186 118.669 110.946 118.625 110.685C118.582 110.424 118.625 110.156 118.746 109.921C119.184 109.045 119.561 108.141 119.875 107.214C119.951 106.958 120.109 106.734 120.324 106.576C120.538 106.417 120.799 106.333 121.066 106.336C122.111 106.333 123.112 105.916 123.851 105.177C124.589 104.437 125.005 103.435 125.006 102.39V99.5547C125.006 99.0362 124.904 98.5228 124.705 98.044C124.506 97.5651 124.215 97.1302 123.848 96.7642C123.481 96.3982 123.045 96.1082 122.565 95.9109C122.086 95.7136 121.572 95.6129 121.054 95.6145ZM122.324 102.366C122.325 102.533 122.293 102.698 122.229 102.853C122.166 103.007 122.072 103.148 121.954 103.266C121.836 103.384 121.695 103.477 121.541 103.541C121.386 103.604 121.221 103.637 121.054 103.636C120.223 103.639 119.415 103.905 118.744 104.395C118.074 104.886 117.576 105.576 117.322 106.367C117.057 107.173 116.733 107.959 116.353 108.718C115.979 109.455 115.848 110.291 115.979 111.107C116.11 111.923 116.497 112.677 117.083 113.259C117.319 113.496 117.452 113.817 117.452 114.152C117.452 114.487 117.319 114.808 117.083 115.045L115.07 117.052C114.953 117.169 114.814 117.262 114.662 117.325C114.509 117.388 114.345 117.421 114.18 117.421C114.015 117.421 113.851 117.388 113.698 117.325C113.546 117.262 113.407 117.169 113.29 117.052C112.707 116.466 111.954 116.08 111.138 115.948C110.322 115.817 109.485 115.948 108.748 116.322C107.989 116.706 107.201 117.03 106.392 117.292C105.607 117.553 104.923 118.054 104.439 118.725C103.954 119.396 103.693 120.202 103.691 121.029C103.691 121.366 103.557 121.689 103.319 121.927C103.081 122.166 102.758 122.3 102.421 122.3H99.5792C99.4111 122.302 99.2443 122.271 99.0883 122.208C98.9324 122.145 98.7906 122.052 98.6711 121.934C98.5517 121.815 98.457 121.674 98.3927 121.519C98.3284 121.364 98.2957 121.197 98.2965 121.029C98.2942 120.2 98.031 119.393 97.544 118.722C97.0571 118.051 96.3713 117.551 95.5838 117.292C94.8451 117.049 94.1234 116.758 93.4235 116.42L93.2332 116.322C93.0536 116.236 92.8692 116.16 92.6809 116.095C92.2847 115.965 91.8704 115.898 91.4534 115.898C91.1678 115.896 90.8831 115.931 90.6065 116.003C90.0597 116.119 89.5459 116.356 89.1028 116.696C88.9533 116.804 88.8117 116.923 88.6794 117.052C88.4405 117.288 88.1186 117.419 87.7833 117.419C87.448 117.419 87.1261 117.288 86.8873 117.052L86.5252 116.696L85.5002 115.659L84.8865 115.045C84.65 114.808 84.5172 114.487 84.5172 114.152C84.5172 113.817 84.65 113.496 84.8865 113.259C85.4738 112.678 85.862 111.925 85.9954 111.109C86.1288 110.293 86.0006 109.456 85.6291 108.718C85.5833 108.636 85.5423 108.552 85.5064 108.466C85.1712 107.788 84.8861 107.087 84.6533 106.367C84.5687 106.116 84.4598 105.873 84.328 105.643C83.9827 105.04 83.484 104.539 82.8826 104.191C82.2811 103.842 81.5983 103.66 80.9034 103.661C80.7373 103.66 80.5731 103.626 80.42 103.562C80.2669 103.498 80.128 103.404 80.0112 103.286C79.8943 103.168 79.8019 103.028 79.7391 102.874C79.6763 102.721 79.6444 102.556 79.6452 102.39V99.5547C79.6452 99.2198 79.7774 98.8985 80.013 98.6606C80.2486 98.4227 80.5686 98.2875 80.9034 98.2842C81.5974 98.2808 82.2786 98.0961 82.8793 97.7484C83.48 97.4007 83.9794 96.902 84.328 96.3019C84.4598 96.0717 84.5687 95.8291 84.6533 95.5777C84.6533 95.5777 84.6533 95.5224 84.6533 95.4918C84.9117 94.7145 85.2276 93.9575 85.5984 93.2271C85.9703 92.4897 86.0988 91.6534 85.9654 90.8385C85.8319 90.0235 85.4435 89.2718 84.8558 88.6916C84.7376 88.5736 84.6438 88.4335 84.5798 88.2792C84.5158 88.1249 84.4829 87.9595 84.4829 87.7925C84.4829 87.6255 84.5158 87.4601 84.5798 87.3058C84.6438 87.1515 84.7376 87.0114 84.8558 86.8934L86.0833 85.6352L86.8382 84.8865C87.077 84.6511 87.3989 84.5191 87.7342 84.5191C88.0695 84.5191 88.3914 84.6511 88.6303 84.8865C89.212 85.4738 89.9646 85.862 90.7805 85.9954C91.5963 86.1288 92.4334 86.0006 93.1719 85.6291C93.9552 85.2507 94.768 84.9367 95.6023 84.6901C96.3937 84.4243 97.0807 83.9148 97.5648 83.2345C98.0488 82.5543 98.3049 81.7382 98.2965 80.9033C98.3061 80.5745 98.4435 80.2623 98.6796 80.0331C98.9157 79.8039 99.2318 79.6757 99.5608 79.6759H102.396C102.724 79.6831 103.036 79.8134 103.272 80.041C103.507 80.2685 103.648 80.5764 103.667 80.9033C103.66 81.7412 103.92 82.5596 104.408 83.2402C104.897 83.9209 105.589 84.4286 106.386 84.6901C107.19 84.9423 107.974 85.2563 108.73 85.6291C109.468 86.0006 110.306 86.1288 111.121 85.9954C111.937 85.862 112.69 85.4738 113.272 84.8865C113.388 84.7696 113.527 84.6768 113.68 84.6135C113.833 84.5503 113.996 84.5177 114.162 84.5177C114.327 84.5177 114.49 84.5503 114.643 84.6135C114.796 84.6768 114.935 84.7696 115.051 84.8865L117.064 86.8934C117.3 87.1333 117.432 87.4561 117.432 87.7925C117.432 88.1288 117.3 88.4517 117.064 88.6916C116.479 89.2733 116.093 90.0256 115.961 90.8405C115.83 91.6554 115.961 92.491 116.334 93.2271C116.722 93.9849 117.052 94.7706 117.322 95.5777C117.58 96.3655 118.08 97.0516 118.752 97.5377C119.423 98.0239 120.231 98.2852 121.06 98.2842C121.397 98.2842 121.72 98.4181 121.958 98.6563C122.196 98.8946 122.33 99.2177 122.33 99.5547L122.324 102.366Z" fill="#1C2D6B"/>
<path d="M103.054 86.8199C102.718 86.7708 102.374 86.734 102.022 86.7095C101.685 86.7095 101.341 86.6665 100.991 86.6665C98.1637 86.6691 95.4001 87.5086 93.0486 89.0791C90.6972 90.6496 88.8632 92.881 87.7777 95.492C87.4986 96.1689 87.2729 96.8666 87.1026 97.5787C86.9224 98.3145 86.8013 99.0636 86.7405 99.8188C86.7098 100.212 86.6914 100.598 86.6914 100.985C86.6914 101.372 86.6914 101.599 86.6914 101.887C86.8972 105.241 88.2845 108.413 90.607 110.841C91.2348 111.51 91.9276 112.115 92.6753 112.646C92.9943 112.881 93.3263 113.098 93.6695 113.296C94.0423 113.522 94.4275 113.727 94.8234 113.91C95.0873 114.039 95.3512 114.156 95.6273 114.26C97.3164 114.95 99.124 115.302 100.948 115.297C104.566 115.301 108.051 113.934 110.701 111.471C113.351 109.008 114.97 105.633 115.232 102.025C115.493 98.4164 114.378 94.843 112.11 92.0241C109.842 89.2051 106.591 87.35 103.011 86.8322L103.054 86.8199ZM94.7006 110.755C94.6086 110.694 94.5226 110.639 94.4367 110.571C94.1774 110.406 93.9293 110.223 93.6941 110.025C93.6298 109.978 93.5683 109.926 93.51 109.872C93.2166 109.629 92.936 109.37 92.6692 109.098C93.3092 108.092 94.1264 107.211 95.0811 106.496L95.4125 106.263C95.5851 106.132 95.7677 106.015 95.9588 105.913C96.4794 105.595 97.0304 105.33 97.6036 105.121L98.1314 104.943C98.2066 104.987 98.2845 105.026 98.3646 105.06C98.4409 105.108 98.5235 105.145 98.6101 105.171L98.8556 105.269L99.1747 105.385C99.7705 105.571 100.392 105.663 101.016 105.655H101.255C101.329 105.661 101.403 105.661 101.476 105.655H101.642C101.722 105.655 101.801 105.655 101.881 105.655H101.961H102.047C102.69 105.553 103.312 105.346 103.888 105.042C106.128 105.705 108.061 107.14 109.344 109.092C108.26 110.205 106.964 111.088 105.532 111.691C104.101 112.294 102.563 112.604 101.01 112.603C99.9352 112.603 98.8656 112.456 97.8306 112.167C97.5176 112.069 97.2169 111.971 96.8978 111.86C96.7014 111.787 96.505 111.695 96.284 111.609L95.8422 111.394C95.7661 111.362 95.6923 111.325 95.6212 111.283C95.4862 111.21 95.3512 111.136 95.2223 111.056C95.0934 110.976 94.8663 110.86 94.7006 110.749V110.755ZM104.434 99.8617C104.437 99.919 104.437 99.9763 104.434 100.034C104.434 100.107 104.434 100.162 104.398 100.224C104.373 100.351 104.34 100.476 104.299 100.598C104.286 100.644 104.269 100.689 104.25 100.733C104.22 100.807 104.189 100.887 104.152 100.96C104.12 101.036 104.083 101.11 104.042 101.181C103.997 101.264 103.948 101.344 103.894 101.421L103.735 101.642C103.453 101.996 103.105 102.291 102.71 102.513C102.602 102.574 102.492 102.63 102.378 102.679L102.127 102.783C101.952 102.837 101.774 102.878 101.593 102.906C101.496 102.927 101.397 102.939 101.298 102.943H101.034C100.932 102.949 100.83 102.949 100.727 102.943C100.677 102.952 100.625 102.952 100.574 102.943C100.379 102.927 100.187 102.885 100.003 102.82C99.7997 102.765 99.6038 102.684 99.4202 102.581L99.1993 102.489C99.1399 102.457 99.0825 102.423 99.0274 102.384C98.9693 102.345 98.9139 102.302 98.8617 102.255C98.7518 102.172 98.6473 102.082 98.5487 101.985C98.2264 101.663 97.9709 101.28 97.7971 100.859C97.6233 100.438 97.5346 99.9861 97.5361 99.5303C97.5338 99.3244 97.5523 99.1188 97.5913 98.9166C97.5913 98.8614 97.5913 98.8123 97.5913 98.7693C97.5913 98.7263 97.6465 98.5484 97.6772 98.4502C97.6943 98.3802 97.719 98.3123 97.7509 98.2476C97.7509 98.1924 97.7938 98.1433 97.8184 98.0881C97.8791 97.9495 97.9509 97.8161 98.0332 97.6891C98.0719 97.6229 98.1149 97.5594 98.1621 97.4989C98.2383 97.3833 98.3268 97.2763 98.426 97.1797C98.4617 97.1341 98.5007 97.091 98.5426 97.0509C98.6695 96.9228 98.807 96.8058 98.9538 96.701L99.1195 96.5906C99.1842 96.5452 99.2519 96.5042 99.322 96.4678C99.5182 96.3631 99.7237 96.2768 99.9357 96.21C100.122 96.1533 100.313 96.1122 100.507 96.0873H100.66C100.762 96.0779 100.865 96.0779 100.967 96.0873C101.261 96.0874 101.554 96.1266 101.838 96.2039C101.897 96.2189 101.955 96.2394 102.01 96.2653C102.05 96.2661 102.088 96.2789 102.121 96.3021C102.182 96.3152 102.242 96.3358 102.299 96.3635C102.381 96.3952 102.461 96.4321 102.538 96.4739L102.79 96.6151L103.029 96.7808C103.125 96.8516 103.217 96.9274 103.305 97.0079C103.466 97.1531 103.61 97.3157 103.735 97.4927C103.787 97.5567 103.834 97.6244 103.876 97.6953C103.932 97.7769 103.981 97.8631 104.023 97.953C104.066 98.0328 104.109 98.1126 104.146 98.1985C104.201 98.3168 104.244 98.4402 104.275 98.5668C104.303 98.6469 104.326 98.729 104.342 98.8123L104.379 99.0209C104.383 99.0884 104.383 99.156 104.379 99.2235C104.385 99.3298 104.385 99.4363 104.379 99.5426C104.403 99.6479 104.422 99.7545 104.434 99.8617ZM111.026 106.852C109.746 105.15 108.057 103.799 106.116 102.924C106.793 101.92 107.154 100.736 107.153 99.5242C107.152 98.2589 106.76 97.0249 106.031 95.991C105.301 94.9572 104.27 94.1741 103.078 93.749C102.744 93.6266 102.399 93.5382 102.047 93.4851C101.707 93.4181 101.362 93.3852 101.016 93.3869C100.795 93.3869 100.586 93.3869 100.402 93.3869C99.4284 93.4944 98.4942 93.8321 97.6767 94.3721C96.8592 94.9121 96.182 95.6389 95.701 96.4924C95.5609 96.7478 95.4379 97.0123 95.3328 97.2841C95.0616 97.987 94.9222 98.7339 94.9216 99.4874C94.9153 99.5916 94.9153 99.6961 94.9216 99.8004C94.9212 100.427 95.0249 101.049 95.2284 101.642C95.3842 102.097 95.6032 102.529 95.879 102.924C94.443 103.567 93.1384 104.47 92.0309 105.588C91.6406 105.986 91.2758 106.408 90.9384 106.852C90.8358 106.685 90.7416 106.513 90.6561 106.337C89.9368 104.951 89.5086 103.432 89.398 101.875C89.398 101.586 89.3611 101.261 89.3611 100.973C89.3603 100.583 89.3808 100.194 89.4225 99.8065C89.5803 98.3042 90.0241 96.846 90.7298 95.5104C92.0591 93.0331 94.2386 91.1194 96.8671 90.1218C98.1813 89.6169 99.5774 89.3589 100.985 89.3608C101.329 89.3565 101.674 89.3708 102.016 89.4037C102.363 89.4309 102.707 89.4801 103.047 89.551C104.892 89.8786 106.63 90.6477 108.113 91.7925C109.596 92.9373 110.78 94.424 111.563 96.1255C112.347 97.827 112.708 99.693 112.614 101.564C112.521 103.435 111.976 105.256 111.026 106.871V106.852Z" fill="#1C2D6B"/>
<path d="M104.434 99.524C104.44 99.6364 104.44 99.7491 104.434 99.8615C104.436 99.9188 104.436 99.9761 104.434 100.033C104.434 100.107 104.434 100.162 104.397 100.224C104.372 100.35 104.339 100.475 104.299 100.598C104.285 100.644 104.269 100.689 104.25 100.733C104.219 100.807 104.188 100.886 104.151 100.96C104.12 101.036 104.083 101.11 104.041 101.181C103.996 101.264 103.947 101.343 103.894 101.42L103.734 101.641C103.452 101.995 103.104 102.291 102.709 102.513C102.602 102.574 102.491 102.63 102.378 102.679L102.126 102.783C101.951 102.837 101.773 102.878 101.592 102.906C101.495 102.927 101.397 102.939 101.298 102.942H101.034C100.931 102.949 100.829 102.949 100.727 102.942C100.676 102.952 100.624 102.952 100.573 102.942C100.17 102.891 99.7795 102.769 99.4195 102.58L99.1985 102.488C99.1391 102.457 99.0817 102.422 99.0267 102.384C98.9686 102.345 98.9132 102.302 98.861 102.255C98.7511 102.172 98.6466 102.082 98.548 101.985C98.2256 101.663 97.9702 101.28 97.7964 100.859C97.6226 100.437 97.5339 99.9859 97.5353 99.5301C97.5331 99.3242 97.5516 99.1186 97.5906 98.9164C97.5906 98.8612 97.5906 98.8121 97.5906 98.7691C97.5906 98.7261 97.6458 98.5482 97.6765 98.45C97.6936 98.38 97.7183 98.3121 97.7501 98.2474C97.7501 98.1922 97.7931 98.1431 97.8177 98.0879C97.8783 97.9493 97.9502 97.8159 98.0325 97.6889C98.0712 97.6227 98.1142 97.5592 98.1613 97.4987C98.2376 97.3831 98.326 97.2761 98.4252 97.1795C98.461 97.1339 98.5 97.0908 98.5419 97.0507C98.6688 96.9226 98.8063 96.8056 98.9531 96.7008L99.1188 96.5904C99.1835 96.545 99.2511 96.504 99.3213 96.4676C99.5175 96.3629 99.7229 96.2766 99.935 96.2098C100.122 96.1531 100.312 96.112 100.506 96.0871H100.659C100.761 96.0777 100.864 96.0777 100.966 96.0871C101.26 96.0872 101.554 96.1264 101.838 96.2037C101.897 96.2187 101.954 96.2392 102.009 96.2651C102.049 96.2659 102.088 96.2787 102.12 96.3019C102.182 96.315 102.241 96.3356 102.298 96.3633C102.38 96.395 102.46 96.4319 102.537 96.4737L102.789 96.6149L103.028 96.7806C103.124 96.8514 103.216 96.9272 103.304 97.0077C103.465 97.1529 103.609 97.3155 103.734 97.4925C103.786 97.5565 103.833 97.6242 103.875 97.6951C103.931 97.7767 103.981 97.8629 104.022 97.9528C104.065 98.0326 104.108 98.1124 104.145 98.1983C104.2 98.3166 104.243 98.44 104.274 98.5666C104.302 98.6467 104.325 98.7288 104.342 98.8121L104.378 99.0207C104.382 99.0882 104.382 99.1558 104.378 99.2233C104.403 99.3224 104.421 99.4228 104.434 99.524Z" fill="#6287C5"/>
<path d="M112.626 100.966C112.627 103.036 112.074 105.068 111.024 106.852C109.745 105.15 108.056 103.799 106.114 102.924C106.791 101.919 107.152 100.735 107.151 99.524C107.15 98.2587 106.758 97.0247 106.029 95.9909C105.299 94.957 104.268 94.1739 103.076 93.7488C102.742 93.6264 102.397 93.538 102.045 93.4849C101.706 93.4179 101.36 93.385 101.014 93.3867C100.793 93.3867 100.585 93.3867 100.4 93.3867C99.4266 93.4942 98.4924 93.8319 97.675 94.3719C96.8575 94.9119 96.1803 95.6387 95.6992 96.4922C95.5592 96.7477 95.4361 97.0121 95.331 97.2839C95.0599 97.9869 94.9205 98.7337 94.9198 99.4872C94.9136 99.5914 94.9136 99.696 94.9198 99.8002C94.9195 100.427 95.0232 101.049 95.2267 101.641C95.3825 102.097 95.6014 102.529 95.8772 102.924C94.4413 103.567 93.1366 104.47 92.0291 105.588C91.6389 105.986 91.274 106.408 90.9367 106.852C90.834 106.685 90.7398 106.513 90.6544 106.336C89.935 104.951 89.5069 103.432 89.3962 101.875C89.3962 101.586 89.3594 101.261 89.3594 100.972C89.3586 100.583 89.3791 100.194 89.4208 99.8063C89.5786 98.304 90.0223 96.8458 90.728 95.5102C92.0573 93.0329 94.2369 91.1193 96.8653 90.1216C98.1795 89.6167 99.5756 89.3587 100.983 89.3606C101.328 89.3563 101.672 89.3706 102.015 89.4036C102.361 89.4307 102.705 89.4799 103.046 89.5509C105.724 90.0365 108.148 91.4436 109.897 93.5284C111.647 95.6133 112.612 98.2445 112.626 100.966Z" fill="#B9CBEA"/>
<path d="M101.935 105.557C101.712 106.135 101.45 106.697 101.15 107.239C101.058 107.41 100.947 107.588 100.837 107.754C100.726 107.92 100.554 108.196 100.407 108.405C100.309 108.561 100.201 108.711 100.082 108.853C99.9223 109.055 99.7689 109.252 99.597 109.466C99.4252 109.681 99.2656 109.841 99.0876 110.025C98.9096 110.209 98.7501 110.369 98.5721 110.522C98.2713 110.804 97.9583 111.068 97.6208 111.326C97.4842 111.439 97.3407 111.544 97.1912 111.639C97.0868 111.719 96.9702 111.792 96.8659 111.86L96.2522 111.608L95.841 111.394C95.7649 111.362 95.6911 111.325 95.62 111.283C95.485 111.209 95.35 111.136 95.2211 111.056C95.0922 110.976 94.8713 110.86 94.7056 110.749C94.5399 110.639 94.5276 110.633 94.4417 110.565C94.1824 110.399 93.9343 110.217 93.699 110.019L93.5088 109.853C93.2154 109.61 92.9348 109.352 92.668 109.08C93.308 108.074 94.1252 107.192 95.0799 106.478L95.4114 106.244C95.5868 106.118 95.7692 106.001 95.9576 105.895C96.4783 105.577 97.0292 105.312 97.6024 105.103L98.1302 104.925C98.2054 104.969 98.2833 105.007 98.3634 105.041C98.4403 105.088 98.5228 105.125 98.6089 105.152L98.8544 105.25L99.1735 105.367C99.7693 105.553 100.391 105.644 101.015 105.637H101.254C101.328 105.643 101.402 105.643 101.475 105.637H101.641C101.72 105.643 101.8 105.643 101.88 105.637L101.935 105.557Z" fill="#89AADB"/>
</g>
<defs>
<clipPath id="clip0">
<rect width="125" height="125" fill="white"/>
</clipPath>
</defs>
</svg>
