<svg width="125" height="125" viewBox="0 0 125 125" fill="none" xmlns="http://www.w3.org/2000/svg">
<path d="M60.5539 51.8491C40.8059 51.8491 24.7969 67.8581 24.7969 87.6062V116.212H46.2511V66.1519C46.2511 58.2526 52.6546 51.8491 60.5539 51.8491Z" fill="#A4D4A0"/>
<path d="M60.5117 51.8491C68.411 51.8491 74.8145 58.2526 74.8145 66.1519V116.212H96.2688V87.6062C96.2688 67.8581 80.2597 51.8491 60.5117 51.8491Z" fill="#419B46"/>
<path d="M60.5177 51.8491C52.6183 51.8491 46.2148 58.2526 46.2148 66.1519V116.212H74.8205V66.1519C74.8205 58.2526 68.417 51.8491 60.5177 51.8491Z" fill="#65BC49"/>
<path d="M96.302 118H24.7879C23.8004 118 23 117.2 23 116.212V87.6064C23 66.9043 39.8428 50.0615 60.5449 50.0615C81.247 50.0615 98.0898 66.9043 98.0898 87.6064V116.212C98.0898 117.2 97.2895 118 96.302 118ZM26.5757 114.424H94.5141V87.6064C94.5141 68.8757 79.2756 53.6372 60.5449 53.6372C41.8142 53.6372 26.5757 68.8757 26.5757 87.6064V114.424Z" fill="#1C2D6B"/>
<path d="M49.8008 56.915L60.5279 87.6083L57.1906 56.915H49.8008Z" fill="#EF7F72"/>
<path d="M63.849 56.915L60.5117 87.6083L71.2388 56.915H63.849Z" fill="#E8383B"/>
<path d="M57.1953 56.915L60.5326 87.6083L63.87 56.915H57.1953Z" fill="#E95947"/>
<path d="M60.5231 89.3955C59.7633 89.3955 59.0863 88.9151 58.8354 88.1976L48.1083 57.5049C47.7829 56.5728 48.2739 55.5532 49.206 55.2272C50.1393 54.903 51.1578 55.3929 51.4837 56.3249L60.5231 82.1886L69.5625 56.3249C69.8885 55.3929 70.907 54.9024 71.8402 55.2272C72.7717 55.5532 73.264 56.5728 72.938 57.5049L62.2109 88.1976C61.96 88.9151 61.283 89.3955 60.5231 89.3955Z" fill="#1C2D6B"/>
<path d="M60.5691 117.997C59.5816 117.997 58.7812 117.196 58.7812 116.209V87.6033C58.7812 86.6158 59.5816 85.8154 60.5691 85.8154C61.5566 85.8154 62.357 86.6158 62.357 87.6033V116.209C62.357 117.196 61.5566 117.997 60.5691 117.997Z" fill="#1C2D6B"/>
<path d="M72.1275 70.1055H66.5643C66.37 70.1055 66.1834 70.0894 66.0458 70.0602L63.5839 69.3594C63.3169 69.4309 62.9057 69.478 62.4391 69.478H58.6798C58.2126 69.478 57.8014 69.4309 57.535 69.3594L55.0731 70.0602C54.9354 70.0888 54.7489 70.1055 54.5546 70.1055H48.9914C48.5862 70.1055 48.2578 70.0364 48.2578 69.9517V74.2897C48.2578 74.6949 48.5862 75.0233 48.9914 75.0233H54.5546C54.7489 75.0233 54.9354 74.9458 55.0731 74.8087L57.535 71.4678C57.802 71.8099 58.2132 72.0334 58.6798 72.0334H62.4391C62.9063 72.0334 63.3175 71.8099 63.5839 71.4678L66.0458 74.8087C66.1834 74.9464 66.37 75.0233 66.5643 75.0233H72.1275C72.5327 75.0233 72.8611 74.6949 72.8611 74.2897V69.9517C72.8605 70.0364 72.5321 70.1055 72.1275 70.1055Z" fill="#D3BA2A"/>
<path d="M72.1286 62.5757H66.5654C66.3711 62.5757 66.1846 62.6532 66.0469 62.7902L63.6143 65.9571C63.3491 65.5942 62.9236 65.3558 62.4397 65.3558H58.6804C58.1965 65.3558 57.771 65.5942 57.5058 65.9571L55.0731 62.7902C54.9354 62.6526 54.7489 62.5757 54.5546 62.5757H48.9914C48.5862 62.5757 48.2578 62.9041 48.2578 63.3093V67.6472C48.2578 67.562 48.5862 67.4935 48.9914 67.4935H54.5546C54.7489 67.4935 54.9354 67.5096 55.0731 67.5388L57.5058 68.2032C57.771 68.127 58.1965 68.0769 58.6804 68.0769H62.4397C62.9236 68.0769 63.3491 68.127 63.6143 68.2032L66.0469 67.5388C66.1846 67.5102 66.3711 67.4935 66.5654 67.4935H72.1286C72.5339 67.4935 72.8622 67.5626 72.8622 67.6472V63.3093C72.8616 62.9041 72.5333 62.5757 72.1286 62.5757Z" fill="#EDE49D"/>
<path d="M72.1287 67.4917H66.5654C66.3712 67.4917 66.1846 67.5078 66.047 67.537L63.6143 68.2015C63.3491 68.1252 62.9236 68.0751 62.4397 68.0751H58.6804C58.1965 68.0751 57.771 68.1252 57.5058 68.2015L55.0731 67.537C54.9354 67.5084 54.7489 67.4917 54.5546 67.4917H48.9914C48.5862 67.4917 48.2578 67.5608 48.2578 67.6455V69.9482C48.2578 70.0334 48.5862 70.102 48.9914 70.102H54.5546C54.7489 70.102 54.9354 70.0859 55.0731 70.0567L57.535 69.3558C57.802 69.4273 58.2132 69.4744 58.6798 69.4744H62.4391C62.9063 69.4744 63.3175 69.4273 63.5839 69.3558L66.0458 70.0567C66.1834 70.0853 66.37 70.102 66.5642 70.102H72.1275C72.5327 70.102 72.8611 70.0328 72.8611 69.9482V67.6455C72.8617 67.5602 72.5333 67.4917 72.1287 67.4917Z" fill="#EEE045"/>
<path d="M54.5381 76.8068H48.9779C47.5875 76.8068 46.457 75.6762 46.457 74.2859V63.3085C46.457 61.9181 47.5875 60.7876 48.9779 60.7876H54.5381C55.2115 60.7876 55.845 61.0498 56.3206 61.526C56.3754 61.5808 56.4267 61.6392 56.4744 61.7006L58.9058 64.8651C59.3659 65.464 59.3981 66.2846 58.9958 66.9152V70.4605C59.4208 71.0838 59.4094 71.9134 58.9571 72.5278L56.4958 75.8652C56.4428 75.9373 56.3844 76.0046 56.3212 76.0678C55.845 76.5445 55.2115 76.8068 54.5381 76.8068ZM50.0327 73.2311H53.9952L55.4845 71.2114C55.4416 71.0016 55.4201 70.7876 55.4201 70.5731V66.8127C55.4201 66.6273 55.4362 66.4426 55.4684 66.2602L54.0107 64.3633H50.0327V73.2311Z" fill="#1C2D6B"/>
<path d="M72.097 76.8066H66.5367C65.8633 76.8066 65.2298 76.5444 64.7542 76.0683C64.6911 76.0051 64.6327 75.9371 64.5796 75.8656L62.1184 72.5283C61.6654 71.9139 61.6547 71.0849 62.0796 70.461V66.9156C61.6773 66.2845 61.7089 65.4645 62.1696 64.8656L64.6011 61.7011C64.6488 61.6391 64.7 61.5807 64.7548 61.5265C65.2304 61.0503 65.8639 60.7881 66.5373 60.7881H72.0976C73.4873 60.7881 74.6178 61.9186 74.6178 63.309V74.2864C74.6178 75.6755 73.4867 76.8066 72.097 76.8066ZM67.0796 73.2309H71.0421V64.3632H67.0641L65.6065 66.2601C65.6386 66.4425 65.6547 66.6272 65.6547 66.8125V70.573C65.6547 70.7875 65.6327 71.0021 65.5904 71.2113L67.0796 73.2309Z" fill="#1C2D6B"/>
<path d="M62.3954 73.8163H58.6362C56.8465 73.8163 55.3906 72.3604 55.3906 70.5707V66.8115C55.3906 65.0218 56.8465 63.5659 58.6362 63.5659H62.3954C64.1851 63.5659 65.641 65.0218 65.641 66.8115V70.5707C65.641 72.3598 64.1851 73.8163 62.3954 73.8163ZM58.9663 70.2406H62.0647V67.1416H58.9663V70.2406Z" fill="#1C2D6B"/>
<path d="M81.9871 117.996C80.9996 117.996 80.1992 117.196 80.1992 116.208V87.6028C80.1992 86.6153 80.9996 85.8149 81.9871 85.8149C82.9746 85.8149 83.7749 86.6153 83.7749 87.6028V116.208C83.7749 117.196 82.9746 117.996 81.9871 117.996Z" fill="#1C2D6B"/>
<path d="M39.0808 117.996C38.0933 117.996 37.293 117.196 37.293 116.208V87.6028C37.293 86.6153 38.0933 85.8149 39.0808 85.8149C40.0683 85.8149 40.8687 86.6153 40.8687 87.6028V116.208C40.8687 117.196 40.0683 117.996 39.0808 117.996Z" fill="#1C2D6B"/>
<path d="M50.9806 30.3932C50.9806 14.5946 55.2494 1.7876 60.5158 1.7876C44.7171 1.7876 31.9102 14.5946 31.9102 30.3932C31.9102 46.1919 44.7171 58.9989 60.5158 58.9989C55.2494 58.9989 50.9806 46.1919 50.9806 30.3932Z" fill="#EDE49D"/>
<path d="M60.5117 1.7876C65.7781 1.7876 70.0469 14.5946 70.0469 30.3932C70.0469 46.1919 65.7781 58.9989 60.5117 58.9989C76.3104 58.9989 89.1174 46.1919 89.1174 30.3932C89.1174 14.5946 76.3104 1.7876 60.5117 1.7876Z" fill="#D3BA2A"/>
<path d="M60.5665 58.9989C65.8326 58.9989 70.1017 46.1917 70.1017 30.3932C70.1017 14.5948 65.8326 1.7876 60.5665 1.7876C55.3003 1.7876 51.0312 14.5948 51.0312 30.3932C51.0312 46.1917 55.3003 58.9989 60.5665 58.9989Z" fill="#EEE045"/>
<path d="M51.0283 38.668C52.3255 38.668 53.377 37.6165 53.377 36.3193C53.377 35.0222 52.3255 33.9707 51.0283 33.9707C49.7312 33.9707 48.6797 35.0222 48.6797 36.3193C48.6797 37.6165 49.7312 38.668 51.0283 38.668Z" fill="#1C2D6B"/>
<path d="M70.0713 38.668C71.3684 38.668 72.4199 37.6165 72.4199 36.3193C72.4199 35.0222 71.3684 33.9707 70.0713 33.9707C68.7742 33.9707 67.7227 35.0222 67.7227 36.3193C67.7227 37.6165 68.7742 38.668 70.0713 38.668Z" fill="#1C2D6B"/>
<path d="M60.573 45.2962C58.2416 45.2962 56.0664 44.0424 54.8971 42.0227C54.4025 41.1681 54.6939 40.0745 55.5485 39.5793C56.4031 39.0846 57.4967 39.3761 57.9919 40.2307C58.5241 41.1496 59.5134 41.7205 60.5736 41.7205C61.6338 41.7205 62.6225 41.1496 63.1552 40.2307C63.6499 39.3761 64.7446 39.0852 65.5986 39.5793C66.4532 40.0745 66.7447 41.1681 66.25 42.0227C65.0796 44.0418 62.9043 45.2962 60.573 45.2962Z" fill="#1C2D6B"/>
<path d="M60.5158 1.7876C44.7171 1.7876 31.9102 14.5946 31.9102 30.3932C39.4048 30.3932 46.2231 27.5071 51.3239 22.7907C52.4341 10.684 56.1272 1.7876 60.5158 1.7876Z" fill="#89AADB"/>
<path d="M69.7037 22.7907C74.8044 27.5071 81.6227 30.3932 89.1174 30.3932C89.1174 14.5946 76.3104 1.7876 60.5117 1.7876C64.9003 1.7876 68.5934 10.684 69.7037 22.7907Z" fill="#4B67B0"/>
<path d="M60.5787 1.7876C60.5787 10.091 64.1198 17.5648 69.7706 22.7907C68.6604 10.684 64.9673 1.7876 60.5787 1.7876C56.1901 1.7876 52.497 10.684 51.3867 22.7907C57.0375 17.5648 60.5787 10.091 60.5787 1.7876Z" fill="#6287C5"/>
<path d="M89.1866 32.1813C76.0322 32.1813 64.8027 23.7814 60.581 12.0638C56.3593 23.7814 45.1298 32.1813 31.9754 32.1813C30.9879 32.1813 30.1875 31.381 30.1875 30.3935C30.1875 13.6342 43.8217 0 60.581 0C77.3397 0 90.9745 13.6342 90.9745 30.3935C90.9745 31.381 90.1741 32.1813 89.1866 32.1813ZM62.432 3.63888C63.3438 16.9554 74.0197 27.6307 87.3356 28.5425C86.4238 15.2259 75.7479 4.55068 62.432 3.63888ZM58.73 3.63888C45.4134 4.55068 34.7382 15.2259 33.8264 28.5425C47.1429 27.6307 57.8182 16.9554 58.73 3.63888Z" fill="#1C2D6B"/>
<path d="M60.581 60.787C43.8217 60.787 30.1875 47.1528 30.1875 30.3935C30.1875 13.6342 43.8217 0 60.581 0C77.3397 0 90.9745 13.6342 90.9745 30.3935C90.9745 47.1528 77.3397 60.787 60.581 60.787ZM60.581 3.5757C45.7937 3.5757 33.7632 15.6062 33.7632 30.3935C33.7632 45.1808 45.7937 57.2113 60.581 57.2113C75.3683 57.2113 87.3988 45.1808 87.3988 30.3935C87.3988 15.6062 75.3683 3.5757 60.581 3.5757Z" fill="#1C2D6B"/>
<path d="M67.7041 104.257C69.0012 104.257 70.0528 103.206 70.0528 101.909C70.0528 100.612 69.0012 99.5601 67.7041 99.5601C66.407 99.5601 65.3555 100.612 65.3555 101.909C65.3555 103.206 66.407 104.257 67.7041 104.257Z" fill="#1C2D6B"/>
<path d="M67.7041 112.6C69.0012 112.6 70.0528 111.548 70.0528 110.251C70.0528 108.954 69.0012 107.902 67.7041 107.902C66.407 107.902 65.3555 108.954 65.3555 110.251C65.3555 111.548 66.407 112.6 67.7041 112.6Z" fill="#1C2D6B"/>
<path d="M67.7041 95.9136C69.0012 95.9136 70.0528 94.8621 70.0528 93.565C70.0528 92.2678 69.0012 91.2163 67.7041 91.2163C66.407 91.2163 65.3555 92.2678 65.3555 93.565C65.3555 94.8621 66.407 95.9136 67.7041 95.9136Z" fill="#1C2D6B"/>
<path d="M106.955 108.984C105.779 110.232 104.373 111.223 102.82 111.899C101.267 112.576 99.5989 112.923 97.9139 112.922C96.7481 112.922 95.5878 112.758 94.4651 112.433C94.1256 112.323 93.7993 112.213 93.4531 112.089C93.5663 112.013 93.6928 111.93 93.806 111.841C93.9682 111.734 94.1238 111.617 94.272 111.49C94.6316 111.201 94.9778 110.905 95.304 110.588C95.4971 110.416 95.6768 110.223 95.8633 110.03C96.0497 109.837 96.2361 109.617 96.4159 109.404C96.5956 109.19 96.7687 108.97 96.9418 108.715C97.0706 108.556 97.1885 108.388 97.2947 108.213C97.4623 107.978 97.6178 107.734 97.7608 107.483C97.8806 107.297 98.0004 107.097 98.1003 106.905C98.4142 106.296 98.6878 105.665 98.9192 105.018H99.0124C99.7102 104.903 100.385 104.671 101.01 104.33C103.466 105.096 105.575 106.747 106.955 108.984Z" fill="#6287C5"/>
<path d="M118.051 98.2842C117.224 98.2839 116.417 98.022 115.747 97.5359C115.077 97.0498 114.577 96.3645 114.32 95.5777C114.056 94.7711 113.731 93.9854 113.35 93.2271C112.977 92.491 112.846 91.6554 112.977 90.8405C113.109 90.0256 113.495 89.2732 114.081 88.6916C114.316 88.4517 114.448 88.1288 114.448 87.7925C114.448 87.4561 114.316 87.1332 114.081 86.8933L112.068 84.8864C111.951 84.7695 111.812 84.6768 111.659 84.6135C111.507 84.5502 111.343 84.5177 111.178 84.5177C111.012 84.5177 110.849 84.5502 110.696 84.6135C110.543 84.6768 110.405 84.7695 110.288 84.8864C109.705 85.4778 108.949 85.8685 108.129 86.002C107.309 86.1355 106.468 86.0049 105.728 85.6291C104.971 85.2563 104.188 84.9423 103.383 84.69C102.596 84.427 101.911 83.9226 101.426 83.2484C100.941 82.5742 100.681 81.7644 100.683 80.934C100.664 80.6071 100.523 80.2991 100.288 80.0716C100.052 79.8441 99.7397 79.7137 99.4123 79.7065H96.5769C96.2479 79.7064 95.9318 79.8345 95.6957 80.0637C95.4596 80.2929 95.3222 80.6051 95.3126 80.934C95.3133 81.7659 95.0514 82.5768 94.5643 83.2512C94.0773 83.9256 93.3898 84.4291 92.5999 84.69C91.792 84.9506 91.006 85.2748 90.2493 85.6597C89.5108 86.0312 88.6737 86.1594 87.8579 86.026C87.0421 85.8926 86.2894 85.5045 85.7077 84.9171C85.4689 84.6817 85.147 84.5498 84.8117 84.5498C84.4763 84.5498 84.1545 84.6817 83.9156 84.9171L83.1607 85.6659L81.9333 86.924C81.815 87.042 81.7213 87.1822 81.6573 87.3365C81.5933 87.4907 81.5604 87.6561 81.5604 87.8232C81.5604 87.9902 81.5933 88.1556 81.6573 88.3098C81.7213 88.4641 81.815 88.6043 81.9333 88.7223C82.5209 89.3025 82.9094 90.0541 83.0428 90.8691C83.1763 91.6841 83.0478 92.5204 82.6759 93.2577C82.3051 93.9881 81.9891 94.7451 81.7307 95.5224C81.7307 95.5531 81.7307 95.5838 81.7307 95.6083C81.6462 95.8598 81.5372 96.1023 81.4054 96.3325C81.0568 96.9327 80.5574 97.4314 79.9567 97.7791C79.356 98.1268 78.6749 98.3115 77.9808 98.3149C77.646 98.3181 77.326 98.4534 77.0904 98.6913C76.8548 98.9292 76.7227 99.2505 76.7227 99.5853V102.421C76.7219 102.587 76.7538 102.751 76.8166 102.905C76.8793 103.059 76.9718 103.199 77.0886 103.317C77.2055 103.435 77.3444 103.528 77.4975 103.593C77.6505 103.657 77.8148 103.69 77.9808 103.691C78.6758 103.69 79.3586 103.873 79.96 104.221C80.5615 104.569 81.0601 105.07 81.4054 105.674C81.5372 105.904 81.6462 106.146 81.7307 106.398C81.9635 107.117 82.2486 107.819 82.5838 108.497C82.6198 108.583 82.6608 108.667 82.7066 108.748C83.078 109.487 83.2063 110.324 83.0729 111.14C82.9395 111.956 82.5513 112.708 81.9639 113.29C81.7275 113.527 81.5946 113.848 81.5946 114.183C81.5946 114.518 81.7275 114.839 81.9639 115.076L82.5777 115.69L83.6026 116.727L83.9647 117.083C84.2036 117.318 84.5254 117.45 84.8608 117.45C85.1961 117.45 85.518 117.318 85.7568 117.083C85.8892 116.954 86.0307 116.835 86.1803 116.727C86.605 116.377 87.1017 116.126 87.6348 115.99C87.9114 115.919 88.1961 115.884 88.4818 115.886C88.8988 115.886 89.3131 115.952 89.7092 116.082C89.8975 116.148 90.0819 116.223 90.2616 116.31L90.4519 116.408C91.1518 116.746 91.8735 117.037 92.6122 117.279C93.3959 117.544 94.0765 118.049 94.5577 118.722C95.039 119.395 95.2966 120.202 95.2942 121.029C95.2934 121.196 95.3255 121.361 95.3887 121.515C95.4519 121.669 95.5449 121.809 95.6623 121.927C95.7798 122.045 95.9195 122.139 96.0732 122.203C96.227 122.267 96.3919 122.3 96.5585 122.3H99.3939C99.7309 122.3 100.054 122.166 100.292 121.927C100.531 121.689 100.664 121.366 100.664 121.029C100.666 120.202 100.927 119.396 101.412 118.725C101.896 118.054 102.58 117.553 103.365 117.292C104.176 117.03 104.966 116.706 105.728 116.322C106.465 115.948 107.301 115.817 108.117 115.948C108.933 116.08 109.687 116.466 110.269 117.052C110.386 117.169 110.525 117.262 110.678 117.325C110.83 117.388 110.994 117.421 111.159 117.421C111.324 117.421 111.488 117.388 111.641 117.325C111.794 117.262 111.932 117.169 112.049 117.052L114.062 115.045C114.299 114.808 114.431 114.487 114.431 114.152C114.431 113.817 114.299 113.496 114.062 113.259C113.476 112.677 113.09 111.923 112.958 111.107C112.827 110.291 112.958 109.455 113.332 108.718C113.718 107.959 114.049 107.174 114.32 106.367C114.578 105.58 115.079 104.894 115.75 104.408C116.421 103.922 117.229 103.661 118.058 103.661C118.225 103.661 118.39 103.629 118.545 103.565C118.699 103.502 118.84 103.408 118.958 103.29C119.076 103.172 119.169 103.032 119.233 102.877C119.296 102.723 119.329 102.557 119.328 102.39V99.5546C119.328 99.3873 119.295 99.2216 119.231 99.0671C119.166 98.9125 119.072 98.7722 118.954 98.6541C118.835 98.5361 118.694 98.4426 118.539 98.3792C118.385 98.3157 118.219 98.2834 118.051 98.2842ZM97.9885 115.285C96.1641 115.289 94.3565 114.937 92.6674 114.247C92.3913 114.143 92.1273 114.026 91.8634 113.898C91.4676 113.715 91.0824 113.51 90.7096 113.284C90.3664 113.086 90.0344 112.868 89.7154 112.633C88.9677 112.102 88.2748 111.498 87.6471 110.829C85.3201 108.403 83.9284 105.23 83.7192 101.875C83.7192 101.58 83.7192 101.261 83.7192 100.972C83.7192 100.684 83.7192 100.199 83.7683 99.8063C83.8197 99.0561 83.9305 98.3111 84.0997 97.5784C84.2709 96.8726 84.4967 96.1811 84.7748 95.5101C85.8571 92.8967 87.689 90.6621 90.0394 89.0882C92.3898 87.5144 95.1536 86.6716 97.9823 86.6663C98.3322 86.6663 98.6759 86.6663 99.0134 86.7092C99.351 86.7522 99.7069 86.7706 100.044 86.8197C103.625 87.3375 106.876 89.1926 109.144 92.0116C111.412 94.8305 112.527 98.4039 112.266 102.012C112.004 105.621 110.385 108.996 107.735 111.459C105.085 113.921 101.6 115.288 97.9823 115.285H97.9885Z" fill="#B9CBEA"/>
<path d="M118.054 95.6145C117.789 95.6131 117.531 95.5281 117.317 95.3716C117.103 95.2151 116.945 94.9951 116.863 94.743C116.55 93.8215 116.173 92.9232 115.734 92.0549C115.615 91.8171 115.574 91.548 115.617 91.2858C115.66 91.0236 115.785 90.7816 115.973 90.5942C116.707 89.8549 117.119 88.8556 117.119 87.814C117.119 86.7724 116.707 85.773 115.973 85.0338L113.96 83.0207C113.221 82.2835 112.22 81.8695 111.177 81.8695C110.133 81.8695 109.132 82.2835 108.394 83.0207C108.212 83.2134 107.972 83.342 107.711 83.3873C107.45 83.4327 107.181 83.3924 106.945 83.2723C106.072 82.8226 105.165 82.4409 104.232 82.1308C103.977 82.0548 103.753 81.8974 103.594 81.6825C103.436 81.4677 103.352 81.2071 103.355 80.9402C103.354 80.0064 103.022 79.1032 102.417 78.3917C101.812 77.6801 100.974 77.2065 100.053 77.0552C99.8503 77.0197 99.645 77.0012 99.4392 77H96.5792C96.0616 76.9992 95.5489 77.1006 95.0704 77.2983C94.592 77.496 94.1574 77.7862 93.7913 78.1522C93.4253 78.5183 93.1351 78.953 92.9374 79.4314C92.7396 79.9098 92.6383 80.4225 92.6391 80.9402C92.6421 81.2071 92.5581 81.4677 92.3997 81.6825C92.2414 81.8974 92.0173 82.0548 91.7614 82.1308C90.8287 82.4398 89.9217 82.8215 89.0487 83.2723C88.8105 83.388 88.5419 83.426 88.2809 83.3809C88.0199 83.3357 87.7797 83.2097 87.5942 83.0207C86.8534 82.2898 85.8546 81.8801 84.814 81.8801C83.7734 81.8801 82.7746 82.2898 82.0338 83.0207L81.3525 83.702L80.0207 85.0338C79.2839 85.7714 78.8701 86.7714 78.8701 87.814C78.8701 88.8566 79.2839 89.8565 80.0207 90.5942C80.2101 90.7809 80.3357 91.0226 80.3798 91.2848C80.4239 91.547 80.3841 91.8165 80.2662 92.0549C79.8189 92.9287 79.4393 93.8356 79.1308 94.7676C79.0791 94.9319 78.9933 95.0835 78.8791 95.2125C78.7649 95.3415 78.6248 95.445 78.468 95.5163C78.3038 95.5972 78.1232 95.6392 77.9402 95.639C77.2545 95.6385 76.5806 95.8172 75.9853 96.1574C75.39 96.4976 74.8939 96.9874 74.5463 97.5784C74.1862 98.1813 73.9973 98.8709 74 99.5731V102.409C74 103.454 74.415 104.457 75.1537 105.197C75.8925 105.937 76.8946 106.353 77.9402 106.355C78.2071 106.352 78.4677 106.436 78.6826 106.594C78.8974 106.753 79.0548 106.977 79.1308 107.232C79.3793 107.972 79.6724 108.695 80.0085 109.399C80.0883 109.583 80.1742 109.767 80.2662 109.939C80.387 110.175 80.4283 110.443 80.3841 110.704C80.3399 110.965 80.2124 111.205 80.0207 111.387C79.4694 111.939 79.0941 112.641 78.9422 113.406C78.7904 114.171 78.8688 114.963 79.1677 115.684C79.3099 116.029 79.5022 116.352 79.7384 116.641C79.7569 116.669 79.7774 116.696 79.7998 116.721C79.8653 116.798 79.9389 116.878 80.0207 116.96L80.8125 117.752L82.0399 118.979C82.7791 119.713 83.7785 120.125 84.8201 120.125C85.8617 120.125 86.8611 119.713 87.6003 118.979C87.7834 118.786 88.0243 118.658 88.2866 118.614C88.549 118.569 88.8186 118.612 89.0549 118.734C89.9293 119.178 90.8362 119.556 91.7676 119.863C92.0234 119.939 92.2475 120.096 92.4059 120.311C92.5642 120.526 92.6483 120.787 92.6452 121.054C92.6444 121.572 92.7457 122.085 92.9434 122.563C93.141 123.042 93.4311 123.477 93.7971 123.844C94.163 124.21 94.5977 124.501 95.0761 124.699C95.5546 124.898 96.0674 125 96.5854 125H99.4208C100.466 124.998 101.469 124.582 102.207 123.842C102.946 123.102 103.361 122.099 103.361 121.054C103.358 120.787 103.442 120.526 103.6 120.311C103.759 120.096 103.983 119.939 104.239 119.863C105.172 119.547 106.081 119.161 106.957 118.709C107.193 118.588 107.461 118.547 107.722 118.591C107.983 118.636 108.223 118.763 108.406 118.955C109.146 119.689 110.147 120.101 111.189 120.101C112.232 120.101 113.232 119.689 113.972 118.955L115.985 116.936C116.352 116.571 116.643 116.137 116.841 115.659C117.04 115.182 117.142 114.669 117.142 114.152C117.142 113.635 117.04 113.123 116.841 112.645C116.643 112.168 116.352 111.734 115.985 111.369C115.795 111.186 115.669 110.946 115.625 110.685C115.582 110.424 115.625 110.156 115.746 109.921C116.184 109.045 116.561 108.141 116.875 107.214C116.951 106.958 117.109 106.734 117.324 106.576C117.538 106.417 117.799 106.333 118.066 106.336C119.111 106.333 120.112 105.916 120.851 105.177C121.589 104.437 122.005 103.435 122.006 102.39V99.5547C122.006 99.0362 121.904 98.5228 121.705 98.044C121.506 97.5651 121.215 97.1302 120.848 96.7642C120.481 96.3982 120.045 96.1082 119.565 95.9109C119.086 95.7136 118.572 95.6129 118.054 95.6145ZM119.324 102.366C119.325 102.533 119.293 102.698 119.229 102.853C119.166 103.007 119.072 103.148 118.954 103.266C118.836 103.384 118.695 103.477 118.541 103.541C118.386 103.604 118.221 103.637 118.054 103.636C117.223 103.639 116.415 103.905 115.744 104.395C115.074 104.886 114.576 105.576 114.322 106.367C114.057 107.173 113.733 107.959 113.353 108.718C112.979 109.455 112.848 110.291 112.979 111.107C113.11 111.923 113.497 112.677 114.083 113.259C114.319 113.496 114.452 113.817 114.452 114.152C114.452 114.487 114.319 114.808 114.083 115.045L112.07 117.052C111.953 117.169 111.814 117.262 111.662 117.325C111.509 117.388 111.345 117.421 111.18 117.421C111.015 117.421 110.851 117.388 110.698 117.325C110.546 117.262 110.407 117.169 110.29 117.052C109.707 116.466 108.954 116.08 108.138 115.948C107.322 115.817 106.485 115.948 105.748 116.322C104.989 116.706 104.201 117.03 103.392 117.292C102.607 117.553 101.923 118.054 101.439 118.725C100.954 119.396 100.693 120.202 100.691 121.029C100.691 121.366 100.557 121.689 100.319 121.927C100.081 122.166 99.7578 122.3 99.4208 122.3H96.5792C96.4111 122.302 96.2443 122.271 96.0883 122.208C95.9324 122.145 95.7906 122.052 95.6711 121.934C95.5517 121.815 95.457 121.674 95.3927 121.519C95.3284 121.364 95.2957 121.197 95.2965 121.029C95.2942 120.2 95.031 119.393 94.544 118.722C94.0571 118.051 93.3713 117.551 92.5838 117.292C91.8451 117.049 91.1234 116.758 90.4235 116.42L90.2332 116.322C90.0536 116.236 89.8692 116.16 89.6809 116.095C89.2847 115.965 88.8704 115.898 88.4534 115.898C88.1678 115.896 87.8831 115.931 87.6065 116.003C87.0597 116.119 86.5459 116.356 86.1028 116.696C85.9533 116.804 85.8117 116.923 85.6794 117.052C85.4405 117.288 85.1186 117.419 84.7833 117.419C84.448 117.419 84.1261 117.288 83.8873 117.052L83.5252 116.696L82.5002 115.659L81.8865 115.045C81.65 114.808 81.5172 114.487 81.5172 114.152C81.5172 113.817 81.65 113.496 81.8865 113.259C82.4738 112.678 82.862 111.925 82.9954 111.109C83.1288 110.293 83.0006 109.456 82.6291 108.718C82.5833 108.636 82.5423 108.552 82.5064 108.466C82.1712 107.788 81.8861 107.087 81.6533 106.367C81.5687 106.116 81.4598 105.873 81.328 105.643C80.9827 105.04 80.484 104.539 79.8826 104.191C79.2811 103.842 78.5983 103.66 77.9034 103.661C77.7373 103.66 77.5731 103.626 77.42 103.562C77.2669 103.498 77.128 103.404 77.0112 103.286C76.8943 103.168 76.8019 103.028 76.7391 102.874C76.6763 102.721 76.6444 102.556 76.6452 102.39V99.5547C76.6452 99.2198 76.7774 98.8985 77.013 98.6606C77.2486 98.4227 77.5686 98.2875 77.9034 98.2842C78.5974 98.2808 79.2786 98.0961 79.8793 97.7484C80.48 97.4007 80.9794 96.902 81.328 96.3019C81.4598 96.0717 81.5687 95.8291 81.6533 95.5777C81.6533 95.5777 81.6533 95.5224 81.6533 95.4918C81.9117 94.7145 82.2276 93.9575 82.5984 93.2271C82.9703 92.4897 83.0988 91.6534 82.9654 90.8385C82.8319 90.0235 82.4435 89.2718 81.8558 88.6916C81.7376 88.5736 81.6438 88.4335 81.5798 88.2792C81.5158 88.1249 81.4829 87.9595 81.4829 87.7925C81.4829 87.6255 81.5158 87.4601 81.5798 87.3058C81.6438 87.1515 81.7376 87.0114 81.8558 86.8934L83.0833 85.6352L83.8382 84.8865C84.077 84.6511 84.3989 84.5191 84.7342 84.5191C85.0695 84.5191 85.3914 84.6511 85.6303 84.8865C86.212 85.4738 86.9646 85.862 87.7805 85.9954C88.5963 86.1288 89.4334 86.0006 90.1719 85.6291C90.9552 85.2507 91.768 84.9367 92.6023 84.6901C93.3937 84.4243 94.0807 83.9148 94.5648 83.2345C95.0488 82.5543 95.3049 81.7382 95.2965 80.9033C95.3061 80.5745 95.4435 80.2623 95.6796 80.0331C95.9157 79.8039 96.2318 79.6757 96.5608 79.6759H99.3963C99.7236 79.6831 100.036 79.8134 100.272 80.041C100.507 80.2685 100.648 80.5764 100.667 80.9033C100.66 81.7412 100.92 82.5596 101.408 83.2402C101.897 83.9209 102.589 84.4286 103.386 84.6901C104.19 84.9423 104.974 85.2563 105.73 85.6291C106.468 86.0006 107.306 86.1288 108.121 85.9954C108.937 85.862 109.69 85.4738 110.272 84.8865C110.388 84.7696 110.527 84.6768 110.68 84.6135C110.833 84.5503 110.996 84.5177 111.162 84.5177C111.327 84.5177 111.49 84.5503 111.643 84.6135C111.796 84.6768 111.935 84.7696 112.051 84.8865L114.064 86.8934C114.3 87.1333 114.432 87.4561 114.432 87.7925C114.432 88.1288 114.3 88.4517 114.064 88.6916C113.479 89.2733 113.093 90.0256 112.961 90.8405C112.83 91.6554 112.961 92.491 113.334 93.2271C113.722 93.9849 114.052 94.7706 114.322 95.5777C114.58 96.3655 115.08 97.0516 115.752 97.5377C116.423 98.0239 117.231 98.2852 118.06 98.2842C118.397 98.2842 118.72 98.4181 118.958 98.6563C119.196 98.8946 119.33 99.2177 119.33 99.5547L119.324 102.366Z" fill="#1C2D6B"/>
<path d="M100.054 86.8199C99.718 86.7708 99.3743 86.734 99.0224 86.7095C98.6849 86.7095 98.3412 86.6665 97.9914 86.6665C95.1637 86.6691 92.4001 87.5086 90.0486 89.0791C87.6972 90.6496 85.8632 92.881 84.7777 95.492C84.4986 96.1689 84.2729 96.8666 84.1026 97.5787C83.9224 98.3145 83.8013 99.0636 83.7405 99.8188C83.7098 100.212 83.6914 100.598 83.6914 100.985C83.6914 101.372 83.6914 101.599 83.6914 101.887C83.8972 105.241 85.2845 108.413 87.607 110.841C88.2348 111.51 88.9276 112.115 89.6753 112.646C89.9943 112.881 90.3263 113.098 90.6695 113.296C91.0423 113.522 91.4275 113.727 91.8234 113.91C92.0873 114.039 92.3512 114.156 92.6273 114.26C94.3164 114.95 96.124 115.302 97.9484 115.297C101.566 115.301 105.051 113.934 107.701 111.471C110.351 109.008 111.97 105.633 112.232 102.025C112.493 98.4164 111.378 94.843 109.11 92.0241C106.842 89.2051 103.591 87.35 100.011 86.8322L100.054 86.8199ZM91.7006 110.755C91.6086 110.694 91.5226 110.639 91.4367 110.571C91.1774 110.406 90.9293 110.223 90.6941 110.025C90.6298 109.978 90.5683 109.926 90.51 109.872C90.2166 109.629 89.936 109.37 89.6692 109.098C90.3092 108.092 91.1264 107.211 92.0811 106.496L92.4125 106.263C92.5851 106.132 92.7677 106.015 92.9588 105.913C93.4794 105.595 94.0304 105.33 94.6036 105.121L95.1314 104.943C95.2066 104.987 95.2845 105.026 95.3646 105.06C95.4409 105.108 95.5235 105.145 95.6101 105.171L95.8556 105.269L96.1747 105.385C96.7705 105.571 97.3918 105.663 98.0159 105.655H98.2553C98.3288 105.661 98.4027 105.661 98.4762 105.655H98.6419C98.7217 105.655 98.8015 105.655 98.8813 105.655H98.9611H99.047C99.6902 105.553 100.312 105.346 100.888 105.042C103.128 105.705 105.061 107.14 106.344 109.092C105.26 110.205 103.964 111.088 102.532 111.691C101.101 112.294 99.5631 112.604 98.0098 112.603C96.9352 112.603 95.8656 112.456 94.8306 112.167C94.5176 112.069 94.2169 111.971 93.8978 111.86C93.7014 111.787 93.505 111.695 93.284 111.609L92.8422 111.394C92.7661 111.362 92.6923 111.325 92.6212 111.283C92.4862 111.21 92.3512 111.136 92.2223 111.056C92.0934 110.976 91.8663 110.86 91.7006 110.749V110.755ZM101.434 99.8617C101.437 99.919 101.437 99.9763 101.434 100.034C101.434 100.107 101.434 100.162 101.398 100.224C101.373 100.351 101.34 100.476 101.299 100.598C101.286 100.644 101.269 100.689 101.25 100.733C101.22 100.807 101.189 100.887 101.152 100.96C101.12 101.036 101.083 101.11 101.042 101.181C100.997 101.264 100.948 101.344 100.894 101.421L100.735 101.642C100.453 101.996 100.105 102.291 99.7098 102.513C99.6025 102.574 99.4919 102.63 99.3784 102.679L99.1268 102.783C98.952 102.837 98.7736 102.878 98.5928 102.906C98.496 102.927 98.3974 102.939 98.2982 102.943H98.0343C97.9321 102.949 97.8297 102.949 97.7275 102.943C97.6767 102.952 97.6247 102.952 97.574 102.943C97.3793 102.927 97.1874 102.885 97.0033 102.82C96.7997 102.765 96.6038 102.684 96.4202 102.581L96.1993 102.489C96.1399 102.457 96.0825 102.423 96.0274 102.384C95.9693 102.345 95.9139 102.302 95.8617 102.255C95.7518 102.172 95.6473 102.082 95.5487 101.985C95.2264 101.663 94.9709 101.28 94.7971 100.859C94.6233 100.438 94.5346 99.9861 94.5361 99.5303C94.5338 99.3244 94.5523 99.1188 94.5913 98.9166C94.5913 98.8614 94.5913 98.8123 94.5913 98.7693C94.5913 98.7263 94.6465 98.5484 94.6772 98.4502C94.6943 98.3802 94.719 98.3123 94.7509 98.2476C94.7509 98.1924 94.7938 98.1433 94.8184 98.0881C94.8791 97.9495 94.9509 97.8161 95.0332 97.6891C95.0719 97.6229 95.1149 97.5594 95.1621 97.4989C95.2383 97.3833 95.3268 97.2763 95.426 97.1797C95.4617 97.1341 95.5007 97.091 95.5426 97.0509C95.6695 96.9228 95.807 96.8058 95.9538 96.701L96.1195 96.5906C96.1842 96.5452 96.2519 96.5042 96.322 96.4678C96.5182 96.3631 96.7237 96.2768 96.9357 96.21C97.1222 96.1533 97.3132 96.1122 97.5065 96.0873H97.66C97.762 96.0779 97.8647 96.0779 97.9668 96.0873C98.2612 96.0874 98.5543 96.1266 98.8383 96.2039C98.8974 96.2189 98.955 96.2394 99.0102 96.2653C99.0499 96.2661 99.0884 96.2789 99.1206 96.3021C99.1823 96.3152 99.242 96.3358 99.2986 96.3635C99.3807 96.3952 99.4606 96.4321 99.538 96.4739L99.7896 96.6151L100.029 96.7808C100.125 96.8516 100.217 96.9274 100.305 97.0079C100.466 97.1531 100.61 97.3157 100.735 97.4927C100.787 97.5567 100.834 97.6244 100.876 97.6953C100.932 97.7769 100.981 97.8631 101.023 97.953C101.066 98.0328 101.109 98.1126 101.146 98.1985C101.201 98.3168 101.244 98.4402 101.275 98.5668C101.303 98.6469 101.326 98.729 101.342 98.8123L101.379 99.0209C101.383 99.0884 101.383 99.156 101.379 99.2235C101.385 99.3298 101.385 99.4363 101.379 99.5426C101.403 99.6479 101.422 99.7545 101.434 99.8617ZM108.026 106.852C106.746 105.15 105.057 103.799 103.116 102.924C103.793 101.92 104.154 100.736 104.153 99.5242C104.152 98.2589 103.76 97.0249 103.031 95.991C102.301 94.9572 101.27 94.1741 100.078 93.749C99.7441 93.6266 99.3987 93.5382 99.047 93.4851C98.7074 93.4181 98.362 93.3852 98.0159 93.3869C97.795 93.3869 97.5863 93.3869 97.4022 93.3869C96.4284 93.4944 95.4942 93.8321 94.6767 94.3721C93.8592 94.9121 93.182 95.6389 92.701 96.4924C92.5609 96.7478 92.4379 97.0123 92.3328 97.2841C92.0616 97.987 91.9222 98.7339 91.9216 99.4874C91.9153 99.5916 91.9153 99.6961 91.9216 99.8004C91.9212 100.427 92.0249 101.049 92.2284 101.642C92.3842 102.097 92.6032 102.529 92.879 102.924C91.443 103.567 90.1384 104.47 89.0309 105.588C88.6406 105.986 88.2758 106.408 87.9384 106.852C87.8358 106.685 87.7416 106.513 87.6561 106.337C86.9368 104.951 86.5086 103.432 86.398 101.875C86.398 101.586 86.3611 101.261 86.3611 100.973C86.3603 100.583 86.3808 100.194 86.4225 99.8065C86.5803 98.3042 87.0241 96.846 87.7298 95.5104C89.0591 93.0331 91.2386 91.1194 93.8671 90.1218C95.1813 89.6169 96.5774 89.3589 97.9852 89.3608C98.3294 89.3565 98.6736 89.3708 99.0163 89.4037C99.3628 89.4309 99.7072 89.4801 100.047 89.551C101.892 89.8786 103.63 90.6477 105.113 91.7925C106.596 92.9373 107.78 94.424 108.563 96.1255C109.347 97.827 109.708 99.693 109.614 101.564C109.521 103.435 108.976 105.256 108.026 106.871V106.852Z" fill="#1C2D6B"/>
<path d="M101.434 99.524C101.44 99.6364 101.44 99.7491 101.434 99.8615C101.436 99.9188 101.436 99.9761 101.434 100.033C101.434 100.107 101.434 100.162 101.397 100.224C101.372 100.35 101.339 100.475 101.299 100.598C101.285 100.644 101.269 100.689 101.25 100.733C101.219 100.807 101.188 100.886 101.151 100.96C101.12 101.036 101.083 101.11 101.041 101.181C100.996 101.264 100.947 101.343 100.894 101.42L100.734 101.641C100.452 101.995 100.104 102.291 99.7091 102.513C99.6018 102.574 99.4911 102.63 99.3777 102.679L99.126 102.783C98.9513 102.837 98.7728 102.878 98.5921 102.906C98.4952 102.927 98.3966 102.939 98.2975 102.942H98.0336C97.9314 102.949 97.8289 102.949 97.7267 102.942C97.676 102.952 97.624 102.952 97.5733 102.942C97.1702 102.891 96.7795 102.769 96.4195 102.58L96.1985 102.488C96.1391 102.457 96.0817 102.422 96.0267 102.384C95.9686 102.345 95.9132 102.302 95.861 102.255C95.7511 102.172 95.6466 102.082 95.548 101.985C95.2256 101.663 94.9702 101.28 94.7964 100.859C94.6226 100.437 94.5339 99.9859 94.5353 99.5301C94.5331 99.3242 94.5516 99.1186 94.5906 98.9164C94.5906 98.8612 94.5906 98.8121 94.5906 98.7691C94.5906 98.7261 94.6458 98.5482 94.6765 98.45C94.6936 98.38 94.7183 98.3121 94.7501 98.2474C94.7501 98.1922 94.7931 98.1431 94.8177 98.0879C94.8783 97.9493 94.9502 97.8159 95.0325 97.6889C95.0712 97.6227 95.1142 97.5592 95.1613 97.4987C95.2376 97.3831 95.326 97.2761 95.4252 97.1795C95.461 97.1339 95.5 97.0908 95.5419 97.0507C95.6688 96.9226 95.8063 96.8056 95.9531 96.7008L96.1188 96.5904C96.1835 96.545 96.2511 96.504 96.3213 96.4676C96.5175 96.3629 96.7229 96.2766 96.935 96.2098C97.1215 96.1531 97.3124 96.112 97.5058 96.0871H97.6592C97.7613 96.0777 97.864 96.0777 97.9661 96.0871C98.2605 96.0872 98.5535 96.1264 98.8376 96.2037C98.8967 96.2187 98.9542 96.2392 99.0094 96.2651C99.0491 96.2659 99.0877 96.2787 99.1199 96.3019C99.1815 96.315 99.2413 96.3356 99.2979 96.3633C99.3799 96.395 99.4599 96.4319 99.5373 96.4737L99.7889 96.6149L100.028 96.7806C100.124 96.8514 100.216 96.9272 100.304 97.0077C100.465 97.1529 100.609 97.3155 100.734 97.4925C100.786 97.5565 100.833 97.6242 100.875 97.6951C100.931 97.7767 100.981 97.8629 101.022 97.9528C101.065 98.0326 101.108 98.1124 101.145 98.1983C101.2 98.3166 101.243 98.44 101.274 98.5666C101.302 98.6467 101.325 98.7288 101.342 98.8121L101.378 99.0207C101.382 99.0882 101.382 99.1558 101.378 99.2233C101.403 99.3224 101.421 99.4228 101.434 99.524Z" fill="#6287C5"/>
<path d="M109.626 100.966C109.627 103.036 109.074 105.068 108.024 106.852C106.745 105.15 105.056 103.799 103.114 102.924C103.791 101.919 104.152 100.735 104.151 99.524C104.15 98.2587 103.758 97.0247 103.029 95.9909C102.299 94.957 101.268 94.1739 100.076 93.7488C99.7424 93.6264 99.3969 93.538 99.0452 93.4849C98.7057 93.4179 98.3603 93.385 98.0142 93.3867C97.7932 93.3867 97.5846 93.3867 97.4004 93.3867C96.4266 93.4942 95.4924 93.8319 94.675 94.3719C93.8575 94.9119 93.1803 95.6387 92.6992 96.4922C92.5592 96.7477 92.4361 97.0121 92.331 97.2839C92.0599 97.9869 91.9205 98.7337 91.9198 99.4872C91.9136 99.5914 91.9136 99.696 91.9198 99.8002C91.9195 100.427 92.0232 101.049 92.2267 101.641C92.3825 102.097 92.6014 102.529 92.8772 102.924C91.4413 103.567 90.1366 104.47 89.0291 105.588C88.6389 105.986 88.274 106.408 87.9367 106.852C87.834 106.685 87.7398 106.513 87.6544 106.336C86.935 104.951 86.5069 103.432 86.3962 101.875C86.3962 101.586 86.3594 101.261 86.3594 100.972C86.3586 100.583 86.3791 100.194 86.4208 99.8063C86.5786 98.304 87.0223 96.8458 87.728 95.5102C89.0573 93.0329 91.2369 91.1193 93.8653 90.1216C95.1795 89.6167 96.5756 89.3587 97.9835 89.3606C98.3277 89.3563 98.6719 89.3706 99.0146 89.4036C99.361 89.4307 99.7054 89.4799 100.046 89.5509C102.724 90.0365 105.148 91.4436 106.897 93.5284C108.647 95.6133 109.612 98.2445 109.626 100.966Z" fill="#B9CBEA"/>
<path d="M98.9353 105.557C98.7121 106.135 98.4496 106.697 98.1497 107.239C98.0577 107.41 97.9472 107.588 97.8367 107.754C97.7263 107.92 97.5544 108.196 97.4071 108.405C97.3092 108.561 97.2006 108.711 97.0819 108.853C96.9223 109.055 96.7689 109.252 96.597 109.466C96.4252 109.681 96.2656 109.841 96.0876 110.025C95.9096 110.209 95.7501 110.369 95.5721 110.522C95.2713 110.804 94.9583 111.068 94.6208 111.326C94.4842 111.439 94.3407 111.544 94.1912 111.639C94.0868 111.719 93.9702 111.792 93.8659 111.86L93.2522 111.608L92.841 111.394C92.7649 111.362 92.6911 111.325 92.62 111.283C92.485 111.209 92.35 111.136 92.2211 111.056C92.0922 110.976 91.8713 110.86 91.7056 110.749C91.5399 110.639 91.5276 110.633 91.4417 110.565C91.1824 110.399 90.9343 110.217 90.699 110.019L90.5088 109.853C90.2154 109.61 89.9348 109.352 89.668 109.08C90.308 108.074 91.1252 107.192 92.0799 106.478L92.4114 106.244C92.5868 106.118 92.7692 106.001 92.9576 105.895C93.4783 105.577 94.0292 105.312 94.6024 105.103L95.1302 104.925C95.2054 104.969 95.2833 105.007 95.3634 105.041C95.4403 105.088 95.5228 105.125 95.6089 105.152L95.8544 105.25L96.1735 105.367C96.7693 105.553 97.3906 105.644 98.0147 105.637H98.2541C98.3276 105.643 98.4015 105.643 98.475 105.637H98.6407C98.7204 105.643 98.8004 105.643 98.8801 105.637L98.9353 105.557Z" fill="#89AADB"/>
</svg>
