<svg width="125" height="125" viewBox="0 0 125 125" fill="none" xmlns="http://www.w3.org/2000/svg">
<g clip-path="url(#clip0)">
<path d="M49.1198 114.902V12.8271C49.1198 11.9155 49.8585 11.1768 50.7702 11.1768H26.2352C24.7658 11.1768 23.5742 12.3684 23.5742 13.8378V113.891C23.5742 115.361 24.7658 116.552 26.2352 116.552H50.7702C49.8585 116.552 49.1198 115.814 49.1198 114.902Z" fill="#EF7F72"/>
<path d="M103.957 11.1768H79.4219C80.3335 11.1768 81.0722 11.9155 81.0722 12.8271V114.902C81.0722 115.814 80.3335 116.552 79.4219 116.552H103.957C105.426 116.552 106.618 115.361 106.618 113.891V13.8378C106.618 12.3684 105.426 11.1768 103.957 11.1768Z" fill="#E8383B"/>
<path d="M81.0922 114.902V12.8271C81.0922 11.9155 80.3535 11.1768 79.4418 11.1768H50.8105C49.8988 11.1768 49.1602 11.9155 49.1602 12.8271V114.902C49.1602 115.814 49.8988 116.552 50.8105 116.552H79.4418C80.3535 116.552 81.0922 115.814 81.0922 114.902Z" fill="#E95947"/>
<path d="M103.959 118.148H26.2576C23.9101 118.148 22 116.238 22 113.89V13.8367C22 11.4892 23.9101 9.5791 26.2576 9.5791H103.959C106.306 9.5791 108.216 11.4892 108.216 13.8367V113.89C108.216 116.238 106.306 118.148 103.959 118.148ZM26.2576 12.7723C25.6706 12.7723 25.1932 13.2497 25.1932 13.8367V113.89C25.1932 114.477 25.6706 114.955 26.2576 114.955H103.959C104.546 114.955 105.023 114.477 105.023 113.89V13.8367C105.023 13.2497 104.546 12.7723 103.959 12.7723H26.2576Z" fill="#1C2D6B"/>
<path d="M33.1719 20.7563H52.2555V106.973H33.1719V20.7563Z" fill="#89AADB"/>
<path d="M77.9609 20.7563H97.0446V106.973H77.9609V20.7563Z" fill="#4B67B0"/>
<path d="M52.2773 20.7563H77.9741V106.973H52.2773V20.7563Z" fill="#6287C5"/>
<path d="M97.0583 108.569H33.1943C32.3124 108.569 31.5977 107.854 31.5977 106.972V20.7558C31.5977 19.8739 32.3124 19.1592 33.1943 19.1592H97.0583C97.9401 19.1592 98.6549 19.8739 98.6549 20.7558V106.972C98.6549 107.854 97.9401 108.569 97.0583 108.569ZM34.7909 105.376H95.4617V22.3524H34.7909V105.376Z" fill="#1C2D6B"/>
<path d="M42.7734 39.915H55.5462V52.6878H42.7734V39.915Z" fill="#EEE045"/>
<path d="M42.7734 62.2666H55.5462V75.0394H42.7734V62.2666Z" fill="#EEE045"/>
<path d="M42.7734 84.6206H55.5462V97.3934H42.7734V84.6206Z" fill="#EEE045"/>
<path d="M55.5178 54.2824H42.745C41.8632 54.2824 41.1484 53.5677 41.1484 52.6858V39.913C41.1484 39.0312 41.8632 38.3164 42.745 38.3164H55.5178C56.3997 38.3164 57.1144 39.0312 57.1144 39.913V52.6858C57.1144 53.5677 56.3997 54.2824 55.5178 54.2824ZM44.3416 51.0892H53.9212V41.5096H44.3416V51.0892Z" fill="#1C2D6B"/>
<path d="M55.5178 76.6398H42.745C41.8632 76.6398 41.1484 75.9251 41.1484 75.0432V62.2704C41.1484 61.3886 41.8632 60.6738 42.745 60.6738H55.5178C56.3997 60.6738 57.1144 61.3886 57.1144 62.2704V75.0432C57.1144 75.9251 56.3997 76.6398 55.5178 76.6398ZM44.3416 73.4466H53.9212V63.867H44.3416V73.4466Z" fill="#1C2D6B"/>
<path d="M55.5178 98.9894H42.745C41.8632 98.9894 41.1484 98.2747 41.1484 97.3928V84.62C41.1484 83.7382 41.8632 83.0234 42.745 83.0234H55.5178C56.3997 83.0234 57.1144 83.7382 57.1144 84.62V97.3928C57.1144 98.2747 56.3997 98.9894 55.5178 98.9894ZM44.3416 95.7962H53.9212V86.2166H44.3416V95.7962Z" fill="#1C2D6B"/>
<path d="M87.4451 43.1107H65.0927C64.2108 43.1107 63.4961 42.3959 63.4961 41.5141C63.4961 40.6322 64.2108 39.9175 65.0927 39.9175H87.4451C88.3269 39.9175 89.0417 40.6322 89.0417 41.5141C89.0417 42.3959 88.3269 43.1107 87.4451 43.1107Z" fill="#1C2D6B"/>
<path d="M87.4451 52.6898H65.0927C64.2108 52.6898 63.4961 51.975 63.4961 51.0932C63.4961 50.2113 64.2108 49.4966 65.0927 49.4966H87.4451C88.3269 49.4966 89.0417 50.2113 89.0417 51.0932C89.0417 51.975 88.3269 52.6898 87.4451 52.6898Z" fill="#1C2D6B"/>
<path d="M87.4451 65.4608H65.0927C64.2108 65.4608 63.4961 64.746 63.4961 63.8642C63.4961 62.9823 64.2108 62.2676 65.0927 62.2676H87.4451C88.3269 62.2676 89.0417 62.9823 89.0417 63.8642C89.0417 64.746 88.3269 65.4608 87.4451 65.4608Z" fill="#1C2D6B"/>
<path d="M87.4451 75.0399H65.0927C64.2108 75.0399 63.4961 74.3251 63.4961 73.4433C63.4961 72.5614 64.2108 71.8467 65.0927 71.8467H87.4451C88.3269 71.8467 89.0417 72.5614 89.0417 73.4433C89.0417 74.3251 88.3269 75.0399 87.4451 75.0399Z" fill="#1C2D6B"/>
<path d="M87.4451 87.8143H65.0927C64.2108 87.8143 63.4961 87.0995 63.4961 86.2177C63.4961 85.3358 64.2108 84.6211 65.0927 84.6211H87.4451C88.3269 84.6211 89.0417 85.3358 89.0417 86.2177C89.0417 87.0995 88.3269 87.8143 87.4451 87.8143Z" fill="#1C2D6B"/>
<path d="M87.4451 97.3939H65.0927C64.2108 97.3939 63.4961 96.6791 63.4961 95.7973C63.4961 94.9154 64.2108 94.2007 65.0927 94.2007H87.4451C88.3269 94.2007 89.0417 94.9154 89.0417 95.7973C89.0417 96.6791 88.3269 97.3939 87.4451 97.3939Z" fill="#1C2D6B"/>
<path d="M50.2866 49.4943C49.8725 49.4943 49.4729 49.3331 49.1738 49.0425L46.046 46.0015C45.4138 45.3868 45.3999 44.3762 46.0141 43.7439C46.6283 43.1117 47.6394 43.0973 48.2717 43.712L50.0923 45.4826L58.5011 34.1728C59.0269 33.4655 60.0264 33.3181 60.7353 33.8439C61.4431 34.3703 61.59 35.3703 61.0642 36.0781L51.5676 48.8509C51.293 49.2202 50.8725 49.4528 50.4138 49.4895C50.3712 49.4922 50.3286 49.4943 50.2866 49.4943Z" fill="#1C2D6B"/>
<path d="M50.2866 71.8437C49.8725 71.8437 49.4729 71.6825 49.1738 71.3919L46.046 68.3509C45.4138 67.7362 45.3999 66.7255 46.0141 66.0933C46.6283 65.461 47.6394 65.4467 48.2717 66.0614L50.0923 67.832L58.5011 56.5222C59.0269 55.8149 60.0264 55.668 60.7353 56.1933C61.4431 56.7196 61.59 57.7197 61.0642 58.4275L51.5676 71.2003C51.293 71.5696 50.8725 71.8022 50.4138 71.8389C50.3712 71.8416 50.3286 71.8437 50.2866 71.8437Z" fill="#1C2D6B"/>
<path d="M50.2866 94.1994C49.8725 94.1994 49.4729 94.0381 49.1738 93.7476L46.046 90.7066C45.4138 90.0919 45.3999 89.0812 46.0141 88.449C46.6283 87.8167 47.6394 87.8023 48.2717 88.417L50.0923 90.1877L58.5011 78.8779C59.0269 78.1706 60.0264 78.0232 60.7353 78.549C61.4431 79.0753 61.59 80.0753 61.0642 80.7832L51.5676 93.556C51.293 93.9253 50.8725 94.1579 50.4138 94.1946C50.3712 94.1973 50.3286 94.1994 50.2866 94.1994Z" fill="#1C2D6B"/>
<path d="M74.695 7.98242V21.8196C74.695 24.759 73.8014 27.1416 72.6992 27.1416H85.339C88.2783 27.1416 90.661 24.759 90.661 21.8196V7.98242H74.695Z" fill="#419B46"/>
<path d="M66.8821 6.38697V7.98357H69.8757V6.38697C69.8757 3.7414 67.7315 1.59717 65.0859 1.59717C66.078 1.59717 66.8821 3.7414 66.8821 6.38697Z" fill="#419B46"/>
<path d="M63.2983 6.38697C63.2983 3.7414 64.1025 1.59717 65.0945 1.59717C62.4489 1.59717 60.3047 3.7414 60.3047 6.38697V7.98357H63.2983V6.38697Z" fill="#A4D4A0"/>
<path d="M55.5285 21.8196V7.98242H39.5625V21.8196C39.5625 24.759 41.9452 27.1416 44.8845 27.1416H57.5243C56.4221 27.1416 55.5285 24.759 55.5285 21.8196Z" fill="#A4D4A0"/>
<path d="M74.71 21.8208V7.98357H69.9202H66.9266V6.38697C66.9266 3.7414 66.1224 1.59717 65.1304 1.59717C64.1384 1.59717 63.3342 3.7414 63.3342 6.38697V7.98357H60.3406H55.5508V21.8208C55.5508 24.7601 56.4443 27.1428 57.5465 27.1428H72.7142C73.8164 27.1428 74.71 24.7601 74.71 21.8208Z" fill="#65BC49"/>
<path d="M85.3541 28.7388H44.9069C41.0921 28.7388 37.9883 25.635 37.9883 21.8202V7.983C37.9883 7.10114 38.703 6.3864 39.5849 6.3864H58.7441C58.7441 2.86483 61.6089 0 65.1305 0C68.6521 0 71.5169 2.86483 71.5169 6.3864H90.6761C91.5579 6.3864 92.2727 7.10114 92.2727 7.983V21.8202C92.2727 25.635 89.1689 28.7388 85.3541 28.7388ZM41.1815 9.5796V21.8202C41.1815 23.8745 42.8526 25.5456 44.9069 25.5456H85.3541C87.4084 25.5456 89.0795 23.8745 89.0795 21.8202V9.5796H69.9203C69.0384 9.5796 68.3237 8.86485 68.3237 7.983V6.3864C68.3237 4.62535 66.8915 3.1932 65.1305 3.1932C63.3694 3.1932 61.9373 4.62535 61.9373 6.3864V7.983C61.9373 8.86485 61.2225 9.5796 60.3407 9.5796H41.1815Z" fill="#1C2D6B"/>
<path d="M109.955 108.984C108.779 110.232 107.373 111.223 105.82 111.899C104.267 112.576 102.599 112.923 100.914 112.922C99.7481 112.922 98.5878 112.758 97.4651 112.433C97.1256 112.323 96.7993 112.213 96.4531 112.089C96.5663 112.013 96.6928 111.93 96.806 111.841C96.9682 111.734 97.1238 111.617 97.272 111.49C97.6316 111.201 97.9778 110.905 98.304 110.588C98.4971 110.416 98.6768 110.223 98.8633 110.03C99.0497 109.837 99.2361 109.617 99.4159 109.404C99.5956 109.19 99.7687 108.97 99.9418 108.715C100.071 108.556 100.189 108.388 100.295 108.213C100.462 107.978 100.618 107.734 100.761 107.483C100.881 107.297 101 107.097 101.1 106.905C101.414 106.296 101.688 105.665 101.919 105.018H102.012C102.71 104.903 103.385 104.671 104.01 104.33C106.466 105.096 108.575 106.747 109.955 108.984Z" fill="#6287C5"/>
<path d="M121.051 98.2842C120.224 98.2839 119.417 98.022 118.747 97.5359C118.077 97.0498 117.577 96.3645 117.32 95.5777C117.056 94.7711 116.731 93.9854 116.35 93.2271C115.977 92.491 115.846 91.6554 115.977 90.8405C116.109 90.0256 116.495 89.2732 117.081 88.6916C117.316 88.4517 117.448 88.1288 117.448 87.7925C117.448 87.4561 117.316 87.1332 117.081 86.8933L115.068 84.8864C114.951 84.7695 114.812 84.6768 114.659 84.6135C114.507 84.5502 114.343 84.5177 114.178 84.5177C114.012 84.5177 113.849 84.5502 113.696 84.6135C113.543 84.6768 113.405 84.7695 113.288 84.8864C112.705 85.4778 111.949 85.8685 111.129 86.002C110.309 86.1355 109.468 86.0049 108.728 85.6291C107.971 85.2563 107.188 84.9423 106.383 84.69C105.596 84.427 104.911 83.9226 104.426 83.2484C103.941 82.5742 103.681 81.7644 103.683 80.934C103.664 80.6071 103.523 80.2991 103.288 80.0716C103.052 79.8441 102.74 79.7137 102.412 79.7065H99.5769C99.2479 79.7064 98.9318 79.8345 98.6957 80.0637C98.4596 80.2929 98.3222 80.6051 98.3126 80.934C98.3133 81.7659 98.0514 82.5768 97.5643 83.2512C97.0773 83.9256 96.3898 84.4291 95.5999 84.69C94.792 84.9506 94.006 85.2748 93.2493 85.6597C92.5108 86.0312 91.6737 86.1594 90.8579 86.026C90.0421 85.8926 89.2894 85.5045 88.7077 84.9171C88.4689 84.6817 88.147 84.5498 87.8117 84.5498C87.4763 84.5498 87.1545 84.6817 86.9156 84.9171L86.1607 85.6659L84.9333 86.924C84.815 87.042 84.7213 87.1822 84.6573 87.3365C84.5933 87.4907 84.5604 87.6561 84.5604 87.8232C84.5604 87.9902 84.5933 88.1556 84.6573 88.3098C84.7213 88.4641 84.815 88.6043 84.9333 88.7223C85.5209 89.3025 85.9094 90.0541 86.0428 90.8691C86.1763 91.6841 86.0478 92.5204 85.6759 93.2577C85.3051 93.9881 84.9891 94.7451 84.7307 95.5224C84.7307 95.5531 84.7307 95.5838 84.7307 95.6083C84.6462 95.8598 84.5372 96.1023 84.4054 96.3325C84.0568 96.9327 83.5574 97.4314 82.9567 97.7791C82.356 98.1268 81.6749 98.3115 80.9808 98.3149C80.646 98.3181 80.326 98.4534 80.0904 98.6913C79.8548 98.9292 79.7227 99.2505 79.7227 99.5853V102.421C79.7219 102.587 79.7538 102.751 79.8166 102.905C79.8793 103.059 79.9718 103.199 80.0886 103.317C80.2055 103.435 80.3444 103.528 80.4975 103.593C80.6505 103.657 80.8148 103.69 80.9808 103.691C81.6758 103.69 82.3586 103.873 82.96 104.221C83.5615 104.569 84.0601 105.07 84.4054 105.674C84.5372 105.904 84.6462 106.146 84.7307 106.398C84.9635 107.117 85.2486 107.819 85.5838 108.497C85.6198 108.583 85.6608 108.667 85.7066 108.748C86.078 109.487 86.2063 110.324 86.0729 111.14C85.9395 111.956 85.5513 112.708 84.9639 113.29C84.7275 113.527 84.5946 113.848 84.5946 114.183C84.5946 114.518 84.7275 114.839 84.9639 115.076L85.5777 115.69L86.6026 116.727L86.9647 117.083C87.2036 117.318 87.5254 117.45 87.8608 117.45C88.1961 117.45 88.518 117.318 88.7568 117.083C88.8892 116.954 89.0307 116.835 89.1803 116.727C89.605 116.377 90.1017 116.126 90.6348 115.99C90.9114 115.919 91.1961 115.884 91.4818 115.886C91.8988 115.886 92.3131 115.952 92.7092 116.082C92.8975 116.148 93.0819 116.223 93.2616 116.31L93.4519 116.408C94.1518 116.746 94.8735 117.037 95.6122 117.279C96.3959 117.544 97.0765 118.049 97.5577 118.722C98.039 119.395 98.2966 120.202 98.2942 121.029C98.2934 121.196 98.3255 121.361 98.3887 121.515C98.4519 121.669 98.5449 121.809 98.6623 121.927C98.7798 122.045 98.9195 122.139 99.0732 122.203C99.227 122.267 99.3919 122.3 99.5585 122.3H102.394C102.731 122.3 103.054 122.166 103.292 121.927C103.531 121.689 103.664 121.366 103.664 121.029C103.666 120.202 103.927 119.396 104.412 118.725C104.896 118.054 105.58 117.553 106.365 117.292C107.176 117.03 107.966 116.706 108.728 116.322C109.465 115.948 110.301 115.817 111.117 115.948C111.933 116.08 112.687 116.466 113.269 117.052C113.386 117.169 113.525 117.262 113.678 117.325C113.83 117.388 113.994 117.421 114.159 117.421C114.324 117.421 114.488 117.388 114.641 117.325C114.794 117.262 114.932 117.169 115.049 117.052L117.062 115.045C117.299 114.808 117.431 114.487 117.431 114.152C117.431 113.817 117.299 113.496 117.062 113.259C116.476 112.677 116.09 111.923 115.958 111.107C115.827 110.291 115.958 109.455 116.332 108.718C116.718 107.959 117.049 107.174 117.32 106.367C117.578 105.58 118.079 104.894 118.75 104.408C119.421 103.922 120.229 103.661 121.058 103.661C121.225 103.661 121.39 103.629 121.545 103.565C121.699 103.502 121.84 103.408 121.958 103.29C122.076 103.172 122.169 103.032 122.233 102.877C122.296 102.723 122.329 102.557 122.328 102.39V99.5546C122.328 99.3873 122.295 99.2216 122.231 99.0671C122.166 98.9125 122.072 98.7722 121.954 98.6541C121.835 98.5361 121.694 98.4426 121.539 98.3792C121.385 98.3157 121.219 98.2834 121.051 98.2842ZM100.988 115.285C99.1641 115.289 97.3565 114.937 95.6674 114.247C95.3913 114.143 95.1273 114.026 94.8634 113.898C94.4676 113.715 94.0824 113.51 93.7096 113.284C93.3664 113.086 93.0344 112.868 92.7154 112.633C91.9677 112.102 91.2748 111.498 90.6471 110.829C88.3201 108.403 86.9284 105.23 86.7192 101.875C86.7192 101.58 86.7192 101.261 86.7192 100.972C86.7192 100.684 86.7192 100.199 86.7683 99.8063C86.8197 99.0561 86.9305 98.3111 87.0997 97.5784C87.2709 96.8726 87.4967 96.1811 87.7748 95.5101C88.8571 92.8967 90.689 90.6621 93.0394 89.0882C95.3898 87.5144 98.1536 86.6716 100.982 86.6663C101.332 86.6663 101.676 86.6663 102.013 86.7092C102.351 86.7522 102.707 86.7706 103.044 86.8197C106.625 87.3375 109.876 89.1926 112.144 92.0116C114.412 94.8305 115.527 98.4039 115.266 102.012C115.004 105.621 113.385 108.996 110.735 111.459C108.085 113.921 104.6 115.288 100.982 115.285H100.988Z" fill="#B9CBEA"/>
<path d="M121.054 95.6145C120.789 95.6131 120.531 95.5281 120.317 95.3716C120.103 95.2151 119.945 94.9951 119.863 94.743C119.55 93.8215 119.173 92.9232 118.734 92.0549C118.615 91.8171 118.574 91.548 118.617 91.2858C118.66 91.0236 118.785 90.7816 118.973 90.5942C119.707 89.8549 120.119 88.8556 120.119 87.814C120.119 86.7724 119.707 85.773 118.973 85.0338L116.96 83.0207C116.221 82.2835 115.22 81.8695 114.177 81.8695C113.133 81.8695 112.132 82.2835 111.394 83.0207C111.212 83.2134 110.972 83.342 110.711 83.3873C110.45 83.4327 110.181 83.3924 109.945 83.2723C109.072 82.8226 108.165 82.4409 107.232 82.1308C106.977 82.0548 106.753 81.8974 106.594 81.6825C106.436 81.4677 106.352 81.2071 106.355 80.9402C106.354 80.0064 106.022 79.1032 105.417 78.3917C104.812 77.6801 103.974 77.2065 103.053 77.0552C102.85 77.0197 102.645 77.0012 102.439 77H99.5792C99.0616 76.9992 98.5489 77.1006 98.0704 77.2983C97.592 77.496 97.1574 77.7862 96.7913 78.1522C96.4253 78.5183 96.1351 78.953 95.9374 79.4314C95.7396 79.9098 95.6383 80.4225 95.6391 80.9402C95.6421 81.2071 95.5581 81.4677 95.3997 81.6825C95.2414 81.8974 95.0173 82.0548 94.7614 82.1308C93.8287 82.4398 92.9217 82.8215 92.0487 83.2723C91.8105 83.388 91.5419 83.426 91.2809 83.3809C91.0199 83.3357 90.7797 83.2097 90.5942 83.0207C89.8534 82.2898 88.8546 81.8801 87.814 81.8801C86.7734 81.8801 85.7746 82.2898 85.0338 83.0207L84.3525 83.702L83.0207 85.0338C82.2839 85.7714 81.8701 86.7714 81.8701 87.814C81.8701 88.8566 82.2839 89.8565 83.0207 90.5942C83.2101 90.7809 83.3357 91.0226 83.3798 91.2848C83.4239 91.547 83.3841 91.8165 83.2662 92.0549C82.8189 92.9287 82.4393 93.8356 82.1308 94.7676C82.0791 94.9319 81.9933 95.0835 81.8791 95.2125C81.7649 95.3415 81.6248 95.445 81.468 95.5163C81.3038 95.5972 81.1232 95.6392 80.9402 95.639C80.2545 95.6385 79.5806 95.8172 78.9853 96.1574C78.39 96.4976 77.8939 96.9874 77.5463 97.5784C77.1862 98.1813 76.9973 98.8709 77 99.5731V102.409C77 103.454 77.415 104.457 78.1537 105.197C78.8925 105.937 79.8946 106.353 80.9402 106.355C81.2071 106.352 81.4677 106.436 81.6826 106.594C81.8974 106.753 82.0548 106.977 82.1308 107.232C82.3793 107.972 82.6724 108.695 83.0085 109.399C83.0883 109.583 83.1742 109.767 83.2662 109.939C83.387 110.175 83.4283 110.443 83.3841 110.704C83.3399 110.965 83.2124 111.205 83.0207 111.387C82.4694 111.939 82.0941 112.641 81.9422 113.406C81.7904 114.171 81.8688 114.963 82.1677 115.684C82.3099 116.029 82.5022 116.352 82.7384 116.641C82.7569 116.669 82.7774 116.696 82.7998 116.721C82.8653 116.798 82.9389 116.878 83.0207 116.96L83.8125 117.752L85.0399 118.979C85.7791 119.713 86.7785 120.125 87.8201 120.125C88.8617 120.125 89.8611 119.713 90.6003 118.979C90.7834 118.786 91.0243 118.658 91.2866 118.614C91.549 118.569 91.8186 118.612 92.0549 118.734C92.9293 119.178 93.8362 119.556 94.7676 119.863C95.0234 119.939 95.2475 120.096 95.4059 120.311C95.5642 120.526 95.6483 120.787 95.6452 121.054C95.6444 121.572 95.7457 122.085 95.9434 122.563C96.141 123.042 96.4311 123.477 96.7971 123.844C97.163 124.21 97.5977 124.501 98.0761 124.699C98.5546 124.898 99.0674 125 99.5854 125H102.421C103.466 124.998 104.469 124.582 105.207 123.842C105.946 123.102 106.361 122.099 106.361 121.054C106.358 120.787 106.442 120.526 106.6 120.311C106.759 120.096 106.983 119.939 107.239 119.863C108.172 119.547 109.081 119.161 109.957 118.709C110.193 118.588 110.461 118.547 110.722 118.591C110.983 118.636 111.223 118.763 111.406 118.955C112.146 119.689 113.147 120.101 114.189 120.101C115.232 120.101 116.232 119.689 116.972 118.955L118.985 116.936C119.352 116.571 119.643 116.137 119.841 115.659C120.04 115.182 120.142 114.669 120.142 114.152C120.142 113.635 120.04 113.123 119.841 112.645C119.643 112.168 119.352 111.734 118.985 111.369C118.795 111.186 118.669 110.946 118.625 110.685C118.582 110.424 118.625 110.156 118.746 109.921C119.184 109.045 119.561 108.141 119.875 107.214C119.951 106.958 120.109 106.734 120.324 106.576C120.538 106.417 120.799 106.333 121.066 106.336C122.111 106.333 123.112 105.916 123.851 105.177C124.589 104.437 125.005 103.435 125.006 102.39V99.5547C125.006 99.0362 124.904 98.5228 124.705 98.044C124.506 97.5651 124.215 97.1302 123.848 96.7642C123.481 96.3982 123.045 96.1082 122.565 95.9109C122.086 95.7136 121.572 95.6129 121.054 95.6145ZM122.324 102.366C122.325 102.533 122.293 102.698 122.229 102.853C122.166 103.007 122.072 103.148 121.954 103.266C121.836 103.384 121.695 103.477 121.541 103.541C121.386 103.604 121.221 103.637 121.054 103.636C120.223 103.639 119.415 103.905 118.744 104.395C118.074 104.886 117.576 105.576 117.322 106.367C117.057 107.173 116.733 107.959 116.353 108.718C115.979 109.455 115.848 110.291 115.979 111.107C116.11 111.923 116.497 112.677 117.083 113.259C117.319 113.496 117.452 113.817 117.452 114.152C117.452 114.487 117.319 114.808 117.083 115.045L115.07 117.052C114.953 117.169 114.814 117.262 114.662 117.325C114.509 117.388 114.345 117.421 114.18 117.421C114.015 117.421 113.851 117.388 113.698 117.325C113.546 117.262 113.407 117.169 113.29 117.052C112.707 116.466 111.954 116.08 111.138 115.948C110.322 115.817 109.485 115.948 108.748 116.322C107.989 116.706 107.201 117.03 106.392 117.292C105.607 117.553 104.923 118.054 104.439 118.725C103.954 119.396 103.693 120.202 103.691 121.029C103.691 121.366 103.557 121.689 103.319 121.927C103.081 122.166 102.758 122.3 102.421 122.3H99.5792C99.4111 122.302 99.2443 122.271 99.0883 122.208C98.9324 122.145 98.7906 122.052 98.6711 121.934C98.5517 121.815 98.457 121.674 98.3927 121.519C98.3284 121.364 98.2957 121.197 98.2965 121.029C98.2942 120.2 98.031 119.393 97.544 118.722C97.0571 118.051 96.3713 117.551 95.5838 117.292C94.8451 117.049 94.1234 116.758 93.4235 116.42L93.2332 116.322C93.0536 116.236 92.8692 116.16 92.6809 116.095C92.2847 115.965 91.8704 115.898 91.4534 115.898C91.1678 115.896 90.8831 115.931 90.6065 116.003C90.0597 116.119 89.5459 116.356 89.1028 116.696C88.9533 116.804 88.8117 116.923 88.6794 117.052C88.4405 117.288 88.1186 117.419 87.7833 117.419C87.448 117.419 87.1261 117.288 86.8873 117.052L86.5252 116.696L85.5002 115.659L84.8865 115.045C84.65 114.808 84.5172 114.487 84.5172 114.152C84.5172 113.817 84.65 113.496 84.8865 113.259C85.4738 112.678 85.862 111.925 85.9954 111.109C86.1288 110.293 86.0006 109.456 85.6291 108.718C85.5833 108.636 85.5423 108.552 85.5064 108.466C85.1712 107.788 84.8861 107.087 84.6533 106.367C84.5687 106.116 84.4598 105.873 84.328 105.643C83.9827 105.04 83.484 104.539 82.8826 104.191C82.2811 103.842 81.5983 103.66 80.9034 103.661C80.7373 103.66 80.5731 103.626 80.42 103.562C80.2669 103.498 80.128 103.404 80.0112 103.286C79.8943 103.168 79.8019 103.028 79.7391 102.874C79.6763 102.721 79.6444 102.556 79.6452 102.39V99.5547C79.6452 99.2198 79.7774 98.8985 80.013 98.6606C80.2486 98.4227 80.5686 98.2875 80.9034 98.2842C81.5974 98.2808 82.2786 98.0961 82.8793 97.7484C83.48 97.4007 83.9794 96.902 84.328 96.3019C84.4598 96.0717 84.5687 95.8291 84.6533 95.5777C84.6533 95.5777 84.6533 95.5224 84.6533 95.4918C84.9117 94.7145 85.2276 93.9575 85.5984 93.2271C85.9703 92.4897 86.0988 91.6534 85.9654 90.8385C85.8319 90.0235 85.4435 89.2718 84.8558 88.6916C84.7376 88.5736 84.6438 88.4335 84.5798 88.2792C84.5158 88.1249 84.4829 87.9595 84.4829 87.7925C84.4829 87.6255 84.5158 87.4601 84.5798 87.3058C84.6438 87.1515 84.7376 87.0114 84.8558 86.8934L86.0833 85.6352L86.8382 84.8865C87.077 84.6511 87.3989 84.5191 87.7342 84.5191C88.0695 84.5191 88.3914 84.6511 88.6303 84.8865C89.212 85.4738 89.9646 85.862 90.7805 85.9954C91.5963 86.1288 92.4334 86.0006 93.1719 85.6291C93.9552 85.2507 94.768 84.9367 95.6023 84.6901C96.3937 84.4243 97.0807 83.9148 97.5648 83.2345C98.0488 82.5543 98.3049 81.7382 98.2965 80.9033C98.3061 80.5745 98.4435 80.2623 98.6796 80.0331C98.9157 79.8039 99.2318 79.6757 99.5608 79.6759H102.396C102.724 79.6831 103.036 79.8134 103.272 80.041C103.507 80.2685 103.648 80.5764 103.667 80.9033C103.66 81.7412 103.92 82.5596 104.408 83.2402C104.897 83.9209 105.589 84.4286 106.386 84.6901C107.19 84.9423 107.974 85.2563 108.73 85.6291C109.468 86.0006 110.306 86.1288 111.121 85.9954C111.937 85.862 112.69 85.4738 113.272 84.8865C113.388 84.7696 113.527 84.6768 113.68 84.6135C113.833 84.5503 113.996 84.5177 114.162 84.5177C114.327 84.5177 114.49 84.5503 114.643 84.6135C114.796 84.6768 114.935 84.7696 115.051 84.8865L117.064 86.8934C117.3 87.1333 117.432 87.4561 117.432 87.7925C117.432 88.1288 117.3 88.4517 117.064 88.6916C116.479 89.2733 116.093 90.0256 115.961 90.8405C115.83 91.6554 115.961 92.491 116.334 93.2271C116.722 93.9849 117.052 94.7706 117.322 95.5777C117.58 96.3655 118.08 97.0516 118.752 97.5377C119.423 98.0239 120.231 98.2852 121.06 98.2842C121.397 98.2842 121.72 98.4181 121.958 98.6563C122.196 98.8946 122.33 99.2177 122.33 99.5547L122.324 102.366Z" fill="#1C2D6B"/>
<path d="M103.054 86.8199C102.718 86.7708 102.374 86.734 102.022 86.7095C101.685 86.7095 101.341 86.6665 100.991 86.6665C98.1637 86.6691 95.4001 87.5086 93.0486 89.0791C90.6972 90.6496 88.8632 92.881 87.7777 95.492C87.4986 96.1689 87.2729 96.8666 87.1026 97.5787C86.9224 98.3145 86.8013 99.0636 86.7405 99.8188C86.7098 100.212 86.6914 100.598 86.6914 100.985C86.6914 101.372 86.6914 101.599 86.6914 101.887C86.8972 105.241 88.2845 108.413 90.607 110.841C91.2348 111.51 91.9276 112.115 92.6753 112.646C92.9943 112.881 93.3263 113.098 93.6695 113.296C94.0423 113.522 94.4275 113.727 94.8234 113.91C95.0873 114.039 95.3512 114.156 95.6273 114.26C97.3164 114.95 99.124 115.302 100.948 115.297C104.566 115.301 108.051 113.934 110.701 111.471C113.351 109.008 114.97 105.633 115.232 102.025C115.493 98.4164 114.378 94.843 112.11 92.0241C109.842 89.2051 106.591 87.35 103.011 86.8322L103.054 86.8199ZM94.7006 110.755C94.6086 110.694 94.5226 110.639 94.4367 110.571C94.1774 110.406 93.9293 110.223 93.6941 110.025C93.6298 109.978 93.5683 109.926 93.51 109.872C93.2166 109.629 92.936 109.37 92.6692 109.098C93.3092 108.092 94.1264 107.211 95.0811 106.496L95.4125 106.263C95.5851 106.132 95.7677 106.015 95.9588 105.913C96.4794 105.595 97.0304 105.33 97.6036 105.121L98.1314 104.943C98.2066 104.987 98.2845 105.026 98.3646 105.06C98.4409 105.108 98.5235 105.145 98.6101 105.171L98.8556 105.269L99.1747 105.385C99.7705 105.571 100.392 105.663 101.016 105.655H101.255C101.329 105.661 101.403 105.661 101.476 105.655H101.642C101.722 105.655 101.801 105.655 101.881 105.655H101.961H102.047C102.69 105.553 103.312 105.346 103.888 105.042C106.128 105.705 108.061 107.14 109.344 109.092C108.26 110.205 106.964 111.088 105.532 111.691C104.101 112.294 102.563 112.604 101.01 112.603C99.9352 112.603 98.8656 112.456 97.8306 112.167C97.5176 112.069 97.2169 111.971 96.8978 111.86C96.7014 111.787 96.505 111.695 96.284 111.609L95.8422 111.394C95.7661 111.362 95.6923 111.325 95.6212 111.283C95.4862 111.21 95.3512 111.136 95.2223 111.056C95.0934 110.976 94.8663 110.86 94.7006 110.749V110.755ZM104.434 99.8617C104.437 99.919 104.437 99.9763 104.434 100.034C104.434 100.107 104.434 100.162 104.398 100.224C104.373 100.351 104.34 100.476 104.299 100.598C104.286 100.644 104.269 100.689 104.25 100.733C104.22 100.807 104.189 100.887 104.152 100.96C104.12 101.036 104.083 101.11 104.042 101.181C103.997 101.264 103.948 101.344 103.894 101.421L103.735 101.642C103.453 101.996 103.105 102.291 102.71 102.513C102.602 102.574 102.492 102.63 102.378 102.679L102.127 102.783C101.952 102.837 101.774 102.878 101.593 102.906C101.496 102.927 101.397 102.939 101.298 102.943H101.034C100.932 102.949 100.83 102.949 100.727 102.943C100.677 102.952 100.625 102.952 100.574 102.943C100.379 102.927 100.187 102.885 100.003 102.82C99.7997 102.765 99.6038 102.684 99.4202 102.581L99.1993 102.489C99.1399 102.457 99.0825 102.423 99.0274 102.384C98.9693 102.345 98.9139 102.302 98.8617 102.255C98.7518 102.172 98.6473 102.082 98.5487 101.985C98.2264 101.663 97.9709 101.28 97.7971 100.859C97.6233 100.438 97.5346 99.9861 97.5361 99.5303C97.5338 99.3244 97.5523 99.1188 97.5913 98.9166C97.5913 98.8614 97.5913 98.8123 97.5913 98.7693C97.5913 98.7263 97.6465 98.5484 97.6772 98.4502C97.6943 98.3802 97.719 98.3123 97.7509 98.2476C97.7509 98.1924 97.7938 98.1433 97.8184 98.0881C97.8791 97.9495 97.9509 97.8161 98.0332 97.6891C98.0719 97.6229 98.1149 97.5594 98.1621 97.4989C98.2383 97.3833 98.3268 97.2763 98.426 97.1797C98.4617 97.1341 98.5007 97.091 98.5426 97.0509C98.6695 96.9228 98.807 96.8058 98.9538 96.701L99.1195 96.5906C99.1842 96.5452 99.2519 96.5042 99.322 96.4678C99.5182 96.3631 99.7237 96.2768 99.9357 96.21C100.122 96.1533 100.313 96.1122 100.507 96.0873H100.66C100.762 96.0779 100.865 96.0779 100.967 96.0873C101.261 96.0874 101.554 96.1266 101.838 96.2039C101.897 96.2189 101.955 96.2394 102.01 96.2653C102.05 96.2661 102.088 96.2789 102.121 96.3021C102.182 96.3152 102.242 96.3358 102.299 96.3635C102.381 96.3952 102.461 96.4321 102.538 96.4739L102.79 96.6151L103.029 96.7808C103.125 96.8516 103.217 96.9274 103.305 97.0079C103.466 97.1531 103.61 97.3157 103.735 97.4927C103.787 97.5567 103.834 97.6244 103.876 97.6953C103.932 97.7769 103.981 97.8631 104.023 97.953C104.066 98.0328 104.109 98.1126 104.146 98.1985C104.201 98.3168 104.244 98.4402 104.275 98.5668C104.303 98.6469 104.326 98.729 104.342 98.8123L104.379 99.0209C104.383 99.0884 104.383 99.156 104.379 99.2235C104.385 99.3298 104.385 99.4363 104.379 99.5426C104.403 99.6479 104.422 99.7545 104.434 99.8617ZM111.026 106.852C109.746 105.15 108.057 103.799 106.116 102.924C106.793 101.92 107.154 100.736 107.153 99.5242C107.152 98.2589 106.76 97.0249 106.031 95.991C105.301 94.9572 104.27 94.1741 103.078 93.749C102.744 93.6266 102.399 93.5382 102.047 93.4851C101.707 93.4181 101.362 93.3852 101.016 93.3869C100.795 93.3869 100.586 93.3869 100.402 93.3869C99.4284 93.4944 98.4942 93.8321 97.6767 94.3721C96.8592 94.9121 96.182 95.6389 95.701 96.4924C95.5609 96.7478 95.4379 97.0123 95.3328 97.2841C95.0616 97.987 94.9222 98.7339 94.9216 99.4874C94.9153 99.5916 94.9153 99.6961 94.9216 99.8004C94.9212 100.427 95.0249 101.049 95.2284 101.642C95.3842 102.097 95.6032 102.529 95.879 102.924C94.443 103.567 93.1384 104.47 92.0309 105.588C91.6406 105.986 91.2758 106.408 90.9384 106.852C90.8358 106.685 90.7416 106.513 90.6561 106.337C89.9368 104.951 89.5086 103.432 89.398 101.875C89.398 101.586 89.3611 101.261 89.3611 100.973C89.3603 100.583 89.3808 100.194 89.4225 99.8065C89.5803 98.3042 90.0241 96.846 90.7298 95.5104C92.0591 93.0331 94.2386 91.1194 96.8671 90.1218C98.1813 89.6169 99.5774 89.3589 100.985 89.3608C101.329 89.3565 101.674 89.3708 102.016 89.4037C102.363 89.4309 102.707 89.4801 103.047 89.551C104.892 89.8786 106.63 90.6477 108.113 91.7925C109.596 92.9373 110.78 94.424 111.563 96.1255C112.347 97.827 112.708 99.693 112.614 101.564C112.521 103.435 111.976 105.256 111.026 106.871V106.852Z" fill="#1C2D6B"/>
<path d="M104.434 99.524C104.44 99.6364 104.44 99.7491 104.434 99.8615C104.436 99.9188 104.436 99.9761 104.434 100.033C104.434 100.107 104.434 100.162 104.397 100.224C104.372 100.35 104.339 100.475 104.299 100.598C104.285 100.644 104.269 100.689 104.25 100.733C104.219 100.807 104.188 100.886 104.151 100.96C104.12 101.036 104.083 101.11 104.041 101.181C103.996 101.264 103.947 101.343 103.894 101.42L103.734 101.641C103.452 101.995 103.104 102.291 102.709 102.513C102.602 102.574 102.491 102.63 102.378 102.679L102.126 102.783C101.951 102.837 101.773 102.878 101.592 102.906C101.495 102.927 101.397 102.939 101.298 102.942H101.034C100.931 102.949 100.829 102.949 100.727 102.942C100.676 102.952 100.624 102.952 100.573 102.942C100.17 102.891 99.7795 102.769 99.4195 102.58L99.1985 102.488C99.1391 102.457 99.0817 102.422 99.0267 102.384C98.9686 102.345 98.9132 102.302 98.861 102.255C98.7511 102.172 98.6466 102.082 98.548 101.985C98.2256 101.663 97.9702 101.28 97.7964 100.859C97.6226 100.437 97.5339 99.9859 97.5353 99.5301C97.5331 99.3242 97.5516 99.1186 97.5906 98.9164C97.5906 98.8612 97.5906 98.8121 97.5906 98.7691C97.5906 98.7261 97.6458 98.5482 97.6765 98.45C97.6936 98.38 97.7183 98.3121 97.7501 98.2474C97.7501 98.1922 97.7931 98.1431 97.8177 98.0879C97.8783 97.9493 97.9502 97.8159 98.0325 97.6889C98.0712 97.6227 98.1142 97.5592 98.1613 97.4987C98.2376 97.3831 98.326 97.2761 98.4252 97.1795C98.461 97.1339 98.5 97.0908 98.5419 97.0507C98.6688 96.9226 98.8063 96.8056 98.9531 96.7008L99.1188 96.5904C99.1835 96.545 99.2511 96.504 99.3213 96.4676C99.5175 96.3629 99.7229 96.2766 99.935 96.2098C100.122 96.1531 100.312 96.112 100.506 96.0871H100.659C100.761 96.0777 100.864 96.0777 100.966 96.0871C101.26 96.0872 101.554 96.1264 101.838 96.2037C101.897 96.2187 101.954 96.2392 102.009 96.2651C102.049 96.2659 102.088 96.2787 102.12 96.3019C102.182 96.315 102.241 96.3356 102.298 96.3633C102.38 96.395 102.46 96.4319 102.537 96.4737L102.789 96.6149L103.028 96.7806C103.124 96.8514 103.216 96.9272 103.304 97.0077C103.465 97.1529 103.609 97.3155 103.734 97.4925C103.786 97.5565 103.833 97.6242 103.875 97.6951C103.931 97.7767 103.981 97.8629 104.022 97.9528C104.065 98.0326 104.108 98.1124 104.145 98.1983C104.2 98.3166 104.243 98.44 104.274 98.5666C104.302 98.6467 104.325 98.7288 104.342 98.8121L104.378 99.0207C104.382 99.0882 104.382 99.1558 104.378 99.2233C104.403 99.3224 104.421 99.4228 104.434 99.524Z" fill="#6287C5"/>
<path d="M112.626 100.966C112.627 103.036 112.074 105.068 111.024 106.852C109.745 105.15 108.056 103.799 106.114 102.924C106.791 101.919 107.152 100.735 107.151 99.524C107.15 98.2587 106.758 97.0247 106.029 95.9909C105.299 94.957 104.268 94.1739 103.076 93.7488C102.742 93.6264 102.397 93.538 102.045 93.4849C101.706 93.4179 101.36 93.385 101.014 93.3867C100.793 93.3867 100.585 93.3867 100.4 93.3867C99.4266 93.4942 98.4924 93.8319 97.675 94.3719C96.8575 94.9119 96.1803 95.6387 95.6992 96.4922C95.5592 96.7477 95.4361 97.0121 95.331 97.2839C95.0599 97.9869 94.9205 98.7337 94.9198 99.4872C94.9136 99.5914 94.9136 99.696 94.9198 99.8002C94.9195 100.427 95.0232 101.049 95.2267 101.641C95.3825 102.097 95.6014 102.529 95.8772 102.924C94.4413 103.567 93.1366 104.47 92.0291 105.588C91.6389 105.986 91.274 106.408 90.9367 106.852C90.834 106.685 90.7398 106.513 90.6544 106.336C89.935 104.951 89.5069 103.432 89.3962 101.875C89.3962 101.586 89.3594 101.261 89.3594 100.972C89.3586 100.583 89.3791 100.194 89.4208 99.8063C89.5786 98.304 90.0223 96.8458 90.728 95.5102C92.0573 93.0329 94.2369 91.1193 96.8653 90.1216C98.1795 89.6167 99.5756 89.3587 100.983 89.3606C101.328 89.3563 101.672 89.3706 102.015 89.4036C102.361 89.4307 102.705 89.4799 103.046 89.5509C105.724 90.0365 108.148 91.4436 109.897 93.5284C111.647 95.6133 112.612 98.2445 112.626 100.966Z" fill="#B9CBEA"/>
<path d="M101.935 105.557C101.712 106.135 101.45 106.697 101.15 107.239C101.058 107.41 100.947 107.588 100.837 107.754C100.726 107.92 100.554 108.196 100.407 108.405C100.309 108.561 100.201 108.711 100.082 108.853C99.9223 109.055 99.7689 109.252 99.597 109.466C99.4252 109.681 99.2656 109.841 99.0876 110.025C98.9096 110.209 98.7501 110.369 98.5721 110.522C98.2713 110.804 97.9583 111.068 97.6208 111.326C97.4842 111.439 97.3407 111.544 97.1912 111.639C97.0868 111.719 96.9702 111.792 96.8659 111.86L96.2522 111.608L95.841 111.394C95.7649 111.362 95.6911 111.325 95.62 111.283C95.485 111.209 95.35 111.136 95.2211 111.056C95.0922 110.976 94.8713 110.86 94.7056 110.749C94.5399 110.639 94.5276 110.633 94.4417 110.565C94.1824 110.399 93.9343 110.217 93.699 110.019L93.5088 109.853C93.2154 109.61 92.9348 109.352 92.668 109.08C93.308 108.074 94.1252 107.192 95.0799 106.478L95.4114 106.244C95.5868 106.118 95.7692 106.001 95.9576 105.895C96.4783 105.577 97.0292 105.312 97.6024 105.103L98.1302 104.925C98.2054 104.969 98.2833 105.007 98.3634 105.041C98.4403 105.088 98.5228 105.125 98.6089 105.152L98.8544 105.25L99.1735 105.367C99.7693 105.553 100.391 105.644 101.015 105.637H101.254C101.328 105.643 101.402 105.643 101.475 105.637H101.641C101.72 105.643 101.8 105.643 101.88 105.637L101.935 105.557Z" fill="#89AADB"/>
</g>
<defs>
<clipPath id="clip0">
<rect width="125" height="125" fill="white"/>
</clipPath>
</defs>
</svg>
