<svg width="58" height="58" viewBox="0 0 58 58" fill="none" xmlns="http://www.w3.org/2000/svg">
<path fill-rule="evenodd" clip-rule="evenodd" d="M43.3004 20.8846C43.7781 21.4427 43.7132 22.2814 43.156 22.759L26.2397 37.2584C25.7125 37.7108 24.926 37.6804 24.4349 37.1892L14.7688 27.5231C14.249 27.0042 14.249 26.1629 14.7688 25.6435C15.2873 25.1245 16.1286 25.1245 16.6484 25.6435L25.4441 34.44L41.426 20.7415C41.9832 20.2634 42.8228 20.3273 43.3004 20.8846V20.8846Z" fill="#58CB7D"/>
<path fill-rule="evenodd" clip-rule="evenodd" d="M29 48.3023C39.6605 48.3023 48.3023 39.6605 48.3023 29C48.3023 18.3395 39.6605 9.69774 29 9.69774C18.3395 9.69774 9.69774 18.3395 9.69774 29C9.69774 39.6605 18.3395 48.3023 29 48.3023ZM29 50.75C41.0121 50.75 50.75 41.0121 50.75 29C50.75 16.9879 41.0121 7.25 29 7.25C16.9879 7.25 7.25 16.9879 7.25 29C7.25 41.0121 16.9879 50.75 29 50.75Z" fill="#58CB7D"/>
</svg>
