<svg width="92" height="70" viewBox="0 0 92 70" fill="none" xmlns="http://www.w3.org/2000/svg">
<path d="M14.563 17.4674C14.563 12.1719 12.8581 7.87891 10.7554 7.87891C16.0513 7.87891 20.3442 12.1719 20.3442 17.4674C20.3442 22.7632 16.0513 27.0562 10.7554 27.0562C12.8581 27.0562 14.563 22.7632 14.563 17.4674Z" fill="#89AADB"/>
<path d="M10.7558 7.87891C8.6531 7.87891 6.94822 12.1719 6.94822 17.4674C6.94822 22.7632 8.6531 27.0562 10.7558 27.0562C5.45994 27.0562 1.16699 22.7632 1.16699 17.4674C1.16699 12.1719 5.45994 7.87891 10.7558 7.87891Z" fill="#4B67B0"/>
<path d="M10.7554 27.0561C12.8583 27.0561 14.563 22.763 14.563 17.4673C14.563 12.1715 12.8583 7.87842 10.7554 7.87842C8.65248 7.87842 6.94775 12.1715 6.94775 17.4673C6.94775 22.763 8.65248 27.0561 10.7554 27.0561Z" fill="#6287C5"/>
<path d="M19.9014 47.8335H26.311C30.6067 47.8335 34.0888 51.3156 34.0888 55.6113V68.8335H22.4221V59.5002H22.2938V55.6113C22.2938 51.3164 21.2228 47.8347 19.9014 47.8335Z" fill="#89AADB"/>
<path d="M10.7553 31.5C11.962 31.5 13.0976 31.8057 14.0884 32.3431C13.4164 33.5281 12.9603 35.8408 12.9603 38.4996V51.7218C12.9603 56.0175 14.0317 59.4996 15.3535 59.4996H18.7038H11.5327C7.237 59.4996 3.75488 56.0175 3.75488 51.7218V38.4996C3.75527 34.6341 6.88933 31.5 10.7553 31.5Z" fill="#4B67B0"/>
<path d="M15.3537 59.4998C14.0318 59.4998 12.9604 56.0177 12.9604 51.722V38.4998C12.9604 35.8405 13.4166 33.5278 14.0886 32.3433C16.2726 33.5282 17.7555 35.8409 17.7555 38.5002V47.725V47.8331H19.9013C21.2228 47.8343 22.2938 51.316 22.2938 55.6109V59.4998H18.7039H15.3537Z" fill="#6287C5"/>
<path d="M36.4309 33.77V43.1034H26.3742C24.2276 43.1034 22.4854 41.3611 22.4854 39.2145V37.6589C22.4854 35.5122 24.2276 33.77 26.3742 33.77H36.4309Z" fill="#EF7F72"/>
<path d="M69.1516 37.6589V39.2145C69.1516 41.3611 67.4094 43.1034 65.2627 43.1034H55.2061V33.77H65.2627C67.4094 33.77 69.1516 35.5122 69.1516 37.6589Z" fill="#E8383B"/>
<path d="M36.4307 33.77H55.2066V43.1034H36.4307V33.77Z" fill="#E95947"/>
<path d="M65.2633 44.2702H26.3744C23.5868 44.2702 21.3188 42.0022 21.3188 39.2146V37.6591C21.3188 34.8715 23.5868 32.6035 26.3744 32.6035H65.2633C68.0508 32.6035 70.3188 34.8715 70.3188 37.6591V39.2146C70.3188 42.0026 68.0508 44.2702 65.2633 44.2702ZM26.3744 34.9368C24.8737 34.9368 23.6522 36.158 23.6522 37.6591V39.2146C23.6522 40.7157 24.8737 41.9369 26.3744 41.9369H65.2633C66.764 41.9369 67.9855 40.7157 67.9855 39.2146V37.6591C67.9855 36.158 66.764 34.9368 65.2633 34.9368H26.3744Z" fill="#1C2D6B"/>
<path d="M42.9873 28.015C42.9873 23.8698 43.683 20.2376 44.726 18.2123C44.0365 16.4545 43.5955 13.7677 43.5955 10.7553C43.5955 5.45984 44.9574 1.1665 46.6378 1.1665C41.3423 1.1665 37.049 5.45945 37.049 10.7553C37.049 13.7677 38.4392 16.4545 40.612 18.2123C37.3239 20.2376 35.1313 23.8698 35.1313 28.015V29.9326V33.7682H42.9873V29.9326V28.015Z" fill="#89AADB"/>
<path d="M52.6631 18.2123C54.8359 16.4545 56.2261 13.7677 56.2261 10.7553C56.2261 5.45945 51.9332 1.1665 46.6377 1.1665C48.3177 1.1665 49.68 5.45945 49.68 10.7553C49.68 13.7677 49.239 16.4545 48.5495 18.2123C49.5925 20.2376 50.2882 23.8698 50.2882 28.015V29.9326V33.7682H58.1441V29.9326V28.015C58.1441 23.8698 55.9512 20.2376 52.6631 18.2123Z" fill="#4B67B0"/>
<path d="M50.2883 28.015C50.2883 23.8698 49.5926 20.2376 48.5496 18.2123C49.2391 16.4545 49.6801 13.7677 49.6801 10.7553C49.6801 5.45984 48.3182 1.1665 46.6378 1.1665C44.9578 1.1665 43.5955 5.45945 43.5955 10.7553C43.5955 13.7677 44.0365 16.4545 44.726 18.2123C43.683 20.2376 42.9873 23.8698 42.9873 28.015V29.9326V33.7682H50.2887V29.9326V28.015H50.2883Z" fill="#6287C5"/>
<path d="M46.6379 21.5106C40.7074 21.5106 35.8828 16.6857 35.8828 10.7551C35.8828 4.82455 40.7074 0 46.6379 0C52.5685 0 57.3934 4.82494 57.3934 10.7555C57.3934 16.6861 52.5685 21.5106 46.6379 21.5106ZM46.6379 2.33333C41.9942 2.33333 38.2161 6.11139 38.2161 10.7555C38.2161 15.3996 41.9942 19.1777 46.6379 19.1777C51.2816 19.1777 55.0601 15.3996 55.0601 10.7555C55.0601 6.11139 51.2816 2.33333 46.6379 2.33333Z" fill="#1C2D6B"/>
<path d="M58.1439 34.9351H35.131C34.4866 34.9351 33.9644 34.4129 33.9644 33.7685V28.0152C33.9644 23.5835 36.2207 19.5476 40.0003 17.2193C40.4211 16.9603 40.9609 16.9934 41.3459 17.3056C42.8598 18.5302 44.6895 19.1777 46.6375 19.1777C48.5854 19.1777 50.4155 18.5302 51.9295 17.3056C52.3145 16.9941 52.8542 16.9603 53.275 17.2193C57.0542 19.5476 59.3106 23.5835 59.3106 28.0152V33.7685C59.3106 34.4125 58.7887 34.9351 58.1439 34.9351ZM36.2981 32.6018H56.9776V28.0152C56.9776 24.6603 55.3921 21.5826 52.6999 19.6382C50.9215 20.8507 48.8001 21.5107 46.6379 21.5107C44.4756 21.5107 42.3542 20.8507 40.5762 19.6382C37.8836 21.5826 36.2981 24.6599 36.2981 28.0152V32.6018Z" fill="#1C2D6B"/>
<path d="M10.7555 28.223C4.82494 28.223 0 23.3981 0 17.4675C0 11.537 4.82494 6.7124 10.7555 6.7124C16.6861 6.7124 21.5106 11.5373 21.5106 17.4679C21.5106 23.3985 16.6861 28.223 10.7555 28.223ZM10.7555 9.04574C6.11178 9.04574 2.33333 12.8238 2.33333 17.4679C2.33333 22.112 6.11178 25.8901 10.7555 25.8901C15.3992 25.8901 19.1773 22.112 19.1773 17.4679C19.1773 12.8238 15.3992 9.04574 10.7555 9.04574Z" fill="#1C2D6B"/>
<path d="M34.0889 70.0002H22.4222C21.7778 70.0002 21.2555 69.4779 21.2555 68.8335V60.6668H11.5333C6.60103 60.6668 2.58887 56.6543 2.58887 51.7224V38.5002C2.58887 33.9968 6.25259 30.3335 10.7555 30.3335C15.2585 30.3335 18.9222 33.9968 18.9222 38.5002V46.6668H26.3111C31.2434 46.6668 35.2555 50.6794 35.2555 55.6113V68.8335C35.2555 69.4779 34.7333 70.0002 34.0889 70.0002ZM23.5889 67.6668H32.9222V55.6113C32.9222 51.9658 29.9565 49.0002 26.3111 49.0002H17.7555C17.1111 49.0002 16.5889 48.4779 16.5889 47.8335V38.5002C16.5889 35.2837 13.972 32.6668 10.7555 32.6668C7.53903 32.6668 4.9222 35.2837 4.9222 38.5002V51.7224C4.9222 55.3678 7.88787 58.3335 11.5333 58.3335H22.4222C23.0666 58.3335 23.5889 58.8558 23.5889 59.5002V67.6668Z" fill="#1C2D6B"/>
<path d="M76.8193 17.4674C76.8193 12.1719 78.5242 7.87891 80.6269 7.87891C75.331 7.87891 71.0381 12.1719 71.0381 17.4674C71.0381 22.7632 75.331 27.0562 80.6269 27.0562C78.5242 27.0562 76.8193 22.7632 76.8193 17.4674Z" fill="#89AADB"/>
<path d="M80.6274 7.87891C82.7302 7.87891 84.4351 12.1719 84.4351 17.4674C84.4351 22.7632 82.7302 27.0562 80.6274 27.0562C85.9233 27.0562 90.2163 22.7632 90.2163 17.4674C90.2163 12.1719 85.9233 7.87891 80.6274 7.87891Z" fill="#4B67B0"/>
<path d="M80.6274 27.0561C82.7303 27.0561 84.435 22.763 84.435 17.4673C84.435 12.1715 82.7303 7.87842 80.6274 7.87842C78.5245 7.87842 76.8198 12.1715 76.8198 17.4673C76.8198 22.763 78.5245 27.0561 80.6274 27.0561Z" fill="#6287C5"/>
<path d="M71.4814 47.8335H65.0717C60.7761 47.8335 57.2939 51.3156 57.2939 55.6113V68.8335H68.9606V59.5002H69.0889V55.6113C69.0889 51.3164 70.1599 47.8347 71.4814 47.8335Z" fill="#89AADB"/>
<path d="M80.6272 31.5C79.4205 31.5 78.2849 31.8057 77.294 32.3431C77.966 33.5281 78.4222 35.8408 78.4222 38.4996V51.7218C78.4222 56.0175 77.3508 59.4996 76.029 59.4996H72.6787H79.8498C84.1455 59.4996 87.6276 56.0175 87.6276 51.7218V38.4996C87.6272 34.6341 84.4932 31.5 80.6272 31.5Z" fill="#4B67B0"/>
<path d="M76.029 59.4998C77.3508 59.4998 78.4222 56.0177 78.4222 51.722V38.4998C78.4222 35.8405 77.966 33.5278 77.294 32.3433C75.11 33.5282 73.6272 35.8409 73.6272 38.5002V47.725V47.8331H71.4813C70.1599 47.8343 69.0889 51.316 69.0889 55.6109V59.4998H72.6787H76.029Z" fill="#6287C5"/>
<path d="M80.6272 28.2229C74.6966 28.2229 69.8721 23.398 69.8721 17.4674C69.8721 11.5369 74.6966 6.71191 80.6272 6.71191C86.5577 6.71191 91.3827 11.5369 91.3827 17.4674C91.3827 23.398 86.5577 28.2229 80.6272 28.2229ZM80.6272 9.04564C75.9835 9.04564 72.2054 12.8237 72.2054 17.4678C72.2054 22.1119 75.9835 25.89 80.6272 25.89C85.2709 25.89 89.0494 22.1119 89.0494 17.4678C89.0494 12.8237 85.2709 9.04564 80.6272 9.04564Z" fill="#1C2D6B"/>
<path d="M68.9608 70.0002H57.2941C56.6497 70.0002 56.1274 69.4779 56.1274 68.8335V55.6113C56.1274 50.6794 60.1396 46.6668 65.0719 46.6668H72.4608V38.5002C72.4608 33.9968 76.1245 30.3335 80.6274 30.3335C85.1304 30.3335 88.7941 33.9968 88.7941 38.5002V51.7224C88.7941 56.6543 84.7819 60.6668 79.8497 60.6668H70.1274V68.8335C70.1274 69.4779 69.6052 70.0002 68.9608 70.0002ZM58.4608 67.6668H67.7941V59.5002C67.7941 58.8558 68.3164 58.3335 68.9608 58.3335H79.8497C83.4951 58.3335 86.4608 55.3678 86.4608 51.7224V38.5002C86.4608 35.2837 83.8439 32.6668 80.6274 32.6668C77.4109 32.6668 74.7941 35.2837 74.7941 38.5002V47.8335C74.7941 48.4779 74.2718 49.0002 73.6274 49.0002H65.0719C61.4264 49.0002 58.4608 51.9658 58.4608 55.6113V67.6668Z" fill="#1C2D6B"/>
</svg>
