<svg width="512" height="512" viewBox="0 0 512 512" fill="none" xmlns="http://www.w3.org/2000/svg">
<path d="M464 321C455.716 321 449 327.716 449 336V384C449 392.284 455.716 399 464 399C472.284 399 479 392.284 479 384V336C479 327.716 472.284 321 464 321Z" fill="#FF2929"/>
<path d="M48 321C39.716 321 33 327.716 33 336V384C33 392.284 39.716 399 48 399C56.284 399 63 392.284 63 384V336C63 327.716 56.284 321 48 321Z" fill="#FF7038"/>
<path d="M512 384V497C512 505.28 505.28 512 497 512H15C6.72 512 0 505.28 0 497V384C0 375.72 6.72 369 15 369H497C505.28 369 512 375.72 512 384Z" fill="#9D9BDF"/>
<path d="M512 384V497C512 505.28 505.28 512 497 512H256V369H497C505.28 369 512 375.72 512 384Z" fill="#5E69E2"/>
<path d="M399 15V512H113V15C113 6.72 119.72 0 128 0H384C392.28 0 399 6.72 399 15Z" fill="#E0EAEF"/>
<path d="M399 15V512H256V0H384C392.28 0 399 6.72 399 15Z" fill="#CCE0E5"/>
<path d="M335 80C335 88.28 328.28 95 320 95H192C183.72 95 177 88.28 177 80C177 71.72 183.72 65 192 65H320C328.28 65 335 71.72 335 80Z" fill="#CCE0E5"/>
<path d="M335 80C335 88.28 328.28 95 320 95H256V65H320C328.28 65 335 71.72 335 80Z" fill="#B3D1D6"/>
<path d="M216 129H200C191.716 129 185 135.716 185 144C185 152.284 191.716 159 200 159H216C224.284 159 231 152.284 231 144C231 135.716 224.284 129 216 129Z" fill="#CCE0E5"/>
<path d="M312 129H296C287.716 129 281 135.716 281 144C281 152.284 287.716 159 296 159H312C320.284 159 327 152.284 327 144C327 135.716 320.284 129 312 129Z" fill="#B3D1D6"/>
<path d="M216 193H200C191.716 193 185 199.716 185 208C185 216.284 191.716 223 200 223H216C224.284 223 231 216.284 231 208C231 199.716 224.284 193 216 193Z" fill="#CCE0E5"/>
<path d="M312 193H296C287.716 193 281 199.716 281 208C281 216.284 287.716 223 296 223H312C320.284 223 327 216.284 327 208C327 199.716 320.284 193 312 193Z" fill="#B3D1D6"/>
<path d="M216 257H200C191.716 257 185 263.716 185 272C185 280.284 191.716 287 200 287H216C224.284 287 231 280.284 231 272C231 263.716 224.284 257 216 257Z" fill="#CCE0E5"/>
<path d="M312 257H296C287.716 257 281 263.716 281 272C281 280.284 287.716 287 296 287H312C320.284 287 327 280.284 327 272C327 263.716 320.284 257 312 257Z" fill="#B3D1D6"/>
<path d="M216 321H200C191.716 321 185 327.716 185 336C185 344.284 191.716 351 200 351H216C224.284 351 231 344.284 231 336C231 327.716 224.284 321 216 321Z" fill="#CCE0E5"/>
<path d="M312 321H296C287.716 321 281 327.716 281 336C281 344.284 287.716 351 296 351H312C320.284 351 327 344.284 327 336C327 327.716 320.284 321 312 321Z" fill="#B3D1D6"/>
<path d="M327 432V512H185V432C185 423.72 191.72 417 200 417H312C320.28 417 327 423.72 327 432Z" fill="#0A789B"/>
<path d="M327 432V512H256V417H312C320.28 417 327 423.72 327 432Z" fill="#08475E"/>
</svg>
