<?xml version="1.0" encoding="utf-8"?>
<!-- Generator: Adobe Illustrator 22.1.0, SVG Export Plug-In . SVG Version: 6.00 Build 0)  -->
<svg version="1.1" id="Layer_1" xmlns="http://www.w3.org/2000/svg" xmlns:xlink="http://www.w3.org/1999/xlink" x="0px" y="0px"
	 viewBox="0 0 512 512" style="enable-background:new 0 0 512 512;" xml:space="preserve">
<style type="text/css">
	.st0{clip-path:url(#SVGID_2_);}
	.st1{fill:#B9785F;}
	.st2{fill:#AA6455;}
	.st3{fill:#B4E1FA;}
	.st4{fill:#DAF0FD;}
	.st5{fill:#D2555A;}
	.st6{fill:#C7CFE2;}
	.st7{fill:#FF6464;}
	.st8{fill:#EFF2FA;}
	.st9{opacity:0.97;}
	.st10{opacity:0.97;fill:#AFB9D2;enable-background:new    ;}
	.st11{fill:#5B5D6E;}
	.st12{fill:#A0D2F0;}
</style>
<g>
	<defs>
		<rect id="SVGID_1_" width="512" height="512"/>
	</defs>
	<clipPath id="SVGID_2_">
		<use xlink:href="#SVGID_1_"  style="overflow:visible;"/>
	</clipPath>
	<g class="st0">
		<path class="st1" d="M494.3,463.4H17.7V48.6c0-4.9,4-8.8,8.8-8.8h459c4.9,0,8.8,4,8.8,8.8V463.4z"/>
		<path class="st2" d="M494.3,180.2c-1.8,0.5-3.7,0.8-5.6,0.8c-12.8,0-23.3-10.4-23.3-23.3c0,12.9-10.4,23.3-23.3,23.3
			c-12.9,0-23.3-10.4-23.3-23.3c0,12.9-10.4,23.3-23.3,23.3c-12.9,0-23.3-10.4-23.3-23.3c0,12.9-10.4,23.3-23.3,23.3
			c-12.9,0-23.3-10.4-23.3-23.3c0,12.9-10.4,23.3-23.3,23.3s-23.3-10.4-23.3-23.3c0,12.9-10.4,23.3-23.3,23.3
			c-12.9,0-23.3-10.4-23.3-23.3c0,12.9-10.4,23.3-23.3,23.3c-12.9,0-23.3-10.4-23.3-23.3c0,12.9-10.4,23.3-23.3,23.3
			c-12.9,0-23.3-10.4-23.3-23.3c0,12.9-10.4,23.3-23.3,23.3s-23.3-10.4-23.3-23.3c0,12.9-10.4,23.3-23.3,23.3s-23.3-10.4-23.3-23.3
			c0,12.9-10.4,23.3-23.3,23.3c-1.9,0-3.8-0.3-5.6-0.8v17.8c1.9,0.3,3.7,0.6,5.6,0.6c8.6,0,16.7-2.7,23.3-7.3
			c6.6,4.6,14.6,7.3,23.3,7.3c8.6,0,16.7-2.7,23.3-7.3c6.6,4.6,14.6,7.3,23.3,7.3s16.7-2.7,23.3-7.3c6.6,4.6,14.6,7.3,23.3,7.3
			c8.6,0,16.7-2.7,23.3-7.3c6.6,4.6,14.6,7.3,23.3,7.3c8.6,0,16.7-2.7,23.3-7.3c6.6,4.6,14.6,7.3,23.3,7.3c8.6,0,16.7-2.7,23.3-7.3
			c6.6,4.6,14.6,7.3,23.3,7.3c8.6,0,16.7-2.7,23.3-7.3c6.6,4.6,14.6,7.3,23.3,7.3c8.6,0,16.7-2.7,23.3-7.3
			c6.6,4.6,14.6,7.3,23.3,7.3s16.7-2.7,23.3-7.3c6.6,4.6,14.6,7.3,23.3,7.3c8.6,0,16.7-2.7,23.3-7.3c6.6,4.6,14.6,7.3,23.3,7.3
			c1.9,0,3.8-0.3,5.6-0.6L494.3,180.2L494.3,180.2z"/>
		<path class="st3" d="M309,216.3H61.8v158.9H309V216.3z"/>
		<path class="st4" d="M264.8,366.3h-17.7L141.2,225.1h17.7L264.8,366.3z"/>
		<path class="st5" d="M209.5,181c-12.9,0-23.3-10.4-23.3-23.3v-20.9h46.5v20.9C232.7,170.5,222.3,181,209.5,181z"/>
		<path class="st5" d="M302.5,181c-12.9,0-23.3-10.4-23.3-23.3v-20.9h46.5v20.9C325.8,170.5,315.4,181,302.5,181z"/>
		<path class="st5" d="M116.4,181c-12.9,0-23.3-10.4-23.3-23.3v-20.9h46.5v20.9C139.6,170.5,129.2,181,116.4,181z"/>
		<path class="st5" d="M23.3,181C10.4,181,0,170.5,0,157.7v-20.9h46.5v20.9C46.5,170.5,36.1,181,23.3,181z"/>
		<path class="st5" d="M395.6,181c-12.9,0-23.3-10.4-23.3-23.3v-20.9h46.5v20.9C418.9,170.5,408.5,181,395.6,181z"/>
		<path class="st6" d="M162.9,181c-12.9,0-23.3-10.4-23.3-23.3v-20.9h46.5v20.9C186.2,170.5,175.8,181,162.9,181z"/>
		<path class="st6" d="M349.1,181c-12.9,0-23.3-10.4-23.3-23.3v-20.9h46.5v20.9C372.4,170.5,361.9,181,349.1,181z"/>
		<path class="st5" d="M488.7,181c-12.9,0-23.3-10.4-23.3-23.3v-20.9H512v20.9C512,170.5,501.6,181,488.7,181z"/>
		<path class="st6" d="M442.2,181c-12.9,0-23.3-10.4-23.3-23.3v-20.9h46.5v20.9C465.5,170.5,455,181,442.2,181z"/>
		<path class="st6" d="M69.8,181c-12.9,0-23.3-10.4-23.3-23.3v-20.9h46.5v20.9C93.1,170.5,82.7,181,69.8,181z"/>
		<path class="st6" d="M256,181c-12.9,0-23.3-10.4-23.3-23.3v-20.9h46.5v20.9C279.3,170.5,268.9,181,256,181z"/>
		<path class="st7" d="M232.7,136.8h-46.5l4.8-70.6h43.3L232.7,136.8z"/>
		<path class="st7" d="M325.8,136.8h-46.5l-1.6-70.6H321L325.8,136.8z"/>
		<path class="st7" d="M139.6,136.8H93.1l11.2-70.6h43.3L139.6,136.8z"/>
		<path class="st7" d="M46.5,136.8H0l17.7-70.6H61L46.5,136.8z"/>
		<path class="st7" d="M418.9,136.8h-46.5l-8-70.6h43.3L418.9,136.8z"/>
		<path class="st8" d="M186.2,136.8h-46.5l8-70.6H191L186.2,136.8z"/>
		<path class="st8" d="M372.4,136.8h-46.5L321,66.2h43.3L372.4,136.8z"/>
		<path class="st7" d="M512,136.8h-46.5L451,66.2h43.3L512,136.8z"/>
		<path class="st8" d="M465.5,136.8h-46.5l-11.2-70.6H451L465.5,136.8z"/>
		<path class="st8" d="M93.1,136.8H46.5L61,66.2h43.3L93.1,136.8z"/>
		<path class="st8" d="M279.3,136.8h-46.5l1.6-70.6h43.3L279.3,136.8z"/>
		<path class="st6" d="M503.2,472.3H8.8c-4.9,0-8.8-4-8.8-8.8c0-4.9,4-8.8,8.8-8.8h494.3c4.9,0,8.8,4,8.8,8.8
			C512,468.3,508,472.3,503.2,472.3z"/>
		<g class="st9">
			<path class="st10" d="M494.3,437H17.7v17.7h476.7V437z"/>
		</g>
		<path class="st2" d="M494.3,401.7H17.7V437h476.7V401.7z"/>
		<path class="st11" d="M300.1,225.1v141.2H70.6V225.1H300.1z M309,207.4H61.8c-4.9,0-8.8,4-8.8,8.8v158.9c0,4.9,4,8.8,8.8,8.8H309
			c4.9,0,8.8-4,8.8-8.8V216.3C317.8,211.4,313.8,207.4,309,207.4z"/>
		<path class="st11" d="M450.2,207.4h-88.3c-4.9,0-8.8,4-8.8,8.8V437H459V216.3C459,211.4,455.1,207.4,450.2,207.4z"/>
		<path class="st3" d="M441.4,225.1h-70.6v141.2h70.6V225.1z"/>
		<path class="st12" d="M300.1,225.1H70.6v17.7h229.5V225.1z"/>
		<path class="st12" d="M441.4,225.1h-70.6v17.7h70.6V225.1z"/>
		<path class="st12" d="M229.5,366.3h-35.3L88.3,225.1h35.3L229.5,366.3z"/>
		<path class="st3" d="M172.1,242.8l-13.2-17.7h-17.7l13.2,17.7H172.1z"/>
		<path class="st4" d="M441.4,295.7l-53-70.6h-17.7l70.6,94.2V295.7z"/>
		<path class="st3" d="M401.7,242.8l-13.2-17.7h-17.7l13.2,17.7H401.7z"/>
		<path class="st12" d="M441.4,225.1h-70.6v17.7h70.6V225.1z"/>
		<path class="st4" d="M441.4,295.7l-53-70.6h-17.7l70.6,94.2V295.7z"/>
		<path class="st12" d="M370.8,248.6v47.1l53,70.6h17.7v-23.5L370.8,248.6z"/>
	</g>
</g>
</svg>
