<?xml version="1.0" encoding="utf-8"?>
<!-- Generator: Adobe Illustrator 22.1.0, SVG Export Plug-In . SVG Version: 6.00 Build 0)  -->
<svg version="1.1" id="Layer_1" xmlns="http://www.w3.org/2000/svg" xmlns:xlink="http://www.w3.org/1999/xlink" x="0px" y="0px"
	 viewBox="0 0 529 529" style="enable-background:new 0 0 529 529;" xml:space="preserve">
<style type="text/css">
	.st0{fill:#EAE8E5;}
	.st1{fill:#FF6464;}
	.st2{fill:#5B5D6E;}
	.st3{fill:#4AC3ED;}
	.st4{fill:#76CC7A;}
</style>
<path class="st0" d="M264.5,50.6L57.7,191v321.3h413.6V191L264.5,50.6z"/>
<path class="st1" d="M135.2,340H230v172.3h-94.8V340z"/>
<path class="st2" d="M324.8,417.5h120.6V452H324.8V417.5z"/>
<path class="st2" d="M299,512.3V391.7l17.2-25.9l17.2,25.9v120.6H299z"/>
<path class="st2" d="M367.9,512.3V391.7l17.2-25.9l17.2,25.9v120.6H367.9z"/>
<path class="st2" d="M436.8,512.3V391.7l17.2-25.9l17.2,25.9v120.6H436.8z"/>
<path class="st3" d="M290.4,262.4h-51.7c-14.3,0-25.9-11.6-25.9-25.9v-51.7c0-14.3,11.6-25.9,25.9-25.9h51.7
	c14.3,0,25.9,11.6,25.9,25.9v51.7C316.2,250.8,304.6,262.4,290.4,262.4z"/>
<path class="st2" d="M316.2,202.1h-43.1V159h-17.2v43.1h-43.1v17.2h43.1v43.1h17.2v-43.1h43.1V202.1z"/>
<path class="st2" d="M186.9,417.5h17.2v17.2h-17.2V417.5z"/>
<path class="st2" d="M49.1,443.4h17.2v68.9H49.1V443.4z"/>
<path class="st4" d="M100.8,408.9c0,30.9-19.3,51.7-43.1,51.7s-43.1-20.8-43.1-51.7c0-20.2,18.4-69.1,31.1-100.6
	c4.4-10.8,19.6-10.8,23.9,0C82.4,339.8,100.8,388.7,100.8,408.9z"/>
<path class="st2" d="M6,503.7h517v17.2H6V503.7z"/>
<path class="st1" d="M496.1,207.7L264.5,50.6L32.9,207.7l-19.4-28.5l251-170.3l251,170.3L496.1,207.7z"/>
</svg>
