<svg width="125" height="125" viewBox="0 0 125 125" fill="none" xmlns="http://www.w3.org/2000/svg">
<circle cx="96.9837" cy="28.0174" r="23.6516" fill="#A4D4A0"/>
<path fill-rule="evenodd" clip-rule="evenodd" d="M124.997 70.2063C125 69.555 124.742 68.93 124.286 68.4713C123.826 68.0088 123.205 67.7513 122.554 67.7513H104.25V54.4375C115.871 51.1438 124.41 40.4212 124.41 27.7425C124.41 12.4463 111.985 0 96.715 0C81.445 0 69.0225 12.4463 69.0225 27.7425C69.0225 40.4212 77.56 51.1438 89.1812 54.4375V67.755H79.97C79.5862 67.755 79.2087 67.8437 78.8675 68.02L64.9725 75.0725V74.1513C64.9725 72.7988 63.8775 71.705 62.5287 71.705H46.5787L2.5875 69.1087C1.91875 69.07 1.2575 69.3112 0.768749 69.7725C0.278749 70.235 0 70.8775 0 71.555V110.709C0 110.709 3.5375 110.709 4.8875 110.709V74.1513L44.0625 76.4575V115.577L4.89 119.824L4.8875 110.709H0V122.551C0 123.246 0.296251 123.909 0.813751 124.372C1.2625 124.777 1.845 125 2.44375 125C2.5325 125 2.61875 124.995 2.70875 124.984L46.6362 120.224H62.5287C63.595 120.224 64.495 119.541 64.8312 118.588L75.725 124.48C76.0825 124.672 76.4787 124.774 76.88 124.774L85.2637 124.797C85.2687 124.797 85.2762 124.797 85.2787 124.797L95.1525 124.824H95.1712C99.1662 124.824 102.42 121.575 102.431 117.573V117.163C102.434 116.341 102.3 115.541 102.042 114.785H102.066C104.05 114.785 105.919 114.014 107.329 112.609C108.74 111.202 109.522 109.326 109.527 107.331C109.53 106.186 109.279 105.081 108.801 104.079C111.441 102.938 113.294 100.317 113.302 97.2762C113.305 96.1925 113.076 95.14 112.646 94.1762C115.48 93.1288 117.509 90.4125 117.52 87.2288C117.522 85.8038 117.131 84.4713 116.446 83.3337C121.467 81.0825 124.981 76.0513 124.997 70.2063ZM73.9087 27.7425C73.9087 15.1438 84.14 4.8975 96.715 4.8975C109.289 4.8975 119.522 15.1438 119.522 27.7425C119.522 39.4088 110.746 49.0563 99.46 50.4212C97.6825 50.6312 95.8725 50.6363 94.095 50.435C82.7512 49.13 73.9087 39.45 73.9087 27.7425ZM94.0687 55.3562C95.8275 55.5238 97.6037 55.5238 99.3625 55.3562V67.755H94.0687V55.3562ZM48.9487 115.329V76.6H60.085V115.329H48.9487ZM110.064 84.5912C111.484 84.5963 112.635 85.7725 112.632 87.2162C112.627 88.6362 111.499 89.7438 110.055 89.7438C110.05 89.7438 110.047 89.7438 110.042 89.7438L93.2312 89.7388C91.6537 89.675 90.4887 88.1612 90.8225 86.615C91.0737 85.455 92.1087 84.5837 93.35 84.5837L110.064 84.5912ZM107.656 95.41C108.147 95.9088 108.417 96.565 108.415 97.2625C108.41 98.6825 107.281 99.7963 105.84 99.7963C105.835 99.7963 105.83 99.7963 105.825 99.7963L90.8037 99.7938C90.8012 99.7938 90.7987 99.7938 90.7962 99.7938C89.395 99.7725 88.2575 98.6125 88.2637 97.205C88.2662 95.7875 89.4212 94.6363 90.8462 94.6363L105.849 94.6387C106.527 94.6413 107.171 94.9138 107.656 95.41ZM97.5437 117.556C97.5412 118.866 96.4762 119.929 95.1712 119.929C95.1737 119.929 95.1687 119.929 95.1712 119.929L85.2762 119.9C83.8775 119.897 82.7037 118.714 82.7075 117.313C82.71 115.895 83.865 114.74 85.2925 114.74L95.1787 114.766C95.9587 114.769 96.6962 115.165 97.1375 115.809C97.5025 116.344 97.5462 116.933 97.5437 117.556ZM103.882 109.14C103.394 109.625 102.751 109.882 102.059 109.89L87.0737 109.848C85.665 109.835 84.4837 108.691 84.4862 107.262C84.4912 105.851 85.675 104.688 87.0775 104.688L102.071 104.691C103.484 104.694 104.644 105.914 104.641 107.315C104.639 108.005 104.37 108.651 103.882 109.14ZM110.551 79.6963C110.544 79.6963 110.536 79.6963 110.527 79.6963L93.3575 79.6888C93.3525 79.6888 93.345 79.6888 93.3362 79.6888C91.3525 79.6888 89.4837 80.46 88.0737 81.865C86.8612 83.0713 86.1162 84.625 85.925 86.3025C85.7437 87.8825 86.0712 89.5075 86.8637 90.885C86.4025 91.1763 85.9687 91.52 85.5762 91.9137C84.4 93.085 83.6625 94.5775 83.445 96.1975C83.4125 96.4262 83.3925 96.6562 83.3837 96.885C83.2762 97.2737 82.8775 98.4887 81.765 99.67C79.9437 101.604 77.1012 102.586 73.3162 102.586C71.9675 102.586 70.8725 103.68 70.8725 105.033C70.8725 106.384 71.9675 107.481 73.3162 107.481C75.775 107.481 77.865 107.121 79.6362 106.534C79.4737 108.208 79.88 109.926 80.8012 111.339C80.5262 111.546 80.2637 111.773 80.0162 112.019C77.9775 114.05 77.2812 117.174 78.2662 119.883H77.5075L64.9725 113.1V80.56L80.555 72.65L119.782 72.6462C118.685 76.705 114.964 79.6963 110.551 79.6963Z" fill="#1C2D6B"/>
<path fill-rule="evenodd" clip-rule="evenodd" d="M95.0516 39.2045L110.665 23.5908C111.618 22.6358 111.618 21.0895 110.665 20.137C109.712 19.1845 108.167 19.1845 107.21 20.137L93.5003 33.8508L89.4078 28.8845C88.5503 27.8458 87.0116 27.6958 85.9703 28.5545C84.9303 29.4095 84.7803 30.9508 85.6391 31.9895L91.4391 39.032C91.8778 39.562 92.5178 39.8845 93.2066 39.9158C93.2453 39.9183 93.2854 39.9183 93.3241 39.9183C93.9704 39.9183 94.5916 39.6645 95.0516 39.2045Z" fill="#1C2D6B"/>
<path d="M56.9722 84.8806C56.5735 83.9206 55.581 83.3031 54.5385 83.3819C53.4785 83.4606 52.576 84.2406 52.3397 85.2794C51.856 87.4081 54.3347 89.0644 56.1247 87.8094C57.046 87.1619 57.4072 85.9231 56.9722 84.8806Z" fill="#1C2D6B"/>
<path d="M60.0685 76.4258H48.5742V115.329H60.0685V76.4258Z" fill="#89AADB"/>
<path d="M44.1527 76.2046L4.58594 73.9941V119.75L44.1527 115.771V76.2046Z" fill="#4B67B0"/>
<rect x="93.2266" y="54.7637" width="6.6313" height="13.7047" fill="#A4D4A0"/>
<rect x="90.5742" y="84.6045" width="22.5464" height="5.30504" rx="2.65252" fill="#EDE49D"/>
<rect x="90.5742" y="84.6045" width="11.0522" height="5.30504" rx="2.65252" fill="#D3BA2A"/>
<rect x="87.9219" y="94.5513" width="20.7781" height="5.30504" rx="2.65252" fill="#EDE49D"/>
<rect x="84.3828" y="104.719" width="20.336" height="5.30504" rx="2.65252" fill="#EDE49D"/>
<rect x="82.6133" y="114.666" width="15.0309" height="5.30504" rx="2.65252" fill="#EDE49D"/>
<path d="M80.6261 72.4468L64.7109 80.4043V113.119L77.5315 119.75H78.1946C76.7799 116.037 79.2261 112.603 80.6261 111.35C79.7419 109.759 79.6682 107.445 79.7419 106.487C77.0894 107.372 73.3316 107.593 73.1106 107.593C72.8895 107.593 70.9002 107.372 70.9002 105.161C70.9002 103.393 72.3738 102.803 73.1106 102.73C81.7313 102.951 83.4996 97.4247 83.4996 96.7615V95.6563C84.9143 92.4733 86.5942 91.3828 87.2574 91.2355C86.1963 89.8208 85.7837 87.1093 85.9311 86.1515C86.4616 81.3769 91.0151 79.8886 93.2255 79.7412H111.351C116.833 79.7412 119.382 74.8783 119.972 72.4468H80.6261Z" fill="#EDE49D" stroke="#D3BA2A"/>
<rect x="87.9219" y="94.5513" width="9.72591" height="5.30504" rx="2.65252" fill="#D3BA2A"/>
<rect x="84.3828" y="104.719" width="8.84173" height="5.30504" rx="2.65252" fill="#D3BA2A"/>
<rect x="82.6133" y="114.666" width="8.84173" height="5.30504" rx="2.65252" fill="#D3BA2A"/>
<circle cx="54.3205" cy="82.173" r="2.65252" fill="#6287C5"/>
</svg>
