<svg width="125" height="125" viewBox="0 0 125 125" fill="none" xmlns="http://www.w3.org/2000/svg">
<path d="M21.6875 1.68359H55.3417V102.646H21.6875V1.68359Z" fill="#89AADB"/>
<path d="M73.7055 1.68359V86.2656L65.7188 102.646H86.3319L102.458 86.2656V1.68359H73.7055Z" fill="#4B67B0"/>
<path d="M76.6499 1.68359H49.7266V102.646H71.0409L76.6499 86.2656V1.68359Z" fill="#6287C5"/>
<path d="M85.6257 104.328H21.6827C20.7533 104.328 20 103.575 20 102.645V1.68271C20 0.753293 20.7533 0 21.6827 0H102.453C103.382 0 104.136 0.753293 104.136 1.68271V86.2641C104.136 86.7185 103.952 87.1532 103.627 87.4695L86.7997 103.851C86.4856 104.157 86.0643 104.328 85.6257 104.328ZM23.3654 100.963H84.942L100.77 85.554V3.36542H23.3654V100.963Z" fill="#1C2D6B"/>
<path d="M85.6202 104.329C85.3992 104.329 85.1771 104.285 84.9662 104.196C84.3425 103.933 83.9375 103.322 83.9375 102.646V86.2647C83.9375 85.3353 84.6908 84.582 85.6202 84.582H102.447C103.132 84.582 103.749 84.9971 104.006 85.6315C104.264 86.2659 104.112 86.9934 103.621 87.4707L86.7936 103.852C86.4733 104.164 86.0504 104.329 85.6202 104.329ZM87.3029 87.9475V98.659L98.3067 87.9475H87.3029Z" fill="#1C2D6B"/>
<rect x="32.3477" y="12.6196" width="59.7362" height="3.36542" rx="1.68271" fill="#1C2D6B"/>
<rect x="32.3477" y="19.6333" width="59.7362" height="3.36543" rx="1.68271" fill="#1C2D6B"/>
<rect x="32.3477" y="68.1499" width="59.7362" height="3.36543" rx="1.68271" fill="#1C2D6B"/>
<rect x="32.3477" y="75.1621" width="59.7362" height="3.36542" rx="1.68271" fill="#1C2D6B"/>
<path d="M61.5215 37.4024L61.5314 37.3939L61.5412 37.3853C62.1637 36.8378 63.4685 36.3823 65.8629 36.3823C67.9112 36.3823 69.9853 36.5482 72.0859 36.8813C73.5421 37.1123 74.933 36.0428 75.0031 34.5167L75.1013 32.379C75.1572 31.1618 74.3236 30.0667 73.1099 29.8209C69.8703 29.1648 67.0529 28.8247 64.6771 28.8247C60.7658 28.8247 57.5732 29.6977 55.4352 31.7563C53.5789 33.5158 52.4549 36.125 51.9003 39.3641H51.2578C49.8771 39.3641 48.7578 40.4834 48.7578 41.8641V43.852C48.7578 45.2327 49.8771 46.352 51.2578 46.352H51.414V46.5136C51.414 46.7209 51.4147 46.9172 51.4162 47.1025H51.2578C49.8771 47.1025 48.7578 48.2217 48.7578 49.6025V51.5903C48.7578 52.971 49.8771 54.0903 51.2578 54.0903H51.9717C52.5602 57.1526 53.7047 59.6385 55.5352 61.3707L55.5405 61.3757L55.5458 61.3807C57.6804 63.3618 60.83 64.2024 64.6771 64.2024C67.3598 64.2024 70.1628 63.8994 73.0832 63.301C74.2865 63.0545 75.1059 61.974 75.0652 60.777L74.9892 58.546C74.9382 57.0507 73.6039 55.9548 72.1485 56.1472C69.6194 56.4815 67.416 56.6449 65.5309 56.6449C63.423 56.6449 62.1909 56.25 61.5376 55.7411C61.1376 55.4099 60.7582 54.8879 60.4515 54.0903H69.7484C71.1291 54.0903 72.2484 52.971 72.2484 51.5903V49.6025C72.2484 48.2217 71.1291 47.1025 69.7484 47.1025H59.6789V46.352H69.7484C71.1291 46.352 72.2484 45.2327 72.2484 43.852V41.8641C72.2484 40.4834 71.1291 39.3641 69.7484 39.3641H60.3736C60.6875 38.3743 61.0974 37.7625 61.5215 37.4024Z" fill="white" stroke="#1C2D6B" stroke-width="3"/>
<path d="M72.3569 122.13L72.3569 122.13C72.8934 123.604 74.5235 124.364 75.9977 123.828C77.4719 123.291 78.232 121.661 77.6955 120.187L68.9103 96.0495C68.9103 96.0494 68.9103 96.0494 68.9103 96.0494C68.7364 95.5718 68.2084 95.3256 67.7307 95.4994L72.3569 122.13ZM72.3569 122.13L63.5717 97.9926C63.5716 97.9926 63.5716 97.9926 63.5716 97.9926C63.3978 97.5149 63.644 96.9869 64.1217 96.813C64.1217 96.813 64.1217 96.813 64.1217 96.813L67.7306 95.4994L72.3569 122.13Z" fill="#91BBFF" stroke="#1C2D6B" stroke-width="2"/>
<path d="M67.9034 95.9688L67.9035 95.9687C68.1215 95.8894 68.3626 96.0017 68.4422 96.22C68.4422 96.22 68.4422 96.22 68.4422 96.2201L77.2274 120.357L77.2274 120.357C77.4743 121.036 77.388 121.754 77.0521 122.333L67.5085 96.1125L67.9034 95.9688Z" fill="#9D5E4A" stroke="#1C2D6B" stroke-width="3"/>
<path d="M68.8994 104.318C61.6028 106.974 53.5059 103.198 50.8501 95.9015C48.1943 88.6049 51.97 80.5078 59.2667 77.8521C66.5632 75.1963 74.6601 78.972 77.3159 86.2686C79.9716 93.5653 76.1962 101.662 68.8994 104.318Z" fill="#1C2D6B"/>
<path d="M77.3149 86.2667C74.6592 78.97 66.5623 75.1943 59.2658 77.8501C59.2658 77.8501 59.2658 77.8501 59.2656 77.8501L68.8984 104.316C76.1951 101.66 79.9707 93.5633 77.3149 86.2667Z" fill="#1C2D6B"/>
<path d="M74.3311 91.5483C74.58 85.8977 70.201 81.1152 64.5505 80.8663C58.8999 80.6174 54.1175 84.9964 53.8686 90.647C53.6197 96.2977 57.9987 101.08 63.6492 101.329C69.2998 101.578 74.0822 97.1989 74.3311 91.5483Z" fill="#A4E9FF"/>
<path d="M73.7088 87.5802C71.7774 82.2735 65.8887 79.5276 60.5822 81.4591C60.5822 81.4591 60.5822 81.4591 60.582 81.4591L67.5877 100.707C72.8945 98.7756 75.6404 92.8869 73.7088 87.5802Z" fill="#91BBFF"/>
</svg>
