<svg width="125" height="125" viewBox="0 0 125 125" fill="none" xmlns="http://www.w3.org/2000/svg">
<path d="M20.5742 23.019H47.2479V94.3473H20.5742V23.019Z" fill="#EDE49D"/>
<path d="M85.3594 23.019H112.033V94.3473H85.3594V23.019Z" fill="#D3BA2A"/>
<path d="M47.2617 23.019H85.3669V94.3473H47.2617V23.019Z" fill="#EEE045"/>
<path d="M112.034 96.3306H20.5817C19.4859 96.3306 18.5977 95.4424 18.5977 94.3465V23.0182C18.5977 21.9224 19.4859 21.0342 20.5817 21.0342H112.034C113.13 21.0342 114.018 21.9224 114.018 23.0182V94.3465C114.018 95.4417 113.13 96.3306 112.034 96.3306ZM22.5658 92.3625H110.05V25.0023H22.5658V92.3625Z" fill="#1C2D6B"/>
<path d="M20.5742 23.019H47.2479V38.7936H20.5742V23.019Z" fill="#EF7F72"/>
<path d="M85.3594 23.019H112.033V38.7936H85.3594V23.019Z" fill="#E8383B"/>
<path d="M47.2617 23.019H85.3669V38.7936H47.2617V23.019Z" fill="#E95947"/>
<path d="M112.034 40.7769H20.5817C19.4859 40.7769 18.5977 39.8887 18.5977 38.7929V23.0182C18.5977 21.9224 19.4859 21.0342 20.5817 21.0342H112.034C113.13 21.0342 114.018 21.9224 114.018 23.0182V38.7929C114.018 39.8881 113.13 40.7769 112.034 40.7769ZM22.5658 36.8088H110.05V25.0023H22.5658V36.8088Z" fill="#1C2D6B"/>
<path d="M92.1523 50.6953H100.089V58.6316H92.1523V50.6953Z" fill="#E95947"/>
<path d="M72.3203 50.6953H80.2566V58.6316H72.3203V50.6953Z" fill="#E95947"/>
<path d="M52.4766 50.6953H60.4128V58.6316H52.4766V50.6953Z" fill="#E95947"/>
<path d="M32.6523 50.6958H40.5886V58.632H32.6523V50.6958Z" fill="#E95947"/>
<path d="M52.4766 74.5034H60.4128V82.4397H52.4766V74.5034Z" fill="#E95947"/>
<path d="M72.3203 74.5034H80.2566V82.4397H72.3203V74.5034Z" fill="#E95947"/>
<path d="M92.1523 74.5034H100.089V82.4397H92.1523V74.5034Z" fill="#E95947"/>
<path d="M80.2953 84.4268H72.3591C71.2632 84.4268 70.375 83.5386 70.375 82.4428V74.5065C70.375 73.4107 71.2632 72.5225 72.3591 72.5225H80.2953C81.3912 72.5225 82.2794 73.4107 82.2794 74.5065V82.4428C82.2794 83.538 81.3912 84.4268 80.2953 84.4268ZM74.3431 80.4587H78.3113V76.4906H74.3431V80.4587Z" fill="#1C2D6B"/>
<path d="M100.127 84.4268H92.1911C91.0952 84.4268 90.207 83.5386 90.207 82.4428V74.5065C90.207 73.4107 91.0952 72.5225 92.1911 72.5225H100.127C101.223 72.5225 102.111 73.4107 102.111 74.5065V82.4428C102.111 83.538 101.223 84.4268 100.127 84.4268ZM94.1752 80.4587H98.1433V76.4906H94.1752V80.4587Z" fill="#1C2D6B"/>
<path d="M32.6836 74.5044H40.6198V82.4406H32.6836V74.5044Z" fill="#E95947"/>
<path d="M100.127 60.6177H92.1911C91.0952 60.6177 90.207 59.7295 90.207 58.6337V50.6974C90.207 49.6016 91.0952 48.7134 92.1911 48.7134H100.127C101.223 48.7134 102.111 49.6016 102.111 50.6974V58.6337C102.111 59.7289 101.223 60.6177 100.127 60.6177ZM94.1752 56.6496H98.1433V52.6815H94.1752V56.6496Z" fill="#1C2D6B"/>
<path d="M80.2953 60.6177H72.3591C71.2632 60.6177 70.375 59.7295 70.375 58.6337V50.6974C70.375 49.6016 71.2632 48.7134 72.3591 48.7134H80.2953C81.3912 48.7134 82.2794 49.6016 82.2794 50.6974V58.6337C82.2794 59.7289 81.3912 60.6177 80.2953 60.6177ZM74.3431 56.6496H78.3113V52.6815H74.3431V56.6496Z" fill="#1C2D6B"/>
<path d="M60.4633 60.6177H52.527C51.4312 60.6177 50.543 59.7295 50.543 58.6337V50.6974C50.543 49.6016 51.4312 48.7134 52.527 48.7134H60.4633C61.5591 48.7134 62.4473 49.6016 62.4473 50.6974V58.6337C62.4473 59.7289 61.5591 60.6177 60.4633 60.6177ZM54.5111 56.6496H58.4792V52.6815H54.5111V56.6496Z" fill="#1C2D6B"/>
<path d="M40.5922 60.6177H32.6559C31.5601 60.6177 30.6719 59.7295 30.6719 58.6337V50.6974C30.6719 49.6016 31.5601 48.7134 32.6559 48.7134H40.5922C41.688 48.7134 42.5762 49.6016 42.5762 50.6974V58.6337C42.5762 59.7289 41.688 60.6177 40.5922 60.6177ZM34.64 56.6496H38.6081V52.6815H34.64V56.6496Z" fill="#1C2D6B"/>
<path d="M60.4633 84.4268H52.527C51.4312 84.4268 50.543 83.5386 50.543 82.4428V74.5065C50.543 73.4107 51.4312 72.5225 52.527 72.5225H60.4633C61.5591 72.5225 62.4473 73.4107 62.4473 74.5065V82.4428C62.4473 83.538 61.5591 84.4268 60.4633 84.4268ZM54.5111 80.4587H58.4792V76.4906H54.5111V80.4587Z" fill="#1C2D6B"/>
<path d="M40.5922 84.4268H32.6559C31.5601 84.4268 30.6719 83.5386 30.6719 82.4428V74.5065C30.6719 73.4107 31.5601 72.5225 32.6559 72.5225H40.5922C41.688 72.5225 42.5762 73.4107 42.5762 74.5065V82.4428C42.5762 83.538 41.688 84.4268 40.5922 84.4268ZM34.64 80.4587H38.6081V76.4906H34.64V80.4587Z" fill="#1C2D6B"/>
<path d="M96.1517 30.8574C93.96 30.8574 92.1836 29.081 92.1836 26.8892V18.953C92.1836 16.7613 93.96 14.9849 96.1517 14.9849C98.3434 14.9849 100.12 16.7613 100.12 18.953V26.8892C100.12 29.081 98.3434 30.8574 96.1517 30.8574Z" fill="#EEE045"/>
<path d="M76.3275 30.8574C74.1358 30.8574 72.3594 29.081 72.3594 26.8892V18.953C72.3594 16.7613 74.1358 14.9849 76.3275 14.9849C78.5192 14.9849 80.2956 16.7613 80.2956 18.953V26.8892C80.2956 29.081 78.5192 30.8574 76.3275 30.8574Z" fill="#EEE045"/>
<path d="M56.4798 30.8574C54.2881 30.8574 52.5117 29.081 52.5117 26.8892V18.953C52.5117 16.7613 54.2881 14.9849 56.4798 14.9849C58.6716 14.9849 60.448 16.7613 60.448 18.953V26.8892C60.448 29.081 58.6716 30.8574 56.4798 30.8574Z" fill="#EEE045"/>
<path d="M36.6517 30.8574C34.46 30.8574 32.6836 29.081 32.6836 26.8892V18.953C32.6836 16.7613 34.46 14.9849 36.6517 14.9849C38.8434 14.9849 40.6198 16.7613 40.6198 18.953V26.8892C40.6198 29.081 38.8434 30.8574 36.6517 30.8574Z" fill="#EEE045"/>
<path d="M96.1592 32.8406C92.8776 32.8406 90.207 30.1701 90.207 26.8884V18.9522C90.207 15.6705 92.8776 13 96.1592 13C99.4408 13 102.111 15.6705 102.111 18.9522V26.8884C102.111 30.1701 99.4408 32.8406 96.1592 32.8406ZM96.1592 16.9681C95.0653 16.9681 94.1752 17.8583 94.1752 18.9522V26.8884C94.1752 27.9823 95.0653 28.8725 96.1592 28.8725C97.2531 28.8725 98.1433 27.9823 98.1433 26.8884V18.9522C98.1433 17.8576 97.2531 16.9681 96.1592 16.9681Z" fill="#1C2D6B"/>
<path d="M76.3272 32.8406C73.0456 32.8406 70.375 30.1701 70.375 26.8884V18.9522C70.375 15.6705 73.0456 13 76.3272 13C79.6088 13 82.2794 15.6705 82.2794 18.9522V26.8884C82.2794 30.1701 79.6088 32.8406 76.3272 32.8406ZM76.3272 16.9681C75.2333 16.9681 74.3431 17.8583 74.3431 18.9522V26.8884C74.3431 27.9823 75.2333 28.8725 76.3272 28.8725C77.4211 28.8725 78.3113 27.9823 78.3113 26.8884V18.9522C78.3113 17.8576 77.4211 16.9681 76.3272 16.9681Z" fill="#1C2D6B"/>
<path d="M56.4951 32.8406C53.2135 32.8406 50.543 30.1701 50.543 26.8884V18.9522C50.543 15.6705 53.2135 13 56.4951 13C59.7768 13 62.4473 15.6705 62.4473 18.9522V26.8884C62.4473 30.1701 59.7768 32.8406 56.4951 32.8406ZM56.4951 16.9681C55.4013 16.9681 54.5111 17.8583 54.5111 18.9522V26.8884C54.5111 27.9823 55.4013 28.8725 56.4951 28.8725C57.589 28.8725 58.4792 27.9823 58.4792 26.8884V18.9522C58.4792 17.8576 57.589 16.9681 56.4951 16.9681Z" fill="#1C2D6B"/>
<path d="M36.6241 32.8406C33.3424 32.8406 30.6719 30.1701 30.6719 26.8884V18.9522C30.6719 15.6705 33.3424 13 36.6241 13C39.9057 13 42.5762 15.6705 42.5762 18.9522V26.8884C42.5762 30.1701 39.9057 32.8406 36.6241 32.8406ZM36.6241 16.9681C35.5302 16.9681 34.64 17.8583 34.64 18.9522V26.8884C34.64 27.9823 35.5302 28.8725 36.6241 28.8725C37.7179 28.8725 38.6081 27.9823 38.6081 26.8884V18.9522C38.6081 17.8576 37.7179 16.9681 36.6241 16.9681Z" fill="#1C2D6B"/>
<path d="M15.902 88.0012C15.902 75.4489 19.9724 65.2739 24.9929 65.2739C12.4406 65.2739 2.26562 75.4489 2.26562 88.0012C2.26562 100.553 12.4406 110.728 24.9929 110.728C19.9724 110.728 15.902 100.553 15.902 88.0012Z" fill="#EF7F72"/>
<path d="M24.9766 65.2739C29.997 65.2739 34.0675 75.4489 34.0675 88.0012C34.0675 100.553 29.997 110.728 24.9766 110.728C37.5288 110.728 47.7038 100.553 47.7038 88.0012C47.7038 75.4489 37.5288 65.2739 24.9766 65.2739Z" fill="#E8383B"/>
<path d="M24.9933 110.728C30.014 110.728 34.0842 100.553 34.0842 88.0012C34.0842 75.4493 30.014 65.2739 24.9933 65.2739C19.9725 65.2739 15.9023 75.4493 15.9023 88.0012C15.9023 100.553 19.9725 110.728 24.9933 110.728Z" fill="#E95947"/>
<path d="M25 113C11.2152 113 0 101.785 0 88C0 74.2152 11.2152 63 25 63C38.7848 63 50 74.2152 50 88C50 101.785 38.7848 113 25 113ZM25 67.5455C13.7212 67.5455 4.54545 76.7212 4.54545 88C4.54545 99.2788 13.7212 108.455 25 108.455C36.2788 108.455 45.4545 99.2788 45.4545 88C45.4545 76.7212 36.2788 67.5455 25 67.5455Z" fill="#1C2D6B"/>
<path d="M38.6834 90.273H24.9993C23.744 90.273 22.7266 89.2556 22.7266 88.0003V74.3162C22.7266 73.0609 23.744 72.0435 24.9993 72.0435C26.2546 72.0435 27.272 73.0609 27.272 74.3162V85.7276H38.6834C39.9387 85.7276 40.9561 86.745 40.9561 88.0003C40.9561 89.2556 39.9387 90.273 38.6834 90.273Z" fill="#1C2D6B"/>
<path d="M118.357 122.13L118.357 122.13C118.893 123.604 120.523 124.364 121.998 123.828C123.472 123.291 124.232 121.661 123.695 120.187L114.91 96.0494C114.91 96.0494 114.91 96.0494 114.91 96.0494C114.736 95.5718 114.208 95.3256 113.731 95.4994L118.357 122.13ZM118.357 122.13L109.572 97.9926C109.572 97.9926 109.572 97.9926 109.572 97.9926C109.398 97.5149 109.644 96.9869 110.122 96.813C110.122 96.813 110.122 96.813 110.122 96.813L113.731 95.4994L118.357 122.13Z" fill="#91BBFF" stroke="#1C2D6B" stroke-width="2"/>
<path d="M113.907 95.9683L113.907 95.9683C114.125 95.8889 114.367 96.0012 114.446 96.2195C114.446 96.2195 114.446 96.2195 114.446 96.2196L123.231 120.357L123.231 120.357C123.478 121.035 123.392 121.753 123.056 122.333L113.512 96.112L113.907 95.9683Z" fill="#9D5E4A" stroke="#1C2D6B" stroke-width="3"/>
<path d="M114.899 104.318C107.603 106.974 99.5059 103.198 96.8501 95.9019C94.1943 88.6053 97.97 80.5083 105.267 77.8525C112.563 75.1968 120.66 78.9724 123.316 86.269C125.971 93.5656 122.196 101.663 114.899 104.318Z" fill="#1C2D6B"/>
<path d="M123.327 86.2666C120.671 78.97 112.574 75.1943 105.277 77.8501C105.277 77.8501 105.277 77.8501 105.277 77.8501L114.91 104.316C122.207 101.66 125.982 93.5632 123.327 86.2666Z" fill="#1C2D6B"/>
<path d="M120.343 91.5474C120.592 85.8968 116.213 81.1143 110.562 80.8654C104.912 80.6166 100.129 84.9955 99.8803 90.6461C99.6314 96.2967 104.01 101.079 109.661 101.328C115.311 101.577 120.094 97.198 120.343 91.5474Z" fill="#A4E9FF"/>
<path d="M119.724 87.5816C117.793 82.275 111.904 79.5291 106.598 81.4605C106.598 81.4605 106.598 81.4605 106.598 81.4605L113.603 100.708C118.91 98.7769 121.656 92.8883 119.724 87.5816Z" fill="#91BBFF"/>
</svg>
