<svg width="125" height="125" viewBox="0 0 125 125" fill="none" xmlns="http://www.w3.org/2000/svg">
<g clip-path="url(#clip0)">
<path d="M119.863 52.725L119.863 52.7252C120.584 55.6051 119.743 58.6909 117.621 60.8126C117.621 60.8126 117.621 60.8126 117.621 60.8126L58.4252 120.008C55.1031 123.331 49.7459 123.331 46.4237 120.008L4.99166 78.5765C4.99164 78.5765 4.99162 78.5765 4.99161 78.5764C1.66934 75.2539 1.6696 69.8969 4.99161 66.5749L64.1875 7.37904C66.3091 5.25756 69.3948 4.4164 72.2748 5.13641L72.8812 2.71106L72.2749 5.13642L105.405 13.4186C106.943 13.8257 108.256 14.5862 109.335 15.6651C110.413 16.7438 111.174 18.0565 111.581 19.5951L119.863 52.725ZM98.2136 45.8589L98.2136 45.8588C103.488 40.5838 103.489 32.0612 98.2135 26.7862C92.9385 21.5114 84.4159 21.5113 79.141 26.7863C73.8664 32.0609 73.8661 40.5839 79.141 45.8589C84.4159 51.1338 92.939 51.1335 98.2136 45.8589Z" fill="#FF6C6C" stroke="#1C2D6B" stroke-width="5"/>
<path d="M113 62L60.5 115C56.6232 118.869 52.3773 122.369 48.5 118.5L28 98L77 47.1765C80.877 51.0455 88 55.5 98.5 49C108.5 40.5 103.877 28.8692 100 25L106.5 18C107.761 19.2587 108.5 15.5 110.5 24L118 53.5C118.841 56.8559 115.476 59.5294 113 62Z" fill="#FF4949"/>
<path d="M44.6581 59.6284C40.3744 55.3447 40.3744 48.3752 44.6581 44.0913C48.9418 39.8073 55.9112 39.8076 60.1952 44.0913C64.4791 48.375 64.4788 55.3444 60.1952 59.6284C55.9115 63.9123 48.9418 63.912 44.6581 59.6284ZM55.016 49.2702C53.5873 47.8415 51.2657 47.8415 49.837 49.2702C48.4083 50.6989 48.4083 53.0205 49.837 54.4492C51.2657 55.8779 53.5873 55.8779 55.016 54.4492C56.4447 53.0205 56.4447 50.6989 55.016 49.2702Z" fill="#FFE470"/>
<path d="M49.8339 95.8807C45.5502 91.597 45.5502 84.6276 49.8339 80.3436C54.1175 76.0599 61.087 76.0599 65.3709 80.3436C69.6546 84.6273 69.6546 91.5968 65.3709 95.8807C61.087 100.164 54.1175 100.164 49.8339 95.8807ZM60.1917 85.5228C58.763 84.0941 56.4415 84.0941 55.0128 85.5228C53.5841 86.9515 53.5841 89.2731 55.0128 90.7018C56.4415 92.1305 58.763 92.1305 60.1917 90.7018C61.6207 89.2731 61.6207 86.9515 60.1917 85.5228Z" fill="#FFD400"/>
<path d="M78.7345 71.022L50.8715 74.1291L32.1235 76.2009C30.9321 76.3562 29.8965 75.9421 29.1196 75.165C28.5501 74.5954 28.1878 73.8183 28.0838 72.99C27.825 70.9697 29.3269 69.1572 31.2947 68.9502L59.1577 65.843L77.9057 63.7713C79.9259 63.5125 81.7382 65.0142 81.9455 66.9822C82.2047 69.0019 80.7025 70.8144 78.7345 71.022Z" fill="#EEE045"/>
<path d="M78.7341 71.0217L50.8711 74.1289L59.1575 65.8425L77.9055 63.7708C79.9257 63.512 81.738 65.0137 81.9453 66.9817C82.2043 69.0017 80.7021 70.8142 78.7341 71.0217Z" fill="#FFD400"/>
<path d="M123.913 6.26659L96.4463 33.7331C94.9961 35.1833 92.7175 35.1833 91.2673 33.7331C89.8171 32.2829 89.8171 30.0043 91.2673 28.5541L118.734 1.08764C120.184 -0.362548 122.462 -0.362548 123.913 1.08764C125.363 2.53784 125.363 4.8164 123.913 6.26659Z" fill="#3F589F"/>
<path d="M91.2656 33.7329L123.911 1.0874C125.361 2.5376 125.361 4.81616 123.911 6.26635L96.4448 33.7329C94.9944 35.183 92.7161 35.183 91.2656 33.7329Z" fill="#4B67B0"/>
</g>
<defs>
<clipPath id="clip0">
<rect width="125" height="125" fill="white"/>
</clipPath>
</defs>
</svg>
