<svg width="125" height="125" viewBox="0 0 125 125" fill="none" xmlns="http://www.w3.org/2000/svg">
<path d="M11.9336 1.96045H35.3569V107.783H11.9336V1.96045Z" fill="#89AADB"/>
<path d="M66.9062 1.96045H90.3296V107.783H66.9062V1.96045Z" fill="#4B67B0"/>
<path d="M35.3828 1.96045H66.9231V107.783H35.3828V1.96045Z" fill="#6287C5"/>
<path d="M90.3467 109.742H11.9597C10.8773 109.742 10 108.865 10 107.782V1.95968C10 0.877282 10.8773 0 11.9597 0H90.3467C91.4291 0 92.3064 0.877282 92.3064 1.95968V107.782C92.3064 108.865 91.4291 109.742 90.3467 109.742ZM13.9194 105.822H88.3871V3.91935H13.9194V105.822Z" fill="#1C2D6B"/>
<path d="M23.7188 25.4761H39.3962V41.1535H23.7188V25.4761Z" fill="#EEE045"/>
<path d="M23.7188 52.9102H39.3962V68.5876H23.7188V52.9102Z" fill="#EEE045"/>
<path d="M23.7188 80.3477H39.3962V96.0251H23.7188V80.3477Z" fill="#EEE045"/>
<path d="M39.3597 43.1109H23.6823C22.5999 43.1109 21.7227 42.2336 21.7227 41.1512V25.4738C21.7227 24.3914 22.5999 23.5142 23.6823 23.5142H39.3597C40.4421 23.5142 41.3194 24.3914 41.3194 25.4738V41.1512C41.3194 42.2336 40.4421 43.1109 39.3597 43.1109ZM25.642 39.1916H37.4001V27.4335H25.642V39.1916Z" fill="#1C2D6B"/>
<path d="M39.3597 70.5523H23.6823C22.5999 70.5523 21.7227 69.6751 21.7227 68.5927V52.9152C21.7227 51.8328 22.5999 50.9556 23.6823 50.9556H39.3597C40.4421 50.9556 41.3194 51.8328 41.3194 52.9152V68.5927C41.3194 69.6751 40.4421 70.5523 39.3597 70.5523ZM25.642 66.633H37.4001V54.8749H25.642V66.633Z" fill="#1C2D6B"/>
<path d="M39.3597 97.9845H23.6823C22.5999 97.9845 21.7227 97.1072 21.7227 96.0248V80.3474C21.7227 79.265 22.5999 78.3877 23.6823 78.3877H39.3597C40.4421 78.3877 41.3194 79.265 41.3194 80.3474V96.0248C41.3194 97.1072 40.4421 97.9845 39.3597 97.9845ZM25.642 94.0651H37.4001V82.307H25.642V94.0651Z" fill="#1C2D6B"/>
<path d="M78.5475 29.3984H51.112C50.0296 29.3984 49.1523 28.5211 49.1523 27.4387C49.1523 26.3563 50.0296 25.479 51.112 25.479H78.5475C79.6299 25.479 80.5072 26.3563 80.5072 27.4387C80.5072 28.5211 79.6299 29.3984 78.5475 29.3984Z" fill="#1C2D6B"/>
<path d="M78.5475 41.1562H51.112C50.0296 41.1562 49.1523 40.2789 49.1523 39.1965C49.1523 38.1141 50.0296 37.2368 51.112 37.2368H78.5475C79.6299 37.2368 80.5072 38.1141 80.5072 39.1965C80.5072 40.2789 79.6299 41.1562 78.5475 41.1562Z" fill="#1C2D6B"/>
<path d="M78.5475 56.831H51.112C50.0296 56.831 49.1523 55.9537 49.1523 54.8713C49.1523 53.7889 50.0296 52.9116 51.112 52.9116H78.5475C79.6299 52.9116 80.5072 53.7889 80.5072 54.8713C80.5072 55.9537 79.6299 56.831 78.5475 56.831Z" fill="#1C2D6B"/>
<path d="M78.5475 68.5888H51.112C50.0296 68.5888 49.1523 67.7115 49.1523 66.6291C49.1523 65.5467 50.0296 64.6694 51.112 64.6694H78.5475C79.6299 64.6694 80.5072 65.5467 80.5072 66.6291C80.5072 67.7115 79.6299 68.5888 78.5475 68.5888Z" fill="#1C2D6B"/>
<path d="M78.5475 84.268H51.112C50.0296 84.268 49.1523 83.3907 49.1523 82.3083C49.1523 81.2259 50.0296 80.3486 51.112 80.3486H78.5475C79.6299 80.3486 80.5072 81.2259 80.5072 82.3083C80.5072 83.3907 79.6299 84.268 78.5475 84.268Z" fill="#1C2D6B"/>
<path d="M78.5475 96.0263H51.112C50.0296 96.0263 49.1523 95.149 49.1523 94.0666C49.1523 92.9842 50.0296 92.1069 51.112 92.1069H78.5475C79.6299 92.1069 80.5072 92.9842 80.5072 94.0666C80.5072 95.149 79.6299 96.0263 78.5475 96.0263Z" fill="#1C2D6B"/>
<path d="M32.939 37.2339C32.4308 37.2339 31.9402 37.0359 31.5731 36.6793L27.7341 32.9467C26.9581 32.1923 26.9411 30.9518 27.6949 30.1758C28.4487 29.3997 29.6899 29.3821 30.4659 30.1366L32.7006 32.3099L43.0215 18.4282C43.6669 17.56 44.8937 17.3791 45.7638 18.0245C46.6326 18.6705 46.8129 19.8979 46.1675 20.7667L34.5113 36.4441C34.1743 36.8975 33.6582 37.1829 33.0951 37.228C33.0429 37.2312 32.9906 37.2339 32.939 37.2339Z" fill="#1C2D6B"/>
<path d="M32.939 64.6657C32.4308 64.6657 31.9402 64.4678 31.5731 64.1111L27.7341 60.3786C26.9581 59.6241 26.9411 58.3837 27.6949 57.6076C28.4487 56.8316 29.6899 56.8139 30.4659 57.5684L32.7006 59.7417L43.0215 45.86C43.6669 44.9919 44.8937 44.8116 45.7638 45.4563C46.6326 46.1024 46.8129 47.3298 46.1675 48.1986L34.5113 63.876C34.1743 64.3293 33.6582 64.6148 33.0951 64.6598C33.0429 64.6631 32.9906 64.6657 32.939 64.6657Z" fill="#1C2D6B"/>
<path d="M32.939 92.1049C32.4308 92.1049 31.9402 91.907 31.5731 91.5504L27.7341 87.8178C26.9581 87.0633 26.9411 85.8229 27.6949 85.0469C28.4487 84.2708 29.6899 84.2532 30.4659 85.0076L32.7006 87.1809L43.0215 73.2993C43.6669 72.4311 44.8937 72.2502 45.7638 72.8956C46.6326 73.5416 46.8129 74.769 46.1675 75.6378L34.5113 91.3152C34.1743 91.7685 33.6582 92.054 33.0951 92.0991C33.0429 92.1023 32.9906 92.1049 32.939 92.1049Z" fill="#1C2D6B"/>
<path d="M98.9346 123.902L89.8711 108.202C91.3203 108.153 92.7227 107.924 94.0607 107.541L100.383 118.493L98.9346 123.902Z" fill="#A4D4A0"/>
<path d="M100.735 103.902L108.946 118.124L103.538 116.675L97.4688 106.162C98.6443 105.533 99.7409 104.775 100.735 103.902V103.902Z" fill="#419B46"/>
<path d="M94.0625 107.542C94.6602 107.371 95.2458 107.172 95.8153 106.941C96.1723 106.795 96.522 106.637 96.8669 106.469C97.0692 106.371 97.2685 106.269 97.4664 106.163L103.536 116.675L101.052 116.01L101.051 116.01V116.01H101.051L100.386 118.494L94.0625 107.542Z" fill="#65BC49"/>
<path d="M79.6402 123.902L88.7037 108.202C87.2545 108.153 85.8522 107.924 84.5142 107.541L78.1914 118.493L79.6402 123.902Z" fill="#419B46"/>
<path d="M77.8441 103.902L69.6328 118.124L75.0408 116.675L81.1104 106.162C79.9352 105.533 78.8382 104.775 77.8441 103.902V103.902Z" fill="#A4D4A0"/>
<path d="M84.5165 107.542C83.9188 107.371 83.3332 107.172 82.7637 106.941C82.4067 106.795 82.057 106.637 81.7121 106.469C81.5098 106.371 81.3105 106.269 81.1126 106.163L75.043 116.675L77.5273 116.01L77.5277 116.01V116.01H77.528L78.1934 118.494L84.5165 107.542Z" fill="#65BC49"/>
<path d="M98.934 125C98.5455 125 98.1816 124.794 97.9841 124.451L88.9206 108.751C88.7278 108.417 88.7241 108.007 88.9114 107.67C89.0987 107.333 89.4487 107.119 89.8339 107.106C93.5776 106.98 97.1907 105.549 100.007 103.077C100.254 102.861 100.584 102.765 100.91 102.819C101.234 102.873 101.517 103.069 101.681 103.353L109.892 117.575C110.114 117.959 110.082 118.439 109.812 118.791C109.543 119.143 109.088 119.299 108.658 119.183L101.824 117.353L99.994 124.186C99.8795 124.615 99.5174 124.932 99.0774 124.99C99.0298 124.996 98.9815 125 98.934 125V125ZM91.6862 109.153L98.5602 121.059L99.9885 115.726C100.063 115.444 100.247 115.205 100.499 115.059C100.751 114.914 101.05 114.874 101.332 114.95L106.667 116.378L100.425 105.567C97.8747 107.497 94.8527 108.735 91.6862 109.153Z" fill="#1C2D6B"/>
<path d="M79.6405 125C79.5929 125 79.5446 124.997 79.4967 124.991C79.0567 124.933 78.6949 124.615 78.5801 124.187L76.7494 117.353L69.9164 119.184C69.4881 119.299 69.0319 119.144 68.762 118.792C68.4917 118.44 68.4602 117.96 68.6823 117.575L76.8931 103.354C77.0574 103.069 77.3409 102.873 77.6646 102.82C77.9905 102.765 78.32 102.861 78.5673 103.078C81.383 105.55 84.9961 106.98 88.7402 107.107C89.1257 107.119 89.4758 107.333 89.6627 107.671C89.8499 108.007 89.8463 108.418 89.6535 108.752L80.59 124.452C80.3929 124.794 80.0289 125 79.6405 125V125ZM77.5267 114.912C78.011 114.912 78.4546 115.235 78.5859 115.726L80.0147 121.059L86.8886 109.153C83.7221 108.735 80.7001 107.497 78.1499 105.567L71.9077 116.379L77.2421 114.95C77.3368 114.924 77.4327 114.912 77.5267 114.912V114.912Z" fill="#1C2D6B"/>
<path d="M85.8227 70.935C86.5264 72.7382 87.8059 71.9354 88.0305 69.5498C88.179 67.9722 88.7331 67.1836 89.2876 67.1836C87.9895 67.1836 86.6914 67.9722 86.3439 69.5498C86.2382 70.03 86.029 70.4426 85.7539 70.7865C85.7766 70.8373 85.8007 70.8786 85.8227 70.935Z" fill="#E95947"/>
<path d="M88.0305 112.198C87.8063 109.813 86.5264 109.01 85.8227 110.813V110.814C85.8007 110.87 85.7766 110.911 85.7539 110.962C86.029 111.305 86.2382 111.718 86.3439 112.198C86.6914 113.775 87.9895 114.564 89.2876 114.564C88.7331 114.565 88.1786 113.776 88.0305 112.198Z" fill="#E95947"/>
<path d="M83.6459 107.87C83.9612 105.541 83.0245 103.348 82.0299 104.086C80.7146 105.061 79.7541 101.166 80.7728 98.9867C81.5431 97.3389 81.2 94.3428 80.1813 93.8176C78.8338 93.123 78.8338 88.6247 80.1813 87.9301C81.2 87.4048 81.5431 84.4088 80.7728 82.761C79.7541 80.582 80.715 76.6866 82.0299 77.6621C83.0245 78.3998 83.9612 76.2067 83.6459 73.8781V73.8778C83.5483 73.155 83.568 72.4813 83.6631 71.8993C82.7842 71.9794 81.8631 71.6864 81.1759 70.9344L81.1755 70.934C78.9966 68.5492 75.1011 70.7983 76.0766 73.8778V73.8781C76.8144 76.2067 74.6212 78.3998 72.2927 77.6621H72.2923C69.2129 76.6862 66.9637 80.5817 69.3486 82.761H69.3489C71.1522 84.4088 70.3497 87.4048 67.9638 87.9301C64.809 88.6247 64.809 93.123 67.9638 93.8176C70.3493 94.3428 71.1522 97.3389 69.3489 98.9867C66.9641 101.166 69.2132 105.061 72.2927 104.086C74.6212 103.348 76.8144 105.541 76.0766 107.869V107.87C75.1007 110.949 78.9962 113.198 81.1755 110.814L81.1759 110.813C81.8631 110.061 82.7838 109.768 83.6631 109.848C83.568 109.266 83.5479 108.593 83.6459 107.87V107.87Z" fill="#EF7F72"/>
<path d="M90.5462 69.5498C90.7704 71.9354 92.0503 72.7382 92.754 70.935V70.9346C92.776 70.8786 92.8001 70.8373 92.8228 70.7865C92.5477 70.4426 92.3385 70.0304 92.2328 69.5498C91.8853 67.9722 90.5872 67.1836 89.2891 67.1836C89.8436 67.1836 90.3981 67.9722 90.5462 69.5498Z" fill="#E95947"/>
<path d="M110.612 87.9301C108.226 87.4048 107.423 84.4088 109.226 82.761C111.611 80.582 109.362 76.6866 106.283 77.6621C103.954 78.3998 101.761 76.2067 102.499 73.8781V73.8778C103.475 70.7983 99.5791 68.5492 97.3998 70.934L97.3994 70.9344C96.7121 71.6864 95.7915 71.9794 94.9122 71.8993C95.0073 72.4816 95.027 73.155 94.9294 73.8778V73.8781C94.6141 76.2067 95.5508 78.3998 96.5454 77.6621C97.8607 76.6862 98.8212 80.5817 97.8025 82.761C97.0322 84.4088 97.3753 87.4048 98.394 87.9301C99.7415 88.6247 99.7415 93.123 98.394 93.8176C97.3753 94.3428 97.0322 97.3389 97.8025 98.9867C98.8212 101.166 97.8603 105.061 96.5454 104.086C95.5508 103.348 94.6141 105.541 94.9294 107.869V107.87C95.027 108.593 95.0073 109.266 94.9122 109.848C95.7911 109.768 96.7121 110.061 97.3994 110.813L97.3998 110.814C99.5787 113.198 103.474 110.949 102.498 107.87V107.869C101.761 105.541 103.954 103.348 106.282 104.086H106.283C109.362 105.061 111.611 101.166 109.226 98.9867C107.423 97.3389 108.226 94.3428 110.612 93.8176C113.766 93.123 113.766 88.6247 110.612 87.9301Z" fill="#E8383B"/>
<path d="M92.754 110.813C92.0503 109.01 90.7708 109.813 90.5462 112.198C90.3981 113.776 89.8436 114.565 89.2891 114.565C90.5872 114.565 91.8853 113.776 92.2328 112.198C92.3385 111.718 92.5477 111.306 92.8228 110.962C92.8001 110.911 92.776 110.87 92.754 110.813Z" fill="#E95947"/>
<path d="M94.9327 107.87C94.6174 105.541 95.5541 103.348 96.5487 104.086C97.864 105.062 98.8245 101.166 97.8058 98.9869C97.0355 97.3391 97.3786 94.343 98.3973 93.8178C99.7448 93.1232 99.7448 88.6249 98.3973 87.9303C97.3786 87.405 97.0355 84.409 97.8058 82.7612C98.8245 80.5822 97.8636 76.6868 96.5487 77.6623C95.5541 78.4 94.6174 76.2069 94.9327 73.8783C95.0304 73.1556 95.0106 72.4822 94.9155 71.8999C94.1108 71.8264 93.3449 71.4375 92.8236 70.7865C92.801 70.8377 92.7768 70.8786 92.7549 70.9346V70.935C92.0511 72.7382 90.7717 71.9354 90.5471 69.5498C90.3989 67.9722 89.8444 67.1836 89.2899 67.1836C88.7354 67.1836 88.1809 67.9722 88.0327 69.5498C87.8085 71.9354 86.5287 72.7382 85.8249 70.935V70.9346C85.803 70.8786 85.7788 70.8373 85.7562 70.7861C85.2349 71.4375 84.469 71.8264 83.6643 71.8995C83.5692 72.4818 83.5491 73.1552 83.6471 73.878V73.8783C83.9624 76.2069 83.0257 78.4 82.0311 77.6623C80.7158 76.6864 79.7553 80.5819 80.774 82.7612C81.5443 84.409 81.2012 87.405 80.1825 87.9303C78.835 88.6249 78.835 93.1232 80.1825 93.8178C81.2012 94.343 81.5443 97.3391 80.774 98.9869C79.7553 101.166 80.7162 105.061 82.0311 104.086C83.0257 103.348 83.9624 105.541 83.6471 107.87V107.87C83.5495 108.593 83.5692 109.266 83.6643 109.849C84.469 109.922 85.2349 110.311 85.7562 110.962C85.7788 110.911 85.803 110.87 85.8249 110.814V110.813C86.5287 109.01 87.8082 109.813 88.0327 112.199C88.1812 113.776 88.7354 114.565 89.2899 114.565C89.8444 114.565 90.3989 113.776 90.5471 112.199C90.7713 109.813 92.0511 109.01 92.7549 110.813V110.814C92.7768 110.87 92.801 110.911 92.8236 110.962C93.3449 110.311 94.1108 109.922 94.9155 109.849C95.0102 109.267 95.0304 108.593 94.9327 107.87Z" fill="#E95947"/>
<path d="M89.2891 74.937C92.4808 74.937 95.0683 82.0722 95.0683 90.8741C95.0683 99.6761 92.4808 106.811 89.2891 106.811C98.0907 106.811 105.226 99.6761 105.226 90.8741C105.226 82.0722 98.0907 74.937 89.2891 74.937V74.937Z" fill="#D3BA2A"/>
<path d="M83.5095 90.8741C83.5095 82.0725 86.0969 74.937 89.2887 74.937C80.4871 74.937 73.3516 82.0722 73.3516 90.8741C73.3516 99.6761 80.4867 106.811 89.2887 106.811C86.0969 106.811 83.5095 99.6757 83.5095 90.8741Z" fill="#EDE49D"/>
<path d="M89.2909 106.811C92.4827 106.811 95.0702 99.676 95.0702 90.8741C95.0702 82.0723 92.4827 74.937 89.2909 74.937C86.0992 74.937 83.5117 82.0723 83.5117 90.8741C83.5117 99.676 86.0992 106.811 89.2909 106.811Z" fill="#EEE045"/>
<path d="M89.288 107.908C79.8953 107.908 72.2539 100.267 72.2539 90.8743C72.2539 81.4812 79.8956 73.8398 89.288 73.8398C98.681 73.8398 106.322 81.4816 106.322 90.8743C106.323 100.267 98.681 107.908 89.288 107.908ZM89.288 76.0345C81.1056 76.0345 74.4485 82.6916 74.4485 90.8743C74.4485 99.0566 81.1056 105.714 89.288 105.714C97.4707 105.714 104.128 99.0566 104.128 90.8743C104.128 82.6916 97.4707 76.0345 89.288 76.0345V76.0345Z" fill="#1C2D6B"/>
<path d="M89.2892 115.662C87.3126 115.662 85.6988 114.365 85.2734 112.435C85.1165 111.722 84.6022 111.184 83.8973 110.995C83.1947 110.807 82.4785 111.015 81.9858 111.553C80.6522 113.013 78.6068 113.33 76.8942 112.341C75.1824 111.353 74.4333 109.423 75.0303 107.538C75.2512 106.843 75.0745 106.119 74.5584 105.603C74.043 105.088 73.3203 104.911 72.6242 105.132C70.7397 105.728 68.8095 104.98 67.8212 103.268C66.8329 101.555 67.1493 99.51 68.6087 98.1763C69.1472 97.684 69.356 96.9697 69.1669 96.2648C68.9782 95.5603 68.4401 95.0457 67.7272 94.8888C65.797 94.4637 64.5 92.85 64.5 90.8729C64.5 88.8959 65.797 87.2829 67.7276 86.8578C68.4401 86.7006 68.9782 86.1863 69.1673 85.4811C69.356 84.7766 69.1472 84.0622 68.6087 83.5703C67.1493 82.2367 66.8329 80.1905 67.8212 78.4787C68.8099 76.7662 70.7401 76.0174 72.6242 76.6151C73.3195 76.8342 74.043 76.659 74.5591 76.1429C75.0749 75.6271 75.2512 74.904 75.031 74.2087C74.4337 72.3242 75.1828 70.394 76.8946 69.4057C78.6075 68.4174 80.6526 68.7338 81.9858 70.1928C82.4785 70.7316 83.1943 70.9398 83.8973 70.7514C84.6022 70.5623 85.1165 70.0246 85.2734 69.3121C85.6984 67.3815 87.3122 66.0845 89.2892 66.0845C91.2655 66.0845 92.8793 67.3815 93.3047 69.3117C93.4616 70.0242 93.9759 70.5626 94.6807 70.7514C95.3859 70.9398 96.0995 70.7316 96.5919 70.1928C97.9255 68.7334 99.972 68.4174 101.683 69.4053C103.396 70.3937 104.144 72.3238 103.547 74.2083C103.326 74.9036 103.503 75.6271 104.019 76.1432C104.535 76.6586 105.258 76.8346 105.954 76.6151C107.836 76.0167 109.768 76.7665 110.757 78.4787C111.745 80.1909 111.429 82.2363 109.969 83.5699C109.431 84.0622 109.222 84.7766 109.411 85.4814C109.6 86.1863 110.138 86.7006 110.85 86.8575C112.781 87.2825 114.078 88.8963 114.078 90.8733C114.078 92.8496 112.781 94.4634 110.851 94.8888L110.615 93.8171L110.85 94.8888C110.138 95.0457 109.6 95.5603 109.411 96.2652C109.222 96.9697 109.431 97.684 109.969 98.1763C111.428 99.51 111.745 101.556 110.756 103.268C109.768 104.979 107.839 105.729 105.954 105.131C105.258 104.912 104.535 105.088 104.019 105.604C103.503 106.119 103.326 106.843 103.547 107.538C104.144 109.422 103.395 111.353 101.683 112.341C99.9716 113.33 97.9259 113.013 96.5922 111.554C96.0999 111.015 95.3866 110.806 94.6803 110.995C93.9759 111.184 93.4616 111.722 93.3047 112.435C92.8796 114.365 91.2658 115.662 89.2892 115.662V115.662ZM83.3951 108.734C83.7514 108.734 84.1109 108.78 84.4661 108.875C85.9548 109.274 87.0858 110.457 87.4168 111.962C87.6611 113.072 88.5441 113.467 89.2892 113.467C90.0339 113.467 90.9169 113.072 91.1612 111.962C91.4923 110.457 92.6232 109.274 94.1119 108.875C95.601 108.477 97.1716 108.935 98.2115 110.073C98.9778 110.912 99.9402 110.812 100.585 110.44C101.231 110.068 101.797 109.284 101.454 108.201C100.989 106.732 101.376 105.142 102.467 104.052C103.556 102.962 105.146 102.574 106.616 103.039C107.7 103.383 108.483 102.815 108.855 102.17C109.228 101.525 109.327 100.563 108.488 99.7967C107.35 98.7568 106.891 97.1862 107.29 95.6975C107.689 94.2084 108.872 93.0775 110.377 92.7461C111.487 92.5017 111.882 91.6188 111.882 90.8737C111.882 90.129 111.487 89.2463 110.378 89.002C108.872 88.6706 107.689 87.5393 107.29 86.0502C106.891 84.5615 107.35 82.9909 108.488 81.9514C109.327 81.1847 109.228 80.2223 108.856 79.5775C108.483 78.9326 107.7 78.3653 106.616 78.7084C105.147 79.174 103.557 78.7867 102.467 77.6963C101.376 76.6059 100.989 75.0163 101.454 73.547C101.798 72.4636 101.231 71.6801 100.585 71.3074C99.9394 70.9346 98.9774 70.8362 98.2119 71.6746C97.1716 72.8129 95.6003 73.2716 94.1119 72.8729C92.6232 72.4738 91.4923 71.2909 91.1612 69.7854C90.9169 68.6763 90.0339 68.2809 89.2892 68.2809C88.5441 68.2809 87.6611 68.6763 87.4168 69.7857C87.0858 71.2909 85.9548 72.4738 84.4657 72.8725C82.9785 73.2723 81.4061 72.8129 80.3662 71.6746C79.6002 70.8362 78.6379 70.9354 77.9927 71.3077C77.3474 71.6801 76.7808 72.4636 77.1236 73.5466C77.5892 75.0163 77.2015 76.6059 76.1115 77.6963C75.0215 78.7863 73.4311 79.1737 71.9618 78.7084C70.8776 78.3653 70.0949 78.9319 69.7225 79.5775C69.3498 80.2227 69.251 81.1851 70.0894 81.951C71.2273 82.9909 71.6867 84.5615 71.2877 86.0506C70.8886 87.5397 69.7057 88.6706 68.2002 89.0016C67.0911 89.246 66.6957 90.129 66.6957 90.8737C66.6957 91.6188 67.0911 92.5017 68.2005 92.7461C69.7057 93.0775 70.889 94.2084 71.2877 95.6971C71.6864 97.1858 71.2277 98.7568 70.0898 99.7967C69.251 100.563 69.3505 101.525 69.7225 102.17C70.0945 102.815 70.8773 103.382 71.9618 103.039C73.4304 102.573 75.0211 102.961 76.1111 104.052C77.2011 105.141 77.5892 106.731 77.1239 108.201C76.7808 109.284 77.3474 110.068 77.9927 110.441C78.6371 110.813 79.5999 110.913 80.3658 110.073C81.1577 109.207 82.2579 108.734 83.3951 108.734V108.734Z" fill="#1C2D6B"/>
</svg>
