<?xml version="1.0" encoding="utf-8"?>
<!-- Generator: Adobe Illustrator 22.1.0, SVG Export Plug-In . SVG Version: 6.00 Build 0)  -->
<svg version="1.1" id="Layer_1" xmlns="http://www.w3.org/2000/svg" xmlns:xlink="http://www.w3.org/1999/xlink" x="0px" y="0px"
	 viewBox="0 0 512 512" style="enable-background:new 0 0 512 512;" xml:space="preserve">
<style type="text/css">
	.st0{fill:#EDE49D;}
	.st1{fill:#D3BA2A;}
	.st2{fill:#EEE045;}
	.st3{fill:#1C2D6B;}
	.st4{fill:#89AADB;}
	.st5{fill:#4B67B0;}
	.st6{fill:#6287C5;}
	.st7{fill:#EF7F72;}
	.st8{fill:#E8383B;}
	.st9{fill:#E95947;}
	.st10{fill:#A4D4A0;}
	.st11{fill:#419B46;}
	.st12{fill:#65BC49;}
</style>
<path class="st0" d="M91,152.9h110v206.2H91V152.9z"/>
<path class="st1" d="M324.7,152.9h110v206.2h-110V152.9z"/>
<path class="st2" d="M201,152.9h123.7v206.2H201V152.9z"/>
<path class="st3" d="M434.7,366H91c-3.8,0-6.9-3.1-6.9-6.9V152.9c0-3.8,3.1-6.9,6.9-6.9h343.7c3.8,0,6.9,3.1,6.9,6.9v206.2
	C441.6,362.9,438.5,366,434.7,366z M97.9,352.2h330V159.7h-330V352.2z"/>
<path class="st4" d="M317.5,307.1c0-17.4,2.9-32.6,7.3-41.1c-2.9-7.4-4.7-18.6-4.7-31.3c0-22.2,5.7-40.2,12.8-40.2
	c-22.2,0-40.2,18-40.2,40.2c0,12.6,5.8,23.9,14.9,31.3c-13.8,8.5-23,23.7-23,41.1v8v16.1h32.9v-16.1L317.5,307.1L317.5,307.1z"/>
<path class="st5" d="M358,266c9.1-7.4,14.9-18.6,14.9-31.3c0-22.2-18-40.2-40.2-40.2c7,0,12.8,18,12.8,40.2
	c0,12.6-1.8,23.9-4.7,31.3c4.4,8.5,7.3,23.7,7.3,41.1v8v16.1H381v-16.1v-8C381,289.7,371.8,274.5,358,266z"/>
<path class="st6" d="M348.1,307.1c0-17.4-2.9-32.6-7.3-41.1c2.9-7.4,4.7-18.6,4.7-31.3c0-22.2-5.7-40.2-12.8-40.2
	c-7,0-12.8,18-12.8,40.2c0,12.6,1.8,23.9,4.7,31.3c-4.4,8.5-7.3,23.7-7.3,41.1v8v16.1h30.6v-16.1V307.1z"/>
<path class="st3" d="M332.8,281.8c-26,0-47.1-21.1-47.1-47.1c0-26,21.1-47.1,47.1-47.1s47.1,21.1,47.1,47.1
	C379.9,260.7,358.7,281.8,332.8,281.8z M332.8,201.4c-18.4,0-33.3,15-33.3,33.3c0,18.4,15,33.3,33.3,33.3c18.4,0,33.3-15,33.3-33.3
	C366.1,216.3,351.1,201.4,332.8,201.4z"/>
<path class="st3" d="M381,338.1h-96.5c-3.8,0-6.9-3.1-6.9-6.9v-24.1c0-19.3,9.8-36.8,26.3-47c2.5-1.5,5.7-1.3,7.9,0.5
	c6,4.8,13.2,7.4,21,7.4c7.7,0,15-2.6,20.9-7.4c2.3-1.8,5.4-2,7.9-0.5c16.4,10.1,26.3,27.7,26.3,47v24.1
	C387.9,335,384.8,338.1,381,338.1z M291.4,324.4h82.8v-17.3c0-13-5.9-24.9-16-32.7c-7.5,4.8-16.4,7.4-25.4,7.4
	c-9,0-17.8-2.6-25.4-7.4c-10.1,7.8-16,19.7-16,32.7V324.4z"/>
<path class="st7" d="M8.5,111.6h15.4v357.5H8.5V111.6z"/>
<path class="st8" d="M34.4,111.6h15.4v357.5H34.4V111.6z"/>
<path class="st9" d="M23.9,111.6h10.5v357.5H23.9V111.6z"/>
<path class="st7" d="M462.2,111.6h15.4v357.5h-15.4V111.6z"/>
<path class="st8" d="M488.1,111.6h15.4v357.5h-15.4V111.6z"/>
<path class="st9" d="M477.6,111.6h10.5v357.5h-10.5V111.6z"/>
<path class="st3" d="M49.8,476H8.5c-3.8,0-6.9-3.1-6.9-6.9V111.6c0-3.8,3.1-6.9,6.9-6.9h41.2c3.8,0,6.9,3.1,6.9,6.9v357.5
	C56.6,472.9,53.5,476,49.8,476z M15.4,462.2h27.5V118.5H15.4V462.2z"/>
<path class="st3" d="M503.5,476h-41.2c-3.8,0-6.9-3.1-6.9-6.9V111.6c0-3.8,3.1-6.9,6.9-6.9h41.2c3.8,0,6.9,3.1,6.9,6.9v357.5
	C510.4,472.9,507.3,476,503.5,476z M469.1,462.2h27.5V118.5h-27.5V462.2z"/>
<path class="st10" d="M118.5,331.2h96.2v137.9h-96.2V331.2z"/>
<path class="st11" d="M311,331.2h96.2v137.9H311V331.2z"/>
<path class="st12" d="M214.8,331.2H311v137.9h-96.2V331.2z"/>
<path class="st3" d="M407.2,476H118.5c-3.8,0-6.9-3.1-6.9-6.9V331.2c0-3.8,3.1-6.9,6.9-6.9h288.7c3.8,0,6.9,3.1,6.9,6.9v137.9
	C414.1,472.9,411,476,407.2,476z M125.4,462.3h275V338.1h-275V462.3z"/>
<path class="st10" d="M63.5,111.6h-55c0,22.8,36.9,41.2,82.5,41.2C75.8,152.9,63.5,134.4,63.5,111.6z"/>
<path class="st11" d="M118.5,111.6c0,22.8-12.3,41.2-27.5,41.2c45.6,0,82.5-18.5,82.5-41.2H118.5z"/>
<path class="st12" d="M118.5,111.6h-55c0,22.8,12.3,41.2,27.5,41.2S118.5,134.4,118.5,111.6z"/>
<path class="st10" d="M228.5,111.6h-55c0,22.8,36.9,41.2,82.5,41.2C240.8,152.9,228.5,134.4,228.5,111.6z"/>
<path class="st11" d="M283.5,111.6c0,22.8-12.3,41.2-27.5,41.2c45.6,0,82.5-18.5,82.5-41.2H283.5z"/>
<path class="st12" d="M283.5,111.6h-55c0,22.8,12.3,41.2,27.5,41.2C271.2,152.9,283.5,134.4,283.5,111.6z"/>
<path class="st10" d="M393.5,111.6h-55c0,22.8,36.9,41.2,82.5,41.2C405.8,152.9,393.5,134.4,393.5,111.6z"/>
<path class="st11" d="M448.5,111.6c0,22.8-12.3,41.2-27.5,41.2c45.6,0,82.5-18.5,82.5-41.2H448.5z"/>
<path class="st12" d="M448.5,111.6h-55c0,22.8,12.3,41.2,27.5,41.2C436.2,152.9,448.5,134.4,448.5,111.6z"/>
<path class="st3" d="M91,159.7c-50.1,0-89.4-21.1-89.4-48.1c0-3.8,3.1-6.9,6.9-6.9s6.9,3.1,6.9,6.9c0,20.3,39.9,34.4,75.6,34.4
	s75.6-14.1,75.6-34.4c0-3.8,3.1-6.9,6.9-6.9s6.9,3.1,6.9,6.9C180.4,138.6,141.1,159.7,91,159.7z"/>
<path class="st3" d="M256,159.7c-50.1,0-89.4-21.1-89.4-48.1c0-3.8,3.1-6.9,6.9-6.9s6.9,3.1,6.9,6.9c0,20.3,39.9,34.4,75.6,34.4
	s75.6-14.1,75.6-34.4c0-3.8,3.1-6.9,6.9-6.9c3.8,0,6.9,3.1,6.9,6.9C345.4,138.6,306.1,159.7,256,159.7z"/>
<path class="st3" d="M421,159.7c-50.1,0-89.4-21.1-89.4-48.1c0-3.8,3.1-6.9,6.9-6.9c3.8,0,6.9,3.1,6.9,6.9
	c0,20.3,39.9,34.4,75.6,34.4s75.6-14.1,75.6-34.4c0-3.8,3.1-6.9,6.9-6.9c3.8,0,6.9,3.1,6.9,6.9C510.4,138.6,471.1,159.7,421,159.7z"
	/>
<path class="st8" d="M338.5,42.9h165v68.7h-165V42.9z"/>
<path class="st7" d="M8.5,42.9h165v68.7H8.5V42.9z"/>
<path class="st9" d="M173.5,42.9h165v68.7h-165V42.9z"/>
<path class="st3" d="M503.5,118.5H8.5c-3.8,0-6.9-3.1-6.9-6.9V42.9c0-3.8,3.1-6.9,6.9-6.9h495c3.8,0,6.9,3.1,6.9,6.9v68.7
	C510.4,115.4,507.3,118.5,503.5,118.5z M15.4,104.7h481.2v-55H15.4V104.7z"/>
</svg>
