<svg width="125" height="125" viewBox="0 0 125 125" fill="none" xmlns="http://www.w3.org/2000/svg">
<g clip-path="url(#clip0)">
<path d="M26.6094 124.608H15.8672C9.93433 124.608 5.125 119.799 5.125 113.866V33.2993H15.8672V17.6743H26.6094V124.608Z" fill="#EDE49D"/>
<rect x="30.2734" y="21.9727" width="74.4629" height="86.9141" fill="#C4C4C4"/>
<path d="M109.985 122.284C115.66 122.284 120.26 117.56 120.26 111.733V4.29834H25.9227V111.733C25.9227 117.56 21.3227 122.284 15.6484 122.284H109.985Z" fill="#EEE045"/>
<path d="M95.418 4.77637H120.257V112.374C120.257 116.792 116.675 120.374 112.257 120.374H95.418V4.77637Z" fill="#D3BA2A"/>
<path d="M36.6875 47.0552H74.2852V62.1919H36.6875V47.0552Z" fill="#89AADB"/>
<path d="M36.6875 61.9482H74.2852V77.085H36.6875V61.9482Z" fill="#6287C5"/>
<path d="M36.6875 77.084H74.2852V92.2207H36.6875V77.084Z" fill="#4B67B0"/>
<path d="M33.793 20.062H108.988V24.2124H33.793V20.062Z" fill="#EF7F72"/>
<path d="M122.559 0H23.9258C22.5776 0 21.4844 1.09302 21.4844 2.44141V13.1836H13.1836C11.8355 13.1836 10.7422 14.2769 10.7422 15.625V28.8086H2.44141C1.09302 28.8086 0 29.9019 0 31.25V111.816C0 119.086 5.91431 125 13.1836 125H111.816C119.086 125 125 119.086 125 111.816V2.44141C125 1.09302 123.907 0 122.559 0ZM120.117 111.816C120.117 116.394 116.394 120.117 111.816 120.117H23.416C25.2593 117.849 26.3672 114.96 26.3672 111.816V78.8582C26.3672 77.51 25.2739 76.4167 23.9258 76.4167C22.5776 76.4167 21.4844 77.51 21.4844 78.8582V111.816C21.4844 116.394 17.7607 120.117 13.1836 120.117C8.60645 120.117 4.88281 116.394 4.88281 111.816V33.6914H10.7422V109.375C10.7422 110.723 11.8355 111.816 13.1836 111.816C14.5317 111.816 15.625 110.723 15.625 109.375V18.0664H21.4844V56.8855C21.4844 58.2339 22.5776 59.3269 23.9258 59.3269C25.2739 59.3269 26.3672 58.2339 26.3672 56.8855V4.88281H120.117V111.816Z" fill="#1C2D6B"/>
<path d="M35.6406 97.168H73.2383C74.5864 97.168 75.6797 96.0747 75.6797 94.7266V47.8516C75.6797 46.5032 74.5864 45.4102 73.2383 45.4102H35.6406C34.2922 45.4102 33.1992 46.5032 33.1992 47.8516V94.7266C33.1992 96.0747 34.2922 97.168 35.6406 97.168ZM38.082 50.293H70.7969V92.2852H38.082V50.293Z" fill="#1C2D6B"/>
<path d="M110.836 45.4102H84.957C83.6089 45.4102 82.5156 46.5032 82.5156 47.8516C82.5156 49.1999 83.6089 50.293 84.957 50.293H110.836C112.184 50.293 113.277 49.1999 113.277 47.8516C113.277 46.5032 112.184 45.4102 110.836 45.4102Z" fill="#1C2D6B"/>
<path d="M110.836 57.1279H84.957C83.6089 57.1279 82.5156 58.2209 82.5156 59.5693C82.5156 60.9177 83.6089 62.0107 84.957 62.0107H110.836C112.184 62.0107 113.277 60.9177 113.277 59.5693C113.277 58.2209 112.184 57.1279 110.836 57.1279Z" fill="#1C2D6B"/>
<path d="M110.836 68.8477H84.957C83.6089 68.8477 82.5156 69.9409 82.5156 71.2891C82.5156 72.6372 83.6089 73.7305 84.957 73.7305H110.836C112.184 73.7305 113.277 72.6372 113.277 71.2891C113.277 69.9409 112.184 68.8477 110.836 68.8477Z" fill="#1C2D6B"/>
<path d="M110.836 80.5669H84.957C83.6089 80.5669 82.5156 81.6602 82.5156 83.0083C82.5156 84.3564 83.6089 85.4497 84.957 85.4497H110.836C112.184 85.4497 113.277 84.3564 113.277 83.0083C113.277 81.6602 112.184 80.5669 110.836 80.5669Z" fill="#1C2D6B"/>
<path d="M110.836 92.2852H84.957C83.6089 92.2852 82.5156 93.3784 82.5156 94.7266C82.5156 96.0747 83.6089 97.168 84.957 97.168H110.836C112.184 97.168 113.277 96.0747 113.277 94.7266C113.277 93.3784 112.184 92.2852 110.836 92.2852Z" fill="#1C2D6B"/>
<path d="M35.6406 108.887H110.836C112.184 108.887 113.277 107.794 113.277 106.446C113.277 105.098 112.184 104.004 110.836 104.004H35.6406C34.2922 104.004 33.1992 105.098 33.1992 106.446C33.1992 107.794 34.2922 108.887 35.6406 108.887Z" fill="#1C2D6B"/>
<path d="M24.0508 65.4297C23.4087 65.4297 22.7788 65.6907 22.3247 66.145C21.8706 66.5991 21.6094 67.229 21.6094 67.8711C21.6094 68.5156 21.8704 69.1431 22.3247 69.5969C22.7788 70.0535 23.4087 70.3125 24.0508 70.3125C24.6929 70.3125 25.3227 70.0537 25.7766 69.5969C26.2307 69.1431 26.4922 68.5132 26.4922 67.8711C26.4922 67.229 26.231 66.5991 25.7766 66.145C25.3227 65.6907 24.6929 65.4297 24.0508 65.4297Z" fill="#1C2D6B"/>
<path d="M33.793 24.2119H108.988V28.6064H33.793V24.2119Z" fill="#E95947"/>
<path d="M33.793 28.6064H108.988V34.4658H33.793V28.6064Z" fill="#E8383B"/>
<path d="M35.6406 38.5747H110.836C112.184 38.5747 113.277 37.4817 113.277 36.1333V18.5552C113.277 17.207 112.184 16.1138 110.836 16.1138H35.6406C34.2922 16.1138 33.1992 17.207 33.1992 18.5552V36.1333C33.1992 37.4817 34.2922 38.5747 35.6406 38.5747ZM38.082 20.9966H108.395V33.6919H38.082V20.9966Z" fill="#1C2D6B"/>
</g>
<defs>
<clipPath id="clip0">
<rect width="125" height="125" fill="white"/>
</clipPath>
</defs>
</svg>
