<svg width="125" height="125" viewBox="0 0 125 125" fill="none" xmlns="http://www.w3.org/2000/svg">
<path d="M18.0781 2.01611H58.4007V122.984H18.0781V2.01611Z" fill="#A4D4A0"/>
<path d="M90.6579 2.01611V103.358L83.9375 122.984H94.6902L114.851 103.358V2.01611H90.6579Z" fill="#419B46"/>
<path d="M90.6565 2.01611H58.3984V122.984H83.9361L90.6565 103.358V2.01611Z" fill="#65BC49"/>
<path d="M94.6915 125H18.0786C16.9651 125 16.0625 124.097 16.0625 122.984V2.01613C16.0625 0.902554 16.9651 0 18.0786 0H114.853C115.966 0 116.869 0.902554 116.869 2.01613V103.357C116.869 103.901 116.649 104.422 116.259 104.801L96.0981 124.428C95.7218 124.795 95.2171 125 94.6915 125ZM20.0948 120.968H93.8723L112.837 102.506V4.03226H20.0948V120.968Z" fill="#1C2D6B"/>
<path d="M94.7036 124.999C94.4388 124.999 94.1727 124.947 93.92 124.841C93.1727 124.525 92.6875 123.793 92.6875 122.983V103.356C92.6875 102.242 93.5901 101.34 94.7036 101.34H114.865C115.685 101.34 116.424 101.837 116.733 102.597C117.041 103.357 116.859 104.229 116.271 104.801L96.1095 124.428C95.7258 124.802 95.2191 124.999 94.7036 124.999V124.999ZM96.7198 105.372V118.206L109.904 105.372H96.7198Z" fill="#1C2D6B"/>
<path d="M25.5664 2.01611H30.1699V122.984H25.5664V2.01611Z" fill="#E8383B"/>
<path d="M18.0781 2.01611H22.6816V122.984H18.0781V2.01611Z" fill="#EF7F72"/>
<path d="M22.6875 2.01611H25.578V122.984H22.6875V2.01611Z" fill="#E95947"/>
<path d="M30.1754 125H18.0786C16.9651 125 16.0625 124.097 16.0625 122.984V2.01613C16.0625 0.902554 16.9651 0 18.0786 0H30.1754C31.289 0 32.1916 0.902554 32.1916 2.01613V122.984C32.1916 124.097 31.289 125 30.1754 125ZM20.0948 120.968H28.1593V4.03226H20.0948V120.968Z" fill="#1C2D6B"/>
<path d="M15.2468 16.4958V12.0811C15.2468 11.0731 16.064 10.2559 17.0721 10.2559H14.0479C11.8207 10.2559 10.0156 12.061 10.0156 14.2881C10.0156 16.5153 11.8207 18.3204 14.0479 18.3204H17.0721C16.064 18.321 15.2468 17.5038 15.2468 16.4958Z" fill="#89AADB"/>
<path d="M20.0945 10.2559H17.0703C18.0784 10.2559 18.8956 11.0731 18.8956 12.0811V16.4958C18.8956 17.5039 18.0784 18.3211 17.0703 18.3211H20.0945C22.3216 18.3211 24.1267 16.516 24.1267 14.2888C24.1267 12.0616 22.3216 10.2559 20.0945 10.2559V10.2559Z" fill="#4B67B0"/>
<path d="M18.8966 16.4958V12.0811C18.8966 11.0731 18.0794 10.2559 17.0714 10.2559C16.0633 10.2559 15.2461 11.0731 15.2461 12.0811V16.4958C15.2461 17.5038 16.0633 18.321 17.0714 18.321C18.0801 18.321 18.8966 17.5038 18.8966 16.4958Z" fill="#6287C5"/>
<path d="M15.2468 40.6901V36.2755C15.2468 35.2674 16.064 34.4502 17.0721 34.4502H14.0479C11.8207 34.4502 10.0156 36.2553 10.0156 38.4825C10.0156 40.7096 11.8207 42.5147 14.0479 42.5147H17.0721C16.064 42.5154 15.2468 41.6982 15.2468 40.6901Z" fill="#89AADB"/>
<path d="M20.0945 34.4502H17.0703C18.0784 34.4502 18.8956 35.2674 18.8956 36.2755V40.6901C18.8956 41.6982 18.0784 42.5154 17.0703 42.5154H20.0945C22.3216 42.5154 24.1267 40.7103 24.1267 38.4831C24.1267 36.256 22.3216 34.4502 20.0945 34.4502V34.4502Z" fill="#4B67B0"/>
<path d="M18.8966 40.6901V36.2755C18.8966 35.2674 18.0794 34.4502 17.0714 34.4502C16.0633 34.4502 15.2461 35.2674 15.2461 36.2755V40.6901C15.2461 41.6982 16.0633 42.5154 17.0714 42.5154C18.0801 42.5154 18.8966 41.6982 18.8966 40.6901Z" fill="#6287C5"/>
<path d="M15.2468 64.882V60.4674C15.2468 59.4593 16.064 58.6421 17.0721 58.6421H14.0479C11.8207 58.6421 10.0156 60.4472 10.0156 62.6743C10.0156 64.9015 11.8207 66.7066 14.0479 66.7066H17.0721C16.064 66.7073 15.2468 65.8901 15.2468 64.882Z" fill="#89AADB"/>
<path d="M20.0945 58.644H17.0703C18.0784 58.644 18.8956 59.4612 18.8956 60.4693V64.884C18.8956 65.892 18.0784 66.7092 17.0703 66.7092H20.0945C22.3216 66.7092 24.1267 64.9041 24.1267 62.677C24.1267 60.4498 22.3216 58.644 20.0945 58.644Z" fill="#4B67B0"/>
<path d="M18.8966 64.882V60.4674C18.8966 59.4593 18.0794 58.6421 17.0714 58.6421C16.0633 58.6421 15.2461 59.4593 15.2461 60.4674V64.882C15.2461 65.8901 16.0633 66.7073 17.0714 66.7073C18.0801 66.7073 18.8966 65.8901 18.8966 64.882Z" fill="#6287C5"/>
<path d="M15.2468 89.0759V84.6612C15.2468 83.6531 16.064 82.8359 17.0721 82.8359H14.0479C11.8207 82.8359 10.0156 84.641 10.0156 86.8682C10.0156 89.0954 11.8207 90.9005 14.0479 90.9005H17.0721C16.064 90.9011 15.2468 90.0839 15.2468 89.0759Z" fill="#89AADB"/>
<path d="M20.0945 82.8359H17.0703C18.0784 82.8359 18.8956 83.6531 18.8956 84.6612V89.0759C18.8956 90.0839 18.0784 90.9011 17.0703 90.9011H20.0945C22.3216 90.9011 24.1267 89.096 24.1267 86.8689C24.1267 84.6417 22.3216 82.8359 20.0945 82.8359Z" fill="#4B67B0"/>
<path d="M18.8966 89.0759V84.6612C18.8966 83.6531 18.0794 82.8359 17.0714 82.8359C16.0633 82.8359 15.2461 83.6531 15.2461 84.6612V89.0759C15.2461 90.0839 16.0633 90.9012 17.0714 90.9012C18.0801 90.9012 18.8966 90.0839 18.8966 89.0759Z" fill="#6287C5"/>
<path d="M15.2468 113.268V108.853C15.2468 107.845 16.064 107.028 17.0721 107.028H14.0479C11.8207 107.028 10.0156 108.833 10.0156 111.06C10.0156 113.287 11.8207 115.092 14.0479 115.092H17.0721C16.064 115.093 15.2468 114.276 15.2468 113.268Z" fill="#89AADB"/>
<path d="M20.0945 107.03H17.0703C18.0784 107.03 18.8956 107.847 18.8956 108.855V113.27C18.8956 114.278 18.0784 115.095 17.0703 115.095H20.0945C22.3216 115.095 24.1267 113.29 24.1267 111.063C24.1267 108.836 22.3216 107.03 20.0945 107.03Z" fill="#4B67B0"/>
<path d="M18.8966 113.268V108.853C18.8966 107.845 18.0794 107.028 17.0714 107.028C16.0633 107.028 15.2461 107.845 15.2461 108.853V113.268C15.2461 114.276 16.0633 115.093 17.0714 115.093C18.0801 115.093 18.8966 114.276 18.8966 113.268Z" fill="#6287C5"/>
<path d="M20.0968 20.337H14.0484C10.7137 20.337 8 17.6233 8 14.2886C8 10.9539 10.7137 8.24023 14.0484 8.24023H20.0968C23.4315 8.24023 26.1452 10.9533 26.1452 14.2886C26.1452 17.624 23.4315 20.337 20.0968 20.337ZM14.0484 12.2725C12.9368 12.2725 12.0323 13.1771 12.0323 14.2886C12.0323 15.4002 12.9368 16.3048 14.0484 16.3048H20.0968C21.2083 16.3048 22.1129 15.4002 22.1129 14.2886C22.1129 13.1771 21.2083 12.2725 20.0968 12.2725H14.0484Z" fill="#1C2D6B"/>
<path d="M20.0968 44.5309H14.0484C10.7137 44.5309 8 41.8172 8 38.4825C8 35.1478 10.7137 32.4341 14.0484 32.4341H20.0968C23.4315 32.4341 26.1452 35.1471 26.1452 38.4825C26.1452 41.8178 23.4315 44.5309 20.0968 44.5309ZM14.0484 36.4663C12.9368 36.4663 12.0323 37.3709 12.0323 38.4825C12.0323 39.594 12.9368 40.4986 14.0484 40.4986H20.0968C21.2083 40.4986 22.1129 39.594 22.1129 38.4825C22.1129 37.3709 21.2083 36.4663 20.0968 36.4663H14.0484Z" fill="#1C2D6B"/>
<path d="M20.0968 68.7247H14.0484C10.7137 68.7247 8 66.011 8 62.6763C8 59.3416 10.7137 56.6279 14.0484 56.6279H20.0968C23.4315 56.6279 26.1452 59.341 26.1452 62.6763C26.1452 66.0117 23.4315 68.7247 20.0968 68.7247ZM14.0484 60.6602C12.9368 60.6602 12.0323 61.5648 12.0323 62.6763C12.0323 63.7879 12.9368 64.6925 14.0484 64.6925H20.0968C21.2083 64.6925 22.1129 63.7879 22.1129 62.6763C22.1129 61.5648 21.2083 60.6602 20.0968 60.6602H14.0484Z" fill="#1C2D6B"/>
<path d="M20.0968 92.9186H14.0484C10.7137 92.9186 8 90.2048 8 86.8702C8 83.5355 10.7137 80.8218 14.0484 80.8218H20.0968C23.4315 80.8218 26.1452 83.5348 26.1452 86.8702C26.1452 90.2055 23.4315 92.9186 20.0968 92.9186ZM14.0484 84.854C12.9368 84.854 12.0323 85.7586 12.0323 86.8702C12.0323 87.9817 12.9368 88.8863 14.0484 88.8863H20.0968C21.2083 88.8863 22.1129 87.9817 22.1129 86.8702C22.1129 85.7586 21.2083 84.854 20.0968 84.854H14.0484Z" fill="#1C2D6B"/>
<path d="M20.0968 117.111H14.0484C10.7137 117.111 8 114.397 8 111.063C8 107.728 10.7137 105.014 14.0484 105.014H20.0968C23.4315 105.014 26.1452 107.727 26.1452 111.063C26.1452 114.398 23.4315 117.111 20.0968 117.111ZM14.0484 109.046C12.9368 109.046 12.0323 109.951 12.0323 111.063C12.0323 112.174 12.9368 113.079 14.0484 113.079H20.0968C21.2083 113.079 22.1129 112.174 22.1129 111.063C22.1129 109.951 21.2083 109.046 20.0968 109.046H14.0484Z" fill="#1C2D6B"/>
<path d="M76.6641 17.9955C75.646 17.3031 74.3082 17.3031 73.29 17.9955L63.3911 24.7274C62.5697 25.286 62.0781 26.2149 62.0781 27.2081V42.6974C62.0781 44.3542 63.4213 45.6974 65.0781 45.6974H84.876C86.5329 45.6974 87.876 44.3542 87.876 42.6974V27.2081C87.876 26.2149 87.3844 25.286 86.5631 24.7274L76.6641 17.9955Z" fill="#1C2D6B"/>
<path d="M70.7539 38.0697C70.7539 35.695 72.6789 33.77 75.0535 33.77V33.77C77.4282 33.77 79.3532 35.695 79.3532 38.0697V45.6981H70.7539V38.0697Z" fill="#65BC49"/>
<rect width="23.4619" height="4.33143" rx="2.16571" transform="matrix(0.827207 -0.561898 0.561897 0.827207 56.0469 26.2881)" fill="#1C2D6B"/>
<rect width="23.4619" height="4.33142" rx="2.16571" transform="matrix(0.827179 0.561938 -0.56194 0.827178 74.625 13.1982)" fill="#1C2D6B"/>
<rect x="40.9297" y="61.1558" width="67.5403" height="3.6962" rx="1.8481" fill="#1C2D6B"/>
<rect x="40.9297" y="72.918" width="67.5403" height="3.69622" rx="1.84811" fill="#1C2D6B"/>
<rect x="40.9297" y="84.6782" width="67.5403" height="3.6962" rx="1.8481" fill="#1C2D6B"/>
</svg>
