<svg width="70" height="70" viewBox="0 0 70 70" fill="none" xmlns="http://www.w3.org/2000/svg">
<path d="M0 53.457V59.6094C0 60.742 0.918203 61.6602 2.05078 61.6602H67.9492C69.0818 61.6602 70 60.742 70 59.6094V53.457C70 52.3245 69.0818 51.4062 67.9492 51.4062H2.05078C0.918203 51.4062 0 52.3245 0 53.457Z" fill="#FFE67A"/>
<path d="M67.9492 51.4062H35V61.6602H67.9492C69.0818 61.6602 70 60.742 70 59.6094V53.457C70 52.3245 69.0818 51.4062 67.9492 51.4062Z" fill="#FFC336"/>
<path d="M2.05078 0.136719H26.7969C30.1474 0.136719 33.1278 1.75191 35 4.24471C36.8722 1.75191 39.8526 0.136719 43.2031 0.136719H67.9492C69.0818 0.136719 70 1.05492 70 2.1875V53.457H43.2031C39.8107 53.457 37.0508 56.217 37.0508 59.6094C37.0508 60.7419 36.1326 61.6592 35 61.6593C33.8674 61.6592 32.9492 60.7419 32.9492 59.6094C32.9492 56.217 30.1893 53.457 26.7969 53.457H0V2.1875C0 1.05492 0.918203 0.136719 2.05078 0.136719Z" fill="#DAEAF3"/>
<path d="M67.9492 0.136719H43.2031C39.8526 0.136719 36.8722 1.75191 35 4.24471V61.6593C36.1326 61.6592 37.0508 60.7419 37.0508 59.6094C37.0508 56.217 39.8107 53.457 43.2031 53.457H70V2.1875C70 1.05492 69.0818 0.136719 67.9492 0.136719Z" fill="#89AADB"/>
<path d="M25.7715 12.4414H9.22852C8.09594 12.4414 7.17773 11.5232 7.17773 10.3906C7.17773 9.25805 8.09594 8.33984 9.22852 8.33984H25.7715C26.9041 8.33984 27.8223 9.25805 27.8223 10.3906C27.8223 11.5232 26.9041 12.4414 25.7715 12.4414Z" fill="#453D81"/>
<path d="M25.7715 20.6445H9.22852C8.09594 20.6445 7.17773 19.7263 7.17773 18.5938C7.17773 17.4612 8.09594 16.543 9.22852 16.543H25.7715C26.9041 16.543 27.8223 17.4612 27.8223 18.5938C27.8223 19.7263 26.9041 20.6445 25.7715 20.6445Z" fill="#453D81"/>
<path d="M25.7715 28.8477H9.22852C8.09594 28.8477 7.17773 27.9295 7.17773 26.7969C7.17773 25.6643 8.09594 24.7461 9.22852 24.7461H25.7715C26.9041 24.7461 27.8223 25.6643 27.8223 26.7969C27.8223 27.9295 26.9041 28.8477 25.7715 28.8477Z" fill="#453D81"/>
<path d="M25.7715 37.0508H9.22852C8.09594 37.0508 7.17773 36.1326 7.17773 35C7.17773 33.8674 8.09594 32.9492 9.22852 32.9492H25.7715C26.9041 32.9492 27.8223 33.8674 27.8223 35C27.8223 36.1326 26.9041 37.0508 25.7715 37.0508Z" fill="#453D81"/>
<path d="M25.7715 45.2539H9.22852C8.09594 45.2539 7.17773 44.3357 7.17773 43.2031C7.17773 42.0705 8.09594 41.1523 9.22852 41.1523H25.7715C26.9041 41.1523 27.8223 42.0705 27.8223 43.2031C27.8223 44.3357 26.9041 45.2539 25.7715 45.2539Z" fill="#453D81"/>
<path d="M60.7715 12.4414H44.2285C43.0959 12.4414 42.1777 11.5232 42.1777 10.3906C42.1777 9.25805 43.0959 8.33984 44.2285 8.33984H60.7715C61.9041 8.33984 62.8223 9.25805 62.8223 10.3906C62.8223 11.5232 61.9041 12.4414 60.7715 12.4414Z" fill="#453D81"/>
<path d="M63.132 69.6145C61.0035 70.3893 58.6497 69.2917 57.8751 67.1631L48.4929 41.3856C48.1055 40.3213 48.6542 39.1445 49.7186 38.7571L53.5728 37.3542C54.6371 36.9669 55.8139 37.5155 56.2013 38.5799L65.5835 64.3574C66.3582 66.4861 65.2606 68.8397 63.132 69.6145Z" fill="#BC8173"/>
<path d="M53.5735 37.3543L51.6465 38.0556L63.1329 69.6144C65.2615 68.8396 66.3591 66.486 65.5843 64.3574L56.2021 38.5799C55.8146 37.5156 54.6379 36.9668 53.5735 37.3543Z" fill="#9D5E4A"/>
<path d="M55.1831 47.7742C47.3907 50.6104 38.7436 46.5782 35.9074 38.7858C33.0711 30.9933 37.1034 22.3461 44.8958 19.5099C52.6881 16.6737 61.3351 20.7059 64.1714 28.4984C67.0076 36.2908 62.9756 44.938 55.1831 47.7742Z" fill="#5E54AC"/>
<path d="M64.1712 28.4983C61.335 20.7059 52.6879 16.6737 44.8956 19.5099C44.8956 19.5099 44.8956 19.5099 44.8955 19.5099L55.1828 47.774C62.9753 44.9378 67.0074 36.2908 64.1712 28.4983Z" fill="#453D81"/>
<path d="M60.9835 34.1385C61.2493 28.1039 56.5728 22.9964 50.5383 22.7307C44.5038 22.4649 39.3965 27.1414 39.1307 33.176C38.8649 39.2106 43.5413 44.318 49.5758 44.5838C55.6103 44.8496 60.7177 40.173 60.9835 34.1385Z" fill="#A4E9FF"/>
<path d="M60.3171 29.9014C58.2544 24.2342 51.9656 21.3017 46.2985 23.3644C46.2985 23.3644 46.2985 23.3644 46.2983 23.3644L53.78 43.9202C59.4474 41.8575 62.3799 35.5687 60.3171 29.9014Z" fill="#91BBFF"/>
</svg>
