<svg width="125" height="125" viewBox="0 0 125 125" fill="none" xmlns="http://www.w3.org/2000/svg">
<path d="M3.89062 40.234V97.8472C3.89062 101.029 6.72584 103.609 10.2235 103.609H41.8877V34.4727H10.2235C6.72584 34.4727 3.89062 37.052 3.89062 40.234Z" fill="#EF7F72"/>
<path d="M79.8945 34.4727V103.609H111.559C115.056 103.609 117.892 101.029 117.892 97.8472V40.234C117.892 37.052 115.056 34.4727 111.559 34.4727H79.8945Z" fill="#E8383B"/>
<path d="M41.8945 34.4727H79.8916V103.609H41.8945V34.4727Z" fill="#E95947"/>
<path d="M10.2241 34.4727C6.72647 34.4727 3.89126 37.052 3.89126 40.234L3.89062 59.823C3.89062 63.005 6.72584 65.5844 10.2235 65.5844H41.8877V34.4727H10.2241Z" fill="#EF7F72"/>
<path d="M111.568 34.4727H79.7188V65.5844H111.568C115.065 65.5844 117.901 63.005 117.901 59.823L117.901 40.234C117.901 37.052 115.065 34.4727 111.568 34.4727Z" fill="#E8383B"/>
<path d="M41.8945 34.4727H79.7066V65.5844H41.8945V34.4727Z" fill="#E95947"/>
<path d="M111.558 105.336H10.2327C5.69331 105.336 2 101.976 2 97.8466V40.2334C2 36.1037 5.69331 32.7437 10.2327 32.7437H111.558C116.097 32.7437 119.791 36.1037 119.791 40.2334V97.8466C119.791 101.976 116.097 105.336 111.558 105.336ZM10.2327 36.2004C7.78822 36.2004 5.7997 38.0101 5.7997 40.2334V97.8466C5.7997 100.07 7.78822 101.88 10.2327 101.88H111.558C114.003 101.88 115.991 100.07 115.991 97.8466V40.2334C115.991 38.0101 114.003 36.2004 111.558 36.2004H10.2327Z" fill="#1C2D6B"/>
<path d="M111.558 67.3128H10.2327C8.0333 67.3128 5.96626 66.5333 4.41154 65.1188C2.8562 63.7039 2 61.8228 2 59.823V40.2334C2 36.1037 5.69395 32.7437 10.2327 32.7437H111.558C113.757 32.7437 115.825 33.5232 117.38 34.9376C118.935 36.3525 119.791 38.2336 119.791 40.234V59.823C119.791 63.9528 116.097 67.3128 111.558 67.3128ZM5.80034 40.2334V59.823C5.80034 60.9004 6.26137 61.9132 7.09857 62.6743C7.93577 63.436 9.04972 63.856 10.2333 63.856H111.559C114.003 63.856 115.992 62.0463 115.992 59.823V40.234C115.992 39.1566 115.531 38.1437 114.693 37.3821C113.856 36.6204 112.743 36.2004 111.559 36.2004H10.2333C7.78885 36.2004 5.80034 38.0101 5.80034 40.2334Z" fill="#1C2D6B"/>
<path d="M54.8929 13.7319H46.9313C39.936 13.7319 34.2656 18.8912 34.2656 25.2546V34.4727H45.6647V26.983C45.6647 25.3923 47.0827 24.1023 48.8312 24.1023H49.4917C49.7646 18.2799 52.078 13.7319 54.8929 13.7319Z" fill="#89AADB"/>
<path d="M74.836 13.7319H66.875C69.6899 13.7319 72.0033 18.2799 72.2756 24.1023H72.9362C74.6847 24.1023 76.1026 25.3923 76.1026 26.983V34.4727H87.5017V25.2546C87.5017 18.8906 81.8313 13.7319 74.836 13.7319Z" fill="#4B67B0"/>
<path d="M66.8737 13.7319H54.9319C52.117 13.7319 49.8036 18.2799 49.5312 24.1023H55.7463H66.06H72.275C72.0021 18.2799 69.6881 13.7319 66.8737 13.7319Z" fill="#6287C5"/>
<path d="M87.4785 36.1976H76.0794C75.03 36.1976 74.1795 35.4238 74.1795 34.4692V26.9794C74.1795 26.344 73.6115 25.8272 72.913 25.8272H48.8482C48.1497 25.8272 47.5816 26.344 47.5816 26.9794V34.4692C47.5816 35.4238 46.7311 36.1976 45.6818 36.1976H34.2827C33.2333 36.1976 32.3828 35.4238 32.3828 34.4692V25.251C32.3828 17.944 38.917 12 46.9483 12H74.8128C82.8441 12 89.3784 17.944 89.3784 25.251V34.4692C89.3784 35.4244 88.5272 36.1976 87.4785 36.1976ZM77.9792 32.7408H85.5787V25.251C85.5787 19.8504 80.7492 15.4568 74.8128 15.4568H46.9483C41.0119 15.4568 36.1825 19.8504 36.1825 25.251V32.7408H43.7819V26.9794C43.7819 24.4381 46.0548 22.3704 48.8482 22.3704H72.913C75.7064 22.3704 77.9792 24.4381 77.9792 26.9794V32.7408Z" fill="#1C2D6B"/>
<path d="M76.0787 36.1953H45.6811C44.6318 36.1953 43.7812 35.4216 43.7812 34.4669V26.9772C43.7812 24.4359 46.0541 22.3682 48.8475 22.3682H72.9123C75.7057 22.3682 77.9786 24.4359 77.9786 26.9772V34.4669C77.9786 35.4222 77.1274 36.1953 76.0787 36.1953ZM47.581 32.7385H74.1789V26.9772C74.1789 26.3417 73.6108 25.825 72.9123 25.825H48.8475C48.149 25.825 47.581 26.3417 47.581 26.9772V32.7385Z" fill="#1C2D6B"/>
<path d="M29.8828 34.4727H34.3044V103.609H29.8828V34.4727Z" fill="#419B46"/>
<path d="M22.9062 34.4727H27.3278V103.609H22.9062V34.4727Z" fill="#A4D4A0"/>
<path d="M27.3008 34.4727H29.8567V103.609H27.3008V34.4727Z" fill="#65BC49"/>
<path d="M34.3146 105.336H22.9155C21.8661 105.336 21.0156 104.563 21.0156 103.608V34.4721C21.0156 33.5174 21.8661 32.7437 22.9155 32.7437H34.3146C35.3639 32.7437 36.2144 33.5174 36.2144 34.4721V103.608C36.2144 104.563 35.3633 105.336 34.3146 105.336ZM24.8153 101.88H32.4147V36.2004H24.8153V101.88Z" fill="#1C2D6B"/>
<path d="M94.6406 34.4727H99.0622V103.609H94.6406V34.4727Z" fill="#419B46"/>
<path d="M87.6289 34.4727H92.0505V103.609H87.6289V34.4727Z" fill="#A4D4A0"/>
<path d="M92.043 34.4727H94.5989V103.609H92.043V34.4727Z" fill="#65BC49"/>
<path d="M99.0294 105.336H87.6303C86.581 105.336 85.7305 104.563 85.7305 103.608V34.4721C85.7305 33.5174 86.581 32.7437 87.6303 32.7437H99.0294C100.079 32.7437 100.929 33.5174 100.929 34.4721V103.608C100.929 104.563 100.079 105.336 99.0294 105.336ZM89.5302 101.88H97.1296V36.2004H89.5302V101.88Z" fill="#1C2D6B"/>
<path d="M19.0938 58.6655H25.7363V75.9495H19.0938V58.6655Z" fill="#EDE49D"/>
<path d="M31.4531 58.6655H38.0956V75.9495H31.4531V58.6655Z" fill="#D3BA2A"/>
<path d="M25.7266 58.6655H31.4407V75.9495H25.7266V58.6655Z" fill="#EEE045"/>
<path d="M83.8438 58.6655H90.4862V75.9495H83.8438V58.6655Z" fill="#EDE49D"/>
<path d="M96.207 58.6655H102.85V75.9495H96.207V58.6655Z" fill="#D3BA2A"/>
<path d="M90.4883 58.6655H96.2024V75.9495H90.4883V58.6655Z" fill="#EEE045"/>
<path d="M38.1171 77.6763H19.1186C18.0692 77.6763 17.2188 76.9026 17.2188 75.9479V58.6639C17.2188 57.7093 18.0692 56.9355 19.1186 56.9355H38.1171C39.1665 56.9355 40.017 57.7093 40.017 58.6639V75.9479C40.017 76.9032 39.1658 77.6763 38.1171 77.6763ZM21.0185 74.2195H36.2173V60.3923H21.0185V74.2195Z" fill="#1C2D6B"/>
<path d="M102.84 77.6763H83.8413C82.7919 77.6763 81.9414 76.9026 81.9414 75.9479V58.6639C81.9414 57.7093 82.7919 56.9355 83.8413 56.9355H102.84C103.889 56.9355 104.74 57.7093 104.74 58.6639V75.9479C104.74 76.9032 103.889 77.6763 102.84 77.6763ZM85.7411 74.2195H100.94V60.3923H85.7411V74.2195Z" fill="#1C2D6B"/>
<path d="M121.721 96.2827H121.02C121.364 96.2827 121.705 96.3011 122.04 96.3347C121.935 96.3011 121.829 96.2827 121.721 96.2827Z" fill="#6287C5"/>
<path d="M106.383 76.4546H121.767V121.546H106.383V76.4546Z" fill="#4B67B0"/>
<path d="M76.2266 76.4546H91.6112V121.546H76.2266V76.4546Z" fill="#89AADB"/>
<path d="M91.6172 76.4546H106.386V121.546H91.6172V76.4546Z" fill="#6287C5"/>
<path d="M121.632 123H76.3674C75.6122 123 75 122.274 75 121.378V76.6224C75 75.7263 75.6122 75 76.3674 75H121.633C122.388 75 123 75.7263 123 76.6224V121.378C123 122.274 122.388 123 121.632 123ZM77.7349 119.755H120.265V78.2449H77.7349V119.755Z" fill="#1C2D6B"/>
<path d="M113.018 87.7938H83.7471C82.9936 87.7938 82.3828 87.1437 82.3828 86.3415C82.3828 85.5393 82.9936 84.8892 83.7471 84.8892H113.018C113.772 84.8892 114.383 85.5393 114.383 86.3415C114.383 87.1437 113.772 87.7938 113.018 87.7938Z" fill="#1C2D6B"/>
<path d="M113.018 96.0912H83.7471C82.9936 96.0912 82.3828 95.4401 82.3828 94.6367C82.3828 93.8333 82.9936 93.1821 83.7471 93.1821H113.018C113.772 93.1821 114.383 93.8333 114.383 94.6367C114.383 95.4401 113.772 96.0912 113.018 96.0912Z" fill="#1C2D6B"/>
<path d="M113.018 104.818H83.7471C82.9936 104.818 82.3828 104.167 82.3828 103.364C82.3828 102.56 82.9936 101.909 83.7471 101.909H113.018C113.772 101.909 114.383 102.56 114.383 103.364C114.383 104.167 113.772 104.818 113.018 104.818Z" fill="#1C2D6B"/>
<path d="M113.018 113.545H83.7471C82.9936 113.545 82.3828 112.894 82.3828 112.09C82.3828 111.287 82.9936 110.636 83.7471 110.636H113.018C113.772 110.636 114.383 111.287 114.383 112.09C114.383 112.894 113.772 113.545 113.018 113.545Z" fill="#1C2D6B"/>
</svg>
