<svg width="125" height="125" viewBox="0 0 125 125" fill="none" xmlns="http://www.w3.org/2000/svg">
<path d="M1.95312 37.1464V102.746C1.95312 106.369 4.89002 109.306 8.51308 109.306H41.3129V30.5864H8.51308C4.89002 30.5864 1.95312 33.5233 1.95312 37.1464Z" fill="#EF7F72"/>
<path d="M80.7031 30.5864V109.306H113.503C117.126 109.306 120.063 106.369 120.063 102.746V37.1464C120.063 33.5233 117.126 30.5864 113.503 30.5864H80.7031Z" fill="#E8383B"/>
<path d="M41.3281 30.5864H80.6879V109.306H41.3281V30.5864Z" fill="#E95947"/>
<path d="M8.51373 30.5864C4.89067 30.5864 1.95378 33.5233 1.95378 37.1464L1.95312 59.4509C1.95312 63.0739 4.89002 66.0108 8.51308 66.0108H41.3129V30.5864H8.51373Z" fill="#EF7F72"/>
<path d="M113.483 30.5864H80.4922V66.0108H113.483C117.107 66.0108 120.043 63.0739 120.043 59.4509L120.044 37.1464C120.043 33.5233 117.107 30.5864 113.483 30.5864Z" fill="#E8383B"/>
<path d="M41.3281 30.5864H80.4963V66.0108H41.3281V30.5864Z" fill="#E95947"/>
<path d="M113.487 111.273H8.52794C3.82577 111.273 0 107.447 0 102.745V37.1456C0 32.4434 3.82577 28.6177 8.52794 28.6177H113.487C118.189 28.6177 122.015 32.4434 122.015 37.1456V102.745C122.015 107.447 118.189 111.273 113.487 111.273ZM8.52794 32.5536C5.9958 32.5536 3.93597 34.6141 3.93597 37.1456V102.745C3.93597 105.277 5.9958 107.337 8.52794 107.337H113.487C116.019 107.337 118.079 105.277 118.079 102.745V37.1456C118.079 34.6141 116.019 32.5536 113.487 32.5536H8.52794Z" fill="#1C2D6B"/>
<path d="M113.487 67.9787H8.52794C6.24967 67.9787 4.1085 67.0912 2.49803 65.4807C0.886905 63.8696 0 61.7277 0 59.4508V37.1456C0 32.4434 3.82642 28.6177 8.52794 28.6177H113.487C115.765 28.6177 117.907 29.5052 119.518 31.1157C121.128 32.7268 122.016 34.8687 122.015 37.1463V59.4508C122.015 64.153 118.189 67.9787 113.487 67.9787ZM3.93663 37.1456V59.4508C3.93663 60.6775 4.41419 61.8307 5.28142 62.6973C6.14864 63.5645 7.30254 64.0427 8.5286 64.0427H113.488C116.019 64.0427 118.08 61.9823 118.08 59.4508V37.1463C118.08 35.9196 117.602 34.7663 116.735 33.8991C115.868 33.0319 114.715 32.5536 113.488 32.5536H8.5286C5.99645 32.5536 3.93663 34.6141 3.93663 37.1456Z" fill="#1C2D6B"/>
<path d="M54.8007 6.96777H46.5535C39.3074 6.96777 33.4336 12.8422 33.4336 20.0877V30.5836H45.2415V22.0557C45.2415 20.2445 46.7103 18.7757 48.5215 18.7757H49.2057C49.4884 12.1462 51.8848 6.96777 54.8007 6.96777Z" fill="#89AADB"/>
<path d="M75.4575 6.96777H67.2109C70.1268 6.96777 72.5232 12.1462 72.8053 18.7757H73.4895C75.3007 18.7757 76.7694 20.2445 76.7694 22.0557V30.5836H88.5774V20.0877C88.5774 12.8416 82.7036 6.96777 75.4575 6.96777Z" fill="#4B67B0"/>
<path d="M67.2066 6.96777H54.8365C51.9206 6.96777 49.5243 12.1462 49.2422 18.7757H55.6801H66.3637H72.8016C72.5189 12.1462 70.1219 6.96777 67.2066 6.96777Z" fill="#6287C5"/>
<path d="M88.556 32.5518H76.7481C75.6611 32.5518 74.7801 31.6708 74.7801 30.5838V22.0559C74.7801 21.3323 74.1916 20.7439 73.4681 20.7439H48.5403C47.8167 20.7439 47.2283 21.3323 47.2283 22.0559V30.5838C47.2283 31.6708 46.3473 32.5518 45.2603 32.5518H33.4524C32.3654 32.5518 31.4844 31.6708 31.4844 30.5838V20.0879C31.4844 11.7679 38.2529 5 46.5723 5H75.4361C83.7554 5 90.524 11.7679 90.524 20.0879V30.5838C90.524 31.6715 89.6423 32.5518 88.556 32.5518ZM78.716 28.6158H86.588V20.0879C86.588 13.9386 81.5854 8.93597 75.4361 8.93597H46.5723C40.423 8.93597 35.4203 13.9386 35.4203 20.0879V28.6158H43.2923V22.0559C43.2923 19.1623 45.6467 16.8079 48.5403 16.8079H73.4681C76.3617 16.8079 78.716 19.1623 78.716 22.0559V28.6158Z" fill="#1C2D6B"/>
<path d="M76.7331 32.55H45.2453C44.1583 32.55 43.2773 31.669 43.2773 30.5821V22.0541C43.2773 19.1605 45.6317 16.8062 48.5253 16.8062H73.4531C76.3467 16.8062 78.7011 19.1605 78.7011 22.0541V30.5821C78.7011 31.6697 77.8194 32.55 76.7331 32.55ZM47.2133 28.6141H74.7651V22.0541C74.7651 21.3306 74.1767 20.7421 73.4531 20.7421H48.5253C47.8017 20.7421 47.2133 21.3306 47.2133 22.0541V28.6141Z" fill="#1C2D6B"/>
<path d="M28.8633 30.5864H33.4434V109.306H28.8633V30.5864Z" fill="#419B46"/>
<path d="M21.6406 30.5864H26.2208V109.306H21.6406V30.5864Z" fill="#A4D4A0"/>
<path d="M26.2148 30.5864H28.8624V109.306H26.2148V30.5864Z" fill="#65BC49"/>
<path d="M33.4634 111.273H21.6555C20.5685 111.273 19.6875 110.392 19.6875 109.305V30.5857C19.6875 29.4987 20.5685 28.6177 21.6555 28.6177H33.4634C34.5504 28.6177 35.4314 29.4987 35.4314 30.5857V109.305C35.4314 110.393 34.5497 111.273 33.4634 111.273ZM23.6235 107.337H31.4954V32.5536H23.6235V107.337Z" fill="#1C2D6B"/>
<path d="M95.9531 30.5864H100.533V109.306H95.9531V30.5864Z" fill="#419B46"/>
<path d="M88.6875 30.5864H93.2677V109.306H88.6875V30.5864Z" fill="#A4D4A0"/>
<path d="M93.2969 30.5864H95.9445V109.306H93.2969V30.5864Z" fill="#65BC49"/>
<path d="M100.51 111.273H88.7024C87.6154 111.273 86.7344 110.392 86.7344 109.305V30.5857C86.7344 29.4987 87.6154 28.6177 88.7024 28.6177H100.51C101.597 28.6177 102.478 29.4987 102.478 30.5857V109.305C102.478 110.393 101.597 111.273 100.51 111.273ZM90.6703 107.337H98.5423V32.5536H90.6703V107.337Z" fill="#1C2D6B"/>
<path d="M17.6992 58.1353H24.58V77.8151H17.6992V58.1353Z" fill="#EDE49D"/>
<path d="M30.5156 58.1353H37.3964V77.8151H30.5156V58.1353Z" fill="#D3BA2A"/>
<path d="M24.6055 58.1353H30.5245V77.8151H24.6055V58.1353Z" fill="#EEE045"/>
<path d="M84.7812 58.1353H91.662V77.8151H84.7812V58.1353Z" fill="#EDE49D"/>
<path d="M97.5625 58.1353H104.443V77.8151H97.5625V58.1353Z" fill="#D3BA2A"/>
<path d="M91.6562 58.1353H97.5753V77.8151H91.6562V58.1353Z" fill="#EEE045"/>
<path d="M37.39 79.7833H17.7102C16.6232 79.7833 15.7422 78.9023 15.7422 77.8153V58.1355C15.7422 57.0485 16.6232 56.1675 17.7102 56.1675H37.39C38.477 56.1675 39.358 57.0485 39.358 58.1355V77.8153C39.358 78.903 38.4764 79.7833 37.39 79.7833ZM19.6782 75.8473H35.422V60.1035H19.6782V75.8473Z" fill="#1C2D6B"/>
<path d="M104.441 79.7833H84.761C83.674 79.7833 82.793 78.9023 82.793 77.8153V58.1355C82.793 57.0485 83.674 56.1675 84.761 56.1675H104.441C105.528 56.1675 106.409 57.0485 106.409 58.1355V77.8153C106.409 78.903 105.528 79.7833 104.441 79.7833ZM86.7289 75.8473H102.473V60.1035H86.7289V75.8473Z" fill="#1C2D6B"/>
<path d="M123.996 100.964H123.27C123.626 100.964 123.979 100.983 124.327 101.018C124.218 100.983 124.108 100.964 123.996 100.964Z" fill="#6287C5"/>
</svg>
