<svg width="125" height="125" viewBox="0 0 125 125" fill="none" xmlns="http://www.w3.org/2000/svg">
<path d="M40.4807 110.747V17.4985C40.4807 15.7202 41.9226 14.2783 43.7009 14.2783H20.7507C17.8831 14.2783 15.5586 16.6028 15.5586 19.4704V108.775C15.5586 111.642 17.8831 113.967 20.7507 113.967H43.7009C41.9226 113.967 40.4807 112.525 40.4807 110.747Z" fill="#A4D4A0"/>
<path d="M91.3603 14.2783H68.4102C70.1885 14.2783 71.6303 15.7202 71.6303 17.4985V110.747C71.6303 112.525 70.1885 113.967 68.4102 113.967H91.3603C94.2279 113.967 96.5524 111.643 96.5524 108.775V19.4709C96.5524 16.6028 94.2279 14.2783 91.3603 14.2783Z" fill="#419B46"/>
<path d="M71.6331 110.747V17.4985C71.6331 15.7202 70.1913 14.2783 68.413 14.2783H43.7006C41.9223 14.2783 40.4805 15.7202 40.4805 17.4985V110.747C40.4805 112.525 41.9223 113.967 43.7006 113.967H68.413C70.1913 113.967 71.6331 112.525 71.6331 110.747Z" fill="#65BC49"/>
<path d="M91.3624 115.524H20.7497C17.028 115.524 14 112.496 14 108.775V19.4704C14 15.7487 17.028 12.7207 20.7497 12.7207H91.3624C95.0841 12.7207 98.1122 15.7487 98.1122 19.4704V108.775C98.1122 112.496 95.0841 115.524 91.3624 115.524ZM20.7497 15.836C18.7456 15.836 17.1153 17.4663 17.1153 19.4704V108.775C17.1153 110.779 18.7456 112.409 20.7497 112.409H91.3624C93.366 112.409 94.9969 110.779 94.9969 108.775V19.4704C94.9969 17.4663 93.366 15.836 91.3624 15.836H20.7497Z" fill="#1C2D6B"/>
<path d="M44.3863 106.101V22.4035C44.3863 21.5006 45.1184 20.7686 46.0213 20.7686H28.1859C26.7524 20.7686 25.5898 21.9311 25.5898 23.3646V105.14C25.5898 106.574 26.7524 107.736 28.1859 107.736H46.0213C45.1184 107.736 44.3863 107.004 44.3863 106.101Z" fill="#EDE49D"/>
<path d="M84.6128 20.7686H66.7773C67.6803 20.7686 68.4123 21.5006 68.4123 22.4035V106.101C68.4123 107.004 67.6803 107.736 66.7773 107.736H84.6128C86.0463 107.736 87.2088 106.574 87.2088 105.14V23.3646C87.2088 21.9311 86.0463 20.7686 84.6128 20.7686Z" fill="#D3BA2A"/>
<path d="M68.8262 106.101V22.4035C68.8262 21.5006 68.0941 20.7686 67.1912 20.7686H45.7483C44.8454 20.7686 44.1133 21.5006 44.1133 22.4035V106.101C44.1133 107.004 44.8454 107.736 45.7483 107.736H67.1912C68.0941 107.736 68.8262 107.004 68.8262 106.101Z" fill="#EEE045"/>
<path d="M58.0823 36.6205C57.0641 35.9281 55.7263 35.9281 54.7082 36.6205L47.7426 41.3575C46.9213 41.9161 46.4297 42.845 46.4297 43.8382V54.7617C46.4297 56.4185 47.7728 57.7617 49.4297 57.7617H63.3608C65.0176 57.7617 66.3608 56.4185 66.3608 54.7617V43.8382C66.3608 42.845 65.8692 41.9161 65.0478 41.3575L58.0823 36.6205Z" fill="#1C2D6B"/>
<path d="M53.1211 51.8678C53.1211 50.0331 54.6083 48.5459 56.4429 48.5459C58.2776 48.5459 59.7648 50.0331 59.7648 51.8678V57.7613H53.1211V51.8678Z" fill="#EEE045"/>
<rect x="41.7734" y="42.7656" width="18.1263" height="3.3464" rx="1.6732" transform="rotate(-34.1871 41.7734 42.7656)" fill="#1C2D6B"/>
<rect width="18.1263" height="3.34639" rx="1.6732" transform="matrix(0.827179 0.561938 -0.56194 0.827178 56.125 32.6538)" fill="#1C2D6B"/>
<path d="M84.6145 109.294H27.5013C25.2111 109.294 23.3477 107.43 23.3477 105.14V23.3641C23.3477 21.0739 25.2111 19.2104 27.5013 19.2104H84.6145C86.9048 19.2104 88.7682 21.0739 88.7682 23.3641V105.14C88.7682 107.43 86.9048 109.294 84.6145 109.294ZM27.5013 22.3257C26.9287 22.3257 26.4629 22.7914 26.4629 23.3641V105.14C26.4629 105.713 26.9287 106.178 27.5013 106.178H84.6145C85.1872 106.178 85.6529 105.713 85.6529 105.14V23.3641C85.6529 22.7914 85.1872 22.3257 84.6145 22.3257H27.5013Z" fill="#1C2D6B"/>
<path d="M57.6404 6.12171V8.30707H60.468V6.12171C60.468 3.77124 58.6944 1.7188 56.3486 1.56667C56.2494 1.56044 56.1523 1.56304 56.0547 1.56304C56.09 1.56304 56.1248 1.56044 56.1601 1.56667C57.0028 1.7188 57.6404 3.77124 57.6404 6.12171Z" fill="#4B67B0"/>
<path d="M54.4722 5.9706C54.4722 3.59936 55.144 1.66582 55.9867 1.5625C53.5827 1.60092 51.6445 3.55731 51.6445 5.9706V8.30705H54.4722V5.9706Z" fill="#89AADB"/>
<path d="M49.1545 8.30762H36.8461C35.4125 8.30762 34.25 9.47013 34.25 10.9037V26.7396H48.222V10.9037C48.222 9.47013 48.6394 8.30762 49.1545 8.30762Z" fill="#89AADB"/>
<path d="M75.2654 8.30762H62.957C63.4721 8.30762 63.8895 9.47013 63.8895 10.9037V26.7396H77.8615V10.9037C77.8615 9.47013 76.699 8.30762 75.2654 8.30762Z" fill="#4B67B0"/>
<path d="M55.9844 1.5627C56.0081 1.56217 56.0323 1.56375 56.0565 1.56375C56.0323 1.56375 56.0081 1.55954 55.9844 1.5627Z" fill="#6287C5"/>
<path d="M62.9599 8.30708H60.4708H57.6432V6.12172C57.6432 3.77125 57.0061 1.71881 56.1629 1.56668C56.1271 1.56045 56.0923 1.56305 56.0575 1.56305C56.0342 1.56305 56.0103 1.56201 55.9864 1.56201C55.1437 1.66533 54.4719 3.59888 54.4719 5.97011V8.30656H51.6443H49.1552C48.6401 8.30656 48.2227 9.46907 48.2227 10.9026V26.7385H63.8924V10.9026C63.8924 9.46959 63.475 8.30708 62.9599 8.30708Z" fill="#6287C5"/>
<path d="M77.8627 28.2968H34.249C33.3887 28.2968 32.6914 27.5995 32.6914 26.7391V10.9032C32.6914 8.61296 34.5549 6.74951 36.8451 6.74951H75.2667C77.5569 6.74951 79.4204 8.61296 79.4204 10.9032V26.7391C79.4204 27.5995 78.7231 28.2968 77.8627 28.2968ZM35.8067 25.1815H76.3051V10.9032C76.3051 10.3305 75.8394 9.86478 75.2667 9.86478H36.8451C36.2724 9.86478 35.8067 10.3305 35.8067 10.9032V25.1815Z" fill="#1C2D6B"/>
<path d="M60.4663 9.865H51.6397C50.7793 9.865 50.082 9.1677 50.082 8.30737V5.97092C50.082 2.67861 52.7606 0 56.053 0C59.3453 0 62.0239 2.67861 62.0239 5.97092V8.30737C62.0239 9.1677 61.3266 9.865 60.4663 9.865ZM53.1973 6.74974H58.9086V5.97092C58.9086 4.39616 57.6272 3.11526 56.053 3.11526C54.4782 3.11526 53.1973 4.39616 53.1973 5.97092V6.74974Z" fill="#1C2D6B"/>
<path d="M77.8124 71.9107H46.7647C45.9043 71.9107 45.207 71.2134 45.207 70.353C45.207 69.4927 45.9043 68.7954 46.7647 68.7954H77.8124C78.6728 68.7954 79.3701 69.4927 79.3701 70.353C79.3701 71.2134 78.6733 71.9107 77.8124 71.9107Z" fill="#1C2D6B"/>
<path d="M77.8124 78.1411H46.7647C45.9043 78.1411 45.207 77.4438 45.207 76.5835C45.207 75.7232 45.9043 75.0259 46.7647 75.0259H77.8124C78.6728 75.0259 79.3701 75.7232 79.3701 76.5835C79.3701 77.4438 78.6733 78.1411 77.8124 78.1411Z" fill="#1C2D6B"/>
<path d="M40.3185 78.1408H34.1358C33.2754 78.1408 32.5781 77.4435 32.5781 76.5832V70.4004C32.5781 69.5401 33.2754 68.8428 34.1358 68.8428H40.3185C41.1789 68.8428 41.8762 69.5401 41.8762 70.4004V76.5832C41.8762 77.4435 41.1783 78.1408 40.3185 78.1408ZM35.6934 75.0255H38.7609V71.958H35.6934V75.0255Z" fill="#1C2D6B"/>
<path d="M77.8124 84.3716H46.7647C45.9043 84.3716 45.207 83.6743 45.207 82.814C45.207 81.9536 45.9043 81.2563 46.7647 81.2563H77.8124C78.6728 81.2563 79.3701 81.9536 79.3701 82.814C79.3701 83.6743 78.6733 84.3716 77.8124 84.3716Z" fill="#1C2D6B"/>
<path d="M77.8124 90.6021H46.7647C45.9043 90.6021 45.207 89.9048 45.207 89.0444C45.207 88.1841 45.9043 87.4868 46.7647 87.4868H77.8124C78.6728 87.4868 79.3701 88.1841 79.3701 89.0444C79.3701 89.9048 78.6733 90.6021 77.8124 90.6021Z" fill="#1C2D6B"/>
<path d="M40.3185 90.6017H34.1358C33.2754 90.6017 32.5781 89.9044 32.5781 89.0441V82.8613C32.5781 82.001 33.2754 81.3037 34.1358 81.3037H40.3185C41.1789 81.3037 41.8762 82.001 41.8762 82.8613V89.0441C41.8762 89.9044 41.1783 90.6017 40.3185 90.6017ZM35.6934 87.4865H38.7609V84.419H35.6934V87.4865Z" fill="#1C2D6B"/>
<path d="M77.8124 96.8325H46.7647C45.9043 96.8325 45.207 96.1352 45.207 95.2749C45.207 94.4146 45.9043 93.7173 46.7647 93.7173H77.8124C78.6728 93.7173 79.3701 94.4146 79.3701 95.2749C79.3701 96.1352 78.6733 96.8325 77.8124 96.8325Z" fill="#1C2D6B"/>
<path d="M77.8124 103.063H46.7647C45.9043 103.063 45.207 102.366 45.207 101.505C45.207 100.645 45.9043 99.9478 46.7647 99.9478H77.8124C78.6728 99.9478 79.3701 100.645 79.3701 101.505C79.3701 102.366 78.6733 103.063 77.8124 103.063Z" fill="#1C2D6B"/>
<path d="M40.3185 103.063H34.1358C33.2754 103.063 32.5781 102.365 32.5781 101.505V95.3223C32.5781 94.4619 33.2754 93.7646 34.1358 93.7646H40.3185C41.1789 93.7646 41.8762 94.4619 41.8762 95.3223V101.505C41.8762 102.365 41.1783 103.063 40.3185 103.063ZM35.6934 99.9474H38.7609V96.8799H35.6934V99.9474Z" fill="#1C2D6B"/>
<g clip-path="url(#clip0)">
<path d="M113.871 97.5264C112.784 96.4395 111.481 95.8963 109.962 95.8963H108.117V88.5117C108.117 87.7427 107.924 86.8961 107.539 85.9734C107.154 85.0504 106.693 84.3197 106.155 83.7811L101.769 79.3964C101.231 78.8584 100.5 78.3966 99.5777 78.0118C98.6545 77.6273 97.8088 77.4351 97.0391 77.4351H77.6541C76.8848 77.4351 76.2308 77.7041 75.6923 78.2426C75.1541 78.7809 74.8846 79.4348 74.8846 80.2042V95.8963H73.0386C71.5193 95.8963 70.2165 96.4398 69.1297 97.5264C68.0432 98.6128 67.5 99.9157 67.5 101.435V113.435C67.5 113.686 67.5914 113.901 67.774 114.085C67.9568 114.267 68.1732 114.358 68.423 114.358H74.8846V118.974C74.8846 119.743 75.1538 120.397 75.6923 120.935C76.2308 121.473 76.8848 121.743 77.6541 121.743H105.346C106.115 121.743 106.77 121.473 107.308 120.935C107.847 120.397 108.116 119.743 108.116 118.974V114.358H114.578C114.827 114.358 115.044 114.267 115.226 114.085C115.409 113.901 115.5 113.686 115.5 113.435V101.435C115.5 99.9157 114.957 98.6128 113.871 97.5264ZM104.424 118.051H78.5772V110.666H104.424V118.051ZM104.424 99.5889H78.5772V81.1274H97.0391V85.7427C97.0391 86.512 97.3088 87.1656 97.8465 87.7042C98.3848 88.2427 99.0386 88.5118 99.8083 88.5118H104.424V99.5889ZM111.26 102.733C110.895 103.098 110.462 103.281 109.962 103.281C109.462 103.281 109.029 103.098 108.664 102.733C108.299 102.368 108.117 101.935 108.117 101.435C108.117 100.935 108.299 100.502 108.664 100.137C109.029 99.7715 109.462 99.5888 109.962 99.5888C110.462 99.5888 110.895 99.7715 111.26 100.137C111.625 100.502 111.809 100.935 111.809 101.435C111.809 101.935 111.626 102.368 111.26 102.733Z" fill="#1C2D6B"/>
<rect x="78.457" y="110.554" width="26.0787" height="7.52942" fill="#6287C5"/>
<rect x="78.4102" y="110.498" width="8.72727" height="7.51514" fill="#89AADB"/>
<rect x="87.1367" y="110.498" width="8.72728" height="7.51514" fill="#6287C5"/>
<rect x="95.8633" y="110.498" width="8.72726" height="7.51514" fill="#4B67B0"/>
<rect x="78.4102" y="80.9219" width="8.72727" height="18.6667" fill="#89AADB"/>
<rect x="87.1367" y="80.9219" width="8.72728" height="18.6667" fill="#6287C5"/>
<ellipse cx="110.209" cy="101.668" rx="2.26772" ry="2.26772" fill="#6287C5"/>
<path d="M97.0754 80.9219H95.8633V99.5885H104.469V88.4131H99.7421C97.5118 88.4131 97.035 86.5301 97.0754 85.5885V80.9219Z" fill="#4B67B0"/>
</g>
<defs>
<clipPath id="clip0">
<rect width="48" height="48" fill="white" transform="translate(67.5 75.5889)"/>
</clipPath>
</defs>
</svg>
