<svg width="125" height="125" viewBox="0 0 125 125" fill="none" xmlns="http://www.w3.org/2000/svg">
<path d="M107.71 12.9375H75.3711C77.6173 12.9375 79.4379 14.7581 79.4379 17.0043V97.9957C79.4379 100.242 77.6173 102.062 75.3711 102.062H107.71C111.357 102.062 114.314 99.1059 114.314 95.4588V19.5411C114.313 15.8941 111.357 12.9375 107.71 12.9375Z" fill="#D3BA2A"/>
<path d="M42.7131 97.9944V17.0043C42.7131 14.7581 44.8417 12.9375 47.468 12.9375H9.65844C5.39437 12.9375 1.9375 15.8941 1.9375 19.5411V95.4589C1.9375 99.1059 5.39437 102.062 9.65844 102.062H47.4688C44.8425 102.061 42.7131 100.241 42.7131 97.9944Z" fill="#EDE49D"/>
<path d="M79.7604 97.995V17.0043C79.7604 14.7581 78.1743 12.9375 76.2173 12.9375H46.1681C44.2112 12.9375 42.625 14.7581 42.625 17.0043V97.9957C42.625 100.242 44.2112 102.062 46.1681 102.062H76.2179C78.1743 102.062 79.7604 100.241 79.7604 97.995Z" fill="#EEE045"/>
<path d="M47.4688 12.9375H9.65844C5.39437 12.9375 1.9375 15.8941 1.9375 19.5411V28.4375H42.7131V17.005C42.7131 14.7588 44.8425 12.9375 47.4688 12.9375Z" fill="#EF7F72"/>
<path d="M114.314 19.5411C114.314 15.8941 111.357 12.9375 107.71 12.9375H75.3711C77.6173 12.9375 79.4379 14.7581 79.4379 17.0043V28.4375H114.313V19.5411H114.314Z" fill="#E8383B"/>
<path d="M75.9247 12.9375H46.1372C44.1973 12.9375 42.625 14.7581 42.625 17.0043V28.4375H79.4375V17.005C79.4369 14.7588 77.8646 12.9375 75.9247 12.9375Z" fill="#E95947"/>
<path d="M107.709 104H8.54115C3.83173 104 0 100.168 0 95.4588V19.5411C0 14.8317 3.83173 11 8.54115 11H107.709C112.418 11 116.25 14.8317 116.25 19.5411V95.4595C116.25 100.169 112.419 104 107.709 104ZM8.54115 14.875C5.96815 14.875 3.875 16.9681 3.875 19.5411V95.4595C3.875 98.0325 5.96815 100.126 8.54115 100.126H107.709C110.281 100.126 112.375 98.0325 112.375 95.4595V19.5411C112.375 16.9681 110.282 14.875 107.709 14.875H8.54115Z" fill="#1C2D6B"/>
<path d="M91.1225 42.146H56.7759C55.8274 42.146 55.0586 41.2786 55.0586 40.2085C55.0586 39.1384 55.8274 38.271 56.7759 38.271H91.1225C92.0711 38.271 92.8398 39.1384 92.8398 40.2085C92.8398 41.2786 92.0711 42.146 91.1225 42.146Z" fill="#1C2D6B"/>
<path d="M91.1225 53.7705H56.7759C55.8274 53.7705 55.0586 52.9032 55.0586 51.833C55.0586 50.7629 55.8274 49.8955 56.7759 49.8955H91.1225C92.0711 49.8955 92.8398 50.7629 92.8398 51.833C92.8398 52.9032 92.0711 53.7705 91.1225 53.7705Z" fill="#1C2D6B"/>
<path d="M91.1225 65.396H56.7759C55.8274 65.396 55.0586 64.5286 55.0586 63.4585C55.0586 62.3883 55.8274 61.521 56.7759 61.521H91.1225C92.0711 61.521 92.8398 62.3883 92.8398 63.4585C92.8398 64.5286 92.0711 65.396 91.1225 65.396Z" fill="#1C2D6B"/>
<path d="M9.68334 23.0517C11.038 23.0517 12.1362 21.9536 12.1362 20.5989C12.1362 19.2442 11.038 18.146 9.68334 18.146C8.32866 18.146 7.23047 19.2442 7.23047 20.5989C7.23047 21.9536 8.32866 23.0517 9.68334 23.0517Z" fill="#1C2D6B"/>
<path d="M17.4333 23.0517C18.788 23.0517 19.8862 21.9536 19.8862 20.5989C19.8862 19.2442 18.788 18.146 17.4333 18.146C16.0787 18.146 14.9805 19.2442 14.9805 20.5989C14.9805 21.9536 16.0787 23.0517 17.4333 23.0517Z" fill="#1C2D6B"/>
<path d="M25.1872 23.0517C26.5419 23.0517 27.6401 21.9536 27.6401 20.5989C27.6401 19.2442 26.5419 18.146 25.1872 18.146C23.8326 18.146 22.7344 19.2442 22.7344 20.5989C22.7344 21.9536 23.8326 23.0517 25.1872 23.0517Z" fill="#1C2D6B"/>
<path d="M114.313 30.375H1.9375C0.867353 30.375 0 29.5076 0 28.4375V19.5411C0 14.8317 3.83173 11 8.54115 11H107.71C112.419 11 116.251 14.8317 116.251 19.5411V28.4375C116.25 29.5076 115.383 30.375 114.313 30.375ZM3.875 26.5H112.375V19.5411C112.375 16.9681 110.282 14.875 107.709 14.875H8.54115C5.96815 14.875 3.875 16.9681 3.875 19.5411V26.5Z" fill="#1C2D6B"/>
<path d="M24.6955 40.5834C23.6774 39.8909 22.3396 39.8909 21.3214 40.5834L12.7817 46.391C11.9604 46.9495 11.4688 47.8784 11.4688 48.8717V62.2453C11.4688 63.9022 12.8119 65.2453 14.4688 65.2453H31.5482C33.2051 65.2453 34.5482 63.9022 34.5482 62.2453V48.8717C34.5482 47.8784 34.0566 46.9495 33.2352 46.391L24.6955 40.5834Z" fill="#1C2D6B"/>
<path d="M19.2188 58.4208C19.2188 56.2964 20.9409 54.5742 23.0653 54.5742C25.1897 54.5742 26.9119 56.2964 26.9119 58.4208V65.2454H19.2188V58.4208Z" fill="#EDE49D"/>
<rect x="6.07812" y="47.8804" width="20.9896" height="3.875" rx="1.9375" transform="rotate(-34.1871 6.07812 47.8804)" fill="#1C2D6B"/>
<rect x="22.6953" y="36.1714" width="20.9896" height="3.875" rx="1.9375" transform="rotate(34.19 22.6953 36.1714)" fill="#1C2D6B"/>
<path d="M121.371 98.9371C120.284 97.8501 118.981 97.3069 117.462 97.3069H115.617V89.9223C115.617 89.1533 115.424 88.3067 115.039 87.3841C114.654 86.461 114.193 85.7303 113.655 85.1918L109.269 80.807C108.731 80.269 108 79.8073 107.078 79.4224C106.154 79.038 105.309 78.8457 104.539 78.8457H85.1541C84.3848 78.8457 83.7308 79.1148 83.1923 79.6533C82.6541 80.1915 82.3846 80.8454 82.3846 81.6148V97.3069H80.5386C79.0193 97.3069 77.7165 97.8504 76.6297 98.9371C75.5432 100.023 75 101.326 75 102.846V114.846C75 115.097 75.0914 115.312 75.274 115.495C75.4568 115.678 75.6732 115.769 75.923 115.769H82.3846V120.384C82.3846 121.154 82.6538 121.808 83.1923 122.346C83.7308 122.884 84.3848 123.154 85.1541 123.154H112.846C113.615 123.154 114.27 122.884 114.808 122.346C115.347 121.807 115.616 121.154 115.616 120.384V115.769H122.078C122.327 115.769 122.544 115.678 122.726 115.495C122.909 115.312 123 115.097 123 114.846V102.846C123 101.326 122.457 100.023 121.371 98.9371ZM111.924 119.461H86.0772V112.077H111.924V119.461ZM111.924 101H86.0772V82.5381H104.539V87.1533C104.539 87.9226 104.809 88.5762 105.346 89.1148C105.885 89.6533 106.539 89.9224 107.308 89.9224H111.924V101ZM118.76 104.144C118.395 104.509 117.962 104.692 117.462 104.692C116.962 104.692 116.529 104.509 116.164 104.144C115.799 103.779 115.617 103.346 115.617 102.846C115.617 102.346 115.799 101.913 116.164 101.548C116.529 101.182 116.962 100.999 117.462 100.999C117.962 100.999 118.395 101.182 118.76 101.548C119.125 101.913 119.309 102.346 119.309 102.846C119.309 103.346 119.126 103.779 118.76 104.144Z" fill="#1C2D6B"/>
<rect x="85.9609" y="111.965" width="26.0788" height="7.52942" fill="#6287C5"/>
<rect x="85.9102" y="111.909" width="8.72727" height="7.51513" fill="#89AADB"/>
<rect x="94.6367" y="111.909" width="8.72728" height="7.51513" fill="#6287C5"/>
<rect x="103.363" y="111.909" width="8.72726" height="7.51513" fill="#4B67B0"/>
<rect x="85.9102" y="82.3335" width="8.72727" height="18.6667" fill="#89AADB"/>
<rect x="94.6367" y="82.3335" width="8.72728" height="18.6667" fill="#6287C5"/>
<ellipse cx="117.709" cy="103.078" rx="2.26772" ry="2.26772" fill="#6287C5"/>
<path d="M104.575 82.3335H103.363V101H111.969V89.8247H107.242C105.012 89.8247 104.535 87.9417 104.575 87.0002V82.3335Z" fill="#4B67B0"/>
</svg>
