<svg width="126" height="126" viewBox="0 0 126 126" fill="none" xmlns="http://www.w3.org/2000/svg">
<rect x="1" y="105" width="125" height="21" fill="#F2F2F2"/>
<path d="M28.6042 20.625H1V105H28.6042V20.625Z" fill="#E8EAEA"/>
<path d="M125.999 20.625H98.3945V105H125.999V20.625Z" fill="#E8EAEA"/>
<path d="M1 22.1872H126C126 19.0623 123.395 16.458 120.27 16.458H6.72923C3.60424 16.458 1 19.0623 1 22.1872Z" fill="#FF6464"/>
<path d="M98.397 6.5625H28.6055V105H98.397V6.5625Z" fill="#F2F2F2"/>
<path d="M102.3 0.833496H24.6965C23.134 0.833496 21.832 2.13549 21.832 3.69799C21.832 5.26049 23.134 6.56273 24.6965 6.56273H102.301C103.863 6.56273 105.165 5.26073 105.165 3.69823C105.165 2.13574 103.863 0.833496 102.3 0.833496Z" fill="#FF6464"/>
<path d="M20.7878 28.4375H8.80859V41.7187H20.7878V28.4375Z" fill="#54C0EB"/>
<path d="M20.7878 46.9272H8.80859V60.2085H20.7878V46.9272Z" fill="#54C0EB"/>
<path d="M20.7878 65.417H8.80859V78.6982H20.7878V65.417Z" fill="#54C0EB"/>
<path d="M20.7878 83.9062H8.80859V97.1875H20.7878V83.9062Z" fill="#54C0EB"/>
<path d="M118.182 28.4375H106.203V41.7187H118.182V28.4375Z" fill="#54C0EB"/>
<path d="M118.182 46.9272H106.203V60.2085H118.182V46.9272Z" fill="#54C0EB"/>
<path d="M118.182 65.417H106.203V78.6982H118.182V65.417Z" fill="#54C0EB"/>
<path d="M118.182 83.9062H106.203V97.1875H118.182V83.9062Z" fill="#54C0EB"/>
<path d="M49.4387 51.6143H36.418V64.8955H49.4387V51.6143Z" fill="#84DBFF"/>
<path d="M126 99.5308H1V104.999H126V99.5308Z" fill="#ACB3BA"/>
<path d="M49.4348 14.6353H36.4141V27.9165H49.4348V14.6353Z" fill="#84DBFF"/>
<path d="M49.4348 33.125H36.4141V46.4062H49.4348V33.125Z" fill="#84DBFF"/>
<path d="M70.009 14.6353H56.9883V27.9165H70.009V14.6353Z" fill="#84DBFF"/>
<path d="M70.009 33.125H56.9883V46.4062H70.009V33.125Z" fill="#84DBFF"/>
<path d="M70.009 51.6143H56.9883V64.8955H70.009V51.6143Z" fill="#84DBFF"/>
<path d="M90.5832 14.6353H77.5625V27.9165H90.5832V14.6353Z" fill="#84DBFF"/>
<path d="M90.5832 33.125H77.5625V46.4062H90.5832V33.125Z" fill="#84DBFF"/>
<path d="M90.5832 51.6143H77.5625V64.8955H90.5832V51.6143Z" fill="#84DBFF"/>
<path d="M87.875 79.9375C87.875 101.747 62.9375 123.558 62.9375 123.558C62.9375 123.558 38 101.747 38 79.9375C38 73.3237 40.6273 66.9807 45.304 62.304C49.9807 57.6273 56.3237 55 62.9375 55C69.5513 55 75.8943 57.6273 80.571 62.304C85.2477 66.9807 87.875 73.3237 87.875 79.9375V79.9375Z" fill="#FA4B4B"/>
<path d="M48.2422 106.877C52.5248 112.951 57.4519 118.544 62.9375 123.558C62.9375 123.558 83.8375 105.271 87.3608 85.4395C77.6898 96.1745 63.5384 103.964 48.2422 106.877Z" fill="#DC3C46"/>
<path d="M62.9375 99.8086C74.0867 99.8086 83.125 90.7703 83.125 79.6211C83.125 68.4718 74.0867 59.4336 62.9375 59.4336C51.7883 59.4336 42.75 68.4718 42.75 79.6211C42.75 90.7703 51.7883 99.8086 62.9375 99.8086Z" fill="#EEEEEE"/>
<path d="M63 66C56.8613 66 52.2904 68.6353 50.1992 71.6901V83.8418H63H75.8008V71.6901C73.7088 68.6342 69.1384 66 63 66Z" fill="#434B59"/>
<path d="M75.8008 71.6901C73.7088 68.6342 69.1384 66 63 66V83.8418H75.8008V71.6901Z" fill="#303540"/>
<path d="M67.248 74.4961C65.7795 74.4961 63.7277 75.0819 63 75.305C62.2723 75.0819 60.2197 74.4961 58.752 74.4961C57.1659 74.4961 54.9767 75.13 53.5977 75.5797V80.4434H63H72.4023V75.5797C70.9883 75.1187 68.8323 74.4961 67.248 74.4961Z" fill="#F3F5F9"/>
<path d="M72.4023 75.5797C70.9883 75.1187 68.8323 74.4961 67.248 74.4961C65.7795 74.4961 63.7277 75.0819 63 75.305V80.4434H72.4023V75.5797Z" fill="#E1E6F0"/>
<path d="M50.1992 87.2402H51.8984V89.7891H50.1992V87.2402Z" fill="#434B59"/>
<path d="M74.1016 87.2402H75.8008V89.7891H74.1016V87.2402Z" fill="#303540"/>
<path d="M71.5527 79.5938H63H54.4473C52.1011 79.5938 50.1992 81.4956 50.1992 83.8418V86.3906H63H75.8008V83.8418C75.8008 81.4956 73.8989 79.5938 71.5527 79.5938Z" fill="#FFBE40"/>
<path d="M75.8008 83.8418C75.8008 81.4956 73.8989 79.5938 71.5527 79.5938H63V86.3906H75.8008V83.8418Z" fill="#FF9F40"/>
<path d="M63 84.6914H48.5V88.0898H63H77.5V84.6914H63Z" fill="#576073"/>
<path d="M63 84.6914H77.5V88.0898H63V84.6914Z" fill="#434B59"/>
</svg>
