<svg width="125" height="125" viewBox="0 0 125 125" fill="none" xmlns="http://www.w3.org/2000/svg">
<path d="M4.61719 19.1597H26.3448V77.2617H4.61719V19.1597Z" fill="#EDE49D"/>
<path d="M57.3711 19.1597H79.0988V77.2617H57.3711V19.1597Z" fill="#D3BA2A"/>
<path d="M26.3398 19.1597H57.3793V77.2617H26.3398V19.1597Z" fill="#EEE045"/>
<path d="M79.1104 78.8778H4.61616C3.7235 78.8778 3 78.1543 3 77.2616V19.1596C3 18.267 3.7235 17.5435 4.61616 17.5435H79.1104C80.003 17.5435 80.7265 18.267 80.7265 19.1596V77.2616C80.7265 78.1543 80.003 78.8778 79.1104 78.8778ZM6.23232 75.6455H77.4942V20.7758H6.23232V75.6455Z" fill="#1C2D6B"/>
<path d="M4.61719 19.1597H26.3448V32.0092H4.61719V19.1597Z" fill="#EF7F72"/>
<path d="M57.3711 19.1597H79.0988V32.0092H57.3711V19.1597Z" fill="#E8383B"/>
<path d="M26.3398 19.1597H57.3793V32.0092H26.3398V19.1597Z" fill="#E95947"/>
<path d="M79.1104 33.6253H4.61616C3.7235 33.6253 3 32.9018 3 32.0092V19.1596C3 18.267 3.7235 17.5435 4.61616 17.5435H79.1104C80.003 17.5435 80.7265 18.267 80.7265 19.1596V32.0092C80.7265 32.9018 80.003 33.6253 79.1104 33.6253ZM6.23232 30.393H77.4942V20.7758H6.23232V30.393Z" fill="#1C2D6B"/>
<path d="M62.9531 41.7056H69.4178V48.1702H62.9531V41.7056Z" fill="#E95947"/>
<path d="M46.7812 41.7056H53.2459V48.1702H46.7812V41.7056Z" fill="#E95947"/>
<path d="M30.6211 41.7056H37.0857V48.1702H30.6211V41.7056Z" fill="#E95947"/>
<path d="M14.4648 41.7056H20.9295V48.1702H14.4648V41.7056Z" fill="#E95947"/>
<path d="M30.6211 61.1011H37.0857V67.5657H30.6211V61.1011Z" fill="#E95947"/>
<path d="M46.7812 61.1011H53.2459V67.5657H46.7812V61.1011Z" fill="#E95947"/>
<path d="M62.9531 61.1011H69.4178V67.5657H62.9531V61.1011Z" fill="#E95947"/>
<path d="M53.2605 69.1813H46.7958C45.9032 69.1813 45.1797 68.4578 45.1797 67.5652V61.1005C45.1797 60.2079 45.9032 59.4844 46.7958 59.4844H53.2605C54.1531 59.4844 54.8766 60.2079 54.8766 61.1005V67.5652C54.8766 68.4578 54.1531 69.1813 53.2605 69.1813ZM48.412 65.949H51.6443V62.7167H48.412V65.949Z" fill="#1C2D6B"/>
<path d="M69.4167 69.1813H62.9521C62.0594 69.1813 61.3359 68.4578 61.3359 67.5652V61.1005C61.3359 60.2079 62.0594 59.4844 62.9521 59.4844H69.4167C70.3094 59.4844 71.0329 60.2079 71.0329 61.1005V67.5652C71.0329 68.4578 70.3094 69.1813 69.4167 69.1813ZM64.5683 65.949H67.8006V62.7167H64.5683V65.949Z" fill="#1C2D6B"/>
<path d="M14.4492 61.0996H20.9139V67.5642H14.4492V61.0996Z" fill="#E95947"/>
<path d="M69.4167 49.7878H62.9521C62.0594 49.7878 61.3359 49.0643 61.3359 48.1716V41.707C61.3359 40.8143 62.0594 40.0908 62.9521 40.0908H69.4167C70.3094 40.0908 71.0329 40.8143 71.0329 41.707V48.1716C71.0329 49.0643 70.3094 49.7878 69.4167 49.7878ZM64.5683 46.5554H67.8006V43.3231H64.5683V46.5554Z" fill="#1C2D6B"/>
<path d="M53.2605 49.7878H46.7958C45.9032 49.7878 45.1797 49.0643 45.1797 48.1716V41.707C45.1797 40.8143 45.9032 40.0908 46.7958 40.0908H53.2605C54.1531 40.0908 54.8766 40.8143 54.8766 41.707V48.1716C54.8766 49.0643 54.1531 49.7878 53.2605 49.7878ZM48.412 46.5554H51.6443V43.3231H48.412V46.5554Z" fill="#1C2D6B"/>
<path d="M37.1003 49.7878H30.6357C29.743 49.7878 29.0195 49.0643 29.0195 48.1716V41.707C29.0195 40.8143 29.743 40.0908 30.6357 40.0908H37.1003C37.993 40.0908 38.7165 40.8143 38.7165 41.707V48.1716C38.7165 49.0643 37.993 49.7878 37.1003 49.7878ZM32.2519 46.5554H35.4842V43.3231H32.2519V46.5554Z" fill="#1C2D6B"/>
<path d="M20.9167 49.7878H14.4521C13.5594 49.7878 12.8359 49.0643 12.8359 48.1716V41.707C12.8359 40.8143 13.5594 40.0908 14.4521 40.0908H20.9167C21.8094 40.0908 22.5329 40.8143 22.5329 41.707V48.1716C22.5329 49.0643 21.8094 49.7878 20.9167 49.7878ZM16.0683 46.5554H19.3006V43.3231H16.0683V46.5554Z" fill="#1C2D6B"/>
<path d="M37.1003 69.1813H30.6357C29.743 69.1813 29.0195 68.4578 29.0195 67.5652V61.1005C29.0195 60.2079 29.743 59.4844 30.6357 59.4844H37.1003C37.993 59.4844 38.7165 60.2079 38.7165 61.1005V67.5652C38.7165 68.4578 37.993 69.1813 37.1003 69.1813ZM32.2519 65.949H35.4842V62.7167H32.2519V65.949Z" fill="#1C2D6B"/>
<path d="M20.9167 69.1813H14.4521C13.5594 69.1813 12.8359 68.4578 12.8359 67.5652V61.1005C12.8359 60.2079 13.5594 59.4844 14.4521 59.4844H20.9167C21.8094 59.4844 22.5329 60.2079 22.5329 61.1005V67.5652C22.5329 68.4578 21.8094 69.1813 20.9167 69.1813ZM16.0683 65.949H19.3006V62.7167H16.0683V65.949Z" fill="#1C2D6B"/>
<path d="M66.1815 25.545C64.3962 25.545 62.9492 24.098 62.9492 22.3127V15.848C62.9492 14.0627 64.3962 12.6157 66.1815 12.6157C67.9669 12.6157 69.4139 14.0627 69.4139 15.848V22.3127C69.4139 24.0975 67.9669 25.545 66.1815 25.545Z" fill="#EEE045"/>
<path d="M50.0292 25.545C48.2439 25.545 46.7969 24.098 46.7969 22.3127V15.848C46.7969 14.0627 48.2439 12.6157 50.0292 12.6157C51.8145 12.6157 53.2615 14.0627 53.2615 15.848V22.3127C53.2615 24.0975 51.8145 25.545 50.0292 25.545Z" fill="#EEE045"/>
<path d="M33.869 25.545C32.0837 25.545 30.6367 24.098 30.6367 22.3127V15.848C30.6367 14.0627 32.0837 12.6157 33.869 12.6157C35.6544 12.6157 37.1014 14.0627 37.1014 15.848V22.3127C37.1014 24.0975 35.6544 25.545 33.869 25.545Z" fill="#EEE045"/>
<path d="M17.6815 25.545C15.8962 25.545 14.4492 24.098 14.4492 22.3127V15.848C14.4492 14.0627 15.8962 12.6157 17.6815 12.6157C19.4669 12.6157 20.9139 14.0627 20.9139 15.848V22.3127C20.9139 24.0975 19.4669 25.545 17.6815 25.545Z" fill="#EEE045"/>
<path d="M66.1844 27.1616C63.5113 27.1616 61.3359 24.9862 61.3359 22.3131V15.8485C61.3359 13.1754 63.5113 11 66.1844 11C68.8576 11 71.0329 13.1754 71.0329 15.8485V22.3131C71.0329 24.9862 68.8576 27.1616 66.1844 27.1616ZM66.1844 14.2323C65.2934 14.2323 64.5683 14.9574 64.5683 15.8485V22.3131C64.5683 23.2042 65.2934 23.9293 66.1844 23.9293C67.0755 23.9293 67.8006 23.2042 67.8006 22.3131V15.8485C67.8006 14.9574 67.0755 14.2323 66.1844 14.2323Z" fill="#1C2D6B"/>
<path d="M50.0282 27.1616C47.355 27.1616 45.1797 24.9862 45.1797 22.3131V15.8485C45.1797 13.1754 47.355 11 50.0282 11C52.7013 11 54.8766 13.1754 54.8766 15.8485V22.3131C54.8766 24.9862 52.7013 27.1616 50.0282 27.1616ZM50.0282 14.2323C49.1371 14.2323 48.412 14.9574 48.412 15.8485V22.3131C48.412 23.2042 49.1371 23.9293 50.0282 23.9293C50.9192 23.9293 51.6443 23.2042 51.6443 22.3131V15.8485C51.6443 14.9574 50.9192 14.2323 50.0282 14.2323Z" fill="#1C2D6B"/>
<path d="M33.868 27.1616C31.1949 27.1616 29.0195 24.9862 29.0195 22.3131V15.8485C29.0195 13.1754 31.1949 11 33.868 11C36.5411 11 38.7165 13.1754 38.7165 15.8485V22.3131C38.7165 24.9862 36.5411 27.1616 33.868 27.1616ZM33.868 14.2323C32.977 14.2323 32.2519 14.9574 32.2519 15.8485V22.3131C32.2519 23.2042 32.977 23.9293 33.868 23.9293C34.7591 23.9293 35.4842 23.2042 35.4842 22.3131V15.8485C35.4842 14.9574 34.7591 14.2323 33.868 14.2323Z" fill="#1C2D6B"/>
<path d="M17.6844 27.1616C15.0113 27.1616 12.8359 24.9862 12.8359 22.3131V15.8485C12.8359 13.1754 15.0113 11 17.6844 11C20.3575 11 22.5329 13.1754 22.5329 15.8485V22.3131C22.5329 24.9862 20.3575 27.1616 17.6844 27.1616ZM17.6844 14.2323C16.7934 14.2323 16.0683 14.9574 16.0683 15.8485V22.3131C16.0683 23.2042 16.7934 23.9293 17.6844 23.9293C18.5755 23.9293 19.3006 23.2042 19.3006 22.3131V15.8485C19.3006 14.9574 18.5755 14.2323 17.6844 14.2323Z" fill="#1C2D6B"/>
<path d="M48.4425 83.4649V57.2626C48.4425 55.5727 49.8125 54.2021 51.503 54.2021H47.2622C44.2869 54.2021 41.875 56.614 41.875 59.5893V81.1381C41.875 84.1135 44.2869 86.5253 47.2622 86.5253H51.503C49.8125 86.5253 48.4425 85.1554 48.4425 83.4649Z" fill="#A4D4A0"/>
<path d="M54.6719 54.2021H61.2394V86.5253H54.6719V54.2021Z" fill="#419B46"/>
<path d="M51.4902 54.2021C49.8002 54.2021 48.4297 55.5721 48.4297 57.2626V83.4649C48.4297 85.1548 49.7997 86.5253 51.4902 86.5253H54.6885V54.2021H51.4902Z" fill="#65BC49"/>
<path d="M61.2679 88.1419H47.2612C43.3996 88.1419 40.2578 85.0001 40.2578 81.1386V59.5898C40.2578 55.7282 43.3996 52.5864 47.2612 52.5864H61.2679C62.1606 52.5864 62.8841 53.3099 62.8841 54.2026V86.5258C62.8841 87.4184 62.1606 88.1419 61.2679 88.1419ZM47.2612 55.8187C45.1817 55.8187 43.4901 57.5103 43.4901 59.5898V81.1386C43.4901 83.218 45.1817 84.9096 47.2612 84.9096H59.6517V55.8187H47.2612Z" fill="#1C2D6B"/>
<path d="M78.7977 70.364V48.3589L61.2656 54.2029V70.3645V86.5261L78.7977 92.3702V70.3645V70.364Z" fill="#89AADB"/>
<path d="M92.2148 43.8855V70.3642V70.3647V96.8439L109.747 102.688V70.3647V38.0415L92.2148 43.8855Z" fill="#4B67B0"/>
<path d="M92.1979 70.3634V43.8848L78.7773 48.3583V70.3634V92.3696L92.1979 96.8431V70.3634Z" fill="#6287C5"/>
<path d="M109.749 104.303C109.578 104.303 109.405 104.275 109.238 104.22L60.7534 88.058C60.0934 87.8377 59.6484 87.2203 59.6484 86.5248V54.2016C59.6484 53.5056 60.0934 52.8882 60.7534 52.6684L109.238 36.5068C109.731 36.3425 110.272 36.4249 110.694 36.7293C111.116 37.0332 111.366 37.5207 111.366 38.0406V102.687C111.366 103.206 111.116 103.694 110.694 103.998C110.416 104.199 110.084 104.303 109.749 104.303ZM62.8808 85.3601L108.133 100.444V40.2822L62.8808 55.3663V85.3601Z" fill="#1C2D6B"/>
<path d="M119.431 70.3635C119.431 65.008 115.09 60.6665 109.734 60.6665V67.6214H116.69C118.204 67.6219 119.431 68.8497 119.431 70.3635Z" fill="#EDE49D"/>
<path d="M116.69 73.1059H109.734V80.0607C115.09 80.0607 119.431 75.7192 119.431 70.3638C119.431 71.8781 118.204 73.1059 116.69 73.1059Z" fill="#D3BA2A"/>
<path d="M116.69 67.6226H109.734V73.1062H116.69C118.204 73.1062 119.431 71.8784 119.431 70.3641C119.431 68.8503 118.204 67.6226 116.69 67.6226Z" fill="#EEE045"/>
<path d="M109.733 81.6765C108.841 81.6765 108.117 80.953 108.117 80.0604V60.6665C108.117 60.2382 108.287 59.8266 108.591 59.5238C108.893 59.2205 109.305 59.0503 109.733 59.0503C115.972 59.0503 121.046 64.125 121.046 70.3634C121.046 76.6018 115.971 81.6765 109.733 81.6765ZM111.35 62.4448V78.2815C115.034 77.5305 117.814 74.2654 117.814 70.3629C117.814 66.4615 115.033 63.1957 111.35 62.4448Z" fill="#1C2D6B"/>
<path d="M49.4637 102.977L50.6392 86.5259H48.3307L44.2181 102.977C43.0233 107.755 46.6375 112.384 51.5631 112.384C50.1548 112.384 49.1221 107.755 49.4637 102.977Z" fill="#EF7F72"/>
<path d="M58.9119 102.977L54.7993 86.5259H52.4909L53.6663 102.977C54.0079 107.755 52.9746 112.384 51.5664 112.384C56.4925 112.384 60.1067 107.755 58.9119 102.977Z" fill="#E8383B"/>
<path d="M53.6512 102.977L52.4757 86.5259H50.6279L49.4524 102.977C49.1109 107.755 50.1441 112.384 51.5523 112.384C52.9595 112.384 53.9928 107.755 53.6512 102.977Z" fill="#E95947"/>
<path d="M51.5663 114C48.7176 114 46.0778 112.711 44.3248 110.466C42.5718 108.221 41.9626 105.348 42.6532 102.584L46.7658 86.1327C46.9457 85.4135 47.5922 84.9087 48.334 84.9087H54.7986C55.5399 84.9087 56.1869 85.4135 56.3668 86.1327L60.48 102.584C61.1706 105.348 60.5613 108.221 58.8083 110.466C57.0553 112.711 54.4151 114 51.5663 114ZM49.5957 88.141L45.7891 103.368C45.3409 105.159 45.7363 107.022 46.8724 108.477C48.0086 109.933 49.7196 110.767 51.5658 110.767C53.4125 110.767 55.1229 109.933 56.2591 108.477C57.3953 107.022 57.7907 105.159 57.3425 103.368L53.5359 88.141H49.5957Z" fill="#1C2D6B"/>
<path d="M35.4141 60.6665H38.1254V80.0604H35.4141V60.6665Z" fill="#EDE49D"/>
<path d="M39.1562 60.6665H41.8676V80.0604H39.1562V60.6665Z" fill="#D3BA2A"/>
<path d="M38.1016 60.6665H39.1434V80.0604H38.1016V60.6665Z" fill="#EEE045"/>
<path d="M41.866 81.6765H35.4013C34.5087 81.6765 33.7852 80.953 33.7852 80.0604V60.6665C33.7852 59.7738 34.5087 59.0503 35.4013 59.0503H41.866C42.7586 59.0503 43.4821 59.7738 43.4821 60.6665V80.0604C43.4821 80.953 42.7586 81.6765 41.866 81.6765ZM37.0175 78.4442H40.2498V62.2826H37.0175V78.4442Z" fill="#1C2D6B"/>
</svg>
