<svg width="125" height="125" viewBox="0 0 125 125" fill="none" xmlns="http://www.w3.org/2000/svg">
<path d="M11.8672 1.8623H49.0953V113.547H11.8672V1.8623Z" fill="#89AADB"/>
<path d="M69.4091 1.8623V95.4265L60.5742 113.547H83.3764L101.215 95.4265V1.8623H69.4091Z" fill="#4B67B0"/>
<path d="M72.6653 1.8623H42.8828V113.547H66.4606L72.6653 95.4265V1.8623Z" fill="#6287C5"/>
<path d="M82.5948 115.407H11.8614C10.8333 115.407 10 114.574 10 113.546V1.8614C10 0.833289 10.8333 0 11.8614 0H101.209C102.237 0 103.07 0.833289 103.07 1.8614V95.4249C103.07 95.9275 102.867 96.4084 102.507 96.7583L83.8934 114.879C83.546 115.218 83.08 115.407 82.5948 115.407ZM13.7228 111.684H81.8385L99.3474 94.6394V3.72281H13.7228V111.684Z" fill="#1C2D6B"/>
<path d="M82.588 115.408C82.3435 115.408 82.0978 115.36 81.8645 115.261C81.1745 114.97 80.7266 114.294 80.7266 113.546V95.4254C80.7266 94.3973 81.5599 93.564 82.588 93.564H101.202C101.96 93.564 102.642 94.0231 102.926 94.7249C103.211 95.4266 103.043 96.2314 102.5 96.7594L83.886 114.88C83.5317 115.225 83.0639 115.408 82.588 115.408V115.408ZM84.4494 97.2868V109.136L96.6217 97.2868H84.4494Z" fill="#1C2D6B"/>
<rect x="23.6602" y="13.96" width="66.0799" height="3.72281" rx="1.8614" fill="#1C2D6B"/>
<rect x="23.6602" y="21.7183" width="66.0799" height="3.72282" rx="1.86141" fill="#1C2D6B"/>
<rect x="23.6602" y="75.3872" width="66.0799" height="3.72282" rx="1.86141" fill="#1C2D6B"/>
<rect x="23.6602" y="83.144" width="66.0799" height="3.72281" rx="1.86141" fill="#1C2D6B"/>
<path d="M55.8294 41.2528L55.8393 41.2444L55.8491 41.2358C56.5824 40.5908 58.0752 40.0865 60.7349 40.0865C63.0473 40.0865 65.3889 40.2769 67.7603 40.6591C69.22 40.8944 70.611 39.8217 70.681 38.2965L70.7994 35.7202C70.8553 34.5026 70.0216 33.4089 68.8099 33.162C65.1943 32.4255 62.0588 32.0449 59.4232 32.0449C55.1157 32.0449 51.6326 33.0069 49.3099 35.2437C47.2656 37.1811 46.0266 40.0767 45.4242 43.7035H44.4727C43.0919 43.7035 41.9727 44.8228 41.9727 46.2035V48.6149C41.9727 49.9956 43.0919 51.1149 44.4727 51.1149H44.9109V51.453C44.9109 51.7428 44.9122 52.0131 44.9149 52.2637H44.4727C43.0919 52.2637 41.9727 53.383 41.9727 54.7637V57.175C41.9727 58.5557 43.0919 59.675 44.4727 59.675H45.5005C46.1402 63.1021 47.4017 65.8622 49.42 67.7722L49.4253 67.7772L49.4306 67.7821C51.7498 69.9346 55.1866 70.861 59.4232 70.861C62.4059 70.861 65.5254 70.521 68.7788 69.8488C69.9791 69.6008 70.799 68.5224 70.7582 67.3247L70.6671 64.65C70.6162 63.1547 69.2811 62.0577 67.8243 62.2522C64.9735 62.633 62.4905 62.8194 60.3676 62.8194C58.0207 62.8194 56.6143 62.3807 55.8505 61.7846C55.3449 61.3666 54.8798 60.6986 54.5206 59.675H65.1392C66.5199 59.675 67.6392 58.5557 67.6392 57.175V54.7637C67.6392 53.383 66.5199 52.2637 65.1392 52.2637H53.735V51.1149H65.1392C66.5199 51.1149 67.6392 49.9956 67.6392 48.6149V46.2035C67.6392 44.8228 66.5199 43.7035 65.1392 43.7035H54.4478C54.8074 42.4693 55.3004 41.702 55.8294 41.2528Z" fill="white" stroke="#1C2D6B" stroke-width="3"/>
<rect x="67.9141" y="89.9956" width="33.5044" height="33.5044" rx="1.5" fill="#EEE045" stroke="#1C2D6B" stroke-width="3" stroke-linejoin="round"/>
<path fill-rule="evenodd" clip-rule="evenodd" d="M112.873 85.73C113.547 86.3503 113.591 87.4 112.971 88.0746L88.4923 114.697C86.5611 116.797 83.2632 116.848 81.2686 114.808L73.0233 106.374C72.3826 105.719 72.3945 104.668 73.0497 104.028V104.028C73.705 103.387 74.7555 103.399 75.3962 104.054L83.6415 112.488C84.3064 113.168 85.4057 113.151 86.0494 112.451L110.528 85.8284C111.148 85.1538 112.198 85.1098 112.873 85.73V85.73Z" fill="#1C2D6B"/>
</svg>
