<svg width="125" height="125" viewBox="0 0 125 125" fill="none" xmlns="http://www.w3.org/2000/svg">
<path d="M3.64062 6.64258H121.926V46.071H3.64062V6.64258Z" fill="#E95947"/>
<path d="M121.928 47.7141H3.64285C2.73545 47.7141 2 46.9786 2 46.0712V6.64285C2 5.73545 2.73545 5 3.64285 5H121.928C122.835 5 123.571 5.73545 123.571 6.64285V46.0712C123.571 46.9786 122.835 47.7141 121.928 47.7141ZM5.2857 44.4284H120.285V8.2857H5.2857V44.4284Z" fill="#1C2D6B"/>
<path d="M3.64062 72.3564H43.1079V111.785H3.64062V72.3564Z" fill="#EDE49D"/>
<path d="M82.4609 72.3564H121.928V111.785H82.4609V72.3564Z" fill="#D3BA2A"/>
<path d="M43.1133 72.3564H82.4644V111.785H43.1133V72.3564Z" fill="#EEE045"/>
<path d="M121.928 113.428H3.64285C2.73545 113.428 2 112.692 2 111.785V72.3567C2 71.4493 2.73545 70.7139 3.64285 70.7139H121.928C122.835 70.7139 123.571 71.4493 123.571 72.3567V111.785C123.571 112.692 122.835 113.428 121.928 113.428ZM5.2857 110.142H120.285V73.9996H5.2857V110.142Z" fill="#1C2D6B"/>
<path d="M23.0573 56.975C22.2857 54.6734 21.7934 51.1752 21.7934 47.2559C21.7934 40.3242 23.3333 34.7051 25.2324 34.7051C18.3007 34.7051 12.6816 40.3242 12.6816 47.2559C12.6816 51.1757 14.48 54.6734 17.2953 56.975C13.02 59.632 10.1719 64.3689 10.1719 69.7733V72.357H21.1061V69.7733C21.1056 64.3689 21.8859 59.632 23.0573 56.975V56.975Z" fill="#89AADB"/>
<path d="M33.1715 56.975C35.9863 54.6734 37.7852 51.1752 37.7852 47.2559C37.7852 40.3242 32.1661 34.7051 25.2344 34.7051C27.1335 34.7051 28.6734 40.3242 28.6734 47.2559C28.6734 51.1757 28.1806 54.6734 27.4095 56.975C28.5809 59.632 29.3612 64.3695 29.3612 69.7733V72.357H40.2955V69.7733C40.2949 64.3695 37.4468 59.632 33.1715 56.975V56.975Z" fill="#4B67B0"/>
<path d="M27.4074 56.975C28.179 54.6734 28.6713 51.1752 28.6713 47.2559C28.6713 40.3242 27.1314 34.7051 25.2323 34.7051C23.3332 34.7051 21.7933 40.3242 21.7933 47.2559C21.7933 51.1757 22.2861 54.6734 23.0572 56.975C21.8858 59.632 21.1055 64.3689 21.1055 69.7733V72.357H29.3597V69.7733C29.3597 64.3695 28.5793 59.632 27.4074 56.975V56.975Z" fill="#6287C5"/>
<path d="M40.2924 73.9996H10.1702C9.26279 73.9996 8.52734 73.2642 8.52734 72.3568V69.7731C8.52734 64.6633 10.8087 59.9456 14.7198 56.7913C12.359 54.1956 11.0376 50.819 11.0376 47.2551C11.0376 39.4291 17.4048 33.062 25.2313 33.062C33.0578 33.062 39.425 39.4291 39.425 47.2551C39.425 50.819 38.1036 54.1956 35.7428 56.7913C39.6539 59.9456 41.9352 64.6633 41.9352 69.7731V72.3568C41.9352 73.2642 41.1998 73.9996 40.2924 73.9996V73.9996ZM11.813 70.7139H38.6495V69.7731C38.6495 65.103 36.2762 60.8404 32.3016 58.3701C31.8509 58.0903 31.5634 57.61 31.5289 57.081C31.4949 56.5515 31.7184 56.0383 32.1285 55.7027C34.6777 53.6184 36.1393 50.5392 36.1393 47.2546C36.1393 41.2407 31.2458 36.3472 25.2313 36.3472C19.2168 36.3472 14.3233 41.2407 14.3233 47.2546C14.3233 50.5392 15.7849 53.6184 18.3341 55.7027C18.7442 56.0378 18.9677 56.5515 18.9337 57.081C18.8992 57.61 18.6117 58.0903 18.161 58.3701C14.1864 60.8404 11.813 65.103 11.813 69.7731V70.7139Z" fill="#1C2D6B"/>
<path d="M60.5885 56.975C59.8169 54.6734 59.3246 51.1752 59.3246 47.2559C59.3246 40.3242 60.8645 34.7051 62.7637 34.7051C55.8319 34.7051 50.2129 40.3242 50.2129 47.2559C50.2129 51.1757 52.0112 54.6734 54.8265 56.975C50.5513 59.632 47.7031 64.3689 47.7031 69.7733V72.357H58.6374V69.7733C58.6368 64.3689 59.4172 59.632 60.5885 56.975V56.975Z" fill="#89AADB"/>
<path d="M70.6989 56.975C73.5136 54.6734 75.3125 51.1752 75.3125 47.2559C75.3125 40.3242 69.6934 34.7051 62.7617 34.7051C64.6609 34.7051 66.2007 40.3242 66.2007 47.2559C66.2007 51.1757 65.7079 54.6734 64.9369 56.975C66.1082 59.632 66.8886 64.3695 66.8886 69.7733V72.357H77.8228V69.7733C77.8223 64.3695 74.9741 59.632 70.6989 56.975V56.975Z" fill="#4B67B0"/>
<path d="M64.9387 56.975C65.7103 54.6734 66.2026 51.1752 66.2026 47.2559C66.2026 40.3242 64.6627 34.7051 62.7635 34.7051C60.8644 34.7051 59.3245 40.3242 59.3245 47.2559C59.3245 51.1757 59.8174 54.6734 60.5884 56.975C59.4171 59.632 58.6367 64.3689 58.6367 69.7733V72.357H66.8904V69.7733C66.8909 64.3695 66.11 59.632 64.9387 56.975V56.975Z" fill="#6287C5"/>
<path d="M77.827 73.9996H47.7053C46.7979 73.9996 46.0625 73.2642 46.0625 72.3568V69.7731C46.0625 64.6633 48.3439 59.9456 52.2549 56.7913C49.8942 54.1956 48.5728 50.819 48.5728 47.2551C48.5728 39.4291 54.9399 33.062 62.7664 33.062C70.5924 33.062 76.9595 39.4291 76.9595 47.2551C76.9595 50.8185 75.6382 54.1956 73.2779 56.7913C77.1885 59.9456 79.4698 64.6633 79.4698 69.7731V72.3568C79.4698 73.2642 78.7344 73.9996 77.827 73.9996V73.9996ZM49.3482 70.7139H76.1841V69.7731C76.1841 65.103 73.8113 60.8404 69.8362 58.3701C69.386 58.0903 69.0985 57.61 69.064 57.081C69.0301 56.5515 69.2535 56.0389 69.6637 55.7027C72.2123 53.6184 73.6739 50.5392 73.6739 47.2546C73.6739 41.2407 68.7804 36.3472 62.7664 36.3472C56.752 36.3472 51.8585 41.2407 51.8585 47.2546C51.8585 50.5392 53.3201 53.6184 55.8692 55.7027C56.2794 56.0378 56.5028 56.5515 56.4688 57.081C56.4343 57.61 56.1469 58.0903 55.6962 58.3701C51.7216 60.8404 49.3482 65.103 49.3482 69.7731V70.7139Z" fill="#1C2D6B"/>
<path d="M98.1242 56.975C97.3527 54.6734 96.8598 51.1752 96.8598 47.2559C96.8598 40.3242 98.3997 34.7051 100.299 34.7051C93.3671 34.7051 87.748 40.3242 87.748 47.2559C87.748 51.1757 89.5464 54.6734 92.3617 56.975C88.0864 59.632 85.2383 64.3689 85.2383 69.7733V72.357H96.1725V69.7733C96.1725 64.3689 96.9529 59.632 98.1242 56.975V56.975Z" fill="#89AADB"/>
<path d="M108.234 56.975C111.049 54.6734 112.848 51.1752 112.848 47.2559C112.848 40.3242 107.229 34.7051 100.297 34.7051C102.196 34.7051 103.736 40.3242 103.736 47.2559C103.736 51.1757 103.243 54.6734 102.472 56.975C103.643 59.632 104.424 64.3695 104.424 69.7733V72.357H115.357V69.7733C115.357 64.3695 112.509 59.632 108.234 56.975V56.975Z" fill="#4B67B0"/>
<path d="M102.469 56.975C103.241 54.6734 103.733 51.1752 103.733 47.2559C103.733 40.3242 102.193 34.7051 100.294 34.7051C98.3951 34.7051 96.8552 40.3242 96.8552 47.2559C96.8552 51.1757 97.3481 54.6734 98.1197 56.975C96.9483 59.632 96.168 64.3689 96.168 69.7733V72.357H104.422V69.7733C104.421 64.3695 103.641 59.632 102.469 56.975V56.975Z" fill="#6287C5"/>
<path d="M115.362 73.9996H85.2405C84.3331 73.9996 83.5977 73.2642 83.5977 72.3568V69.7731C83.5977 64.6633 85.879 59.9456 89.7896 56.7913C87.4293 54.1956 86.1079 50.8185 86.1079 47.2551C86.1079 39.4291 92.4751 33.062 100.301 33.062C108.128 33.062 114.495 39.4291 114.495 47.2551C114.495 50.819 113.173 54.1956 110.813 56.7913C114.724 59.9456 117.005 64.6633 117.005 69.7731V72.3568C117.005 73.2642 116.27 73.9996 115.362 73.9996ZM86.8834 70.7139H113.719V69.7731C113.719 65.103 111.346 60.8404 107.371 58.3701C106.921 58.0903 106.633 57.61 106.599 57.081C106.565 56.5515 106.788 56.0383 107.198 55.7027C109.747 53.6184 111.209 50.5392 111.209 47.2546C111.209 41.2407 106.316 36.3472 100.301 36.3472C94.2871 36.3472 89.3936 41.2407 89.3936 47.2546C89.3936 50.5392 90.8552 53.6184 93.4038 55.7027C93.814 56.0383 94.0374 56.5515 94.0035 57.081C93.969 57.61 93.6815 58.0903 93.2313 58.3701C89.2562 60.8404 86.8834 65.103 86.8834 69.7731V70.7139Z" fill="#1C2D6B"/>
<path d="M23.0573 96.4032C22.2857 94.1016 21.7934 90.6034 21.7934 86.6841C21.7934 79.7524 23.3333 74.1333 25.2324 74.1333C18.3007 74.1333 12.6816 79.7524 12.6816 86.6841C12.6816 90.604 14.48 94.1016 17.2953 96.4032C13.02 99.0603 10.1719 103.797 10.1719 109.202V111.785H21.1061V109.202C21.1056 103.797 21.8859 99.0603 23.0573 96.4032Z" fill="#A4D4A0"/>
<path d="M33.1715 96.4032C35.9863 94.1016 37.7852 90.6034 37.7852 86.6841C37.7852 79.7524 32.1661 74.1333 25.2344 74.1333C27.1335 74.1333 28.6734 79.7524 28.6734 86.6841C28.6734 90.604 28.1806 94.1016 27.4095 96.4032C28.5809 99.0603 29.3612 103.798 29.3612 109.202V111.785H40.2955V109.202C40.2949 103.798 37.4468 99.0603 33.1715 96.4032Z" fill="#419B46"/>
<path d="M27.4074 96.4032C28.179 94.1016 28.6713 90.6034 28.6713 86.6841C28.6713 79.7524 27.1314 74.1333 25.2323 74.1333C23.3332 74.1333 21.7933 79.7524 21.7933 86.6841C21.7933 90.604 22.2861 94.1016 23.0572 96.4032C21.8858 99.0603 21.1055 103.797 21.1055 109.202V111.785H29.3597V109.202C29.3597 103.798 28.5793 99.0603 27.4074 96.4032V96.4032Z" fill="#65BC49"/>
<path d="M40.2924 113.428H10.1702C9.26279 113.428 8.52734 112.692 8.52734 111.785V109.201C8.52734 104.092 10.8087 99.3738 14.7198 96.2196C12.359 93.6239 11.0376 90.2472 11.0376 86.6834C11.0376 78.8574 17.4048 72.4902 25.2313 72.4902C33.0578 72.4902 39.425 78.8574 39.425 86.6834C39.425 90.2472 38.1036 93.6239 35.7428 96.2196C39.6539 99.3738 41.9352 104.092 41.9352 109.201V111.785C41.9352 112.692 41.1998 113.428 40.2924 113.428V113.428ZM11.813 110.142H38.6495V109.201C38.6495 104.531 36.2762 100.269 32.3016 97.7983C31.8509 97.5185 31.5634 97.0382 31.5289 96.5092C31.4949 95.9797 31.7184 95.4666 32.1285 95.1309C34.6777 93.0467 36.1393 89.9674 36.1393 86.6828C36.1393 80.6689 31.2458 75.7754 25.2313 75.7754C19.2168 75.7754 14.3233 80.6689 14.3233 86.6828C14.3233 89.9674 15.7849 93.0467 18.3341 95.1309C18.7442 95.466 18.9677 95.9797 18.9337 96.5092C18.8992 97.0382 18.6117 97.5185 18.161 97.7983C14.1864 100.269 11.813 104.531 11.813 109.201V110.142Z" fill="#1C2D6B"/>
<path d="M60.5885 96.4032C59.8169 94.1016 59.3246 90.6034 59.3246 86.6841C59.3246 79.7524 60.8645 74.1333 62.7637 74.1333C55.8319 74.1333 50.2129 79.7524 50.2129 86.6841C50.2129 90.604 52.0112 94.1016 54.8265 96.4032C50.5513 99.0603 47.7031 103.797 47.7031 109.202V111.785H58.6374V109.202C58.6368 103.797 59.4172 99.0603 60.5885 96.4032V96.4032Z" fill="#A4D4A0"/>
<path d="M70.6989 96.4032C73.5136 94.1016 75.3125 90.6034 75.3125 86.6841C75.3125 79.7524 69.6934 74.1333 62.7617 74.1333C64.6609 74.1333 66.2007 79.7524 66.2007 86.6841C66.2007 90.604 65.7079 94.1016 64.9369 96.4032C66.1082 99.0603 66.8886 103.798 66.8886 109.202V111.785H77.8228V109.202C77.8223 103.798 74.9741 99.0603 70.6989 96.4032V96.4032Z" fill="#419B46"/>
<path d="M64.9387 96.4032C65.7103 94.1016 66.2026 90.6034 66.2026 86.6841C66.2026 79.7524 64.6627 74.1333 62.7635 74.1333C60.8644 74.1333 59.3245 79.7524 59.3245 86.6841C59.3245 90.604 59.8174 94.1016 60.5884 96.4032C59.4171 99.0603 58.6367 103.797 58.6367 109.202V111.785H66.8904V109.202C66.8909 103.798 66.11 99.0603 64.9387 96.4032Z" fill="#65BC49"/>
<path d="M77.827 113.428H47.7053C46.7979 113.428 46.0625 112.692 46.0625 111.785V109.201C46.0625 104.092 48.3439 99.3738 52.2549 96.2196C49.8942 93.6239 48.5728 90.2472 48.5728 86.6834C48.5728 78.8574 54.9399 72.4902 62.7664 72.4902C70.5924 72.4902 76.9595 78.8574 76.9595 86.6834C76.9595 90.2467 75.6382 93.6239 73.2779 96.2196C77.1885 99.3738 79.4698 104.092 79.4698 109.201V111.785C79.4698 112.692 78.7344 113.428 77.827 113.428V113.428ZM49.3482 110.142H76.1841V109.201C76.1841 104.531 73.8113 100.269 69.8362 97.7983C69.386 97.5185 69.0985 97.0382 69.064 96.5092C69.0301 95.9797 69.2535 95.4671 69.6637 95.1309C72.2123 93.0467 73.6739 89.9674 73.6739 86.6828C73.6739 80.6689 68.7804 75.7754 62.7664 75.7754C56.752 75.7754 51.8585 80.6689 51.8585 86.6828C51.8585 89.9674 53.3201 93.0467 55.8692 95.1309C56.2794 95.466 56.5028 95.9797 56.4688 96.5092C56.4343 97.0382 56.1469 97.5185 55.6962 97.7983C51.7216 100.269 49.3482 104.531 49.3482 109.201V110.142Z" fill="#1C2D6B"/>
<path d="M98.1242 96.4032C97.3527 94.1016 96.8598 90.6034 96.8598 86.6841C96.8598 79.7524 98.3997 74.1333 100.299 74.1333C93.3671 74.1333 87.748 79.7524 87.748 86.6841C87.748 90.604 89.5464 94.1016 92.3617 96.4032C88.0864 99.0603 85.2383 103.797 85.2383 109.202V111.785H96.1725V109.202C96.1725 103.797 96.9529 99.0603 98.1242 96.4032V96.4032Z" fill="#A4D4A0"/>
<path d="M108.234 96.4032C111.049 94.1016 112.848 90.6034 112.848 86.6841C112.848 79.7524 107.229 74.1333 100.297 74.1333C102.196 74.1333 103.736 79.7524 103.736 86.6841C103.736 90.604 103.243 94.1016 102.472 96.4032C103.643 99.0603 104.424 103.798 104.424 109.202V111.785H115.357V109.202C115.357 103.798 112.509 99.0603 108.234 96.4032Z" fill="#419B46"/>
<path d="M102.469 96.4032C103.241 94.1016 103.733 90.6034 103.733 86.6841C103.733 79.7524 102.193 74.1333 100.294 74.1333C98.3951 74.1333 96.8552 79.7524 96.8552 86.6841C96.8552 90.604 97.3481 94.1016 98.1197 96.4032C96.9483 99.0603 96.168 103.797 96.168 109.202V111.785H104.422V109.202C104.421 103.798 103.641 99.0603 102.469 96.4032Z" fill="#65BC49"/>
<path d="M115.362 113.428H85.2405C84.3331 113.428 83.5977 112.692 83.5977 111.785V109.201C83.5977 104.092 85.879 99.3738 89.7896 96.2196C87.4293 93.6239 86.1079 90.2467 86.1079 86.6834C86.1079 78.8574 92.4751 72.4902 100.301 72.4902C108.128 72.4902 114.495 78.8574 114.495 86.6834C114.495 90.2472 113.173 93.6239 110.813 96.2196C114.724 99.3738 117.005 104.092 117.005 109.201V111.785C117.005 112.692 116.27 113.428 115.362 113.428ZM86.8834 110.142H113.719V109.201C113.719 104.531 111.346 100.269 107.371 97.7983C106.921 97.5185 106.633 97.0382 106.599 96.5092C106.565 95.9797 106.788 95.4666 107.198 95.1309C109.747 93.0467 111.209 89.9674 111.209 86.6828C111.209 80.6689 106.316 75.7754 100.301 75.7754C94.2871 75.7754 89.3936 80.6689 89.3936 86.6828C89.3936 89.9674 90.8552 93.0467 93.4038 95.1309C93.814 95.4666 94.0374 95.9797 94.0035 96.5092C93.969 97.0382 93.6815 97.5185 93.2313 97.7983C89.2562 100.269 86.8834 104.531 86.8834 109.201V110.142Z" fill="#1C2D6B"/>
<path d="M24.672 102.313H19.5042C17.2606 102.313 15.4414 104.149 15.4414 106.413V118.357H22.5434V104.461C22.5429 103.275 23.4963 102.313 24.672 102.313V102.313Z" fill="#EF7F72"/>
<path d="M30.9608 102.313H25.793C26.9687 102.313 27.9221 103.275 27.9221 104.461V118.357H35.0241V106.413C35.0236 104.149 33.2044 102.313 30.9608 102.313Z" fill="#E8383B"/>
<path d="M25.7903 102.313H24.6721C23.4964 102.313 22.543 103.275 22.543 104.461V118.357H27.9189V104.461C27.9189 103.275 26.9661 102.313 25.7903 102.313V102.313Z" fill="#E95947"/>
<path d="M35.0192 119.999H15.4397C14.5323 119.999 13.7969 119.264 13.7969 118.356V106.394C13.7969 103.237 16.3646 100.669 19.5211 100.669H30.9378C34.0943 100.669 36.6621 103.237 36.6621 106.394V118.356C36.6621 119.264 35.9266 119.999 35.0192 119.999ZM17.0826 116.713H33.3764V106.394C33.3764 105.049 32.2822 103.955 30.9378 103.955H19.5211C18.1767 103.955 17.0826 105.049 17.0826 106.394V116.713Z" fill="#1C2D6B"/>
<path d="M62.2267 102.313H57.0589C54.8153 102.313 52.9961 104.149 52.9961 106.413V118.357H60.0981V104.461C60.0976 103.275 61.051 102.313 62.2267 102.313Z" fill="#EF7F72"/>
<path d="M68.5077 102.313H63.3398C64.5156 102.313 65.469 103.275 65.469 104.461V118.357H72.571V106.413C72.5705 104.149 70.7518 102.313 68.5077 102.313Z" fill="#E8383B"/>
<path d="M63.345 102.313H62.2268C61.0511 102.313 60.0977 103.275 60.0977 104.461V118.357H65.4736V104.461C65.4742 103.275 64.5207 102.313 63.345 102.313Z" fill="#E95947"/>
<path d="M72.5739 119.999H52.9944C52.087 119.999 51.3516 119.264 51.3516 118.356V106.394C51.3516 103.237 53.9193 100.669 57.0758 100.669H68.4925C71.649 100.669 74.2167 103.237 74.2167 106.394V118.356C74.2167 119.264 73.4813 119.999 72.5739 119.999V119.999ZM54.6373 116.713H70.931V106.394C70.931 105.049 69.8369 103.955 68.4925 103.955H57.0758C55.7314 103.955 54.6373 105.049 54.6373 106.394V116.713Z" fill="#1C2D6B"/>
<path d="M99.7775 102.313H94.6096C92.3661 102.313 90.5469 104.149 90.5469 106.413V118.357H97.6489V104.461C97.6489 103.275 98.6018 102.313 99.7775 102.313V102.313Z" fill="#EF7F72"/>
<path d="M106.062 102.313H100.895C102.07 102.313 103.024 103.275 103.024 104.461V118.357H110.126V106.413C110.126 104.149 108.307 102.313 106.062 102.313Z" fill="#E8383B"/>
<path d="M100.896 102.313H99.7776C98.6018 102.313 97.6484 103.275 97.6484 104.461V118.357H103.024V104.461C103.025 103.275 102.072 102.313 100.896 102.313Z" fill="#E95947"/>
<path d="M110.132 120H90.553C89.6456 120 88.9102 119.265 88.9102 118.357V106.395C88.9102 103.238 91.4779 100.67 94.6344 100.67H106.051C109.208 100.67 111.775 103.238 111.775 106.395V118.357C111.775 119.265 111.04 120 110.132 120ZM92.1959 116.714H108.49V106.395C108.49 105.05 107.395 103.956 106.051 103.956H94.6344C93.29 103.956 92.1959 105.05 92.1959 106.395V116.714Z" fill="#1C2D6B"/>
<path d="M49.6438 18.1431H20.0725C19.1651 18.1431 18.4297 17.4077 18.4297 16.5003C18.4297 15.5929 19.1651 14.8574 20.0725 14.8574H49.6438C50.5512 14.8574 51.2867 15.5929 51.2867 16.5003C51.2867 17.4077 50.5512 18.1431 49.6438 18.1431Z" fill="#1C2D6B"/>
<path d="M49.6418 24.7139H10.1702C9.26279 24.7139 8.52734 23.9785 8.52734 23.0711C8.52734 22.1637 9.26279 21.4282 10.1702 21.4282H49.6418C50.5492 21.4282 51.2847 22.1637 51.2847 23.0711C51.2847 23.9785 50.5492 24.7139 49.6418 24.7139Z" fill="#1C2D6B"/>
<path d="M39.7847 31.2857H10.1702C9.26279 31.2857 8.52734 30.5502 8.52734 29.6428C8.52734 28.7354 9.26279 28 10.1702 28H39.7847C40.6921 28 41.4276 28.7354 41.4276 29.6428C41.4276 30.5502 40.6921 31.2857 39.7847 31.2857Z" fill="#1C2D6B"/>
<path d="M82.4997 35.7977C82.0424 35.7977 81.6027 35.6066 81.29 35.266L69.1554 22.0547L63.7668 26.2062C63.0484 26.761 62.0177 26.6273 61.463 25.9078C60.9088 25.1893 61.0424 24.1576 61.7615 23.6039L68.3438 18.5325C69.019 18.0128 69.9801 18.0944 70.5562 18.7225L82.1892 31.3878L92.026 14.1729C92.2609 13.7616 92.6618 13.4719 93.1256 13.3778C93.5917 13.2841 94.0725 13.3947 94.4487 13.6817L108.336 24.2704L115.589 19.792C116.362 19.3161 117.374 19.5543 117.85 20.327C118.326 21.0997 118.087 22.1117 117.315 22.5881L109.101 27.6596C108.522 28.0161 107.783 27.9805 107.241 27.5681L93.9476 17.4323L83.9257 34.9697C83.6656 35.4248 83.2039 35.7287 82.6826 35.7873C82.6218 35.7944 82.5605 35.7977 82.4997 35.7977Z" fill="#1C2D6B"/>
<path d="M69.3436 22.5719C70.8558 22.5719 72.0816 21.346 72.0816 19.8338C72.0816 18.3216 70.8558 17.0957 69.3436 17.0957C67.8313 17.0957 66.6055 18.3216 66.6055 19.8338C66.6055 21.346 67.8313 22.5719 69.3436 22.5719Z" fill="#EEE045"/>
<path d="M69.3419 24.2145C66.9263 24.2145 64.9609 22.2491 64.9609 19.8336C64.9609 17.418 66.9263 15.4526 69.3419 15.4526C71.7574 15.4526 73.7228 17.418 73.7228 19.8336C73.7228 22.2491 71.758 24.2145 69.3419 24.2145ZM69.3419 18.7383C68.7378 18.7383 68.2466 19.2295 68.2466 19.8336C68.2466 20.4376 68.7378 20.9288 69.3419 20.9288C69.9459 20.9288 70.4371 20.4376 70.4371 19.8336C70.4371 19.2295 69.9459 18.7383 69.3419 18.7383Z" fill="#1C2D6B"/>
<path d="M82.4998 36.8922C84.012 36.8922 85.2379 35.6663 85.2379 34.1541C85.2379 32.6419 84.012 31.416 82.4998 31.416C80.9876 31.416 79.7617 32.6419 79.7617 34.1541C79.7617 35.6663 80.9876 36.8922 82.4998 36.8922Z" fill="#EEE045"/>
<path d="M82.4981 38.5353C80.0826 38.5353 78.1172 36.5699 78.1172 34.1544C78.1172 31.7388 80.0826 29.7734 82.4981 29.7734C84.9137 29.7734 86.879 31.7388 86.879 34.1544C86.879 36.5699 84.9137 38.5353 82.4981 38.5353ZM82.4981 33.0591C81.8941 33.0591 81.4029 33.5503 81.4029 34.1544C81.4029 34.7584 81.8941 35.2496 82.4981 35.2496C83.1021 35.2496 83.5934 34.7584 83.5934 34.1544C83.5934 33.5503 83.1021 33.0591 82.4981 33.0591Z" fill="#1C2D6B"/>
<path d="M93.4529 17.7262C94.9651 17.7262 96.191 16.5003 96.191 14.9881C96.191 13.4759 94.9651 12.25 93.4529 12.25C91.9407 12.25 90.7148 13.4759 90.7148 14.9881C90.7148 16.5003 91.9407 17.7262 93.4529 17.7262Z" fill="#EEE045"/>
<path d="M93.4551 19.3688C91.0396 19.3688 89.0742 17.4034 89.0742 14.9879C89.0742 12.5723 91.0396 10.6069 93.4551 10.6069C95.8707 10.6069 97.8361 12.5723 97.8361 14.9879C97.8361 17.4034 95.8707 19.3688 93.4551 19.3688ZM93.4551 13.8926C92.8511 13.8926 92.3599 14.3838 92.3599 14.9879C92.3599 15.5919 92.8511 16.0831 93.4551 16.0831C94.0592 16.0831 94.5504 15.5919 94.5504 14.9879C94.5504 14.3838 94.0592 13.8926 93.4551 13.8926Z" fill="#1C2D6B"/>
<path d="M108.238 28.9991C109.75 28.9991 110.976 27.7732 110.976 26.261C110.976 24.7488 109.75 23.5229 108.238 23.5229C106.726 23.5229 105.5 24.7488 105.5 26.261C105.5 27.7732 106.726 28.9991 108.238 28.9991Z" fill="#EEE045"/>
<path d="M108.24 30.6422C105.825 30.6422 103.859 28.6768 103.859 26.2613C103.859 23.8458 105.825 21.8804 108.24 21.8804C110.656 21.8804 112.621 23.8458 112.621 26.2613C112.621 28.6768 110.656 30.6422 108.24 30.6422ZM108.24 25.1661C107.636 25.1661 107.145 25.6573 107.145 26.2613C107.145 26.8653 107.636 27.3565 108.24 27.3565C108.844 27.3565 109.336 26.8653 109.336 26.2613C109.336 25.6573 108.844 25.1661 108.24 25.1661Z" fill="#1C2D6B"/>
</svg>
