<svg width="551" height="532" viewBox="0 0 551 532" fill="none" xmlns="http://www.w3.org/2000/svg">
<path d="M78.6951 228.514C79.7765 228.514 81.2182 228.154 82.66 228.154C81.5787 214.846 88.4272 206.573 102.845 206.573C113.298 206.573 126.274 210.889 139.611 218.443C135.646 192.905 147.901 176 175.295 176C197.283 176 225.397 186.791 253.152 204.415C255.675 194.344 263.605 188.229 277.302 188.229C301.452 188.229 335.695 206.933 363.089 233.19C368.856 227.435 377.867 223.838 389.762 223.119C412.831 222.04 441.306 232.83 466.537 250.095C468.34 247.217 471.944 245.419 476.99 245.059C489.606 244.34 506.907 254.051 517 267H487.804H467.979H391.564H355.88H324.16H279.104H193.678H160.517H148.622H101.403H58.8705C47.6966 247.937 56.3474 230.672 78.6951 228.514Z" fill="#F3F8FF"/>
<mask id="mask0" mask-type="alpha" maskUnits="userSpaceOnUse" x="0" y="0" width="551" height="532">
<rect width="551" height="532" fill="#C4C4C4"/>
</mask>
<g mask="url(#mask0)">
<path d="M350.25 246.333H337.875V221.667C337.875 187.627 310.155 160 276 160C241.845 160 214.125 187.627 214.125 221.667V246.333H201.75C188.137 246.333 177 257.433 177 271V394.333C177 407.9 188.137 419 201.75 419H350.25C363.863 419 375 407.9 375 394.333V271C375 257.433 363.863 246.333 350.25 246.333ZM276 357.333C262.387 357.333 251.25 346.233 251.25 332.667C251.25 319.1 262.387 308 276 308C289.613 308 300.75 319.1 300.75 332.667C300.75 346.233 289.613 357.333 276 357.333ZM314.363 246.333H237.637V221.667C237.637 200.577 254.839 183.433 276 183.433C297.161 183.433 314.363 200.577 314.363 221.667V246.333Z" fill="#57A9F2"/>
<path d="M226.872 123V119.16H213.864V111.384L218.184 91.368H230.76L224.568 110.136H226.92L227.88 104.712L237.768 104.376V110.136H238.968V119.16H237.768V123H226.872ZM260.285 107.208C260.285 101.384 261.229 97.192 263.117 94.632C265.005 92.04 268.269 90.744 272.909 90.744C277.549 90.744 280.781 92.024 282.605 94.584C284.429 97.112 285.341 101.304 285.341 107.16C285.341 112.984 284.413 117.192 282.557 119.784C280.733 122.344 277.485 123.624 272.813 123.624C268.141 123.624 264.877 122.344 263.021 119.784C261.197 117.192 260.285 113 260.285 107.208ZM273.629 100.008C273.437 99.848 273.165 99.768 272.813 99.768C272.461 99.768 272.189 99.848 271.997 100.008C271.805 100.168 271.645 100.52 271.517 101.064C271.293 102.024 271.181 104.072 271.181 107.208C271.181 110.312 271.277 112.328 271.469 113.256C271.693 114.152 272.141 114.6 272.813 114.6C273.485 114.6 273.917 114.152 274.109 113.256C274.333 112.328 274.445 110.664 274.445 108.264C274.445 105.864 274.413 104.2 274.349 103.272C274.317 102.344 274.237 101.608 274.109 101.064C273.981 100.52 273.821 100.168 273.629 100.008ZM317.121 90.744C321.825 90.744 325.233 91.416 327.345 92.76C329.489 94.104 330.561 96.472 330.561 99.864C330.561 101.624 330.337 102.968 329.889 103.896C329.473 104.824 328.721 105.672 327.633 106.44C328.849 107.368 329.713 108.296 330.225 109.224C330.737 110.12 330.993 111.4 330.993 113.064C330.993 117.064 329.953 119.832 327.873 121.368C325.793 122.872 322.577 123.624 318.225 123.624C315.569 123.624 312.689 123.32 309.585 122.712L308.001 122.376L308.289 113.976C311.969 114.296 314.593 114.456 316.161 114.456C317.729 114.456 318.769 114.376 319.281 114.216C319.793 114.024 320.049 113.64 320.049 113.064C320.049 112.456 319.873 112.04 319.521 111.816C319.169 111.592 318.497 111.432 317.505 111.336H310.737V102.84H317.073C318.801 102.84 319.665 102.36 319.665 101.4C319.665 100.408 318.561 99.912 316.353 99.912C314.849 99.912 312.641 100.024 309.729 100.248L308.481 100.344L308.241 92.136C311.921 91.208 314.881 90.744 317.121 90.744Z" fill="#0075BF"/>
<path d="M193.551 360H150.449L120 390.449V433.551L150.449 464H193.551L224 433.551V390.449L193.551 360ZM172 442.622C167.84 442.622 164.489 439.271 164.489 435.111C164.489 430.951 167.84 427.6 172 427.6C176.16 427.6 179.511 430.951 179.511 435.111C179.511 439.271 176.16 442.622 172 442.622ZM177.778 417.778H166.222V383.111H177.778V417.778Z" fill="#2065BF"/>
</g>
</svg>
