<svg width="551" height="532" viewBox="0 0 551 532" fill="none" xmlns="http://www.w3.org/2000/svg">
<mask id="mask0" mask-type="alpha" maskUnits="userSpaceOnUse" x="0" y="0" width="551" height="532">
<rect width="551" height="532" fill="#C4C4C4"/>
</mask>
<g mask="url(#mask0)">
<path d="M411.38 298.68C411.38 296.82 410.16 295.61 407.45 295.61C404.54 295.61 402.79 297.61 401.73 300.06L394.42 295.87C395.531 293.272 397.399 291.069 399.78 289.547C402.162 288.026 404.946 287.257 407.77 287.34C413.77 287.34 419.85 291.05 419.85 297.94C419.85 305.83 411.38 308.27 411.38 311.94H402.9C402.9 305.73 411.38 303.34 411.38 298.68ZM402.1 320.88C402.1 319.891 402.393 318.924 402.943 318.102C403.492 317.28 404.273 316.639 405.187 316.261C406.1 315.882 407.106 315.783 408.075 315.976C409.045 316.169 409.936 316.645 410.636 317.344C411.335 318.044 411.811 318.935 412.004 319.904C412.197 320.874 412.098 321.88 411.719 322.793C411.341 323.707 410.7 324.488 409.878 325.037C409.056 325.587 408.089 325.88 407.1 325.88C405.78 325.862 404.518 325.329 403.585 324.395C402.651 323.462 402.118 322.2 402.1 320.88Z" fill="#C1D6F2"/>
<path d="M127.37 124.01C127.37 122.16 126.16 120.94 123.45 120.94C120.54 120.94 118.79 122.94 117.73 125.39L110.42 121.2C111.531 118.602 113.399 116.399 115.78 114.877C118.161 113.356 120.946 112.587 123.77 112.67C129.77 112.67 135.85 116.38 135.85 123.27C135.85 131.17 127.37 133.6 127.37 137.27H118.9C118.9 131.06 127.37 128.68 127.37 124.01ZM118.1 146.22C118.1 145.231 118.393 144.264 118.943 143.442C119.492 142.62 120.273 141.979 121.187 141.601C122.1 141.222 123.106 141.123 124.075 141.316C125.045 141.509 125.936 141.985 126.636 142.684C127.335 143.384 127.811 144.275 128.004 145.244C128.197 146.214 128.098 147.22 127.719 148.133C127.341 149.047 126.7 149.828 125.878 150.377C125.056 150.927 124.089 151.22 123.1 151.22C121.78 151.202 120.518 150.669 119.584 149.735C118.651 148.802 118.118 147.54 118.1 146.22Z" fill="#C1D6F2"/>
<path d="M428 111.34C428 109.49 426.78 108.27 424.08 108.27C421.17 108.27 419.42 110.27 418.36 112.72L411.04 108.54C412.154 105.941 414.023 103.737 416.406 102.214C418.788 100.691 421.574 99.9197 424.4 99.9999C430.4 99.9999 436.48 103.71 436.48 110.6C436.48 118.5 428 120.94 428 124.6H419.52C419.56 118.39 428 116.01 428 111.34ZM418.73 133.55C418.73 132.561 419.023 131.594 419.573 130.772C420.122 129.95 420.903 129.309 421.817 128.931C422.73 128.552 423.736 128.453 424.705 128.646C425.675 128.839 426.566 129.315 427.266 130.014C427.965 130.714 428.441 131.605 428.634 132.574C428.827 133.544 428.728 134.55 428.349 135.463C427.971 136.377 427.33 137.158 426.508 137.707C425.686 138.257 424.719 138.55 423.73 138.55C422.417 138.522 421.165 137.984 420.24 137.052C419.315 136.119 418.788 134.864 418.77 133.55H418.73Z" fill="#C1D6F2"/>
<path d="M343.47 326.35C342.87 327.24 341.14 327.12 340.27 326.96C339.203 326.676 338.219 326.141 337.4 325.4C334.726 323.411 332.166 321.274 329.73 319C328.53 317.84 327.02 316.91 326.07 315.56C325.913 314.964 325.862 314.344 325.92 313.73C325.92 313.14 326.6 313.2 327.09 313.22C329.83 313.38 332.26 314.96 334.49 316.41C335.35 316.97 336.08 317.67 336.94 318.24C338.276 319.073 339.549 320.002 340.75 321.02C341.687 321.894 342.487 322.906 343.12 324.02C343.517 324.577 343.724 325.246 343.71 325.93C343.64 326.33 343.38 326.58 343.47 326.35Z" fill="#EBA76C"/>
<path d="M326.7 316.66C326.151 316.102 325.815 315.37 325.75 314.59C325.275 312.143 324.961 309.668 324.81 307.18C324.62 305.18 324.89 303.06 324.51 301.01C324.13 298.96 323.25 297.23 323.07 295.26C322.891 293.924 323.056 292.564 323.55 291.31C323.606 291.203 323.686 291.11 323.785 291.041C323.884 290.972 323.998 290.927 324.118 290.912C324.238 290.896 324.36 290.909 324.473 290.951C324.587 290.992 324.689 291.061 324.77 291.15C324.932 291.317 325.07 291.505 325.18 291.71C325.36 292.267 325.491 292.84 325.57 293.42C325.87 294.42 326.34 295.42 326.57 296.42C326.695 295.777 326.715 295.119 326.63 294.47C326.628 294.424 326.642 294.379 326.67 294.343C326.699 294.307 326.739 294.282 326.784 294.273C326.83 294.265 326.876 294.273 326.916 294.296C326.956 294.319 326.985 294.356 327 294.4C327.296 295.338 327.52 296.298 327.67 297.27C327.79 298.27 327.26 299.52 327.35 300.51C327.51 302.24 328.22 303.51 328.65 305.2C329.37 308 330.65 311 330.38 313.95C330.3 314.69 330.49 315.95 329.86 316.49C329.375 316.739 328.843 316.882 328.298 316.912C327.754 316.941 327.209 316.855 326.7 316.66Z" fill="#EBA76C"/>
<path d="M346.69 322.05C346.1 321.55 345.09 321.57 344.32 321.32C343.273 320.987 342.266 320.538 341.32 319.98C340.83 319.68 340.37 319.35 339.87 319.1C339.335 318.901 338.817 318.66 338.32 318.38C337.9 318.09 337.61 317.65 337.13 317.98C336.65 318.31 336.38 318.74 335.97 319.08C335.199 319.656 334.567 320.397 334.12 321.25C333.83 321.87 333.77 322.53 333.54 323.15C334.09 323.49 334.54 323.98 335.09 324.32C335.835 324.723 336.538 325.199 337.19 325.74C337.683 326.209 338.126 326.728 338.51 327.29C338.771 327.704 338.948 328.165 339.03 328.647C339.112 329.129 339.099 329.623 338.99 330.1C338.88 331.87 338.38 333.65 338.38 335.43C338.68 335.23 338.94 334.91 339.25 334.7C339.785 334.44 340.296 334.135 340.78 333.79C341.66 332.96 341.72 331.48 341.98 330.37C342.313 328.452 343.156 326.66 344.42 325.18C345 324.58 345.501 323.908 345.91 323.18C346.134 322.761 346.385 322.357 346.66 321.97C346.6 322.14 346.52 322.31 346.69 322.05Z" fill="#C4DFF8"/>
<path d="M129.69 289.21C129.69 288.97 129.76 288.73 129.79 288.5C130.013 286.552 130.436 284.632 131.05 282.77C131.37 281.95 131.79 281.16 132.05 280.32C132.35 279.479 132.35 278.561 132.05 277.72C131.471 278.492 131.102 279.402 130.98 280.36C130.958 278.281 131.082 276.202 131.35 274.14C131.265 274.102 131.171 274.086 131.078 274.095C130.986 274.104 130.897 274.137 130.82 274.19C129.985 274.598 129.235 275.162 128.61 275.85C128.299 276.169 128.054 276.546 127.89 276.96C127.75 277.419 127.699 277.901 127.74 278.38C127.82 279.71 128.4 281.23 127.96 282.49C127.809 283.182 127.578 283.853 127.27 284.49C126.48 286.01 125.71 287.54 124.94 289.06C124.07 290.78 122.04 294.84 122.94 296.87C123.092 297.38 123.427 297.816 123.882 298.093C124.336 298.37 124.877 298.469 125.4 298.37C126.63 298.2 127.26 297.12 127.81 296C128.732 293.829 129.364 291.546 129.69 289.21Z" fill="#EBA76C"/>
<path d="M124.15 318.01C124.444 317.443 124.656 316.837 124.78 316.21C126.28 310.21 127.44 303.98 127.07 297.69C127.068 297.003 126.929 296.323 126.66 295.69C126.509 295.358 126.282 295.067 125.997 294.839C125.712 294.611 125.377 294.454 125.02 294.38C124.669 294.336 124.312 294.382 123.984 294.514C123.655 294.645 123.365 294.857 123.14 295.13C122.724 295.656 122.422 296.262 122.25 296.91C120.368 302.344 119.355 308.04 119.25 313.79C119.108 315.182 119.413 316.583 120.12 317.79C120.371 318.169 120.694 318.494 121.072 318.746C121.45 318.999 121.874 319.173 122.32 319.26C122.711 319.242 123.089 319.115 123.412 318.895C123.736 318.674 123.991 318.368 124.15 318.01Z" fill="#EBA76C"/>
<path d="M125.35 317.18C125.708 316.46 125.993 315.707 126.2 314.93C126.38 314.33 126.56 313.72 126.75 313.11C126.94 312.5 127.08 312.01 127.2 311.45C127.32 310.89 127.38 310.34 127.45 309.78C127.56 308.78 127.68 307.86 127.79 306.9C124.493 305.662 120.88 305.546 117.51 306.57C117.405 308.098 117.405 309.632 117.51 311.16C117.589 312.66 117.927 314.135 118.51 315.52C119.188 316.932 120.266 318.115 121.61 318.92C123.05 319.72 124.69 318.38 125.35 317.18Z" fill="#9EBEE6"/>
<path d="M-106.54 401.04C-85.38 398.77 -8.35004 410.67 13.9 410.16C67.63 408.95 113.57 394.57 113.57 394.57" stroke="#C1D6F2" stroke-width="6.84" stroke-miterlimit="10"/>
<path d="M62.45 240.49C15.61 240.49 -16.38 210.79 -61.55 207.36C-106.72 203.93 -175.8 256.49 -237.5 264.49C-299.2 272.49 -386 211.86 -446 211.86" stroke="#2065BF" stroke-width="13.68" stroke-miterlimit="10"/>
<path d="M156.35 242.28L159.57 182.8H132.37C116.08 182.8 108.73 212.37 92.52 221.01C79.04 228.2 67.24 228.35 60.38 228.35C53.52 228.35 53 240.92 53 240.92C53 240.92 53.5 253.51 60.35 253.51C67.2 253.51 79.01 253.66 92.49 260.85C108.7 269.49 116.05 299.05 132.34 299.05H159.54L156.09 242.28H156.35Z" fill="#57A9F2"/>
<path d="M191.28 240.92C191.28 220.55 188.39 202.23 183.78 189.46V171.08H168.14C155.36 171.08 145.01 202.35 145.01 240.92C145.01 279.49 155.36 310.8 168.14 310.8H183.78V292.38C188.39 279.62 191.28 261.29 191.28 240.92Z" fill="#3A7FD8"/>
<path d="M182.71 310.76C195.49 310.76 205.85 279.492 205.85 240.92C205.85 202.348 195.49 171.08 182.71 171.08C169.93 171.08 159.57 202.348 159.57 240.92C159.57 279.492 169.93 310.76 182.71 310.76Z" fill="#BADCF2"/>
<path d="M185.71 215C185.71 220 184.37 224.05 182.71 224.05C181.05 224.05 179.71 220 179.71 215C179.71 210 181.05 206 182.71 206C184.37 206 185.71 210 185.71 215Z" fill="#2065BF"/>
<path d="M232.2 205.94H182.71V224.05H232.2V205.94Z" fill="#2065BF"/>
<path d="M233.69 224.05C238.688 224.05 242.74 219.998 242.74 215C242.74 210.002 238.688 205.95 233.69 205.95C228.692 205.95 224.64 210.002 224.64 215C224.64 219.998 228.692 224.05 233.69 224.05Z" fill="#2065BF"/>
<path d="M185.71 266.85C185.71 271.85 184.37 275.9 182.71 275.9C181.05 275.9 179.71 271.85 179.71 266.85C179.71 261.85 181.05 257.79 182.71 257.79C184.37 257.79 185.71 261.85 185.71 266.85Z" fill="#2065BF"/>
<path d="M232.2 257.79H182.71V275.9H232.2V257.79Z" fill="#2065BF"/>
<path d="M233.69 275.89C238.688 275.89 242.74 271.838 242.74 266.84C242.74 261.842 238.688 257.79 233.69 257.79C228.692 257.79 224.64 261.842 224.64 266.84C224.64 271.838 228.692 275.89 233.69 275.89Z" fill="#2065BF"/>
<path d="M380.88 401.04C402.05 398.77 459 410.13 481.26 410.16C530.26 410.24 605.49 387.8 605.49 387.8" stroke="#C1D6F2" stroke-width="6.84" stroke-miterlimit="10"/>
<path d="M424.73 240.49C471.57 240.49 516.51 270.27 561.64 266.85C606.77 263.43 686.75 223.07 748.45 231.07C810.15 239.07 864.14 265.22 933.18 211.86" stroke="#2065BF" stroke-width="13.68" stroke-miterlimit="10"/>
<path d="M426.8 228.34C419.94 228.34 408.15 228.19 394.66 221C378.45 212.36 371.1 182.8 354.82 182.8H327.61L331.27 239.43H330.84L327.61 299.07H354.82C371.1 299.07 378.45 269.51 394.66 260.87C408.15 253.68 419.94 253.53 426.8 253.53C433.66 253.53 434.15 240.94 434.15 240.94C434.15 240.94 433.65 228.34 426.8 228.34Z" fill="#57A9F2"/>
<path d="M295.9 240.92C295.9 220.55 298.79 202.23 303.4 189.46V171.08H319C331.78 171.08 342.14 202.35 342.14 240.92C342.14 279.49 331.82 310.8 319 310.8H303.4V292.38C298.79 279.62 295.9 261.29 295.9 240.92Z" fill="#3A7FD8"/>
<path d="M304.47 310.76C317.25 310.76 327.61 279.492 327.61 240.92C327.61 202.348 317.25 171.08 304.47 171.08C291.69 171.08 281.33 202.348 281.33 240.92C281.33 279.492 291.69 310.76 304.47 310.76Z" fill="#57A9F2"/>
<path d="M301.47 215C301.47 220 302.81 224.05 304.47 224.05C306.13 224.05 307.47 220 307.47 215C307.47 210 306.13 206 304.47 206C302.81 206 301.47 210 301.47 215Z" fill="#2065BF"/>
<path d="M301.47 266.85C301.47 271.85 302.81 275.9 304.47 275.9C306.13 275.9 307.47 271.85 307.47 266.85C307.47 261.85 306.13 257.79 304.47 257.79C302.81 257.79 301.47 261.85 301.47 266.85Z" fill="#2065BF"/>
<path d="M177.87 394.91C177.87 397.58 160.01 399.74 137.99 399.74C115.97 399.74 98.11 397.58 98.11 394.91C98.11 392.24 116 390.09 138 390.09C160 390.09 177.87 392.25 177.87 394.91Z" fill="#C1D6F2"/>
<path d="M158.74 295.18L159.28 294.7C160.775 293.43 162.136 292.009 163.34 290.46C163.84 289.73 164.26 288.95 164.82 288.26C165.353 287.532 166.124 287.016 167 286.8C166.678 287.711 166.127 288.523 165.4 289.16C167.153 288.023 168.824 286.763 170.4 285.39C170.479 285.439 170.544 285.509 170.588 285.591C170.632 285.674 170.653 285.766 170.65 285.86C170.778 286.777 170.731 287.71 170.51 288.61C170.429 289.068 170.24 289.501 169.958 289.871C169.677 290.242 169.31 290.54 168.89 290.74C167.74 291.43 166.15 291.74 165.35 292.85C164.87 293.364 164.451 293.931 164.1 294.54C163.27 296.03 162.43 297.54 161.6 299.02C160.66 300.69 158.42 304.64 156.23 305.02C155.721 305.18 155.17 305.146 154.685 304.925C154.199 304.703 153.813 304.31 153.6 303.82C153.06 302.7 153.6 301.57 154.23 300.49C155.496 298.531 157.012 296.746 158.74 295.18Z" fill="#EBA76C"/>
<path d="M157.17 304.33C157.17 304.42 157.1 304.51 157.06 304.6C156.726 305.181 156.277 305.688 155.74 306.09C152.767 308.681 149.533 310.956 146.09 312.88C144.521 313.76 142.901 314.548 141.24 315.24C140.014 315.888 138.613 316.13 137.24 315.93C136.793 315.843 136.368 315.667 135.99 315.413C135.612 315.159 135.289 314.831 135.04 314.45C134.905 314.085 134.873 313.69 134.949 313.309C135.025 312.928 135.205 312.575 135.47 312.29C135.886 311.806 136.367 311.382 136.9 311.03C141.9 307.37 147.23 303.96 153.19 301.93C153.825 301.671 154.505 301.542 155.19 301.55C155.552 301.561 155.906 301.658 156.224 301.832C156.542 302.005 156.815 302.251 157.02 302.55C157.177 302.816 157.272 303.115 157.298 303.423C157.324 303.731 157.28 304.041 157.17 304.33Z" fill="#EBA76C"/>
<path d="M135.81 304.48C135.49 305.18 135.02 305.92 134.26 306.07C133.728 306.1 133.194 306.067 132.67 305.97L132.17 305.89C131.635 305.832 131.112 305.69 130.62 305.47C130.078 304.926 129.622 304.302 129.27 303.62L129.19 303.45C129.14 303.34 129.06 303.2 128.98 303.05C128.712 302.661 128.524 302.223 128.43 301.76C128.43 299.4 129.43 298.76 130.3 297.63C131.209 296.487 132.432 295.635 133.82 295.18C134.582 294.863 135.421 294.779 136.23 294.94C136.92 295.14 136.83 295.65 136.87 296.27C137.179 299.052 136.815 301.868 135.81 304.48Z" fill="#EBA76C"/>
<path d="M133.71 309.8C132.84 310.713 131.748 311.386 130.54 311.752C129.333 312.118 128.051 312.166 126.82 311.89C126.136 311.666 125.433 311.506 124.72 311.41C125.193 311.051 125.589 310.6 125.885 310.085C126.18 309.569 126.369 309 126.44 308.41C126.701 307.108 126.66 305.764 126.32 304.48C126.25 304.22 125.66 303.13 125.93 302.93C126.2 302.73 127.44 303.31 127.81 303.3C128.216 303.283 128.614 303.185 128.98 303.01L129.16 302.93C129.572 302.722 129.996 302.538 130.43 302.38C130.521 302.35 130.619 302.35 130.71 302.38C130.786 302.408 130.854 302.452 130.91 302.51L132.6 304.04C132.415 304.598 132.274 305.17 132.18 305.75C132.175 305.793 132.175 305.837 132.18 305.88C132.09 306.432 132.05 306.991 132.06 307.55C132.05 307.71 132.05 307.87 132.06 308.03C132.078 308.231 132.122 308.43 132.19 308.62C132.314 308.935 132.52 309.212 132.788 309.419C133.055 309.627 133.374 309.758 133.71 309.8Z" fill="#EBA76C"/>
<path d="M132.17 305.89C132.08 306.442 132.04 307.001 132.05 307.56C132.04 307.72 132.04 307.88 132.05 308.04C131.896 307.926 131.752 307.799 131.62 307.66C131.37 307.43 131.14 307.2 130.9 306.95C130.244 306.155 129.745 305.242 129.43 304.26C129.321 303.998 129.234 303.727 129.17 303.45C129.15 303.291 129.15 303.129 129.17 302.97C129.736 303.67 130.34 304.337 130.98 304.97C131.355 305.274 131.76 305.539 132.19 305.76L132.32 305.82C132.434 305.876 132.551 305.926 132.67 305.97L132.17 305.89Z" fill="#E17D27"/>
<path d="M130.33 305.21C130.793 304.835 131.213 304.409 131.58 303.94C132.42 302.79 132.66 301.3 133.37 300.06C133.83 299.254 134.474 298.569 135.25 298.06C135.928 297.704 136.58 297.299 137.2 296.85C137.62 296.443 137.95 295.952 138.169 295.409C138.387 294.867 138.49 294.285 138.47 293.7C138.426 292.527 138.14 291.377 137.63 290.32C137.142 290.775 136.507 291.041 135.84 291.07C134.03 291.32 132.18 291.15 130.36 291.32C128.513 291.379 126.759 292.145 125.46 293.46C124.2 294.93 123.98 297.01 123.95 298.95C123.903 299.927 123.967 300.907 124.14 301.87C124.394 303.123 124.946 304.296 125.75 305.29C127.09 306.94 128.87 306.42 130.33 305.21Z" fill="#3C69BA"/>
<path d="M133.81 299.63C133.671 299.388 133.467 299.19 133.22 299.06C133.096 298.995 132.955 298.969 132.816 298.985C132.677 299.001 132.546 299.059 132.44 299.15C132.369 299.231 132.315 299.327 132.284 299.43C132.253 299.534 132.245 299.643 132.26 299.75C132.288 299.963 132.352 300.169 132.45 300.36C132.699 301.077 133.056 301.752 133.51 302.36C133.6 302.47 133.72 302.57 133.84 302.53C133.914 302.503 133.974 302.45 134.01 302.38C134.01 302.21 134.25 301.89 134.3 301.7C134.368 301.439 134.392 301.169 134.37 300.9V300.95C134.07 300.62 134 300.01 133.81 299.63Z" fill="#EBA76C"/>
<path d="M123.22 393.29C123.105 393.8 123.105 394.33 123.22 394.84C123.433 395.319 123.796 395.716 124.254 395.972C124.712 396.228 125.24 396.329 125.76 396.26C126.796 396.091 127.779 395.684 128.63 395.07C130.119 394.21 131.519 393.205 132.81 392.07C133.301 391.647 133.703 391.131 133.99 390.55C134.133 390.261 134.207 389.942 134.207 389.62C134.207 389.297 134.133 388.979 133.99 388.69C133.692 388.287 133.274 387.99 132.796 387.84C132.317 387.691 131.804 387.698 131.33 387.86C130.388 388.191 129.481 388.613 128.62 389.12C127.38 389.69 126.62 390.12 125.39 390.62C124.776 390.747 124.225 391.082 123.829 391.568C123.434 392.055 123.219 392.663 123.22 393.29Z" fill="#6D9AD8"/>
<path d="M121.55 345.04C121.444 348.283 121.709 351.527 122.34 354.71C122.827 358.077 123.207 361.463 123.48 364.87C123.592 365.913 123.608 366.964 123.53 368.01C123.35 369.7 122.71 371.3 122.37 373.01C121.935 375.863 121.935 378.766 122.37 381.62L122.94 387.31C123.056 389.117 123.361 390.907 123.85 392.65C124.36 392.889 124.933 392.959 125.485 392.849C126.038 392.739 126.54 392.456 126.92 392.04C127.217 387.051 128.022 382.106 129.32 377.28C129.73 375.77 130.18 374.28 130.44 372.73C130.688 370.983 130.842 369.224 130.9 367.46C131.35 360.73 132.9 354.03 132.24 347.31C131.959 344.718 131.518 342.147 130.92 339.61C130.893 339.375 130.8 339.153 130.65 338.97C130.443 338.8 130.187 338.702 129.92 338.69L125.78 338.06C124.95 337.93 123.84 337.53 123.18 338.24C122.52 338.95 122.39 340.49 122.18 341.38C121.878 342.582 121.667 343.806 121.55 345.04Z" fill="#F2A71D"/>
<path d="M136.94 396.03C136.827 396.571 136.827 397.129 136.94 397.67C137.146 398.196 137.518 398.641 138 398.937C138.482 399.233 139.047 399.364 139.61 399.31C140.733 399.182 141.813 398.802 142.77 398.2C144.32 397.38 145.88 396.55 147.36 395.6C148.264 395.105 149.013 394.367 149.52 393.47C149.76 393.016 149.829 392.491 149.715 391.99C149.601 391.489 149.312 391.046 148.9 390.74C147.9 390.18 146.75 390.74 145.71 391.15C144.579 391.545 143.414 391.836 142.23 392.02C141.04 392.25 138.99 392.23 137.95 392.83C136.91 393.43 137.11 395.03 136.94 396.03Z" fill="#6D9AD8"/>
<path d="M129.59 351.03C130.27 352.03 131.09 352.97 131.73 354.03C132.551 355.488 133.196 357.039 133.65 358.65C135.06 363.01 136.49 367.44 136.57 372.02C136.62 375.23 136 378.41 135.92 381.62C135.904 383.754 136.007 385.887 136.23 388.01C136.41 390.19 136.597 392.37 136.79 394.55C138.576 394.717 140.371 394.341 141.94 393.47C141.728 388.065 142.134 382.653 143.15 377.34C143.6 374.77 144.15 372.21 144.36 369.61C144.611 364.823 144.357 360.023 143.6 355.29C142.87 349.39 142.13 343.44 140.07 337.86C140.21 338.24 130.17 339.21 129.3 339.3C126.1 339.62 126.97 343.48 127.45 345.8C127.826 347.663 128.552 349.438 129.59 351.03Z" fill="#F2A71D"/>
<path d="M127.3 364.64C127.658 365.708 127.939 366.801 128.14 367.91C128.28 369.203 128.28 370.507 128.14 371.8C128.01 373.27 127.88 374.74 127.76 376.21C127.43 380.01 127.14 383.82 126.53 387.58C126.28 389.09 126.8 390.31 126.96 392.01C128.254 387.338 129.269 382.593 130 377.8C130.91 372.225 131.451 366.596 131.62 360.95C131.71 359.32 131.8 357.69 131.88 356.06C132.006 355.238 131.891 354.398 131.55 353.64C131.065 352.968 130.423 352.426 129.68 352.06C127.88 350.93 126.68 349.31 125.14 347.99C124.57 348.74 125.09 350.7 125.14 351.6C125.26 353.07 125.39 354.54 125.57 356.01C125.906 358.93 126.484 361.816 127.3 364.64Z" fill="#D86F13"/>
<path d="M140.63 327.95C140.771 326.955 140.858 325.954 140.89 324.95C140.788 323.125 140.428 321.324 139.82 319.6L137.69 312.6C137.444 311.731 137.109 310.89 136.69 310.09C135.542 310.283 134.364 310.208 133.25 309.87L133.41 309.98C131.855 311.284 129.867 311.955 127.84 311.86C127.62 311.75 127.25 311.79 126.97 311.66C126.72 311.55 126.479 311.419 126.25 311.27C125.91 311.06 125.5 310.58 125.68 310.14C125.144 310.57 124.477 310.803 123.79 310.8C123.192 310.773 122.601 310.934 122.1 311.26C121.358 311.961 120.881 312.897 120.75 313.91C120.75 313.91 120.75 314 120.75 314.05C120.55 314.919 120.519 315.819 120.66 316.7C120.798 318.556 121.082 320.398 121.51 322.21C121.79 323.34 122.16 324.45 122.37 325.6C123.22 330.22 121.32 335.03 122.21 339.65C122.77 339.6 123.21 340.04 123.68 340.39C125.254 341.503 127.143 342.081 129.07 342.04C130.98 342.09 132.88 341.8 134.79 341.75C136.97 341.7 139.4 341.87 141.05 340.44C140.426 336.307 140.285 332.116 140.63 327.95Z" fill="#9EBEE6"/>
<path d="M136.45 311.64C136.131 311.501 135.773 311.481 135.441 311.583C135.109 311.686 134.824 311.905 134.64 312.2C134.3 312.81 134.137 313.502 134.17 314.2C134.09 318.38 135.33 322.47 135.67 326.63C135.776 327.511 135.735 328.403 135.55 329.27C135.34 330.1 134.9 330.85 134.63 331.66C134.17 333.29 134.133 335.011 134.52 336.66C134.9 338.31 135.193 339.979 135.4 341.66C137.471 341.543 139.514 341.118 141.46 340.4C141.587 340.374 141.699 340.298 141.77 340.19C141.815 340.064 141.815 339.926 141.77 339.8C141.074 335.84 140.909 331.804 141.28 327.8C141.378 326.786 141.402 325.767 141.35 324.75C141.26 323.819 141.099 322.897 140.87 321.99C140.37 319.78 139.87 317.47 138.33 315.77C137.731 315.193 137.17 314.579 136.65 313.93C136.395 313.602 136.233 313.212 136.182 312.8C136.131 312.388 136.193 311.97 136.36 311.59L136.92 312.44" fill="#5885C7"/>
<path d="M133.93 312.06C134.41 311.418 134.96 310.831 135.57 310.31L136.96 309.01C137.38 308.62 137.8 308.23 138.26 307.88C138.72 307.53 139.18 307.23 139.65 306.88L142.08 305.3C144.644 307.717 146.338 310.912 146.9 314.39C145.573 315.155 144.193 315.823 142.77 316.39C141.392 316.989 139.92 317.344 138.42 317.44C136.851 317.457 135.313 317.008 134 316.15C132.65 315.24 133.14 313.18 133.93 312.06Z" fill="#9EBEE6"/>
<path d="M132.29 308.09C132.38 308.19 132.29 308.15 132.29 308.09V308.09Z" fill="#5885C7"/>
<path d="M390.12 401.04C390.12 403.71 372.27 405.87 350.25 405.87C328.23 405.87 310.37 403.71 310.37 401.04C310.37 398.37 328.22 396.22 350.25 396.22C372.28 396.22 390.12 398.38 390.12 401.04Z" fill="#C1D6F2"/>
<path d="M340 321.42C340.435 321.578 340.898 321.643 341.36 321.61C342.265 321.619 343.168 321.521 344.05 321.32C345.445 320.844 346.766 320.17 347.97 319.32C348.36 319.09 348.72 318.82 349.11 318.6C349.336 318.513 349.551 318.399 349.75 318.26C349.42 318.1 349.01 318.26 348.65 318.04C348.172 317.769 347.754 317.404 347.421 316.968C347.088 316.531 346.846 316.032 346.71 315.5C346.59 315.11 346.47 314.7 346.36 314.28C346.25 313.86 346.23 313.72 346.18 313.44C346.148 313.289 346.128 313.135 346.12 312.98C346.067 312.48 346.108 311.975 346.24 311.49L346.38 311.3C346.19 311.3 346 311.07 345.81 311.06C345.62 311.05 345.22 311.42 345.02 311.59C344.54 312.081 343.951 312.451 343.3 312.67C342.383 312.992 341.408 313.115 340.44 313.03C340.746 313.575 340.936 314.178 341 314.8C340.995 314.863 340.995 314.927 341 314.99C341.134 315.557 341.205 316.137 341.21 316.72V316.77C341.185 317.365 341.095 317.955 340.94 318.53C340.738 319.526 340.423 320.496 340 321.42Z" fill="#D29026"/>
<path d="M338.16 305.8C337.947 306.456 337.77 307.124 337.63 307.8C337.532 308.833 337.617 309.876 337.88 310.88C338.555 312.918 339.756 314.743 341.36 316.17C343.67 318.17 345.87 314.34 346.44 312.41C346.92 310.77 347.33 308.51 346.44 306.97C345.761 305.616 344.581 304.579 343.15 304.08C342.031 303.814 340.854 303.956 339.83 304.48C339.19 304.8 338.66 305.91 338.16 305.8Z" fill="#EBA76C"/>
<path d="M345.62 308.61C344.12 306.61 341.89 307.35 341.01 307.23C340.224 307.116 339.501 306.735 338.964 306.15C338.426 305.565 338.107 304.813 338.06 304.02C337.901 303.109 337.918 302.175 338.11 301.27C338.75 301.57 339.454 301.707 340.16 301.67C340.948 301.412 341.758 301.225 342.58 301.11C343.431 301.02 344.291 301.116 345.101 301.393C345.911 301.669 346.651 302.119 347.27 302.71C348.729 304.474 349.487 306.713 349.4 309C349.4 309.67 347.57 315.35 346.4 314.53C345.96 314.23 346.19 311.8 346.13 311.24C346.077 310.345 345.906 309.46 345.62 308.61Z" fill="#1E3358"/>
<path d="M339 303.8C337.51 303.69 336.58 305.71 336.44 307.09C336.421 308.435 336.701 309.767 337.26 310.99C337.492 311.637 337.787 312.26 338.14 312.85C338.26 313.04 338.87 314.16 339.14 314.13C339.68 314.07 338.88 312.56 338.78 312.32C338.448 311.496 338.226 310.632 338.12 309.75C337.898 308.461 338.05 307.135 338.56 305.93C339 305.04 339.32 304.66 339 303.8Z" fill="#1E3358"/>
<path d="M345.64 309.55C345.81 309.08 345.81 308.69 346.19 308.36C346.57 308.03 346.79 308.02 347.06 308.36C347.62 309.02 346.88 309.92 346.57 310.49C346.41 310.8 346.14 311.09 346 311.39C345.924 311.023 345.867 310.653 345.83 310.28C345.79 310.07 345.74 309.52 345.64 309.55Z" fill="#EBA76C"/>
<path d="M353.85 393.62C354.24 394.38 353.79 395.76 353.93 396.62C354.164 397.47 354.604 398.25 355.21 398.89C355.97 399.95 358.21 401.89 357.52 403.37C356.67 405.22 354.4 404.44 353.21 403.55C352.02 402.66 351.61 401.05 350.66 399.89C350.32 399.504 350.088 399.036 349.986 398.533C349.884 398.029 349.916 397.507 350.08 397.02C350.257 395.885 350.347 394.739 350.35 393.59C351.119 393.581 351.888 393.631 352.65 393.74C353 393.8 354 393.86 353.85 393.62Z" fill="#6190D5"/>
<path d="M343.62 393.46C343.565 394.553 343.565 395.647 343.62 396.74C343.79 397.64 344.62 398.69 344.38 399.69C344.14 400.69 342.84 400.69 342 400.99C341.179 401.284 340.477 401.839 340 402.57C339.676 402.948 339.281 403.258 338.837 403.482C338.393 403.707 337.909 403.841 337.413 403.879C336.917 403.916 336.418 403.855 335.946 403.699C335.474 403.543 335.037 403.295 334.66 402.97C334.324 402.646 334.127 402.205 334.11 401.738C334.093 401.272 334.258 400.817 334.57 400.47C335.31 399.84 336.39 399.88 337.22 399.41C338.284 398.852 339.156 397.987 339.723 396.928C340.289 395.869 340.525 394.665 340.4 393.47C341.442 393.632 342.498 393.676 343.55 393.6C343.53 393.72 343.49 393.8 343.62 393.46Z" fill="#6190D5"/>
<path d="M351.79 342.6C352.72 343.01 353.22 345.41 353.6 346.36C354.196 347.847 354.606 349.402 354.82 350.99C355.43 355.38 354.82 359.74 354.34 364.09C354.16 365.82 353.83 367.54 353.7 369.28C353.629 371.239 353.969 373.191 354.7 375.01C355.488 377.254 355.785 379.641 355.57 382.01C355.3 384.01 355.49 384.2 355.28 386.2C355.07 388.2 354.89 389.94 354.8 391.79C354.8 392.5 354.69 393.18 354.72 393.89C354.75 394.6 354.55 395.35 354.55 396.07C354.55 396.134 354.525 396.195 354.48 396.24C354.435 396.285 354.374 396.31 354.31 396.31C352.631 396.379 350.951 396.231 349.31 395.87C349.281 395.861 349.256 395.844 349.236 395.821C349.217 395.798 349.204 395.77 349.2 395.74C348.82 392.45 348.2 389.17 347.53 385.92C346.53 380.92 345.53 375.82 344.58 370.78C343.66 366.06 342.73 361.25 342.12 356.47C341.837 354.214 341.693 351.943 341.69 349.67C341.69 348.56 341.69 347.47 341.76 346.37C341.76 345.9 341.65 344.93 342.05 344.65C342.45 344.37 344.31 344.51 344.93 344.45C346.016 344.395 347.095 344.234 348.15 343.97C349.47 343.62 350.87 343.2 352.15 342.77C351.82 342.8 351.48 342.89 351.79 342.6Z" fill="#F2A71D"/>
<path d="M345.41 344.68H345.56C345.5 344.59 345.45 344.6 345.41 344.68Z" fill="#4F4E4E"/>
<path d="M334.06 358.97C334.21 363.884 334.88 368.768 336.06 373.54C337.11 378.44 337.97 383.31 338.68 388.27C338.94 390.15 339.05 392.09 339.42 393.92C339.462 394.399 339.569 394.87 339.74 395.32C340.08 395.83 340.8 395.64 341.49 395.64C342.122 395.694 342.756 395.714 343.39 395.7C344.18 395.6 344.26 395.2 344.39 394.39C344.84 391.33 344.88 388.97 345.03 386.56C345.226 384.707 345.283 382.842 345.2 380.98C345.2 380.85 345.2 380.73 345.2 380.6C344.85 377.47 344.39 374.38 343.97 371.27C343.82 370.005 343.8 368.729 343.91 367.46C344.02 365.91 344.24 364.36 344.35 362.8C344.78 356.98 344.15 351.14 345.29 345.39C345.324 345.146 345.388 344.908 345.48 344.68C342.39 344.68 337.88 346.56 335.16 344.39C335.22 346.87 334.49 349.19 334.36 351.63C334.23 354.07 334.06 356.49 334.06 358.97Z" fill="#F2A71D"/>
<path d="M334.54 344.59C334.62 342.11 334.86 339.59 334.86 337.15C334.86 334.71 334.86 332.4 335.03 330.02C335.135 328.976 335.135 327.924 335.03 326.88C334.868 325.827 334.782 324.765 334.77 323.7C334.77 322.7 334.69 320.64 335.72 320.17C336.51 319.8 337.35 319.48 338.13 319.1C339.058 318.509 340.069 318.061 341.13 317.77C341.129 317.941 341.145 318.112 341.18 318.28C341.26 319.43 342.35 319.88 343.36 320.03C344.005 320.151 344.67 320.111 345.296 319.914C345.922 319.717 346.49 319.368 346.95 318.9C347.396 318.486 347.718 317.956 347.88 317.37C348.457 317.635 349.085 317.772 349.72 317.77C350.037 317.929 350.373 318.047 350.72 318.12C351.33 318.35 351.96 318.53 352.58 318.75C353.073 319.178 353.682 319.449 354.33 319.53C354.75 319.76 355.15 320.01 355.54 320.27C355.621 320.512 355.684 320.759 355.73 321.01C356.03 322.6 356.24 324.09 355.33 325.47C354.93 326.07 352.87 329.47 352.79 329.7C352.72 330.341 352.72 330.989 352.79 331.63V334.23C352.918 337.037 353.252 339.832 353.79 342.59C353.95 343.59 354.13 344.59 354.35 345.59C354.35 345.76 354.43 345.93 354.46 346.11C354.705 346.813 354.82 347.555 354.8 348.3C354.439 348.326 354.083 348.397 353.74 348.51C352.38 348.82 351.09 349.45 349.74 349.64C347.458 349.934 345.16 350.077 342.86 350.07C340.34 350.07 337.27 350.72 335.06 349.15C334.57 348.8 334.73 348.27 334.73 347.66C334.65 346.69 334.5 345.65 334.54 344.59Z" fill="#C4DFF8"/>
<path d="M350.7 324.04C351.51 324.76 353.19 324.15 354.01 323.74C354.996 323.143 355.837 322.333 356.47 321.37C358.643 318.615 360.669 315.748 362.54 312.78C363.45 311.27 364.72 309.92 365.34 308.3C365.359 307.665 365.264 307.032 365.06 306.43C364.92 305.84 364.27 306.09 363.79 306.25C361.11 307.19 359.1 309.47 357.23 311.56C356.52 312.36 355.96 313.27 355.23 314.08C354.106 315.295 353.071 316.588 352.13 317.95C351.407 319.076 350.854 320.302 350.49 321.59C350.233 322.257 350.188 322.986 350.36 323.68C350.54 324.08 350.85 324.25 350.7 324.04Z" fill="#EBA76C"/>
<path d="M364.69 308.9C365.254 308.355 365.608 307.629 365.69 306.85C366.214 304.41 366.571 301.938 366.76 299.45C366.99 297.45 366.76 295.33 367.18 293.29C367.6 291.25 368.5 289.53 368.72 287.57C368.927 286.223 368.782 284.845 368.3 283.57C368.248 283.461 368.171 283.366 368.074 283.293C367.978 283.221 367.865 283.173 367.745 283.154C367.626 283.135 367.504 283.146 367.39 283.186C367.275 283.225 367.173 283.292 367.09 283.38C366.927 283.551 366.783 283.739 366.66 283.94C366.478 284.495 366.337 285.064 366.24 285.64C365.93 286.64 365.45 287.64 365.24 288.64C365.128 287.978 365.128 287.302 365.24 286.64C365.242 286.594 365.228 286.549 365.2 286.513C365.171 286.476 365.131 286.452 365.086 286.443C365.04 286.435 364.994 286.443 364.954 286.466C364.914 286.489 364.885 286.526 364.87 286.57C364.554 287.499 364.313 288.452 364.15 289.42C364.01 290.42 364.52 291.68 364.41 292.66C364.22 294.4 363.49 295.66 363.03 297.34C362.26 300.12 360.9 303.1 361.15 306.05C361.21 306.79 361 308.05 361.62 308.6C362.085 308.855 362.596 309.014 363.124 309.065C363.652 309.117 364.185 309.061 364.69 308.9Z" fill="#EBA76C"/>
<path d="M333.77 331.38L333.7 331.3C333.67 331.37 333.7 331.4 333.77 331.38Z" fill="#4F4E4E"/>
<path d="M340.93 359.8C341.093 362.337 341.577 364.844 342.37 367.26C343.004 369.118 343.365 371.058 343.44 373.02C343.44 373.86 343.33 374.67 343.33 375.51C343.343 376.484 343.447 377.455 343.64 378.41C343.815 379.297 344.076 380.164 344.42 381C344.594 381.593 344.835 382.163 345.14 382.7C345.14 382.14 345.14 381.57 345.14 381C345.14 380.87 345.14 380.75 345.14 380.62C344.79 377.49 344.33 374.4 343.91 371.29C343.76 370.025 343.74 368.749 343.85 367.48C343.61 366.426 343.44 365.357 343.34 364.28C343.23 363.2 343 362.13 342.96 361.04C343.007 359.866 342.869 358.691 342.55 357.56C342.22 356.79 341.24 356.44 340.63 355.96C340.636 357.246 340.736 358.529 340.93 359.8Z" fill="#D86F13"/>
<path d="M360.57 315.62C360.205 315.19 359.811 314.786 359.39 314.41L358.06 313.16C357.815 312.924 357.539 312.722 357.24 312.56C356.91 312.37 356.33 312.26 356.12 311.96C355.89 312.12 355.34 312.71 354.94 313.04C354.309 313.509 353.711 314.02 353.15 314.57C352.497 315.232 351.791 315.841 351.04 316.39C350.15 317.132 349.093 317.647 347.96 317.89C347.79 318.24 347.63 318.59 347.45 318.94C347.274 319.27 347.055 319.576 346.8 319.85V319.93C346.785 320.479 346.735 321.027 346.65 321.57C346.461 322.103 346.426 322.678 346.55 323.23C347.099 324.41 347.897 325.458 348.89 326.3C349.926 327.39 350.857 328.575 351.67 329.84C351.79 330.02 351.9 330.22 352.01 330.41C352.072 329.934 352.2 329.47 352.39 329.03C353.015 327.734 353.912 326.588 355.02 325.67C355.118 325.601 355.226 325.547 355.34 325.51C355.74 324.87 356.15 324.24 356.56 323.6C357.27 322.48 357.67 321.3 358.27 320.16C358.65 319.42 359.17 318.8 359.59 318.07C359.856 317.528 360.157 317.004 360.49 316.5C360.78 316.1 360.91 316.06 360.57 315.62Z" fill="#C4DFF8"/>
<path d="M225.872 123V119.16H212.864V111.384L217.184 91.368H229.76L223.568 110.136H225.92L226.88 104.712L236.768 104.376V110.136H237.968V119.16H236.768V123H225.872ZM259.285 107.208C259.285 101.384 260.229 97.192 262.117 94.632C264.005 92.04 267.269 90.744 271.909 90.744C276.549 90.744 279.781 92.024 281.605 94.584C283.429 97.112 284.341 101.304 284.341 107.16C284.341 112.984 283.413 117.192 281.557 119.784C279.733 122.344 276.485 123.624 271.813 123.624C267.141 123.624 263.877 122.344 262.021 119.784C260.197 117.192 259.285 113 259.285 107.208ZM272.629 100.008C272.437 99.848 272.165 99.768 271.813 99.768C271.461 99.768 271.189 99.848 270.997 100.008C270.805 100.168 270.645 100.52 270.517 101.064C270.293 102.024 270.181 104.072 270.181 107.208C270.181 110.312 270.277 112.328 270.469 113.256C270.693 114.152 271.141 114.6 271.813 114.6C272.485 114.6 272.917 114.152 273.109 113.256C273.333 112.328 273.445 110.664 273.445 108.264C273.445 105.864 273.413 104.2 273.349 103.272C273.317 102.344 273.237 101.608 273.109 101.064C272.981 100.52 272.821 100.168 272.629 100.008ZM319.193 123V119.16H306.185V111.384L310.505 91.368H323.081L316.889 110.136H319.241L320.201 104.712L330.089 104.376V110.136H331.289V119.16H330.089V123H319.193Z" fill="#0075BF"/>
</g>
</svg>
