<svg width="50" height="50" viewBox="0 0 50 50" fill="none" xmlns="http://www.w3.org/2000/svg">
<path fill-rule="evenodd" clip-rule="evenodd" d="M16.6667 13.8021H14.1667V16.4063H16.6667V13.8021ZM13.3334 12.9341V17.2744H17.5V12.9341H13.3334Z" fill="#0075BF" stroke="#0075BF" stroke-width="0.25" stroke-linecap="round" stroke-linejoin="round"/>
<path fill-rule="evenodd" clip-rule="evenodd" d="M16.6667 19.8788H14.1667V22.483H16.6667V19.8788ZM13.3334 19.0107V23.351H17.5V19.0107H13.3334Z" fill="#0075BF" stroke="#0075BF" stroke-width="0.25" stroke-linecap="round" stroke-linejoin="round"/>
<path fill-rule="evenodd" clip-rule="evenodd" d="M24.1667 13.8021H21.6667V16.4063H24.1667V13.8021ZM20.8334 12.9341V17.2744H25V12.9341H20.8334Z" fill="#0075BF" stroke="#0075BF" stroke-width="0.25" stroke-linecap="round" stroke-linejoin="round"/>
<path fill-rule="evenodd" clip-rule="evenodd" d="M24.1667 19.8788H21.6667V22.483H24.1667V19.8788ZM20.8334 19.0107V23.351H25V19.0107H20.8334Z" fill="#0075BF" stroke="#0075BF" stroke-width="0.25" stroke-linecap="round" stroke-linejoin="round"/>
<path fill-rule="evenodd" clip-rule="evenodd" d="M31.6666 13.8021H29.1666V16.4063H31.6666V13.8021ZM28.3333 12.9341V17.2744H32.4999V12.9341H28.3333Z" fill="#0075BF" stroke="#0075BF" stroke-width="0.25" stroke-linecap="round" stroke-linejoin="round"/>
<path fill-rule="evenodd" clip-rule="evenodd" d="M31.6666 19.8788H29.1666V22.483H31.6666V19.8788ZM28.3333 19.0107V23.351H32.4999V19.0107H28.3333Z" fill="#0075BF" stroke="#0075BF" stroke-width="0.25" stroke-linecap="round" stroke-linejoin="round"/>
<path fill-rule="evenodd" clip-rule="evenodd" d="M22.9162 25.521L22.9175 25.521L22.9188 25.521L22.9231 25.521L22.9373 25.5212C22.9493 25.5213 22.9664 25.5216 22.9881 25.5222C23.0316 25.5234 23.0938 25.5256 23.1722 25.5301C23.3288 25.5391 23.5506 25.5569 23.8159 25.5923C24.3444 25.6629 25.0565 25.8048 25.7745 26.0925C26.4911 26.3796 27.2348 26.8204 27.8018 27.5018C28.3758 28.1917 28.7499 29.1067 28.7499 30.2953V30.7293H17.0833V30.2953C17.0833 29.1067 17.4574 28.1917 18.0314 27.5018C18.5984 26.8204 19.3421 26.3796 20.0587 26.0925C20.7767 25.8048 21.4888 25.6629 22.0172 25.5923C22.2826 25.5569 22.5043 25.5391 22.661 25.5301C22.7394 25.5256 22.8016 25.5234 22.8451 25.5222C22.8668 25.5216 22.8839 25.5213 22.8959 25.5212L22.9101 25.521L22.9143 25.521L22.9162 25.521ZM22.9163 26.3891L22.9152 26.3891L22.9062 26.3892C22.8977 26.3893 22.8844 26.3895 22.8664 26.39C22.8305 26.3909 22.7764 26.3929 22.7067 26.3969C22.5671 26.4049 22.3657 26.421 22.1232 26.4533C21.6361 26.5184 20.994 26.6478 20.3578 26.9027C19.7203 27.1581 19.1098 27.5311 18.6611 28.0703C18.2874 28.5195 18.013 29.0989 17.9375 29.8613H27.8957C27.8201 29.0989 27.5457 28.5195 27.172 28.0703C26.7234 27.5311 26.1129 27.1581 25.4753 26.9027C24.8392 26.6478 24.1971 26.5184 23.71 26.4533C23.4675 26.421 23.2661 26.4049 23.1265 26.3969C23.0567 26.3929 23.0026 26.3909 22.9667 26.39C22.9488 26.3895 22.9354 26.3893 22.927 26.3892L22.918 26.3891L22.9163 26.3891Z" fill="#0075BF"/>
<path d="M22.9166 25.955C22.9166 25.521 22.9164 25.521 22.9162 25.521M22.9162 25.521L22.9175 25.521L22.9188 25.521L22.9231 25.521L22.9373 25.5212C22.9493 25.5213 22.9664 25.5216 22.9881 25.5222C23.0316 25.5234 23.0938 25.5256 23.1722 25.5301C23.3288 25.5391 23.5506 25.5569 23.8159 25.5923C24.3444 25.6629 25.0565 25.8048 25.7745 26.0925C26.4911 26.3796 27.2348 26.8204 27.8018 27.5018C28.3758 28.1917 28.7499 29.1067 28.7499 30.2953V30.7293H17.0833V30.2953C17.0833 29.1067 17.4574 28.1917 18.0314 27.5018C18.5984 26.8204 19.3421 26.3796 20.0587 26.0925C20.7767 25.8048 21.4888 25.6629 22.0172 25.5923C22.2826 25.5569 22.5043 25.5391 22.661 25.5301C22.7394 25.5256 22.8016 25.5234 22.8451 25.5222C22.8668 25.5216 22.8839 25.5213 22.8959 25.5212L22.9101 25.521L22.9143 25.521L22.9162 25.521ZM22.9163 26.3891L22.9152 26.3891L22.9062 26.3892C22.8977 26.3893 22.8844 26.3895 22.8664 26.39C22.8305 26.3909 22.7764 26.3929 22.7067 26.3969C22.5671 26.4049 22.3657 26.421 22.1232 26.4533C21.6361 26.5184 20.994 26.6478 20.3578 26.9027C19.7203 27.1581 19.1098 27.5311 18.6611 28.0703C18.2874 28.5195 18.013 29.0989 17.9375 29.8613H27.8957C27.8201 29.0989 27.5457 28.5195 27.172 28.0703C26.7234 27.5311 26.1129 27.1581 25.4753 26.9027C24.8392 26.6478 24.1971 26.5184 23.71 26.4533C23.4675 26.421 23.2661 26.4049 23.1265 26.3969C23.0567 26.3929 23.0026 26.3909 22.9667 26.39C22.9488 26.3895 22.9354 26.3893 22.927 26.3892L22.918 26.3891L22.9163 26.3891Z" stroke="#0075BF" stroke-width="0.25" stroke-linecap="round" stroke-linejoin="round"/>
<path fill-rule="evenodd" clip-rule="evenodd" d="M37.6098 32.244C37.6098 31.9777 37.3939 31.7617 37.1275 31.7617C36.8611 31.7617 36.6452 31.9777 36.6452 32.244V35.62H33.2766C33.0109 35.62 32.7954 35.8359 32.7954 36.1023C32.7954 36.3686 33.0109 36.5846 33.2766 36.5846H36.6452V39.9608C36.6452 40.2271 36.8611 40.4431 37.1275 40.4431C37.3939 40.4431 37.6098 40.2271 37.6098 39.9608V36.5846H40.9759C41.2417 36.5846 41.4571 36.3686 41.4571 36.1023C41.4571 35.8359 41.2417 35.62 40.9759 35.62H37.6098V32.244Z" fill="#0075BF"/>
<path fill-rule="evenodd" clip-rule="evenodd" d="M37.1264 42.9506C40.9002 42.9506 43.9595 39.8844 43.9595 36.102C43.9595 32.3196 40.9002 29.2534 37.1264 29.2534C33.3526 29.2534 30.2933 32.3196 30.2933 36.102C30.2933 39.8844 33.3526 42.9506 37.1264 42.9506ZM37.1264 43.8187C41.3786 43.8187 44.8257 40.3638 44.8257 36.102C44.8257 31.8402 41.3786 28.3853 37.1264 28.3853C32.8742 28.3853 29.4271 31.8402 29.4271 36.102C29.4271 40.3638 32.8742 43.8187 37.1264 43.8187Z" fill="#0075BF"/>
<path fill-rule="evenodd" clip-rule="evenodd" d="M39.5833 7.2915H6.25V11.6318H7.91667V34.2012H6.25V38.5415H20.4167V33.3332H25.4167V38.5415H29.8258C29.7325 38.259 29.6551 37.9693 29.5946 37.6734H26.25V32.4651H19.5833V37.6734H7.08333V35.0693H8.75V10.7637H7.08333V8.15956H38.75V10.7637H37.0833V28.3958C37.1007 28.3957 37.118 28.3957 37.1354 28.3957C37.3991 28.3957 37.6598 28.409 37.9167 28.4349V11.6318H39.5833V7.2915Z" fill="#0075BF"/>
<path d="M6.25 7.2915V7.1665C6.18096 7.1665 6.125 7.22247 6.125 7.2915H6.25ZM39.5833 7.2915H39.7083C39.7083 7.22247 39.6524 7.1665 39.5833 7.1665V7.2915ZM6.25 11.6318H6.125C6.125 11.7008 6.18096 11.7568 6.25 11.7568V11.6318ZM7.91667 11.6318H8.04167C8.04167 11.5627 7.9857 11.5068 7.91667 11.5068V11.6318ZM7.91667 34.2012V34.3262C7.9857 34.3262 8.04167 34.2703 8.04167 34.2012H7.91667ZM6.25 34.2012V34.0762C6.18096 34.0762 6.125 34.1322 6.125 34.2012H6.25ZM6.25 38.5415H6.125C6.125 38.6105 6.18096 38.6665 6.25 38.6665V38.5415ZM20.4167 38.5415V38.6665C20.4857 38.6665 20.5417 38.6105 20.5417 38.5415H20.4167ZM20.4167 33.3332V33.2082C20.3476 33.2082 20.2917 33.2641 20.2917 33.3332H20.4167ZM25.4167 33.3332H25.5417C25.5417 33.2641 25.4857 33.2082 25.4167 33.2082V33.3332ZM25.4167 38.5415H25.2917C25.2917 38.6105 25.3476 38.6665 25.4167 38.6665V38.5415ZM29.8258 38.5415V38.6665C29.8659 38.6665 29.9036 38.6472 29.9271 38.6147C29.9506 38.5822 29.957 38.5404 29.9445 38.5023L29.8258 38.5415ZM29.5946 37.6734L29.7171 37.6484C29.7052 37.5902 29.654 37.5484 29.5946 37.5484V37.6734ZM26.25 37.6734H26.125C26.125 37.7425 26.181 37.7984 26.25 37.7984V37.6734ZM26.25 32.4651H26.375C26.375 32.3961 26.319 32.3401 26.25 32.3401V32.4651ZM19.5833 32.4651V32.3401C19.5143 32.3401 19.4583 32.3961 19.4583 32.4651H19.5833ZM19.5833 37.6734V37.7984C19.6524 37.7984 19.7083 37.7425 19.7083 37.6734H19.5833ZM7.08333 37.6734H6.95833C6.95833 37.7425 7.0143 37.7984 7.08333 37.7984V37.6734ZM7.08333 35.0693V34.9443C7.0143 34.9443 6.95833 35.0002 6.95833 35.0693H7.08333ZM8.75 35.0693V35.1943C8.81904 35.1943 8.875 35.1383 8.875 35.0693H8.75ZM8.75 10.7637H8.875C8.875 10.6947 8.81904 10.6387 8.75 10.6387V10.7637ZM7.08333 10.7637H6.95833C6.95833 10.8328 7.0143 10.8887 7.08333 10.8887V10.7637ZM7.08333 8.15956V8.03456C7.0143 8.03456 6.95833 8.09052 6.95833 8.15956H7.08333ZM38.75 8.15956H38.875C38.875 8.09052 38.819 8.03456 38.75 8.03456V8.15956ZM38.75 10.7637V10.8887C38.819 10.8887 38.875 10.8328 38.875 10.7637H38.75ZM37.0833 10.7637V10.6387C37.0143 10.6387 36.9583 10.6947 36.9583 10.7637H37.0833ZM37.0833 28.3958H36.9583C36.9583 28.4291 36.9716 28.4611 36.9952 28.4845C37.0189 28.508 37.0509 28.5211 37.0842 28.5208L37.0833 28.3958ZM37.9167 28.4349L37.9041 28.5593C37.9393 28.5628 37.9743 28.5514 38.0005 28.5277C38.0267 28.504 38.0417 28.4703 38.0417 28.4349H37.9167ZM37.9167 11.6318V11.5068C37.8476 11.5068 37.7917 11.5627 37.7917 11.6318H37.9167ZM39.5833 11.6318V11.7568C39.6524 11.7568 39.7083 11.7008 39.7083 11.6318H39.5833ZM6.25 7.4165H39.5833V7.1665H6.25V7.4165ZM6.375 11.6318V7.2915H6.125V11.6318H6.375ZM7.91667 11.5068H6.25V11.7568H7.91667V11.5068ZM8.04167 34.2012V11.6318H7.79167V34.2012H8.04167ZM6.25 34.3262H7.91667V34.0762H6.25V34.3262ZM6.375 38.5415V34.2012H6.125V38.5415H6.375ZM20.4167 38.4165H6.25V38.6665H20.4167V38.4165ZM20.2917 33.3332V38.5415H20.5417V33.3332H20.2917ZM25.4167 33.2082H20.4167V33.4582H25.4167V33.2082ZM25.5417 38.5415V33.3332H25.2917V38.5415H25.5417ZM29.8258 38.4165H25.4167V38.6665H29.8258V38.4165ZM29.9445 38.5023C29.8528 38.2245 29.7766 37.9395 29.7171 37.6484L29.4721 37.6985C29.5336 37.9992 29.6123 38.2936 29.7071 38.5807L29.9445 38.5023ZM26.25 37.7984H29.5946V37.5484H26.25V37.7984ZM26.125 32.4651V37.6734H26.375V32.4651H26.125ZM19.5833 32.5901H26.25V32.3401H19.5833V32.5901ZM19.7083 37.6734V32.4651H19.4583V37.6734H19.7083ZM7.08333 37.7984H19.5833V37.5484H7.08333V37.7984ZM6.95833 35.0693V37.6734H7.20833V35.0693H6.95833ZM8.75 34.9443H7.08333V35.1943H8.75V34.9443ZM8.625 10.7637V35.0693H8.875V10.7637H8.625ZM7.08333 10.8887H8.75V10.6387H7.08333V10.8887ZM6.95833 8.15956V10.7637H7.20833V8.15956H6.95833ZM38.75 8.03456H7.08333V8.28456H38.75V8.03456ZM38.875 10.7637V8.15956H38.625V10.7637H38.875ZM37.0833 10.8887H38.75V10.6387H37.0833V10.8887ZM37.2083 28.3958V10.7637H36.9583V28.3958H37.2083ZM37.0842 28.5208C37.1012 28.5207 37.1183 28.5207 37.1354 28.5207V28.2707C37.1178 28.2707 37.1001 28.2707 37.0825 28.2708L37.0842 28.5208ZM37.1354 28.5207C37.3949 28.5207 37.6514 28.5338 37.9041 28.5593L37.9292 28.3106C37.6682 28.2842 37.4034 28.2707 37.1354 28.2707V28.5207ZM37.7917 11.6318V28.4349H38.0417V11.6318H37.7917ZM39.5833 11.5068H37.9167V11.7568H39.5833V11.5068ZM39.4583 7.2915V11.6318H39.7083V7.2915H39.4583Z" fill="#0075BF"/>
</svg>
