<svg width="22" height="19" viewBox="0 0 22 19" fill="none" xmlns="http://www.w3.org/2000/svg">
<path d="M5.56654 5.6406C5.51377 5.69238 5.47186 5.75417 5.44324 5.82233C5.41463 5.8905 5.39989 5.96369 5.39989 6.03762C5.39989 6.11155 5.41463 6.18474 5.44324 6.25291C5.47186 6.32108 5.51377 6.38286 5.56654 6.43464C5.61753 6.48735 5.67859 6.52925 5.7461 6.55787C5.81362 6.58649 5.8862 6.60124 5.95952 6.60124C6.03285 6.60124 6.10543 6.58649 6.17294 6.55787C6.24046 6.52925 6.30152 6.48735 6.35251 6.43464L10.3788 2.41599L10.3788 15.6944C10.3782 15.768 10.3921 15.8409 10.4197 15.9091C10.4473 15.9772 10.4881 16.0393 10.5397 16.0917C10.5914 16.144 10.6528 16.1857 10.7206 16.2143C10.7884 16.2429 10.8611 16.2579 10.9347 16.2583C11.084 16.2577 11.2271 16.1981 11.3327 16.0925C11.4384 15.9869 11.498 15.8438 11.4986 15.6944L11.4986 2.41599L15.5168 6.43464C15.6222 6.53943 15.7648 6.59815 15.9135 6.59793C16.0621 6.59771 16.2046 6.53857 16.3097 6.43348C16.4148 6.32838 16.4739 6.18591 16.4741 6.03728C16.4743 5.88865 16.4156 5.74601 16.3108 5.6406L11.3314 0.661232C11.1168 0.446539 10.7595 0.446539 10.5374 0.661232L5.56648 5.6406H5.56654Z" fill="white"/>
<path d="M20.2504 12.4725C20.2499 12.3994 20.264 12.3269 20.2917 12.2592C20.3195 12.1916 20.3604 12.1301 20.4121 12.0784C20.4638 12.0267 20.5253 11.9857 20.5929 11.9579C20.6606 11.9302 20.7331 11.9161 20.8062 11.9165C20.8798 11.9159 20.9527 11.9298 21.0209 11.9575C21.089 11.9851 21.1511 12.0259 21.2035 12.0775C21.2559 12.1292 21.2975 12.1907 21.3261 12.2584C21.3547 12.3262 21.3697 12.3989 21.3701 12.4725V17.9362C21.3695 18.0856 21.3099 18.2287 21.2043 18.3343C21.0987 18.4399 20.9556 18.4995 20.8062 18.5001H1.05589C0.982341 18.4996 0.909603 18.4847 0.841841 18.4561C0.774078 18.4275 0.712621 18.3858 0.660988 18.3334C0.609355 18.2811 0.56856 18.219 0.540938 18.1508C0.513317 18.0827 0.499412 18.0097 0.500019 17.9362V12.4725C0.499562 12.3994 0.513627 12.3269 0.541399 12.2592C0.569171 12.1916 0.610097 12.1301 0.661804 12.0784C0.713511 12.0267 0.774971 11.9857 0.842619 11.9579C0.910267 11.9302 0.982759 11.9161 1.05589 11.9165C1.12944 11.9159 1.20239 11.9298 1.27055 11.9575C1.33872 11.9851 1.40077 12.0259 1.45314 12.0776C1.50552 12.1292 1.5472 12.1907 1.57579 12.2584C1.60438 12.3262 1.61933 12.3989 1.61977 12.4725V17.3803H20.2504V12.4725H20.2504Z" fill="white"/>
</svg>
