<svg width="20" height="24" viewBox="0 0 20 24" fill="none" xmlns="http://www.w3.org/2000/svg">
<path d="M19.2 3.53599C19.2 1.56799 17.6627 0 15.7411 0H3.45889C1.53729 0 0 1.58399 0 3.53599V20.48C0 22.416 1.53729 24 3.45889 24H12.8267H12.9388C12.9708 24 12.9708 24 13.0028 23.968C13.0349 23.968 13.0349 23.968 13.0669 23.936C13.0989 23.936 13.0989 23.904 13.1309 23.904C13.1309 23.904 13.163 23.904 13.163 23.872L13.243 23.776L19.0078 17.888C19.0078 17.888 19.0078 17.856 19.0399 17.856L19.1039 17.792C19.1039 17.76 19.1359 17.76 19.1359 17.728C19.1359 17.696 19.168 17.696 19.168 17.664C19.168 17.632 19.168 17.632 19.2 17.6V17.536V17.424V3.48799V3.53599ZM1.13693 20.464V3.552C1.13693 2.272 2.19382 1.18403 3.44286 1.18403H15.7251C17.0061 1.18403 18.031 2.24 18.031 3.552V16.96H14.2679C13.163 16.96 12.2342 17.904 12.2342 19.008V22.848H3.44286C2.19382 22.832 1.13693 21.776 1.13693 20.464ZM17.2144 18.112L13.4352 21.968V18.976C13.4352 18.48 13.8195 18.096 14.2999 18.096H17.2144V18.112Z" fill="#000000"/>
<path d="M4.7998 13.4402H14.3998M4.7998 6.72021H14.3998H4.7998ZM4.7998 10.0802H14.3998H4.7998Z" stroke="#000000" stroke-width="0.75"/>
</svg>
