<svg width="22" height="21" viewBox="0 0 22 21" fill="none" xmlns="http://www.w3.org/2000/svg">
<path d="M16.6593 10.9888C16.8935 10.7589 16.8935 10.397 16.6593 10.167C16.433 9.93714 16.0565 9.93714 15.8308 10.167L11.5865 14.3262L11.5865 0.58359C11.5865 0.263055 11.327 0 11.0005 0C10.674 0 10.4061 0.263055 10.4061 0.58359L10.4061 14.3262L6.17036 10.167C5.9362 9.93714 5.55908 9.93714 5.33332 10.167C5.09917 10.397 5.09917 10.7589 5.33332 10.9888L10.5823 16.1423C10.8085 16.3645 11.1851 16.3645 11.4193 16.1423L16.6593 10.9888ZM20.8196 14.7618C20.8196 14.4412 21.0791 14.1864 21.4056 14.1864C21.7321 14.1864 22 14.4412 22 14.7618V20.4164C22 20.7369 21.732 21 21.4056 21L0.585965 21C0.259488 21 0 20.7369 0 20.4164L0 14.7618C0 14.4412 0.259488 14.1864 0.585965 14.1864C0.912441 14.1864 1.18037 14.4412 1.18037 14.7618L1.18037 19.8411L20.8196 19.8411L20.8196 14.7618Z" fill="black"/>
</svg>
