<svg width="24" height="24" viewBox="0 0 24 24" fill="none" xmlns="http://www.w3.org/2000/svg">
<path d="M11.8914 13.1131L12.0983 12.8004L11.8878 12.6612L11.6796 12.8037L11.8914 13.1131ZM14.0744 14.3679C13.9034 14.4846 13.8594 14.7179 13.9761 14.889C14.0929 15.0601 14.3262 15.1041 14.4972 14.9873L14.0744 14.3679ZM21.7427 10.0422C21.9138 9.92544 21.9578 9.69212 21.8411 9.52106C21.7243 9.35 21.491 9.30597 21.32 9.42272L21.7427 10.0422ZM2.03826 8.49998C1.86733 8.61692 1.82356 8.85028 1.9405 9.02122C2.05743 9.19215 2.2908 9.23593 2.46174 9.11899L2.03826 8.49998ZM10.0276 3.48878L9.83202 3.1688C9.82654 3.17215 9.82114 3.17564 9.81583 3.17927L10.0276 3.48878ZM11.8741 3.37866C12.0812 3.37867 12.2491 3.21078 12.2491 3.00368C12.2491 2.79657 12.0813 2.62867 11.8742 2.62866L11.8741 3.37866ZM21.5296 8.80948H21.9046C21.9046 8.60238 21.7367 8.43448 21.5296 8.43448V8.80948ZM2.26566 8.80948V8.43448C2.05856 8.43448 1.89066 8.60238 1.89066 8.80948H2.26566ZM11.8337 2.64444C11.6267 2.64949 11.4629 2.82142 11.468 3.02847C11.473 3.23552 11.645 3.39926 11.852 3.39421L11.8337 2.64444ZM13.6894 3.50444L13.9012 3.19494C13.8972 3.1922 13.8931 3.18954 13.889 3.18695L13.6894 3.50444ZM21.2553 9.13465C21.4262 9.25159 21.6596 9.20782 21.7765 9.03688C21.8934 8.86595 21.8497 8.63258 21.6787 8.51564L21.2553 9.13465ZM21.8945 19.2791L12.0983 12.8004L11.6845 13.4259L21.4808 19.9046L21.8945 19.2791ZM11.6796 12.8037L2.21194 19.2824L2.63549 19.9013L12.1032 13.4226L11.6796 12.8037ZM14.4972 14.9873L21.7427 10.0422L21.32 9.42272L14.0744 14.3679L14.4972 14.9873ZM2.04336 10.0454L9.46098 14.9435L9.87426 14.3177L2.45664 9.41953L2.04336 10.0454ZM2.46174 9.11899L10.2393 3.79828L9.81583 3.17927L2.03826 8.49998L2.46174 9.11899ZM10.2231 3.80876C10.4891 3.64622 10.6989 3.54384 10.9346 3.47845C11.1723 3.41249 11.4563 3.37864 11.8741 3.37866L11.8742 2.62866C11.4179 2.62864 11.0603 2.66522 10.734 2.75576C10.4058 2.84686 10.1294 2.98706 9.83202 3.1688L10.2231 3.80876ZM21.1546 8.80948V18.6214H21.9046V8.80948H21.1546ZM21.1546 18.6214C21.1546 19.7288 20.2583 20.625 19.1509 20.625V21.375C20.6726 21.375 21.9046 20.143 21.9046 18.6214H21.1546ZM19.1509 20.625H4.6443V21.375H19.1509V20.625ZM4.6443 20.625C3.5369 20.625 2.64066 19.7288 2.64066 18.6214H1.89066C1.89066 20.143 3.12266 21.375 4.6443 21.375V20.625ZM2.64066 18.6214V8.80948H1.89066V18.6214H2.64066ZM2.26566 9.18448H21.5296V8.43448H2.26566V9.18448ZM11.852 3.39421C12.4293 3.38013 13.0121 3.52162 13.4899 3.82193L13.889 3.18695C13.2713 2.79871 12.5396 2.62722 11.8337 2.64444L11.852 3.39421ZM13.4777 3.81395L21.2553 9.13465L21.6787 8.51564L13.9012 3.19494L13.4777 3.81395Z" fill="#0075BF"/>
</svg>
