<svg width="21" height="21" viewBox="0 0 21 21" fill="none" xmlns="http://www.w3.org/2000/svg">
<path d="M10.5168 20.9999C8.43937 21.0032 6.40765 20.3902 4.67872 19.2385C2.9498 18.0868 1.60141 16.4481 0.804108 14.5298C0.00680685 12.6115 -0.203529 10.4997 0.199709 8.46184C0.602946 6.42394 1.60164 4.55148 3.06941 3.08134C4.53718 1.61121 6.40803 0.609513 8.44528 0.203002C10.4825 -0.203509 12.5946 0.00341056 14.5142 0.797629C16.4338 1.59185 18.0747 2.93767 19.2292 4.66474C20.3837 6.39181 20.9999 8.4225 20.9999 10.4999C21.0088 11.8799 20.7439 13.2479 20.2204 14.5247C19.697 15.8016 18.9254 16.9619 17.9504 17.9385C16.9754 18.9151 15.8163 19.6885 14.5403 20.214C13.2643 20.7395 11.8967 21.0066 10.5168 20.9999ZM7.88758 8.62916V10.3145H9.11793V15.3707H11.4269V10.3145H12.9606L13.1628 8.62916H11.4775V7.63479C11.4775 7.16288 11.5954 6.96064 12.3033 6.96064H13.1123V5.27526H11.5786C11.2583 5.20312 10.9253 5.2087 10.6076 5.29161C10.2899 5.37452 9.99669 5.53232 9.75247 5.75179C9.50825 5.97126 9.32014 6.24601 9.20388 6.55308C9.08761 6.86015 9.04656 7.19062 9.08419 7.5168V8.62916H7.85389H7.88758Z" fill="white"/>
</svg>
