<!-- Generated by IcoMoon.io -->
<svg version="1.1" xmlns="http://www.w3.org/2000/svg" width="50" height="50" viewBox="0 0 32 32">
<title>icon-gestione_delegati</title>
<path d="M17.793 14.876c0.631 0.228 1.213 0.574 1.72 1.014 0.359-0.324 0.77-0.585 1.216-0.77-0.593-0.509-0.924-1.264-0.924-2.049 0-1.41 1.075-2.65 2.517-2.65s2.518 1.24 2.518 2.65c0 0.783-0.333 1.539-0.924 2.048 1.696 0.703 2.751 2.423 2.751 4.255v0.291c0 0.067-0.055 0.124-0.123 0.124h-5.026c0.022 0.212 0.034 0.426 0.034 0.639v0.3c0 1.304-0.996 2.451-2.33 2.451h-6.477c-1.333 0-2.329-1.148-2.329-2.451v-0.3c0-0.213 0.012-0.427 0.034-0.639h-4.993c-0.068 0-0.123-0.057-0.123-0.124v-0.291c0-1.829 1.052-3.548 2.746-4.251-0.593-0.508-0.924-1.264-0.924-2.048 0-1.41 1.075-2.649 2.517-2.649s2.517 1.24 2.517 2.649c0 0.783-0.333 1.539-0.924 2.048 0.439 0.182 0.843 0.439 1.2 0.755 0.503-0.432 1.077-0.774 1.699-1.001-0.859-0.632-1.347-1.658-1.347-2.727 0-1.767 1.352-3.328 3.161-3.328 1.811 0 3.161 1.559 3.161 3.328 0 1.068-0.49 2.093-1.347 2.727zM20.686 13.066c0 0.905 0.676 1.715 1.603 1.732 0.011 0 0.022 0 0.033 0s0.023 0 0.032 0c0.923-0.021 1.605-0.829 1.605-1.732 0-0.915-0.698-1.732-1.637-1.732s-1.636 0.817-1.636 1.732zM13.69 12.15c0 1.223 0.898 2.332 2.144 2.407 0.046 0 0.090 0 0.136 0s0.090 0 0.133 0c1.249-0.075 2.147-1.183 2.147-2.407 0-1.275-0.973-2.411-2.281-2.411s-2.28 1.136-2.28 2.411zM8.023 13.066c0 0.904 0.679 1.715 1.604 1.732 0.011 0 0.022 0 0.033 0s0.022 0 0.031 0c0.923-0.021 1.606-0.829 1.606-1.732 0-0.915-0.698-1.732-1.636-1.732s-1.637 0.817-1.637 1.732zM11.814 16.515c-0.597-0.505-1.34-0.796-2.129-0.8-0.008 0-0.016 0-0.025 0s-0.016 0-0.024 0c-1.779 0.013-3.174 1.432-3.401 3.152h4.366c0.224-0.862 0.637-1.671 1.212-2.352zM20.662 20.728v-0.3c0-2.566-1.92-4.87-4.539-4.95-0.050 0.004-0.098 0.004-0.148 0.004s-0.098 0-0.142-0.004c-2.625 0.080-4.545 2.384-4.545 4.95v0.3c0 0.809 0.618 1.534 1.448 1.534h6.477c0.831 0 1.449-0.724 1.449-1.534zM21.348 18.867h4.4c-0.227-1.72-1.621-3.139-3.401-3.152-0.008 0-0.016 0-0.025 0s-0.016 0-0.023 0c-0.799 0.008-1.55 0.3-2.151 0.817 0.57 0.68 0.976 1.476 1.2 2.335z" fill="#0075BF"></path>
</svg>
