<!-- Generated by IcoMoon.io -->
<svg version="1.1" xmlns="http://www.w3.org/2000/svg" width="50" height="50" viewBox="0 0 32 32">
<title>icon-link_esterno</title>
<path d="M5.831 5.333h0c0.057 0 0.112 0.010 0.163 0.028h9.507c0.274 0 0.498 0.224 0.498 0.498v0c0 0.274-0.224 0.498-0.498 0.498h-9.172v19.312h19.34v-9.172c0-0.274 0.224-0.498 0.498-0.498h0c0.274 0 0.498 0.224 0.498 0.498v9.67c0 0.274-0.224 0.498-0.498 0.498h-20.337c-0.274 0-0.498-0.224-0.498-0.498v-20.336c0-0.274 0.224-0.498 0.498-0.498zM26.181 5.334l0.013 0 0.011 0.001 0.002 0 0.013 0.001 0.009 0.001 0.003 0 0.009 0.001 0.004 0.001 0.008 0.001 0.004 0.001 0.008 0.001 0.004 0.001 0.012 0.003 0.007 0.002 0.004 0.001 0.001 0 0.003 0.001 0.008 0.002 0.001 0 0.011 0.003 0.001 0 0.003 0.001 0.004 0.001c0.073 0.023 0.141 0.064 0.198 0.121v0c0.053 0.053 0.091 0.115 0.115 0.182l0 0 0.001 0.004 0.002 0.004 0.001 0.004 0 0 0.003 0.008 0.001 0.004v0l0.001 0.004 0.001 0.004 0.001 0.004v0l0.001 0.004 0.001 0.004 0.001 0.004 0.002 0.005 0.002 0.007 0.003 0.012 0.001 0.004 0.001 0.008 0.001 0.004 0.001 0.008 0.001 0.004 0.001 0.009 0 0.003 0.001 0.009 0.001 0.013 0 0.002 0.001 0.011 0 0.013v0l0 0.012v4.338c0 0.274-0.224 0.498-0.498 0.498h-0c-0.274 0-0.498-0.224-0.498-0.498v-3.134l-5.987 5.987c-0.194 0.194-0.511 0.194-0.704 0h-0c-0.194-0.194-0.194-0.511 0-0.705l5.987-5.987h-3.134c-0.274 0-0.498-0.224-0.498-0.498v-0c0-0.274 0.224-0.498 0.498-0.498l4.35 0z" fill="#0075BF"></path>
</svg>
