<!-- Generated by IcoMoon.io -->
<svg version="1.1" xmlns="http://www.w3.org/2000/svg" width="50" height="50" viewBox="0 0 32 32">
<title>icon-configurazione_evento</title>
<path d="M17.873 7.593h-6.666v0.809c0.418 0.113 0.787 0.367 1.037 0.722 0.255 0.362 0.368 0.807 0.311 1.247-0.057 0.442-0.278 0.845-0.616 1.135-0.342 0.294-0.781 0.453-1.232 0.453s-0.89-0.16-1.232-0.453c-0.338-0.29-0.559-0.693-0.616-1.135-0.056-0.439 0.056-0.885 0.311-1.247 0.25-0.355 0.619-0.609 1.038-0.722v-0.809l-2.685-0.001c-0.165 0.002-0.329 0.019-0.481 0.083-0.151 0.063-0.289 0.155-0.405 0.271-0.114 0.115-0.206 0.25-0.267 0.4-0.061 0.148-0.091 0.308-0.089 0.469v3.8h17.465v-3.817c-0.002-0.161-0.038-0.319-0.102-0.466-0.066-0.148-0.161-0.282-0.278-0.393-0.119-0.113-0.26-0.201-0.413-0.26-0.154-0.060-0.319-0.089-0.485-0.087h-2.451v0.809c0.418 0.113 0.787 0.367 1.038 0.722 0.255 0.362 0.368 0.807 0.311 1.247-0.057 0.442-0.278 0.845-0.616 1.135-0.342 0.294-0.782 0.453-1.233 0.453s-0.89-0.159-1.232-0.453c-0.338-0.29-0.56-0.692-0.616-1.135-0.056-0.44 0.057-0.885 0.311-1.247 0.25-0.355 0.619-0.609 1.037-0.722v-0.809h-1.142zM21.661 26.662h-0.667c-0.539 0-0.978-0.439-0.978-0.978v-0.226c-0.229-0.073-0.452-0.166-0.666-0.276l-0.16 0.16c-0.387 0.387-1.007 0.376-1.383-0l-0.471-0.471c-0.376-0.376-0.387-0.996 0-1.383l0.16-0.16c-0.111-0.214-0.203-0.436-0.276-0.666h-0.226c-0.539 0-0.978-0.439-0.978-0.978v-0.667c0-0.539 0.439-0.978 0.978-0.978h0.226c0.073-0.229 0.166-0.452 0.276-0.666l-0.16-0.16c-0.387-0.387-0.377-1.007 0-1.383l0.471-0.471c0.377-0.377 0.996-0.387 1.383 0l0.16 0.16c0.214-0.111 0.437-0.203 0.666-0.276v-0.226c0-0.539 0.439-0.978 0.978-0.978h0.667c0.539 0 0.978 0.439 0.978 0.978v0.226c0.229 0.073 0.452 0.166 0.666 0.276l0.16-0.16c0.387-0.388 1.007-0.376 1.383 0l0.471 0.471c0.377 0.376 0.387 0.996-0 1.383l-0.16 0.16c0.11 0.214 0.203 0.436 0.276 0.666h0.226c0.539 0 0.978 0.439 0.978 0.978v0.667c0 0.539-0.439 0.978-0.978 0.978h-0.226c-0.073 0.229-0.166 0.452-0.276 0.666l0.16 0.16c0.387 0.387 0.377 1.007-0 1.383l-0.471 0.471c-0.377 0.377-0.996 0.387-1.383-0l-0.16-0.16c-0.214 0.11-0.437 0.203-0.666 0.276v0.226c0 0.539-0.439 0.978-0.978 0.978zM19.455 24.529c0.297 0.176 0.617 0.308 0.951 0.394 0.137 0.035 0.234 0.159 0.234 0.301v0.46c0 0.196 0.159 0.355 0.355 0.355h0.667c0.196 0 0.355-0.159 0.355-0.355v-0.46c0-0.142 0.096-0.266 0.233-0.301 0.334-0.086 0.653-0.219 0.951-0.394 0.122-0.073 0.278-0.053 0.378 0.048l0.325 0.325c0.14 0.141 0.366 0.137 0.503 0l0.471-0.471c0.136-0.136 0.141-0.362 0-0.503l-0.326-0.326c-0.1-0.1-0.12-0.256-0.048-0.378 0.176-0.297 0.308-0.617 0.394-0.951 0.035-0.137 0.159-0.233 0.301-0.233h0.46c0.196 0 0.355-0.16 0.355-0.355v-0.667c0-0.196-0.159-0.355-0.355-0.355h-0.46c-0.142 0-0.266-0.096-0.301-0.234-0.086-0.334-0.219-0.653-0.394-0.951-0.073-0.122-0.053-0.278 0.048-0.378l0.326-0.325c0.14-0.14 0.137-0.366 0-0.502l-0.471-0.471c-0.137-0.137-0.362-0.141-0.503-0l-0.326 0.326c-0.1 0.101-0.256 0.12-0.378 0.048-0.297-0.176-0.617-0.309-0.951-0.395-0.137-0.036-0.233-0.16-0.233-0.301v-0.459c0-0.196-0.16-0.356-0.355-0.356h-0.667c-0.196 0-0.355 0.16-0.355 0.356v0.459c0 0.142-0.096 0.266-0.234 0.301-0.334 0.086-0.653 0.219-0.951 0.395-0.122 0.072-0.278 0.052-0.379-0.048l-0.325-0.325c-0.14-0.141-0.366-0.137-0.502-0l-0.471 0.471c-0.137 0.137-0.141 0.362-0 0.502l0.326 0.326c0.1 0.101 0.12 0.256 0.048 0.378-0.176 0.297-0.309 0.617-0.395 0.951-0.036 0.137-0.16 0.234-0.301 0.234h-0.459c-0.196 0-0.356 0.159-0.356 0.355v0.667c0 0.196 0.16 0.355 0.356 0.355h0.459c0.142 0 0.266 0.096 0.301 0.233 0.086 0.334 0.219 0.653 0.394 0.951 0.073 0.122 0.053 0.278-0.048 0.378l-0.325 0.325c-0.141 0.141-0.137 0.366-0 0.503l0.471 0.471c0.137 0.137 0.362 0.141 0.502 0l0.326-0.326c0.074-0.074 0.228-0.137 0.379-0.048zM21.328 23.712c-1.302 0-2.36-1.059-2.36-2.36s1.059-2.36 2.36-2.36c1.302 0 2.36 1.059 2.36 2.36s-1.059 2.36-2.36 2.36zM21.328 19.627c-0.951 0-1.725 0.774-1.725 1.725s0.774 1.725 1.725 1.725c0.951 0 1.725-0.774 1.725-1.725s-0.774-1.725-1.725-1.725zM8.857 6.6h1.35v-0.784c0-0.128 0.052-0.25 0.144-0.339 0.069-0.067 0.156-0.112 0.25-0.13v-0.002l0.054-0.007c0.074-0.009 0.15-0.002 0.221 0.021s0.137 0.062 0.19 0.115c0.053 0.052 0.094 0.115 0.118 0.185s0.032 0.143 0.022 0.212v0.73h7.808v-0.784c0-0.128 0.053-0.25 0.145-0.339 0.069-0.067 0.156-0.112 0.249-0.13l-0-0.002 0.054-0.007c0.074-0.009 0.15-0.002 0.222 0.021 0.071 0.023 0.136 0.062 0.19 0.115s0.094 0.115 0.118 0.185c0.025 0.070 0.032 0.143 0.022 0.212v0.729h2.451v0.018c0.594 0 1.166 0.234 1.592 0.647 0.42 0.407 0.668 0.963 0.668 1.55v7.327c-0.301-0.090-0.62-0.106-0.928-0.050v-2.502h-17.518v8.957c0.002 0.16 0.037 0.319 0.102 0.465 0.066 0.148 0.16 0.282 0.278 0.393 0.119 0.112 0.26 0.2 0.413 0.259s0.319 0.090 0.484 0.087h8.524c-0.070 0.322-0.060 0.657 0.030 0.975h-8.5c-0.599 0-1.18-0.23-1.61-0.648-0.424-0.412-0.668-0.974-0.668-1.567v-13.696c0-0.589 0.251-1.147 0.675-1.555 0.39-0.376 0.909-0.622 1.446-0.659h1.403zM19.452 9.311c-0.217 0-0.429 0.084-0.585 0.236-0.153 0.149-0.242 0.351-0.242 0.566 0 0.159 0.048 0.314 0.139 0.445 0.092 0.133 0.221 0.235 0.371 0.295 0.151 0.061 0.318 0.077 0.479 0.046 0.159-0.031 0.307-0.107 0.423-0.22 0.115-0.112 0.194-0.254 0.226-0.41 0.032-0.155 0.016-0.317-0.046-0.462-0.063-0.148-0.17-0.272-0.304-0.36-0.137-0.089-0.297-0.135-0.46-0.135zM10.644 9.311c-0.218 0-0.429 0.083-0.585 0.236-0.153 0.149-0.242 0.352-0.242 0.566 0 0.159 0.049 0.314 0.139 0.445 0.092 0.133 0.221 0.235 0.371 0.295 0.151 0.061 0.319 0.077 0.479 0.046s0.307-0.107 0.423-0.22c0.115-0.112 0.194-0.254 0.226-0.41 0.032-0.155 0.015-0.316-0.047-0.462-0.063-0.148-0.17-0.272-0.304-0.36-0.137-0.089-0.297-0.135-0.46-0.135zM17.873 7.593h-6.666v0.809c0.418 0.113 0.787 0.367 1.037 0.722 0.255 0.362 0.368 0.807 0.311 1.247-0.057 0.442-0.278 0.845-0.616 1.135-0.342 0.294-0.781 0.453-1.232 0.453s-0.89-0.16-1.232-0.453c-0.338-0.29-0.559-0.693-0.616-1.135-0.056-0.439 0.056-0.885 0.311-1.247 0.25-0.355 0.619-0.609 1.038-0.722v-0.809l-2.685-0.001c-0.165 0.002-0.329 0.019-0.481 0.083-0.151 0.063-0.289 0.155-0.405 0.271-0.114 0.115-0.206 0.25-0.267 0.4-0.061 0.148-0.091 0.308-0.089 0.469v3.8h17.465v-3.817c-0.002-0.161-0.038-0.319-0.102-0.466-0.066-0.148-0.161-0.282-0.278-0.393-0.119-0.113-0.26-0.201-0.413-0.26-0.154-0.060-0.319-0.089-0.485-0.087h-2.451v0.809c0.418 0.113 0.787 0.367 1.038 0.722 0.255 0.362 0.368 0.807 0.311 1.247-0.057 0.442-0.278 0.845-0.616 1.135-0.342 0.294-0.782 0.453-1.233 0.453s-0.89-0.159-1.232-0.453c-0.338-0.29-0.56-0.692-0.616-1.135-0.056-0.44 0.057-0.885 0.311-1.247 0.25-0.355 0.619-0.609 1.037-0.722v-0.809h-1.142zM21.661 26.662h-0.667c-0.539 0-0.978-0.439-0.978-0.978v-0.226c-0.229-0.073-0.452-0.166-0.666-0.276l-0.16 0.16c-0.387 0.387-1.007 0.376-1.383-0l-0.471-0.471c-0.376-0.376-0.387-0.996 0-1.383l0.16-0.16c-0.111-0.214-0.203-0.436-0.276-0.666h-0.226c-0.539 0-0.978-0.439-0.978-0.978v-0.667c0-0.539 0.439-0.978 0.978-0.978h0.226c0.073-0.229 0.166-0.452 0.276-0.666l-0.16-0.16c-0.387-0.387-0.377-1.007 0-1.383l0.471-0.471c0.377-0.377 0.996-0.387 1.383 0l0.16 0.16c0.214-0.111 0.437-0.203 0.666-0.276v-0.226c0-0.539 0.439-0.978 0.978-0.978h0.667c0.539 0 0.978 0.439 0.978 0.978v0.226c0.229 0.073 0.452 0.166 0.666 0.276l0.16-0.16c0.387-0.388 1.007-0.376 1.383 0l0.471 0.471c0.377 0.376 0.387 0.996-0 1.383l-0.16 0.16c0.11 0.214 0.203 0.436 0.276 0.666h0.226c0.539 0 0.978 0.439 0.978 0.978v0.667c0 0.539-0.439 0.978-0.978 0.978h-0.226c-0.073 0.229-0.166 0.452-0.276 0.666l0.16 0.16c0.387 0.387 0.377 1.007-0 1.383l-0.471 0.471c-0.377 0.377-0.996 0.387-1.383-0l-0.16-0.16c-0.214 0.11-0.437 0.203-0.666 0.276v0.226c0 0.539-0.439 0.978-0.978 0.978zM19.455 24.529c0.297 0.176 0.617 0.308 0.951 0.394 0.137 0.035 0.234 0.159 0.234 0.301v0.46c0 0.196 0.159 0.355 0.355 0.355h0.667c0.196 0 0.355-0.159 0.355-0.355v-0.46c0-0.142 0.096-0.266 0.233-0.301 0.334-0.086 0.653-0.219 0.951-0.394 0.122-0.073 0.278-0.053 0.378 0.048l0.325 0.325c0.14 0.141 0.366 0.137 0.503 0l0.471-0.471c0.136-0.136 0.141-0.362 0-0.503l-0.326-0.326c-0.1-0.1-0.12-0.256-0.048-0.378 0.176-0.297 0.308-0.617 0.394-0.951 0.035-0.137 0.159-0.233 0.301-0.233h0.46c0.196 0 0.355-0.16 0.355-0.355v-0.667c0-0.196-0.159-0.355-0.355-0.355h-0.46c-0.142 0-0.266-0.096-0.301-0.234-0.086-0.334-0.219-0.653-0.394-0.951-0.073-0.122-0.053-0.278 0.048-0.378l0.326-0.325c0.14-0.14 0.137-0.366 0-0.502l-0.471-0.471c-0.137-0.137-0.362-0.141-0.503-0l-0.326 0.326c-0.1 0.101-0.256 0.12-0.378 0.048-0.297-0.176-0.617-0.309-0.951-0.395-0.137-0.036-0.233-0.16-0.233-0.301v-0.459c0-0.196-0.16-0.356-0.355-0.356h-0.667c-0.196 0-0.355 0.16-0.355 0.356v0.459c0 0.142-0.096 0.266-0.234 0.301-0.334 0.086-0.653 0.219-0.951 0.395-0.122 0.072-0.278 0.052-0.379-0.048l-0.325-0.325c-0.14-0.141-0.366-0.137-0.502-0l-0.471 0.471c-0.137 0.137-0.141 0.362-0 0.502l0.326 0.326c0.1 0.101 0.12 0.256 0.048 0.378-0.176 0.297-0.309 0.617-0.395 0.951-0.036 0.137-0.16 0.234-0.301 0.234h-0.459c-0.196 0-0.356 0.159-0.356 0.355v0.667c0 0.196 0.16 0.355 0.356 0.355h0.459c0.142 0 0.266 0.096 0.301 0.233 0.086 0.334 0.219 0.653 0.394 0.951 0.073 0.122 0.053 0.278-0.048 0.378l-0.325 0.325c-0.141 0.141-0.137 0.366-0 0.503l0.471 0.471c0.137 0.137 0.362 0.141 0.502 0l0.326-0.326c0.074-0.074 0.228-0.137 0.379-0.048zM21.328 23.712c-1.302 0-2.36-1.059-2.36-2.36s1.059-2.36 2.36-2.36c1.302 0 2.36 1.059 2.36 2.36s-1.059 2.36-2.36 2.36zM21.328 19.627c-0.951 0-1.725 0.774-1.725 1.725s0.774 1.725 1.725 1.725c0.951 0 1.725-0.774 1.725-1.725s-0.774-1.725-1.725-1.725zM8.857 6.6h1.35v-0.784c0-0.128 0.052-0.25 0.144-0.339 0.069-0.067 0.156-0.112 0.25-0.13v-0.002l0.054-0.007c0.074-0.009 0.15-0.002 0.221 0.021s0.137 0.062 0.19 0.115c0.053 0.052 0.094 0.115 0.118 0.185s0.032 0.143 0.022 0.212v0.73h7.808v-0.784c0-0.128 0.053-0.25 0.145-0.339 0.069-0.067 0.156-0.112 0.249-0.13l-0-0.002 0.054-0.007c0.074-0.009 0.15-0.002 0.222 0.021 0.071 0.023 0.136 0.062 0.19 0.115s0.094 0.115 0.118 0.185c0.025 0.070 0.032 0.143 0.022 0.212v0.729h2.451v0.018c0.594 0 1.166 0.234 1.592 0.647 0.42 0.407 0.668 0.963 0.668 1.55v7.327c-0.301-0.090-0.62-0.106-0.928-0.050v-2.502h-17.518v8.957c0.002 0.16 0.037 0.319 0.102 0.465 0.066 0.148 0.16 0.282 0.278 0.393 0.119 0.112 0.26 0.2 0.413 0.259s0.319 0.090 0.484 0.087h8.524c-0.070 0.322-0.060 0.657 0.030 0.975h-8.5c-0.599 0-1.18-0.23-1.61-0.648-0.424-0.412-0.668-0.974-0.668-1.567v-13.696c0-0.589 0.251-1.147 0.675-1.555 0.39-0.376 0.909-0.622 1.446-0.659h1.403zM19.452 9.311c-0.217 0-0.429 0.084-0.585 0.236-0.153 0.149-0.242 0.351-0.242 0.566 0 0.159 0.048 0.314 0.139 0.445 0.092 0.133 0.221 0.235 0.371 0.295 0.151 0.061 0.318 0.077 0.479 0.046 0.159-0.031 0.307-0.107 0.423-0.22 0.115-0.112 0.194-0.254 0.226-0.41 0.032-0.155 0.016-0.317-0.046-0.462-0.063-0.148-0.17-0.272-0.304-0.36-0.137-0.089-0.297-0.135-0.46-0.135zM10.644 9.311c-0.218 0-0.429 0.083-0.585 0.236-0.153 0.149-0.242 0.352-0.242 0.566 0 0.159 0.049 0.314 0.139 0.445 0.092 0.133 0.221 0.235 0.371 0.295 0.151 0.061 0.319 0.077 0.479 0.046s0.307-0.107 0.423-0.22c0.115-0.112 0.194-0.254 0.226-0.41 0.032-0.155 0.015-0.316-0.047-0.462-0.063-0.148-0.17-0.272-0.304-0.36-0.137-0.089-0.297-0.135-0.46-0.135zM17.87 7.367h1.145c0.125 0 0.226 0.101 0.226 0.226v0.809h-0c-0 0.1-0.067 0.191-0.167 0.218-0.184 0.050-0.358 0.131-0.514 0.239-0.153 0.107-0.289 0.24-0.397 0.395-0.11 0.156-0.19 0.33-0.236 0.512-0.001 0.003-0.001 0.006-0.002 0.009-0.046 0.185-0.058 0.378-0.034 0.568 0.024 0.192 0.085 0.375 0.176 0.543 0.092 0.169 0.215 0.322 0.364 0.45s0.321 0.228 0.505 0.295c0.184 0.068 0.381 0.103 0.581 0.103s0.397-0.035 0.581-0.103c0.183-0.067 0.355-0.167 0.505-0.295 0.148-0.127 0.271-0.279 0.363-0.449l0.001 0c0-0 0-0 0-0 0.091-0.167 0.151-0.351 0.176-0.543 0.024-0.19 0.012-0.383-0.034-0.568h0c0-0-0-0.001-0-0.001-0.046-0.184-0.127-0.361-0.238-0.52-0.109-0.155-0.244-0.288-0.398-0.395s-0.324-0.187-0.504-0.237c-0.101-0.022-0.177-0.113-0.177-0.22v-0.809c0-0.125 0.101-0.226 0.226-0.226l2.451 0.001c0.089-0.001 0.179 0.006 0.268 0.020 0.006 0 0.012 0.001 0.018 0.002 0.094 0.017 0.189 0.043 0.281 0.079 0.084 0.032 0.167 0.074 0.246 0.122 0.005 0.003 0.009 0.005 0.014 0.008 0.081 0.051 0.158 0.111 0.227 0.177l-0 0c0.071 0.067 0.134 0.14 0.188 0.216 0.056 0.078 0.103 0.162 0.142 0.249 0.037 0.084 0.067 0.173 0.087 0.263 0.001 0.003 0.002 0.006 0.002 0.009 0.018 0.083 0.029 0.171 0.031 0.261 0.001 0.008 0.001 0.016 0.001 0.023v3.817c0 0.125-0.101 0.226-0.226 0.226h-17.465c-0.125 0-0.226-0.101-0.226-0.226v-3.8h0.001c-0.001-0.095 0.007-0.189 0.024-0.28 0.018-0.095 0.045-0.187 0.081-0.274l0 0c0-0 0-0.001 0-0.001 0.036-0.089 0.082-0.173 0.134-0.252 0.050-0.075 0.107-0.145 0.169-0.209 0.004-0.005 0.008-0.009 0.012-0.013 0.066-0.066 0.141-0.127 0.223-0.182 0.077-0.052 0.159-0.096 0.243-0.132 0.004-0.002 0.008-0.004 0.012-0.005 0.095-0.040 0.192-0.065 0.29-0.080 0.082-0.012 0.168-0.018 0.257-0.019 0.007-0.001 0.015-0.001 0.022-0.001h0.407v0.001l0.388 0.001v-0.001h1.891c0.125 0 0.226 0.101 0.226 0.226v0.809h-0c-0 0.1-0.067 0.191-0.167 0.218-0.184 0.050-0.359 0.131-0.514 0.239-0.153 0.107-0.289 0.24-0.398 0.395-0.112 0.159-0.192 0.336-0.238 0.52h-0c-0.046 0.185-0.058 0.378-0.034 0.569 0.024 0.188 0.082 0.369 0.17 0.533 0.002 0.004 0.004 0.007 0.006 0.011 0.091 0.168 0.214 0.321 0.362 0.448 0.15 0.128 0.321 0.228 0.505 0.295s0.381 0.103 0.581 0.103 0.397-0.035 0.581-0.103c0.183-0.067 0.355-0.167 0.505-0.295 0.148-0.127 0.271-0.279 0.363-0.449l0.001 0c0-0 0-0 0-0 0.091-0.167 0.151-0.351 0.176-0.543 0.024-0.188 0.012-0.378-0.032-0.56-0.001-0.003-0.002-0.005-0.002-0.008-0.046-0.185-0.127-0.362-0.239-0.52-0.109-0.155-0.244-0.288-0.398-0.395s-0.323-0.186-0.504-0.236c-0.101-0.022-0.177-0.113-0.177-0.22v-0.809c0-0.125 0.101-0.226 0.226-0.226h6.663zM20.995 26.436h0.667c0.202 0 0.387-0.080 0.522-0.21 0.003-0.003 0.006-0.007 0.010-0.010 0.136-0.136 0.221-0.324 0.221-0.531v-0.226h0.001c0-0.095 0.061-0.184 0.157-0.214 0.102-0.032 0.206-0.071 0.309-0.113 0.003-0.002 0.007-0.003 0.010-0.005 0.106-0.044 0.209-0.092 0.31-0.144v0c0.084-0.044 0.191-0.030 0.262 0.041l0.148 0.148c0.004 0.004 0.008 0.007 0.012 0.011l0.001 0.001-0 0c0.149 0.148 0.342 0.221 0.534 0.22 0.188-0.001 0.375-0.072 0.519-0.21 0.003-0.003 0.006-0.007 0.010-0.010l0.473-0.473 0 0c0.144-0.145 0.219-0.336 0.22-0.528 0.001-0.188-0.068-0.377-0.209-0.524-0.003-0.003-0.007-0.006-0.010-0.010l-0.001-0.001 0-0c-0-0-0-0-0-0l-0.153-0.154c-0.072-0.067-0.094-0.176-0.047-0.268 0.051-0.1 0.099-0.2 0.14-0.3 0.001-0.004 0.003-0.007 0.004-0.011 0.042-0.102 0.080-0.202 0.111-0.3 0.022-0.101 0.112-0.177 0.221-0.177h0.226c0.207 0 0.396-0.084 0.532-0.221s0.221-0.324 0.221-0.531v-0.667c0-0.207-0.084-0.395-0.221-0.531s-0.324-0.221-0.532-0.221h-0.226v-0.001c-0.095 0-0.184-0.061-0.214-0.157-0.032-0.102-0.071-0.206-0.113-0.308-0.002-0.003-0.003-0.007-0.005-0.011-0.042-0.101-0.088-0.201-0.138-0.298-0.052-0.087-0.041-0.201 0.034-0.276l0.16-0.16c0.149-0.149 0.221-0.343 0.221-0.535s-0.076-0.383-0.22-0.528l-0.473-0.473 0-0c-0.145-0.144-0.336-0.219-0.528-0.22-0.188-0.001-0.377 0.068-0.524 0.21-0.003 0.004-0.006 0.007-0.010 0.010l-0.001 0.001-0-0c-0 0-0 0-0 0l-0.154 0.153c-0.067 0.072-0.176 0.094-0.268 0.047-0.099-0.051-0.199-0.098-0.299-0.14-0.004-0.001-0.007-0.003-0.011-0.004-0.102-0.042-0.203-0.080-0.303-0.112-0.1-0.023-0.175-0.113-0.175-0.22v-0.226c0-0.207-0.084-0.396-0.221-0.532s-0.324-0.221-0.531-0.221h-0.667c-0.207 0-0.396 0.084-0.532 0.221s-0.221 0.324-0.221 0.532v0.226h-0.001c0 0.095-0.061 0.184-0.156 0.214-0.106 0.034-0.214 0.074-0.321 0.118-0.105 0.044-0.209 0.092-0.31 0.144v-0c-0.085 0.044-0.192 0.030-0.263-0.041l-0.148-0.148c-0.004-0.003-0.008-0.007-0.012-0.011l-0-0 0-0c-0.149-0.149-0.343-0.221-0.535-0.22s-0.384 0.076-0.529 0.221l-0 0-0-0c-0 0-0 0-0 0l-0.459 0.459c-0.003 0.004-0.007 0.008-0.011 0.012l-0.001 0.001-0-0c-0.144 0.145-0.219 0.337-0.22 0.529s0.072 0.386 0.221 0.534l0.16 0.16-0 0c0.067 0.067 0.087 0.173 0.041 0.263-0.052 0.101-0.101 0.205-0.144 0.31-0.042 0.102-0.080 0.203-0.111 0.3-0.022 0.102-0.112 0.178-0.221 0.178h-0.226c-0.207 0-0.396 0.084-0.532 0.221s-0.221 0.324-0.221 0.531v0.667c0 0.207 0.084 0.395 0.221 0.531s0.324 0.221 0.532 0.221h0.226v0.001c0.095 0 0.184 0.061 0.214 0.156 0.034 0.106 0.074 0.214 0.118 0.321 0.042 0.101 0.088 0.2 0.137 0.297 0.052 0.087 0.041 0.201-0.034 0.276l-0.16 0.16-0-0c-0.149 0.149-0.221 0.343-0.22 0.535 0.001 0.188 0.072 0.375 0.21 0.518 0.004 0.003 0.007 0.006 0.010 0.010l0.473 0.473c0.145 0.145 0.336 0.22 0.528 0.221 0.188 0.001 0.377-0.068 0.525-0.21 0.003-0.004 0.006-0.007 0.010-0.010l0.16-0.16 0 0c0.067-0.067 0.173-0.087 0.263-0.041 0.101 0.052 0.205 0.101 0.311 0.145l-0 0c0.1 0.041 0.2 0.079 0.299 0.111 0.102 0.022 0.178 0.112 0.178 0.221v0.226c0 0.207 0.084 0.396 0.221 0.532s0.324 0.221 0.531 0.221zM19.831 24.968c-0.168-0.070-0.333-0.152-0.49-0.245-0.015-0.009-0.030-0.013-0.043-0.013-0.003 0-0.006 0.001-0.009 0.001-0.023 0.003-0.043 0.013-0.054 0.025l-0.313 0.314c-0.004 0.004-0.007 0.008-0.011 0.012l-0 0-0-0c-0 0-0 0-0 0-0.114 0.114-0.263 0.169-0.412 0.169s-0.297-0.058-0.408-0.169l-0-0 0-0-0.46-0.46c-0.004-0.004-0.008-0.007-0.012-0.011l-0-0c-0.111-0.111-0.168-0.26-0.169-0.408s0.055-0.299 0.169-0.413l0.326-0.326c0.014-0.014 0.022-0.031 0.024-0.049h0.001c0-0 0-0.001 0-0.001 0.002-0.018-0.002-0.038-0.012-0.055-0.093-0.157-0.175-0.322-0.245-0.49l0-0c0-0-0-0-0-0.001-0.068-0.164-0.125-0.334-0.17-0.508-0.001-0.003-0.002-0.007-0.003-0.010-0.005-0.019-0.016-0.036-0.031-0.047s-0.033-0.017-0.053-0.017h-0.459c-0.152 0-0.291-0.060-0.395-0.156-0.005-0.004-0.011-0.009-0.016-0.014-0.105-0.105-0.17-0.25-0.17-0.411v-0.667c0-0.16 0.066-0.306 0.17-0.411l0 0c0-0 0-0 0-0 0.105-0.105 0.25-0.17 0.41-0.17h0.459c0.020 0 0.039-0.007 0.053-0.018s0.026-0.028 0.031-0.047c0.046-0.177 0.104-0.351 0.173-0.519s0.152-0.332 0.245-0.49c0.008-0.014 0.012-0.030 0.012-0.045-0.001-0.003-0.001-0.007-0.002-0.010-0.002-0.018-0.011-0.035-0.024-0.049l-0.326-0.326c-0.115-0.115-0.17-0.264-0.169-0.413 0.001-0.142 0.054-0.283 0.155-0.392 0.004-0.006 0.009-0.011 0.015-0.016l0.473-0.473 0 0c0-0 0-0 0-0 0.111-0.111 0.259-0.168 0.407-0.169 0.141-0.001 0.284 0.050 0.396 0.154 0.005 0.004 0.010 0.009 0.016 0.014l0.326 0.326c0.014 0.014 0.031 0.022 0.049 0.024v0.001c0 0 0.001 0 0.001 0 0.018 0.002 0.038-0.002 0.055-0.012 0.157-0.093 0.321-0.175 0.49-0.245s0.342-0.128 0.519-0.173c0.019-0.005 0.036-0.016 0.047-0.031s0.018-0.033 0.018-0.053v-0.459c0-0.16 0.066-0.306 0.17-0.411l0 0c0.105-0.105 0.251-0.171 0.41-0.171h0.667c0.16 0 0.306 0.066 0.411 0.17l-0 0c0 0 0 0 0 0 0.105 0.105 0.17 0.251 0.17 0.41v0.459c0 0.020 0.007 0.039 0.018 0.053s0.028 0.026 0.047 0.031v0c0.179 0.046 0.352 0.104 0.518 0.173 0.169 0.070 0.333 0.152 0.49 0.245 0.016 0.010 0.036 0.013 0.056 0.011v0.001c0.015-0.002 0.030-0.009 0.042-0.019 0.002-0.002 0.004-0.004 0.006-0.006l0.326-0.326c0.114-0.114 0.264-0.169 0.413-0.169 0.141 0.001 0.283 0.053 0.392 0.154 0.006 0.004 0.011 0.009 0.016 0.015l0.472 0.472c0.113 0.113 0.17 0.262 0.17 0.411 0 0.148-0.056 0.297-0.17 0.41l-0-0c-0 0-0 0-0 0l-0.325 0.324c-0.013 0.013-0.022 0.032-0.024 0.050h-0.001c0 0 0 0.001 0 0.001-0.002 0.018 0.002 0.037 0.012 0.054 0.093 0.158 0.175 0.322 0.245 0.49 0.070 0.167 0.128 0.341 0.173 0.519h-0c0 0 0 0.001 0 0.001 0.004 0.018 0.016 0.034 0.030 0.046s0.033 0.018 0.053 0.018h0.46c0.16 0 0.305 0.065 0.41 0.17v0c0 0 0.001 0.001 0.001 0.001 0.105 0.105 0.17 0.251 0.17 0.41v0.667c0 0.16-0.066 0.306-0.17 0.411s-0.251 0.17-0.411 0.17h-0.46c-0.020 0-0.039 0.007-0.053 0.018-0.013 0.010-0.024 0.024-0.029 0.040-0 0.002-0.001 0.004-0.002 0.006-0.046 0.178-0.104 0.352-0.173 0.519-0.070 0.168-0.152 0.332-0.245 0.49-0.009 0.014-0.012 0.030-0.012 0.046 0.001 0.003 0.001 0.006 0.002 0.010 0.002 0.018 0.011 0.036 0.024 0.050l0.314 0.313c0.004 0.004 0.008 0.007 0.012 0.011 0.114 0.114 0.17 0.263 0.17 0.41 0 0.15-0.058 0.299-0.17 0.411l-0.471 0.471c-0.113 0.113-0.262 0.17-0.412 0.17v-0.001c-0.148-0-0.297-0.056-0.41-0.17l-0.325-0.325 0-0c-0.013-0.013-0.031-0.022-0.049-0.024v-0.001c-0 0-0.001 0-0.001 0-0.018-0.002-0.038 0.002-0.055 0.012-0.158 0.093-0.322 0.175-0.49 0.245-0.167 0.070-0.341 0.128-0.519 0.173v-0c-0 0-0.001 0-0.001 0-0.018 0.004-0.034 0.016-0.045 0.030s-0.018 0.033-0.018 0.053v0.46c0 0.16-0.065 0.306-0.17 0.411s-0.25 0.17-0.411 0.17h-0.667c-0.159 0-0.305-0.065-0.41-0.17v0c-0-0-0.001-0.001-0.001-0.001-0.105-0.105-0.17-0.25-0.17-0.41v-0.46c0-0.020-0.007-0.039-0.018-0.053-0.010-0.013-0.024-0.024-0.040-0.029-0.002-0-0.004-0.001-0.007-0.002-0.172-0.044-0.342-0.101-0.507-0.169-0.004-0.002-0.008-0.003-0.012-0.004zM19.82 22.86c0.386 0.386 0.92 0.626 1.509 0.626s1.123-0.239 1.508-0.625v0c0-0 0.001-0.001 0.001-0.001 0.386-0.386 0.625-0.919 0.625-1.508s-0.24-1.123-0.626-1.509-0.92-0.626-1.508-0.626c-0.589 0-1.123 0.239-1.509 0.625s-0.625 0.921-0.625 1.509c0 0.588 0.24 1.122 0.626 1.508zM19.951 19.973c0.353-0.353 0.841-0.572 1.378-0.572s1.025 0.219 1.378 0.572v0c0 0 0.001 0.001 0.001 0.001 0.353 0.353 0.572 0.841 0.572 1.378s-0.219 1.024-0.572 1.377c-0 0-0 0-0 0s-0 0-0 0-0 0-0 0v0c-0.353 0.353-0.841 0.572-1.378 0.572s-1.025-0.219-1.378-0.572v0c-0-0-0.001-0.001-0.001-0.001-0.353-0.353-0.572-0.841-0.572-1.378s0.219-1.025 0.572-1.378v0c0-0 0.001-0.001 0.001-0.001zM10.207 6.826h-2.75c-0.234 0.018-0.465 0.080-0.679 0.178-0.226 0.103-0.435 0.246-0.614 0.418-0.193 0.186-0.346 0.405-0.449 0.644-0.101 0.233-0.156 0.487-0.156 0.749v13.696c0 0.265 0.054 0.523 0.155 0.759 0.102 0.24 0.253 0.46 0.444 0.646 0.193 0.187 0.42 0.333 0.665 0.432 0.247 0.099 0.515 0.152 0.787 0.152h8.223c-0.012-0.084-0.020-0.169-0.022-0.254-0.003-0.090 0-0.18 0.008-0.269l-8.262-0.001c-0.096 0.001-0.192-0.007-0.286-0.024-0.096-0.017-0.191-0.044-0.279-0.078-0.090-0.035-0.177-0.078-0.258-0.13s-0.158-0.11-0.228-0.176c-0.070-0.066-0.133-0.139-0.188-0.217l0-0c-0-0-0-0-0-0.001-0.051-0.072-0.096-0.149-0.133-0.23-0.003-0.006-0.006-0.012-0.009-0.019-0.038-0.087-0.069-0.179-0.089-0.272-0.018-0.083-0.029-0.171-0.031-0.261-0.001-0.008-0.001-0.016-0.001-0.023v-8.957c0-0.125 0.101-0.226 0.226-0.226h17.518c0.125 0 0.226 0.101 0.226 0.226v2.248c0.085-0.005 0.169-0.006 0.253-0.001 0.075 0.004 0.149 0.012 0.223 0.023v-7.045c0-0.26-0.055-0.513-0.155-0.746-0.103-0.239-0.255-0.458-0.444-0.643-0.192-0.186-0.417-0.332-0.662-0.431-0.243-0.099-0.506-0.151-0.773-0.151-0.031 0-0.061-0.006-0.088-0.018h-2.363c-0.125 0-0.226-0.101-0.226-0.226v-0.725c-0-0.013 0.001-0.026 0.003-0.038 0.003-0.017 0.003-0.033 0.002-0.048v0c0-0 0-0.001 0-0.001-0.002-0.018-0.006-0.037-0.013-0.055-0.006-0.017-0.015-0.035-0.026-0.052l0.001-0c-0.010-0.015-0.023-0.031-0.037-0.045-0.013-0.013-0.030-0.026-0.048-0.036l0-0c-0.017-0.010-0.035-0.018-0.055-0.025-0.020-0.007-0.042-0.011-0.061-0.013v0c-0.016-0.002-0.033-0.002-0.049-0-0.005 0.001-0.009 0.002-0.014 0.002l-0.022 0.003c-0.005 0.001-0.010 0.002-0.015 0.003-0.026 0.005-0.051 0.014-0.075 0.026s-0.045 0.027-0.062 0.044c-0.024 0.024-0.044 0.052-0.057 0.083-0.012 0.029-0.019 0.061-0.019 0.095v0.784c0 0.125-0.101 0.226-0.226 0.226h-7.808c-0.125 0-0.226-0.101-0.226-0.226v-0.73h0c0-0.010 0.001-0.020 0.002-0.031 0.002-0.018 0.003-0.036 0.001-0.053s-0.006-0.036-0.012-0.054c-0.006-0.018-0.015-0.035-0.025-0.052l0-0c-0-0-0.001-0.001-0.001-0.002-0.010-0.016-0.023-0.031-0.037-0.045s-0.030-0.026-0.048-0.036c-0.016-0.010-0.032-0.018-0.048-0.023-0.003-0.001-0.005-0.002-0.008-0.002-0.020-0.007-0.041-0.011-0.061-0.013v0c-0.016-0.002-0.033-0.002-0.049-0-0.005 0.001-0.009 0.002-0.014 0.002l-0.024 0.003c-0.005 0.001-0.009 0.002-0.014 0.003-0.025 0.005-0.050 0.014-0.074 0.026l-0-0c-0 0-0 0-0.001 0-0.023 0.012-0.044 0.027-0.063 0.045v0c-0.024 0.023-0.043 0.052-0.056 0.082l-0-0c-0.012 0.029-0.019 0.061-0.019 0.096v0.784c0 0.125-0.101 0.226-0.226 0.226zM19.052 9.164c0.127-0.051 0.264-0.078 0.4-0.078 0.102 0 0.205 0.015 0.304 0.044v0c0.098 0.029 0.192 0.072 0.278 0.128s0.164 0.124 0.229 0.201c0.065 0.077 0.119 0.164 0.16 0.259 0.040 0.093 0.065 0.193 0.075 0.294 0.010 0.1 0.005 0.202-0.016 0.302-0.020 0.101-0.056 0.197-0.104 0.285s-0.111 0.17-0.185 0.242c-0.074 0.072-0.158 0.132-0.249 0.179s-0.188 0.081-0.29 0.101c-0.1 0.019-0.204 0.024-0.306 0.014s-0.203-0.034-0.299-0.073c-0.096-0.039-0.186-0.090-0.265-0.153s-0.149-0.138-0.208-0.223c-0.058-0.085-0.103-0.177-0.133-0.273h0c0-0-0-0.001-0-0.001-0.030-0.097-0.046-0.198-0.046-0.299 0-0.137 0.028-0.27 0.081-0.394s0.131-0.237 0.229-0.333c0.099-0.096 0.216-0.171 0.34-0.222l0 0c0 0 0-0 0.001-0zM10.243 9.164c0.127-0.051 0.264-0.078 0.401-0.078 0.102 0 0.205 0.015 0.304 0.044 0.097 0.029 0.191 0.072 0.278 0.128s0.164 0.124 0.229 0.201c0.065 0.077 0.12 0.164 0.16 0.259 0.040 0.093 0.066 0.193 0.076 0.294 0.010 0.099 0.005 0.201-0.015 0.301-0.021 0.101-0.056 0.197-0.104 0.285-0.049 0.089-0.111 0.17-0.185 0.242s-0.158 0.133-0.247 0.179l-0-0c-0 0-0 0-0.001 0-0.090 0.047-0.188 0.081-0.29 0.101-0.1 0.019-0.204 0.024-0.306 0.014s-0.203-0.034-0.298-0.073c-0.096-0.038-0.185-0.091-0.264-0.153s-0.15-0.138-0.208-0.223c-0.058-0.085-0.104-0.177-0.134-0.273-0.030-0.097-0.046-0.198-0.046-0.3 0-0.136 0.028-0.27 0.081-0.394s0.131-0.238 0.229-0.333c0.099-0.096 0.216-0.171 0.341-0.222z" fill="#0075BF"></path>
</svg>
