<!-- Generated by IcoMoon.io -->
<svg version="1.1" xmlns="http://www.w3.org/2000/svg" width="50" height="50" viewBox="0 0 32 32">
<title>icon-strutture_ricettive</title>
<path d="M26.175 5.333l-20.352-0c-0.27 0-0.489 0.222-0.489 0.491 0 0.718 0 1.437 0 2.156 0 0.269 0.22 0.491 0.489 0.491h0.775v15.003h-0.775c-0.27 0-0.489 0.222-0.489 0.491l0 2.211c0 0.269 0.22 0.491 0.489 0.491h8.344c0.27 0 0.489-0.222 0.489-0.491v-3.794h2.684l0 3.794c0 0.269 0.22 0.491 0.489 0.491h8.344c0.27 0 0.489-0.222 0.489-0.491v-2.211c0-0.269-0.22-0.49-0.49-0.49h-0.77v-15.003h0.775c0.27 0 0.489-0.222 0.489-0.491v-2.156c0-0.269-0.22-0.491-0.492-0.491zM25.91 7.41h-0.801l-0.028 0.001-0.036 0.004-0.038 0.007-0.010 0.002-0.037 0.011-0.035 0.013-0.033 0.015-0.032 0.018-0.021 0.013-0.029 0.021-0.028 0.024-0.026 0.026-0.025 0.028-0.015 0.018-0.027 0.040-0.017 0.030-0.016 0.034-0.014 0.035-0.010 0.035-0.006 0.024-0.006 0.038-0.003 0.025-0.002 0.040v15.847c0 0.276 0.227 0.504 0.504 0.503l0.792-0.004-0.002 1.596h-7.541v-3.865c0-0.277-0.228-0.502-0.504-0.502h-3.751c-0.276 0-0.504 0.226-0.504 0.502v3.865h-7.52v-1.595h0.584l0.191 0.003c0.277 0.004 0.502-0.228 0.502-0.503l-0-15.58-0.001-0.027-0.004-0.037-0.004-0.025-0.006-0.023-0.010-0.035-0.013-0.035-0.022-0.045-0.011-0.019-0.027-0.040-0.014-0.018-0.018-0.020-0.024-0.025-0.027-0.024-0.039-0.029-0.042-0.026-0.020-0.011-0.023-0.010-0.034-0.013-0.036-0.011-0.022-0.005-0.027-0.005-0.037-0.004-0.041-0.002h-0.773v-1.569h19.82v1.292zM12.226 9.534h-2.163c-0.154 0-0.279 0.125-0.279 0.279v2.26c0 0.154 0.125 0.279 0.279 0.279h2.163c0.154 0 0.279-0.125 0.279-0.279v-2.26c0-0.154-0.125-0.279-0.279-0.279zM11.948 11.794h-1.606v-1.703h1.606v1.703zM17.059 9.534h-2.163c-0.154 0-0.279 0.125-0.279 0.279v2.26c0 0.154 0.125 0.279 0.279 0.279h2.163c0.154 0 0.279-0.125 0.279-0.279v-2.26c0-0.154-0.125-0.279-0.279-0.279zM16.781 11.794h-1.606v-1.703h1.606v1.703zM21.893 9.534h-2.163c-0.154 0-0.279 0.125-0.279 0.279v2.26c0 0.154 0.125 0.279 0.279 0.279h2.163c0.154 0 0.279-0.125 0.279-0.279v-2.26c0-0.154-0.125-0.279-0.279-0.279zM21.615 11.794h-1.606v-1.703h1.606v1.703zM12.226 13.514h-2.163c-0.154 0-0.279 0.125-0.279 0.279v2.26c0 0.154 0.125 0.279 0.279 0.279h2.163c0.154 0 0.279-0.125 0.279-0.279v-2.26c0-0.154-0.125-0.279-0.279-0.279zM11.948 15.774h-1.606v-1.703h1.606v1.703zM17.059 13.514h-2.163c-0.154 0-0.279 0.125-0.279 0.279v2.26c0 0.154 0.125 0.279 0.279 0.279h2.163c0.154 0 0.279-0.125 0.279-0.279v-2.26c0-0.154-0.125-0.279-0.279-0.279zM16.781 15.774h-1.606v-1.703h1.606v1.703zM21.893 13.514h-2.163c-0.154 0-0.279 0.125-0.279 0.279v2.26c0 0.154 0.125 0.279 0.279 0.279h2.163c0.154 0 0.279-0.125 0.279-0.279v-2.26c0-0.154-0.125-0.279-0.279-0.279zM21.615 15.774h-1.606v-1.703h1.606v1.703zM12.706 20.651c-0.269 0-0.489-0.22-0.489-0.488v-0c0-3.909 7.53-3.985 7.53 0v0c0 0.269-0.22 0.488-0.489 0.488h-6.553zM13.209 20.082h5.548c0.148 0 0.269-0.115 0.269-0.256v-0c0-2.707-6.086-2.556-6.086 0v0c0 0.141 0.121 0.256 0.269 0.256z" fill="#464646"></path>
</svg>
