<svg width="53" height="53" viewBox="0 0 53 53" fill="none" xmlns="http://www.w3.org/2000/svg">
<path fill-rule="evenodd" clip-rule="evenodd" d="M14.1535 37.8977C11.6218 38.8473 8.72879 37.8178 7.36975 35.465C5.83381 32.8057 6.75084 29.3868 9.41011 27.8517L15.98 24.0583L26.0995 11.1679C26.557 10.4524 27.3274 10.0326 28.2066 10.0326C29.0855 10.0437 29.8746 10.5052 30.3138 11.2668L33.1352 16.1537L36.0366 15.98C36.3792 15.9593 36.7123 16.1382 36.8841 16.4355L38.4363 19.125C38.6092 19.4247 38.5985 19.7987 38.4077 20.0873L36.8057 22.5125L39.3434 26.9068C40.2584 28.4913 39.1756 30.5054 37.3571 30.604C32.4662 31.5631 27.5786 32.5473 22.683 33.4827L23.5949 35.0619C23.8473 35.4992 23.6974 36.0604 23.2602 36.3128L21.3633 37.4076L23.6235 41.3217C24.5187 42.8724 23.9852 44.8583 22.4358 45.7542C20.8887 46.6486 18.8956 46.1124 18.0032 44.5665L14.1535 37.8977ZM22.0561 42.2706L22.0371 42.2376C20.773 40.033 19.4955 37.8349 18.2247 35.6339L15.7765 37.047L19.5889 43.6511C19.9776 44.324 20.8462 44.5578 21.5195 44.1686C22.1837 43.7846 22.4214 42.9415 22.0561 42.2706ZM20.4483 35.8223L21.5517 35.1843L20.9149 34.0805L19.8111 34.7185L20.4483 35.8223ZM35.581 17.8411L34.1588 17.9265L35.7822 20.7404L36.5684 19.5511L35.581 17.8411ZM27.4152 12.4573L36.8697 28.8335C36.9862 28.8089 37.1114 28.7806 37.2219 28.7779C37.7029 28.7663 37.9986 28.24 37.7582 27.8231L28.7282 12.1823C28.6113 11.9799 28.4149 11.8678 28.1832 11.8635C27.9534 11.8591 27.7519 11.9732 27.6323 12.1695C27.5742 12.2638 27.4904 12.3647 27.4152 12.4573ZM26.1973 14.0088L17.6936 24.841L21.7151 31.806L34.9705 29.206L26.1973 14.0088ZM19.9987 32.4949L16.2566 26.0129L10.3259 29.4373C9.17081 30.1043 8.45293 31.3481 8.45293 32.6821C8.45293 33.3372 8.62783 33.9827 8.95537 34.5495C9.98648 36.3343 12.2836 36.9512 14.0688 35.9201L19.9987 32.4949Z" fill="white"/>
<path fill-rule="evenodd" clip-rule="evenodd" d="M45.2213 12.2304L40.8953 14.6372C40.5205 14.8459 40.3853 15.3185 40.594 15.6934C40.8019 16.067 41.2749 16.2034 41.6498 15.9935L45.9757 13.5866C46.3502 13.3779 46.4857 12.9057 46.2771 12.5309C46.0684 12.156 45.5957 12.0217 45.2213 12.2304Z" fill="white"/>
<path fill-rule="evenodd" clip-rule="evenodd" d="M44.7669 20.2701L41.7674 19.4664C41.3532 19.3555 40.9279 19.6019 40.8166 20.0157C40.7057 20.4295 40.9517 20.8553 41.3659 20.9666L44.3654 21.7703C44.7828 21.882 45.2062 21.6324 45.3163 21.221C45.4272 20.8072 45.1819 20.3814 44.7669 20.2701Z" fill="white"/>
<path fill-rule="evenodd" clip-rule="evenodd" d="M37.2295 9.40928L36.4249 12.4088C36.3136 12.8238 36.5593 13.2487 36.9739 13.3604C37.3881 13.4705 37.8138 13.2261 37.9247 12.8111L38.7292 9.81155C38.8401 9.39657 38.5941 8.97084 38.1799 8.85994C37.7661 8.74904 37.3404 8.99509 37.2295 9.40928Z" fill="white"/>
</svg>
