<!-- Generated by IcoMoon.io -->
<svg version="1.1" xmlns="http://www.w3.org/2000/svg" width="50" height="50" viewBox="0 0 32 32">
<title>icon-impostazioni</title>
<path d="M16.669 26.667h-1.339c-1.083 0-1.964-0.881-1.964-1.964v-0.453c-0.461-0.147-0.908-0.333-1.337-0.555l-0.321 0.321c-0.778 0.778-2.023 0.755-2.778-0l-0.947-0.947c-0.756-0.755-0.778-2 0-2.778l0.321-0.321c-0.222-0.43-0.408-0.877-0.555-1.337h-0.453c-1.083 0-1.964-0.881-1.964-1.964v-1.339c0-1.083 0.881-1.964 1.964-1.964h0.453c0.147-0.461 0.333-0.908 0.555-1.337l-0.321-0.321c-0.778-0.777-0.756-2.022 0-2.778l0.947-0.946c0.756-0.758 2.001-0.777 2.778 0l0.321 0.321c0.43-0.222 0.877-0.408 1.337-0.555v-0.453c0-1.083 0.881-1.964 1.964-1.964h1.339c1.083 0 1.964 0.881 1.964 1.964v0.453c0.46 0.147 0.908 0.333 1.337 0.555l0.321-0.321c0.777-0.778 2.023-0.756 2.778 0l0.947 0.947c0.756 0.755 0.778 2-0 2.778l-0.321 0.321c0.222 0.43 0.408 0.877 0.555 1.337h0.453c1.083 0 1.964 0.881 1.964 1.964v1.339c0 1.083-0.881 1.964-1.964 1.964h-0.453c-0.147 0.461-0.333 0.908-0.555 1.337l0.321 0.321c0.778 0.777 0.756 2.022-0 2.778l-0.947 0.947c-0.756 0.758-2.001 0.776-2.778-0l-0.321-0.321c-0.43 0.222-0.877 0.408-1.337 0.555v0.453c0 1.083-0.881 1.964-1.964 1.964zM12.238 22.382c0.597 0.353 1.239 0.62 1.91 0.793 0.276 0.071 0.469 0.32 0.469 0.605v0.923c0 0.394 0.32 0.714 0.714 0.714h1.339c0.393 0 0.714-0.32 0.714-0.714v-0.923c0-0.285 0.193-0.534 0.469-0.605 0.67-0.173 1.312-0.439 1.91-0.793 0.246-0.145 0.558-0.106 0.76 0.096l0.654 0.653c0.282 0.282 0.735 0.276 1.010 0l0.947-0.947c0.274-0.274 0.283-0.727 0-1.009l-0.654-0.654c-0.202-0.202-0.241-0.515-0.096-0.76 0.353-0.597 0.62-1.239 0.793-1.91 0.071-0.276 0.32-0.469 0.605-0.469h0.923c0.394 0 0.714-0.32 0.714-0.714v-1.339c0-0.394-0.32-0.714-0.714-0.714h-0.923c-0.285 0-0.534-0.193-0.605-0.469-0.173-0.67-0.439-1.312-0.793-1.91-0.145-0.246-0.106-0.558 0.096-0.76l0.654-0.654c0.282-0.282 0.275-0.735 0-1.009l-0.947-0.947c-0.274-0.275-0.727-0.283-1.009-0l-0.654 0.654c-0.201 0.202-0.515 0.242-0.76 0.096-0.597-0.353-1.239-0.62-1.91-0.793-0.276-0.071-0.469-0.32-0.469-0.605v-0.923c0-0.394-0.32-0.714-0.714-0.714h-1.339c-0.394 0-0.714 0.32-0.714 0.714v0.923c0 0.285-0.193 0.534-0.469 0.605-0.67 0.173-1.312 0.439-1.91 0.793-0.246 0.145-0.558 0.105-0.76-0.096l-0.654-0.653c-0.282-0.282-0.735-0.276-1.009-0l-0.947 0.947c-0.274 0.274-0.284 0.727-0 1.009l0.654 0.654c0.202 0.202 0.242 0.515 0.096 0.76-0.354 0.597-0.62 1.239-0.793 1.91-0.071 0.276-0.32 0.469-0.605 0.469h-0.923c-0.394 0-0.714 0.32-0.714 0.714v1.339c0 0.393 0.32 0.714 0.714 0.714h0.923c0.285 0 0.534 0.193 0.605 0.469 0.173 0.67 0.439 1.312 0.793 1.91 0.146 0.246 0.106 0.558-0.096 0.76l-0.653 0.654c-0.283 0.282-0.276 0.735-0 1.009l0.947 0.947c0.275 0.275 0.727 0.283 1.009 0l0.654-0.654c0.149-0.149 0.458-0.275 0.76-0.096zM16 20.74c-2.614 0-4.74-2.126-4.74-4.74s2.126-4.74 4.74-4.74c2.614 0 4.74 2.126 4.74 4.74s-2.126 4.74-4.74 4.74zM16 12.536c-1.91 0-3.464 1.554-3.464 3.464s1.554 3.464 3.464 3.464c1.91 0 3.464-1.554 3.464-3.464s-1.554-3.464-3.464-3.464z" fill="#0075BF"></path>
</svg>
