<!-- Generated by IcoMoon.io -->
<svg version="1.1" xmlns="http://www.w3.org/2000/svg" width="50" height="50" viewBox="0 0 32 32">
<title>icon-accreditamento_fiere</title>
<path d="M24.163 15.588l-0.083-0.083-0.2 0.2h0.283v-0.117zM26.188 13.564v0zM26.188 11.815v0zM24.351 9.98v0zM23.769 9.98v0zM22.021 9.98v0zM22.021 8.231l-0.083-0.083v0l0.083 0.083zM22.021 7.649v0zM20.185 5.813v0zM18.436 5.813l0.083 0.083h0l-0.083-0.083zM8.249 16v0zM9.406 16.008v0zM19.019 6.396v0zM19.602 6.396v0zM21.175 7.969l0.098 0.065 0.053-0.080-0.068-0.068-0.083 0.083zM21.438 10.563l-0.083 0.083v0l0.083-0.083zM24.032 10.825l0.083-0.083-0.068-0.068-0.080 0.053 0.065 0.098zM25.605 12.398v0zM22.998 15.588v0.117h0.049l0.034-0.034-0.083-0.083zM21.191 15.588l-0.083-0.083-0.2 0.2h0.283v-0.117zM22.545 14.234v0zM22.545 13.651v0zM18.349 9.455v0zM17.766 9.455v0zM11.633 15.588v0.117h0.048l0.035-0.034-0.083-0.083zM18.058 10.329l0.083-0.083-0.083-0.083-0.083 0.083 0.083 0.083zM21.671 13.943l0.083 0.083 0.083-0.083-0.083-0.083-0.083 0.083zM20.026 15.588v0.117h0.048l0.034-0.034-0.083-0.083zM18.394 15.588l-0.083-0.083-0.2 0.2h0.283v-0.117zM19.602 14.38v0zM19.602 13.797v0zM19.019 13.797v0zM17.228 15.588v0.117h0.048l0.034-0.034-0.083-0.083zM12.799 15.588l-0.083-0.083-0.2 0.2h0.283v-0.117zM25.725 19.050l0.023 0.115 0.094-0.019v-0.096h-0.117zM25.725 23.088h0.117v-0.096l-0.094-0.019-0.023 0.115zM6.275 23.088l-0.023-0.115-0.094 0.019v0.096h0.117zM6.275 19.050h-0.117v0.096l0.094 0.019 0.023-0.115zM25.313 15.471h-1.15v0.234h1.15v-0.234zM24.246 15.671l2.024-2.024-0.166-0.166-2.024 2.024 0.166 0.166zM26.27 13.646c0.256-0.255 0.396-0.596 0.396-0.957h-0.234c0 0.299-0.116 0.58-0.328 0.791l0.166 0.165zM26.667 12.69c0-0.361-0.141-0.702-0.396-0.957l-0.166 0.166c0.212 0.211 0.328 0.492 0.328 0.791h0.234zM26.27 11.733l-1.836-1.836-0.166 0.166 1.836 1.836 0.166-0.166zM24.435 9.897c-0.207-0.207-0.542-0.207-0.749 0l0.166 0.166c0.115-0.115 0.302-0.115 0.417 0l0.166-0.166zM23.686 9.897c-0.211 0.212-0.492 0.328-0.791 0.328v0.234c0.361 0 0.701-0.141 0.957-0.397l-0.166-0.166zM22.895 10.225c-0.299 0-0.58-0.116-0.791-0.328l-0.166 0.166c0.256 0.255 0.596 0.397 0.957 0.397v-0.234zM22.103 9.897c-0.212-0.211-0.327-0.492-0.327-0.791h-0.235c0 0.361 0.141 0.702 0.396 0.957l0.166-0.166zM21.776 9.105c0-0.299 0.116-0.58 0.327-0.791l-0.166-0.165c-0.255 0.255-0.396 0.595-0.396 0.957h0.235zM22.103 8.314c0.099-0.099 0.155-0.234 0.155-0.374h-0.235c0 0.078-0.031 0.153-0.086 0.208l0.166 0.166zM22.259 7.94c0-0.14-0.056-0.275-0.155-0.374l-0.166 0.166c0.055 0.055 0.086 0.13 0.086 0.208h0.235zM22.103 7.566l-1.836-1.836-0.166 0.166 1.836 1.836 0.166-0.166zM20.268 5.73c-0.255-0.256-0.596-0.397-0.957-0.397v0.235c0.299 0 0.58 0.116 0.791 0.328l0.166-0.166zM19.311 5.333c-0.362 0-0.702 0.141-0.957 0.397l0.166 0.166c0.211-0.212 0.492-0.328 0.791-0.328v-0.235zM18.354 5.73l-10.188 10.187 0.166 0.166 10.187-10.187-0.166-0.166zM8.166 15.917c-0.012 0.012-0.025 0.026-0.035 0.041-0.005 0.007-0.012 0.018-0.017 0.031s-0.012 0.034-0.010 0.061c0.003 0.031 0.017 0.061 0.042 0.082 0.022 0.019 0.044 0.026 0.058 0.029 0.025 0.006 0.048 0.003 0.060 0.002 0.026-0.003 0.057-0.011 0.085-0.019 0.034-0.009 0.059-0.017 0.097-0.027 0.071-0.019 0.143-0.035 0.204-0.039 0.067-0.004 0.088 0.010 0.091 0.012l0.166-0.166c-0.078-0.078-0.189-0.086-0.27-0.081-0.087 0.005-0.179 0.027-0.251 0.046-0.033 0.009-0.075 0.020-0.098 0.027-0.030 0.008-0.046 0.012-0.054 0.013-0.006 0.001 0.004-0.001 0.020 0.002 0.009 0.002 0.028 0.007 0.047 0.024 0.022 0.019 0.035 0.046 0.037 0.074 0.002 0.024-0.004 0.041-0.007 0.049s-0.007 0.013-0.007 0.013c-0.001 0.002 0-0.001 0.009-0.009l-0.166-0.166zM8.741 16.091c0.207 0.207 0.542 0.207 0.749 0l-0.166-0.166c-0.115 0.115-0.302 0.115-0.417 0l-0.166 0.166zM9.49 16.091l9.612-9.613-0.166-0.166-9.613 9.613 0.166 0.166zM19.102 6.478c0.056-0.056 0.13-0.086 0.209-0.086v-0.234c-0.141 0-0.275 0.055-0.374 0.155l0.166 0.166zM19.311 6.392c0.079 0 0.153 0.030 0.208 0.086l0.166-0.166c-0.1-0.1-0.233-0.155-0.374-0.155v0.234zM19.519 6.478l1.574 1.574 0.166-0.166-1.574-1.573-0.166 0.166zM21.078 7.904c-0.235 0.354-0.361 0.768-0.361 1.201h0.234c0-0.387 0.113-0.757 0.322-1.072l-0.195-0.13zM20.717 9.105c0 0.582 0.227 1.129 0.638 1.54l0.166-0.166c-0.367-0.368-0.569-0.855-0.569-1.374h-0.234zM21.355 10.646c0.411 0.411 0.958 0.638 1.54 0.638v-0.234c-0.519 0-1.007-0.202-1.374-0.569l-0.166 0.166zM22.895 11.283c0.433 0 0.848-0.126 1.201-0.361l-0.13-0.195c-0.315 0.209-0.685 0.322-1.072 0.322v0.234zM23.948 10.908l1.574 1.573 0.166-0.166-1.573-1.573-0.166 0.166zM25.522 12.481c0.115 0.115 0.115 0.302 0 0.417l0.166 0.166c0.207-0.206 0.207-0.542 0-0.749l-0.166 0.166zM25.522 12.898l-2.607 2.607 0.166 0.166 2.607-2.607-0.166-0.166zM22.998 15.471h-1.806v0.234h1.806v-0.234zM21.274 15.671l1.354-1.354-0.166-0.166-1.354 1.354 0.166 0.166zM22.628 14.317c0.207-0.207 0.207-0.542 0-0.748l-0.166 0.166c0.115 0.115 0.115 0.302 0 0.417l0.166 0.166zM22.628 13.568l-4.196-4.196-0.166 0.166 4.196 4.196 0.166-0.166zM18.432 9.372c-0.207-0.207-0.542-0.207-0.749 0l0.166 0.166c0.115-0.115 0.302-0.115 0.417 0l0.166-0.166zM17.683 9.372l-6.132 6.132 0.166 0.166 6.132-6.133-0.166-0.166zM11.633 15.471h-4.947v0.234h4.947v-0.234zM6.687 15.471c-0.746 0-1.354 0.607-1.354 1.353h0.235c0-0.617 0.502-1.119 1.119-1.119v-0.234zM5.333 16.824v2.596h0.235v-2.596h-0.235zM5.333 19.42c0 0.292 0.237 0.529 0.529 0.529v-0.235c-0.163 0-0.295-0.132-0.295-0.295h-0.235zM5.863 19.95c0.617 0 1.119 0.502 1.119 1.119h0.234c0-0.746-0.607-1.354-1.354-1.354v0.235zM6.982 21.069c0 0.617-0.502 1.119-1.119 1.119v0.234c0.747 0 1.354-0.607 1.354-1.353h-0.234zM5.863 22.188c-0.292 0-0.529 0.237-0.529 0.529h0.235c0-0.163 0.132-0.295 0.295-0.295v-0.234zM5.333 22.717v2.596h0.235v-2.596h-0.235zM5.333 25.313c0 0.746 0.607 1.354 1.354 1.354v-0.235c-0.617 0-1.119-0.502-1.119-1.119h-0.235zM6.687 26.667h18.626v-0.235h-18.626v0.235zM25.313 26.667c0.746 0 1.353-0.607 1.353-1.354h-0.234c0 0.617-0.502 1.119-1.119 1.119v0.235zM26.667 25.313v-2.596h-0.234v2.596h0.234zM26.667 22.717c0-0.292-0.237-0.529-0.529-0.529v0.234c0.163 0 0.295 0.132 0.295 0.295h0.234zM26.137 22.188c-0.617 0-1.119-0.502-1.119-1.119h-0.234c0 0.746 0.607 1.353 1.353 1.353v-0.234zM25.018 21.069c0-0.617 0.502-1.119 1.119-1.119v-0.235c-0.746 0-1.353 0.607-1.353 1.354h0.234zM26.137 19.95c0.292 0 0.529-0.237 0.529-0.529h-0.234c0 0.163-0.132 0.295-0.295 0.295v0.235zM26.667 19.42v-2.596h-0.234v2.596h0.234zM26.667 16.824c0-0.746-0.607-1.353-1.353-1.353v0.234c0.617 0 1.119 0.502 1.119 1.119h0.234zM17.975 10.412l3.613 3.613 0.166-0.166-3.613-3.613-0.166 0.165zM21.588 13.86l-1.645 1.645 0.166 0.166 1.645-1.645-0.166-0.166zM20.026 15.471h-1.632v0.234h1.632v-0.234zM18.477 15.671l1.208-1.208-0.166-0.166-1.208 1.208 0.166 0.166zM19.685 14.463c0.206-0.207 0.206-0.542 0-0.749l-0.166 0.166c0.115 0.115 0.115 0.302 0 0.417l0.166 0.166zM19.685 13.714c-0.207-0.207-0.542-0.207-0.749 0l0.166 0.166c0.115-0.115 0.302-0.115 0.417 0l0.166-0.166zM18.936 13.714l-1.791 1.791 0.166 0.166 1.791-1.791-0.166-0.166zM17.228 15.47h-4.429v0.235h4.429v-0.235zM12.882 15.671l5.258-5.259-0.166-0.165-5.258 5.258 0.166 0.166zM25.702 18.935c-0.992 0.202-1.742 1.082-1.742 2.134h0.235c0-0.938 0.668-1.724 1.554-1.904l-0.047-0.23zM23.96 21.069c0 1.052 0.75 1.932 1.742 2.134l0.047-0.23c-0.886-0.181-1.554-0.966-1.554-1.904h-0.235zM25.608 23.088v2.225h0.234v-2.225h-0.234zM25.608 25.313c0 0.162-0.132 0.295-0.295 0.295v0.234c0.292 0 0.529-0.237 0.529-0.529h-0.234zM25.313 25.608h-18.626v0.234h18.626v-0.234zM6.687 25.608c-0.163 0-0.295-0.133-0.295-0.295h-0.234c0 0.292 0.237 0.529 0.529 0.529v-0.234zM6.392 25.313v-2.225h-0.234v2.225h0.234zM6.298 23.203c0.992-0.202 1.742-1.082 1.742-2.134h-0.234c0 0.938-0.669 1.724-1.555 1.904l0.047 0.23zM8.040 21.069c0-1.052-0.75-1.931-1.742-2.134l-0.047 0.23c0.886 0.181 1.555 0.966 1.555 1.904h0.234zM6.392 19.050v-2.226h-0.234v2.226h0.234zM6.392 16.824c0-0.163 0.132-0.295 0.295-0.295v-0.235c-0.292 0-0.529 0.238-0.529 0.529h0.234zM6.687 16.529h18.626v-0.235h-18.626v0.235zM25.313 16.529c0.163 0 0.295 0.132 0.295 0.295h0.234c0-0.292-0.237-0.529-0.529-0.529v0.235zM25.608 16.824v2.226h0.234v-2.226h-0.234zM25.313 15.588h-1.15l2.024-2.024c0.233-0.234 0.362-0.544 0.362-0.874s-0.129-0.641-0.362-0.874l-1.836-1.836c-0.161-0.161-0.422-0.161-0.582 0-0.234 0.234-0.544 0.362-0.874 0.362s-0.64-0.129-0.874-0.362-0.362-0.544-0.362-0.874c0-0.33 0.129-0.641 0.362-0.874 0.077-0.077 0.121-0.182 0.121-0.291s-0.044-0.214-0.121-0.291l-1.836-1.836c-0.234-0.233-0.544-0.362-0.874-0.362s-0.641 0.129-0.874 0.362l-10.187 10.187c-0.161 0.161 0.413-0.153 0.574 0.008s0.422 0.161 0.583 0l9.613-9.613c0.078-0.078 0.181-0.121 0.291-0.121s0.214 0.043 0.291 0.121l1.573 1.573c-0.222 0.334-0.341 0.726-0.341 1.137 0 0.55 0.214 1.068 0.604 1.457s0.907 0.603 1.457 0.603c0.41 0 0.803-0.119 1.137-0.341l1.573 1.573c0.161 0.16 0.161 0.422 0 0.583l-2.607 2.607h-1.806l1.354-1.354c0.161-0.161 0.161-0.422 0-0.583l-4.196-4.196c-0.161-0.161-0.422-0.161-0.583 0l-6.133 6.133h-4.947c-0.682 0-1.236 0.554-1.236 1.236v2.596c0 0.228 0.184 0.412 0.412 0.412 0.682 0 1.236 0.554 1.236 1.236s-0.554 1.236-1.236 1.236c-0.228 0-0.412 0.184-0.412 0.412v2.596c0 0.682 0.554 1.236 1.236 1.236h18.626c0.682 0 1.236-0.554 1.236-1.236v-2.596c0-0.228-0.184-0.412-0.412-0.412-0.682 0-1.236-0.555-1.236-1.236s0.554-1.236 1.236-1.236c0.228 0 0.412-0.184 0.412-0.412v-2.596c0-0.682-0.554-1.236-1.236-1.236zM18.058 10.329l3.613 3.613-1.645 1.645h-1.632l1.208-1.209c0.161-0.161 0.161-0.422 0-0.583s-0.422-0.161-0.583 0l-1.791 1.791h-4.429l5.259-5.258zM25.725 19.050c-0.939 0.191-1.648 1.024-1.648 2.019s0.709 1.828 1.648 2.019v2.225c0 0.227-0.185 0.412-0.412 0.412h-18.626c-0.228 0-0.412-0.185-0.412-0.412v-2.225c0.939-0.192 1.648-1.024 1.648-2.019s-0.709-1.827-1.648-2.019v-2.226c0-0.227 0.185-0.412 0.412-0.412h18.626c0.227 0 0.412 0.185 0.412 0.412v2.226zM10.148 23.624h-0.117v0.117h0.117v-0.117zM10.148 18.514v-0.117h-0.117v0.117h0.117zM21.852 18.514h0.117v-0.117h-0.117v0.117zM21.852 23.624v0.117h0.117v-0.117h-0.117zM22.264 17.573h-12.528v0.234h12.528v-0.234zM9.736 17.573c-0.292 0-0.529 0.237-0.529 0.529h0.235c0-0.163 0.132-0.295 0.295-0.295v-0.234zM9.207 18.102v5.934h0.235v-5.934h-0.235zM9.207 24.036c0 0.292 0.237 0.529 0.529 0.529v-0.234c-0.163 0-0.295-0.132-0.295-0.295h-0.235zM9.736 24.565h6.264v-0.234h-6.264v0.234zM16 24.565c0.292 0 0.529-0.237 0.529-0.529h-0.235c0 0.163-0.132 0.295-0.295 0.295v0.234zM16.529 24.036c0-0.292-0.237-0.529-0.529-0.529v0.234c0.163 0 0.295 0.132 0.295 0.295h0.235zM16 23.507h-5.852v0.234h5.852v-0.234zM10.265 23.624v-5.11h-0.234v5.11h0.234zM10.148 18.631h11.703v-0.235h-11.703v0.235zM21.735 18.514v5.11h0.234v-5.11h-0.234zM21.852 23.507h-6.69v0.234h6.69v-0.234zM15.162 23.507c-0.292 0-0.529 0.237-0.529 0.529h0.234c0-0.163 0.132-0.295 0.295-0.295v-0.234zM14.632 24.036c0 0.292 0.237 0.529 0.529 0.529v-0.234c-0.163 0-0.295-0.132-0.295-0.295h-0.234zM15.162 24.565h7.102v-0.234h-7.102v0.234zM22.264 24.565c0.292 0 0.529-0.237 0.529-0.529h-0.235c0 0.163-0.132 0.295-0.295 0.295v0.234zM22.793 24.036v-5.934h-0.235v5.934h0.235zM22.793 18.102c0-0.292-0.237-0.529-0.529-0.529v0.234c0.163 0 0.295 0.132 0.295 0.295h0.235zM22.264 17.69h-12.528c-0.228 0-0.412 0.185-0.412 0.412v5.934c0 0.228 0.184 0.412 0.412 0.412h6.264c0.228 0 0.412-0.184 0.412-0.412s-0.184-0.412-0.412-0.412h-5.852v-5.11h11.703v5.11h-6.69c-0.227 0-0.412 0.184-0.412 0.412s0.185 0.412 0.412 0.412h7.102c0.228 0 0.412-0.184 0.412-0.412v-5.934c0-0.228-0.184-0.412-0.412-0.412z" fill="#0075BF"></path>
</svg>
