<!-- Generated by IcoMoon.io -->
<svg version="1.1" xmlns="http://www.w3.org/2000/svg" width="50" height="50" viewBox="0 0 32 32">
<title>icon-informazioni</title>
<path d="M16 25.467c-5.228 0-9.467-4.238-9.467-9.467s4.238-9.467 9.467-9.467c5.228 0 9.467 4.238 9.467 9.467s-4.238 9.467-9.467 9.467zM16 26.667c5.891 0 10.667-4.776 10.667-10.667s-4.776-10.667-10.667-10.667c-5.891 0-10.667 4.776-10.667 10.667s4.776 10.667 10.667 10.667zM14.934 14.222h2.133v6.518h-2.133zM17.066 12.326c0 0.589-0.477 1.067-1.066 1.067s-1.066-0.478-1.066-1.067c0-0.589 0.477-1.066 1.066-1.066s1.066 0.477 1.066 1.066z" fill="#0075BF"></path>
</svg>
