<!-- Generated by IcoMoon.io -->
<svg version="1.1" xmlns="http://www.w3.org/2000/svg" width="50" height="50" viewBox="0 0 32 32">
<title>icon-user</title>
<path d="M23.542 8.458c-2.015-2.015-4.694-3.124-7.542-3.124s-5.527 1.11-7.542 3.124c-2.015 2.015-3.124 4.693-3.124 7.542s1.11 5.527 3.124 7.542c2.015 2.014 4.693 3.124 7.542 3.124s5.527-1.11 7.542-3.124c2.014-2.015 3.124-4.694 3.124-7.542s-1.11-5.527-3.124-7.542zM10.681 23.766c0.446-2.568 2.672-4.463 5.319-4.463s4.873 1.895 5.319 4.463c-1.514 1.041-3.347 1.651-5.319 1.651s-3.805-0.61-5.319-1.651zM12.609 14.661c0-1.87 1.521-3.391 3.391-3.391s3.392 1.521 3.392 3.391c0 1.87-1.522 3.392-3.392 3.392s-3.391-1.522-3.391-3.392zM22.402 22.899c-0.336-1.196-1.005-2.281-1.941-3.128-0.574-0.52-1.228-0.93-1.932-1.22 1.271-0.829 2.112-2.263 2.112-3.89 0-2.56-2.082-4.642-4.642-4.642s-4.642 2.082-4.642 4.642c0 1.627 0.842 3.061 2.112 3.89-0.703 0.289-1.357 0.7-1.932 1.22-0.937 0.848-1.605 1.932-1.941 3.128-1.853-1.721-3.015-4.176-3.015-6.899 0-5.193 4.224-9.417 9.417-9.417s9.417 4.224 9.417 9.417c0 2.723-1.162 5.178-3.015 6.899z" fill="#0075BF"></path>
</svg>
