<!-- Generated by IcoMoon.io -->
<svg version="1.1" xmlns="http://www.w3.org/2000/svg" width="50" height="50" viewBox="0 0 32 32">
<title>icon-promozione_evento</title>
<path d="M9.374 21.505c-1.359 0.51-2.911-0.043-3.641-1.306-0.824-1.427-0.332-3.262 1.095-4.086l3.526-2.036 5.431-6.918c0.246-0.384 0.659-0.609 1.131-0.609 0.472 0.006 0.895 0.254 1.131 0.662l1.514 2.623 1.557-0.093c0.184-0.011 0.363 0.085 0.455 0.244l0.833 1.443c0.093 0.161 0.087 0.362-0.015 0.516l-0.86 1.302 1.362 2.358c0.491 0.85-0.090 1.931-1.066 1.984-2.625 0.515-5.248 1.043-7.875 1.545l0.489 0.848c0.135 0.235 0.055 0.536-0.18 0.671l-1.018 0.588 1.213 2.101c0.48 0.832 0.194 1.898-0.637 2.379-0.83 0.48-1.9 0.192-2.379-0.637l-2.066-3.579zM13.615 23.852l-0.010-0.018c-0.678-1.183-1.364-2.363-2.046-3.544l-1.314 0.758 2.046 3.544c0.209 0.361 0.675 0.487 1.036 0.278 0.356-0.206 0.484-0.659 0.288-1.019zM12.752 20.391l0.592-0.342-0.342-0.592-0.592 0.342 0.342 0.592zM20.874 10.741l-0.763 0.046 0.871 1.51 0.422-0.638-0.53-0.918zM16.491 7.852l5.074 8.789c0.063-0.013 0.13-0.028 0.189-0.030 0.258-0.006 0.417-0.289 0.288-0.512l-4.846-8.394c-0.063-0.109-0.168-0.169-0.292-0.171-0.123-0.002-0.231 0.059-0.296 0.164-0.031 0.051-0.076 0.105-0.116 0.154zM15.837 8.684l-4.564 5.814 2.158 3.738 7.114-1.395-4.708-8.156zM12.511 18.605l-2.008-3.479-3.183 1.838c-0.62 0.358-1.005 1.026-1.005 1.741 0 0.352 0.094 0.698 0.27 1.002 0.553 0.958 1.786 1.289 2.744 0.736l3.182-1.838zM26.047 7.73l-2.322 1.292c-0.201 0.112-0.274 0.366-0.162 0.567s0.365 0.274 0.567 0.161l2.322-1.292c0.201-0.112 0.274-0.365 0.162-0.567s-0.366-0.273-0.567-0.161zM25.804 12.045l-1.61-0.431c-0.222-0.060-0.451 0.073-0.51 0.295s0.073 0.451 0.295 0.51l1.61 0.431c0.224 0.060 0.451-0.074 0.51-0.295 0.060-0.222-0.072-0.451-0.295-0.51zM21.758 6.216l-0.432 1.61c-0.060 0.223 0.072 0.451 0.295 0.511s0.451-0.072 0.51-0.295l0.432-1.61c0.060-0.223-0.073-0.451-0.295-0.511s-0.451 0.073-0.51 0.295z" fill="#0075BF"></path>
</svg>
