<svg width="65" height="65" viewBox="0 0 65 65" fill="none" xmlns="http://www.w3.org/2000/svg">
<path fill-rule="evenodd" clip-rule="evenodd" d="M12.7278 32.1319C11.4398 32.632 9.97678 32.2918 9.03443 31.2612C8.38703 30.5538 8.06089 29.5983 8.13548 28.6418C8.21007 27.6868 8.68441 26.8005 9.42834 26.1989L30.2408 9.37568C32.1343 7.62701 32.7978 7.78983 34.7663 9.38007L55.5715 26.1989C56.3154 26.8005 56.7888 27.6868 56.8644 28.6418C56.9394 29.5978 56.6143 30.5538 55.9669 31.2612C55.3248 31.9637 54.4303 32.3693 53.4777 32.3693C53.0633 32.3693 52.6558 32.283 52.2721 32.1319C52.2721 40.1581 52.2721 48.1839 52.2721 56.2096V56.3354H12.7292V56.2096C12.7292 48.1839 12.7278 40.1576 12.7278 32.1319ZM45.7264 54.42H50.3835V30.8507L32.4999 16.8569L14.6154 30.8507V54.42H33.9707V41.1048C33.9707 40.6768 34.3164 40.3317 34.7444 40.3317H44.9532C45.3798 40.3317 45.7264 40.6778 45.7264 41.1048V54.42ZM44.1795 41.8775H35.5166V54.42H44.1795V41.8775ZM10.4185 29.9595C10.9523 30.5431 11.823 30.6167 12.4465 30.1297L32.4999 14.4389L52.2238 29.8728L52.5534 30.1292C53.1749 30.6133 54.0505 30.5411 54.5829 29.9595C54.8749 29.6397 55.0148 29.2244 54.9811 28.7929C54.947 28.3605 54.7428 27.9759 54.4044 27.7048L33.2931 10.7738C32.6803 10.1776 32.3517 10.259 31.7048 10.7782L10.5954 27.7048C10.2571 27.9759 10.0523 28.3605 10.0187 28.7929C9.98507 29.2249 10.126 29.6392 10.4185 29.9595Z" fill="#0075BF"/>
<path fill-rule="evenodd" clip-rule="evenodd" d="M30.3349 29.3188H20.0603C19.7034 29.3188 19.4129 29.6079 19.4129 29.9663V36.5134C19.4129 36.8708 19.7034 37.1608 20.0603 37.1608H30.3349C30.6932 37.1608 30.9828 36.8708 30.9828 36.5134V29.9663C30.9828 29.6079 30.6932 29.3188 30.3349 29.3188ZM29.6885 35.866H20.7082V30.6127H29.6885V35.866Z" fill="#0075BF"/>
<path fill-rule="evenodd" clip-rule="evenodd" d="M45.0182 29.3188H34.7436C34.3867 29.3188 34.0962 29.6079 34.0962 29.9663V36.5134C34.0962 36.8708 34.3867 37.1608 34.7436 37.1608H45.0182C45.3765 37.1608 45.6661 36.8708 45.6661 36.5134V29.9663C45.6661 29.6079 45.3765 29.3188 45.0182 29.3188ZM44.3718 35.866H35.3915V30.6127H44.3718V35.866Z" fill="#0075BF"/>
<path fill-rule="evenodd" clip-rule="evenodd" d="M30.3349 40.8118H20.0603C19.7034 40.8118 19.4129 41.1013 19.4129 41.4597V49.8101C19.4129 50.1674 19.7034 50.458 20.0603 50.458H30.3349C30.6932 50.458 30.9828 50.1674 30.9828 49.8101V41.4597C30.9828 41.1013 30.6932 40.8118 30.3349 40.8118ZM29.6885 49.1627H20.7082V42.1061H29.6885V49.1627Z" fill="#0075BF"/>
</svg>
