<!-- Generated by IcoMoon.io -->
<svg version="1.1" xmlns="http://www.w3.org/2000/svg" width="50" height="50" viewBox="0 0 32 32">
<title>icon-workshop</title>
<path d="M13.612 17.057l1.599 2.804-1.64 0.447-0.574-2.519 0.615-0.732zM18.429 20.307l-1.64-0.447 1.599-2.804 0.615 0.732-0.574 2.519zM15.129 23.009h1.722l0.779 2.519h-3.28l0.779-2.519zM14.801 16.914c0.794 0.195 1.625 0.195 2.419 0l-1.209 2.032-1.209-2.032zM15.129 21.851l-0.308-0.894 1.189-0.345 1.23 0.345-0.308 0.894h-1.804zM24.435 22.887v2.54h-5.719l-0.881-3.007 0.41-1.179 0.43 0.122h0.164c0.055 0.005 0.112-0.002 0.164-0.019s0.102-0.045 0.143-0.082c0.112-0.069 0.193-0.178 0.225-0.305l0.656-2.864c1.209 0.106 2.334 0.657 3.154 1.545s1.274 2.047 1.274 3.25h-0.021zM11.705 11.286l1.435-1.077c0.827 0.644 1.849 0.994 2.901 0.994s2.074-0.35 2.9-0.994l1.435 1.097v0.386c0 1.14-0.457 2.233-1.27 3.039s-1.916 1.258-3.066 1.258c-1.15 0-2.253-0.452-3.066-1.258s-1.27-1.899-1.27-3.039v-0.406zM19.332 7.405c0.669 0.663 1.045 1.562 1.045 2.5-2.767-2.171-0.809 0.155-4.264 0.155-3.408 0-1.444-2.371-4.448-0.094 0-0.464 0.092-0.924 0.272-1.353s0.442-0.819 0.773-1.147c0.331-0.328 0.724-0.589 1.157-0.766 1.588-0.65 4.262-0.488 5.466 0.705zM11.992 18.154l0.676 2.966c0.051 0.106 0.129 0.196 0.226 0.264 0.093 0.031 0.194 0.031 0.287 0l0.595-0.142 0.41 1.179-0.881 3.007h-5.72v-2.54c0-1.203 0.455-2.362 1.275-3.25s1.945-1.438 3.153-1.545l-0.021 0.061zM19.065 16.122c0.713-0.499 1.294-1.159 1.698-1.926s0.615-1.619 0.618-2.483v-1.788c0-1.214-0.485-2.379-1.35-3.239s-2.038-1.347-3.263-1.352h-1.537c-1.225 0.006-2.398 0.492-3.263 1.352s-1.35 2.025-1.35 3.239v1.788c0.003 0.864 0.215 1.716 0.618 2.483s0.985 1.427 1.698 1.926l-0.779 0.914c-1.524 0.063-2.964 0.711-4.016 1.806s-1.633 2.553-1.621 4.065v3.23c0.005 0.138 0.063 0.27 0.162 0.368s0.232 0.155 0.371 0.16h17.896c0.14-0.006 0.272-0.063 0.371-0.16s0.157-0.23 0.162-0.368v-3.048c0.012-1.512-0.569-2.969-1.621-4.065s-2.492-1.743-4.016-1.806l-0.779-1.097z" fill="#0075BF"></path>
</svg>
