<!-- Generated by IcoMoon.io -->
<svg version="1.1" xmlns="http://www.w3.org/2000/svg" width="50" height="50" viewBox="0 0 32 32">
<title>icon-preferiti</title>
<path d="M26.611 13.504c-0.14-0.432-0.523-0.739-0.976-0.78l-6.157-0.559-2.435-5.699c-0.18-0.418-0.588-0.688-1.043-0.688s-0.863 0.27-1.043 0.689l-2.435 5.698-6.158 0.559c-0.452 0.042-0.835 0.348-0.975 0.78s-0.011 0.906 0.332 1.204l4.654 4.082-1.372 6.045c-0.1 0.445 0.072 0.904 0.441 1.171 0.198 0.143 0.43 0.216 0.664 0.216 0.202 0 0.402-0.054 0.581-0.162l5.311-3.174 5.309 3.174c0.388 0.234 0.878 0.212 1.246-0.054s0.541-0.727 0.441-1.171l-1.372-6.045 4.654-4.081c0.342-0.299 0.473-0.772 0.332-1.205v0z" fill="#464646"></path>
</svg>
