<!-- Generated by IcoMoon.io -->
<svg version="1.1" xmlns="http://www.w3.org/2000/svg" width="50" height="50" viewBox="0 0 32 32">
<title>icon-gestione_CIS</title>
<path d="M6.531 7.794h17.474c0.307 0 0.558 0.251 0.558 0.558v7.89c-0.278-0.049-0.566-0.030-0.836 0.056v-7.667h-16.916v11.339h9.566c-0.061 0.177-0.095 0.368-0.095 0.566v0.271h-9.75c-0.307 0-0.558-0.251-0.558-0.558v-11.897c0-0.307 0.251-0.558 0.558-0.558zM11.947 11.68v1.569c0 0.109-0.097 0.185-0.202 0.185h-1.121c-0.105 0-0.202-0.076-0.202-0.185v-0.926h-0.523v0.926c0 0.109-0.097 0.185-0.202 0.185h-1.121c-0.105 0-0.202-0.076-0.202-0.185v-1.569h-0.259c-0.118 0-0.231-0.062-0.28-0.171-0.049-0.111-0.013-0.231 0.080-0.306l2.045-1.633c0.114-0.092 0.285-0.092 0.399 0l2.045 1.633c0.093 0.074 0.13 0.195 0.080 0.306-0.048 0.109-0.163 0.171-0.28 0.171h-0.259zM11.924 11.31c-0.588-0.469-1.175-0.939-1.763-1.408l-1.763 1.408h0.179c0.105 0 0.202 0.077 0.202 0.185v1.569h0.718v-0.926c0-0.109 0.097-0.185 0.202-0.185h0.927c0.105 0 0.202 0.076 0.202 0.185v0.926h0.717v-1.569c0-0.109 0.098-0.185 0.202-0.185h0.179zM22.452 10.576h-8.538c-0.072 0-0.141 0.029-0.191 0.079s-0.080 0.12-0.080 0.191c0 0.072 0.029 0.141 0.080 0.192s0.119 0.079 0.191 0.079h8.538c0.071 0 0.14-0.028 0.191-0.079s0.079-0.12 0.079-0.192c0-0.071-0.029-0.14-0.079-0.191s-0.12-0.079-0.191-0.079zM22.452 12.068h-8.538c-0.072 0-0.141 0.029-0.191 0.079s-0.080 0.12-0.080 0.191c0 0.072 0.029 0.141 0.080 0.192s0.119 0.079 0.191 0.079h8.538c0.071 0 0.14-0.028 0.191-0.079s0.079-0.12 0.079-0.192c0-0.071-0.029-0.14-0.079-0.191s-0.12-0.079-0.191-0.079zM22.452 14.679h-14.367c-0.072 0-0.141 0.028-0.191 0.079s-0.080 0.12-0.080 0.191c0 0.072 0.029 0.141 0.080 0.192s0.119 0.079 0.191 0.079h14.367c0.071 0 0.14-0.029 0.191-0.079s0.079-0.12 0.079-0.192c0-0.072-0.028-0.14-0.079-0.191s-0.119-0.079-0.191-0.079zM15.676 17.661h-7.717c-0.039 0-0.076 0.029-0.103 0.079s-0.043 0.12-0.043 0.191c0 0.072 0.016 0.141 0.043 0.192s0.064 0.079 0.103 0.079h7.717c0.038 0 0.075-0.028 0.102-0.079s0.043-0.12 0.043-0.192c0-0.071-0.015-0.14-0.043-0.191s-0.064-0.079-0.102-0.079zM17.644 16.17h-9.559c-0.072 0-0.141 0.029-0.191 0.079s-0.080 0.12-0.080 0.191c0 0.072 0.029 0.141 0.080 0.192s0.119 0.079 0.191 0.079h9.559c0.072 0 0.14-0.028 0.191-0.079s0.079-0.12 0.079-0.192c0-0.071-0.028-0.14-0.079-0.191s-0.119-0.079-0.191-0.079zM22.084 25.454h-0.581c-0.47 0-0.852-0.382-0.852-0.852v-0.196c-0.2-0.064-0.394-0.144-0.58-0.241l-0.139 0.14c-0.337 0.337-0.878 0.327-1.205-0l-0.411-0.411c-0.328-0.328-0.337-0.868 0-1.205l0.139-0.139c-0.096-0.186-0.177-0.38-0.241-0.58h-0.196c-0.47 0-0.852-0.382-0.852-0.852v-0.581c0-0.47 0.382-0.852 0.852-0.852h0.196c0.064-0.2 0.144-0.394 0.241-0.58l-0.139-0.139c-0.337-0.337-0.328-0.877 0-1.205l0.411-0.41c0.328-0.329 0.868-0.337 1.205 0l0.139 0.139c0.186-0.096 0.381-0.177 0.58-0.241v-0.196c0-0.47 0.382-0.852 0.852-0.852h0.581c0.47 0 0.852 0.382 0.852 0.852v0.196c0.2 0.064 0.394 0.144 0.58 0.241l0.14-0.139c0.337-0.338 0.877-0.328 1.205 0l0.411 0.411c0.328 0.328 0.337 0.868-0 1.205l-0.139 0.139c0.096 0.186 0.177 0.38 0.241 0.58h0.196c0.47 0 0.852 0.382 0.852 0.852v0.581c0 0.47-0.382 0.852-0.852 0.852h-0.196c-0.064 0.2-0.144 0.394-0.241 0.58l0.139 0.139c0.337 0.337 0.328 0.877-0 1.205l-0.411 0.411c-0.328 0.329-0.868 0.337-1.205-0l-0.139-0.139c-0.186 0.096-0.38 0.177-0.58 0.241v0.197c0 0.47-0.382 0.852-0.852 0.852zM20.162 23.595c0.259 0.153 0.538 0.269 0.828 0.344 0.12 0.031 0.204 0.139 0.204 0.263v0.4c0 0.171 0.139 0.31 0.31 0.31h0.581c0.17 0 0.31-0.139 0.31-0.31v-0.4c0-0.124 0.084-0.232 0.204-0.263 0.291-0.075 0.569-0.191 0.828-0.344 0.106-0.063 0.242-0.046 0.33 0.042l0.284 0.284c0.122 0.122 0.319 0.12 0.438 0l0.411-0.411c0.119-0.119 0.123-0.315 0-0.438l-0.284-0.284c-0.087-0.088-0.105-0.223-0.042-0.33 0.153-0.259 0.269-0.538 0.344-0.828 0.031-0.12 0.139-0.204 0.263-0.204h0.4c0.171 0 0.31-0.139 0.31-0.31v-0.581c0-0.171-0.139-0.31-0.31-0.31h-0.4c-0.124 0-0.232-0.084-0.263-0.203-0.075-0.291-0.191-0.569-0.344-0.829-0.063-0.106-0.046-0.242 0.042-0.33l0.284-0.284c0.122-0.122 0.119-0.319 0-0.438l-0.411-0.411c-0.119-0.119-0.315-0.123-0.438-0l-0.284 0.284c-0.087 0.088-0.223 0.105-0.33 0.042-0.259-0.153-0.538-0.269-0.828-0.344-0.12-0.031-0.204-0.139-0.204-0.263v-0.4c0-0.171-0.139-0.31-0.31-0.31h-0.581c-0.171 0-0.31 0.139-0.31 0.31v0.4c0 0.124-0.084 0.232-0.204 0.263-0.291 0.075-0.569 0.191-0.828 0.344-0.107 0.063-0.242 0.046-0.33-0.042l-0.284-0.284c-0.122-0.122-0.319-0.12-0.438-0l-0.411 0.411c-0.119 0.119-0.123 0.315-0 0.438l0.284 0.284c0.087 0.088 0.105 0.223 0.042 0.33-0.153 0.259-0.269 0.538-0.344 0.829-0.031 0.12-0.139 0.203-0.262 0.203h-0.4c-0.171 0-0.31 0.139-0.31 0.31v0.581c0 0.171 0.139 0.31 0.31 0.31h0.4c0.124 0 0.231 0.084 0.262 0.204 0.075 0.291 0.191 0.569 0.344 0.828 0.063 0.107 0.046 0.242-0.042 0.33l-0.284 0.284c-0.123 0.122-0.12 0.319-0 0.438l0.411 0.411c0.119 0.119 0.316 0.123 0.438 0l0.284-0.284c0.064-0.064 0.199-0.119 0.33-0.042zM21.794 22.883c-1.134 0-2.057-0.922-2.057-2.057s0.923-2.057 2.057-2.057 2.057 0.922 2.057 2.057c0 1.134-0.922 2.057-2.057 2.057zM21.794 19.324c-0.829 0-1.503 0.674-1.503 1.503s0.674 1.503 1.503 1.503 1.503-0.674 1.503-1.503c0-0.829-0.674-1.503-1.503-1.503z" fill="#0075BF"></path>
</svg>
