<!-- Generated by IcoMoon.io -->
<svg version="1.1" xmlns="http://www.w3.org/2000/svg" width="50" height="50" viewBox="0 0 32 32">
<title>icon-log_out</title>
<path d="M8 5.895c0-0.31 0.239-0.561 0.533-0.561h8.534c0.294 0 0.533 0.252 0.533 0.561s-0.239 0.561-0.533 0.561h-8v19.088h8c0.294 0 0.533 0.251 0.533 0.561s-0.239 0.561-0.533 0.561h-8.534c-0.294 0-0.533-0.252-0.533-0.561v-20.211zM11.2 16c0-0.31 0.239-0.561 0.533-0.561h11.733c0.295 0 0.534 0.251 0.534 0.561s-0.239 0.561-0.534 0.561h-11.733c-0.294 0-0.533-0.251-0.533-0.561zM18.823 11.112c0.208-0.219 0.546-0.219 0.754 0l4.267 4.491c0.208 0.219 0.208 0.575 0 0.794l-4.267 4.491c-0.208 0.219-0.546 0.219-0.754 0s-0.209-0.575 0-0.794l3.889-4.095-3.889-4.095c-0.209-0.219-0.209-0.574 0-0.794z" fill="#ffffff"></path>
</svg>
