<!-- Generated by IcoMoon.io -->
<svg version="1.1" xmlns="http://www.w3.org/2000/svg" width="50" height="50" viewBox="0 0 32 32">
<title>icon-matching</title>
<path d="M11.164 26.667h-0.689c-0.557 0-1.010-0.453-1.010-1.010v-0.233c-0.237-0.076-0.467-0.171-0.688-0.286l-0.165 0.165c-0.4 0.4-1.040 0.389-1.428 0l-0.487-0.486c-0.389-0.388-0.4-1.029 0.001-1.428l0.165-0.166c-0.115-0.221-0.21-0.451-0.286-0.687h-0.233c-0.557 0-1.010-0.453-1.010-1.010v-0.689c0-0.557 0.453-1.010 1.010-1.010h0.233c0.076-0.237 0.171-0.467 0.286-0.688l-0.166-0.165c-0.4-0.4-0.389-1.040 0.001-1.429l0.486-0.487c0.389-0.39 1.029-0.399 1.429 0l0.165 0.165c0.221-0.114 0.451-0.21 0.687-0.285v-0.233c0-0.556 0.453-1.010 1.010-1.010h0.689c0.557 0 1.010 0.454 1.010 1.010v0.233c0.237 0.076 0.467 0.171 0.688 0.285l0.165-0.165c0.4-0.4 1.040-0.388 1.429 0l0.487 0.487c0.389 0.388 0.4 1.028 0 1.428l-0.165 0.165c0.114 0.221 0.21 0.451 0.285 0.688h0.233c0.556 0 1.010 0.453 1.010 1.010v0.689c0 0.557-0.454 1.010-1.010 1.010h-0.233c-0.076 0.237-0.171 0.467-0.285 0.687l0.165 0.166c0.4 0.399 0.389 1.040 0 1.428l-0.487 0.486c-0.389 0.39-1.029 0.4-1.428 0l-0.165-0.165c-0.221 0.114-0.451 0.21-0.688 0.286v0.233c0 0.557-0.453 1.010-1.010 1.010zM8.885 24.463c0.307 0.182 0.637 0.319 0.982 0.408 0.142 0.036 0.242 0.164 0.242 0.311v0.475c0 0.202 0.164 0.367 0.367 0.367h0.689c0.202 0 0.367-0.164 0.367-0.367v-0.475c0-0.146 0.099-0.275 0.241-0.311 0.345-0.089 0.675-0.226 0.982-0.408 0.126-0.075 0.287-0.054 0.391 0.049l0.336 0.336c0.145 0.145 0.378 0.142 0.519 0l0.487-0.487c0.141-0.141 0.146-0.374 0.001-0.519l-0.336-0.336c-0.104-0.104-0.124-0.265-0.049-0.391 0.182-0.307 0.318-0.637 0.407-0.982 0.037-0.142 0.165-0.241 0.311-0.241h0.475c0.202 0 0.367-0.164 0.367-0.367v-0.689c0-0.202-0.165-0.367-0.367-0.367h-0.475c-0.147 0-0.275-0.099-0.311-0.241-0.089-0.345-0.226-0.675-0.407-0.982-0.075-0.126-0.054-0.287 0.049-0.391l0.336-0.336c0.146-0.145 0.142-0.378 0.001-0.519l-0.487-0.487c-0.141-0.141-0.374-0.146-0.519 0l-0.336 0.336c-0.104 0.104-0.264 0.124-0.391 0.049-0.307-0.182-0.638-0.319-0.982-0.408-0.142-0.037-0.241-0.165-0.241-0.311v-0.475c0-0.202-0.165-0.367-0.367-0.367h-0.688c-0.203 0-0.367 0.165-0.367 0.367v0.475c0 0.147-0.1 0.275-0.242 0.311-0.345 0.089-0.675 0.226-0.982 0.408-0.126 0.075-0.287 0.054-0.391-0.050l-0.336-0.336c-0.145-0.145-0.378-0.142-0.519-0.001l-0.487 0.487c-0.141 0.141-0.146 0.374 0 0.519l0.336 0.336c0.104 0.104 0.124 0.264 0.049 0.391-0.182 0.307-0.319 0.638-0.408 0.982-0.036 0.142-0.164 0.241-0.311 0.241h-0.475c-0.203 0-0.367 0.165-0.367 0.367v0.689c0 0.202 0.164 0.367 0.367 0.367h0.475c0.146 0 0.275 0.1 0.311 0.241 0.089 0.345 0.226 0.675 0.408 0.982 0.075 0.126 0.054 0.287-0.049 0.391l-0.336 0.336c-0.145 0.145-0.141 0.378 0 0.519l0.487 0.487c0.141 0.141 0.374 0.145 0.519 0l0.336-0.336c0.077-0.076 0.236-0.141 0.391-0.049zM10.819 23.619c-1.344 0-2.438-1.094-2.438-2.438s1.094-2.438 2.438-2.438 2.438 1.094 2.438 2.438c0 1.344-1.093 2.438-2.438 2.438zM10.819 19.399c-0.982 0-1.782 0.799-1.782 1.781s0.799 1.782 1.782 1.782c0.982 0 1.781-0.799 1.781-1.782s-0.799-1.781-1.781-1.781zM12.186 6.404c-0.691-0.691-1.609-1.071-2.586-1.071s-1.895 0.381-2.586 1.071c-0.691 0.691-1.071 1.609-1.071 2.586s0.381 1.895 1.071 2.586c0.691 0.691 1.609 1.071 2.586 1.071s1.895-0.38 2.586-1.071c0.691-0.691 1.071-1.609 1.071-2.586s-0.38-1.895-1.071-2.586zM7.777 11.653c0.153-0.881 0.916-1.53 1.824-1.53s1.671 0.65 1.824 1.53c-0.519 0.356-1.147 0.566-1.824 0.566s-1.304-0.209-1.824-0.566zM8.437 8.532c0-0.641 0.521-1.163 1.163-1.163s1.163 0.521 1.163 1.163c0 0.641-0.522 1.163-1.163 1.163s-1.163-0.522-1.163-1.163zM11.795 11.356c-0.116-0.41-0.345-0.782-0.666-1.073-0.197-0.178-0.421-0.319-0.662-0.418 0.436-0.284 0.724-0.776 0.724-1.333 0-0.878-0.714-1.591-1.591-1.591s-1.591 0.714-1.591 1.591c0 0.557 0.288 1.049 0.724 1.333-0.241 0.099-0.465 0.24-0.662 0.418-0.321 0.291-0.55 0.662-0.665 1.073-0.635-0.59-1.033-1.432-1.033-2.365 0-1.78 1.448-3.228 3.228-3.228s3.228 1.448 3.228 3.228c0 0.933-0.398 1.775-1.033 2.365zM25.596 19.814c-0.691-0.691-1.609-1.071-2.586-1.071s-1.895 0.38-2.586 1.071c-0.691 0.691-1.071 1.609-1.071 2.586s0.38 1.895 1.071 2.586c0.691 0.691 1.609 1.071 2.586 1.071s1.895-0.381 2.586-1.071c0.691-0.691 1.071-1.609 1.071-2.586s-0.381-1.895-1.071-2.586zM21.186 25.062c0.153-0.88 0.916-1.53 1.824-1.53s1.671 0.65 1.824 1.53c-0.519 0.357-1.147 0.566-1.824 0.566s-1.304-0.209-1.824-0.566zM21.846 21.941c0-0.641 0.522-1.163 1.163-1.163s1.163 0.522 1.163 1.163c0 0.641-0.521 1.163-1.163 1.163s-1.163-0.522-1.163-1.163zM25.204 24.765c-0.115-0.41-0.345-0.782-0.666-1.073-0.197-0.178-0.421-0.319-0.662-0.418 0.436-0.284 0.724-0.776 0.724-1.334 0-0.878-0.714-1.591-1.591-1.591s-1.591 0.714-1.591 1.591c0 0.558 0.288 1.050 0.724 1.334-0.241 0.099-0.465 0.24-0.662 0.418-0.321 0.291-0.551 0.663-0.666 1.073-0.636-0.59-1.034-1.432-1.034-2.365 0-1.78 1.448-3.228 3.228-3.228s3.228 1.448 3.228 3.228c0 0.934-0.398 1.776-1.033 2.365zM24.376 7.624c-0.691-0.691-1.609-1.071-2.586-1.071s-1.895 0.381-2.586 1.071c-0.691 0.691-1.071 1.609-1.071 2.586s0.38 1.895 1.071 2.586c0.691 0.691 1.609 1.071 2.586 1.071s1.895-0.38 2.586-1.071c0.691-0.691 1.071-1.609 1.071-2.586s-0.381-1.895-1.071-2.586zM19.967 12.872c0.153-0.881 0.916-1.53 1.824-1.53s1.671 0.649 1.824 1.53c-0.519 0.357-1.147 0.566-1.824 0.566s-1.304-0.209-1.824-0.566zM20.627 9.751c0-0.641 0.522-1.163 1.163-1.163s1.163 0.522 1.163 1.163c0 0.641-0.522 1.162-1.163 1.162s-1.163-0.522-1.163-1.162zM23.985 12.575c-0.115-0.41-0.344-0.782-0.665-1.073-0.197-0.178-0.422-0.319-0.663-0.418 0.436-0.284 0.724-0.776 0.724-1.333 0-0.878-0.714-1.591-1.591-1.591s-1.591 0.714-1.591 1.591c0 0.557 0.289 1.050 0.724 1.333-0.241 0.1-0.465 0.24-0.662 0.418-0.321 0.29-0.55 0.663-0.666 1.073-0.635-0.59-1.033-1.432-1.033-2.365 0-1.78 1.448-3.228 3.228-3.228s3.228 1.448 3.228 3.228c0 0.934-0.398 1.775-1.033 2.365zM9.6 12.953c0.168 0 0.304 0.136 0.304 0.304v1.829c0 0.169-0.136 0.305-0.304 0.305s-0.305-0.136-0.305-0.305v-1.829c0-0.168 0.137-0.304 0.305-0.304zM19.568 13.651c0.119 0.119 0.119 0.312 0 0.431l-3.657 3.657c-0.119 0.119-0.312 0.119-0.431 0s-0.119-0.312 0-0.431l3.657-3.657c0.119-0.119 0.312-0.119 0.431 0zM16.609 22.4c0-0.168 0.136-0.304 0.305-0.304h1.829c0.168 0 0.304 0.136 0.304 0.304s-0.136 0.305-0.304 0.305h-1.829c-0.169 0-0.305-0.136-0.305-0.305zM13.578 8.894c0.053-0.16 0.226-0.246 0.385-0.192l3.657 1.219c0.16 0.053 0.246 0.226 0.193 0.386s-0.226 0.246-0.386 0.192l-3.657-1.219c-0.16-0.054-0.246-0.226-0.193-0.386zM23.009 14.172c0.168 0 0.305 0.137 0.305 0.305v3.657c0 0.168-0.136 0.304-0.305 0.304s-0.304-0.136-0.304-0.304v-3.657c0-0.168 0.136-0.305 0.304-0.305zM12.432 11.823c0.119-0.119 0.312-0.119 0.431 0l7.314 7.314c0.119 0.119 0.119 0.312 0 0.431s-0.312 0.119-0.431 0l-7.314-7.314c-0.119-0.119-0.119-0.312 0-0.431z" fill="#0075BF"></path>
</svg>
