<!-- Generated by IcoMoon.io -->
<svg version="1.1" xmlns="http://www.w3.org/2000/svg" width="50" height="50" viewBox="0 0 32 32">
<title>icon-add_impresa_professione</title>
<path d="M6.569 22.657v-9.964c-0.746-0.501-1.198-1.337-1.198-2.241 0-0.066 0.018-0.13 0.050-0.187l2.223-3.891c0.174-0.304 0.498-0.492 0.848-0.492h13.078c0.35 0 0.674 0.188 0.848 0.492l2.223 3.891c0.032 0.057 0.050 0.122 0.050 0.187 0 0.903-0.452 1.74-1.198 2.241v4.906c-0.244-0.071-0.496-0.121-0.755-0.15v-4.405c-0.242 0.070-0.493 0.105-0.746 0.105-0.958 0-1.837-0.509-2.32-1.323-0.484 0.814-1.362 1.323-2.321 1.323s-1.837-0.509-2.321-1.323c-0.484 0.814-1.362 1.323-2.321 1.323s-1.837-0.509-2.32-1.323c-0.484 0.814-1.362 1.323-2.321 1.323-0.253 0-0.503-0.035-0.746-0.105v9.612h10.324v-8.612c0-0.208 0.169-0.377 0.377-0.377h3.593c0.208 0 0.378 0.169 0.378 0.377v3.386c-0.258 0.014-0.511 0.050-0.755 0.107v-3.115h-2.838v4.934h0.173c-0.493 0.717-0.782 1.586-0.782 2.522 0 0.538 0.096 1.055 0.271 1.533h-11.717c-0.208 0-0.377-0.169-0.377-0.377s0.169-0.378 0.377-0.378h0.222zM20.086 10.83c0.178 0.902 0.975 1.566 1.906 1.566s1.728-0.664 1.906-1.566h-3.812zM23.662 10.076l-1.9-3.326c-0.039-0.068-0.113-0.112-0.192-0.112h-13.078c-0.079 0-0.153 0.043-0.192 0.112l-1.901 3.326h17.264zM6.163 10.83c0.178 0.902 0.976 1.566 1.906 1.566s1.728-0.664 1.906-1.566h-3.812zM19.257 10.83h-3.812c0.178 0.902 0.976 1.566 1.906 1.566s1.728-0.664 1.906-1.566zM14.616 10.83h-3.812c0.178 0.902 0.975 1.566 1.906 1.566s1.728-0.663 1.906-1.566zM16.528 13.669h-8.084c-0.155 0-0.28 0.125-0.28 0.28v5.689c0 0.155 0.126 0.28 0.28 0.28h8.084c0.155 0 0.28-0.126 0.28-0.28v-5.689c0-0.155-0.125-0.28-0.28-0.28zM16.248 19.358h-7.524v-5.129h7.524v5.129zM22.248 25.834c-2.184 0-3.954-1.77-3.954-3.954s1.77-3.954 3.954-3.954c2.184 0 3.954 1.77 3.954 3.954s-1.77 3.954-3.954 3.954zM22.248 26.335c2.461 0 4.456-1.995 4.456-4.456s-1.995-4.456-4.456-4.456c-2.461 0-4.455 1.995-4.455 4.456s1.995 4.456 4.455 4.456zM22.248 19.373c0.154 0 0.278 0.125 0.278 0.278v1.95h1.949c0.154 0 0.278 0.124 0.278 0.278s-0.125 0.278-0.278 0.278h-1.949v1.95c0 0.153-0.124 0.278-0.278 0.278s-0.278-0.125-0.278-0.278v-1.95h-1.949c-0.154 0-0.278-0.124-0.278-0.278s0.125-0.278 0.278-0.278h1.949v-1.95c0-0.153 0.124-0.278 0.278-0.278z" fill="#0075BF"></path>
</svg>
