<!-- Generated by IcoMoon.io -->
<svg version="1.1" xmlns="http://www.w3.org/2000/svg" width="50" height="50" viewBox="0 0 32 32">
<title>icon-ricevuta_spot</title>
<path d="M25.775 23.222h-1.277c-0.050 0-0.1 0.010-0.147 0.030s-0.089 0.049-0.124 0.086c-0.035 0.037-0.063 0.081-0.082 0.129s-0.028 0.099-0.027 0.151v1.349l1.656-1.745zM20.701 17.987l3.529 0.012 0.005 0.002h0l0.005 0.002h0l0.005 0.002h0l0.005 0.002h0l0.005 0.002h0l0.005 0.002h0l0.005 0.003h0l0.004 0.003h0l0.004 0.003h0l0.004 0.003h0l0.004 0.003h0l0.004 0.003h0l0.009 0.006 0.004 0.003 0.004 0.003h0l0.004 0.004h0l0.004 0.004 0.004 0.004 0.004 0.004h0l0.007 0.008 0.003 0.004 0.003 0.004 0.003 0.004h0l0.003 0.004h0l0.006 0.009 0.003 0.005 0.003 0.005 0.003 0.005 0.003 0.005 0.002 0.005h0l0.002 0.005h0l0.002 0.005 0.002 0.005h0l0.002 0.005 0.002 0.005 0.002 0.005 0.002 0.005 0.002 0.005 0.001 0.006 0.001 0.005 0.002 0.011 0.001 0.006 0.001 0.006 0.001 0.012 0 0.006v0.012l-0 0.006-0.001 0.012-0.001 0.006-0.001 0.006-0.002 0.011-0.001 0.005-0.001 0.006-0.002 0.005-0.002 0.005-0.002 0.005v0l-0.002 0.005-0.002 0.005h-0l-0.002 0.005-0.002 0.005h-0l-0.005 0.010v0l-0.005 0.009v0l-0.003 0.004-0.003 0.005-0.006 0.009h-0l-0.003 0.004h-0l-0.003 0.004-0.003 0.004-0.003 0.004-0.004 0.004-0.004 0.004-0 0-0.004 0.004-0.004 0.004-0.004 0.004h-0l-0.004 0.003-0 0-0.004 0.003-0.004 0.003-0.009 0.006h-0l-0.004 0.003h-0l-0.004 0.003h-0l-0.004 0.003-0 0-0.004 0.003-0 0-0.004 0.003h-0l-0.005 0.002-0 0-0.005 0.002h-0l-0.005 0.002h-0l-0.005 0.002-0 0-0.005 0.002h-0l-0.005 0.002-0 0-0.005 0.002-0 0-0.005 0.002h-0l-0.005 0.002-0 0-0.005 0.001-0 0-0.005 0.001-0 0-0.005 0.001-0.005 0.001-0 0-0.005 0.001-0 0-0.006 0.001h-0l-0.005 0.001-0 0-0.006 0-0 0-0.006 0-0 0h-0.006l-0.006 0h-3.456c-0.124 0-0.226-0.101-0.226-0.226v0c0-0.124 0.101-0.226 0.226-0.226zM20.701 19.191l3.529 0.012 0.005 0.002h0l0.005 0.002h0l0.005 0.002h0l0.005 0.002h0l0.005 0.002h0l0.005 0.002h0l0.005 0.003h0l0.004 0.003h0l0.004 0.003h0l0.004 0.003h0l0.004 0.003h0l0.004 0.003h0l0.009 0.006 0.004 0.003 0.004 0.003h0l0.004 0.004h0l0.004 0.004 0.004 0.004 0.004 0.004h0l0.007 0.008 0.003 0.004 0.003 0.004 0.003 0.004h0l0.003 0.004h0l0.006 0.009 0.003 0.005 0.003 0.005 0.003 0.005 0.003 0.005 0.002 0.005h0l0.002 0.005h0l0.002 0.005 0.002 0.005h0l0.002 0.005 0.002 0.005 0.002 0.005 0.002 0.005 0.002 0.005 0.001 0.006 0.001 0.005 0.002 0.011 0.001 0.006 0.001 0.006 0.001 0.012 0 0.006v0.012l-0 0.006-0.001 0.012-0.001 0.006-0.001 0.006-0.001 0.006-0.001 0.005v0l-0.001 0.005-0.001 0.006-0.002 0.005-0.002 0.005-0.002 0.005-0.002 0.005-0.002 0.005h-0l-0.002 0.005-0.002 0.005h-0l-0.002 0.005h-0l-0.002 0.005-0.003 0.005-0.003 0.005-0.003 0.005-0.003 0.005-0.006 0.009h-0l-0.003 0.004-0 0-0.003 0.004v0l-0.003 0.004v0l-0.003 0.004-0.004 0.004-0.004 0.004-0.004 0.004v0l-0.008 0.007-0 0-0.004 0.003-0 0-0.004 0.003v0l-0.004 0.003v0l-0.009 0.006h-0l-0.004 0.003-0 0-0.004 0.003-0 0-0.004 0.003-0 0-0.004 0.003-0 0-0.004 0.002-0 0-0.005 0.002-0 0-0.005 0.002h-0l-0.005 0.002h-0l-0.005 0.002-0 0-0.005 0.002h-0l-0.005 0.002-0 0-0.005 0.002-0 0-0.005 0.002-0 0-0.005 0.002-0 0-0.005 0.001-0 0-0.005 0.001-0 0-0.005 0.001v0l-0.005 0.001-0 0-0.005 0.001-0 0-0.006 0-0 0-0.005 0.001-0 0-0.006 0-0 0-0.006 0-0 0h-0.006l-0.006 0h-3.456c-0.124 0-0.226-0.101-0.226-0.226v0c0-0.124 0.101-0.226 0.226-0.226zM20.701 20.394l3.529 0.012 0.005 0.002h0l0.005 0.002h0l0.005 0.002h0l0.005 0.002h0l0.005 0.002h0l0.005 0.002h0l0.005 0.003h0l0.004 0.003h0l0.004 0.003h0l0.004 0.003h0l0.004 0.003h0l0.004 0.003h0l0.009 0.006 0.004 0.003 0.004 0.003h0l0.004 0.004h0l0.004 0.004 0.004 0.004 0.004 0.004h0l0.004 0.004 0.004 0.004 0.003 0.004 0.003 0.004 0.003 0.004h0l0.003 0.004h0l0.006 0.009 0.003 0.005 0.003 0.005 0.003 0.005 0.003 0.005 0.002 0.005h0l0.002 0.005h0l0.002 0.005 0.002 0.005h0l0.002 0.005 0.002 0.005 0.003 0.011 0.002 0.005 0.001 0.005 0.003 0.017 0.001 0.006 0.001 0.006 0.001 0.012 0 0.006v0.012l-0 0.006-0.001 0.012-0.001 0.006-0.001 0.006-0.003 0.017-0.001 0.005-0.002 0.005-0.003 0.011-0.002 0.005-0.002 0.005h-0l-0.002 0.005-0.002 0.005h-0l-0.002 0.005h-0l-0.002 0.005-0.003 0.005v0l-0.003 0.005-0.003 0.005-0.006 0.009v0l-0.003 0.004-0 0-0.003 0.004h-0l-0.003 0.004-0.003 0.004-0.003 0.004v0l-0.004 0.004v0l-0.004 0.004h-0l-0.004 0.004-0.004 0.004-0.004 0.004h-0l-0.004 0.004h-0l-0.004 0.003v0l-0.004 0.003v0l-0.009 0.006h-0l-0.004 0.003-0 0-0.004 0.003-0 0-0.004 0.003h-0l-0.004 0.003h-0l-0.004 0.003-0 0-0.005 0.002-0 0-0.005 0.002-0 0-0.005 0.002-0 0-0.005 0.002-0 0-0.005 0.002-0 0-0.005 0.002-0 0-0.005 0.002-0 0-0.005 0.002-0 0-0.005 0.002-0 0-0.005 0.001-0 0-0.005 0.001-0 0-0.005 0.001v0l-0.005 0.001-0 0-0.005 0.001-0 0-0.006 0-0 0-0.005 0.001-0 0-0.006 0-0 0-0.006 0-0 0h-0.006l-0.006 0h-3.456c-0.124 0-0.226-0.102-0.226-0.226v0c0-0.124 0.101-0.226 0.226-0.226zM24.727 11.926v3.137h0.423c0.202 0.002 0.401 0.045 0.586 0.126s0.354 0.199 0.495 0.348c0.141 0.148 0.252 0.323 0.326 0.516s0.112 0.398 0.109 0.605v6.528l-2.703 2.654-0.035 0.044h-4.162c-0.201-0.002-0.4-0.045-0.585-0.125s-0.353-0.198-0.493-0.345c-0.141-0.148-0.252-0.322-0.327-0.514s-0.113-0.396-0.111-0.603v-2.166h-7.747c-0.165 0.255-0.448 0.412-0.756 0.412h-0.91c-0.308 0-0.591-0.158-0.756-0.412h-0.701c-1.13 0-2.049-0.919-2.049-2.048v-9.334h0.005c0.071-1.066 0.961-1.912 2.044-1.912h0.701c0.165-0.255 0.448-0.412 0.756-0.412h0.909c0.308 0 0.592 0.157 0.756 0.412h0.742v-0.682c0-1.215 0.988-2.203 2.203-2.203h3.163c1.215 0 2.203 0.988 2.203 2.203v0.682h0.742c0.164-0.255 0.448-0.412 0.756-0.412h0.91c0.308 0 0.591 0.157 0.756 0.412h0.701c1.13 0 2.049 0.919 2.049 2.049v1.041zM24.727 15.582l-5.125 0.018-0.006 0.001-0.005 0.001-0.001 0-0.006 0.001-0.006 0.001-0.011 0.003-0.001 0-0.004 0.001-0.006 0.001-0.002 0.001-0.003 0.001-0.011 0.003-0.005 0.001-0.004 0.001-0.001 0-0.006 0.002-0.006 0.002-0.005 0.002-0.006 0.002-0.001 0-0.004 0.001-0.006 0.002-0.002 0.001-0.003 0.001-0.006 0.002-0.003 0.001-0.002 0.001-0.005 0.002-0.004 0.001-0.001 0-0.005 0.002-0.005 0.002v0l-0.005 0.002-0.005 0.002-0.001 0-0.004 0.002-0.005 0.002-0.002 0.001-0.009 0.003-0.003 0.001-0.002 0.001-0.009 0.004-0.001 0.001c-0.135 0.055-0.258 0.139-0.361 0.248-0.189 0.199-0.294 0.467-0.294 0.745v7.632c-0.002 0.138 0.023 0.276 0.073 0.404s0.124 0.246 0.217 0.345c0.094 0.099 0.206 0.178 0.329 0.233s0.256 0.084 0.391 0.086h3.853v-1.731c0.002-0.243 0.096-0.476 0.263-0.648s0.392-0.271 0.629-0.275h1.649v-6.045c0.003-0.139-0.021-0.277-0.071-0.405s-0.124-0.247-0.218-0.346c-0.094-0.099-0.206-0.179-0.33-0.233s-0.257-0.083-0.392-0.084h-0.423zM23.891 15.063v-4.177c0-0.668-0.544-1.212-1.212-1.212h-0.555v5.389h1.767zM21.286 15.063v-5.737c0-0.035-0.029-0.064-0.064-0.064h-0.91c-0.035 0-0.064 0.029-0.064 0.064v5.737h1.038zM19.412 15.11v-5.436h-8.763v11.62h7.602v-4.637c-0.003-0.207 0.034-0.412 0.109-0.605s0.186-0.368 0.327-0.516c0.141-0.148 0.309-0.266 0.494-0.348 0.075-0.033 0.152-0.059 0.231-0.079zM7.937 21.294v-11.62h-0.555c-0.668 0-1.212 0.544-1.212 1.212v9.196c0 0.668 0.544 1.212 1.212 1.212h0.555zM12.083 8.837h0.663v-0.682c0-0.388 0.315-0.703 0.703-0.703h3.163c0.388 0 0.704 0.315 0.704 0.703v0.682h0.663v-0.682c0-0.754-0.613-1.367-1.367-1.367h-3.163c-0.754 0-1.366 0.613-1.366 1.367v0.682zM16.479 8.288h-2.896v0.549h2.896v-0.549zM9.812 21.641v-12.316c0-0.035-0.029-0.064-0.064-0.064h-0.91c-0.035 0-0.064 0.029-0.064 0.064v12.316c0 0.036 0.028 0.065 0.064 0.065h0.91c0.035 0 0.064-0.029 0.064-0.065z" fill="#0075BF"></path>
</svg>
