<!-- Generated by IcoMoon.io -->
<svg version="1.1" xmlns="http://www.w3.org/2000/svg" width="50" height="50" viewBox="0 0 32 32">
<title>icon-modifica</title>
<path d="M24.856 6.292c-1.278-1.278-3.35-1.278-4.629 0l-12.975 12.974c-0.089 0.089-0.153 0.199-0.186 0.32l-1.706 6.159c-0.070 0.252 0.001 0.523 0.186 0.708s0.456 0.256 0.708 0.186l6.16-1.706c0.121-0.033 0.231-0.098 0.321-0.186l12.974-12.974c1.276-1.278 1.276-3.349 0-4.628l-0.853-0.854zM8.838 19.738l10.619-10.618 3.425 3.425-10.619 10.618-3.424-3.425zM8.153 21.111l2.736 2.736-3.785 1.048 1.048-3.785zM24.681 10.745l-0.771 0.771-3.425-3.425 0.772-0.771c0.71-0.71 1.861-0.71 2.571 0l0.854 0.853c0.708 0.711 0.708 1.861 0 2.572z"></path>
</svg>
