<!-- Generated by IcoMoon.io -->
<svg version="1.1" xmlns="http://www.w3.org/2000/svg" width="50" height="50" viewBox="0 0 32 32">
<title>icon-stampa_locazione_turistica</title>
<path d="M21.312 23.527v2.679c0 0.122-0.048 0.239-0.135 0.325s-0.203 0.135-0.326 0.135h-9.703c-0.122 0-0.239-0.049-0.326-0.135s-0.135-0.203-0.135-0.325v-2.679h-3.83c-0.404 0-0.792-0.162-1.078-0.447s-0.448-0.674-0.448-1.078v-8.468c0-0.404 0.162-0.792 0.447-1.078s0.673-0.447 1.078-0.447h1.615v-4.172c0-0.122 0.048-0.24 0.135-0.326s0.204-0.134 0.325-0.134h1.755v-1.581c0-0.122 0.048-0.239 0.135-0.325s0.203-0.135 0.325-0.135h9.702c0.122 0 0.239 0.049 0.325 0.135s0.135 0.203 0.135 0.325v1.581h1.755c0.122 0 0.239 0.048 0.325 0.134s0.135 0.204 0.135 0.326v4.172h1.614c0.405 0 0.792 0.161 1.078 0.447s0.447 0.674 0.447 1.078v8.468c0 0.404-0.162 0.793-0.448 1.078s-0.674 0.447-1.078 0.447h-3.83zM22.606 8.295h-1.294v3.712h1.294v-3.712zM11.609 6.254v5.753h8.782v-5.753h-8.782zM9.394 8.295v3.712h1.294v-3.712h-1.294zM9.394 22.606h1.294v-2.862h-1.294v2.862zM11.609 25.746h8.782c0-0.893 0-1.786 0-2.679 0-1.107 0-2.215 0-3.322h-8.783v6.002zM21.312 22.606h1.294v-2.862h-1.294v2.862zM8.473 22.606v-3.322c0-0.122 0.048-0.239 0.135-0.325s0.204-0.135 0.326-0.135h14.132c0.122 0 0.239 0.048 0.326 0.135s0.135 0.203 0.135 0.325v3.322h1.614c0.16 0 0.314-0.064 0.427-0.177s0.177-0.267 0.177-0.428v-8.468c0-0.161-0.064-0.314-0.177-0.428s-0.267-0.177-0.427-0.177h-18.282c-0.16 0-0.314 0.064-0.427 0.177s-0.178 0.267-0.178 0.428v8.468c0 0.161 0.064 0.314 0.178 0.428s0.267 0.177 0.427 0.177h1.614zM18.663 20.482h-5.325c-0.083 0-0.162 0.033-0.22 0.091s-0.092 0.137-0.092 0.22c0 0.083 0.033 0.162 0.092 0.22s0.137 0.091 0.22 0.091h5.325c0.082 0 0.161-0.033 0.22-0.091s0.091-0.137 0.091-0.22c0-0.082-0.033-0.161-0.091-0.22s-0.137-0.091-0.22-0.091zM18.663 22.079h-5.325c-0.083 0-0.162 0.033-0.22 0.091s-0.092 0.137-0.092 0.22c0 0.083 0.033 0.162 0.092 0.22s0.137 0.091 0.22 0.091h5.325c0.082 0 0.161-0.033 0.22-0.091s0.091-0.137 0.091-0.22c0-0.082-0.033-0.161-0.091-0.22s-0.137-0.091-0.22-0.091zM18.663 23.677h-5.325c-0.083 0-0.162 0.033-0.22 0.091s-0.092 0.137-0.092 0.22c0 0.082 0.033 0.161 0.092 0.22s0.137 0.091 0.22 0.091h5.325c0.082 0 0.161-0.033 0.22-0.091s0.091-0.137 0.091-0.22c0-0.083-0.033-0.162-0.091-0.22s-0.137-0.091-0.22-0.091zM24.076 13.754c-0.167 0-0.33 0.050-0.468 0.142s-0.247 0.224-0.311 0.378c-0.064 0.154-0.080 0.324-0.048 0.487s0.113 0.314 0.231 0.432c0.118 0.118 0.268 0.198 0.432 0.231s0.333 0.016 0.487-0.048c0.154-0.064 0.286-0.172 0.378-0.311s0.142-0.302 0.142-0.468c-0-0.224-0.089-0.438-0.247-0.596s-0.372-0.247-0.596-0.247zM24.076 14.819c-0.044 0-0.087-0.013-0.123-0.038s-0.065-0.059-0.082-0.099c-0.017-0.041-0.021-0.085-0.012-0.128s0.030-0.083 0.061-0.114c0.031-0.031 0.071-0.052 0.114-0.061s0.087-0.004 0.128 0.012c0.041 0.017 0.075 0.046 0.099 0.082s0.038 0.080 0.038 0.123c0 0.059-0.023 0.115-0.065 0.157s-0.098 0.065-0.157 0.065z" fill="#0075BF"></path>
</svg>
