<!-- Generated by IcoMoon.io -->
<svg version="1.1" xmlns="http://www.w3.org/2000/svg" width="50" height="50" viewBox="0 0 32 32">
<title>icon-add_locazione_turistica</title>
<path d="M14.088 13.741h-4.050c-0.141 0-0.255 0.114-0.255 0.255v2.58c0 0.141 0.115 0.255 0.255 0.255h4.050c0.141 0 0.255-0.115 0.255-0.255v-2.58c0-0.141-0.114-0.255-0.255-0.255zM7.148 14.849c-0.508 0.197-1.084 0.063-1.456-0.343-0.255-0.279-0.384-0.656-0.354-1.033s0.216-0.726 0.509-0.963l8.204-6.631c0.747-0.689 1.008-0.625 1.784 0.002l8.201 6.63c0.293 0.237 0.48 0.586 0.509 0.963s-0.099 0.754-0.354 1.033c-0.253 0.277-0.606 0.437-0.981 0.437-0.163 0-0.324-0.034-0.475-0.094v2.086c2.241 0.444 3.932 2.42 3.932 4.792 0 2.698-2.187 4.886-4.886 4.886-1.718 0-3.226-0.885-4.097-2.224h-10.536v-0.050c0-3.164-0.001-6.327-0.001-9.491zM21.99 16.847v-2.503l-7.049-5.516-7.050 5.516v9.29h7.629v-5.248c0-0.169 0.136-0.305 0.305-0.305h2.704c0.864-0.771 2.003-1.239 3.251-1.239 0.070 0 0.14 0.002 0.209 0.005zM17.954 18.691h-1.824v4.944h1.151c-0.249-0.586-0.386-1.23-0.386-1.907 0-1.149 0.397-2.203 1.059-3.037zM19.876 13.741h-4.050c-0.141 0-0.255 0.114-0.255 0.255v2.58c0 0.141 0.115 0.255 0.255 0.255h4.050c0.141 0 0.255-0.115 0.255-0.255v-2.58c0-0.141-0.114-0.255-0.255-0.255zM14.088 18.271h-4.050c-0.141 0-0.255 0.114-0.255 0.256v3.292c0 0.141 0.115 0.255 0.255 0.255h4.050c0.141 0 0.255-0.115 0.255-0.255v-3.292c0-0.141-0.114-0.256-0.255-0.256zM21.781 26.064c2.395 0 4.336-1.941 4.336-4.336s-1.941-4.336-4.336-4.336c-2.395 0-4.336 1.941-4.336 4.336s1.941 4.336 4.336 4.336zM13.833 21.562h-3.54v-2.781h3.54v2.781zM19.621 16.321h-3.54v-2.071h3.54v2.071zM13.833 16.321h-3.54v-2.071h3.54v2.071zM6.237 13.993c0.211 0.23 0.554 0.259 0.8 0.067l7.904-6.185 7.904 6.185c0.245 0.191 0.59 0.163 0.8-0.067 0.115-0.126 0.17-0.29 0.157-0.46s-0.094-0.322-0.227-0.429l-8.322-6.674c-0.242-0.235-0.371-0.203-0.626 0.002l-8.321 6.672c-0.133 0.107-0.214 0.259-0.227 0.429s0.042 0.333 0.157 0.46zM21.781 18.98c0.169 0 0.305 0.137 0.305 0.305v2.138h2.138c0.168 0 0.305 0.136 0.305 0.305s-0.137 0.305-0.305 0.305h-2.138v2.138c0 0.168-0.136 0.305-0.305 0.305s-0.305-0.137-0.305-0.305v-2.138h-2.138c-0.168 0-0.305-0.136-0.305-0.305s0.137-0.305 0.305-0.305h2.138v-2.138c0-0.168 0.136-0.305 0.305-0.305z" fill="#0075BF"></path>
</svg>
