<svg width="50" height="50" viewBox="0 0 50 50" fill="none" xmlns="http://www.w3.org/2000/svg">
<path fill-rule="evenodd" clip-rule="evenodd" d="M17.2645 12.9632H13.8074C13.5618 12.9632 13.3619 13.1624 13.3619 13.4088V17.02C13.3619 17.2656 13.5618 17.4651 13.8074 17.4651H17.2645C17.5105 17.4651 17.7096 17.2656 17.7096 17.02V13.4088C17.7096 13.1624 17.5105 12.9632 17.2645 12.9632ZM39.5556 6.25037L7.03188 6.25C6.601 6.25 6.25 6.60437 6.25 7.03487C6.25 8.18312 6.25 9.33137 6.25 10.48C6.25 10.9101 6.60063 11.2649 7.03188 11.2649H8.26975V35.2398H7.03188C6.601 35.2398 6.25 35.5941 6.25 36.0239L6.25037 39.5568C6.25037 39.9869 6.601 40.3413 7.03188 40.3413H20.3658C20.7966 40.3413 21.1473 39.9869 21.1473 39.5564V33.4938H25.4361L25.4365 39.5568C25.4365 39.9869 25.7871 40.3413 26.2176 40.3413H28.3131C29.8814 42.4113 32.3654 43.7489 35.1621 43.7489C39.9051 43.7489 43.75 39.9036 43.75 35.1606C43.75 31.5333 41.5011 28.4313 38.3211 27.1728V11.2649H39.559C39.9902 11.2649 40.3409 10.9101 40.3409 10.48V7.0345C40.3409 6.604 39.9895 6.25 39.5556 6.25037ZM27.4998 39.0419H27.0809V38.0721C27.2013 38.4055 27.3415 38.7291 27.4998 39.0419ZM26.9935 32.503C26.8596 32.2424 26.587 32.0631 26.2754 32.0631H20.2806C19.8393 32.0631 19.4755 32.4239 19.4755 32.866V39.0419H7.459V36.493H8.39275L8.69762 36.4975C9.13975 36.5031 9.5005 36.1334 9.5005 35.6939L9.50013 10.7965L9.49863 10.7538L9.49188 10.6949L9.48475 10.6544L9.47613 10.6169L9.45925 10.5606L9.43788 10.504L9.40337 10.4324L9.38575 10.4013L9.34188 10.3368L9.31938 10.3083L9.29162 10.2756L9.25263 10.2351L9.20913 10.1969L9.14688 10.15L9.07938 10.1087L9.04638 10.0915L9.00888 10.0746L8.95412 10.054L8.89675 10.036L8.8615 10.0281L8.81837 10.0206L8.75987 10.0135L8.69463 10.0112H7.45938V7.504H39.1319V9.56913H37.8524L37.8081 9.571L37.7496 9.57775L37.6893 9.589L37.6735 9.59238L37.6143 9.61037L37.5588 9.631L37.5063 9.65538L37.4553 9.68388L37.4215 9.70562L37.3743 9.73937L37.3293 9.77687L37.288 9.81813L37.2479 9.862L37.2246 9.89125L37.1811 9.95575L37.1534 10.0041L37.1283 10.0578L37.1065 10.1136L37.09 10.1691L37.0803 10.2081L37.0701 10.2681L37.066 10.3075L37.0637 10.372V26.7843C36.4517 26.6459 35.815 26.5728 35.1621 26.5728C32.8386 26.5728 30.7315 27.4956 29.1858 28.9945C28.0465 23.6095 17.2506 24.0303 17.2506 29.947V29.9478C17.2506 30.3768 17.602 30.7281 18.0314 30.7281H27.8054C27.4709 31.282 27.1971 31.8764 26.9935 32.503ZM24.9884 12.9632H21.5316C21.2856 12.9632 21.0861 13.1624 21.0861 13.4088V17.02C21.0861 17.2656 21.2856 17.4651 21.5316 17.4651H24.9884C25.2344 17.4651 25.4335 17.2656 25.4335 17.02V13.4088C25.4335 13.1624 25.2344 12.9632 24.9884 12.9632ZM32.7122 12.9632H29.2555C29.0099 12.9632 28.8104 13.1624 28.8104 13.4088V17.02C28.8104 17.2656 29.0099 17.4651 29.2555 17.4651H32.7122C32.9586 17.4651 33.1578 17.2656 33.1578 17.02V13.4088C33.1578 13.1624 32.9586 12.9632 32.7122 12.9632ZM17.2645 19.324H13.8074C13.5618 19.324 13.3619 19.5231 13.3619 19.7691V23.3804C13.3619 23.626 13.5618 23.8255 13.8074 23.8255H17.2645C17.5105 23.8255 17.7096 23.626 17.7096 23.3804V19.7691C17.7096 19.5231 17.5105 19.324 17.2645 19.324ZM24.9884 19.324H21.5316C21.2856 19.324 21.0861 19.5231 21.0861 19.7691V23.3804C21.0861 23.626 21.2856 23.8255 21.5316 23.8255H24.9884C25.2344 23.8255 25.4335 23.626 25.4335 23.3804V19.7691C25.4335 19.5231 25.2344 19.324 24.9884 19.324ZM32.7122 19.324H29.2555C29.0099 19.324 28.8104 19.5231 28.8104 19.7691V23.3804C28.8104 23.626 29.0099 23.8255 29.2555 23.8255H32.7122C32.9586 23.8255 33.1578 23.626 33.1578 23.3804V19.7691C33.1578 19.5231 32.9586 19.324 32.7122 19.324ZM35.1621 42.7821C39.3715 42.7821 42.7836 39.37 42.7836 35.1606C42.7836 30.9513 39.3715 27.5391 35.1621 27.5391C30.9528 27.5391 27.5406 30.9513 27.5406 35.1606C27.5406 39.37 30.9528 42.7821 35.1621 42.7821ZM18.8346 29.8195H27.7004C27.937 29.8195 28.1301 29.6354 28.1301 29.4096V29.4093C28.1301 25.084 18.4049 25.3255 18.4049 29.4093V29.4096C18.4049 29.6354 18.598 29.8195 18.8346 29.8195ZM32.2679 22.9353H29.7006V20.2135H32.2679V22.9353ZM24.544 22.9353H21.9768V20.2135H24.544V22.9353ZM16.8197 22.9353H14.2529V20.2135H16.8197V22.9353ZM32.2679 16.5749H29.7006V13.8531H32.2679V16.5749ZM24.544 16.5749H21.9768V13.8531H24.544V16.5749ZM16.8197 16.5749H14.2529V13.8531H16.8197V16.5749Z" fill="#0075BF"/>
<path fill-rule="evenodd" clip-rule="evenodd" d="M35.162 30.3306C35.459 30.3306 35.6987 30.5709 35.6987 30.8668V34.6243H39.4562C39.752 34.6243 39.9924 34.8639 39.9924 35.1606C39.9924 35.4576 39.752 35.6972 39.4562 35.6972H35.6987V39.4547C35.6987 39.7506 35.459 39.9909 35.162 39.9909C34.8654 39.9909 34.6258 39.7506 34.6258 39.4547V35.6972H30.8683C30.5724 35.6972 30.332 35.4576 30.332 35.1606C30.332 34.8639 30.5724 34.6243 30.8683 34.6243H34.6258V30.8668C34.6258 30.5709 34.8654 30.3306 35.162 30.3306Z" fill="#0075BF"/>
</svg>
