<!-- Generated by IcoMoon.io -->
<svg version="1.1" xmlns="http://www.w3.org/2000/svg" width="50" height="50" viewBox="0 0 32 32">
<title>icon-aggiungi</title>
<path d="M16 25.466c-5.228 0-9.466-4.238-9.466-9.466s4.238-9.466 9.466-9.466c5.228 0 9.466 4.238 9.466 9.466s-4.238 9.466-9.466 9.466zM16 26.667c5.891 0 10.667-4.776 10.667-10.667s-4.776-10.667-10.667-10.667c-5.891 0-10.667 4.776-10.667 10.667s4.776 10.667 10.667 10.667zM16 10c0.368 0 0.667 0.298 0.667 0.667v10.666c0 0.368-0.298 0.667-0.667 0.667s-0.667-0.298-0.667-0.667v-10.666c0-0.368 0.298-0.667 0.667-0.667zM10 16c0-0.368 0.298-0.667 0.667-0.667h10.666c0.368 0 0.667 0.298 0.667 0.667s-0.298 0.667-0.667 0.667h-10.666c-0.368 0-0.667-0.298-0.667-0.667z" fill="#0075BF"></path>
</svg>
