<svg width="24" height="24" viewBox="0 0 24 24" fill="none" xmlns="http://www.w3.org/2000/svg">
<path fill-rule="evenodd" clip-rule="evenodd" d="M12 19.9875C16.4114 19.9875 19.9875 16.4114 19.9875 12C19.9875 7.58856 16.4114 4.0125 12 4.0125C7.58856 4.0125 4.0125 7.58856 4.0125 12C4.0125 16.4114 7.58856 19.9875 12 19.9875ZM12 21C16.9703 21 21 16.9703 21 12C21 7.02966 16.9703 3 12 3C7.02966 3 3 7.02966 3 12C3 16.9703 7.02966 21 12 21Z" fill="#464646"/>
<path fill-rule="evenodd" clip-rule="evenodd" d="M11.1001 10.5H12.8997V15.9999H11.1001V10.5Z" fill="#464646"/>
<path fill-rule="evenodd" clip-rule="evenodd" d="M12.8997 8.89982C12.8997 9.3968 12.4969 9.79982 11.9999 9.79982C11.5029 9.79982 11.1001 9.3968 11.1001 8.89982C11.1001 8.40284 11.5029 8 11.9999 8C12.4969 8 12.8997 8.40284 12.8997 8.89982Z" fill="#464646"/>
</svg>
