<svg width="21" height="21" viewBox="0 0 21 21" fill="none" xmlns="http://www.w3.org/2000/svg">
<path fill-rule="evenodd" clip-rule="evenodd" d="M10.5 21C16.299 21 21 16.299 21 10.5C21 4.70101 16.299 0 10.5 0C4.70101 0 0 4.70101 0 10.5C0 16.299 4.70101 21 10.5 21ZM7.97759 5H13.0224C14.6643 5 16 6.33572 16 7.97759V13.0225C16 14.6643 14.6643 16 13.0225 16H7.97759C6.33572 16 5 14.6643 5 13.0225V7.97759C5 6.33572 6.33572 5 7.97759 5ZM7.49227 10.5C7.49227 12.1585 8.8415 13.5077 10.5 13.5077C12.1585 13.5077 13.5077 12.1585 13.5077 10.5C13.5077 8.8415 12.1585 7.49227 10.5 7.49227C8.8415 7.49227 7.49227 8.8415 7.49227 10.5ZM12.6909 7.31284C12.6909 7.80295 13.0895 8.20159 13.5796 8.20159C14.0697 8.20159 14.4685 7.80295 14.4685 7.31284C14.4685 6.82273 14.0697 6.42401 13.5796 6.42401C13.0895 6.42401 12.6909 6.82273 12.6909 7.31284ZM10.5 8.13713C9.19717 8.13713 8.13713 9.19708 8.13713 10.5C8.13713 11.8028 9.19717 12.8628 10.5 12.8628C11.8029 12.8628 12.8628 11.8028 12.8628 10.5C12.8628 9.19708 11.8029 8.13713 10.5 8.13713ZM13.3358 7.31284C13.3358 7.17839 13.4452 7.06896 13.5796 7.06896C13.7142 7.06896 13.8236 7.17831 13.8236 7.31284C13.8236 7.44737 13.7142 7.55672 13.5796 7.55672C13.4452 7.55672 13.3358 7.44728 13.3358 7.31284Z" fill="white"/>
</svg>
