<svg width="18" height="18" viewBox="0 0 18 18" fill="none" xmlns="http://www.w3.org/2000/svg">
<path d="M16.9844 16.9846C16.8081 17.1626 16.5753 17.25 16.344 17.25C16.1128 17.25 15.8815 17.161 15.7037 16.9846L8.99596 10.2779L2.31414 16.9668C2.13788 17.1432 1.90502 17.2322 1.67377 17.2322C1.44251 17.2322 1.20966 17.1432 1.03339 16.9668C0.679255 16.6123 0.679255 16.0394 1.03339 15.685L7.71521 8.99615L1.0156 2.29759C0.661466 1.94316 0.661466 1.37024 1.0156 1.01582C1.36813 0.661394 1.9422 0.661394 2.29634 1.01582L8.99595 7.71599L15.6891 1.01582C16.0432 0.661394 16.6157 0.661394 16.9698 1.01582C17.324 1.37024 17.324 1.94316 16.9698 2.29759L10.2767 8.99615L16.9844 15.7028C17.3385 16.0572 17.3385 16.6302 16.9844 16.9846H16.9844Z" fill="#003A54"/>
</svg>
