<svg width="52" height="50" viewBox="0 0 52 50" fill="none" xmlns="http://www.w3.org/2000/svg">
<path d="M41.0285 42.5606C39.6336 42.538 38.6891 41.7846 38.6891 41.2334C38.6891 40.9635 38.9253 40.5923 39.2063 40.5923C39.5774 40.5923 39.881 41.3794 41.0281 41.4696V38.8267C40.0159 38.4666 38.8913 38.0618 38.8913 36.6222C38.8913 35.2052 39.9597 34.6429 41.0281 34.5305V34.2041C41.0281 34.0691 41.1634 33.9453 41.3546 33.9453C41.5231 33.9453 41.6917 34.0691 41.6917 34.2041V34.508C42.4566 34.5305 43.5365 34.7664 43.5365 35.3176C43.5365 35.5313 43.379 35.9586 43.0414 35.9586C42.7716 35.9586 42.4791 35.5985 41.6917 35.5427V37.8256C42.6703 38.1857 43.7387 38.6803 43.7387 40.2101C43.7387 41.5931 42.9065 42.358 41.6917 42.5265V42.9092C41.6917 43.0441 41.5231 43.1676 41.3546 43.1676C41.1634 43.1676 41.0281 43.0441 41.0281 42.9092V42.5606H41.0285ZM41.0958 37.6119V35.5649C40.4662 35.6436 40.0163 35.925 40.0163 36.5098C40.0159 37.1509 40.4998 37.3871 41.0958 37.6119ZM41.6244 39.074V41.4471C42.2318 41.3347 42.6141 40.975 42.6141 40.3335C42.6141 39.6252 42.1756 39.3102 41.6244 39.074Z" fill="#003A54"/>
<path d="M41.2122 28.0374C35.3007 28.0374 30.4913 32.8468 30.4913 38.7582C30.4913 44.6697 35.3007 49.4791 41.2122 49.4791C47.1236 49.4791 51.933 44.6701 51.933 38.7582C51.933 32.8468 47.1236 28.0374 41.2122 28.0374ZM41.2122 47.9596C36.1384 47.9596 32.0108 43.832 32.0108 38.7582C32.0108 33.6845 36.1384 29.5569 41.2122 29.5569C46.2859 29.5569 50.4135 33.6845 50.4135 38.7582C50.4135 43.832 46.2859 47.9596 41.2122 47.9596Z" fill="#003A54"/>
<path d="M41.2123 31.6704C37.3039 31.6704 34.1243 34.85 34.1243 38.7581C34.1243 42.6665 37.3039 45.8461 41.2123 45.8461C45.1204 45.8461 48.3 42.6665 48.3 38.7581C48.3 34.85 45.1204 31.6704 41.2123 31.6704ZM41.2123 44.5044C38.0439 44.5044 35.466 41.9268 35.466 38.7584C35.466 35.5897 38.0439 33.0121 41.2123 33.0121C44.3807 33.0121 46.9583 35.5897 46.9583 38.7584C46.9583 41.9265 44.3807 44.5044 41.2123 44.5044Z" fill="#003A54"/>
<path d="M44.4427 26.275C44.4495 26.275 44.4558 26.275 44.4625 26.275C44.8733 26.275 45.2112 25.9477 45.2215 25.5346C45.2262 25.3577 45.2282 25.1781 45.2282 25C45.2282 13.5958 35.9505 4.31808 24.5463 4.31808C13.1421 4.31808 3.86438 13.5958 3.86438 25C3.86438 36.4042 13.1421 45.6819 24.5463 45.6819C26.0436 45.6819 27.5382 45.5209 28.9885 45.2035C29.3984 45.1137 29.658 44.7085 29.5682 44.2985C29.4784 43.8886 29.0736 43.629 28.6632 43.7188C27.3198 44.0132 25.9344 44.1624 24.5463 44.1624C13.9802 44.1624 5.38389 35.5661 5.38389 25C5.38389 14.4339 13.9802 5.83759 24.5463 5.83759C35.1124 5.83759 43.7087 14.4339 43.7087 25C43.7087 25.1658 43.7067 25.3312 43.7024 25.4962C43.6921 25.9153 44.0233 26.2643 44.4427 26.275Z" fill="#003A54"/>
<path d="M30.8217 47.0918C28.7898 47.6675 26.6787 47.9596 24.5462 47.9596C18.4136 47.9596 12.6478 45.5715 8.31165 41.235C3.97473 36.8984 1.58665 31.1326 1.58665 25C1.58665 18.8673 3.97473 13.1015 8.31126 8.76499C12.6478 4.42846 18.4136 2.04038 24.5462 2.04038C30.6789 2.04038 36.4447 4.42846 40.7812 8.76499C45.1177 13.1015 47.5062 18.8673 47.5062 25C47.5062 25.6584 47.4777 26.3224 47.4223 26.9734C47.3863 27.3916 47.6966 27.7592 48.1144 27.7948C48.5335 27.8301 48.9007 27.5206 48.9363 27.1027C48.9957 26.4087 49.0257 25.7012 49.0257 25C49.0257 18.4613 46.4794 12.3141 41.856 7.69065C37.2325 3.06723 31.0849 0.520874 24.5462 0.520874C18.0076 0.520874 11.8603 3.06723 7.23692 7.69065C2.6135 12.3141 0.0671387 18.4613 0.0671387 25C0.0671387 31.5386 2.6135 37.6859 7.23692 42.3093C11.8603 46.9331 18.0076 49.4791 24.5462 49.4791C26.8188 49.4791 29.0695 49.1676 31.236 48.5535C31.6396 48.4392 31.8743 48.0189 31.7599 47.6153C31.6456 47.2117 31.2257 46.9774 30.8217 47.0918Z" fill="#003A54"/>
<path d="M23.7194 13.5095L16.4019 22.6882L12.3548 25.221C11.7126 25.6231 11.4311 26.3858 11.6074 27.0839L11.199 27.3397C10.5596 27.7395 10.365 28.5852 10.7652 29.2245L11.9307 31.0866C12.1244 31.3963 12.4274 31.6119 12.7834 31.694C12.9672 31.7363 13.1539 31.7403 13.334 31.7076C13.5029 31.677 13.6659 31.6142 13.8155 31.5203L14.224 31.2649C14.6129 31.5923 15.1312 31.7287 15.6284 31.6385C15.8347 31.6011 16.0377 31.5244 16.2259 31.4065L16.4705 31.2535L20.0896 35.2916C20.5386 35.7927 21.1993 35.9942 21.8172 35.8822C22.1454 35.8226 22.4614 35.6746 22.7274 35.4363L23.4158 34.8193C23.851 34.4293 23.8925 33.7602 23.5082 33.328C23.5067 33.3259 23.5046 33.3237 23.5024 33.3212C23.1106 32.884 22.715 32.8143 22.4259 32.7633C22.2099 32.7254 22.1114 32.7078 21.9706 32.5508C21.8301 32.3938 21.8235 32.2939 21.8093 32.0752C21.7902 31.7824 21.7639 31.3814 21.3722 30.9445C20.9807 30.5072 20.5848 30.4375 20.2957 30.3866C20.08 30.3483 19.9813 30.331 19.8404 30.1738C19.6995 30.0165 19.6929 29.9163 19.6783 29.6975C19.6704 29.5776 19.6609 29.4361 19.6239 29.2799L20.2731 28.8737L31.7268 26.3034L31.9386 26.6415C32.2851 27.195 32.926 27.4547 33.5324 27.3447C33.7203 27.3106 33.9049 27.241 34.0766 27.1336L34.2213 27.043C34.9465 26.5891 35.1669 25.6299 34.7134 24.9047L26.2826 11.4344C25.8285 10.7094 24.8692 10.4889 24.1444 10.9427L23.9997 11.0333C23.6483 11.2533 23.4036 11.5966 23.3108 12.0004C23.218 12.4043 23.2877 12.8202 23.5076 13.1713L23.7194 13.5095ZM13.2388 30.5986C13.1752 30.6381 13.1001 30.6509 13.0272 30.6341C12.9542 30.6173 12.8922 30.5731 12.8527 30.5095L11.6872 28.6474C11.6051 28.5165 11.645 28.3434 11.776 28.2614L12.1152 28.0491L13.5777 30.3864L13.2388 30.5986ZM15.6492 30.4848C15.3613 30.6646 14.9804 30.5772 14.8002 30.2893L14.7885 30.2707C14.7885 30.2707 14.7884 30.2704 14.7881 30.2702L12.7485 27.0112C12.7485 27.0109 12.7482 27.0107 12.7481 27.0104L12.7364 26.992C12.6913 26.9199 12.663 26.8421 12.6504 26.763C12.6126 26.5261 12.7158 26.2781 12.9318 26.143L16.5966 23.8491L19.314 28.1908L15.6492 30.4848ZM23.045 33.7389L23.1018 33.689L23.0406 33.7429L23.045 33.7389ZM20.107 31.4573C20.3231 31.4955 20.4215 31.5129 20.5624 31.6701C20.7032 31.8271 20.7098 31.927 20.724 32.1456C20.7431 32.4385 20.769 32.8395 21.1608 33.2764C21.5526 33.7137 21.9482 33.7834 22.2373 33.8343C22.4428 33.8707 22.5418 33.888 22.6724 34.0251L22.0017 34.6262C21.681 34.9134 21.1869 34.8864 20.8994 34.566L17.4063 30.6679L18.6047 29.918C18.6306 30.1911 18.7018 30.5325 19.0306 30.8994C19.4224 31.3366 19.818 31.4064 20.107 31.4573ZM24.3707 12.2442C24.3985 12.1237 24.4717 12.0209 24.5767 11.9553L24.7214 11.8647C24.7728 11.8325 24.8279 11.8116 24.8841 11.8014C25.0656 11.7684 25.257 11.8461 25.3606 12.0115L33.7914 25.4818C33.9272 25.6986 33.8611 25.9852 33.6445 26.1209L33.4996 26.2116C33.2828 26.3474 32.9961 26.2813 32.8604 26.0648L24.4296 12.5943C24.3638 12.4895 24.3429 12.3651 24.3707 12.2442ZM24.331 14.4867L31.1152 25.3261L20.3202 27.7483L17.4342 23.1377L24.331 14.4867Z" fill="#003A54"/>
</svg>
