<svg width="35" height="35" viewBox="0 0 35 35" fill="none" xmlns="http://www.w3.org/2000/svg">
<path d="M34.2929 26.6837L27.9803 20.3711L28.4375 19.9139L28.5977 20.0741C28.7044 20.1808 28.8444 20.2344 28.9844 20.2344C29.1244 20.2344 29.2644 20.1808 29.371 20.0741L31.0116 18.4335C31.2255 18.2197 31.2255 17.8741 31.0116 17.6602L27.8906 14.5392V4.375C27.8906 2.26406 26.1729 0.546875 24.0625 0.546875H3.28125C1.77352 0.546875 0.546875 1.77352 0.546875 3.28125V7.65625C0.546875 7.95813 0.791328 8.20312 1.09375 8.20312H4.92188V31.7188C4.92188 33.2265 6.14852 34.4531 7.65625 34.4531H27.3438C28.8515 34.4531 30.0781 33.2265 30.0781 31.7188V30.625C30.0781 30.3231 29.8337 30.0781 29.5312 30.0781H27.8906V24.5623L32.1524 28.8241C32.2591 28.9308 32.3991 28.9844 32.5391 28.9844C32.6791 28.9844 32.8191 28.9308 32.9257 28.8241L34.2929 27.457C34.5067 27.2431 34.5067 26.8975 34.2929 26.6837ZM24.6094 22.1955L22.6483 20.2344L25.7031 17.1795L27.6642 19.1406L24.6094 22.1955ZM24.383 23.5156L23.5156 24.383L20.4608 21.3281L21.3281 20.4608L24.383 23.5156ZM28.9844 18.9142L25.9295 15.8594L26.7969 14.992L29.8517 18.0469L28.9844 18.9142ZM4.92188 7.10938H1.64062V3.28125C1.64062 2.37672 2.37672 1.64062 3.28125 1.64062C4.18578 1.64062 4.92188 2.37672 4.92188 3.28125V7.10938ZM28.9844 31.7188C28.9844 32.6233 28.2483 33.3594 27.3438 33.3594H9.84266C10.1866 32.9022 10.3906 32.334 10.3906 31.7188V31.1719H28.9844V31.7188ZM26.7969 30.0781H9.84375C9.54133 30.0781 9.29688 30.3231 9.29688 30.625V31.7188C9.29688 32.6233 8.56078 33.3594 7.65625 33.3594C6.75172 33.3594 6.01562 32.6233 6.01562 31.7188V3.28125C6.01562 2.66328 5.8018 2.09891 5.45453 1.64062H24.0625C25.5702 1.64062 26.7969 2.86727 26.7969 4.375V13.6719C26.6569 13.6719 26.5169 13.7255 26.4102 13.8321L24.7696 15.4727C24.5558 15.6866 24.5558 16.0322 24.7696 16.246L24.9298 16.4062L21.875 19.4611L21.7148 19.3009C21.5009 19.087 21.1553 19.087 20.9415 19.3009L19.3009 20.9415C19.087 21.1553 19.087 21.5009 19.3009 21.7148L23.129 25.5429C23.2356 25.6495 23.3756 25.7031 23.5156 25.7031C23.6556 25.7031 23.7956 25.6495 23.9023 25.5429L25.5429 23.9023C25.7567 23.6884 25.7567 23.3428 25.5429 23.129L25.3827 22.9688L25.8398 22.5116L26.7969 23.4686V30.0781ZM32.5391 27.6642L26.6131 21.7383L27.207 21.1444L33.133 27.0703L32.5391 27.6642Z" fill="white"/>
</svg>
