<svg width="32" height="40" viewBox="0 0 32 40" fill="none" xmlns="http://www.w3.org/2000/svg">
<path d="M23.1927 26.5334C23.7798 26.6667 24.6073 26.64 25.1411 26.48C26.8492 26.0533 26.8758 24.7733 26.9292 24.24C26.9826 23.52 26.5288 22.24 24.6605 21.8933C23.7798 21.76 23.1927 21.76 22.6856 21.76C22.1518 21.76 21.7248 21.8133 21.0309 21.8933C20.8441 21.9466 20.6039 22 20.4438 22C19.9634 21.52 19.6164 21.0134 19.0826 20.2934C18.0685 18.8267 17.4279 17.8133 16.4138 16C16.2803 15.76 16.1201 15.4666 15.9866 15.2266C16.0934 14.7733 16.1736 14.2934 16.2803 13.7067L16.4138 13.0133C16.8141 11.1467 16.8942 10.5333 16.6006 9.01335C16.2536 7.36001 15.106 6.96001 14.5722 7.01335C14.2786 7.01335 13.1044 7.19999 12.624 8.90666C12.277 10.08 12.3304 10.96 12.624 12.16C12.8108 13.04 13.2644 14.1067 13.985 15.44C13.7448 16.4534 13.4513 17.3867 12.9175 18.96C12.3837 20.56 12.1435 21.2 12.0367 21.6C11.8766 22.0267 11.8767 22.0267 11.6098 22.7734L11.5564 22.88C11.2094 23.8134 10.649 24.9333 10.2486 25.6533C9.66146 25.9467 9.07433 26.2401 8.27367 26.7201C6.5122 27.7334 5.31114 28.48 4.88412 29.6533C4.64392 30.2933 4.05669 31.84 5.31107 32.88C5.73809 33.28 6.3253 33.4667 6.85907 33.4667C7.44623 33.4667 7.98005 33.28 8.40708 32.88C8.99423 32.3467 9.23441 31.84 9.71481 30.9333C9.87494 30.6933 10.0084 30.4 10.1952 30C10.9692 28.48 11.4496 27.4667 11.5564 27.3067C11.5564 27.2534 11.6097 27.2 11.663 27.1733C12.01 27.04 12.3837 26.88 12.8374 26.6934C14.4387 26 15.106 25.8133 16.5739 25.3333L17.2411 25.0933C17.7749 24.9067 18.1752 24.8 18.5488 24.6667C19.0292 24.48 19.4297 24.3733 19.8033 24.24C20.1503 24.5333 20.4705 24.88 20.9242 25.2266C21.8583 25.9466 22.4988 26.3467 23.1927 26.5334ZM22.6589 23.7067C23.1393 23.7067 23.6198 23.7067 24.3137 23.84C24.7941 23.9467 24.9542 24.1334 24.9542 24.1867V24.5334C24.9542 24.5334 24.9007 24.5867 24.6605 24.6401C24.3136 24.7467 23.8332 24.7467 23.6998 24.6934C23.4596 24.5867 23.0593 24.4533 22.2586 23.76C22.3921 23.7067 22.4987 23.7067 22.6589 23.7067ZM8.48706 29.0667C8.30024 29.4133 8.14012 29.76 8.00668 30C7.52628 30.9333 7.41964 31.12 7.12606 31.4133C6.93924 31.5467 6.69895 31.4667 6.53882 31.36C6.48544 31.3067 6.35196 31.2267 6.67223 30.3467C6.85905 29.8667 7.79328 29.28 8.62064 28.7467C8.56726 28.88 8.51375 28.9867 8.48706 29.0667ZM14.4921 9.46672C14.5454 9.33338 14.5988 9.17337 14.6522 9.12004C14.7056 9.17337 14.7057 9.25333 14.7591 9.41333C14.9459 10.48 14.9458 10.8267 14.6522 12.24C14.5988 12.1067 14.5455 11.9467 14.5455 11.84C14.3053 10.7733 14.2519 10.24 14.4921 9.46672ZM17.8816 22.7467C17.5347 22.88 17.1611 22.9867 16.6273 23.1733L15.9601 23.4133C14.7591 23.8133 14.0652 24.0533 12.9442 24.48C13.1044 24.1866 13.1843 23.8934 13.3445 23.6L13.3979 23.4933C13.6915 22.72 13.6915 22.72 13.8783 22.2134C13.985 21.8667 14.2253 21.2 14.7591 19.6267C14.9993 18.9867 15.1327 18.4 15.2929 17.92C16.0135 19.2 16.6005 20.1601 17.4812 21.3867C17.8282 21.8134 18.0684 22.2133 18.362 22.56L17.8816 22.7467ZM32 5.89331C32 2.61331 29.4379 0 26.2353 0H5.7649C2.56223 0 0 2.63998 0 5.89331V34.1334C0 37.3601 2.56223 40 5.7649 40H21.3779H21.5647C21.6181 40 21.618 40 21.6714 39.9467C21.7248 39.9467 21.7249 39.9466 21.7783 39.8933C21.8316 39.8933 21.8316 39.84 21.885 39.84C21.885 39.84 21.9384 39.84 21.9384 39.7867L22.0718 39.6267L31.6797 29.8133C31.6797 29.8133 31.6798 29.76 31.7332 29.76L31.8399 29.6533C31.8399 29.6 31.8933 29.6 31.8933 29.5467C31.8933 29.4934 31.9467 29.4934 31.9467 29.44C31.9467 29.3867 31.9466 29.3867 32 29.3333V29.2266V29.04V5.81331V5.89331ZM1.92169 34.1067V5.92C1.92169 3.78667 3.68316 1.97339 5.7649 1.97339H26.2353C28.3704 1.97339 30.0785 3.73334 30.0785 5.92V28.2667H23.8066C21.9651 28.2667 20.4171 29.84 20.4171 31.68V38.08H5.7649C3.68316 38.0533 1.92169 36.2934 1.92169 34.1067ZM28.7173 30.1867L22.4188 36.6134V31.6267C22.4188 30.8 23.0593 30.16 23.8866 30.16H28.7173V30.1867Z" fill="black"/>
</svg>
