<svg width="123" height="120" viewBox="0 0 123 120" fill="none" xmlns="http://www.w3.org/2000/svg">
<path d="M49.1113 111.625L39.6522 109.686L34.179 115.355L15.5215 100.629L27.9648 92.1375L41.1955 77.6585C43.4128 75.2319 47.3325 75.5819 49.0843 78.3641L64.7594 96.3412C67.1284 99.0582 66.4582 103.258 63.3604 105.103L54.1257 110.602C52.5135 111.577 50.9785 111.66 49.1113 111.625Z" fill="#FFE7CF"/>
<path d="M64.7601 96.3412L60.9353 91.9542L44.9847 101.46C43.3725 102.434 41.8375 102.517 39.9694 102.483L31.685 101.591L24.5288 107.737L34.1806 115.355L39.6529 109.686L49.1119 111.625C50.9792 111.659 52.515 111.577 54.1263 110.602L63.361 105.103C66.4588 103.258 67.129 99.0583 64.7601 96.3412Z" fill="#EFD5BD"/>
<path d="M64.2985 96.7248C62.4517 93.8606 60.2019 95.3099 58.3552 92.4449C56.5084 89.5807 58.7582 88.1305 56.9115 85.2663C55.0638 82.4012 52.8149 83.8515 50.9681 80.9864C49.1204 78.1204 51.3702 76.6701 49.5226 73.805C48.3935 72.0542 46.3484 68.4388 45.103 67.9418L35.1348 72.8668L52.4817 100.226C54.1739 102.851 57.6747 103.608 60.3006 101.915L63.6199 99.776C64.6336 99.1217 64.9631 97.7664 64.3134 96.749C64.3087 96.7406 64.3041 96.7332 64.2985 96.7248Z" fill="#344A5D"/>
<path d="M35.6245 77.1022L27.7934 81.9341C26.3078 82.851 24.3596 82.3893 23.4428 80.9037L19.0157 73.7289C18.0989 72.2433 18.5606 70.2951 20.0462 69.3782L27.8772 64.5463C28.7969 63.9794 30.0023 64.2642 30.5701 65.1839L36.2621 74.4093C36.8299 75.329 36.5441 76.5344 35.6245 77.1022Z" fill="#344A5D"/>
<path d="M40.4292 51.4699L24.5344 61.278C22.4419 62.5682 21.7931 65.3104 23.0833 67.402L30.9217 80.1059C32.2128 82.1974 34.9541 82.8472 37.0466 81.5561L52.9414 71.7489L103.216 60.8052L72.7605 11.4453L40.4292 51.4699Z" fill="#FED066"/>
<path d="M96.041 49.1755L46.0249 60.54C46.0249 60.54 28.8046 71.1645 26.3425 72.6845L30.9222 80.106C32.2123 82.1975 34.9545 82.8473 37.0461 81.5562L52.9418 71.749L103.217 60.8053L96.041 49.1755Z" fill="#F5B556"/>
<path d="M52.9416 71.7487L37.0459 81.5559C34.9543 82.847 32.2121 82.1972 30.922 80.1057L23.0835 67.4018C21.7924 65.3102 22.4421 62.568 24.5337 61.2778L40.4294 51.4697L52.9416 71.7487Z" fill="#FD715C"/>
<path d="M46.0249 60.5399C46.0249 60.5399 28.8046 71.1644 26.3425 72.6844L30.9222 80.1059C32.2123 82.1975 34.9545 82.8472 37.0461 81.5561L44.9935 76.6525L52.9418 71.7489L46.0249 60.5399Z" fill="#D83E3A"/>
<path d="M106.232 64.3124L104.062 65.651C102.938 66.3444 101.464 65.9954 100.77 64.8709L68.0292 11.8082C67.3348 10.6829 67.6839 9.20937 68.8093 8.51497L70.979 7.17644C72.1035 6.48205 73.5779 6.83111 74.2714 7.95648L107.012 61.0192C107.707 62.1436 107.357 63.618 106.232 64.3124Z" fill="#FD715C"/>
<path d="M107.012 61.0189L101.626 52.2887L95.3833 56.1414L100.77 64.8707C101.463 65.9951 102.938 66.3442 104.062 65.6507L106.232 64.3122C107.357 63.6178 107.707 62.1434 107.012 61.0189Z" fill="#D83E3A"/>
<path d="M59.365 103.949C60.5481 105.886 63.0781 106.497 65.0152 105.313L71.005 101.651C72.9412 100.468 73.5518 97.9403 72.3687 96.0042C71.1856 94.0671 68.6556 93.4565 66.7195 94.6396L60.7287 98.3014C58.7935 99.4845 58.1829 102.013 59.365 103.949Z" fill="#FFE7CF"/>
<path d="M72.369 96.0044C71.8841 95.2104 71.1711 94.6436 70.3678 94.328C70.5781 95.8927 69.8744 97.5077 68.44 98.3845L62.4492 102.046C61.3062 102.745 59.9593 102.813 58.8022 102.359C58.8758 102.907 59.0592 103.448 59.3654 103.95C60.5485 105.887 63.0785 106.498 65.0155 105.314L71.0054 101.652C72.9415 100.469 73.5512 97.9405 72.369 96.0044Z" fill="#EFD5BD"/>
<path d="M56.7997 95.8627C58.0005 97.8296 60.5686 98.4495 62.5345 97.2478L68.4183 93.6511C70.3833 92.4503 71.0032 89.884 69.8034 87.9181C68.6026 85.9522 66.0344 85.3323 64.0685 86.534L58.1838 90.1307C56.2189 91.3315 55.5989 93.8977 56.7997 95.8627Z" fill="#FFE7CF"/>
<path d="M69.8037 87.918C69.3253 87.1351 68.629 86.5701 67.8406 86.2434C68.0407 87.8221 67.3268 89.4445 65.8812 90.3279L59.9965 93.9246C58.8134 94.6478 57.4144 94.7074 56.2239 94.215C56.2956 94.7819 56.4826 95.3432 56.8001 95.8626C58.0008 97.8294 60.569 98.4493 62.5349 97.2476L68.4186 93.6509C70.3836 92.4502 71.0035 89.8839 69.8037 87.918Z" fill="#EFD5BD"/>
<path d="M52.4137 88.7913C53.6145 90.7573 56.1826 91.3781 58.1485 90.1764L64.0332 86.5788C65.9982 85.378 66.6172 82.8117 65.4174 80.8467C64.2166 78.8799 61.6484 78.26 59.6825 79.4617L53.7979 83.0584C51.8329 84.2592 51.2129 86.8254 52.4137 88.7913Z" fill="#FFE7CF"/>
<path d="M65.4177 80.8466C64.9495 80.0796 64.2718 79.5202 63.5039 79.1907C63.677 80.7498 62.964 82.3415 61.5371 83.2137L55.6533 86.8104C54.4535 87.5439 53.0321 87.5951 51.8323 87.0813C51.8974 87.6686 52.0845 88.2523 52.4131 88.7903C53.6148 90.7571 56.182 91.3771 58.1489 90.1754L64.0336 86.5786C65.9985 85.3779 66.6175 82.8116 65.4177 80.8466Z" fill="#EFD5BD"/>
<path d="M48.2795 81.5382C49.4803 83.5041 52.0484 84.124 54.0143 82.9224L59.899 79.3256C61.864 78.1249 62.4839 75.5586 61.2832 73.5927C60.0824 71.6268 57.5142 71.0068 55.5483 72.2085L49.6637 75.8052C47.6987 77.006 47.0797 79.5723 48.2795 81.5382Z" fill="#FFE7CF"/>
<path d="M61.2832 73.5927C60.7313 72.6879 59.8879 72.0726 58.9478 71.7841C59.3071 73.467 58.5987 75.2644 57.048 76.2129L51.1633 79.8096C50.1022 80.4584 48.866 80.572 47.7639 80.2332C47.8598 80.6828 48.0273 81.124 48.2796 81.5382C49.4804 83.5041 52.0485 84.124 54.0144 82.9223L59.8991 79.3256C61.8641 78.1248 62.484 75.5586 61.2832 73.5927Z" fill="#EFD5BD"/>
<path d="M57.1074 86.5843L56.0165 87.2507C54.2991 88.3007 52.08 87.7971 51.058 86.1272L49.2503 83.1709C48.3651 81.7244 46.4392 81.2944 44.9583 82.2131C43.4717 93.1242 27.9651 92.1376 27.9651 92.1376L37.574 77.6651C38.2079 76.5686 39.108 75.6415 40.1915 74.9694L45.6145 71.6063C48.2506 69.9718 51.6779 70.7351 53.2556 73.3097L58.3668 81.6509C59.3907 83.3236 58.8266 85.5334 57.1074 86.5843Z" fill="#FFE7CF"/>
<path d="M58.3654 81.6521L58.3235 81.5832C58.0275 82.0589 57.6198 82.4768 57.1069 82.7905L56.015 83.4579C54.2986 84.5069 52.0795 84.0043 51.0574 82.3335L49.2498 79.3781C48.3646 77.9306 46.4387 77.5015 44.9577 78.4193C44.3341 82.9953 41.536 87.3804 38.4131 90.3842C41.5723 88.9963 44.3676 86.5408 44.9577 82.2134C46.4387 81.2947 48.3646 81.7247 49.2498 83.1712L51.0574 86.1275C52.0795 87.7974 54.2986 88.301 56.015 87.2519L57.1069 86.5845C58.8261 85.5336 59.3902 83.3239 58.3654 81.6521Z" fill="#EFD5BD"/>
<path d="M34.48 115.712L19.1958 97.5496L24.2288 93.3143C24.387 93.1812 24.6244 93.2017 24.7584 93.3599L39.5586 110.948C39.6917 111.106 39.6712 111.343 39.513 111.478L34.48 115.712Z" fill="#CDD6DF"/>
<path d="M39.5571 110.948L31.6841 101.591L26.3635 106.068L34.4794 115.713L39.5115 111.477C39.6706 111.343 39.6911 111.106 39.5571 110.948Z" fill="#96A4AA"/>
<path d="M97.5333 30.5307C96.9236 30.5307 96.3288 30.2235 95.9863 29.6668C95.4613 28.8133 95.7275 27.6963 96.5811 27.1713L106.412 21.1237C107.266 20.5987 108.383 20.8649 108.907 21.7185C109.432 22.5712 109.166 23.6881 108.313 24.2131L98.4818 30.2607C98.1849 30.4441 97.8572 30.5307 97.5333 30.5307Z" fill="#DBD9D1"/>
<path d="M120.194 45.3374C120.136 45.3374 120.076 45.3346 120.016 45.329L105.603 43.9281C104.606 43.8313 103.876 42.9452 103.973 41.9473C104.07 40.9513 104.957 40.2197 105.954 40.3184L120.367 41.7183C121.364 41.8151 122.094 42.7022 121.997 43.6991C121.906 44.6365 121.117 45.3374 120.194 45.3374Z" fill="#DBD9D1"/>
<path d="M89.2833 17.1241C89.0646 17.1241 88.8421 17.0841 88.6262 17.0003C87.6925 16.6373 87.2308 15.5855 87.5939 14.6528L92.8437 1.15581C93.2068 0.222187 94.2586 -0.238572 95.1913 0.12352C96.1249 0.486542 96.5875 1.53745 96.2245 2.47106L90.9746 15.9671C90.6954 16.6848 90.0094 17.1241 89.2833 17.1241Z" fill="#DBD9D1"/>
<path d="M35.5706 115.542L19.0512 96.1644C18.92 96.0098 18.6929 95.9791 18.5244 96.0936L0.930827 109.982C0.343475 110.445 0 111.153 0 111.903V117.553C0 118.904 1.09558 120 2.44807 120H31.2283C31.9692 120 32.6711 119.664 33.1365 119.086L35.5539 116.077C35.6963 115.93 35.7028 115.698 35.5706 115.542Z" fill="#3C5666"/>
<path d="M35.5707 115.542L27.7378 106.353L16.2058 120H31.2284C31.9694 120 32.6712 119.664 33.1366 119.086L35.554 116.077C35.6964 115.929 35.7029 115.698 35.5707 115.542Z" fill="#194451"/>
</svg>
