<svg width="72" height="72" viewBox="0 0 72 72" fill="none" xmlns="http://www.w3.org/2000/svg">
<path d="M52.3546 22.1514C52.5066 22.3984 52.7704 22.5341 53.0405 22.5341C53.1842 22.5341 53.3295 22.4956 53.461 22.4148L57.8195 19.7338C58.1976 19.5014 58.3157 19.006 58.0829 18.6279C57.8505 18.2497 57.3551 18.1316 56.9765 18.3645L52.6184 21.0454C52.2403 21.2778 52.1222 21.7732 52.3546 22.1514Z" fill="#003A54"/>
<path d="M63.1619 27.4935L56.7724 26.8728C56.3306 26.8293 55.9374 27.1534 55.8942 27.5952C55.8515 28.0374 56.1748 28.4307 56.617 28.4734L63.0061 29.094C63.0329 29.0965 63.0589 29.0978 63.0849 29.0978C63.494 29.0978 63.8441 28.787 63.8843 28.3716C63.927 27.9298 63.6037 27.5366 63.1619 27.4935Z" fill="#003A54"/>
<path d="M49.0923 16.5361C49.1877 16.5734 49.2866 16.5914 49.3833 16.5914C49.7053 16.5914 50.0094 16.3967 50.1329 16.0784L52.46 10.0955C52.6212 9.68174 52.416 9.21565 52.0023 9.05485C51.5885 8.89404 51.1224 9.09882 50.9616 9.51256L48.6341 15.4955C48.4733 15.9092 48.6781 16.3753 49.0923 16.5361Z" fill="#003A54"/>
<path d="M43.413 12.1047C42.8728 11.2299 41.722 10.9569 40.8468 11.4971L39.8849 12.0905C39.4607 12.3518 39.1642 12.763 39.0495 13.2475C38.9347 13.7324 39.0156 14.2329 39.2769 14.6567L39.8301 15.5528L27.1871 31.2047L24.517 32.8521C24.1393 33.0853 24.022 33.5807 24.2553 33.9585C24.4073 34.2047 24.6707 34.3404 24.9404 34.3404C25.084 34.3404 25.2302 34.3019 25.3617 34.2206L27.4643 32.9233L31.5619 39.5645C30.9698 39.526 30.3793 39.6487 29.8429 39.9242C29.8332 39.9288 29.824 39.9339 29.8144 39.9389C29.7424 39.977 29.6708 40.0168 29.6008 40.0599L27.1967 41.5507C26.9329 41.7145 26.6896 41.9079 26.4685 42.1244C26.2009 42.3862 25.9668 42.6814 25.7775 43.0038L25.1841 43.8983L24.7477 44.555C24.744 44.5537 24.7398 44.5524 24.7364 44.5512C24.7297 44.5483 24.7235 44.5449 24.7168 44.542C24.6828 44.5269 24.6493 44.5102 24.6171 44.4921C24.61 44.4884 24.6033 44.4846 24.5966 44.4808C24.561 44.4595 24.5262 44.4365 24.4931 44.4117C24.486 44.4067 24.4793 44.4013 24.4726 44.3958C24.4425 44.3724 24.4127 44.3473 24.3847 44.3204C24.3813 44.3171 24.3775 44.3142 24.3742 44.3108C24.344 44.2815 24.3156 44.2497 24.2884 44.217C24.2825 44.2099 24.277 44.2024 24.2712 44.1952C24.2444 44.1609 24.2188 44.1257 24.1958 44.0885L20.7213 38.4573C20.5571 38.1914 20.5065 37.8777 20.5785 37.5741C20.6505 37.2701 20.8365 37.0125 21.102 36.8488L22.1422 36.2073C22.5199 35.974 22.6376 35.4786 22.4043 35.1009C22.1711 34.7227 21.6757 34.6055 21.2979 34.8387L20.2577 35.4803C19.6266 35.8697 19.1848 36.4816 19.0136 37.2035C18.9034 37.6696 18.9151 38.1453 19.0416 38.5938L18.2682 39.0712C17.2334 39.7098 16.9109 41.0712 17.5496 42.1064L19.5119 45.287C19.8209 45.7882 20.3071 46.1387 20.8804 46.2748C21.0504 46.315 21.2221 46.3351 21.393 46.3351C21.7971 46.3351 22.1941 46.2233 22.5467 46.0056L23.3214 45.5278C23.4831 45.6747 23.6602 45.8016 23.8503 45.9063L21.6179 49.269L21.0915 49.6283C20.9818 49.5726 20.8612 49.5375 20.7347 49.5266C20.4759 49.5048 20.2246 49.5844 20.0266 49.751L18.6413 50.9169C18.3184 50.7108 17.895 50.7075 17.5634 50.9336C17.5479 50.9445 17.5324 50.9554 17.5177 50.9671L9.7186 57.1234C9.26173 57.484 9 58.0246 9 58.6063V61.1109C9 62.1524 9.84758 63 10.8891 63H23.6472C24.2226 63 24.7595 62.7429 25.12 62.2939L26.1778 60.9778C26.3629 60.7659 26.4417 60.4945 26.4136 60.2311L27.837 59.033C27.976 58.9162 28.0761 58.7662 28.1322 58.5983L31.4133 59.2709C31.4618 59.2809 31.5108 59.2864 31.5602 59.2872C31.6561 59.2889 31.7516 59.2901 31.8471 59.2901C32.6248 59.2901 33.3974 59.2114 34.2094 58.7206L37.5147 56.752C37.57 56.7553 37.6252 56.7574 37.6801 56.7574C38.1571 56.7574 38.6269 56.6263 39.0444 56.3709L41.6999 54.7478C42.9348 53.9931 43.3259 52.3742 42.5713 51.1392C42.3138 50.7171 41.9494 50.3863 41.5189 50.1685C41.9356 49.3699 41.9369 48.3779 41.4339 47.5546C41.0688 46.957 40.4946 46.5357 39.8158 46.3657C39.9561 45.7216 39.8594 45.0252 39.4896 44.4197C39.1403 43.8472 38.5985 43.4394 37.9582 43.2555C38.1332 42.583 38.0469 41.843 37.6571 41.2044C37.5557 41.0386 37.4372 40.8878 37.3061 40.7505L53.2377 37.2827L53.7909 38.1788C54.1431 38.7496 54.7549 39.0641 55.381 39.0641C55.7147 39.0641 56.0527 38.9749 56.3571 38.7869L57.319 38.1935C57.7428 37.9317 58.0397 37.5209 58.1545 37.036C58.2692 36.5515 58.1884 36.0511 57.9267 35.6268L43.413 12.1047ZM21.7029 44.637C21.5668 44.7208 21.4064 44.7468 21.2515 44.7099C21.0961 44.6731 20.9646 44.578 20.8804 44.4423L18.9181 41.2618C18.7451 40.9816 18.8327 40.6127 19.1128 40.4393L19.795 40.0185L22.3851 44.2158L21.7029 44.637ZM23.8662 61.2868C23.8126 61.3538 23.7331 61.3919 23.6472 61.3919H10.8891C10.7341 61.3919 10.6081 61.2659 10.6081 61.1109V58.6063C10.6081 58.5196 10.647 58.4392 10.7149 58.3856L18.0299 52.6112L24.6229 60.3454L23.8662 61.2868ZM25.5011 58.8969L19.7179 52.1124L20.5743 51.3918L26.3143 58.2131L25.5011 58.8969ZM33.3823 57.3416C32.8915 57.6385 32.4309 57.6908 31.6628 57.6808L27.5434 56.8361C27.4459 56.816 27.3474 56.8144 27.2524 56.8299L22.1958 50.8214L22.6539 50.5086C22.6543 50.5086 22.6547 50.5082 22.6556 50.5077C22.6631 50.5023 22.6707 50.496 22.6782 50.4906C22.6954 50.4776 22.7125 50.4646 22.7284 50.4508C22.7364 50.4437 22.7439 50.4361 22.7515 50.429C22.7678 50.4139 22.7829 50.3984 22.7975 50.3821C22.8034 50.3758 22.8097 50.3691 22.8151 50.3624C22.8331 50.3406 22.8503 50.3185 22.8658 50.2954C22.8675 50.2933 22.8691 50.2917 22.8704 50.2896L22.8742 50.2841C22.8754 50.282 22.8767 50.2799 22.8779 50.2778L27.1301 43.8736C27.1393 43.8598 27.1481 43.8456 27.1565 43.8313C27.3709 43.4607 27.6779 43.145 28.0443 42.9176L30.4484 41.4268C30.4928 41.3991 30.538 41.3744 30.5837 41.3514C30.6042 41.3409 30.6251 41.3321 30.6457 41.3225C30.6699 41.3116 30.6938 41.3007 30.7185 41.2911C30.7466 41.2798 30.7746 41.2693 30.8035 41.2597C30.8182 41.2542 30.8333 41.2496 30.8483 41.245C30.8835 41.2341 30.9191 41.2237 30.9547 41.2149H30.9551C31.0845 41.1835 31.216 41.168 31.3471 41.1671C31.35 41.1671 31.353 41.1671 31.3555 41.1671C31.394 41.1671 31.4321 41.1688 31.4702 41.1713C31.4824 41.1726 31.4945 41.1734 31.5071 41.1747C31.541 41.1776 31.5745 41.1814 31.608 41.1864C31.6277 41.1893 31.6478 41.1935 31.6679 41.1973C31.719 41.2069 31.7696 41.2191 31.8195 41.2337C31.8387 41.2392 31.8584 41.2442 31.8773 41.2501C31.9028 41.2588 31.9275 41.2685 31.9526 41.2785C31.9723 41.2861 31.9924 41.2936 32.0117 41.302C32.0364 41.3124 32.0611 41.3242 32.0854 41.3363C32.1038 41.3455 32.1218 41.3547 32.1394 41.3644C32.1637 41.3774 32.188 41.3912 32.2118 41.4058C32.2282 41.4159 32.2441 41.4264 32.26 41.4368C32.2839 41.4527 32.3077 41.4686 32.3308 41.4862C32.345 41.4967 32.3584 41.508 32.3718 41.5189C32.3957 41.5377 32.4191 41.5566 32.4417 41.5771C32.5515 41.6759 32.6478 41.7898 32.7265 41.9184L32.7856 42.0151L33.6428 43.4138L34.7186 45.1693L34.992 45.6161C35.018 45.6584 35.0394 45.7024 35.0557 45.748C35.1059 45.8854 35.1139 46.0353 35.0783 46.1835C35.0272 46.3967 34.8928 46.5793 34.7002 46.697L34.2165 46.9926L34.2161 46.993C34.1826 47.0131 34.1486 47.0303 34.1135 47.0454C34.1059 47.0487 34.0984 47.0521 34.0909 47.055C34.0561 47.0692 34.0209 47.081 33.9853 47.0902C33.9811 47.0914 33.9765 47.0923 33.9723 47.0931C33.9388 47.1011 33.9053 47.1069 33.8718 47.1107C33.8651 47.1115 33.8589 47.1124 33.8522 47.1132C33.8161 47.1161 33.7801 47.117 33.7445 47.1157C33.7378 47.1153 33.7311 47.1149 33.7244 47.1145C33.688 47.112 33.652 47.1078 33.6164 47.1006C33.616 47.1002 33.6156 47.1002 33.6151 47.1002C33.577 47.0923 33.5402 47.0814 33.5037 47.068C33.5004 47.0667 33.4975 47.0659 33.4941 47.0646C33.4196 47.0362 33.3492 46.996 33.286 46.9444C33.2856 46.9444 33.2856 46.944 33.2856 46.944C33.2537 46.9181 33.2253 46.8904 33.1989 46.8611C33.1968 46.8586 33.1947 46.8561 33.1922 46.8532C33.1671 46.8238 33.1436 46.7933 33.1239 46.7606L32.3224 45.4503C32.0238 44.962 31.5502 44.6194 30.9886 44.4863C30.4132 44.3493 29.8169 44.4473 29.3102 44.7618C29.1063 44.8883 28.9697 45.0989 28.9371 45.3364C28.9279 45.4051 28.9166 45.4725 28.9044 45.5391C28.8952 45.5876 28.8847 45.6358 28.8739 45.6835C28.8705 45.6995 28.8672 45.7158 28.8634 45.7317C28.8491 45.792 28.8337 45.8515 28.8165 45.9101C28.8161 45.9122 28.8152 45.9147 28.8144 45.9172C28.7244 46.2258 28.5979 46.5119 28.4354 46.7719C28.435 46.7723 28.435 46.7728 28.435 46.7732C28.1356 47.2531 27.7126 47.6589 27.1582 47.996C26.7788 48.2267 26.6582 48.7213 26.8889 49.1007C27.1196 49.4801 27.6142 49.6007 27.9936 49.3699C28.3852 49.1317 28.7323 48.8645 29.0359 48.5701L32.3936 53.8654C33.0121 54.8248 34.0812 55.3813 35.1872 55.3813C35.2458 55.3813 35.3044 55.3784 35.3631 55.3751C35.3861 55.4169 35.4096 55.4584 35.4347 55.4999C35.5293 55.6544 35.6382 55.7968 35.7592 55.9262L33.3823 57.3416ZM34.0645 51.4303C34.0645 51.4307 34.0649 51.4311 34.0649 51.4315C34.0783 51.4692 34.0929 51.5061 34.1084 51.5433C34.1101 51.5475 34.1118 51.5521 34.1139 51.5567C34.1277 51.5902 34.1428 51.6233 34.1583 51.6564C34.162 51.6635 34.165 51.6715 34.1687 51.679C34.1834 51.71 34.1997 51.7406 34.2156 51.7712C34.2207 51.7804 34.2249 51.7896 34.2299 51.7984C34.2512 51.8377 34.2739 51.8767 34.2973 51.9152C34.3375 51.9814 34.3815 52.0446 34.4267 52.1062C34.443 52.1279 34.4598 52.1493 34.4765 52.1707C34.5063 52.2083 34.5368 52.2448 34.5682 52.2808C34.5904 52.3059 34.6122 52.3319 34.6353 52.3562C34.6524 52.3746 34.6713 52.3913 34.6893 52.4094C34.7542 52.4743 34.822 52.5354 34.8932 52.5932C34.9007 52.5991 34.9079 52.6053 34.9154 52.6108C35.0536 52.7205 35.2018 52.8156 35.3597 52.8955C35.2144 53.169 35.1185 53.4655 35.0758 53.7708C34.5456 53.7377 34.044 53.4584 33.7483 52.9994L30.0518 47.1697C30.2231 46.8159 30.355 46.4382 30.4446 46.0357C30.502 46.0324 30.5598 46.0374 30.6168 46.0508C30.7583 46.0843 30.8768 46.1693 30.9505 46.2895L31.752 47.5998C31.7533 47.6015 31.7546 47.6032 31.7558 47.6053C31.7952 47.6693 31.8375 47.7313 31.8831 47.7912C31.9166 47.8352 31.9526 47.8762 31.9886 47.9172C32.0012 47.9315 32.0125 47.947 32.0255 47.9612C32.0272 47.9683 32.0293 47.9755 32.0309 47.9826C32.0435 48.0383 32.0577 48.0935 32.0737 48.1484C32.0787 48.1643 32.0833 48.1802 32.0879 48.1961C32.1076 48.2581 32.1285 48.3197 32.1528 48.38C32.1549 48.3863 32.1578 48.3921 32.1603 48.398C32.1825 48.4533 32.2072 48.5073 32.2336 48.5609C32.2412 48.5764 32.2487 48.5919 32.2567 48.607C32.2868 48.6656 32.3182 48.7234 32.3526 48.7803C32.7173 49.3775 33.2906 49.7979 33.9682 49.9688C33.8635 50.4479 33.8928 50.955 34.0645 51.4303ZM34.5775 41.861L34.8476 41.696C35.0858 41.5503 35.3664 41.5063 35.6382 41.5717C35.9096 41.6374 36.139 41.8045 36.2844 42.0428C36.5846 42.5344 36.4292 43.1789 35.9376 43.4791L35.6692 43.6433L34.8744 42.3464L34.5775 41.861ZM40.5696 51.5191C40.8338 51.5827 41.057 51.7456 41.199 51.9776C41.4913 52.4563 41.3397 53.0836 40.8611 53.3763L38.2057 54.9994C37.9925 55.1297 37.7446 55.1753 37.5005 55.1326C37.4866 55.1297 37.4724 55.1263 37.4582 55.1242C37.451 55.1226 37.4435 55.1217 37.4364 55.12C37.1717 55.0564 36.9485 54.8935 36.8066 54.6615C36.7429 54.5572 36.7019 54.4462 36.6788 54.3332C36.6784 54.3298 36.6784 54.3269 36.6776 54.324C36.6139 53.9936 36.7203 53.656 36.9473 53.4215C36.9535 53.4152 36.9594 53.4085 36.9657 53.4027C36.9774 53.3914 36.9896 53.3805 37.0017 53.3696C37.0138 53.3587 37.0264 53.3478 37.0398 53.3378C37.0494 53.3298 37.0587 53.3223 37.0687 53.3147C37.0926 53.2971 37.1164 53.2804 37.142 53.2645C37.1428 53.2641 37.1437 53.2636 37.1441 53.2632L37.6717 52.9408C37.7647 52.8976 37.856 52.8503 37.9448 52.7963L39.9762 51.5542C40.1647 51.4839 40.3694 51.4709 40.5696 51.5191ZM38.7199 47.9947C38.936 47.8913 39.1789 47.8653 39.4151 47.9223C39.6864 47.9876 39.9159 48.1551 40.0616 48.3934C40.3619 48.885 40.2061 49.5291 39.7149 49.8293L39.2367 50.1216C39.1429 50.1648 39.0507 50.2133 38.9615 50.2678L36.9406 51.5027C36.5633 51.651 36.1386 51.5639 35.8501 51.2975C35.8497 51.2971 35.8497 51.2971 35.8497 51.2971C35.8271 51.2762 35.8057 51.2548 35.7852 51.2318C35.7797 51.2255 35.7747 51.2188 35.7693 51.2125C35.7542 51.1949 35.7391 51.1773 35.7249 51.1585C35.7052 51.1321 35.6868 51.1049 35.6692 51.0768C35.6516 51.0475 35.6357 51.0182 35.621 50.9881C35.6164 50.9784 35.6127 50.9688 35.608 50.9587C35.5988 50.9382 35.5896 50.9173 35.5817 50.8959C35.5775 50.8846 35.5741 50.8737 35.5704 50.8624C35.5637 50.8419 35.5574 50.8218 35.5519 50.8013C35.549 50.79 35.5461 50.7783 35.5436 50.767C35.5389 50.7464 35.5348 50.7255 35.531 50.7041C35.5293 50.6932 35.5276 50.6824 35.526 50.6715C35.523 50.6497 35.5209 50.6279 35.5197 50.6061C35.5188 50.5957 35.518 50.5852 35.5176 50.5747C35.5168 50.5521 35.5168 50.5295 35.5176 50.5073C35.5176 50.4973 35.5176 50.4876 35.5184 50.478C35.5193 50.455 35.5222 50.4324 35.5247 50.4097C35.526 50.4001 35.5264 50.3905 35.5281 50.3808C35.531 50.3607 35.5352 50.3406 35.5394 50.3205C35.585 50.1053 35.6977 49.9039 35.8744 49.7493C35.8815 49.7431 35.8878 49.7355 35.8949 49.7292C35.905 49.7205 35.9146 49.7117 35.9251 49.7033C35.9502 49.689 35.9757 49.6761 36.0004 49.661L38.6094 48.0663C38.647 48.0433 38.6839 48.0194 38.7199 47.9947ZM37.4707 44.787C37.7421 44.8523 37.9716 45.0198 38.1173 45.2581C38.397 45.7162 38.2806 46.3071 37.8656 46.6287C37.8388 46.6434 37.8124 46.6584 37.7861 46.6743L35.7718 47.9055C35.7785 47.9005 35.7848 47.8946 35.7915 47.8892C35.83 47.8586 35.8685 47.8276 35.9045 47.795C35.9271 47.7749 35.9485 47.7535 35.9703 47.7326C36.0029 47.7007 36.0356 47.6685 36.0666 47.6346C36.088 47.612 36.1081 47.5881 36.1282 47.5646C36.1571 47.5303 36.1855 47.496 36.2123 47.4604C36.2312 47.4357 36.25 47.4105 36.268 47.3846C36.2936 47.3481 36.3179 47.3109 36.3417 47.2728C36.3581 47.2464 36.3744 47.2204 36.3895 47.1936C36.4125 47.1534 36.4334 47.112 36.454 47.0705C36.4669 47.0441 36.4808 47.0186 36.4925 46.9918C36.5134 46.9453 36.5318 46.8975 36.5503 46.8494C36.5586 46.8264 36.5687 46.8037 36.5767 46.7803C36.6014 46.7078 36.6236 46.6346 36.6416 46.5596C36.6587 46.488 36.6721 46.416 36.6826 46.3439C36.686 46.3209 36.6876 46.2979 36.6906 46.2748C36.6964 46.2254 36.701 46.1764 36.704 46.127C36.7052 46.1002 36.7056 46.0734 36.7061 46.0466C36.7073 46.0005 36.7069 45.9549 36.7052 45.9093C36.7044 45.882 36.7027 45.8548 36.701 45.8276C36.6977 45.7815 36.6922 45.7355 36.6864 45.6898C36.683 45.6643 36.6801 45.6387 36.6759 45.6136C36.6671 45.5617 36.6562 45.5106 36.6437 45.4595C36.6395 45.4411 36.6361 45.4222 36.6315 45.4038C36.6131 45.3347 36.5921 45.2664 36.5674 45.199C36.5624 45.186 36.5566 45.1731 36.5511 45.1597C36.5335 45.1144 36.5164 45.0688 36.4958 45.0244L36.6805 44.9113C36.9188 44.7656 37.1994 44.7216 37.4707 44.787ZM56.5895 36.6658C56.5803 36.7043 56.5531 36.7764 56.4744 36.8249L55.5125 37.4188C55.3923 37.4929 55.2336 37.4556 55.159 37.335L45.032 20.9218C44.7991 20.5441 44.3037 20.4269 43.9256 20.6597C43.5479 20.8929 43.4306 21.3883 43.6639 21.7661L52.3428 35.832L33.6583 39.8995L28.7097 31.8789L40.7254 17.0039L41.6961 18.5776C41.9293 18.9553 42.4247 19.0726 42.8025 18.8397C43.1806 18.6065 43.2979 18.1111 43.0646 17.7329L40.6454 13.8124C40.5968 13.7337 40.6048 13.6571 40.614 13.6185C40.6232 13.5796 40.6504 13.5076 40.7292 13.459L41.6911 12.8656C41.8117 12.7911 41.97 12.8287 42.0445 12.9493L56.5581 36.4719C56.6067 36.5506 56.5988 36.6273 56.5895 36.6658Z" fill="#003A54"/>
</svg>
