<svg width="76" height="90" viewBox="0 0 76 90" fill="none" xmlns="http://www.w3.org/2000/svg">
<path d="M0.558594 11.2836V88.1481C0.558594 89.1705 1.38806 90 2.41048 90H62.1177C63.1408 90 63.9696 89.1705 63.9696 88.1481V11.2836C63.9696 10.2605 63.1402 9.43108 62.1177 9.43108H2.41048C1.38806 9.43108 0.558594 10.2605 0.558594 11.2836Z" fill="#0075BF"/>
<path d="M62.1171 9.43108H54.5688V90H62.1171C63.1402 90 63.9697 89.1705 63.9697 88.1481V11.2836C63.9697 10.2605 63.1402 9.43108 62.1171 9.43108Z" fill="#003A54"/>
<path d="M54.888 5.58105H39.5778V2.58865C39.5778 1.15906 38.4188 0 36.9892 0H27.5389C26.1093 0 24.9502 1.15906 24.9502 2.58865V5.58105H9.63939C9.14981 5.58105 8.75293 5.97794 8.75293 6.4682V12.5011C8.75293 12.9906 9.14981 13.3882 9.63939 13.3882H54.888C55.3782 13.3882 55.7751 12.9906 55.7751 12.5011V6.4682C55.7751 5.97794 55.3782 5.58105 54.888 5.58105Z" fill="#EE5646"/>
<path d="M30.1771 1.70219V5.58105H39.578V2.58865C39.578 1.15906 38.4189 0 36.9893 0H28.4756C29.4156 0 30.1771 0.762177 30.1771 1.70219Z" fill="#E8383B"/>
<path d="M54.888 5.58105H46.375V13.3875H54.888C55.3783 13.3875 55.7752 12.9906 55.7752 12.5011V6.4682C55.7752 5.97794 55.3783 5.58105 54.888 5.58105Z" fill="#E8383B"/>
<path d="M29.6017 78.4383H8.50662C7.75612 78.4383 7.14844 77.8299 7.14844 77.0801C7.14844 76.3303 7.75612 75.7219 8.50662 75.7219H29.6017C30.3522 75.7219 30.9599 76.3303 30.9599 77.0801C30.9599 77.8299 30.3516 78.4383 29.6017 78.4383Z" fill="#F2F2F2"/>
<path d="M41.1484 72.2502H8.50662C7.75612 72.2502 7.14844 71.6418 7.14844 70.892C7.14844 70.1422 7.75612 69.5338 8.50662 69.5338H41.1484C41.8982 69.5338 42.5066 70.1422 42.5066 70.892C42.5066 71.6418 41.8982 72.2502 41.1484 72.2502Z" fill="#F2F2F2"/>
<path d="M74.834 37.5726L71.6527 35.6795C70.9235 35.2462 69.9808 35.4852 69.5468 36.2144L65.523 42.9758L63.676 46.0808L46.6753 74.6507C46.378 75.1499 46.15 75.6876 45.9976 76.2486L43.8237 84.2281C43.5634 85.1832 44.7252 85.874 45.44 85.1901L51.4166 79.473C51.8368 79.0714 52.2001 78.6147 52.4974 78.1149L69.498 49.5449L71.3451 46.4399L75.3689 39.6785C75.8021 38.9493 75.5632 38.0072 74.834 37.5726Z" fill="#E8383B"/>
<path d="M49.0044 77.3609C48.0534 76.7951 47.0509 76.3934 46.0292 76.1456C46.0189 76.1799 46.0065 76.2135 45.9976 76.2486L43.8237 84.2281C43.5634 85.1832 44.7252 85.874 45.44 85.1901L51.4166 79.473C51.4427 79.4483 51.466 79.4209 51.4921 79.3954C50.7869 78.6161 49.9554 77.9267 49.0044 77.3609Z" fill="#F5B556"/>
<path d="M67.1611 40.2223L65.5227 42.9765L64.8567 44.095L70.6788 47.5591L71.3448 46.4406L72.9831 43.6864L67.1611 40.2223Z" fill="#F5B556"/>
<path d="M25.0416 55.3745C25.0073 53.7328 23.7184 53.7602 23.6841 52.1185C23.6491 50.4781 24.9379 50.4506 24.9029 48.8102C24.8686 47.1684 23.5797 47.1959 23.5454 45.5541C23.5104 43.913 24.7992 43.8856 24.7642 42.2438C24.7429 41.2406 24.8164 39.2418 24.4312 38.7234L19.0994 38.2283L19.3115 53.8282C19.3431 55.3326 20.588 56.526 22.0925 56.4944L23.9938 56.4546C24.5747 56.4423 25.0519 55.9692 25.0423 55.3883C25.0416 55.3835 25.0416 55.3787 25.0416 55.3745Z" fill="#F2F2F2"/>
<path d="M17.4082 41.6059L12.9766 41.6121C12.1354 41.6135 11.4529 40.9323 11.4515 40.0919L11.446 36.0317C11.4454 35.1906 12.1258 34.5081 12.967 34.5067L17.3986 34.5012C17.9191 34.5005 18.3413 34.9214 18.342 35.4419L18.3489 40.6625C18.3496 41.1829 17.9287 41.6052 17.4082 41.6059Z" fill="#F2F2F2"/>
<path d="M26.7994 32.2559L17.8043 32.2682C16.6212 32.2696 15.6627 33.2309 15.6641 34.414L15.6744 41.6032C15.6757 42.7869 16.6364 43.7448 17.8201 43.7434L26.8152 43.7311L50.1996 51.9283L50.1618 23.9955L26.7994 32.2559Z" fill="#FED066"/>
<path d="M26.8152 33.7596L15.7609 33.7747C15.6977 33.9766 15.6641 34.1915 15.6641 34.414L15.6744 41.6032C15.6757 42.7869 16.6364 43.7448 17.8201 43.7434L26.8152 43.7311L50.1996 51.9283L50.1865 41.9513L26.8152 33.7596Z" fill="#F5B556"/>
<path d="M26.8152 43.7311L17.8201 43.7434C16.6364 43.7455 15.6757 42.7869 15.6744 41.6032L15.6641 34.4147C15.6627 33.2309 16.6212 32.2696 17.8043 32.2682L26.7994 32.2559L26.8152 43.7311Z" fill="#EE5646"/>
<path d="M17.8201 43.7434L26.8152 43.7311L26.8021 33.7596L15.7609 33.7747C15.7588 33.7802 15.7581 33.7857 15.7561 33.7912C15.7396 33.8461 15.7252 33.9024 15.7135 33.9594C15.7087 33.9793 15.7053 33.9993 15.7018 34.0199C15.6929 34.0652 15.686 34.1112 15.6805 34.1572C15.6785 34.1771 15.6757 34.197 15.6737 34.2176C15.6682 34.2815 15.6641 34.3467 15.6641 34.4126C15.6641 34.4133 15.6641 34.414 15.6641 34.414L15.6744 41.6032C15.6757 42.7869 16.6364 43.7455 17.8201 43.7434Z" fill="#E8383B"/>
<path d="M51.0409 53.6009L49.671 53.603C48.8429 53.6044 48.1707 52.9335 48.1693 52.1054L48.1309 23.4819C48.1295 22.6531 48.7997 21.9809 49.6277 21.9802L50.9976 21.9782C51.8257 21.9768 52.4979 22.6476 52.4993 23.4757L52.5377 52.0999C52.5391 52.928 51.869 53.6002 51.0409 53.6009Z" fill="#EE5646"/>
</svg>
