<svg width="120" height="120" viewBox="0 0 120 120" fill="none" xmlns="http://www.w3.org/2000/svg">
<path d="M10.0781 15.0448V117.531C10.0781 118.894 11.1841 120 12.5473 120H92.157C93.5211 120 94.6262 118.894 94.6262 117.531V15.0448C94.6262 13.6807 93.5202 12.5747 92.157 12.5747H12.5473C11.1841 12.5747 10.0781 13.6807 10.0781 15.0448Z" fill="#0075BF"/>
<path d="M92.1562 12.5747H82.0918V120H92.1562C93.5203 120 94.6263 118.894 94.6263 117.531V15.0448C94.6263 13.6807 93.5203 12.5747 92.1562 12.5747Z" fill="#003A54"/>
<path d="M82.5173 7.44141H62.1038V3.45154C62.1038 1.54541 60.5583 0 58.6522 0H46.0518C44.1457 0 42.6003 1.54541 42.6003 3.45154V7.44141H22.1859C21.5331 7.44141 21.0039 7.97058 21.0039 8.62427V16.6681C21.0039 17.3209 21.5331 17.851 22.1859 17.851H82.5173C83.171 17.851 83.7001 17.3209 83.7001 16.6681V8.62427C83.7001 7.97058 83.171 7.44141 82.5173 7.44141Z" fill="#EE5646"/>
<path d="M49.5695 2.26959V7.44141H62.1039V3.45154C62.1039 1.54541 60.5585 0 58.6524 0H47.3008C48.5541 0 49.5695 1.01624 49.5695 2.26959Z" fill="#E8383B"/>
<path d="M82.5172 7.44141H71.1665V17.85H82.5172C83.1709 17.85 83.7001 17.3209 83.7001 16.6681V8.62427C83.7001 7.97058 83.1709 7.44141 82.5172 7.44141Z" fill="#E8383B"/>
<path d="M48.802 104.584H20.6752C19.6745 104.584 18.8643 103.773 18.8643 102.773C18.8643 101.774 19.6745 100.963 20.6752 100.963H48.802C49.8027 100.963 50.6129 101.774 50.6129 102.773C50.6129 103.773 49.8017 104.584 48.802 104.584Z" fill="#F2F2F2"/>
<path d="M64.1975 96.3336H20.6752C19.6745 96.3336 18.8643 95.5225 18.8643 94.5227C18.8643 93.5229 19.6745 92.7118 20.6752 92.7118H64.1975C65.1973 92.7118 66.0084 93.5229 66.0084 94.5227C66.0084 95.5225 65.1973 96.3336 64.1975 96.3336Z" fill="#F2F2F2"/>
<path d="M109.112 50.0967L104.87 47.5726C103.898 46.9949 102.641 47.3135 102.062 48.2858L96.6971 57.301L94.2343 61.441L71.5668 99.5343C71.1703 100.2 70.8664 100.917 70.6631 101.665L67.7646 112.304C67.4176 113.578 68.9667 114.499 69.9197 113.587L77.8885 105.964C78.4488 105.428 78.9331 104.82 79.3295 104.153L101.997 66.0599L104.46 61.9199L109.825 52.9047C110.403 51.9324 110.084 50.6763 109.112 50.0967Z" fill="#E8383B"/>
<path d="M74.6722 103.148C73.4042 102.393 72.0676 101.858 70.7052 101.527C70.6915 101.573 70.675 101.618 70.6631 101.665L67.7646 112.304C67.4176 113.578 68.9667 114.499 69.9197 113.587L77.8885 105.964C77.9233 105.931 77.9544 105.894 77.9892 105.861C77.0489 104.821 75.9402 103.902 74.6722 103.148Z" fill="#F5B556"/>
<path d="M98.8816 53.6298L96.6971 57.3019L95.8091 58.7933L103.572 63.4122L104.46 61.9208L106.644 58.2486L98.8816 53.6298Z" fill="#F5B556"/>
<path d="M42.7223 73.8327C42.6765 71.6437 40.9581 71.6803 40.9123 69.4913C40.8656 67.3041 42.584 67.2675 42.5373 65.0803C42.4916 62.8912 40.7731 62.9279 40.7274 60.7388C40.6807 58.5507 42.3991 58.5141 42.3524 56.3251C42.324 54.9875 42.422 52.3224 41.9084 51.6312L34.7993 50.9711L35.0822 71.7709C35.1243 73.7769 36.7842 75.3681 38.7901 75.3259L41.3252 75.2728C42.0997 75.2564 42.736 74.6256 42.7232 73.851C42.7223 73.8446 42.7223 73.8382 42.7223 73.8327Z" fill="#F2F2F2"/>
<path d="M32.5443 55.4745L26.6354 55.4828C25.5139 55.4846 24.6039 54.5764 24.6021 53.4558L24.5947 48.0423C24.5938 46.9208 25.5011 46.0107 26.6226 46.0089L32.5314 46.0016C33.2254 46.0007 33.7885 46.5619 33.7894 47.2559L33.7985 54.2166C33.7994 54.9106 33.2382 55.4736 32.5443 55.4745Z" fill="#F2F2F2"/>
<path d="M45.0659 43.0078L33.0725 43.0243C31.495 43.0261 30.2169 44.3079 30.2188 45.8853L30.2325 55.4709C30.2343 57.0493 31.5151 58.3264 33.0935 58.3246L45.0869 58.3081L76.2661 69.2377L76.2158 31.994L45.0659 43.0078Z" fill="#FED066"/>
<path d="M45.0869 45.0128L30.3478 45.033C30.2636 45.3021 30.2188 45.5887 30.2188 45.8853L30.2325 55.4709C30.2343 57.0493 31.5151 58.3264 33.0935 58.3246L45.0869 58.3081L76.2661 69.2377L76.2487 55.9351L45.0869 45.0128Z" fill="#F5B556"/>
<path d="M45.0869 58.3081L33.0935 58.3246C31.5151 58.3273 30.2343 57.0493 30.2325 55.4709L30.2188 45.8862C30.2169 44.3079 31.495 43.0261 33.0725 43.0243L45.0659 43.0078L45.0869 58.3081Z" fill="#EE5646"/>
<path d="M33.0935 58.3246L45.0869 58.3081L45.0695 45.0128L30.3478 45.033C30.3451 45.0403 30.3442 45.0476 30.3414 45.0549C30.3195 45.1282 30.3002 45.2032 30.2847 45.2792C30.2783 45.3058 30.2737 45.3323 30.2691 45.3598C30.2572 45.4202 30.248 45.4816 30.2407 45.5429C30.238 45.5695 30.2343 45.596 30.2316 45.6235C30.2242 45.7086 30.2188 45.7956 30.2188 45.8835C30.2188 45.8844 30.2188 45.8853 30.2188 45.8853L30.2325 55.4709C30.2343 57.0493 31.5151 58.3273 33.0935 58.3246Z" fill="#E8383B"/>
<path d="M77.3878 71.4679L75.5613 71.4707C74.4572 71.4725 73.5609 70.578 73.5591 69.4739L73.5078 31.3092C73.506 30.2042 74.3995 29.3079 75.5037 29.3069L77.3301 29.3042C78.4343 29.3024 79.3306 30.1968 79.3324 31.301L79.3837 69.4666C79.3855 70.5707 78.4919 71.467 77.3878 71.4679Z" fill="#EE5646"/>
</svg>
