<svg width="72" height="72" viewBox="0 0 72 72" fill="none" xmlns="http://www.w3.org/2000/svg">
<path d="M24.8983 54.6173C24.4787 54.6173 24.1389 54.9575 24.1389 55.3767C24.1389 55.7963 24.4787 56.1361 24.8983 56.1361H31.3985C31.8181 56.1361 32.1578 55.7963 32.1578 55.3767C32.1578 54.9575 31.8181 54.6173 31.3985 54.6173H24.8983Z" fill="#003A54"/>
<path d="M19.6032 54.6173C19.1836 54.6173 18.8438 54.9575 18.8438 55.3767C18.8438 55.7963 19.1836 56.1361 19.6032 56.1361H21.3604C21.7801 56.1361 22.1198 55.7963 22.1198 55.3767C22.1198 54.9575 21.7801 54.6173 21.3604 54.6173H19.6032Z" fill="#003A54"/>
<path d="M38.6133 51.9169C38.6133 51.4977 38.2735 51.1576 37.8539 51.1576H19.6032C19.1836 51.1576 18.8438 51.4977 18.8438 51.9169C18.8438 52.3366 19.1836 52.6763 19.6032 52.6763H37.8539C38.2731 52.6763 38.6133 52.3366 38.6133 51.9169Z" fill="#003A54"/>
<path d="M42.6183 43.0096C42.6187 43.0096 42.6195 43.0096 42.6203 43.0096L43.386 43.0084C43.8127 43.008 44.2142 42.8411 44.5152 42.539C44.8165 42.2368 44.9823 41.8353 44.9815 41.4086L44.9597 25.4044C44.9593 24.9772 44.7928 24.5762 44.4902 24.2748C44.1889 23.9742 43.7882 23.8085 43.3623 23.8085C43.3615 23.8085 43.3607 23.8085 43.3599 23.8085L42.5942 23.8097C41.713 23.8109 40.9971 24.5287 40.9983 25.4095L40.9987 25.5606L29.7006 29.5552L24.8011 29.5619C23.9721 29.5631 23.2641 30.0828 22.9802 30.8125L22.0962 30.8137C21.6659 30.8145 21.2617 30.9822 20.9579 31.2872C20.6542 31.5917 20.4873 31.9963 20.4877 32.4266L20.4908 34.6968C20.4916 35.5843 21.2142 36.3054 22.1013 36.3054C22.1021 36.3054 22.1029 36.3054 22.1037 36.3054L23.0067 36.3042C23.104 36.5336 23.2452 36.7444 23.4267 36.9255C23.7965 37.2941 24.2873 37.497 24.809 37.497C24.8102 37.497 24.811 37.497 24.8118 37.497H24.8185L24.8853 42.3922C24.898 43.0021 25.1475 43.57 25.5877 43.9921C26.0157 44.4026 26.5745 44.6268 27.1658 44.6268C27.1824 44.6268 27.199 44.6268 27.2157 44.6264L28.2784 44.6039C29.0239 44.5881 29.6203 43.9743 29.6081 43.2354C29.6077 43.2327 29.6077 43.2295 29.6077 43.2267C29.6077 43.2256 29.6077 43.2244 29.6077 43.2228C29.5919 42.5026 29.2695 42.1094 29.0563 41.8492C28.8997 41.6582 28.8527 41.6008 28.8483 41.4042C28.8444 41.2081 28.889 41.1487 29.037 40.9518C29.2395 40.6824 29.5456 40.2755 29.5302 39.5541C29.5147 38.833 29.192 38.4391 28.9784 38.1789C28.8222 37.9878 28.7751 37.9305 28.7708 37.7339C28.7684 37.6275 28.7815 37.5611 28.8163 37.4915L29.7113 37.4903L41.0224 41.4553C41.0458 42.3163 41.7521 43.0096 42.6183 43.0096ZM42.5962 25.3284L43.3623 25.3272C43.384 25.3272 43.4026 25.3348 43.418 25.3502C43.4335 25.3656 43.4414 25.3846 43.4414 25.4063L43.4631 41.4106C43.4631 41.4323 43.4552 41.4513 43.4398 41.4667C43.4248 41.4822 43.4058 41.4897 43.384 41.4897L42.6183 41.4909H42.6179C42.5744 41.4909 42.5392 41.4553 42.5388 41.4122L42.5171 25.4075C42.5171 25.364 42.5527 25.3284 42.5962 25.3284ZM22.1017 34.7866C22.0764 34.7866 22.0543 34.7775 22.0365 34.7597C22.0187 34.7419 22.0096 34.7198 22.0096 34.6948L22.0064 32.4246C22.0064 32.3993 22.0155 32.3772 22.0333 32.3594C22.0511 32.3416 22.0729 32.3325 22.0982 32.3325L22.8473 32.3313L22.8504 34.7854L22.1017 34.7866ZM27.1836 43.1077C27.1777 43.1081 27.1725 43.1081 27.167 43.1081C26.7533 43.1081 26.4124 42.7759 26.4037 42.3661L26.3372 37.495L27.2627 37.4939C27.2544 37.5793 27.2505 37.6699 27.2524 37.766C27.2679 38.4874 27.5906 38.8809 27.8042 39.1415C27.9604 39.3322 28.0075 39.3899 28.0118 39.5861C28.0158 39.7827 27.9711 39.842 27.8232 40.039C27.6207 40.3083 27.3149 40.7153 27.33 41.4367C27.3454 42.1577 27.6681 42.5516 27.8817 42.8119C27.9829 42.9356 28.0383 43.0033 28.066 43.0891L27.1836 43.1077ZM24.8098 35.9783H24.8094C24.6923 35.9783 24.5824 35.9328 24.4993 35.8501C24.4166 35.7675 24.3708 35.6579 24.3704 35.5408C24.3704 35.5397 24.3704 35.5381 24.3704 35.5369L24.3648 31.5205C24.3644 31.2781 24.561 31.0811 24.8031 31.0807L29.0777 31.0748C29.0749 31.1017 29.0734 31.1286 29.0734 31.1562L29.0797 35.9723L24.8098 35.9783ZM30.5988 36.1918L30.5921 31.1543C30.5921 31.0542 30.5719 30.9585 30.5363 30.8707L41.0011 27.1707L41.0181 39.844L30.5988 36.1918Z" fill="#003A54"/>
<path d="M50.6143 48.3228C50.1947 48.3228 49.8549 48.6629 49.8549 49.0822V61.5648C49.8549 61.7175 49.7307 61.8412 49.5785 61.8412H16.1952C16.0426 61.8412 15.9188 61.7175 15.9188 61.5648V18.5885C15.9188 18.4358 16.0426 18.3121 16.1952 18.3121H18.9816V19.2688C18.9816 19.9609 19.5448 20.5241 20.2369 20.5241H45.5364C46.2285 20.5241 46.7917 19.9609 46.7917 19.2688V18.3121H49.5785C49.7307 18.3121 49.8549 18.4358 49.8549 18.5885V34.0434C49.8549 34.463 50.1947 34.8028 50.6143 34.8028C51.0335 34.8028 51.3737 34.463 51.3737 34.0434V18.5885C51.3737 17.5986 50.5684 16.7933 49.5785 16.7933H46.7917V15.8959C46.7917 15.2038 46.2285 14.6406 45.5364 14.6406H37.7354V13.7269C37.7358 12.51 36.7458 11.52 35.5288 11.52H30.2449C29.0279 11.52 28.0379 12.51 28.0379 13.7269V14.6406H20.2369C19.5448 14.6406 18.982 15.2038 18.982 15.8959V16.7933H16.1952C15.2053 16.7933 14.4 17.5986 14.4 18.5881V61.5648C14.4 62.5547 15.2053 63.36 16.1952 63.36H49.5785C50.5684 63.36 51.3737 62.5547 51.3737 61.5648V49.0822C51.3737 48.6629 51.0335 48.3228 50.6143 48.3228ZM20.5003 16.1593H28.7973C29.2169 16.1593 29.5567 15.8192 29.5567 15.3999V13.7269C29.5567 13.3476 29.8656 13.0387 30.2449 13.0387H35.5288C35.9081 13.0387 36.217 13.3476 36.217 13.7269V15.3999C36.217 15.8192 36.5568 16.1593 36.9764 16.1593H45.273V19.0054H20.5003V16.1593Z" fill="#003A54"/>
<path d="M57.8177 33.6274C57.7117 33.2082 57.4483 32.8558 57.0769 32.6347L55.2983 31.5767C54.9265 31.3552 54.4915 31.2923 54.0722 31.3983C53.6534 31.5051 53.301 31.7681 53.0799 32.1395L51.7466 34.38C51.7466 34.38 51.7466 34.3804 51.7463 34.3804L50.4581 36.5459L50.4577 36.5462L40.2919 53.6302C40.1049 53.9446 39.9601 54.2816 39.8573 54.6324C39.8557 54.6372 39.8541 54.6411 39.8525 54.6459C39.8458 54.6672 39.8391 54.6886 39.8332 54.7099C39.8332 54.7103 39.8332 54.7107 39.8332 54.7111C39.8328 54.7115 39.8328 54.7119 39.8328 54.7123L38.6174 59.174C38.4611 59.7463 38.6992 60.3353 39.209 60.6386C39.4199 60.764 39.6508 60.8253 39.8798 60.8253C40.2053 60.8253 40.5269 60.7011 40.7788 60.4602L44.1201 57.2637C44.1205 57.2633 44.1209 57.2629 44.1209 57.2629C44.1375 57.2467 44.1537 57.2305 44.1727 57.2103C44.1746 57.208 44.1766 57.2056 44.179 57.2032C44.4381 56.9457 44.6651 56.6578 44.8522 56.3438L55.0179 39.2598C55.0179 39.2598 55.0179 39.2594 55.0183 39.2594L55.521 38.4146L57.6401 34.8531C57.8608 34.4817 57.9241 34.0462 57.8177 33.6274ZM40.2848 58.8311L41.1055 55.8182C41.3646 55.9214 41.6169 56.0428 41.8582 56.1864C42.0998 56.3303 42.3268 56.4941 42.5412 56.6725L40.2848 58.8311ZM43.5608 55.5441C43.2721 55.2989 42.9632 55.0766 42.6349 54.8812C42.3067 54.6862 41.9642 54.5205 41.611 54.3836L51.3749 37.9748L53.3247 39.1352L43.5608 55.5441ZM54.1011 37.8305L52.1513 36.67L52.663 35.8098L54.6129 36.9702L54.1011 37.8305ZM56.3349 34.0763L55.3897 35.6651L53.4398 34.5046L54.3851 32.9163C54.3989 32.8925 54.4195 32.8771 54.446 32.8704C54.4547 32.8684 54.463 32.8672 54.4713 32.8672C54.4887 32.8672 54.5057 32.872 54.5215 32.8815L56.3001 33.9402C56.3239 33.9541 56.3393 33.9747 56.346 34.0012C56.3527 34.0277 56.3488 34.053 56.3349 34.0763Z" fill="#003A54"/>
</svg>
