<svg width="48" height="48" viewBox="0 0 48 48" fill="none" xmlns="http://www.w3.org/2000/svg">
<path d="M16.599 36.4116C16.3193 36.4116 16.0928 36.6383 16.0928 36.9178C16.0928 37.1976 16.3193 37.4241 16.599 37.4241H20.9325C21.2122 37.4241 21.4387 37.1976 21.4387 36.9178C21.4387 36.6383 21.2122 36.4116 20.9325 36.4116H16.599Z" fill="white"/>
<path d="M13.069 36.4116C12.7892 36.4116 12.5627 36.6383 12.5627 36.9178C12.5627 37.1976 12.7892 37.4241 13.069 37.4241H14.2405C14.5202 37.4241 14.7467 37.1976 14.7467 36.9178C14.7467 36.6383 14.5202 36.4116 14.2405 36.4116H13.069Z" fill="white"/>
<path d="M25.7424 34.6113C25.7424 34.3318 25.5159 34.105 25.2361 34.105H13.069C12.7892 34.105 12.5627 34.3318 12.5627 34.6113C12.5627 34.891 12.7892 35.1175 13.069 35.1175H25.2361C25.5156 35.1175 25.7424 34.891 25.7424 34.6113Z" fill="white"/>
<path d="M28.4122 28.6731C28.4125 28.6731 28.413 28.6731 28.4135 28.6731L28.924 28.6723C29.2085 28.672 29.4761 28.5607 29.6768 28.3593C29.8777 28.1579 29.9882 27.8902 29.9876 27.6057L29.9731 16.9362C29.9729 16.6515 29.8619 16.3841 29.6602 16.1832C29.4592 15.9828 29.1921 15.8723 28.9082 15.8723C28.9076 15.8723 28.9071 15.8723 28.9066 15.8723L28.3961 15.8731C27.8087 15.8739 27.3314 16.3525 27.3322 16.9397L27.3325 17.0404L19.8004 19.7035L16.5341 19.708C15.9814 19.7087 15.5094 20.0552 15.3201 20.5417L14.7308 20.5425C14.4439 20.543 14.1745 20.6548 13.972 20.8581C13.7695 21.0611 13.6582 21.3309 13.6584 21.6177L13.6606 23.1312C13.6611 23.7229 14.1428 24.2036 14.7342 24.2036C14.7348 24.2036 14.7353 24.2036 14.7358 24.2036L15.3378 24.2028C15.4026 24.3557 15.4968 24.4962 15.6178 24.617C15.8643 24.8627 16.1915 24.998 16.5393 24.998C16.5401 24.998 16.5406 24.998 16.5412 24.998H16.5457L16.5902 28.2615C16.5987 28.6681 16.765 29.0467 17.0585 29.328C17.3438 29.6017 17.7164 29.7512 18.1105 29.7512C18.1216 29.7512 18.1327 29.7512 18.1438 29.751L18.8523 29.7359C19.3493 29.7254 19.7469 29.3162 19.7387 28.8236C19.7385 28.8218 19.7385 28.8197 19.7385 28.8178C19.7385 28.817 19.7385 28.8162 19.7385 28.8152C19.7279 28.335 19.513 28.0729 19.3709 27.8995C19.2665 27.7721 19.2351 27.7339 19.2322 27.6028C19.2296 27.472 19.2594 27.4325 19.358 27.3012C19.493 27.1216 19.6971 26.8503 19.6868 26.3694C19.6765 25.8887 19.4613 25.6261 19.319 25.4526C19.2148 25.3252 19.1834 25.287 19.1805 25.1559C19.1789 25.085 19.1876 25.0407 19.2108 24.9943L19.8075 24.9935L27.3483 27.6368C27.3638 28.2108 27.8348 28.6731 28.4122 28.6731ZM28.3974 16.8856L28.9082 16.8848C28.9227 16.8848 28.9351 16.8898 28.9453 16.9001C28.9556 16.9104 28.9609 16.9231 28.9609 16.9376L28.9754 27.607C28.9754 27.6215 28.9701 27.6342 28.9599 27.6445C28.9498 27.6548 28.9372 27.6598 28.9227 27.6598L28.4122 27.6606H28.4119C28.3829 27.6606 28.3595 27.6368 28.3592 27.6081L28.3447 16.9383C28.3447 16.9093 28.3684 16.8856 28.3974 16.8856ZM14.7345 23.1911C14.7176 23.1911 14.7029 23.185 14.691 23.1731C14.6791 23.1613 14.6731 23.1465 14.6731 23.1299L14.6709 21.6164C14.6709 21.5995 14.677 21.5848 14.6889 21.5729C14.7007 21.561 14.7152 21.555 14.7321 21.555L15.2315 21.5542L15.2336 23.1903L14.7345 23.1911ZM18.1224 28.7385C18.1185 28.7387 18.115 28.7387 18.1113 28.7387C17.8355 28.7387 17.6083 28.5172 17.6025 28.2441L17.5582 24.9967L18.1751 24.9959C18.1696 25.0528 18.167 25.1132 18.1683 25.1773C18.1786 25.6582 18.3937 25.9206 18.5361 26.0944C18.6403 26.2214 18.6716 26.2599 18.6745 26.3907C18.6772 26.5218 18.6474 26.5613 18.5488 26.6926C18.4138 26.8722 18.21 27.1435 18.22 27.6244C18.2303 28.1051 18.4454 28.3677 18.5878 28.5412C18.6553 28.6238 18.6922 28.6688 18.7107 28.7261L18.1224 28.7385ZM16.5399 23.9855H16.5396C16.4615 23.9855 16.3882 23.9552 16.3329 23.9001C16.2778 23.845 16.2472 23.7719 16.2469 23.6939C16.2469 23.6931 16.2469 23.692 16.2469 23.6912L16.2432 21.0137C16.243 20.852 16.374 20.7207 16.5354 20.7205L19.3851 20.7165C19.3833 20.7344 19.3822 20.7524 19.3822 20.7708L19.3865 23.9816L16.5399 23.9855ZM20.3992 24.1279L20.3947 20.7695C20.3947 20.7028 20.3813 20.639 20.3576 20.5804L27.3341 18.1138L27.3454 26.5626L20.3992 24.1279Z" fill="white"/>
<path d="M33.743 32.2152C33.4632 32.2152 33.2367 32.442 33.2367 32.7214V41.0432C33.2367 41.145 33.1539 41.2275 33.0524 41.2275H10.7969C10.6951 41.2275 10.6126 41.145 10.6126 41.0432V12.3923C10.6126 12.2906 10.6951 12.208 10.7969 12.208H12.6545V12.8459C12.6545 13.3073 13.0299 13.6828 13.4914 13.6828H30.3577C30.8191 13.6828 31.1946 13.3073 31.1946 12.8459V12.208H33.0524C33.1539 12.208 33.2367 12.2906 33.2367 12.3923V22.6956C33.2367 22.9753 33.4632 23.2018 33.743 23.2018C34.0224 23.2018 34.2492 22.9753 34.2492 22.6956V12.3923C34.2492 11.7324 33.7124 11.1955 33.0524 11.1955H31.1946V10.5973C31.1946 10.1358 30.8191 9.76037 30.3577 9.76037H25.157V9.15129C25.1573 8.33997 24.4973 7.68 23.686 7.68H20.1633C19.352 7.68 18.692 8.33997 18.692 9.15129V9.76037H13.4914C13.0299 9.76037 12.6547 10.1358 12.6547 10.5973V11.1955H10.7969C10.1369 11.1955 9.6001 11.7324 9.6001 12.3921V41.0432C9.6001 41.7032 10.1369 42.24 10.7969 42.24H33.0524C33.7124 42.24 34.2492 41.7032 34.2492 41.0432V32.7214C34.2492 32.442 34.0224 32.2152 33.743 32.2152ZM13.667 10.7729H19.1983C19.478 10.7729 19.7045 10.5461 19.7045 10.2666V9.15129C19.7045 8.89843 19.9105 8.6925 20.1633 8.6925H23.686C23.9388 8.6925 24.1448 8.89843 24.1448 9.15129V10.2666C24.1448 10.5461 24.3713 10.7729 24.651 10.7729H30.1821V12.6703H13.667V10.7729Z" fill="white"/>
<path d="M38.5452 22.4183C38.4745 22.1388 38.2989 21.9038 38.0514 21.7564L36.8656 21.0511C36.6178 20.9035 36.3277 20.8615 36.0482 20.9322C35.769 21.0034 35.5341 21.1787 35.3867 21.4263L34.4978 22.92C34.4978 22.92 34.4978 22.9203 34.4976 22.9203L33.6388 24.3639L33.6385 24.3642L26.8614 35.7535C26.7367 35.9631 26.6402 36.1877 26.5716 36.4216C26.5705 36.4248 26.5695 36.4274 26.5684 36.4306C26.564 36.4448 26.5595 36.459 26.5555 36.4733C26.5555 36.4735 26.5555 36.4738 26.5555 36.4741C26.5553 36.4743 26.5553 36.4746 26.5553 36.4749L25.745 39.4493C25.6408 39.8309 25.7996 40.2235 26.1394 40.4257C26.28 40.5093 26.434 40.5502 26.5866 40.5502C26.8036 40.5502 27.018 40.4674 27.186 40.3068L29.4135 38.1758C29.4137 38.1755 29.414 38.1753 29.414 38.1753C29.4251 38.1645 29.4359 38.1537 29.4485 38.1402C29.4498 38.1386 29.4512 38.1371 29.4527 38.1355C29.6255 37.9638 29.7768 37.7719 29.9015 37.5625L36.6787 26.1732C36.6787 26.1732 36.6787 26.1729 36.6789 26.1729L37.0141 25.6097L38.4268 23.2354C38.574 22.9878 38.6161 22.6975 38.5452 22.4183ZM26.8566 39.2207L27.4038 37.2121C27.5765 37.2809 27.7447 37.3619 27.9055 37.4576C28.0666 37.5535 28.218 37.6627 28.3609 37.7816L26.8566 39.2207ZM29.0406 37.0294C28.8481 36.8659 28.6422 36.7177 28.4234 36.5875C28.2045 36.4575 27.9762 36.347 27.7407 36.2558L34.25 25.3165L35.5499 26.0901L29.0406 37.0294ZM36.0675 25.2203L34.7676 24.4467L35.1088 23.8732L36.4087 24.6468L36.0675 25.2203ZM37.5567 22.7175L36.9265 23.7767L35.6266 23.0031L36.2568 21.9442C36.266 21.9284 36.2797 21.9181 36.2974 21.9136C36.3032 21.9123 36.3087 21.9115 36.3143 21.9115C36.3259 21.9115 36.3372 21.9146 36.3478 21.921L37.5335 22.6268C37.5493 22.636 37.5596 22.6498 37.5641 22.6674C37.5686 22.6851 37.5659 22.702 37.5567 22.7175Z" fill="white"/>
</svg>
