<svg width="120" height="114" viewBox="0 0 120 114" fill="none" xmlns="http://www.w3.org/2000/svg">
<path d="M113.07 56.5356C113.07 87.7587 87.7587 113.07 56.5356 113.07C25.3116 113.07 0 87.7587 0 56.5356C0 25.3116 25.3116 0 56.5356 0C87.7587 0 113.07 25.3116 113.07 56.5356Z" fill="#0075BF"/>
<path d="M56.5348 0C54.4191 0 52.3317 0.119934 50.2754 0.346985C78.5533 3.46161 100.552 27.4273 100.552 56.5356C100.552 85.6429 78.5533 109.609 50.2754 112.723C52.3317 112.95 54.4191 113.07 56.5358 113.07C87.7589 113.07 113.07 87.7587 113.07 56.5347C113.07 25.3116 87.7589 0 56.5348 0Z" fill="#0075BF"/>
<path d="M104.019 56.5356C104.019 82.7599 82.7598 104.019 56.5355 104.019C30.3102 104.019 9.05078 82.7599 9.05078 56.5356C9.05078 30.3103 30.3102 9.0509 56.5355 9.0509C82.7598 9.0509 104.019 30.3103 104.019 56.5356Z" fill="white"/>
<path d="M56.5348 9.0509C54.4127 9.0509 52.3243 9.19189 50.2754 9.46197C73.5417 12.5262 91.5006 32.4325 91.5006 56.5356C91.5006 80.6377 73.5417 100.544 50.2754 103.608C52.3243 103.878 54.4127 104.019 56.5358 104.019C82.7601 104.019 104.02 82.7599 104.02 56.5356C104.02 30.3103 82.7601 9.0509 56.5348 9.0509Z" fill="#F2F2F2"/>
<path d="M120 89.3279C120 102.44 109.37 113.07 96.2575 113.07C83.1453 113.07 72.5151 102.44 72.5151 89.3279C72.5151 76.2157 83.1453 65.5856 96.2575 65.5856C109.37 65.5856 120 76.2157 120 89.3279Z" fill="#FD715C"/>
<path d="M96.2575 65.5856C94.0905 65.5856 91.993 65.8776 89.998 66.4214C100.073 69.168 107.481 78.3828 107.481 89.3279C107.481 100.274 100.073 109.488 89.998 112.234C91.993 112.778 94.0905 113.07 96.2575 113.07C109.371 113.07 120 102.441 120 89.3279C120 76.2157 109.37 65.5856 96.2575 65.5856Z" fill="#D83E3A"/>
<path d="M113.579 89.3279C113.579 98.8943 105.824 106.65 96.2573 106.65C86.691 106.65 78.9355 98.8943 78.9355 89.3279C78.9355 79.7616 86.691 72.0062 96.2573 72.0062C105.824 72.0062 113.579 79.7616 113.579 89.3279Z" fill="#FED066"/>
<path d="M96.2575 72.0062C94.0493 72.0062 91.9399 72.4236 89.998 73.1771C96.4699 75.6875 101.06 81.9698 101.06 89.3279C101.06 96.686 96.4699 102.968 89.998 105.479C91.9399 106.232 94.0493 106.65 96.2575 106.65C105.824 106.65 113.579 98.8943 113.579 89.3279C113.579 79.7616 105.824 72.0062 96.2575 72.0062Z" fill="#F5B556"/>
<path d="M95.8201 98.3907C92.4958 98.3367 90.2437 96.5404 90.2437 95.2275C90.2437 94.5839 90.8067 93.6986 91.4778 93.6986C92.3622 93.6986 93.0854 95.5754 95.8201 95.7897V89.4908C93.4068 88.633 90.7271 87.668 90.7271 84.2366C90.7271 80.8593 93.2731 79.5189 95.8201 79.2507V78.4734C95.8201 78.1511 96.1415 77.8563 96.5974 77.8563C96.9993 77.8563 97.4012 78.1511 97.4012 78.4734V79.1967C99.225 79.2507 101.799 79.8137 101.799 81.1266C101.799 81.6365 101.422 82.6546 100.618 82.6546C99.9757 82.6546 99.2781 81.7967 97.4022 81.6631V87.105C99.734 87.9628 102.281 89.142 102.281 92.7876C102.281 96.0845 100.297 97.9073 97.4022 98.3092V99.221C97.4022 99.5424 97.0002 99.8372 96.5974 99.8372C96.1415 99.8372 95.8201 99.5424 95.8201 99.221V98.3907ZM95.9803 86.5959V81.7171C94.4798 81.9048 93.4068 82.5749 93.4068 83.9684C93.4068 85.4964 94.5604 86.0594 95.9803 86.5959ZM97.241 90.0804V95.7366C98.6885 95.4683 99.5994 94.6105 99.5994 93.0824C99.5994 91.3933 98.5539 90.6435 97.241 90.0804Z" fill="#003A54"/>
<path d="M47.2239 79.0721C46.276 76.8958 44.567 77.6399 43.6199 75.4641C42.6721 73.2884 44.3811 72.5443 43.4333 70.3686C42.4854 68.1923 40.7771 68.9362 39.8291 66.7599C38.8812 64.5836 40.5893 63.8389 39.642 61.6624C39.0622 60.3326 38.0627 57.6193 37.2623 57.1373L29.8597 59.4035L38.7096 80.1517C39.5785 82.1459 41.8995 83.0589 43.8937 82.19L46.415 81.0927C47.1852 80.7572 47.5632 79.8622 47.231 79.0904C47.2287 79.0845 47.2262 79.078 47.2239 79.0721Z" fill="#003A54"/>
<path d="M29.9379 64.6504L24.0134 67.0922C22.8896 67.5555 21.6025 67.0194 21.1392 65.8956L18.9021 60.4686C18.4394 59.3446 18.9749 58.0576 20.0987 57.5943L26.0231 55.1525C26.7185 54.866 27.5146 55.1977 27.8011 55.8931L30.6776 62.8719C30.9648 63.5671 30.6332 64.3639 29.9379 64.6504Z" fill="#003A54"/>
<path d="M36.8797 47.186L24.8555 52.1418C23.2734 52.7943 22.5194 54.6055 23.1712 56.1878L27.1324 65.7972C27.7844 67.3802 29.5956 68.1342 31.1778 67.4817L43.2026 62.5258L78.9806 60.6475L63.5908 23.3085L36.8797 47.186Z" fill="#FED066"/>
<path d="M39.5423 53.6468L24.653 59.7834L27.1317 65.7974C27.7844 67.3802 29.5956 68.1342 31.1777 67.4817L43.2019 62.526L78.9799 60.6477L75.1591 51.377L39.5423 53.6468Z" fill="#F5B556"/>
<path d="M43.2027 62.5258L31.1778 67.4818C29.5957 68.1342 27.7845 67.3802 27.1327 65.7979L23.1713 56.1878C22.5195 54.6055 23.2735 52.7943 24.8556 52.1418L36.8798 47.1861L43.2027 62.5258Z" fill="#FD715C"/>
<path d="M39.5423 53.6468L24.653 59.7834L27.1317 65.7974C27.7433 67.2809 29.3733 68.0366 30.8788 67.5878C30.979 67.5581 31.0791 67.5226 31.1777 67.4817L39.1941 64.1781L43.2019 62.526L39.5423 53.6468Z" fill="#D83E3A"/>
<path d="M81.023 62.424L79.1921 63.1784C78.085 63.6344 76.8177 63.1074 76.3611 62.0005L60.5902 23.7369C60.1342 22.6299 60.6619 21.3623 61.769 20.9064L63.5997 20.1512C64.7068 19.6953 65.9741 20.2223 66.4309 21.3298L82.2016 59.5927C82.6576 60.6998 82.1299 61.9673 81.023 62.424Z" fill="#FD715C"/>
</svg>
