<svg width="72" height="72" viewBox="0 0 72 72" fill="none" xmlns="http://www.w3.org/2000/svg">
<path d="M50.2979 29.1437C50.2979 21.3604 43.9657 15.0281 36.1824 15.0281C28.3987 15.0281 22.0664 21.3604 22.0664 29.1437C22.0664 36.9274 28.3987 43.2596 36.1824 43.2596C43.9657 43.2596 50.2979 36.9274 50.2979 29.1437ZM36.1824 41.6776C29.2713 41.6776 23.6484 36.0548 23.6484 29.1437C23.6484 22.233 29.2713 16.6102 36.1824 16.6102C43.0935 16.6102 48.7159 22.233 48.7159 29.1437C48.7159 36.0548 43.0935 41.6776 36.1824 41.6776Z" fill="#003A54"/>
<path d="M46.0125 26.0493C45.8634 25.5895 45.4386 25.2809 44.9554 25.2809H39.0607L37.2393 19.675C37.0897 19.2156 36.6649 18.9071 36.1821 18.9071C35.6992 18.9071 35.2745 19.2156 35.1249 19.675L33.3035 25.2813H27.4088C26.9255 25.2813 26.5008 25.5899 26.3516 26.0493C26.2025 26.5087 26.3648 27.008 26.7554 27.2918L31.5241 30.7567L29.7027 36.3626C29.5536 36.822 29.7155 37.3217 30.1065 37.6056C30.4971 37.8894 31.0223 37.8894 31.4133 37.6056L36.1821 34.1407L40.9509 37.6056C41.1465 37.7477 41.3752 37.8186 41.6043 37.8186C41.8333 37.8186 42.0624 37.7477 42.2577 37.6056C42.6487 37.3217 42.8106 36.822 42.6614 36.3626L40.8396 30.7567L45.6084 27.2918C45.9994 27.008 46.1617 26.5087 46.0125 26.0493ZM39.6333 29.6777C39.2427 29.9615 39.0804 30.4609 39.2296 30.9206L40.709 35.4743L36.8355 32.6601C36.6398 32.5179 36.4112 32.4471 36.1821 32.4471C35.953 32.4471 35.724 32.5179 35.5287 32.6601L31.6552 35.4743L33.1346 30.9202C33.2838 30.4609 33.1214 29.9615 32.7309 29.6777L28.8569 26.863H33.6455C34.1283 26.863 34.5531 26.5544 34.7026 26.095L36.1821 21.5409L37.6615 26.095C37.8111 26.5544 38.2359 26.863 38.7187 26.863H43.5072L39.6333 29.6777Z" fill="#003A54"/>
<path d="M57.2026 55.3127L49.7856 42.2914L51.085 41.8745C52.6505 41.3727 53.6838 39.8755 53.5981 38.2337L53.4996 36.3481C53.4696 35.7775 53.6821 35.2163 54.083 34.8089L55.4075 33.4629C56.5603 32.2908 56.7795 30.4851 55.9407 29.0711L54.977 27.4475C54.6853 26.956 54.6132 26.3602 54.7784 25.8131L55.3256 24.0057C55.8018 22.4323 55.1566 20.7316 53.7571 19.8698L52.1491 18.8793C51.6626 18.5798 51.3214 18.0863 51.2139 17.5247L50.8584 15.6704C50.549 14.0558 49.1873 12.8495 47.5472 12.7366L45.6632 12.6072C45.093 12.5681 44.562 12.2892 44.206 11.8422L43.0289 10.3652C42.0047 9.07979 40.2381 8.64473 38.734 9.30679L37.0057 10.0677C37.0057 10.0677 37.0057 10.0677 37.0053 10.0677C36.4824 10.298 35.8826 10.298 35.3594 10.0677L33.6311 9.30679C32.1265 8.64473 30.3603 9.07979 29.3357 10.3656L28.159 11.8422C27.8031 12.2892 27.272 12.5681 26.7018 12.6072L24.8178 12.7366C23.1777 12.8495 21.8161 14.0558 21.5067 15.6704L21.1511 17.5247C21.0432 18.0859 20.7025 18.5798 20.2159 18.8793L18.6079 19.8694C17.2084 20.7312 16.5632 22.4323 17.0395 24.0057L17.5862 25.8131C17.7518 26.3602 17.6797 26.9556 17.388 27.4471L16.4244 29.0711C15.5856 30.4846 15.8047 32.2908 16.9575 33.4625L18.282 34.8089C18.6825 35.2163 18.8955 35.777 18.8654 36.3476L18.7669 38.2337C18.6812 39.8751 19.7145 41.3723 21.2797 41.8745L22.5795 42.291L15.1625 55.3127C14.9383 55.7062 14.9466 56.1898 15.1843 56.5755C15.422 56.9611 15.8525 57.1868 16.3028 57.1621L22.502 56.8412L25.388 62.3375C25.5985 62.738 26.0105 62.9922 26.4633 62.9996C26.4703 62.9996 26.4773 63 26.4843 63C26.9288 63 27.34 62.7619 27.5604 62.3746L35.1085 49.1226C35.4578 49.2309 35.82 49.2874 36.1825 49.2874C36.5451 49.2874 36.9068 49.2309 37.2566 49.1226L44.8046 62.3746C45.025 62.7619 45.4358 63 45.8803 63C45.8873 63 45.8947 63 45.9017 62.9996C46.3545 62.9922 46.7665 62.7384 46.977 62.3375L49.8626 56.8412L56.0622 57.1621C56.5162 57.186 56.943 56.9607 57.1803 56.5755C57.418 56.1898 57.4267 55.7062 57.2026 55.3127ZM26.4967 61.0459L23.8682 56.0403L25.4201 53.3162C25.6364 52.9364 25.5042 52.4535 25.1243 52.2372C24.7453 52.0213 24.262 52.1536 24.0458 52.533L22.4938 55.2575L16.8479 55.55L23.9761 43.0359C24.1104 43.1862 24.2241 43.3564 24.3098 43.5426L25.0992 45.2585C25.5087 46.1488 26.247 46.8089 27.1192 47.1364L25.8832 49.3067C25.6669 49.6862 25.7996 50.1694 26.179 50.3857C26.3026 50.4558 26.4373 50.4891 26.57 50.4891C26.8448 50.4891 27.1122 50.3458 27.258 50.0895L28.8232 47.342C28.8874 47.3341 28.9517 47.3255 29.016 47.314L30.8765 46.9889C31.4389 46.8904 32.0214 47.0342 32.4742 47.3828L33.7287 48.3489L26.4967 61.0459ZM37.2108 47.4264C37.208 47.4281 37.2055 47.4289 37.203 47.4305C37.1989 47.433 37.1948 47.4359 37.1907 47.4384C36.5665 47.7931 35.7985 47.7931 35.1744 47.4384C35.1703 47.4359 35.1666 47.433 35.162 47.4305C35.1595 47.4289 35.1571 47.4281 35.1546 47.4264C35.0796 47.3828 35.0063 47.3358 34.9363 47.2818L33.4399 46.1295C32.8026 45.6384 32.0202 45.3764 31.2251 45.3764C31.0182 45.3764 30.8106 45.3945 30.6042 45.4303L28.7437 45.7554C28.6238 45.7764 28.5039 45.7859 28.3852 45.7855C28.3753 45.7851 28.3659 45.7847 28.3564 45.7847C27.5839 45.7711 26.8687 45.3191 26.5366 44.5969L25.7473 42.8814C25.4098 42.1476 24.8351 41.5515 24.1277 41.1823C24.1261 41.1815 24.1249 41.1803 24.1232 41.1794C24.1187 41.177 24.1141 41.1749 24.11 41.1729C24.0931 41.1642 24.0762 41.1556 24.0593 41.1473C24.0552 41.1453 24.0519 41.1436 24.0478 41.142C23.8913 41.0649 23.7289 40.9986 23.5613 40.9446L21.7629 40.3682C20.8809 40.0852 20.2983 39.2415 20.3469 38.3165L20.4454 36.4305C20.4981 35.4178 20.1207 34.4224 19.4096 33.6998L18.0855 32.3534C17.4358 31.693 17.3122 30.6754 17.7848 29.8786L18.7484 28.2546C19.2659 27.3824 19.3944 26.3256 19.1007 25.355L18.5535 23.5476C18.2849 22.661 18.6487 21.7023 19.4377 21.217L21.0457 20.2265C21.9092 19.6947 22.514 18.8188 22.7047 17.8226L23.0603 15.9682C23.2345 15.0586 24.0021 14.3788 24.9262 14.3149L26.8102 14.1856C27.8216 14.1159 28.7643 13.6211 29.3962 12.8281L30.5729 11.3515C31.1505 10.6268 32.1459 10.3817 32.9937 10.7549L34.7216 11.5155C35.6498 11.9242 36.7148 11.9242 37.6426 11.5155L39.3709 10.7549C40.2192 10.3817 41.2141 10.6268 41.7913 11.3515L42.9684 12.8285C43.6 13.6215 44.543 14.1159 45.5544 14.1856L47.4385 14.3153C48.3625 14.3788 49.1301 15.0586 49.3043 15.9682L49.6599 17.823C49.8511 18.8188 50.4559 19.6951 51.319 20.2265L52.927 21.217C53.7159 21.7027 54.0797 22.661 53.8111 23.5476L53.264 25.3554C52.9702 26.3256 53.0988 27.3824 53.6162 28.255L54.5799 29.8786C55.0524 30.6754 54.9292 31.693 54.2791 32.3534L52.955 33.6998C52.2439 34.4224 51.8665 35.4178 51.9192 36.4309L52.0177 38.3165C52.0663 39.2415 51.4838 40.0852 50.6017 40.3682L48.8034 40.9446C48.6357 40.9986 48.4734 41.0649 48.3168 41.1415C48.3127 41.1436 48.309 41.1453 48.3053 41.1469C48.2884 41.1556 48.2711 41.1642 48.2542 41.1729C48.2501 41.1753 48.2455 41.177 48.2414 41.1794C48.2398 41.1803 48.2385 41.1811 48.2373 41.1819C47.5295 41.5511 46.9548 42.1476 46.6174 42.8814L45.828 44.5973C45.4963 45.3187 44.782 45.7706 44.0099 45.7847C43.9988 45.7847 43.9872 45.7851 43.9761 45.7859C43.8583 45.7859 43.7396 45.7764 43.6206 45.7554L41.7604 45.4303C40.7614 45.2557 39.7277 45.5107 38.9243 46.1295L37.4284 47.2818C37.3587 47.3358 37.2854 47.3828 37.2108 47.4264ZM49.8712 55.2575L48.3065 52.5108C48.0902 52.1309 47.607 51.9987 47.2279 52.215C46.8481 52.4313 46.7158 52.9141 46.9321 53.294L48.4964 56.0403L45.8684 61.0459L38.6363 48.3489L39.8904 47.3828C40.3432 47.0342 40.9257 46.8904 41.4885 46.9889L43.3486 47.314C43.4129 47.3255 43.4776 47.3341 43.5419 47.342L45.1062 50.0887C45.252 50.3445 45.5194 50.4883 45.7942 50.4883C45.9269 50.4883 46.0616 50.455 46.1852 50.3845C46.5646 50.1682 46.6969 49.6854 46.481 49.3055L45.2454 47.1364C46.1176 46.8084 46.8559 46.1488 47.2654 45.2585L48.0548 43.5426C48.1405 43.3564 48.2542 43.1862 48.3885 43.0359L55.5167 55.55L49.8712 55.2575Z" fill="#003A54"/>
</svg>
