<svg width="120" height="120" viewBox="0 0 120 120" fill="none" xmlns="http://www.w3.org/2000/svg">
<g clip-path="url(#clip0)">
<path d="M36.9344 119.453L29.7887 105.844L14.439 106.639C13.6306 106.681 13.095 105.813 13.496 105.11L42.3974 54.3695L67.6321 68.7433L38.7316 119.483C38.3306 120.187 37.3107 120.169 36.9344 119.453Z" fill="#EE5646"/>
<path d="M36.9343 119.453L29.7886 105.844L55.0141 61.5564L67.6319 68.7433L38.7314 119.483C38.3304 120.187 37.3105 120.169 36.9343 119.453Z" fill="#E8383B"/>
<path d="M83.1512 119.453L90.2969 105.844L105.647 106.639C106.455 106.681 106.99 105.813 106.59 105.11L77.6882 54.3695L52.4526 68.7433L81.354 119.483C81.755 120.187 82.7749 120.169 83.1512 119.453Z" fill="#E8383B"/>
<path d="M83.1512 119.453L90.2969 105.844L65.0704 61.5564L52.4526 68.7433L81.354 119.483C81.755 120.187 82.7749 120.169 83.1512 119.453Z" fill="#EE5646"/>
<path d="M62.6559 2.29242L66.6128 0.551089C69.3081 -0.636346 72.4648 0.14185 74.2995 2.44531L76.9939 5.82634C78.1273 7.24998 79.8073 8.13071 81.6219 8.25614L85.9349 8.55186C88.8728 8.75419 91.3063 10.9102 91.8611 13.8024L92.675 18.0477C93.0174 19.8348 94.095 21.3957 95.645 22.3497L99.3254 24.6166C101.833 26.1601 102.986 29.2006 102.133 32.0186L100.881 36.1567C100.354 37.8981 100.582 39.7813 101.511 41.3459L103.717 45.0639C105.22 47.5962 104.828 50.8234 102.762 52.9227L99.731 56.0044C98.4547 57.3017 97.7818 59.0751 97.877 60.8924L98.1032 65.21C98.257 68.1506 96.4094 70.8258 93.6052 71.7249L89.489 73.045C87.7559 73.6008 86.3368 74.8587 85.576 76.5112L83.7697 80.4388C82.5393 83.114 79.6608 84.6255 76.7595 84.1183L72.5014 83.374C70.7089 83.0609 68.8668 83.5141 67.4258 84.6246L64.0008 87.2622C61.6681 89.0594 58.417 89.0594 56.0843 87.2622L52.6593 84.6246C51.2183 83.5141 49.3762 83.06 47.5836 83.374L43.3255 84.1183C40.4242 84.6255 37.5458 83.114 36.3154 80.4388L34.509 76.5112C33.7482 74.8587 32.3292 73.6008 30.5961 73.045L26.4799 71.7249C23.6756 70.8258 21.8281 68.1506 21.9819 65.2091L22.208 60.8924C22.3023 59.0751 21.6303 57.3017 20.3541 56.0044L17.3228 52.9227C15.2574 50.8234 14.8655 47.5962 16.3679 45.0639L18.5743 41.3459C19.5027 39.7813 19.7315 37.8981 19.2042 36.1567L17.9518 32.0186C17.0985 29.1997 18.2521 26.1601 20.7597 24.6166L24.4401 22.3497C25.9901 21.3957 27.0676 19.8348 27.4101 18.0477L28.224 13.8024C28.7788 10.9102 31.2122 8.75419 34.1501 8.55186L38.4632 8.25523C40.2777 8.13071 41.9577 7.24906 43.0912 5.82634L45.7855 2.44531C47.6202 0.14185 50.777 -0.636346 53.4723 0.550174L57.4292 2.29242C59.0945 3.02575 60.9906 3.02575 62.6559 2.29242Z" fill="#FED066"/>
<path d="M62.6559 2.29242L66.6128 0.551089C69.3081 -0.636346 72.4648 0.14185 74.2995 2.44531L76.9939 5.82634C78.1273 7.24998 79.8073 8.13071 81.6219 8.25614L85.9349 8.55186C88.8728 8.75419 91.3063 10.9102 91.8611 13.8024L92.675 18.0477C93.0174 19.8348 94.095 21.3957 95.645 22.3497L99.3254 24.6166C101.833 26.1601 102.986 29.2006 102.133 32.0186L100.881 36.1567C100.354 37.8981 100.582 39.7813 101.511 41.3459L103.717 45.0639C105.22 47.5962 104.828 50.8234 102.762 52.9227L99.731 56.0044C98.4547 57.3017 97.7818 59.0751 97.877 60.8924L98.1032 65.21C98.257 68.1506 96.4094 70.8258 93.6052 71.7249L89.489 73.045C87.7559 73.6008 86.3368 74.8587 85.576 76.5112L83.7697 80.4388C82.5393 83.114 79.6608 84.6255 76.7595 84.1183L72.5014 83.374C70.7089 83.0609 68.8668 83.5141 67.4258 84.6246L64.0008 87.2622C61.6681 89.0594 58.417 89.0594 56.0843 87.2622L52.6593 84.6246C51.2183 83.5141 49.3762 83.06 47.5836 83.374L43.3255 84.1183C40.4242 84.6255 37.5458 83.114 36.3154 80.4388L34.509 76.5112C33.7482 74.8587 32.3292 73.6008 30.5961 73.045L26.4799 71.7249C23.6756 70.8258 21.8281 68.1506 21.9819 65.2091L22.208 60.8924C22.3023 59.0751 21.6303 57.3017 20.3541 56.0044L17.3228 52.9227C15.2574 50.8234 14.8655 47.5962 16.3679 45.0639L18.5743 41.3459C19.5027 39.7813 19.7315 37.8981 19.2042 36.1567L17.9518 32.0186C17.0985 29.1997 18.2521 26.1601 20.7597 24.6166L24.4401 22.3497C25.9901 21.3957 27.0676 19.8348 27.4101 18.0477L28.224 13.8024C28.7788 10.9102 31.2122 8.75419 34.1501 8.55186L38.4632 8.25523C40.2777 8.13071 41.9577 7.24906 43.0912 5.82634L45.7855 2.44531C47.6202 0.14185 50.777 -0.636346 53.4723 0.550174L57.4292 2.29242C59.0945 3.02575 60.9906 3.02575 62.6559 2.29242Z" fill="#FED066"/>
<path d="M90.5457 44.3051C90.5457 61.1526 76.8887 74.8095 60.0421 74.8095C43.1955 74.8095 29.5386 61.1526 29.5386 44.3051C29.5386 27.4584 43.1955 13.8015 60.0421 13.8015C76.8887 13.8015 90.5457 27.4584 90.5457 44.3051Z" fill="#EE5646"/>
<path d="M60.0422 13.8025C57.9054 13.8025 55.8189 14.0231 53.8057 14.4415C67.6613 17.3199 78.0726 29.5963 78.0726 44.306C78.0726 59.0149 67.6613 71.2912 53.8057 74.1705C55.8189 74.5889 57.9054 74.8096 60.0422 74.8096C76.8889 74.8096 90.5458 61.1526 90.5458 44.306C90.5458 27.4585 76.8889 13.8025 60.0422 13.8025Z" fill="#E8383B"/>
<path d="M103.717 45.0639L101.511 41.3459C100.583 39.7813 100.354 37.8981 100.881 36.1567L102.134 32.0186C102.986 29.1997 101.833 26.1601 99.3257 24.6166L95.6453 22.3497C94.0953 21.3948 93.0177 19.8339 92.6753 18.0477L91.8614 13.8015C91.3066 10.9093 88.8731 8.75418 85.9352 8.55185L81.6222 8.25522C79.8076 8.13071 78.1276 7.24906 76.9942 5.82634L74.2998 2.44531C72.4651 0.14185 69.3084 -0.636346 66.6131 0.550174L64.0615 1.67352C80.7021 8.66904 92.3878 25.1219 92.3878 44.3058C92.3878 60.6882 83.8652 75.0793 71.0122 83.2897C71.5066 83.2614 72.0055 83.287 72.5008 83.374L76.7598 84.1183C79.6611 84.6246 82.5395 83.114 83.77 80.4388L85.5763 76.5112C86.3362 74.8587 87.7562 73.6008 89.4893 73.045L93.6055 71.7248C96.4097 70.8258 98.2563 68.1506 98.1025 65.2091L97.8773 60.8924C97.7821 59.0751 98.455 57.3017 99.7313 56.0044L102.763 52.9227C104.828 50.8234 105.22 47.5962 103.717 45.0639Z" fill="#F5B556"/>
<path d="M60.7413 23.1885L65.1532 36.7666C65.2512 37.0688 65.5332 37.2729 65.8509 37.2729H80.1276C80.838 37.2729 81.1337 38.183 80.5588 38.6004L69.0085 46.9922C68.7512 47.1799 68.6441 47.5104 68.7421 47.8125L73.154 61.3907C73.3737 62.0672 72.6001 62.6294 72.0252 62.211L60.4749 53.8193C60.2176 53.6325 59.8688 53.6325 59.6125 53.8193L48.0622 62.211C47.4863 62.6294 46.7127 62.0672 46.9324 61.3907L51.3443 47.8125C51.4423 47.5104 51.3352 47.1799 51.0779 46.9922L39.5276 38.6004C38.9527 38.183 39.2475 37.2729 39.9588 37.2729H54.2356C54.5533 37.2729 54.8352 37.0688 54.9332 36.7666L59.3451 23.1885C59.5648 22.5119 60.5216 22.5119 60.7413 23.1885Z" fill="#F2F2F2"/>
</g>
<defs>
<clipPath id="clip0">
<rect width="120" height="120" fill="white"/>
</clipPath>
</defs>
</svg>
