<svg width="21" height="21" viewBox="0 0 21 21" fill="none" xmlns="http://www.w3.org/2000/svg">
<path d="M10.5649 20.9998C8.13692 21.0148 5.7788 20.1879 3.89194 18.6599C2.00507 17.1318 0.706066 14.9971 0.216064 12.619C-0.273938 10.241 0.0753346 7.76664 1.20444 5.61715C2.33354 3.46765 4.1727 1.7759 6.40881 0.829853C8.64492 -0.116193 11.1398 -0.258062 13.4687 0.428412C15.7977 1.11489 17.8167 2.58729 19.1822 4.59493C20.5477 6.60258 21.1752 9.02141 20.9579 11.4397C20.7406 13.8579 19.692 16.1261 17.9905 17.8582C17.0175 18.8362 15.8602 19.6114 14.5856 20.1391C13.311 20.6669 11.9444 20.9365 10.5649 20.9326V20.9998ZM7.05368 6.53502C5.77688 6.53502 5.05447 7.47582 5.05447 9.10542V11.827C4.99326 12.1363 5.00027 12.4552 5.07498 12.7615C5.14969 13.0677 5.29034 13.354 5.48708 13.6003C5.68383 13.8467 5.9319 14.0471 6.21409 14.1877C6.49627 14.3282 6.80575 14.4056 7.12089 14.4142H14.4457C16.0249 14.4142 16.3609 13.0198 16.3609 11.827V9.10542C16.3609 7.42542 15.7393 6.53502 14.5129 6.53502H7.07049H7.05368ZM9.57368 12.1294V8.95423L12.6649 10.6342L9.57368 12.3142V12.1294Z" fill="white"/>
</svg>
