<?xml version="1.0" standalone="no"?>
<!DOCTYPE svg PUBLIC "-//W3C//DTD SVG 1.1//EN" "http://www.w3.org/Graphics/SVG/1.1/DTD/svg11.dtd" >
<svg xmlns="http://www.w3.org/2000/svg" xmlns:xlink="http://www.w3.org/1999/xlink" version="1.1">
<metadata></metadata>
<defs>
<font id="barlowmedium_italic" horiz-adv-x="1075" >
<font-face units-per-em="2048" ascent="1638" descent="-410" />
<missing-glyph horiz-adv-x="397" />
<glyph unicode="&#xfb01;" horiz-adv-x="1236" d="M131 883l16 139q4 20 23 20h133q8 0 8 9l4 36q16 135 57.5 209t118 106t209.5 32h68q20 0 16 -21l-14 -131q-4 -20 -22 -20h-50q-100 0 -140 -39t-52 -148l-4 -24q0 -8 8 -9h209q8 0 13 -6t3 -14l-16 -139q-4 -20 -23 -21h-209q-8 0 -8 -8l-102 -834q-2 -8 -8.5 -14 t-14.5 -6h-151q-18 0 -19 20l103 834q2 2 0 5t-6 3h-134q-20 0 -16 21zM848 23l123 999q0 8 6 14t14 6h152q18 0 18 -20l-123 -999q-4 -20 -22 -21h-152q-20 1 -16 21zM979 1317q0 66 42 108.5t103 42.5q51 0 82 -29.5t31 -80.5q0 -63 -43 -107.5t-103 -44.5q-51 0 -81.5 31 t-30.5 80z" />
<glyph unicode="&#xfb02;" horiz-adv-x="1196" d="M131 883l16 139q4 20 23 20h133q8 0 8 9l4 36q16 135 57.5 209t118 106t209.5 32h68q20 0 16 -21l-14 -131q-4 -20 -22 -20h-50q-100 0 -140 -39t-52 -148l-4 -24q0 -8 8 -9h209q8 0 13 -6t3 -14l-16 -139q-4 -20 -23 -21h-209q-8 0 -8 -8l-102 -834q-2 -8 -8.5 -14 t-14.5 -6h-151q-18 0 -19 20l103 834q2 2 0 5t-6 3h-134q-20 0 -16 21zM831 20l170 1393q4 20 23 21h151q20 0 17 -21l-170 -1393q-4 -20 -23 -20h-151q-21 0 -17 20z" />
<glyph horiz-adv-x="0" />
<glyph unicode="&#xd;" horiz-adv-x="397" />
<glyph horiz-adv-x="0" />
<glyph horiz-adv-x="0" />
<glyph unicode=" "  horiz-adv-x="397" />
<glyph unicode="&#x09;" horiz-adv-x="397" />
<glyph unicode="&#xa0;" horiz-adv-x="397" />
<glyph unicode="!" horiz-adv-x="651" d="M168 117q0 66 42 108.5t103 42.5q51 0 82 -29.5t31 -80.5q0 -63 -43 -107.5t-102 -44.5q-52 0 -82.5 31t-30.5 80zM272 496l95 917q4 20 22 21h150q10 0 15 -6.5t3 -14.5l-129 -917q-2 -20 -22 -21h-117q-19 1 -17 21z" />
<glyph unicode="&#x22;" horiz-adv-x="589" d="M152 1008l30 397q4 20 21 20h147q20 0 17 -20l-68 -397q-2 -20 -23 -21h-106q-8 0 -14 5t-4 16zM463 1008l31 397q4 20 20 20h148q16 0 16 -20l-70 -397q-2 -20 -22 -21h-105q-20 1 -18 21z" />
<glyph unicode="#" horiz-adv-x="1329" d="M135 412l19 129q2 20 22 20h148q10 0 10 8l76 283q2 2 0 5t-4 3h-121q-18 0 -19 21l17 131q4 20 22 20h148q10 0 10 8l90 324q6 18 22 18l150 -2q8 0 13 -6t3 -16l-88 -318q0 -8 6 -8h277q10 0 10 8l90 324q2 18 21 18l151 -2q8 0 13.5 -6t1.5 -16l-86 -318q0 -8 6 -8 h129q8 0 13 -6t3 -14l-18 -131q-3 -21 -23 -21h-151q-10 0 -13 -8l-73 -283q0 -8 4 -8h125q10 0 15 -6t3 -14l-16 -129q-4 -20 -23 -21h-149q-10 0 -13 -8l-88 -324q-6 -18 -22 -18l-152 2q-8 0 -13 6t-1 17l86 317q0 8 -4 8h-277q-10 0 -10 -8l-90 -324q-6 -18 -23 -18 l-151 2q-8 0 -12 7t-2 16l86 317q2 2 0 5t-4 3h-125q-18 0 -19 21zM526 569q0 -8 6 -8h275q8 0 10 8l76 283q0 8 -4 8h-277q-10 0 -10 -8z" />
<glyph unicode="$" horiz-adv-x="1118" d="M96 328q0 18 4 55l9 59q0 8 6 14.5t16 6.5h137q8 0 13.5 -6t3.5 -15l-6 -49q-2 -10 -3 -28q0 -94 75 -152.5t208 -58.5q137 0 214 67.5t77 173.5q0 78 -64.5 129t-226.5 127q-123 55 -193.5 97.5t-116.5 108t-46 163.5q0 16 4 53q20 156 124.5 253t268.5 120q6 0 10 8 l17 158q4 20 22 20h129q18 0 19 -20l-23 -160q0 -6 6 -10q154 -23 239 -113t85 -229q0 -16 -4 -58l-6 -41q0 -8 -6.5 -14t-16.5 -6h-137q-10 0 -15.5 6t-3.5 14l5 31q2 10 2 31q0 96 -70 156.5t-197 60.5q-117 0 -186.5 -52t-81.5 -151q-2 -10 -2 -30q0 -55 29.5 -93.5 t85 -69t172.5 -81.5q119 -53 191.5 -97t121.5 -113t49 -167q0 -14 -4 -51q-20 -160 -131 -263.5t-289 -123.5q-8 0 -8 -8l-16 -144q-4 -20 -23 -20h-131q-20 0 -16 20l18 146q4 8 -6 8q-158 23 -245 111.5t-87 226.5z" />
<glyph unicode="%" horiz-adv-x="1667" d="M262 1112q0 90 47 169t125 125t166 46q111 0 184.5 -76t73.5 -186q0 -92 -46 -171t-124 -126t-164 -47q-112 0 -187 75.5t-75 190.5zM348 7q-4 7 4 18l922 1394q10 14 26 15h97q12 0 16 -7.5t-4 -17.5l-922 -1395q-10 -14 -26 -14h-96q-13 0 -17 7zM383 1126 q0 -68 45 -113.5t113 -45.5q77 0 136.5 61.5t59.5 145.5q0 68 -44 112.5t-109 44.5q-80 0 -140.5 -60.5t-60.5 -144.5zM913 246q0 90 47.5 169t125 126t163.5 47q113 0 186.5 -76t73.5 -188q0 -90 -46 -169t-123.5 -126t-163.5 -47q-113 0 -188 75.5t-75 188.5zM1034 260 q0 -68 44 -113t112 -45q80 0 139.5 61.5t59.5 143.5q0 68 -44.5 114t-109.5 46q-80 0 -140.5 -61.5t-60.5 -145.5z" />
<glyph unicode="&#x26;" horiz-adv-x="1341" d="M90 274q0 162 91 270.5t251 207.5q8 2 4 10q-80 121 -110.5 189.5t-30.5 127.5q0 104 52 188.5t143.5 133.5t205.5 49q152 0 243 -79t91 -210q0 -143 -85 -245.5t-236 -198.5q-10 -4 -4 -10l135 -191q23 -29 41 -56.5t34 -49.5l9 -11q0 -4 4 -4t6 2q100 111 151 174 q10 16 27 7l105 -66q16 -10 4 -29q-104 -133 -193 -221q-6 -6 4 -18q82 -121 154 -219q4 -5 4 -11q0 -14 -19 -14h-170q-16 0 -22 12l-86 119q-4 6 -12 2q-102 -78 -206 -113.5t-216 -35.5q-166 0 -267.5 73.5t-101.5 216.5zM285 303q0 -72 53 -111.5t147 -39.5 q143 -1 297 112q8 6 2 12l-57 82q-18 29 -61 84l-123 168q-2 6 -11 2q-119 -74 -183 -145.5t-64 -163.5zM485 1108q-4 -41 16.5 -89t94.5 -161q6 -6 12 -2q115 74 173.5 136.5t58.5 142.5q0 63 -43 99t-117 36q-80 0 -133 -44t-62 -118z" />
<glyph unicode="'" horiz-adv-x="286" d="M152 1016l30 393q4 20 21 21h157q18 0 15 -21l-68 -393q-2 -20 -22 -21h-113q-20 1 -20 21z" />
<glyph unicode="(" horiz-adv-x="579" d="M23 436q0 121 14 236q33 264 125 492.5t217 383.5q8 12 24 13h144q12 0 15 -7.5t-3 -17.5q-109 -160 -192.5 -384t-114.5 -478q-14 -121 -14 -246q0 -178 29.5 -334.5t80.5 -273.5l2 -8q0 -16 -20 -17h-146q-14 0 -24 12q-63 119 -100 280t-37 349z" />
<glyph unicode=")" horiz-adv-x="579" d="M103.5 -197.5q-3.5 7.5 2.5 17.5q109 160 193 384t117 478q14 117 14 242q0 178 -30.5 334.5t-82.5 277.5l-2 8q0 16 19 17h147q17 -1 23 -13q66 -121 103.5 -283.5t37.5 -351.5q0 -117 -14 -229q-33 -262 -125 -490.5t-217 -386.5q-12 -12 -27 -12h-143q-12 0 -15.5 7.5 z" />
<glyph unicode="*" horiz-adv-x="790" d="M143 1026q0 14 13 21l219 114q4 2 5 6t-3 7l-191 114q-8 4 -9 12.5t5 16.5l45 69q6 8 14.5 10.5t14.5 -1.5l188 -119q4 -2 7.5 0t3.5 6l28 227q4 20 23 21h76q20 0 16 -21l-27 -227q-2 -4 1 -6t8 0l217 119q4 2 10 2q12 0 16 -11l29 -69l2 -6q0 -14 -14 -23l-219 -114 q-4 -2 -5.5 -6.5t2.5 -6.5l191 -114q8 -4 9 -12.5t-3 -16.5l-45 -70q-6 -8 -14 -10t-15 2l-188 121q-4 2 -7 0t-3 -6l-29 -230q0 -8 -6 -14t-16 -6h-76q-8 0 -13.5 6t-3.5 14l29 230q0 4 -3 6t-7 0l-217 -121q-4 -2 -11 -2q-12 0 -16 10l-29 70q-2 2 -2 8z" />
<glyph unicode="+" horiz-adv-x="983" d="M100 567l15 129q4 20 22 21h314q2 0 5 2t3 6l41 328q0 8 6 14t14 6h127q8 0 13.5 -6t3.5 -14l-41 -328q0 -8 8 -8h311q19 -1 19 -21l-17 -129q-4 -20 -22 -20h-312q-4 0 -7 -2t-3 -6l-39 -316q0 -8 -6 -14t-16 -6h-125q-20 0 -17 20l39 316q0 8 -8 8h-311q-20 0 -17 20z " />
<glyph unicode="," horiz-adv-x="526" d="M57 -154l136 455q4 18 22 18h133q10 0 14.5 -6t-0.5 -16l-174 -455q-2 -8 -8 -13t-14 -5h-94q-11 0 -15 6t0 16z" />
<glyph unicode="-" horiz-adv-x="794" d="M98 561l17 129q4 20 22 21h615q8 0 13 -6.5t3 -14.5l-16 -129q0 -8 -6.5 -14t-16.5 -6h-612q-11 0 -16 6t-3 14z" />
<glyph unicode="." horiz-adv-x="546" d="M115 111q0 66 42 108.5t103 42.5q49 0 80 -31.5t31 -82.5q0 -63 -42 -105.5t-102 -42.5q-51 0 -81.5 31t-30.5 80z" />
<glyph unicode="/" horiz-adv-x="845" d="M19.5 6q-3.5 6 0.5 17l639 1394q6 16 25 17h150q23 0 12 -23l-637 -1395q-10 -16 -27 -16h-149q-10 0 -13.5 6z" />
<glyph unicode="0" horiz-adv-x="1124" d="M131 344q0 20 4 70l74 606q25 199 157 315.5t332 116.5q184 0 289 -98.5t105 -268.5q0 -20 -5 -65l-75 -606q-25 -199 -159 -316.5t-335 -117.5q-180 0 -283.5 97t-103.5 267zM322 360q0 -96 58 -153t159 -57q114 0 190 68.5t90 182.5l78 627q2 14 2 41q0 98 -58.5 154.5 t-162.5 56.5q-113 0 -187.5 -68.5t-91.5 -183.5l-75 -627q-2 -14 -2 -41z" />
<glyph unicode="1" horiz-adv-x="698" d="M211 1169l6 117q4 20 16 25l240 116q13 7 27 7h157q20 0 17 -21l-170 -1393q-4 -20 -23 -20h-151q-20 0 -17 20l148 1203q0 4 -3 6t-7 0l-218 -74q-4 -2 -10 -2q-12 0 -12 16z" />
<glyph unicode="2" horiz-adv-x="1081" d="M70 20l16 125q0 12 12 25q92 94 369 389l145 156q213 225 228 352q2 10 2 31q0 84 -55.5 133t-149.5 49q-102 0 -171 -59.5t-79 -155.5l-8 -61q0 -8 -6 -14.5t-17 -6.5h-151q-10 0 -15.5 6t-3.5 15l11 88q27 162 154.5 260t307.5 98q176 0 276.5 -92t100.5 -240 q0 -98 -57 -208.5t-174 -239.5q-139 -160 -424 -445l-43 -45q-6 -10 4 -10h598q10 0 15.5 -6t2.5 -14l-16 -130q-4 -20 -22 -20h-832q-10 0 -15 6t-3 14z" />
<glyph unicode="3" horiz-adv-x="1040" d="M96 358q0 29 4 70q4 20 23 21h153q18 0 17 -21l-2 -57q0 -23 4 -52q10 -76 60.5 -120.5t129.5 -44.5q152 0 222 141q31 59 45 160q4 49 4 71q0 70 -15 115q-39 127 -182 127q-18 0 -41.5 -9t-48.5 -22q-8 -4 -12 -4q-8 0 -15 10l-61 107q-4 8 -4 12t8 17l387 374 q6 10 -4 11h-528q-8 0 -13.5 6t-3.5 14l17 129q0 8 6 14.5t16 6.5h770q20 0 17 -21l-17 -147q-2 -12 -14 -25l-342 -340q-4 -2 -3 -6t7 -6q197 -20 252 -209q16 -55 16 -133q0 -45 -6 -98q-10 -106 -55 -201q-59 -127 -169 -195.5t-253 -68.5t-238.5 75.5t-120.5 204.5 q-10 51 -10 94z" />
<glyph unicode="4" horiz-adv-x="1132" d="M96 406l13 110q4 12 10 25l497 878q8 14 25 15h160q10 0 14 -7.5t-2 -17.5l-477 -838q-2 -4 0 -7t6 -3h397q2 0 5.5 2t3.5 6l36 305q4 20 23 21h151q20 0 17 -21l-37 -305q0 -8 6 -8h86q19 0 19 -20l-19 -135q0 -8 -6 -14.5t-14 -6.5h-86q-6 0 -11 -8l-43 -357 q-4 -20 -22 -20h-152q-8 0 -13 6t-3 14l43 357q2 2 0 5t-6 3h-604q-20 0 -17 21z" />
<glyph unicode="5" horiz-adv-x="1038" d="M119 360q0 8 6 14.5t14 6.5h158q16 0 18 -19q0 -14 4 -43q10 -76 60.5 -119.5t128.5 -43.5q80 0 143.5 46t91.5 128q18 43 29 119q6 68 6 83q0 27 -2 41q-6 78 -57 120t-133 42q-78 0 -144.5 -35.5t-91.5 -95.5q-8 -18 -24 -18h-158q-10 0 -15.5 6t-2.5 14l100 807 q0 8 6 14.5t16 6.5h742q18 0 18 -21l-16 -129q-4 -20 -23 -20h-563q-4 0 -7 -2t-3 -7l-53 -428q-2 -6 1 -8t7 2q109 86 254 86q139 0 230 -71.5t110 -200.5q4 -29 4 -84q0 -59 -6 -102q-10 -90 -45 -179q-53 -131 -169 -207.5t-264 -76.5q-143 0 -239 73.5t-121 200.5 q-10 57 -10 100z" />
<glyph unicode="6" horiz-adv-x="1038" d="M123 360q0 45 6 91l78 630q20 168 146 268.5t309 100.5q162 0 259 -84t97 -223q0 -16 -4 -49l-4 -41q-4 -20 -23 -21h-151q-20 0 -17 21l2 18q2 10 2 29q0 80 -51 129t-133 49q-96 0 -163.5 -59.5t-80.5 -157.5l-33 -258q0 -4 3.5 -5t7.5 3q98 98 260 98q119 0 195.5 -49 t113.5 -143q31 -74 31 -172q0 -41 -6 -89q-16 -127 -68 -219q-59 -117 -162.5 -179t-240.5 -62q-147 0 -240.5 69.5t-120.5 196.5q-12 49 -12 108zM313 379q0 -47 13 -88q16 -66 64 -99.5t122 -33.5q143 0 215 131q37 63 49 157q4 41 4 60q0 68 -20 108q-43 119 -178 119 q-70 0 -124.5 -31.5t-86.5 -91.5q-39 -70 -54 -174q-4 -41 -4 -57z" />
<glyph unicode="7" horiz-adv-x="956" d="M164 1159l31 254q4 20 22 21h817q20 0 17 -21l-17 -137q0 -8 -2 -14.5t-4 -10.5l-600 -1235q-8 -16 -25 -16h-165q-11 0 -14 7t1 18l602 1228q2 4 1 7.5t-5 3.5h-479q-8 0 -8 -9l-12 -96q-4 -20 -23 -20h-119q-10 0 -15 6t-3 14z" />
<glyph unicode="8" horiz-adv-x="1046" d="M106 342q0 23 5 68q12 113 67 206q59 98 148 142q10 4 2 10q-57 45 -84 102q-35 66 -35 146q0 150 98 272q59 78 152.5 123t204.5 45q113 0 192.5 -44t118.5 -124q41 -78 41 -178q0 -131 -84 -244q-43 -57 -105 -98q-10 -6 -2 -10q78 -45 113 -146q20 -61 20 -137 q0 -23 -4 -67q-16 -131 -84 -230q-59 -92 -159.5 -143t-227.5 -51t-218 52t-130 150q-29 70 -29 156zM301 373q0 -66 27 -119q43 -98 176 -98q125 0 192 92q54 65 68 176q4 41 4 57q0 61 -18 105q-41 106 -183 106q-135 0 -202 -100q-29 -43 -46.5 -100.5t-17.5 -118.5z M399 1028q0 -57 23 -98q43 -92 164 -92q119 0 188 94q37 45 51 137l2 27q0 39 -16 78q-18 51 -62 81.5t-110 30.5q-61 0 -112.5 -30.5t-84.5 -84.5q-35 -53 -41 -104q-2 -14 -2 -39z" />
<glyph unicode="9" horiz-adv-x="1042" d="M121 291q0 16 4 49l6 41q0 8 6 14t17 6h149q18 0 19 -20l-3 -19q-2 -10 -2 -32q0 -78 50.5 -126t132.5 -48q96 0 164.5 59t80.5 158l31 258q2 4 -1 6t-7 -2q-53 -55 -118.5 -77.5t-143.5 -22.5q-117 0 -196 49t-113 143q-31 82 -31 176q0 41 6 84q14 117 66 219 q59 117 164.5 179.5t242.5 62.5q147 0 239.5 -69.5t121.5 -196.5q10 -56 10 -109q0 -43 -6 -90l-76 -631q-20 -168 -146 -268t-309 -100q-164 0 -261 84t-97 223zM360 924q0 -59 17 -105q47 -119 180 -119q139 0 211 123q39 63 53 174q4 20 4 62q0 47 -12 84 q-16 66 -63.5 99.5t-122.5 33.5q-72 0 -127.5 -34t-85.5 -97q-39 -63 -49 -158q-4 -45 -5 -63z" />
<glyph unicode=":" horiz-adv-x="690" d="M193 133q0 66 42 108.5t103 42.5q49 0 80 -31.5t31 -82.5q0 -63 -42 -105.5t-102 -42.5q-51 0 -81.5 31t-30.5 80zM277 815q0 66 42 108.5t103 42.5q49 0 80 -31.5t31 -82.5q0 -63 -42 -105.5t-102 -42.5q-51 0 -81.5 31t-30.5 80z" />
<glyph unicode=";" horiz-adv-x="620" d="M123 -147l108 442q6 18 23 18h135q20 0 14 -22l-147 -443q-6 -18 -25 -18h-92q-8 0 -13 7t-3 16zM231 809q0 63 50.5 111.5t111.5 48.5q53 0 92 -37t39 -88q0 -63 -49 -110.5t-117 -47.5q-55 0 -91 35t-36 88z" />
<glyph unicode="&#x3c;" horiz-adv-x="983" d="M90 485l16 142q2 14 19 22l852 381l8 2q14 0 14 -18l-18 -150q-4 -16 -18 -22l-660 -281q-12 -6 -2 -12l590 -281q14 -6 14 -22l-18 -148q-2 -10 -10.5 -15t-16.5 -1l-760 381q-12 8 -10 22z" />
<glyph unicode="=" horiz-adv-x="983" d="M75 362l15 129q4 20 22 21h805q18 0 19 -21l-17 -129q-4 -20 -22 -20h-805q-21 0 -17 20zM127 776l15 129q4 20 22 21h805q18 0 19 -21l-17 -129q-4 -20 -22 -20h-805q-21 0 -17 20z" />
<glyph unicode="&#x3e;" horiz-adv-x="983" d="M41 98l18 148q4 16 19 22l657 281q12 6 2 12l-587 281q-14 6 -15 22l19 150q2 10 10 15t16 1l760 -381q12 -8 10 -22l-16 -142q-4 -16 -16 -22l-855 -381l-8 -2q-14 0 -14 18z" />
<glyph unicode="?" horiz-adv-x="958" d="M158 1024l6 45q20 172 147 277.5t312 105.5q166 0 262 -87t96 -232q0 -16 -4 -54q-12 -90 -50 -155.5t-84 -106.5t-118 -92q-76 -51 -114 -91t-44 -95l-12 -93q-4 -20 -23 -20h-151q-10 0 -15.5 6t-3.5 14l13 103q12 92 65.5 151.5t147.5 126.5q66 45 104.5 80t65 84 t26.5 115q0 78 -51 123t-137 45q-98 0 -164.5 -57.5t-77.5 -147.5l-6 -53q-2 -8 -8 -14.5t-14 -6.5l-152 9q-8 0 -13 6t-3 14zM287 113q0 63 43 107t102 44q51 0 82 -30.5t31 -79.5q0 -63 -43 -107.5t-103 -44.5q-51 0 -81.5 30.5t-30.5 80.5z" />
<glyph unicode="@" horiz-adv-x="1634" d="M117 360q0 88 18 183q45 227 179.5 397t320.5 261t383 91q170 0 296 -64.5t193.5 -181t67.5 -272.5q0 -100 -27 -201q-49 -195 -153.5 -301t-247.5 -106q-70 0 -120 24.5t-75 71.5q-6 10 -12 0q-43 -43 -99.5 -67.5t-111.5 -24.5q-113 0 -177.5 58.5t-64.5 150.5 q0 55 29 166q27 111 59 174q43 96 127 149.5t177 53.5q104 0 151 -68q4 -4 7 -2t3 6l9 35q6 18 22 18h94q10 0 14.5 -7t2.5 -15l-105 -412q-8 -27 -8 -61q0 -55 28.5 -89t78.5 -34q78 0 139 71.5t94 202.5q25 102 25 189q0 193 -119 301t-322 108q-164 0 -317.5 -74.5 t-264 -221t-145.5 -349.5q-14 -70 -14 -143q0 -199 112.5 -317.5t315.5 -118.5q100 0 192.5 23.5t145.5 58.5q16 12 26 -5l43 -61l5 -10q0 -10 -13 -19q-76 -53 -194.5 -85.5t-239.5 -32.5q-164 0 -282.5 67.5t-182 192.5t-63.5 290zM623 426l2 -18q-4 -53 29.5 -86 t90.5 -33q56 0 100 33.5t68 85.5q18 31 29 71l25 94q12 51 15 74t3 47q0 47 -31.5 78t-83.5 31q-55 0 -102 -33t-74 -82q-25 -51 -47 -147q-25 -84 -24 -115z" />
<glyph unicode="A" horiz-adv-x="1251" d="M28 6q-3 6 1 17l606 1394q10 16 27 17h198q6 0 12.5 -4.5t8.5 -12.5l268 -1394v-5q0 -18 -19 -18h-163q-6 0 -12.5 4t-8.5 12l-43 240q0 6 -6 6h-559q-6 0 -8 -6l-101 -240q-10 -16 -26 -16h-162q-10 0 -13 6zM399 428q-2 -4 1 -7t8 -3h456q4 0 7 3t1 7l-137 760 q0 4 -4 4t-8 -4z" />
<glyph unicode="B" horiz-adv-x="1241" d="M125 20l172 1393q4 20 22 21h480q186 0 288.5 -81t102.5 -237q0 -18 -4 -63q-27 -221 -230 -305q-10 -7 -2 -13q172 -80 172 -280q0 -16 -4 -62q-23 -188 -155.5 -290.5t-329.5 -102.5h-494q-18 0 -18 20zM336 180q0 -4 2 -6t4 -2h317q123 0 200 76t77 203 q0 94 -59.5 147t-163.5 53h-312q-8 0 -8 -8zM416 818q2 -3 6 -3h299q125 0 201.5 69.5t76.5 184.5q0 90 -58 142.5t-165 52.5h-299q-8 -1 -8 -9l-53 -432q-2 -2 0 -5z" />
<glyph unicode="C" horiz-adv-x="1206" d="M137 383q0 20 4 70l66 530q16 139 90 244.5t190.5 164t260.5 58.5q199 0 315.5 -104.5t116.5 -282.5q0 -20 -4 -66v-2q-4 -23 -23 -22l-152 -8q-20 0 -18 18v6q4 33 4 47q0 111 -70.5 177.5t-189.5 66.5q-131 0 -222 -80t-108 -211l-67 -545q-2 -14 -2 -43 q0 -113 69.5 -180t192.5 -67q131 0 221 79.5t107 210.5v5q4 18 22 18l150 -8q20 0 16 -21q-16 -135 -89 -238.5t-189.5 -160.5t-260.5 -57q-196 0 -313 108.5t-117 292.5z" />
<glyph unicode="D" horiz-adv-x="1226" d="M125 20l172 1393q4 20 22 21h482q188 0 296.5 -94.5t108.5 -256.5q0 -18 -4 -59l-76 -614q-23 -186 -159 -298t-342 -112h-482q-18 0 -18 20zM336 178q0 -8 6 -8h311q115 0 193 72.5t94 195.5l68 557q2 16 2 47q0 104 -58.5 163t-165.5 59h-309q-8 0 -8 -9z" />
<glyph unicode="E" horiz-adv-x="1187" d="M125 20l172 1393q4 20 22 21h883q10 0 15.5 -6.5t3.5 -14.5l-17 -129q-4 -20 -22 -20h-705q-8 0 -8 -9l-55 -440q0 -8 8 -8h483q18 0 19 -21l-17 -129q-4 -20 -22 -20h-486q-8 0 -8 -8l-55 -451q0 -8 6 -8h707q20 0 16 -20l-16 -130q0 -8 -6.5 -14t-16.5 -6h-883 q-18 0 -18 20z" />
<glyph unicode="F" horiz-adv-x="1122" d="M125 20l172 1393q4 20 22 21h881q10 0 15.5 -6.5t3.5 -14.5l-17 -129q-4 -20 -22 -20h-703q-8 0 -8 -9l-55 -440q0 -8 8 -8h481q18 0 19 -21l-17 -129q-4 -20 -22 -20h-484q-8 0 -8 -8l-76 -609q0 -8 -6 -14t-14 -6h-152q-18 0 -18 20z" />
<glyph unicode="G" horiz-adv-x="1218" d="M137 385q0 20 4 70l64 524q16 141 91 247.5t191.5 165t260.5 58.5q131 0 228 -49t150.5 -136t53.5 -198q0 -20 -4 -61l-2 -23q-4 -20 -23 -20h-152q-8 0 -13 6t-3 14l2 18q2 14 2 41q0 106 -69.5 171t-190.5 65q-133 0 -223 -80t-107 -213l-65 -536q-2 -16 -2 -46 q0 -113 72.5 -180t195.5 -67q129 0 215 70.5t100 193.5l21 158q0 8 -8 8h-269q-20 0 -16 20l14 127q2 8 8.5 14.5t14.5 6.5h448q8 0 13.5 -6.5t3.5 -14.5l-33 -260q-29 -236 -174 -362.5t-369 -126.5q-196 0 -313 108.5t-117 292.5z" />
<glyph unicode="H" horiz-adv-x="1280" d="M125 20l172 1393q4 20 22 21h152q8 0 13 -6.5t3 -14.5l-73 -598q0 -8 8 -8h565q8 0 8 8l74 598q5 21 23 21h151q20 0 17 -21l-170 -1393q-4 -20 -23 -20h-152q-20 0 -16 20l74 609q0 8 -6 8h-568q-8 0 -8 -8l-76 -609q0 -8 -6 -14t-14 -6h-152q-18 0 -18 20z" />
<glyph unicode="I" horiz-adv-x="518" d="M125 20l172 1393q4 20 22 21h152q8 0 13 -6.5t3 -14.5l-172 -1393q0 -8 -6 -14t-14 -6h-152q-18 0 -18 20z" />
<glyph unicode="J" horiz-adv-x="1150" d="M57 360q0 20 4 66l19 145q4 20 22 21h152q20 0 16 -21l-16 -145q-2 -14 -2 -43q0 -104 65.5 -166.5t180.5 -62.5q123 0 210 74.5t101 197.5l121 987q4 20 22 21h152q20 0 16 -21l-121 -987q-16 -131 -86.5 -231.5t-184.5 -155.5t-251 -55q-194 0 -307 102t-113 274z" />
<glyph unicode="K" horiz-adv-x="1224" d="M125 20l172 1393q4 20 22 21h152q8 0 13 -6.5t3 -14.5l-79 -653q-2 -4 2 -5t8 3l649 663q10 12 25 13h174q10 0 13 -7.5t-5 -17.5l-545 -575q-2 -6 0 -13l408 -796q2 -4 2 -13q0 -12 -17 -12h-172q-16 0 -22 12l-348 670q0 4 -4.5 4t-6.5 -2l-190 -192q-6 -6 -6 -11 l-58 -461q0 -8 -6 -14t-14 -6h-152q-18 0 -18 20z" />
<glyph unicode="L" horiz-adv-x="1130" d="M125 20l172 1393q4 20 22 21h152q8 0 13 -6.5t3 -14.5l-151 -1235q0 -8 6 -8h686q20 0 16 -20l-14 -130q-4 -20 -22 -20h-865q-18 0 -18 20z" />
<glyph unicode="M" horiz-adv-x="1421" d="M125 20l172 1393q4 20 22 21h152q16 0 21 -13l282 -536q2 -2 6 -2t6 2l412 536q11 13 25 13h151q20 0 17 -21l-170 -1393q-4 -20 -23 -20h-151q-20 0 -17 20l129 1049q0 6 -4 8t-6 -4l-338 -446q-12 -12 -27 -13h-75q-12 0 -23 13l-231 442q-2 6 -5.5 4t-5.5 -8 l-129 -1045q0 -8 -6 -14t-14 -6h-152q-18 0 -18 20z" />
<glyph unicode="N" horiz-adv-x="1335" d="M125 20l172 1393q4 20 22 21h148q14 0 20 -15l492 -1046q2 -6 6 -5t4 7l127 1038q0 8 6 14.5t15 6.5h151q18 0 19 -21l-172 -1393q-4 -20 -23 -20h-145q-12 0 -21 14l-493 1047q-2 6 -6.5 5t-4.5 -7l-127 -1039q0 -8 -6 -14t-14 -6h-152q-18 0 -18 20z" />
<glyph unicode="O" horiz-adv-x="1234" d="M139 397q0 49 4 76l60 488q18 145 93 255.5t193.5 172t264.5 61.5q201 0 318.5 -112.5t117.5 -301.5q0 -49 -4 -75l-60 -488q-16 -145 -92 -257t-194.5 -173t-266.5 -61q-198 0 -316 112.5t-118 302.5zM330 412q0 -119 71.5 -189.5t192.5 -70.5q137 0 230.5 86t111.5 227 l59 498q4 37 4 53q0 121 -71.5 192.5t-194.5 71.5q-133 0 -227 -87t-111 -230l-61 -498q-4 -37 -4 -53z" />
<glyph unicode="P" horiz-adv-x="1179" d="M115 20l170 1395q4 20 22 21h537q166 0 263 -95.5t97 -255.5q0 -20 -4 -65q-23 -186 -150.5 -298t-314.5 -112h-350q-8 0 -8 -8l-72 -582q-4 -20 -22 -20h-152q-20 0 -16 20zM397 778q0 -4 2 -6t4 -2h332q119 0 198 80t79 205q0 96 -58.5 153.5t-156.5 57.5h-332 q-8 0 -8 -9z" />
<glyph unicode="Q" horiz-adv-x="1157" d="M115 381q0 47 4 72l63 516q16 143 90 251.5t188.5 169t256.5 60.5q194 0 307 -110.5t113 -297.5q0 -49 -4 -73l-64 -516q-23 -182 -138.5 -306t-289.5 -153q-6 -2 -10 -10l-23 -187q0 -8 -6 -14t-16 -6h-150q-10 0 -15 6t-3 14l22 187q4 6 -6 10q-150 27 -234.5 129 t-84.5 258zM307 410q0 -117 66.5 -186.5t183.5 -69.5q127 0 216 82.5t106 218.5l63 524q4 33 4 49q0 115 -67.5 183.5t-182.5 68.5q-129 0 -217 -83t-104 -218l-66 -524q-2 -16 -2 -45z" />
<glyph unicode="R" horiz-adv-x="1216" d="M125 20l172 1393q4 20 22 21h535q162 0 257 -93.5t95 -248.5q0 -20 -4 -66q-16 -143 -101 -242.5t-218 -134.5q-6 -2 -6 -10l213 -614l2 -9q0 -16 -19 -16h-158q-14 0 -20 14l-203 613q0 6 -6 6h-287q-8 0 -8 -8l-76 -605q0 -8 -6 -14t-14 -6h-152q-18 0 -18 20zM412 797 q0 -8 6 -9h332q115 0 189.5 77t74.5 198q0 92 -55.5 146.5t-149.5 54.5h-332q-8 -1 -8 -9z" />
<glyph unicode="S" horiz-adv-x="1169" d="M96 332q0 14 4 51l9 59q0 8 6 14.5t16 6.5h143q10 0 15.5 -6t3.5 -15l-6 -49q-2 -8 -2 -26q0 -94 79.5 -153.5t221.5 -59.5q145 0 224 67.5t79 173.5q0 78 -67.5 129t-239.5 127q-129 55 -204 97.5t-124 109t-49 164.5q0 131 63.5 228.5t177 148.5t263.5 51 q205 0 324.5 -96.5t119.5 -257.5q0 -16 -4 -54l-4 -41q-4 -20 -23 -20h-149q-18 0 -19 20l4 31q2 10 3 33q0 94 -74 154.5t-207 60.5q-135 0 -210 -61.5t-75 -171.5q0 -55 32 -94.5t92.5 -70t180.5 -79.5q125 -53 203 -97t129 -113t51 -169q0 -16 -4 -49 q-23 -178 -164 -284.5t-364 -106.5q-213 0 -334 93t-121 255z" />
<glyph unicode="T" horiz-adv-x="1140" d="M193 1282l16 131q4 20 22 21h953q20 -1 16 -21l-16 -131q0 -8 -6.5 -14t-16.5 -6h-381q-8 0 -8 -9l-151 -1233q-4 -20 -23 -20h-152q-20 0 -16 20l152 1233q0 8 -9 9h-362q-18 0 -18 20z" />
<glyph unicode="U" horiz-adv-x="1273" d="M162 385q0 20 4 70l117 958q4 20 22 21h152q20 0 16 -21l-119 -962q-2 -14 -2 -43q0 -115 72 -184.5t192 -69.5q133 0 225.5 81.5t108.5 215.5l117 962q4 20 23 21h151q20 0 16 -21l-116 -958q-16 -139 -90 -247t-192 -166t-263 -58q-201 0 -317.5 108.5t-116.5 292.5z " />
<glyph unicode="V" horiz-adv-x="1193" d="M199 1411v4q0 18 18 19h162q16 0 22 -17l189 -1132q0 -4 5 -4t7 4l465 1132q10 16 25 17h157q23 0 13 -23l-600 -1395q-10 -16 -27 -16h-160q-8 0 -14 4t-8 12z" />
<glyph unicode="W" horiz-adv-x="1744" d="M184 1411v4q0 8 6.5 13.5t14.5 5.5h162q16 0 20 -19l135 -1020q0 -4 3 -4t5 4l373 1020q6 18 25 19h155q16 0 21 -19l135 -1022q0 -4 2 -4t4 4l389 1022q2 8 9.5 13.5t15.5 5.5h149q23 0 17 -23l-531 -1393q-8 -18 -24 -18h-154q-18 0 -18 18l-131 1057q-2 6 -4 6t-5 -6 l-383 -1057q-2 -18 -22 -18h-145q-17 0 -21 16z" />
<glyph unicode="X" horiz-adv-x="1198" d="M31 7q-4 7 4 18l493 686q2 4 2 12l-325 686q-2 4 -2 10q0 14 18 15h166q12 0 23 -15l252 -542q2 -2 6 -2.5t6 2.5l387 542q10 14 24 15h164q12 0 15.5 -7.5t-4.5 -17.5l-492 -688q-4 -8 -2 -12l324 -684q2 -4 2 -11q0 -14 -19 -14h-164q-12 0 -22 14l-252 541q-2 4 -6 4 t-6 -4l-387 -541q-10 -14 -25 -14h-166q-10 0 -14 7z" />
<glyph unicode="Y" horiz-adv-x="1161" d="M201 1417q0 16 18 17h164q16 0 23 -15l229 -600q2 -4 6 -4t6 4l377 600q8 14 27 15h163q10 0 14.5 -7.5t-1.5 -17.5l-514 -801q-4 -4 -4 -10l-70 -575q-4 -20 -23 -21h-151q-20 1 -16 21l69 575q0 2 1 5t-1 5l-315 801z" />
<glyph unicode="Z" horiz-adv-x="1095" d="M45 20l16 144q4 18 13 26l825 1063q4 4 2 7.5t-6 3.5h-678q-18 0 -18 20l16 129q4 20 23 21h882q20 0 17 -21l-17 -143q-4 -18 -12 -27l-829 -1063q-4 -4 -2 -7t6 -3h682q20 0 16 -20l-14 -130q-4 -20 -23 -20h-883q-20 0 -16 20z" />
<glyph unicode="[" horiz-adv-x="780" d="M-4 -246l225 1831q0 8 6 14.5t17 6.5h415q18 0 19 -21l-16 -131q-4 -20 -23 -20h-238q-4 0 -7 -2t-3 -7l-186 -1513q0 -8 8 -8h240q18 0 18 -21l-16 -129q-4 -20 -23 -20h-420q-8 0 -13 6t-3 14z" />
<glyph unicode="\" horiz-adv-x="845" d="M266 1411v4q0 18 19 19h149q16 0 23 -17l295 -1394v-5q0 -18 -19 -18h-149q-16 0 -21 16z" />
<glyph unicode="]" horiz-adv-x="780" d="M186 -246l17 129q0 8 6 14.5t16 6.5h240q8 0 8 8l186 1513q0 8 -6 9h-241q-8 0 -13.5 6t-3.5 14l17 131q4 20 22 21h418q10 0 15 -6.5t3 -14.5l-225 -1831q-4 -20 -22 -20h-420q-8 0 -13.5 6t-3.5 14z" />
<glyph unicode="^" horiz-adv-x="909" d="M116 630q-5 7 1 17l383 770q8 16 24 17h133q16 0 19 -17l196 -770v-6q0 -8 -5 -13t-13 -5h-125q-18 0 -20 16l-138 586q0 6 -4 6t-8 -6l-280 -586q-6 -16 -25 -16h-123q-10 0 -15 7z" />
<glyph unicode="_" horiz-adv-x="989" d="M12 20l15 113q4 20 22 21h850q20 0 16 -21l-12 -113q-4 -20 -22 -20h-850q-11 0 -16 6t-3 14z" />
<glyph unicode="`" horiz-adv-x="413" d="M198 1421q0 12 17 13h133q16 0 22 -15l90 -221q2 -2 2 -8q0 -8 -6 -12t-16 -4h-107q-12 0 -22 14l-111 221q-2 4 -2 12z" />
<glyph unicode="a" horiz-adv-x="1095" d="M119 344q0 57 14 176q10 88 23.5 149.5t36.5 114.5q47 121 153.5 198t243.5 77q180 0 239 -146q2 -6 5.5 -5t5.5 7l12 107q4 20 22 20h152q20 0 16 -20l-122 -1002q0 -8 -6.5 -14t-16.5 -6h-149q-18 0 -19 20l14 115q2 6 -2 7t-6 -5q-105 -153 -284 -153h-2 q-131 0 -219.5 79.5t-106.5 212.5q-4 45 -4 68zM319 381q0 -29 7 -57q6 -76 59 -123t137 -47q82 0 140.5 48t87.5 122q14 32 22 70t19 124q12 86 12 146q0 20 -4 57q-10 74 -58.5 121t-128.5 47q-84 0 -148.5 -47t-88.5 -123q-14 -31 -22.5 -68t-20.5 -129 q-12 -106 -13 -141z" />
<glyph unicode="b" horiz-adv-x="1097" d="M104 20l170 1393q4 20 23 21h152q20 0 16 -21l-55 -457q0 -12 8 -4q51 51 114.5 79t131.5 28q147 0 234 -76t112 -211q10 -45 10 -121q0 -68 -8 -127q-18 -156 -70 -262q-57 -133 -161.5 -205.5t-248.5 -72.5q-70 0 -126 27.5t-93 80.5q-4 4 -7 2t-3 -6l-8 -68 q-4 -20 -23 -20h-151q-20 0 -17 20zM350 412q0 -88 25 -148q45 -110 158 -110h2q131 0 202 112q62 92 82 254q6 49 6 92q0 111 -37 179q-23 47 -64.5 72.5t-98.5 25.5q-113 0 -183 -105q-63 -94 -84 -262q-8 -82 -8 -110z" />
<glyph unicode="c" horiz-adv-x="1044" d="M125 389q0 70 8 135q18 147 62 248q53 131 171.5 209t268.5 78t251 -78t120 -197q8 -35 8 -67q-2 -18 -21 -21l-151 -22h-4q-16 0 -17 18l-4 33q-6 70 -61.5 117t-143.5 47t-151.5 -47t-91.5 -125q-25 -59 -43 -195q-8 -68 -9 -127q0 -29 5 -65q10 -82 61 -129t139 -47 q86 0 154.5 48t93.5 122l4 10q0 6 2 8q2 8 8.5 11t14.5 1l145 -24q16 -4 14 -17q0 -6 -2 -8q-2 -10 -14 -45q-51 -125 -171 -200.5t-269 -75.5q-150 0 -247 78.5t-122 213.5q-8 47 -8 113z" />
<glyph unicode="d" horiz-adv-x="1097" d="M127 401q0 66 8 123q18 145 64 248q57 135 162.5 211t252.5 76q70 0 126.5 -27.5t93.5 -79.5q4 -4 7 -2t3 6l57 457q0 8 6 14.5t17 6.5h149q10 0 15.5 -6.5t3.5 -14.5l-172 -1393q0 -8 -6.5 -14t-16.5 -6h-149q-18 0 -19 20l8 68q2 4 -1 6t-7 -2q-49 -53 -112.5 -80.5 t-133.5 -27.5q-143 0 -229 72.5t-113 205.5q-14 59 -14 139zM322 420q0 -92 24 -154q20 -55 65.5 -83.5t110.5 -28.5q113 0 189 110q57 88 75 258q8 57 9 117q0 88 -25 145q-47 104 -156 105q-117 0 -190 -98q-76 -102 -96 -271q-6 -55 -6 -100z" />
<glyph unicode="e" horiz-adv-x="1064" d="M127 397q0 39 8 129q10 78 21.5 131.5t29.5 96.5q53 141 170 223t271 82q197 0 283.5 -100.5t86.5 -292.5q0 -72 -16 -203q-2 -20 -23 -21h-634q-8 0 -9 -8q-4 -49 -4 -65q0 -20 4 -41q10 -82 70.5 -128t163.5 -46q145 0 242 125q12 20 26 6l105 -78q12 -12 2 -27 q-68 -94 -176.5 -146t-237.5 -52q-145 0 -235.5 64.5t-127.5 186.5q-20 70 -20 164zM338 612q-2 -8 6 -8h455q8 0 8 8q4 49 4 66q0 94 -54.5 152.5t-150.5 58.5q-86 0 -146.5 -44t-90.5 -118q-18 -45 -31 -115z" />
<glyph unicode="f" horiz-adv-x="729" d="M131 883l16 139q4 20 23 20h133q8 0 8 9l4 36q16 135 57.5 209t118 106t209.5 32h68q20 0 16 -21l-14 -131q-4 -20 -22 -20h-50q-100 0 -140 -39t-52 -148l-4 -24q0 -8 8 -9h209q8 0 13 -6t3 -14l-16 -139q-4 -20 -23 -21h-209q-8 0 -8 -8l-102 -834q-2 -8 -8.5 -14 t-14.5 -6h-151q-18 0 -19 20l103 834q2 2 0 5t-6 3h-134q-20 0 -16 21z" />
<glyph unicode="g" horiz-adv-x="1079" d="M117 367q0 66 10 157q20 164 63 262q53 123 159 198t237 75q162 0 243 -103q6 -10 11 2l6 64q4 20 22 20h152q20 0 16 -20l-118 -969q-31 -248 -179.5 -354.5t-378.5 -106.5q-33 0 -98 5q-18 2 -16 22l22 141q2 10 9.5 15.5t15.5 3.5q29 -2 82 -2q168 0 251 64.5 t103 217.5l4 37q0 12 -10 4q-94 -100 -256 -100q-129 0 -225.5 69.5t-118.5 204.5q-6 43 -6 93zM311 395q0 -39 6 -61q10 -76 63.5 -124t135.5 -48q86 0 147.5 48t86.5 124q10 31 17 65.5t19 126.5q12 111 13 142q0 16 -4 49q-6 76 -55.5 124t-133.5 48q-82 0 -144.5 -48 t-94.5 -124q-33 -68 -45 -191q-10 -92 -11 -131z" />
<glyph unicode="h" horiz-adv-x="1077" d="M102 20l170 1393q4 20 23 21h151q20 0 17 -21l-57 -465q0 -4 3 -6t5 2q98 113 266 113q147 0 230 -81t83 -220q0 -18 -4 -60l-82 -676q-2 -8 -8 -14t-14 -6h-152q-18 0 -18 20l80 637q2 12 2 37q0 86 -49.5 139.5t-135.5 53.5q-96 0 -162.5 -63.5t-78.5 -164.5l-78 -639 q-4 -20 -23 -20h-151q-20 0 -17 20z" />
<glyph unicode="i" horiz-adv-x="505" d="M119 23l123 999q0 8 6 14t14 6h152q18 0 18 -20l-123 -999q-4 -20 -22 -21h-152q-20 1 -16 21zM250 1317q0 66 42 108.5t103 42.5q51 0 82 -29.5t31 -80.5q0 -63 -43 -107.5t-103 -44.5q-51 0 -81.5 31t-30.5 80z" />
<glyph unicode="j" horiz-adv-x="493" d="M-176 -403l14 127q4 20 25 20q113 0 169 47t68 150l131 1081q0 8 6.5 14t16.5 6h149q10 0 15.5 -6t3.5 -14l-133 -1079q-16 -135 -65.5 -215t-141.5 -117q-87 -35 -227 -35h-15q-20 1 -16 21zM238 1319q0 66 40.5 107.5t102.5 41.5q51 0 82 -29.5t31 -80.5 q0 -63 -43 -107.5t-103 -44.5q-49 0 -79.5 32t-30.5 81z" />
<glyph unicode="k" horiz-adv-x="1017" d="M102 20l170 1393q4 20 23 21h151q20 0 17 -21l-96 -788q0 -4 3 -6.5t7 2.5l418 411q8 10 24 10h176q12 0 14.5 -7t-5.5 -17l-295 -305q-4 -8 -2 -13l221 -675v-7q0 -8 -6.5 -13t-14.5 -5h-157q-18 0 -21 16l-168 557q-4 8 -10 2l-213 -213q-4 -8 -4 -10l-41 -332 q-4 -20 -23 -20h-151q-21 0 -17 20z" />
<glyph unicode="l" horiz-adv-x="466" d="M102 20l170 1393q4 20 23 21h151q20 0 17 -21l-170 -1393q-4 -20 -23 -20h-151q-21 0 -17 20z" />
<glyph unicode="m" horiz-adv-x="1640" d="M102 20l123 1002q4 20 23 20h149q10 0 15.5 -6t3.5 -14l-8 -70q-2 -4 1 -6t7 2q102 109 268 109q100 0 168 -40t96 -118q6 -8 13 0q55 80 139 119t180 39q135 0 211 -76t76 -213q0 -18 -4 -63l-84 -685q-4 -20 -23 -20h-149q-20 0 -17 20l78 644q2 14 2 43q0 84 -46 132 t-128 48q-92 0 -156.5 -59.5t-76.5 -159.5l-80 -648q-4 -20 -23 -20h-149q-20 0 -17 20l78 644q2 14 2 43q0 84 -46 132t-128 48q-92 0 -153.5 -59.5t-73.5 -159.5l-80 -648q-4 -20 -23 -20h-151q-20 0 -17 20z" />
<glyph unicode="n" horiz-adv-x="1077" d="M102 20l123 1002q4 20 23 20h149q10 0 15.5 -6t3.5 -14l-10 -74q0 -4 3 -6t5 2q98 113 266 113q147 0 230 -81t83 -220q0 -18 -4 -60l-82 -676q-2 -8 -8 -14t-14 -6h-152q-18 0 -18 20l80 637q2 12 2 37q0 86 -49.5 139.5t-135.5 53.5q-96 0 -162.5 -63.5t-78.5 -164.5 l-78 -639q-4 -20 -23 -20h-151q-20 0 -17 20z" />
<glyph unicode="o" horiz-adv-x="1101" d="M125 412q0 57 6 112q20 150 66 246q59 135 178 212t270 77q143 0 239.5 -77t125.5 -210q12 -57 12 -131q0 -55 -6 -115q-16 -143 -66 -252q-61 -137 -178 -213.5t-262 -76.5q-148 0 -247 76.5t-126 213.5q-12 59 -12 138zM317 416q0 -49 7 -86q12 -82 67 -129t139 -47 q82 0 147.5 46t100.5 130q33 88 45 192q8 90 8 127q0 27 -4 64q-16 84 -70.5 130t-138.5 46q-82 0 -147 -46t-102 -130q-29 -70 -45 -191q-6 -55 -7 -106z" />
<glyph unicode="p" horiz-adv-x="1107" d="M66 -371l172 1393q0 8 6 14t16 6h150q18 0 18 -20l-8 -68q-2 -4 1 -6t7 2q49 53 112.5 81t133.5 28q143 0 229 -73t113 -206q14 -59 14 -141q0 -63 -8 -121q-18 -145 -64 -248q-59 -137 -163.5 -211.5t-251.5 -74.5q-70 0 -126.5 27.5t-92.5 78.5q-4 4 -7.5 2t-3.5 -6 l-57 -457q-4 -20 -23 -20h-149q-10 0 -15.5 6t-2.5 14zM360 410q0 -88 27 -152q45 -104 156 -104q117 0 190 98q76 98 96 270q6 55 7 101q0 92 -25 153q-20 55 -65.5 84t-110.5 29q-113 0 -189 -111q-59 -90 -77 -258q-8 -82 -9 -110z" />
<glyph unicode="q" horiz-adv-x="1107" d="M127 391q0 68 8 127q18 152 70 262q59 133 162.5 206t246.5 73q70 0 126.5 -27.5t93.5 -81.5q4 -4 7 -2t3 6l8 68q4 20 22 20h152q20 0 16 -20l-170 -1393q-4 -20 -22 -20h-152q-20 0 -16 20l55 457q2 4 -1 6t-7 -2q-49 -51 -112.5 -78.5t-133.5 -27.5 q-150 0 -235.5 74.5t-110.5 211.5q-10 47 -10 121zM322 428q0 -109 36 -176q47 -98 166 -98q111 0 181 104q61 88 81 262q8 57 9 117q0 84 -23 141q-45 111 -160 111q-131 0 -202 -113q-61 -98 -82 -254q-6 -49 -6 -94z" />
<glyph unicode="r" horiz-adv-x="737" d="M102 20l123 1002q4 20 23 20h149q10 0 15.5 -6t3.5 -14l-15 -109q0 -6 3.5 -7t5.5 3q106 143 262 144q63 0 112 -27q14 -6 7 -25l-52 -153q-6 -18 -24 -12q-33 14 -78 14l-29 -2q-92 -4 -160.5 -66.5t-80.5 -163.5l-74 -598q-4 -20 -23 -20h-151q-20 0 -17 20z" />
<glyph unicode="s" horiz-adv-x="966" d="M86 242q0 18 2 26l4 23q0 8 6 14t17 6h141q10 0 15 -6t3 -14l-2 -10q-1 -6 -1 -11q1 -50 51 -90q56 -44 147 -43q96 0 157.5 44t61.5 110q0 53 -48 80.5t-153 58.5q-104 31 -171.5 61.5t-114.5 86t-47 139.5q0 154 117.5 245t301.5 91q162 0 258.5 -73t96.5 -189 q0 -23 -2 -33l-2 -6q0 -8 -6.5 -14.5t-14.5 -6.5h-139q-10 0 -15.5 6t-3.5 15l3 6q1 6 1 12q1 51 -47 87q-52 40 -149 40q-94 0 -153.5 -38t-59.5 -103q0 -53 49 -82t156 -62q106 -31 173.5 -59.5t116 -83.5t48.5 -141q0 -102 -54.5 -179t-152.5 -119t-223 -42 q-168 0 -267.5 71.5t-99.5 182.5z" />
<glyph unicode="t" horiz-adv-x="733" d="M135 901l15 121q4 20 22 20h121q8 0 8 9l31 241q4 20 22 21h144q8 0 13 -6.5t3 -14.5l-29 -241q-2 -2 0 -5.5t7 -3.5h215q20 0 16 -20l-14 -121q-5 -20 -23 -20h-215q-8 0 -8 -9l-68 -542q-2 -14 -2 -39q0 -66 34 -94.5t103 -28.5h58q10 0 15 -6t3 -15l-16 -127 q0 -20 -21 -20q-66 -4 -92 -4q-137 0 -206.5 44t-69.5 161q0 18 4 59l76 612q0 8 -9 9h-120q-20 0 -17 20z" />
<glyph unicode="u" horiz-adv-x="1069" d="M123 274q0 33 2 50l86 698q4 20 22 20h150q8 0 13 -6t3 -14l-77 -637q-2 -14 -3 -41q0 -88 47.5 -138t135.5 -50q100 0 166.5 62.5t79.5 166.5l79 637q0 8 6.5 14t16.5 6h147q10 0 15.5 -6t3.5 -14l-123 -1002q-4 -20 -23 -20h-149q-20 0 -16 20l8 76q2 4 -1 5t-7 -3 q-93 -112 -258 -112h-3q-137 0 -229 75.5t-92 212.5z" />
<glyph unicode="v" horiz-adv-x="976" d="M143 1020v4q0 18 19 18h166q8 0 14 -4t8 -12l127 -741q2 -4 6 -4t6 4l308 741q10 16 26 16l166 -2q25 0 15 -22l-445 -1002q-10 -16 -27 -16h-167q-7 0 -13 4t-8 12z" />
<glyph unicode="w" horiz-adv-x="1476" d="M141 1020v4q0 18 21 18h155q8 0 13.5 -5t5.5 -13l98 -743q0 -4 4 -4.5t6 4.5l283 743q8 18 25 18h137q16 0 20 -18l105 -741q2 -4 5 -4t5 4l287 741q8 18 24 18l154 -2q25 0 14 -22l-409 -1002q-10 -16 -25 -16h-156q-14 0 -18 16l-111 693q-2 4 -5 4t-5 -4l-268 -691 q-8 -18 -25 -18h-157q-15 0 -21 16z" />
<glyph unicode="x" horiz-adv-x="991" d="M13 7q-3 7 3 18l392 489q4 6 0 12l-269 492l-2 8q0 16 19 16h161q14 0 23 -12l188 -350q2 -2 6.5 -2t6.5 2l272 350q10 12 27 12h172q12 0 15 -7t-5 -17l-389 -492q-2 -4 -2 -12l270 -489q2 -2 2 -9q0 -6 -5 -11t-13 -5h-164q-14 0 -23 12l-186 350q-2 4 -6 4.5t-6 -4.5 l-277 -350q-8 -12 -24 -12h-170q-13 0 -16 7z" />
<glyph unicode="y" horiz-adv-x="946" d="M8 -387l15 121q4 20 22 20h4q80 2 128 20.5t84 69t77 150.5q2 2 1 7l-1 5l-207 1014v4q0 18 19 18h161q16 0 21 -16l131 -772q0 -4 5 -4t7 4l316 772q10 16 26 16h158q23 0 12 -22l-495 -1092q-63 -139 -116.5 -208.5t-131.5 -98.5t-211 -29h-13q-6 0 -10 6.5t-2 14.5z " />
<glyph unicode="z" horiz-adv-x="894" d="M23 20l18 144q0 14 10 24l608 664q4 4 2 7t-6 3h-499q-18 0 -19 21l19 139q4 20 22 20h717q20 0 16 -20l-16 -145q-2 -14 -12 -25l-615 -664q-4 -2 -3 -6t5 -4h521q18 0 18 -20l-18 -138q0 -8 -6.5 -14t-16.5 -6h-729q-8 0 -13.5 6t-2.5 14z" />
<glyph unicode="{" horiz-adv-x="653" d="M102 616l15 117q0 18 20 23q59 8 92 52t43 130l52 426q16 123 78.5 182.5t177.5 59.5h143q10 0 15 -6.5t3 -14.5l-16 -131q-4 -20 -23 -20h-67q-111 0 -129 -144l-45 -372q-12 -96 -44 -152.5t-91 -85.5q-10 -4 0 -10q41 -23 60.5 -64t19.5 -106q0 -18 -5 -68l-47 -383 q-2 -14 -2 -39q0 -106 94 -106h68q18 0 18 -21l-16 -129q-4 -20 -22 -20h-146q-198 0 -198 184q0 14 4 55l53 437q4 37 4 53q0 119 -92 131q-20 2 -17 22z" />
<glyph unicode="|" horiz-adv-x="356" d="M27 -143l204 1679q2 8 8.5 14t14.5 6h152q18 0 18 -20l-207 -1679q-4 -20 -22 -21h-152q-20 1 -16 21z" />
<glyph unicode="}" horiz-adv-x="653" d="M-4 -246l16 129q0 8 6.5 14.5t16.5 6.5h67q55 0 89 36.5t42 108.5l46 383q12 96 44.5 153.5t90.5 84.5q10 8 0 10q-41 23 -59.5 61.5t-18.5 102.5q0 47 4 74l45 372q2 12 2 35q0 109 -96 109h-70q-20 0 -16 20l16 131q0 8 6 14.5t17 6.5h145q100 0 149.5 -46.5 t49.5 -140.5q0 -14 -4 -55l-52 -426q-4 -41 -4 -55q0 -59 21.5 -90t68.5 -37q18 -2 19 -23l-14 -117q-4 -20 -23 -22q-57 -8 -90 -52t-43 -132l-53 -437q-14 -123 -77 -181t-177 -58h-148q-8 0 -13 6t-3 14z" />
<glyph unicode="~" horiz-adv-x="1017" d="M106 569q41 78 118 126t161 48q51 0 88 -14t76 -39q10 -6 43 -26.5t63.5 -30.5t63.5 -10q41 0 71.5 20.5t65.5 58.5q14 16 27 7l88 -66q14 -14 6 -27q-45 -74 -117 -119.5t-151 -45.5q-56 0 -96 16t-89 49q-45 27 -78.5 41t-74.5 14q-86 0 -152 -75l-4 -9q-12 -12 -25 -2 l-77 58q-14 12 -7 26z" />
<glyph unicode="&#xa1;" horiz-adv-x="651" d="M199 43l129 915q2 21 22 21h117q20 0 18 -21l-96 -915q-4 -20 -22 -20h-152q-20 0 -16 20zM313 1298q0 63 43 107.5t103 44.5q49 0 79.5 -32t30.5 -81q0 -66 -41 -107.5t-102 -41.5q-51 0 -82 29.5t-31 80.5z" />
<glyph unicode="&#xa2;" horiz-adv-x="1044" d="M147 569q0 72 9 140q18 147 61 247q43 104 129 176t199 99q8 2 8 10l18 154q0 8 6.5 14t16.5 6h129q8 0 13 -6t3 -14l-20 -148q0 -8 6 -8q123 -18 205 -92t98 -178q8 -35 8 -68q-2 -18 -20 -20l-152 -23h-4q-12 0 -16 19l-2 32q-8 70 -63.5 117t-143.5 47 q-86 0 -150.5 -47t-93.5 -125q-25 -59 -43 -194q-8 -68 -8 -127q0 -29 4 -66q10 -82 61.5 -129t139.5 -47q86 0 154.5 48t93.5 122l4 10q0 6 2 8q6 16 22 13l146 -25q16 -4 14 -16q0 -6 -2 -9q-2 -10 -14 -45q-43 -109 -141.5 -181.5t-225.5 -90.5q-10 0 -10 -8l-15 -152 q-4 -20 -22 -20h-131q-20 0 -17 20l23 158q0 8 -6 10q-106 25 -176 98.5t-88 182.5q-8 43 -9 108z" />
<glyph unicode="&#xa3;" horiz-adv-x="1208" d="M186 20l17 134q4 16 18 24q51 31 84 90.5t43 139.5l25 200q0 8 -6 8h-148q-18 0 -18 21l14 119q2 8 8 14t15 6h147q6 0 10 8l29 248q25 197 151.5 307.5t319.5 110.5q143 0 228 -76t114 -215v-4q0 -16 -16 -20l-148 -27h-6q-12 0 -14 14q-18 82 -62.5 120t-116.5 38 q-109 0 -176 -60.5t-82 -183.5l-30 -252q-2 -2 0 -5t6 -3h375q10 0 15 -6t3 -14l-14 -119q-4 -20 -23 -21h-377q-2 0 -5 -2t-3 -6l-24 -196q-16 -141 -111 -232q-6 -4 -5 -7t7 -3h676q20 0 16 -20l-14 -130q-2 -8 -8 -14t-15 -6h-880q-18 0 -19 20z" />
<glyph unicode="&#xa4;" horiz-adv-x="1073" d="M55 219q-14 14 0 29l138 123q4 4 4 12q-45 86 -45 184q0 156 96 279q4 6 -2 12l-113 133q-4 8 -4 10q0 10 10 19l105 84q14 14 26 -2l109 -125q4 -4 10 -2q111 66 229 65q123 0 218 -71q6 -4 12 2l145 131q16 14 29 2l82 -84q14 -14 0 -29l-158 -141q-4 -4 -4 -12 q37 -74 37 -164q0 -150 -94 -281q-4 -8 0 -12l114 -133q4 -4 5 -10q0 -10 -9 -19l-106 -86q-6 -6 -15 -6q-6 0 -14 8l-106 127q-6 6 -13 2q-106 -66 -225 -65q-121 0 -205 59q-6 4 -12 -2l-133 -121q-16 -14 -29 -2zM317 588q0 -92 63.5 -156.5t156.5 -64.5q72 0 135 38.5 t102 103t39 140.5q0 94 -61.5 158.5t-153.5 64.5q-72 0 -136.5 -38.5t-104.5 -104t-40 -141.5z" />
<glyph unicode="&#xa5;" horiz-adv-x="1366" d="M295 322l10 73q4 20 23 21h266q8 0 8 8l19 145q0 8 -9 9h-266q-8 0 -13 6t-3 14l8 74q2 8 8 14t14 6h220q6 0 6 10l-279 707l-2 6q0 18 21 19h161q20 0 23 -15l229 -600q2 -4 6.5 -4t6.5 4l381 600q6 14 24 15h164q10 0 14 -7.5t-4 -17.5l-452 -707q-4 -10 2 -10h215 q18 0 18 -20l-10 -74q0 -8 -6 -14t-17 -6h-262q-8 0 -8 -9l-18 -145q0 -8 8 -8h262q8 0 13 -6.5t3 -14.5l-8 -73q-4 -20 -22 -21h-263q-6 0 -10 -8l-33 -270q-4 -20 -22 -21h-150q-10 0 -15 6t-3 15l33 270q0 8 -6 8h-267q-18 0 -18 21z" />
<glyph unicode="&#xa6;" horiz-adv-x="356" d="M27 -143l86 698q0 8 6 14t16 6h150q18 0 18 -20l-86 -698q-4 -20 -22 -21h-152q-20 1 -16 21zM147 838l84 698q2 8 8.5 14t14.5 6h152q18 0 18 -20l-86 -698q-4 -20 -23 -21h-151q-21 1 -17 21z" />
<glyph unicode="&#xa7;" horiz-adv-x="929" d="M59 -137q0 33 2 51l5 57q4 20 22 21h152q20 0 16 -21l-2 -28q-2 -14 -2 -39q0 -74 39 -117t104 -43q74 0 127 52t64 130q2 8 2 25q0 53 -30 88t-72 55.5t-126 52.5q-88 35 -141 71t-82 97q-25 55 -24 131q0 74 21.5 138.5t58.5 111.5q66 82 161 113q12 4 2 10 q-70 33 -112.5 98.5t-42.5 153.5q0 98 52 185t144 139.5t205 52.5q143 0 229.5 -80t86.5 -213q0 -29 -3 -43l-6 -41q0 -8 -6 -14t-14 -6h-152q-18 0 -18 20l4 23q2 10 2 28q0 70 -40 114t-105 44q-78 0 -134.5 -62.5t-56.5 -144.5q0 -74 53.5 -118t155.5 -78 q74 -27 125 -55.5t88 -78.5q49 -66 49 -170q0 -66 -21.5 -130t-58.5 -117q-66 -96 -157 -117q-10 -2 -2 -8q156 -84 155 -248q0 -109 -55 -195t-149.5 -134t-206.5 -48q-146 0 -226 77t-80 210zM305 467q0 -45 14 -74q45 -78 142 -78q103 0 162 78q20 31 32.5 72t12.5 84 q0 53 -23 88q-43 68 -135 68q-49 0 -92 -25t-70 -66q-43 -55 -43 -147z" />
<glyph unicode="&#xa8;" horiz-adv-x="714" d="M177 1325q0 66 42 108.5t103 42.5q49 0 80 -31.5t31 -82.5q0 -63 -42 -105.5t-102 -42.5q-51 0 -81.5 31t-30.5 80zM537 1325q0 66 42 108.5t103 42.5q49 0 80 -31.5t31 -82.5q0 -63 -42 -105.5t-102 -42.5q-51 0 -81.5 31t-30.5 80z" />
<glyph unicode="&#xa9;" horiz-adv-x="1689" d="M168 616q0 51 6 103q25 207 138.5 374t288.5 262t380 95q188 0 332.5 -81t224.5 -224.5t80 -323.5q0 -49 -6 -102q-25 -209 -138.5 -377t-289.5 -263t-383 -95q-187 0 -331 80.5t-223 225t-79 326.5zM305 631q0 -150 63.5 -265.5t180.5 -181t268 -65.5q168 0 310.5 77.5 t234.5 215t113 307.5q6 43 6 86q0 147 -64.5 263t-181.5 181.5t-270 65.5q-166 0 -308.5 -78t-233.5 -214t-112 -304q-6 -45 -6 -88zM647 539q0 20 2 32l35 295q12 98 83 157.5t173 59.5q94 0 149.5 -49t55.5 -133q0 -18 -2 -29q-4 -18 -23 -18h-69q-18 0 -19 20l2 19 q0 43 -29.5 67.5t-76.5 24.5q-53 0 -89 -29.5t-42 -81.5l-39 -313q-6 -49 22.5 -79.5t81.5 -30.5t90 30.5t43 79.5q0 8 6.5 14.5t16.5 6.5h69q20 0 17 -19q-10 -94 -81 -152.5t-173 -58.5q-94 0 -148.5 50.5t-54.5 136.5z" />
<glyph unicode="&#xaa;" horiz-adv-x="647" d="M61 518l11 90q2 8 8 14.5t14 6.5h512q20 0 17 -21l-11 -90q-4 -20 -22 -20h-510q-10 0 -15.5 6t-3.5 14zM113 903q0 117 83 185.5t218 68.5h141q6 0 10 8l4 41l2 23q0 55 -34.5 89t-98.5 34q-53 0 -94 -23.5t-55 -62.5q-10 -18 -27 -17l-67 6q-20 4 -17 23 q23 76 97.5 124t175.5 48q109 0 171 -54.5t62 -144.5q0 -20 -2 -30l-55 -449q0 -8 -6.5 -14t-16.5 -6h-72q-8 0 -13 6t-3 14l4 37q2 4 -1 5t-7 -3q-76 -72 -199 -72q-90 0 -145 42t-55 122zM225 924q0 -90 119 -90q76 0 132 39.5t65 103.5l10 80q0 8 -6 8h-127 q-88 0 -140.5 -35t-52.5 -106z" />
<glyph unicode="&#xab;" horiz-adv-x="1050" d="M166 573q0 8 6 17l270 330q10 12 27 12h147q12 0 15.5 -7t-4.5 -18l-271 -325q-6 -6 -2 -13l191 -325q4 -9 4 -11q0 -6 -5 -10t-14 -4h-149q-18 0 -23 12l-190 330q-2 4 -2 12zM489 573q0 8 7 17l270 330q10 12 27 12h147q12 0 15 -7t-5 -18l-268 -325q-6 -6 -2 -13 l188 -325q4 -9 4 -11q0 -6 -5 -10t-13 -4h-149q-18 0 -23 12l-190 330q-2 4 -3 12z" />
<glyph unicode="&#xac;" horiz-adv-x="983" d="M100 567l15 129q4 21 22 21h805q18 0 19 -21l-48 -368q0 -8 -6 -14.5t-14 -6.5h-129q-8 0 -13.5 6t-2.5 15l26 211q0 8 -8 8h-649q-20 0 -17 20z" />
<glyph unicode="&#xad;" horiz-adv-x="794" d="M98 561l17 129q4 20 22 21h615q8 0 13 -6.5t3 -14.5l-16 -129q0 -8 -6.5 -14t-16.5 -6h-612q-11 0 -16 6t-3 14z" />
<glyph unicode="&#xae;" horiz-adv-x="890" d="M135 1006q0 121 61.5 225t165 165.5t222.5 61.5q102 0 182 -45t125 -123t45 -176q0 -127 -61.5 -233.5t-165 -168t-224.5 -61.5q-100 0 -180 46t-125 127t-45 182zM229 1016q0 -121 75 -198t192 -77q86 0 160.5 42t124.5 115t61 163q2 12 2 39q0 117 -76 192.5t-195 75.5 q-92 0 -170.5 -47t-126 -128t-47.5 -177zM408 891l41 330q0 8 6 14t16 6h111q45 0 69.5 -26.5t24.5 -71.5q-1 -78 -64 -109q-8 -8 -6 -12l35 -127l2 -6q0 -18 -20 -19h-37q-20 0 -23 17l-28 129q-2 6 -9 6h-22q-4 0 -7 -2t-3 -6l-15 -123q-4 -20 -22 -21h-33q-8 0 -13 6.5 t-3 14.5zM502 1085q0 -8 8 -8h41q20 0 34.5 13.5t18.5 35.5v7q0 45 -41 45h-41q-8 -1 -8 -9z" />
<glyph unicode="&#xaf;" horiz-adv-x="550" d="M111 1225l12 96q4 20 22 20h512q20 0 17 -20l-10 -96q-4 -20 -23 -21h-514q-8 0 -13 6.5t-3 14.5z" />
<glyph unicode="&#xb0;" horiz-adv-x="753" d="M170 1278q0 100 51 187t136 138.5t182 51.5q127 0 207.5 -83t80.5 -208q0 -102 -51 -189.5t-136 -138.5t-183 -51q-125 0 -206 83t-81 210zM299 1294q0 -76 49 -126t125 -50q90 0 157.5 67.5t67.5 162.5q0 78 -49 128t-127 50q-57 0 -108.5 -32t-83 -85t-31.5 -115z" />
<glyph unicode="&#xb1;" horiz-adv-x="983" d="M32 20l15 129q4 20 22 21h805q18 0 19 -21l-17 -129q-4 -20 -22 -20h-805q-21 0 -17 20zM114 688l15 129q4 20 22 21h314q2 0 5 2t3 6l41 328q0 8 6 14t14 6h127q8 0 13.5 -6t3.5 -14l-41 -328q0 -8 8 -8h311q19 -1 19 -21l-17 -129q-4 -20 -22 -20h-312q-4 0 -7 -2 t-3 -6l-39 -316q0 -8 -6 -14t-16 -6h-125q-20 0 -17 20l39 316q0 8 -8 8h-311q-20 0 -17 20z" />
<glyph unicode="&#xb2;" horiz-adv-x="659" d="M140 907l10 80q0 12 12 25q111 109 301 307q135 141 135 221q0 45 -30.5 73t-83.5 28q-57 0 -96 -33t-46 -88l-4 -27q-4 -20 -22 -20h-92q-8 0 -13.5 6t-3.5 14l6 47q16 98 95.5 157.5t189.5 59.5q109 0 170.5 -56t61.5 -144q0 -61 -33 -127t-103 -142 q-117 -133 -264 -276q-2 -4 0 -7t6 -3h330q20 0 16 -21l-8 -74q-4 -20 -22 -20h-496q-20 0 -16 20z" />
<glyph unicode="&#xb3;" horiz-adv-x="641" d="M162 1135q0 8 6.5 14t14.5 6h92q18 0 18 -20v-43q0 -8 4 -25q8 -35 36 -56.5t69 -21.5q74 0 113 64q31 43 36 106q2 14 2 41q0 45 -12 76q-25 61 -98 62q-20 0 -45 -13q-4 -2 -10 -2q-10 0 -17 8l-37 56q-2 4 -2 10q0 10 8 18l218 203q4 2 3 6t-6 4h-301q-10 0 -15 6.5 t-3 14.5l10 74q0 8 6.5 14t16.5 6h456q8 0 13.5 -6t3.5 -14l-10 -80q0 -8 -13 -25l-192 -188q-6 -6 4 -11q102 -14 139 -114q14 -37 14 -92q0 -16 -4 -58q-8 -78 -45 -141q-37 -66 -102.5 -103.5t-144.5 -37.5q-88 0 -146.5 47t-75.5 125q-8 37 -4 90z" />
<glyph unicode="&#xb4;" horiz-adv-x="413" d="M168 1181q-4 7 4 17l143 221q8 14 27 15h133q10 0 13.5 -7.5t-5.5 -17.5l-168 -221q-14 -14 -26 -14h-105q-12 0 -16 7z" />
<glyph unicode="&#xb5;" horiz-adv-x="1087" d="M51 -389l174 1411q4 20 23 20h149q10 0 15.5 -6t3.5 -14l-84 -676q-2 -88 45 -139t137 -51q100 0 167 62.5t79 166.5l78 637q2 8 8 14t14 6h150q18 0 18 -20l-123 -1002q-4 -20 -22 -20h-150q-18 0 -18 20l10 72q0 4 -3 5t-7 -3q-92 -109 -258 -108q-84 0 -156 30 q-6 4 -10 -6l-49 -399q0 -8 -6.5 -14.5t-16.5 -6.5h-149q-10 0 -15.5 6.5t-3.5 14.5z" />
<glyph unicode="&#xb6;" horiz-adv-x="1179" d="M139 907q0 20 4 66q16 131 87 235.5t181.5 165t243.5 60.5h486q10 0 15 -6.5t3 -14.5l-221 -1802q-4 -20 -23 -21h-104q-8 0 -13 6.5t-3 14.5l204 1671q0 8 -6 8h-235q-8 0 -8 -8l-205 -1671q-4 -20 -23 -21h-106q-8 0 -13.5 6.5t-3.5 14.5l109 893q4 8 -6 8 q-164 12 -263.5 120.5t-99.5 274.5z" />
<glyph unicode="&#xb7;" horiz-adv-x="434" d="M121 560q0 66 42 108.5t103 42.5q49 0 80 -31.5t31 -82.5q0 -63 -42 -105.5t-102 -42.5q-51 0 -81.5 31t-30.5 80z" />
<glyph unicode="&#xb8;" horiz-adv-x="299" d="M-78 -346l19 67q2 8 9 13.5t17 1.5q20 -6 41 -6q43 0 70.5 24.5t27.5 75.5q0 68 -81 145q-6 6 -7 13q0 12 17 12h82q16 0 24 -8q94 -88 95 -185q0 -35 -13 -67q-25 -68 -78 -96.5t-116 -28.5q-49 0 -97 14q-16 7 -10 25z" />
<glyph unicode="&#xb9;" horiz-adv-x="372" d="M205 1630l8 58q4 18 19 24l94 31q11 4 25 4h96q18 0 18 -20l-102 -820q0 -8 -6 -14t-17 -6h-88q-18 0 -18 20l88 711q0 6 -8 6l-88 -12h-4q-16 0 -17 18z" />
<glyph unicode="&#xba;" horiz-adv-x="710" d="M80 518l10 94q2 8 8 14.5t15 6.5h563q20 0 16 -21l-10 -94q-4 -20 -23 -20h-563q-20 0 -16 20zM164 1026q0 39 6 76q10 90 41 160q41 90 114.5 139t168.5 49q88 0 148 -49t81 -137q8 -33 8 -80q0 -39 -6 -80q-10 -90 -41 -162q-41 -90 -114.5 -140t-163.5 -50 q-91 0 -150 50t-82 140q-10 41 -10 84zM291 1038q0 -31 4 -63q6 -51 40 -82t85 -31q47 0 89 31t62 82t31 127q6 43 6 80q0 72 -34.5 114.5t-96.5 42.5q-49 0 -89 -29.5t-62 -82.5q-25 -53 -31 -125q-4 -45 -4 -64z" />
<glyph unicode="&#xbb;" horiz-adv-x="1050" d="M165 226q-3 7 5 18l270 325q4 6 0 13l-188 325q-4 8 -4 11q0 14 20 14h148q18 0 22 -12l191 -330q2 -4 2 -12q0 -6 -6 -17l-271 -330q-10 -12 -24 -12h-150q-12 0 -15 7zM489 226q-3 7 5 18l270 325q4 6 0 13l-188 325q-4 8 -4 11q0 14 20 14h148q18 0 22 -12l191 -330 q2 -4 2 -12q0 -6 -6 -17l-271 -330q-10 -12 -24 -12h-150q-12 0 -15 7z" />
<glyph unicode="&#xbc;" horiz-adv-x="1615" d="M166 1316l8 58q4 18 19 24l94 31q11 4 25 4h96q18 0 18 -20l-102 -820q0 -8 -6 -14t-17 -6h-88q-18 0 -18 20l88 711q0 6 -8 6l-88 -12h-4q-16 0 -17 18zM167 7q-3 7 6 18l999 1394q10 14 25 15h100q12 0 15 -7.5t-5 -17.5l-997 -1395q-10 -14 -27 -14h-100q-13 0 -16 7z M946 246l8 67q0 10 8 25l287 506q10 16 25 16h92q10 0 14 -7t0 -17l-270 -480q-2 -4 -1 -7t5 -3h217q8 0 8 8l21 166q4 20 22 21h92q20 0 17 -21l-21 -166q0 -8 8 -8h39q19 0 19 -20l-11 -80q-4 -20 -22 -21h-39q-4 0 -7 -2t-3 -6l-25 -197q0 -8 -6 -14t-16 -6h-90 q-18 0 -19 20l25 197q0 8 -6 8h-355q-20 0 -16 21z" />
<glyph unicode="&#xbd;" horiz-adv-x="1585" d="M166 1316l8 58q4 18 19 24l94 31q11 4 25 4h96q18 0 18 -20l-102 -820q0 -8 -6 -14t-17 -6h-88q-18 0 -18 20l88 711q0 6 -8 6l-88 -12h-4q-16 0 -17 18zM167 7q-3 7 6 18l999 1394q10 14 25 15h100q12 0 15 -7.5t-5 -17.5l-997 -1395q-10 -14 -27 -14h-100q-13 0 -16 7z M938 20l10 80q0 12 12 25q111 109 301 307q135 141 135 221q0 45 -30.5 73t-83.5 28q-57 0 -96 -33t-46 -88l-4 -27q-4 -20 -22 -20h-92q-8 0 -13.5 6t-3.5 14l6 47q16 98 95.5 157.5t189.5 59.5q109 0 170.5 -56t61.5 -144q0 -61 -33 -127t-103 -142q-117 -133 -264 -276 q-2 -4 0 -7t6 -3h330q20 0 16 -21l-8 -74q-4 -20 -22 -20h-496q-20 0 -16 20z" />
<glyph unicode="&#xbe;" horiz-adv-x="1800" d="M125 836q0 8 6.5 14t14.5 6h92q18 0 18 -20v-43q0 -8 4 -25q8 -35 36 -56.5t69 -21.5q74 0 113 64q31 43 36 106q2 14 2 41q0 45 -12 76q-25 61 -98 62q-20 0 -45 -13q-4 -2 -10 -2q-10 0 -17 8l-37 56q-2 4 -2 10q0 10 8 18l218 203q4 2 3 6t-6 4h-301q-10 0 -15 6.5 t-3 14.5l10 74q0 8 6.5 14t16.5 6h456q8 0 13.5 -6t3.5 -14l-10 -80q0 -8 -13 -25l-192 -188q-6 -6 4 -11q102 -14 139 -114q14 -37 14 -92q0 -16 -4 -58q-8 -78 -45 -141q-37 -66 -102.5 -103.5t-144.5 -37.5q-88 0 -146.5 47t-75.5 125q-8 37 -4 90zM359 7q-3 7 6 18 l999 1394q10 14 25 15h100q12 0 15 -7.5t-5 -17.5l-997 -1395q-10 -14 -27 -14h-100q-13 0 -16 7zM1137 246l8 67q0 10 8 25l287 506q10 16 25 16h92q10 0 14 -7t0 -17l-270 -480q-2 -4 -1 -7t5 -3h217q8 0 8 8l21 166q4 20 22 21h92q20 0 17 -21l-21 -166q0 -8 8 -8h39 q19 0 19 -20l-11 -80q-4 -20 -22 -21h-39q-4 0 -7 -2t-3 -6l-25 -197q0 -8 -6 -14t-16 -6h-90q-18 0 -19 20l25 197q0 8 -6 8h-355q-20 0 -16 21z" />
<glyph unicode="&#xbf;" horiz-adv-x="958" d="M25 -109q0 16 4 54q12 90 50 155.5t84 106.5t118 92q76 51 113.5 91t43.5 95l13 93q4 20 22 20h152q8 0 13 -6t3 -14l-12 -103q-10 -92 -63.5 -151.5t-149.5 -126.5q-66 -47 -104 -81t-64.5 -83t-26.5 -115q0 -78 50.5 -123t136.5 -45q98 0 165.5 57.5t77.5 147.5l8 53 q0 8 6.5 14.5t14.5 6.5l151 -9q20 0 17 -20l-6 -45q-12 -113 -76 -200t-163 -135t-220 -48q-166 0 -262 86t-96 233zM461 872q0 63 42 106.5t101 43.5q51 0 82 -30.5t31 -80.5q0 -63 -43 -107t-103 -44q-49 0 -79.5 31.5t-30.5 80.5z" />
<glyph unicode="&#xc0;" horiz-adv-x="1251" d="M28 6q-3 6 1 17l606 1394q10 16 27 17h198q6 0 12.5 -4.5t8.5 -12.5l268 -1394v-5q0 -18 -19 -18h-163q-6 0 -12.5 4t-8.5 12l-43 240q0 6 -6 6h-559q-6 0 -8 -6l-101 -240q-10 -16 -26 -16h-162q-10 0 -13 6zM399 428q-2 -4 1 -7t8 -3h456q4 0 7 3t1 7l-137 760 q0 4 -4 4t-8 -4zM590 1812q0 12 17 13h133q16 0 22 -15l90 -221q2 -2 2 -8q0 -8 -6 -12t-16 -4h-107q-12 0 -22 14l-111 221q-2 4 -2 12z" />
<glyph unicode="&#xc1;" horiz-adv-x="1251" d="M28 6q-3 6 1 17l606 1394q10 16 27 17h198q6 0 12.5 -4.5t8.5 -12.5l268 -1394v-5q0 -18 -19 -18h-163q-6 0 -12.5 4t-8.5 12l-43 240q0 6 -6 6h-559q-6 0 -8 -6l-101 -240q-10 -16 -26 -16h-162q-10 0 -13 6zM399 428q-2 -4 1 -7t8 -3h456q4 0 7 3t1 7l-137 760 q0 4 -4 4t-8 -4zM678 1572q-4 7 4 17l143 221q8 14 27 15h133q10 0 13.5 -7.5t-5.5 -17.5l-168 -221q-14 -14 -26 -14h-105q-12 0 -16 7z" />
<glyph unicode="&#xc2;" horiz-adv-x="1251" d="M28 6q-3 6 1 17l606 1394q10 16 27 17h198q6 0 12.5 -4.5t8.5 -12.5l268 -1394v-5q0 -18 -19 -18h-163q-6 0 -12.5 4t-8.5 12l-43 240q0 6 -6 6h-559q-6 0 -8 -6l-101 -240q-10 -16 -26 -16h-162q-10 0 -13 6zM399 428q-2 -4 1 -7t8 -3h456q4 0 7 3t1 7l-137 760 q0 4 -4 4t-8 -4zM503 1572q-3 7 5 17l185 223q10 12 28 13h168q20 0 25 -13l129 -223l4 -10q0 -14 -18 -14h-117q-18 0 -23 12l-86 155q-2 4 -6 4.5t-6 -4.5l-129 -155q-8 -12 -25 -12h-118q-13 0 -16 7z" />
<glyph unicode="&#xc3;" horiz-adv-x="1251" d="M28 6q-3 6 1 17l606 1394q10 16 27 17h198q6 0 12.5 -4.5t8.5 -12.5l268 -1394v-5q0 -18 -19 -18h-163q-6 0 -12.5 4t-8.5 12l-43 240q0 6 -6 6h-559q-6 0 -8 -6l-101 -240q-10 -16 -26 -16h-162q-10 0 -13 6zM399 428q-2 -4 1 -7t8 -3h456q4 0 7 3t1 7l-137 760 q0 4 -4 4t-8 -4zM497 1687q-10 14 0 29q39 53 90.5 82t110.5 29q33 0 57.5 -9.5t44 -21.5t27.5 -16t27.5 -16.5t35 -17.5t31.5 -5q63 0 111 55q12 20 29 4l41 -57q6 -8 6 -13.5t-4 -15.5q-31 -51 -85.5 -80t-113.5 -29q-39 0 -66.5 10.5t-56.5 30.5q-35 20 -52.5 28.5 t-39.5 8.5q-66 0 -111 -45l-8 -8q-12 -12 -24 0z" />
<glyph unicode="&#xc4;" horiz-adv-x="1251" d="M28 6q-3 6 1 17l606 1394q10 16 27 17h198q6 0 12.5 -4.5t8.5 -12.5l268 -1394v-5q0 -18 -19 -18h-163q-6 0 -12.5 4t-8.5 12l-43 240q0 6 -6 6h-559q-6 0 -8 -6l-101 -240q-10 -16 -26 -16h-162q-10 0 -13 6zM399 428q-2 -4 1 -7t8 -3h456q4 0 7 3t1 7l-137 760 q0 4 -4 4t-8 -4zM488 1716q0 66 42 108.5t103 42.5q49 0 80 -31.5t31 -82.5q0 -63 -42 -105.5t-102 -42.5q-51 0 -81.5 31t-30.5 80zM848 1716q0 66 42 108.5t103 42.5q49 0 80 -31.5t31 -82.5q0 -63 -42 -105.5t-102 -42.5q-51 0 -81.5 31t-30.5 80z" />
<glyph unicode="&#xc5;" horiz-adv-x="1251" d="M28 6q-3 6 1 17l606 1394q10 16 27 17h198q6 0 12.5 -4.5t8.5 -12.5l268 -1394v-5q0 -18 -19 -18h-163q-6 0 -12.5 4t-8.5 12l-43 240q0 6 -6 6h-559q-6 0 -8 -6l-101 -240q-10 -16 -26 -16h-162q-10 0 -13 6zM399 428q-2 -4 1 -7t8 -3h456q4 0 7 3t1 7l-137 760 q0 4 -4 4t-8 -4zM572 1767q0 72 36 132.5t96 95t128 34.5q88 0 144.5 -56t56.5 -144q0 -72 -35 -132.5t-94.5 -96t-128.5 -35.5q-88 0 -145.5 57t-57.5 145zM682 1780q0 -45 30 -75t75 -30q53 0 95 41t42 96q0 47 -29.5 78t-76.5 31q-53 0 -94.5 -42t-41.5 -99z" />
<glyph unicode="&#xc6;" horiz-adv-x="1857" d="M30 7q-3 7 3 18l872 1394q8 14 27 15h940q10 0 15 -6.5t3 -14.5l-16 -129q-5 -20 -23 -20h-663q-8 0 -8 -9l-56 -440q0 -8 9 -8h442q18 0 18 -21l-16 -129q-4 -20 -23 -20h-442q-4 0 -7 -2t-3 -6l-55 -451q0 -8 8 -8h663q8 0 13.5 -6t3.5 -14l-17 -130q0 -8 -6 -14 t-16 -6h-842q-20 0 -16 20l28 234q0 8 -8 8h-461q-4 0 -8 -6l-151 -242q-6 -14 -25 -14h-170q-10 0 -13 7zM494 428q-4 -10 4 -10h381q8 0 8 8l94 770q2 6 -2 6t-8 -4z" />
<glyph unicode="&#xc7;" horiz-adv-x="1206" d="M137 383q0 20 4 70l66 530q16 139 90 244.5t190.5 164t260.5 58.5q199 0 315.5 -104.5t116.5 -282.5q0 -20 -4 -66l-2 -10q0 -4 -6.5 -9t-14.5 -5l-152 -8q-20 0 -18 18v6q4 33 4 47q0 111 -70.5 177.5t-189.5 66.5q-131 0 -222 -80t-108 -211l-67 -545q-2 -14 -2 -43 q0 -113 69.5 -180t192.5 -67q131 0 221 79.5t107 210.5v5q4 18 22 18l150 -8q20 0 16 -21q-23 -197 -161 -321.5t-345 -134.5q-10 0 -6 -11q70 -72 70 -155q0 -39 -13 -72q-25 -68 -77 -96.5t-115 -28.5q-49 0 -97 14q-16 6 -10 25l17 68q6 20 26 14q23 -6 41 -6 q43 0 71 24.5t28 75.5q0 78 -97 158q-2 4 -4 4t-4 2q-139 35 -216 135t-77 250z" />
<glyph unicode="&#xc8;" horiz-adv-x="1187" d="M125 20l172 1393q4 20 22 21h883q10 0 15.5 -6.5t3.5 -14.5l-17 -129q-4 -20 -22 -20h-705q-8 0 -8 -9l-55 -440q0 -8 8 -8h483q18 0 19 -21l-17 -129q-4 -20 -22 -20h-486q-8 0 -8 -8l-55 -451q0 -8 6 -8h707q20 0 16 -20l-16 -130q0 -8 -6.5 -14t-16.5 -6h-883 q-18 0 -18 20zM586 1812q0 12 17 13h133q16 0 22 -15l90 -221q2 -2 2 -8q0 -8 -6 -12t-16 -4h-107q-12 0 -22 14l-111 221q-2 4 -2 12z" />
<glyph unicode="&#xc9;" horiz-adv-x="1187" d="M125 20l172 1393q4 20 22 21h883q10 0 15.5 -6.5t3.5 -14.5l-17 -129q-4 -20 -22 -20h-705q-8 0 -8 -9l-55 -440q0 -8 8 -8h483q18 0 19 -21l-17 -129q-4 -20 -22 -20h-486q-8 0 -8 -8l-55 -451q0 -8 6 -8h707q20 0 16 -20l-16 -130q0 -8 -6.5 -14t-16.5 -6h-883 q-18 0 -18 20zM672 1572q-4 7 4 17l143 221q8 14 27 15h133q10 0 13.5 -7.5t-5.5 -17.5l-168 -221q-14 -14 -26 -14h-105q-12 0 -16 7z" />
<glyph unicode="&#xca;" horiz-adv-x="1187" d="M125 20l172 1393q4 20 22 21h883q10 0 15.5 -6.5t3.5 -14.5l-17 -129q-4 -20 -22 -20h-705q-8 0 -8 -9l-55 -440q0 -8 8 -8h483q18 0 19 -21l-17 -129q-4 -20 -22 -20h-486q-8 0 -8 -8l-55 -451q0 -8 6 -8h707q20 0 16 -20l-16 -130q0 -8 -6.5 -14t-16.5 -6h-883 q-18 0 -18 20zM498 1572q-3 7 5 17l185 223q10 12 28 13h168q20 0 25 -13l129 -223l4 -10q0 -14 -18 -14h-117q-18 0 -23 12l-86 155q-2 4 -6 4.5t-6 -4.5l-129 -155q-8 -12 -25 -12h-118q-13 0 -16 7z" />
<glyph unicode="&#xcb;" horiz-adv-x="1187" d="M125 20l172 1393q4 20 22 21h883q10 0 15.5 -6.5t3.5 -14.5l-17 -129q-4 -20 -22 -20h-705q-8 0 -8 -9l-55 -440q0 -8 8 -8h483q18 0 19 -21l-17 -129q-4 -20 -22 -20h-486q-8 0 -8 -8l-55 -451q0 -8 6 -8h707q20 0 16 -20l-16 -130q0 -8 -6.5 -14t-16.5 -6h-883 q-18 0 -18 20zM484 1716q0 66 42 108.5t103 42.5q49 0 80 -31.5t31 -82.5q0 -63 -42 -105.5t-102 -42.5q-51 0 -81.5 31t-30.5 80zM844 1716q0 66 42 108.5t103 42.5q49 0 80 -31.5t31 -82.5q0 -63 -42 -105.5t-102 -42.5q-51 0 -81.5 31t-30.5 80z" />
<glyph unicode="&#xcc;" horiz-adv-x="518" d="M125 20l172 1393q4 20 22 21h152q8 0 13 -6.5t3 -14.5l-172 -1393q0 -8 -6 -14t-14 -6h-152q-18 0 -18 20zM225 1812q0 12 17 13h133q16 0 22 -15l90 -221q2 -2 2 -8q0 -8 -6 -12t-16 -4h-107q-12 0 -22 14l-111 221q-2 4 -2 12z" />
<glyph unicode="&#xcd;" horiz-adv-x="518" d="M125 20l172 1393q4 20 22 21h152q8 0 13 -6.5t3 -14.5l-172 -1393q0 -8 -6 -14t-14 -6h-152q-18 0 -18 20zM313 1572q-4 7 4 17l143 221q8 14 27 15h133q10 0 13.5 -7.5t-5.5 -17.5l-168 -221q-14 -14 -26 -14h-105q-12 0 -16 7z" />
<glyph unicode="&#xce;" horiz-adv-x="518" d="M125 20l172 1393q4 20 22 21h152q8 0 13 -6.5t3 -14.5l-172 -1393q0 -8 -6 -14t-14 -6h-152q-18 0 -18 20zM140 1572q-3 7 5 17l185 223q10 12 28 13h168q20 0 25 -13l129 -223l4 -10q0 -14 -18 -14h-117q-18 0 -23 12l-86 155q-2 4 -6 4.5t-6 -4.5l-129 -155 q-8 -12 -25 -12h-118q-13 0 -16 7z" />
<glyph unicode="&#xcf;" horiz-adv-x="518" d="M125 20l172 1393q4 20 22 21h152q8 0 13 -6.5t3 -14.5l-172 -1393q0 -8 -6 -14t-14 -6h-152q-18 0 -18 20zM125 1716q0 66 42 108.5t103 42.5q49 0 80 -31.5t31 -82.5q0 -63 -42 -105.5t-102 -42.5q-51 0 -81.5 31t-30.5 80zM485 1716q0 66 42 108.5t103 42.5 q49 0 80 -31.5t31 -82.5q0 -63 -42 -105.5t-102 -42.5q-51 0 -81.5 31t-30.5 80z" />
<glyph unicode="&#xd0;" horiz-adv-x="1347" d="M209 694l12 99q0 8 6 14t17 6h92q6 0 10 8l72 592q4 20 22 21h480q190 0 298.5 -94.5t108.5 -256.5q0 -18 -4 -59l-76 -614q-23 -186 -160 -298t-344 -112h-479q-20 0 -16 20l78 646q0 8 -7 8h-94q-20 0 -16 20zM457 178q0 -8 8 -8h307q117 0 194.5 72.5t94.5 195.5 l67 557q2 16 2 47q0 102 -60 162t-165 60h-307q-8 0 -8 -9l-53 -434q-2 -2 0 -5t6 -3h209q20 0 16 -20l-12 -99q0 -8 -6.5 -14t-14.5 -6h-209q-6 0 -10 -8z" />
<glyph unicode="&#xd1;" horiz-adv-x="1335" d="M125 20l172 1393q4 20 22 21h148q14 0 20 -15l492 -1046q2 -6 6 -5t4 7l127 1038q0 8 6 14.5t15 6.5h151q18 0 19 -21l-172 -1393q-4 -20 -23 -20h-145q-12 0 -21 14l-493 1047q-2 6 -6.5 5t-4.5 -7l-127 -1039q0 -8 -6 -14t-14 -6h-152q-18 0 -18 20zM536 1687 q-10 14 0 29q39 53 90.5 82t110.5 29q33 0 57.5 -9.5t44 -21.5t27.5 -16t27.5 -16.5t35 -17.5t31.5 -5q63 0 111 55q12 20 29 4l41 -57q6 -8 6 -13.5t-4 -15.5q-31 -51 -85.5 -80t-113.5 -29q-39 0 -66.5 10.5t-56.5 30.5q-35 20 -52.5 28.5t-39.5 8.5q-66 0 -111 -45l-8 -8 q-12 -12 -24 0z" />
<glyph unicode="&#xd2;" horiz-adv-x="1234" d="M139 397q0 49 4 76l60 488q18 145 93 255.5t193.5 172t264.5 61.5q201 0 318.5 -112.5t117.5 -301.5q0 -49 -4 -75l-60 -488q-16 -145 -92 -257t-194.5 -173t-266.5 -61q-198 0 -316 112.5t-118 302.5zM330 412q0 -119 71.5 -189.5t192.5 -70.5q137 0 230.5 86t111.5 227 l59 498q4 37 4 53q0 121 -71.5 192.5t-194.5 71.5q-133 0 -227 -87t-111 -230l-61 -498q-4 -37 -4 -53zM584 1812q0 12 17 13h133q16 0 22 -15l90 -221q2 -2 2 -8q0 -8 -6 -12t-16 -4h-107q-12 0 -22 14l-111 221q-2 4 -2 12z" />
<glyph unicode="&#xd3;" horiz-adv-x="1234" d="M139 397q0 49 4 76l60 488q18 145 93 255.5t193.5 172t264.5 61.5q201 0 318.5 -112.5t117.5 -301.5q0 -49 -4 -75l-60 -488q-16 -145 -92 -257t-194.5 -173t-266.5 -61q-198 0 -316 112.5t-118 302.5zM330 412q0 -119 71.5 -189.5t192.5 -70.5q137 0 230.5 86t111.5 227 l59 498q4 37 4 53q0 121 -71.5 192.5t-194.5 71.5q-133 0 -227 -87t-111 -230l-61 -498q-4 -37 -4 -53zM670 1572q-4 7 4 17l143 221q8 14 27 15h133q10 0 13.5 -7.5t-5.5 -17.5l-168 -221q-14 -14 -26 -14h-105q-12 0 -16 7z" />
<glyph unicode="&#xd4;" horiz-adv-x="1234" d="M139 397q0 49 4 76l60 488q18 145 93 255.5t193.5 172t264.5 61.5q201 0 318.5 -112.5t117.5 -301.5q0 -49 -4 -75l-60 -488q-16 -145 -92 -257t-194.5 -173t-266.5 -61q-198 0 -316 112.5t-118 302.5zM330 412q0 -119 71.5 -189.5t192.5 -70.5q137 0 230.5 86t111.5 227 l59 498q4 37 4 53q0 121 -71.5 192.5t-194.5 71.5q-133 0 -227 -87t-111 -230l-61 -498q-4 -37 -4 -53zM496 1572q-3 7 5 17l185 223q10 12 28 13h168q20 0 25 -13l129 -223l4 -10q0 -14 -18 -14h-117q-18 0 -23 12l-86 155q-2 4 -6 4.5t-6 -4.5l-129 -155q-8 -12 -25 -12 h-118q-13 0 -16 7z" />
<glyph unicode="&#xd5;" horiz-adv-x="1234" d="M139 397q0 49 4 76l60 488q18 145 93 255.5t193.5 172t264.5 61.5q201 0 318.5 -112.5t117.5 -301.5q0 -49 -4 -75l-60 -488q-16 -145 -92 -257t-194.5 -173t-266.5 -61q-198 0 -316 112.5t-118 302.5zM330 412q0 -119 71.5 -189.5t192.5 -70.5q137 0 230.5 86t111.5 227 l59 498q4 37 4 53q0 121 -71.5 192.5t-194.5 71.5q-133 0 -227 -87t-111 -230l-61 -498q-4 -37 -4 -53zM491 1687q-10 14 0 29q39 53 90.5 82t110.5 29q33 0 57.5 -9.5t44 -21.5t27.5 -16t27.5 -16.5t35 -17.5t31.5 -5q63 0 111 55q12 20 29 4l41 -57q6 -8 6 -13.5t-4 -15.5 q-31 -51 -85.5 -80t-113.5 -29q-39 0 -66.5 10.5t-56.5 30.5q-35 20 -52.5 28.5t-39.5 8.5q-66 0 -111 -45l-8 -8q-12 -12 -24 0z" />
<glyph unicode="&#xd6;" horiz-adv-x="1234" d="M139 397q0 49 4 76l60 488q18 145 93 255.5t193.5 172t264.5 61.5q201 0 318.5 -112.5t117.5 -301.5q0 -49 -4 -75l-60 -488q-16 -145 -92 -257t-194.5 -173t-266.5 -61q-198 0 -316 112.5t-118 302.5zM330 412q0 -119 71.5 -189.5t192.5 -70.5q137 0 230.5 86t111.5 227 l59 498q4 37 4 53q0 121 -71.5 192.5t-194.5 71.5q-133 0 -227 -87t-111 -230l-61 -498q-4 -37 -4 -53zM482 1716q0 66 42 108.5t103 42.5q49 0 80 -31.5t31 -82.5q0 -63 -42 -105.5t-102 -42.5q-51 0 -81.5 31t-30.5 80zM842 1716q0 66 42 108.5t103 42.5q49 0 80 -31.5 t31 -82.5q0 -63 -42 -105.5t-102 -42.5q-51 0 -81.5 31t-30.5 80z" />
<glyph unicode="&#xd7;" horiz-adv-x="854" d="M90 397q0 10 8 19l250 227q6 6 0 12l-194 232q-6 6 -7 12q0 8 9 16l98 91q16 12 29 0l196 -232q4 -6 10 0l250 227q6 6 14.5 6.5t12.5 -6.5l78 -90q4 -8 4 -10q0 -10 -8 -18l-248 -228q-8 -6 -2 -12l188 -223q4 -4 4 -12q0 -10 -8 -17l-98 -90q-6 -6 -14.5 -6t-12.5 6 l-190 223q-4 6 -10 0l-250 -227q-6 -6 -14.5 -6t-12.5 6l-78 90q-4 8 -4 10z" />
<glyph unicode="&#xd8;" horiz-adv-x="1234" d="M47 43l123 164q0 2 3 5t-1 7q-31 78 -31 176q0 51 4 78l60 488q18 145 93 255.5t193.5 172t264.5 61.5q178 0 291 -88q8 -4 10 2l90 119q6 8 14 10t15 -4l100 -82q12 -13 2 -29l-117 -151q-2 -4 -2 -13q33 -74 33 -176q0 -51 -4 -77l-60 -488q-16 -145 -91.5 -257 t-194.5 -173t-267 -61q-176 0 -288 88q-8 4 -11 -2l-92 -121q-14 -16 -26 -6l-109 75q-14 12 -2 27zM332 434q-2 -6 2 -6t8 4l588 766q4 6 0 10q-76 72 -195 72q-135 0 -228 -87t-110 -230l-61 -498q-4 -21 -4 -31zM403 223q72 -72 193 -71q137 0 230.5 86t111.5 227l59 498 q4 24 4 38q-4 14 -10 5l-588 -773q-4 -6 0 -10z" />
<glyph unicode="&#xd9;" horiz-adv-x="1273" d="M162 385q0 20 4 70l117 958q4 20 22 21h152q20 0 16 -21l-119 -962q-2 -14 -2 -43q0 -115 72 -184.5t192 -69.5q133 0 225.5 81.5t108.5 215.5l117 962q4 20 23 21h151q20 0 16 -21l-116 -958q-16 -139 -90 -247t-192 -166t-263 -58q-201 0 -317.5 108.5t-116.5 292.5z M604 1812q0 12 17 13h133q16 0 22 -15l90 -221q2 -2 2 -8q0 -8 -6 -12t-16 -4h-107q-12 0 -22 14l-111 221q-2 4 -2 12z" />
<glyph unicode="&#xda;" horiz-adv-x="1273" d="M162 385q0 20 4 70l117 958q4 20 22 21h152q20 0 16 -21l-119 -962q-2 -14 -2 -43q0 -115 72 -184.5t192 -69.5q133 0 225.5 81.5t108.5 215.5l117 962q4 20 23 21h151q20 0 16 -21l-116 -958q-16 -139 -90 -247t-192 -166t-263 -58q-201 0 -317.5 108.5t-116.5 292.5z M692 1572q-4 7 4 17l143 221q8 14 27 15h133q10 0 13.5 -7.5t-5.5 -17.5l-168 -221q-14 -14 -26 -14h-105q-12 0 -16 7z" />
<glyph unicode="&#xdb;" horiz-adv-x="1273" d="M162 385q0 20 4 70l117 958q4 20 22 21h152q20 0 16 -21l-119 -962q-2 -14 -2 -43q0 -115 72 -184.5t192 -69.5q133 0 225.5 81.5t108.5 215.5l117 962q4 20 23 21h151q20 0 16 -21l-116 -958q-16 -139 -90 -247t-192 -166t-263 -58q-201 0 -317.5 108.5t-116.5 292.5z M517 1572q-3 7 5 17l185 223q10 12 28 13h168q20 0 25 -13l129 -223l4 -10q0 -14 -18 -14h-117q-18 0 -23 12l-86 155q-2 4 -6 4.5t-6 -4.5l-129 -155q-8 -12 -25 -12h-118q-13 0 -16 7z" />
<glyph unicode="&#xdc;" horiz-adv-x="1273" d="M162 385q0 20 4 70l117 958q4 20 22 21h152q20 0 16 -21l-119 -962q-2 -14 -2 -43q0 -115 72 -184.5t192 -69.5q133 0 225.5 81.5t108.5 215.5l117 962q4 20 23 21h151q20 0 16 -21l-116 -958q-16 -139 -90 -247t-192 -166t-263 -58q-201 0 -317.5 108.5t-116.5 292.5z M502 1716q0 66 42 108.5t103 42.5q49 0 80 -31.5t31 -82.5q0 -63 -42 -105.5t-102 -42.5q-51 0 -81.5 31t-30.5 80zM862 1716q0 66 42 108.5t103 42.5q49 0 80 -31.5t31 -82.5q0 -63 -42 -105.5t-102 -42.5q-51 0 -81.5 31t-30.5 80z" />
<glyph unicode="&#xdd;" horiz-adv-x="1161" d="M201 1417q0 16 18 17h164q16 0 23 -15l229 -600q2 -4 6 -4t6 4l377 600q8 14 27 15h163q10 0 14.5 -7.5t-1.5 -17.5l-514 -801q-4 -4 -4 -10l-70 -575q-4 -20 -23 -21h-151q-20 1 -16 21l69 575q0 2 1 5t-1 5l-315 801zM635 1572q-4 7 4 17l143 221q8 14 27 15h133 q10 0 13.5 -7.5t-5.5 -17.5l-168 -221q-14 -14 -26 -14h-105q-12 0 -16 7z" />
<glyph unicode="&#xde;" horiz-adv-x="1136" d="M115 20l170 1393q4 20 22 21h152q20 0 16 -21l-35 -278q0 -8 9 -9h315q166 0 263 -95t97 -253q0 -18 -4 -63q-14 -121 -79.5 -213t-166 -143.5t-219.5 -51.5h-307q-6 0 -10 -8l-33 -279q-4 -20 -22 -20h-152q-20 0 -16 20zM360 477q0 -8 7 -8h290q121 0 198 77t77 204 q0 96 -57.5 150t-157.5 54h-289q-4 0 -7 -2t-3 -6z" />
<glyph unicode="&#xdf;" horiz-adv-x="1118" d="M104 20l123 1006q25 201 151 313.5t324 112.5q176 0 280.5 -90t104.5 -246q0 -33 -2 -49q-12 -104 -63 -179t-137 -114q-10 -4 0 -10q66 -35 103.5 -109.5t37.5 -177.5q0 -18 -4 -67q-25 -195 -159 -302.5t-355 -107.5h-102q-18 0 -19 20l16 127q4 20 23 21h121 q131 0 211 82t80 227q0 98 -55.5 153.5t-149.5 57.5h-105q-10 0 -15 6t-3 15l14 114q4 20 23 21h104q109 0 176.5 68.5t67.5 181.5q0 86 -52 137t-151 51q-106 0 -182 -63.5t-90 -176.5l-125 -1022q-4 -20 -23 -20h-151q-21 0 -17 20z" />
<glyph unicode="&#xe0;" horiz-adv-x="1026" d="M119 344q0 57 14 176q10 88 23.5 149.5t36.5 114.5q47 121 153.5 198t243.5 77q180 0 239 -146q2 -6 5.5 -5t5.5 7l12 107q4 20 22 20h152q20 0 16 -20l-122 -1002q0 -8 -6.5 -14t-16.5 -6h-149q-18 0 -19 20l14 115q2 6 -2 7t-6 -5q-106 -154 -286 -153 q-131 0 -219.5 79.5t-106.5 212.5q-4 45 -4 68zM319 381q0 -29 7 -57q6 -76 59 -123t137 -47q82 0 140.5 48t87.5 122q14 32 22 70t19 124q12 86 12 146q0 20 -4 57q-10 74 -58.5 121t-128.5 47q-84 0 -148.5 -47t-88.5 -123q-14 -31 -22.5 -68t-20.5 -129 q-12 -106 -13 -141zM432 1421q0 12 17 13h133q16 0 22 -15l90 -221q2 -2 2 -8q0 -8 -6 -12t-16 -4h-107q-12 0 -22 14l-111 221q-2 4 -2 12z" />
<glyph unicode="&#xe1;" horiz-adv-x="1026" d="M119 344q0 57 14 176q10 88 23.5 149.5t36.5 114.5q47 121 153.5 198t243.5 77q180 0 239 -146q2 -6 5.5 -5t5.5 7l12 107q4 20 22 20h152q20 0 16 -20l-122 -1002q0 -8 -6.5 -14t-16.5 -6h-149q-18 0 -19 20l14 115q2 6 -2 7t-6 -5q-106 -154 -286 -153 q-131 0 -219.5 79.5t-106.5 212.5q-4 45 -4 68zM319 381q0 -29 7 -57q6 -76 59 -123t137 -47q82 0 140.5 48t87.5 122q14 32 22 70t19 124q12 86 12 146q0 20 -4 57q-10 74 -58.5 121t-128.5 47q-84 0 -148.5 -47t-88.5 -123q-14 -31 -22.5 -68t-20.5 -129 q-12 -106 -13 -141zM520 1181q-4 7 4 17l143 221q8 14 27 15h133q10 0 13.5 -7.5t-5.5 -17.5l-168 -221q-14 -14 -26 -14h-105q-12 0 -16 7z" />
<glyph unicode="&#xe2;" horiz-adv-x="1026" d="M119 344q0 57 14 176q10 88 23.5 149.5t36.5 114.5q47 121 153.5 198t243.5 77q180 0 239 -146q2 -6 5.5 -5t5.5 7l12 107q4 20 22 20h152q20 0 16 -20l-122 -1002q0 -8 -6.5 -14t-16.5 -6h-149q-18 0 -19 20l14 115q2 6 -2 7t-6 -5q-106 -154 -286 -153 q-131 0 -219.5 79.5t-106.5 212.5q-4 45 -4 68zM319 381q0 -29 7 -57q6 -76 59 -123t137 -47q82 0 140.5 48t87.5 122q14 32 22 70t19 124q12 86 12 146q0 20 -4 57q-10 74 -58.5 121t-128.5 47q-84 0 -148.5 -47t-88.5 -123q-14 -31 -22.5 -68t-20.5 -129 q-12 -106 -13 -141zM347 1181q-3 7 5 17l185 223q10 12 28 13h168q20 0 25 -13l129 -223l4 -10q0 -14 -18 -14h-117q-18 0 -23 12l-86 155q-2 4 -6 4.5t-6 -4.5l-129 -155q-8 -12 -25 -12h-118q-13 0 -16 7z" />
<glyph unicode="&#xe3;" horiz-adv-x="1026" d="M119 344q0 57 14 176q10 88 23.5 149.5t36.5 114.5q47 121 153.5 198t243.5 77q180 0 239 -146q2 -6 5.5 -5t5.5 7l12 107q4 20 22 20h152q20 0 16 -20l-122 -1002q0 -8 -6.5 -14t-16.5 -6h-149q-18 0 -19 20l14 115q2 6 -2 7t-6 -5q-106 -154 -286 -153 q-131 0 -219.5 79.5t-106.5 212.5q-4 45 -4 68zM319 381q0 -29 7 -57q6 -76 59 -123t137 -47q82 0 140.5 48t87.5 122q14 32 22 70t19 124q12 86 12 146q0 20 -4 57q-10 74 -58.5 121t-128.5 47q-84 0 -148.5 -47t-88.5 -123q-14 -31 -22.5 -68t-20.5 -129 q-12 -106 -13 -141zM340 1296q-10 14 0 29q39 53 90.5 82t110.5 29q33 0 57.5 -9.5t44 -21.5t27.5 -16t27.5 -16.5t35 -17.5t31.5 -5q63 0 111 55q12 20 29 4l41 -57q6 -8 6 -13.5t-4 -15.5q-31 -51 -85.5 -80t-113.5 -29q-39 0 -66.5 10.5t-56.5 30.5q-35 20 -52.5 28.5 t-39.5 8.5q-66 0 -111 -45l-8 -8q-12 -12 -24 0z" />
<glyph unicode="&#xe4;" horiz-adv-x="1026" d="M119 344q0 57 14 176q10 88 23.5 149.5t36.5 114.5q47 121 153.5 198t243.5 77q180 0 239 -146q2 -6 5.5 -5t5.5 7l12 107q4 20 22 20h152q20 0 16 -20l-122 -1002q0 -8 -6.5 -14t-16.5 -6h-149q-18 0 -19 20l14 115q2 6 -2 7t-6 -5q-106 -154 -286 -153 q-131 0 -219.5 79.5t-106.5 212.5q-4 45 -4 68zM319 381q0 -29 7 -57q6 -76 59 -123t137 -47q82 0 140.5 48t87.5 122q14 32 22 70t19 124q12 86 12 146q0 20 -4 57q-10 74 -58.5 121t-128.5 47q-84 0 -148.5 -47t-88.5 -123q-14 -31 -22.5 -68t-20.5 -129 q-12 -106 -13 -141zM330 1325q0 66 42 108.5t103 42.5q49 0 80 -31.5t31 -82.5q0 -63 -42 -105.5t-102 -42.5q-51 0 -81.5 31t-30.5 80zM690 1325q0 66 42 108.5t103 42.5q49 0 80 -31.5t31 -82.5q0 -63 -42 -105.5t-102 -42.5q-51 0 -81.5 31t-30.5 80z" />
<glyph unicode="&#xe5;" horiz-adv-x="1026" d="M119 344q0 57 14 176q10 88 23.5 149.5t36.5 114.5q47 121 153.5 198t243.5 77q180 0 239 -146q2 -6 5.5 -5t5.5 7l12 107q4 20 22 20h152q20 0 16 -20l-122 -1002q0 -8 -6.5 -14t-16.5 -6h-149q-18 0 -19 20l14 115q2 6 -2 7t-6 -5q-106 -154 -286 -153 q-131 0 -219.5 79.5t-106.5 212.5q-4 45 -4 68zM319 381q0 -29 7 -57q6 -76 59 -123t137 -47q82 0 140.5 48t87.5 122q14 32 22 70t19 124q12 86 12 146q0 20 -4 57q-10 74 -58.5 121t-128.5 47q-84 0 -148.5 -47t-88.5 -123q-14 -31 -22.5 -68t-20.5 -129 q-12 -106 -13 -141zM414 1376q0 72 36 132.5t96 95t128 34.5q88 0 144.5 -56t56.5 -144q0 -72 -35 -132.5t-94.5 -96t-128.5 -35.5q-88 0 -145.5 57t-57.5 145zM524 1389q0 -45 30 -75t75 -30q53 0 95 41t42 96q0 47 -29.5 78t-76.5 31q-53 0 -94.5 -42t-41.5 -99z" />
<glyph unicode="&#xe6;" horiz-adv-x="1656" d="M68 231q0 170 122.5 274.5t331.5 104.5h221q4 0 7.5 2t3.5 6l8 66q2 12 2 35q0 78 -47 124t-144 46q-80 0 -138 -34t-79 -91q-8 -20 -26 -19l-148 23q-18 4 -16 23q31 117 149.5 192.5t274.5 75.5q111 0 192.5 -50.5t108.5 -119.5q4 -10 10 0q45 68 137 119t193 51 q135 0 235.5 -79t120.5 -212q4 -37 4 -61q0 -76 -20 -242q-4 -20 -23 -21h-614q-8 0 -8 -8q-2 -23 -3 -40t-3 -40q-4 -92 60 -140t171 -48q86 0 144.5 31.5t97.5 97.5q6 8 14 9t14 -3l92 -65q16 -12 5 -27q-55 -96 -166 -161.5t-250 -65.5q-106 0 -188.5 45t-114.5 116 q-8 8 -11 2q-57 -76 -161.5 -119.5t-227.5 -43.5q-149 0 -240 60t-91 187zM260 270q0 -61 49 -96t131 -35q105 0 187 53.5t94 153.5l10 90q0 4 -2 6t-4 2h-190q-127 0 -201 -43t-74 -131zM946 618q0 -8 6 -8h441q8 0 8 8q2 27 2 72q0 86 -53.5 142.5t-143.5 56.5 q-84 0 -148.5 -49t-90.5 -127q-10 -33 -21 -95z" />
<glyph unicode="&#xe7;" horiz-adv-x="1044" d="M125 389q0 70 8 135q18 147 62 248q53 131 171.5 209t268.5 78t251 -78t120 -197q8 -35 8 -67q-2 -18 -21 -21l-151 -22h-4q-16 0 -17 18l-4 33q-6 70 -61.5 117t-143.5 47t-151.5 -47t-91.5 -125q-25 -59 -43 -195q-8 -68 -9 -127q0 -29 5 -65q10 -82 61 -129t139 -47 q86 0 154.5 48t93.5 122l4 10q0 6 2 8q2 8 8.5 11t14.5 1l145 -24q16 -4 14 -17q0 -6 -2 -8q-2 -10 -14 -45q-45 -111 -144.5 -183.5t-228.5 -88.5q-12 -4 -4 -11q74 -76 74 -161q0 -35 -12 -72q-27 -68 -78 -96.5t-115 -28.5q-55 0 -98 16q-16 6 -10 25l18 68q6 20 27 14 q23 -6 41 -6q41 0 69.5 24.5t28.5 73.5q0 72 -88 154q-2 4 -8 4q-115 20 -187.5 96t-93.5 188q-8 47 -8 113z" />
<glyph unicode="&#xe8;" horiz-adv-x="1067" d="M127 397q0 39 8 129q10 78 21.5 131.5t29.5 96.5q53 141 170 223t271 82q197 0 283.5 -100.5t86.5 -292.5q0 -72 -16 -203q-2 -20 -23 -21h-634q-8 0 -9 -8q-4 -49 -4 -65q0 -20 4 -41q10 -82 70.5 -128t163.5 -46q145 0 242 125q12 20 26 6l105 -78q12 -12 2 -27 q-68 -94 -176.5 -146t-237.5 -52q-145 0 -235.5 64.5t-127.5 186.5q-20 70 -20 164zM338 612q-2 -8 6 -8h455q8 0 8 8q4 49 4 66q0 94 -54.5 152.5t-150.5 58.5q-86 0 -146.5 -44t-90.5 -118q-18 -45 -31 -115zM450 1421q0 12 17 13h133q16 0 22 -15l90 -221q2 -2 2 -8 q0 -8 -6 -12t-16 -4h-107q-12 0 -22 14l-111 221q-2 4 -2 12z" />
<glyph unicode="&#xe9;" horiz-adv-x="1067" d="M127 397q0 39 8 129q10 78 21.5 131.5t29.5 96.5q53 141 170 223t271 82q197 0 283.5 -100.5t86.5 -292.5q0 -72 -16 -203q-2 -20 -23 -21h-634q-8 0 -9 -8q-4 -49 -4 -65q0 -20 4 -41q10 -82 70.5 -128t163.5 -46q145 0 242 125q12 20 26 6l105 -78q12 -12 2 -27 q-68 -94 -176.5 -146t-237.5 -52q-145 0 -235.5 64.5t-127.5 186.5q-20 70 -20 164zM338 612q-2 -8 6 -8h455q8 0 8 8q4 49 4 66q0 94 -54.5 152.5t-150.5 58.5q-86 0 -146.5 -44t-90.5 -118q-18 -45 -31 -115zM539 1181q-4 7 4 17l143 221q8 14 27 15h133q10 0 13.5 -7.5 t-5.5 -17.5l-168 -221q-14 -14 -26 -14h-105q-12 0 -16 7z" />
<glyph unicode="&#xea;" horiz-adv-x="1067" d="M127 397q0 39 8 129q10 78 21.5 131.5t29.5 96.5q53 141 170 223t271 82q197 0 283.5 -100.5t86.5 -292.5q0 -72 -16 -203q-2 -20 -23 -21h-634q-8 0 -9 -8q-4 -49 -4 -65q0 -20 4 -41q10 -82 70.5 -128t163.5 -46q145 0 242 125q12 20 26 6l105 -78q12 -12 2 -27 q-68 -94 -176.5 -146t-237.5 -52q-145 0 -235.5 64.5t-127.5 186.5q-20 70 -20 164zM338 612q-2 -8 6 -8h455q8 0 8 8q4 49 4 66q0 94 -54.5 152.5t-150.5 58.5q-86 0 -146.5 -44t-90.5 -118q-18 -45 -31 -115zM365 1181q-3 7 5 17l185 223q10 12 28 13h168q20 0 25 -13 l129 -223l4 -10q0 -14 -18 -14h-117q-18 0 -23 12l-86 155q-2 4 -6 4.5t-6 -4.5l-129 -155q-8 -12 -25 -12h-118q-13 0 -16 7z" />
<glyph unicode="&#xeb;" horiz-adv-x="1067" d="M127 397q0 39 8 129q10 78 21.5 131.5t29.5 96.5q53 141 170 223t271 82q197 0 283.5 -100.5t86.5 -292.5q0 -72 -16 -203q-2 -20 -23 -21h-634q-8 0 -9 -8q-4 -49 -4 -65q0 -20 4 -41q10 -82 70.5 -128t163.5 -46q145 0 242 125q12 20 26 6l105 -78q12 -12 2 -27 q-68 -94 -176.5 -146t-237.5 -52q-145 0 -235.5 64.5t-127.5 186.5q-20 70 -20 164zM338 612q-2 -8 6 -8h455q8 0 8 8q4 49 4 66q0 94 -54.5 152.5t-150.5 58.5q-86 0 -146.5 -44t-90.5 -118q-18 -45 -31 -115zM351 1325q0 66 42 108.5t103 42.5q49 0 80 -31.5t31 -82.5 q0 -63 -42 -105.5t-102 -42.5q-51 0 -81.5 31t-30.5 80zM711 1325q0 66 42 108.5t103 42.5q49 0 80 -31.5t31 -82.5q0 -63 -42 -105.5t-102 -42.5q-51 0 -81.5 31t-30.5 80z" />
<glyph unicode="&#xec;" horiz-adv-x="438" d="M86 20l123 1002q4 20 22 20h152q8 0 13 -6t3 -14l-123 -1002q-4 -20 -22 -20h-152q-8 0 -13 6t-3 14zM139 1421q0 12 17 13h133q16 0 22 -15l90 -221q2 -2 2 -8q0 -8 -6 -12t-16 -4h-107q-12 0 -22 14l-111 221q-2 4 -2 12z" />
<glyph unicode="&#xed;" horiz-adv-x="438" d="M86 20l123 1002q4 20 22 20h152q8 0 13 -6t3 -14l-123 -1002q-4 -20 -22 -20h-152q-8 0 -13 6t-3 14zM225 1181q-4 7 4 17l143 221q8 14 27 15h133q10 0 13.5 -7.5t-5.5 -17.5l-168 -221q-14 -14 -26 -14h-105q-12 0 -16 7z" />
<glyph unicode="&#xee;" horiz-adv-x="438" d="M52 1181q-3 7 5 17l185 223q10 12 28 13h168q20 0 25 -13l129 -223l4 -10q0 -14 -18 -14h-117q-18 0 -23 12l-86 155q-2 4 -6 4.5t-6 -4.5l-129 -155q-8 -12 -25 -12h-118q-13 0 -16 7zM86 20l123 1002q4 20 22 20h152q8 0 13 -6t3 -14l-123 -1002q-4 -20 -22 -20h-152 q-8 0 -13 6t-3 14z" />
<glyph unicode="&#xef;" horiz-adv-x="438" d="M37 1325q0 66 42 108.5t103 42.5q49 0 80 -31.5t31 -82.5q0 -63 -42 -105.5t-102 -42.5q-51 0 -81.5 31t-30.5 80zM86 20l123 1002q4 20 22 20h152q8 0 13 -6t3 -14l-123 -1002q-4 -20 -22 -20h-152q-8 0 -13 6t-3 14zM397 1325q0 66 42 108.5t103 42.5q49 0 80 -31.5 t31 -82.5q0 -63 -42 -105.5t-102 -42.5q-51 0 -81.5 31t-30.5 80z" />
<glyph unicode="&#xf0;" horiz-adv-x="1067" d="M119 340q0 55 10 152q18 150 53 233q37 92 114 154.5t173 76.5q55 10 106 11q61 0 113.5 -12.5t83.5 -36.5q4 -4 7 -2t1 8q-27 111 -88 215q-4 8 -10 4l-199 -56l-8 -2q-12 0 -16 17l-10 67q0 20 18 27l147 43q12 4 4 10q-70 88 -137 160q-6 6 -6 12q0 12 19 13h163 q8 0 23 -11q10 -14 35 -43q12 -18 30.5 -39.5t36.5 -50.5q4 -4 11 -2l168 47l8 2q12 0 16 -16l8 -70v-4q0 -16 -16 -22l-115 -33q-8 -2 -6 -8q63 -98 96 -206t31 -243q4 -87 -12 -243q-18 -147 -53 -234q-55 -123 -170 -198.5t-261 -75.5q-143 0 -240 74.5t-122 199.5 q-6 41 -6 82zM311 356q0 -23 4 -51q10 -78 59.5 -124t131.5 -46q80 0 142.5 46t92.5 124q19 49 35 182q10 92 10 136q0 94 -52 152.5t-142 58.5q-82 0 -144.5 -46.5t-89.5 -123.5q-12 -27 -21 -74t-15 -103q-10 -88 -11 -131z" />
<glyph unicode="&#xf1;" horiz-adv-x="1077" d="M102 20l123 1002q4 20 23 20h149q10 0 15.5 -6t3.5 -14l-10 -74q0 -4 3 -6t5 2q98 113 266 113q147 0 230 -81t83 -220q0 -18 -4 -60l-82 -676q-2 -8 -8 -14t-14 -6h-152q-18 0 -18 20l80 637q2 12 2 37q0 86 -49.5 139.5t-135.5 53.5q-96 0 -162.5 -63.5t-78.5 -164.5 l-78 -639q-4 -20 -23 -20h-151q-20 0 -17 20zM370 1296q-10 14 0 29q39 53 90.5 82t110.5 29q33 0 57.5 -9.5t44 -21.5t27.5 -16t27.5 -16.5t35 -17.5t31.5 -5q63 0 111 55q12 20 29 4l41 -57q6 -8 6 -13.5t-4 -15.5q-31 -51 -85.5 -80t-113.5 -29q-39 0 -66.5 10.5 t-56.5 30.5q-35 20 -52.5 28.5t-39.5 8.5q-66 0 -111 -45l-8 -8q-12 -12 -24 0z" />
<glyph unicode="&#xf2;" d="M125 412q0 57 6 112q20 150 66 246q59 135 178 212t270 77q143 0 239.5 -77t125.5 -210q12 -57 12 -131q0 -55 -6 -115q-16 -143 -66 -252q-61 -137 -178 -213.5t-262 -76.5q-148 0 -247 76.5t-126 213.5q-12 59 -12 138zM317 416q0 -49 7 -86q12 -82 67 -129t139 -47 q82 0 147.5 46t100.5 130q33 88 45 192q8 90 8 127q0 27 -4 64q-16 84 -70.5 130t-138.5 46q-82 0 -147 -46t-102 -130q-29 -70 -45 -191q-6 -55 -7 -106zM457 1421q0 12 17 13h133q16 0 22 -15l90 -221q2 -2 2 -8q0 -8 -6 -12t-16 -4h-107q-12 0 -22 14l-111 221 q-2 4 -2 12z" />
<glyph unicode="&#xf3;" d="M125 412q0 57 6 112q20 150 66 246q59 135 178 212t270 77q143 0 239.5 -77t125.5 -210q12 -57 12 -131q0 -55 -6 -115q-16 -143 -66 -252q-61 -137 -178 -213.5t-262 -76.5q-148 0 -247 76.5t-126 213.5q-12 59 -12 138zM317 416q0 -49 7 -86q12 -82 67 -129t139 -47 q82 0 147.5 46t100.5 130q33 88 45 192q8 90 8 127q0 27 -4 64q-16 84 -70.5 130t-138.5 46q-82 0 -147 -46t-102 -130q-29 -70 -45 -191q-6 -55 -7 -106zM543 1181q-4 7 4 17l143 221q8 14 27 15h133q10 0 13.5 -7.5t-5.5 -17.5l-168 -221q-14 -14 -26 -14h-105 q-12 0 -16 7z" />
<glyph unicode="&#xf4;" d="M125 412q0 57 6 112q20 150 66 246q59 135 178 212t270 77q143 0 239.5 -77t125.5 -210q12 -57 12 -131q0 -55 -6 -115q-16 -143 -66 -252q-61 -137 -178 -213.5t-262 -76.5q-148 0 -247 76.5t-126 213.5q-12 59 -12 138zM317 416q0 -49 7 -86q12 -82 67 -129t139 -47 q82 0 147.5 46t100.5 130q33 88 45 192q8 90 8 127q0 27 -4 64q-16 84 -70.5 130t-138.5 46q-82 0 -147 -46t-102 -130q-29 -70 -45 -191q-6 -55 -7 -106zM369 1181q-3 7 5 17l185 223q10 12 28 13h168q20 0 25 -13l129 -223l4 -10q0 -14 -18 -14h-117q-18 0 -23 12l-86 155 q-2 4 -6 4.5t-6 -4.5l-129 -155q-8 -12 -25 -12h-118q-13 0 -16 7z" />
<glyph unicode="&#xf5;" d="M125 412q0 57 6 112q20 150 66 246q59 135 178 212t270 77q143 0 239.5 -77t125.5 -210q12 -57 12 -131q0 -55 -6 -115q-16 -143 -66 -252q-61 -137 -178 -213.5t-262 -76.5q-148 0 -247 76.5t-126 213.5q-12 59 -12 138zM317 416q0 -49 7 -86q12 -82 67 -129t139 -47 q82 0 147.5 46t100.5 130q33 88 45 192q8 90 8 127q0 27 -4 64q-16 84 -70.5 130t-138.5 46q-82 0 -147 -46t-102 -130q-29 -70 -45 -191q-6 -55 -7 -106zM364 1296q-10 14 0 29q39 53 90.5 82t110.5 29q33 0 57.5 -9.5t44 -21.5t27.5 -16t27.5 -16.5t35 -17.5t31.5 -5 q63 0 111 55q12 20 29 4l41 -57q6 -8 6 -13.5t-4 -15.5q-31 -51 -85.5 -80t-113.5 -29q-39 0 -66.5 10.5t-56.5 30.5q-35 20 -52.5 28.5t-39.5 8.5q-66 0 -111 -45l-8 -8q-12 -12 -24 0z" />
<glyph unicode="&#xf6;" d="M125 412q0 57 6 112q20 150 66 246q59 135 178 212t270 77q143 0 239.5 -77t125.5 -210q12 -57 12 -131q0 -55 -6 -115q-16 -143 -66 -252q-61 -137 -178 -213.5t-262 -76.5q-148 0 -247 76.5t-126 213.5q-12 59 -12 138zM317 416q0 -49 7 -86q12 -82 67 -129t139 -47 q82 0 147.5 46t100.5 130q33 88 45 192q8 90 8 127q0 27 -4 64q-16 84 -70.5 130t-138.5 46q-82 0 -147 -46t-102 -130q-29 -70 -45 -191q-6 -55 -7 -106zM355 1325q0 66 42 108.5t103 42.5q49 0 80 -31.5t31 -82.5q0 -63 -42 -105.5t-102 -42.5q-51 0 -81.5 31t-30.5 80z M715 1325q0 66 42 108.5t103 42.5q49 0 80 -31.5t31 -82.5q0 -63 -42 -105.5t-102 -42.5q-51 0 -81.5 31t-30.5 80z" />
<glyph unicode="&#xf7;" horiz-adv-x="983" d="M102 592l17 127q0 8 6 14t16 6h803q10 0 15.5 -6t3.5 -14l-17 -127q0 -8 -6 -14.5t-16 -6.5h-803q-10 0 -15.5 6.5t-3.5 14.5zM375 324q0 51 41 92t92 41q43 0 71.5 -31t28.5 -74q0 -53 -41 -93t-90 -40q-45 0 -73.5 30t-28.5 75zM457 989q0 53 40 93t91 40 q45 0 73.5 -29.5t28.5 -74.5q0 -53 -41 -93t-90 -40q-45 0 -73.5 29.5t-28.5 74.5z" />
<glyph unicode="&#xf8;" horiz-adv-x="1052" d="M61 14q-12 12 0 29l93 117q4 6 0 12q-23 49 -35 102q-10 61 -10 127q0 68 8 123q16 152 61 246q61 135 179 212t270 77q111 0 192 -45q8 -4 10 2l82 104q14 18 29 4l98 -86q6 -6 6 -12t-6 -16l-88 -111q-2 -4 -2 -12q29 -45 45 -115q13 -57 13 -131q0 -63 -9 -115 q-16 -143 -65 -252q-61 -137 -177 -213.5t-261 -76.5q-121 0 -215 53q-8 4 -11 -2l-82 -105q-14 -18 -28 -4zM299 399q0 -27 2 -39q0 -4 4 -5t6 3l394 496q4 10 -3 12q-39 23 -100 23q-82 0 -148.5 -46t-101.5 -130q-29 -66 -43 -191q-10 -68 -10 -123zM393 195q-4 -8 2 -11 q49 -31 119 -30q80 0 145.5 47t100.5 129q31 65 45 192q8 63 8 127q0 37 -2 51v2l-2 15h-2z" />
<glyph unicode="&#xf9;" d="M123 274q0 33 2 50l86 698q4 20 22 20h150q8 0 13 -6t3 -14l-77 -637q-2 -14 -3 -41q0 -88 47.5 -138t135.5 -50q100 0 166.5 62.5t79.5 166.5l79 637q0 8 6.5 14t16.5 6h147q10 0 15.5 -6t3.5 -14l-123 -1002q-4 -20 -23 -20h-149q-20 0 -16 20l8 76q2 4 -1 5t-7 -3 q-94 -113 -261 -112q-137 0 -229 75.5t-92 212.5zM457 1421q0 12 17 13h133q16 0 22 -15l90 -221q2 -2 2 -8q0 -8 -6 -12t-16 -4h-107q-12 0 -22 14l-111 221q-2 4 -2 12z" />
<glyph unicode="&#xfa;" d="M123 274q0 33 2 50l86 698q4 20 22 20h150q8 0 13 -6t3 -14l-77 -637q-2 -14 -3 -41q0 -88 47.5 -138t135.5 -50q100 0 166.5 62.5t79.5 166.5l79 637q0 8 6.5 14t16.5 6h147q10 0 15.5 -6t3.5 -14l-123 -1002q-4 -20 -23 -20h-149q-20 0 -16 20l8 76q2 4 -1 5t-7 -3 q-94 -113 -261 -112q-137 0 -229 75.5t-92 212.5zM543 1181q-4 7 4 17l143 221q8 14 27 15h133q10 0 13.5 -7.5t-5.5 -17.5l-168 -221q-14 -14 -26 -14h-105q-12 0 -16 7z" />
<glyph unicode="&#xfb;" d="M123 274q0 33 2 50l86 698q4 20 22 20h150q8 0 13 -6t3 -14l-77 -637q-2 -14 -3 -41q0 -88 47.5 -138t135.5 -50q100 0 166.5 62.5t79.5 166.5l79 637q0 8 6.5 14t16.5 6h147q10 0 15.5 -6t3.5 -14l-123 -1002q-4 -20 -23 -20h-149q-20 0 -16 20l8 76q2 4 -1 5t-7 -3 q-94 -113 -261 -112q-137 0 -229 75.5t-92 212.5zM369 1181q-3 7 5 17l185 223q10 12 28 13h168q20 0 25 -13l129 -223l4 -10q0 -14 -18 -14h-117q-18 0 -23 12l-86 155q-2 4 -6 4.5t-6 -4.5l-129 -155q-8 -12 -25 -12h-118q-13 0 -16 7z" />
<glyph unicode="&#xfc;" d="M123 274q0 33 2 50l86 698q4 20 22 20h150q8 0 13 -6t3 -14l-77 -637q-2 -14 -3 -41q0 -88 47.5 -138t135.5 -50q100 0 166.5 62.5t79.5 166.5l79 637q0 8 6.5 14t16.5 6h147q10 0 15.5 -6t3.5 -14l-123 -1002q-4 -20 -23 -20h-149q-20 0 -16 20l8 76q2 4 -1 5t-7 -3 q-94 -113 -261 -112q-137 0 -229 75.5t-92 212.5zM355 1325q0 66 42 108.5t103 42.5q49 0 80 -31.5t31 -82.5q0 -63 -42 -105.5t-102 -42.5q-51 0 -81.5 31t-30.5 80zM715 1325q0 66 42 108.5t103 42.5q49 0 80 -31.5t31 -82.5q0 -63 -42 -105.5t-102 -42.5q-51 0 -81.5 31 t-30.5 80z" />
<glyph unicode="&#xfd;" horiz-adv-x="946" d="M8 -387l15 121q4 20 22 20h4q80 2 128 20.5t84 69t77 150.5q2 2 1 7l-1 5l-207 1014v4q0 18 19 18h161q16 0 21 -16l131 -772q0 -4 5 -4t7 4l316 772q10 16 26 16h158q23 0 12 -22l-495 -1092q-63 -139 -116.5 -208.5t-131.5 -98.5t-211 -29h-13q-6 0 -10 6.5t-2 14.5z M479 1193q-4 7 4 17l143 221q8 14 27 15h133q10 0 13.5 -7.5t-5.5 -17.5l-168 -221q-14 -14 -26 -14h-105q-12 0 -16 7z" />
<glyph unicode="&#xfe;" horiz-adv-x="1079" d="M51 -389l221 1802q4 20 23 21h151q20 0 17 -21l-57 -469q0 -4 4 -6t6 2q92 119 256 119q135 0 223 -77t106 -198q7 -43 7 -90q0 -76 -13 -174q-10 -90 -20 -143t-29 -101q-51 -133 -159.5 -212.5t-239.5 -79.5q-162 0 -234 125q-2 4 -6 2t-4 -7l-61 -493q0 -8 -6.5 -14.5 t-16.5 -6.5h-149q-10 0 -15.5 6.5t-3.5 14.5zM330 319q10 -72 58 -118.5t130 -46.5q84 0 148.5 47t89.5 123q14 34 22 73t19 125q12 102 12 137q0 33 -6 60q-10 76 -61.5 123t-133.5 47t-141 -46t-84 -118q-2 -2 -2 -4t-2 -2l-2 -4l-47 -387v-9z" />
<glyph unicode="&#xff;" horiz-adv-x="946" d="M8 -387l15 121q4 20 22 20h4q80 2 128 20.5t84 69t77 150.5q2 2 1 7l-1 5l-207 1014v4q0 18 19 18h161q16 0 21 -16l131 -772q0 -4 5 -4t7 4l316 772q10 16 26 16h158q23 0 12 -22l-495 -1092q-63 -139 -116.5 -208.5t-131.5 -98.5t-211 -29h-13q-6 0 -10 6.5t-2 14.5z M291 1337q0 66 42 108.5t103 42.5q49 0 80 -31.5t31 -82.5q0 -63 -42 -105.5t-102 -42.5q-51 0 -81.5 31t-30.5 80zM651 1337q0 66 42 108.5t103 42.5q49 0 80 -31.5t31 -82.5q0 -63 -42 -105.5t-102 -42.5q-51 0 -81.5 31t-30.5 80z" />
<glyph unicode="&#x152;" horiz-adv-x="1835" d="M137 375q0 49 4 74l66 534q16 135 84.5 241.5t172 166t224.5 59.5q92 0 170 -32t129 -89q4 -4 7 -2t3 6l11 80q4 20 22 21h821q8 0 13.5 -6.5t3.5 -14.5l-17 -129q0 -8 -6 -14t-16 -6h-641q-8 0 -8 -9l-56 -440q0 -8 9 -8h419q10 0 15.5 -6t3.5 -15l-17 -129 q-4 -20 -22 -20h-420q-4 0 -7 -2t-3 -6l-55 -451q0 -8 8 -8h641q20 0 16 -20l-14 -130q-4 -20 -23 -20h-821q-20 0 -16 20l8 78q2 4 -1 6t-7 -2q-68 -57 -154 -88.5t-176 -31.5q-109 0 -193 49t-131 139t-47 205zM328 399q0 -111 66.5 -179t178.5 -68q125 0 212 81.5 t104 208.5l65 543q4 33 4 47q0 111 -66.5 179.5t-180.5 68.5q-123 0 -210 -83t-104 -212l-67 -543q-2 -14 -2 -43z" />
<glyph unicode="&#x153;" horiz-adv-x="1714" d="M121 362q0 74 12 162q12 90 23.5 145.5t31.5 100.5q53 131 169 210t261 79q98 0 178.5 -44t127.5 -120q6 -8 12 0q66 76 155 120t187 44q147 0 245.5 -81t121.5 -210q4 -41 4 -70q0 -84 -17 -221q-4 -20 -22 -20h-625q-8 0 -8 -8q-2 -27 -2 -70q0 -35 2 -49 q10 -84 67.5 -132t157.5 -48q70 0 134.5 36.5t105.5 96.5q14 20 28 8l84 -70q8 -4 8.5 -12t-6.5 -16q-66 -98 -168 -153.5t-229 -55.5q-106 0 -187 44t-128 122q-4 10 -10 0q-66 -78 -156 -122t-191 -44q-143 0 -239 78.5t-121 211.5q-6 43 -6 88zM315 389q0 -43 4 -59 q6 -80 56.5 -128t132.5 -48q80 0 143.5 48t89.5 128q21 51 41 194q10 92 11 138q0 25 -5 53q-6 78 -58 126t-132 48q-82 0 -144.5 -48t-88.5 -126q-25 -57 -39 -191q-10 -66 -11 -135zM997 602q0 -8 9 -8h440q8 0 8 8q4 57 4 76q0 25 -2 35q-8 78 -60.5 127t-135.5 49 q-82 0 -145.5 -49t-90.5 -127q-12 -33 -27 -111z" />
<glyph unicode="&#x178;" horiz-adv-x="1161" d="M201 1417q0 16 18 17h164q16 0 23 -15l229 -600q2 -4 6 -4t6 4l377 600q8 14 27 15h163q10 0 14.5 -7.5t-1.5 -17.5l-514 -801q-4 -4 -4 -10l-70 -575q-4 -20 -23 -21h-151q-20 1 -16 21l69 575q0 2 1 5t-1 5l-315 801zM447 1716q0 66 42 108.5t103 42.5q49 0 80 -31.5 t31 -82.5q0 -63 -42 -105.5t-102 -42.5q-51 0 -81.5 31t-30.5 80zM807 1716q0 66 42 108.5t103 42.5q49 0 80 -31.5t31 -82.5q0 -63 -42 -105.5t-102 -42.5q-51 0 -81.5 31t-30.5 80z" />
<glyph unicode="&#x2c6;" horiz-adv-x="561" d="M169 1181q-3 7 5 17l185 223q10 12 28 13h168q20 0 25 -13l129 -223l4 -10q0 -14 -18 -14h-117q-18 0 -23 12l-86 155q-2 4 -6 4.5t-6 -4.5l-129 -155q-8 -12 -25 -12h-118q-13 0 -16 7z" />
<glyph unicode="&#x2dc;" horiz-adv-x="724" d="M182 1296q-10 14 0 29q39 53 90.5 82t110.5 29q33 0 57.5 -9.5t44 -21.5t27.5 -16t27.5 -16.5t35 -17.5t31.5 -5q63 0 111 55q12 20 29 4l41 -57q6 -8 6 -13.5t-4 -15.5q-31 -51 -85.5 -80t-113.5 -29q-39 0 -66.5 10.5t-56.5 30.5q-35 20 -52.5 28.5t-39.5 8.5 q-66 0 -111 -45l-8 -8q-12 -12 -24 0z" />
<glyph unicode="&#x2000;" horiz-adv-x="1014" />
<glyph unicode="&#x2001;" horiz-adv-x="2029" />
<glyph unicode="&#x2002;" horiz-adv-x="1014" />
<glyph unicode="&#x2003;" horiz-adv-x="2029" />
<glyph unicode="&#x2004;" horiz-adv-x="676" />
<glyph unicode="&#x2005;" horiz-adv-x="507" />
<glyph unicode="&#x2006;" horiz-adv-x="338" />
<glyph unicode="&#x2007;" horiz-adv-x="338" />
<glyph unicode="&#x2008;" horiz-adv-x="253" />
<glyph unicode="&#x2009;" horiz-adv-x="405" />
<glyph unicode="&#x200a;" horiz-adv-x="112" />
<glyph unicode="&#x2010;" horiz-adv-x="794" d="M98 561l17 129q4 20 22 21h615q8 0 13 -6.5t3 -14.5l-16 -129q0 -8 -6.5 -14t-16.5 -6h-612q-11 0 -16 6t-3 14z" />
<glyph unicode="&#x2011;" horiz-adv-x="794" d="M98 561l17 129q4 20 22 21h615q8 0 13 -6.5t3 -14.5l-16 -129q0 -8 -6.5 -14t-16.5 -6h-612q-11 0 -16 6t-3 14z" />
<glyph unicode="&#x2012;" horiz-adv-x="794" d="M98 561l17 129q4 20 22 21h615q8 0 13 -6.5t3 -14.5l-16 -129q0 -8 -6.5 -14t-16.5 -6h-612q-11 0 -16 6t-3 14z" />
<glyph unicode="&#x2013;" horiz-adv-x="913" d="M92 514l17 131q4 20 22 21h733q18 0 19 -21l-17 -131q-4 -20 -22 -20h-733q-19 0 -19 20z" />
<glyph unicode="&#x2014;" horiz-adv-x="1343" d="M92 516l17 129q4 20 22 21h1165q8 0 13.5 -6.5t3.5 -14.5l-17 -129q0 -8 -6 -14t-16 -6h-1163q-19 0 -19 20z" />
<glyph unicode="&#x2018;" horiz-adv-x="323" d="M94 1006.5q-4 7.5 2 17.5l203 393q8 16 25 17h112q25 0 15 -23l-164 -395q-6 -16 -25 -17h-153q-11 0 -15 7.5z" />
<glyph unicode="&#x2019;" horiz-adv-x="323" d="M92 1022l164 395q6 16 25 17h153q10 0 14.5 -7.5t-2.5 -17.5l-202 -393q-8 -16 -25 -17h-113q-25 0 -14 23z" />
<glyph unicode="&#x201a;" horiz-adv-x="1191" d="M57 -154l136 455q4 18 22 18h133q10 0 14.5 -6t-0.5 -16l-174 -455q-2 -8 -8 -13t-14 -5h-94q-11 0 -15 6t0 16z" />
<glyph unicode="&#x201c;" horiz-adv-x="598" d="M93 1006.5q-3 7.5 1 17.5l191 393q8 16 24 17h107q23 0 16 -23l-153 -393q-8 -18 -25 -19h-148q-10 0 -13 7.5zM389 1024l191 393q8 16 22 17h109q25 0 14 -23l-152 -393q-2 -8 -9 -13.5t-15 -5.5h-146q-20 0 -14 25z" />
<glyph unicode="&#x201d;" horiz-adv-x="598" d="M92 1022l152 393q2 8 9 13.5t15 5.5h146q20 0 14 -25l-190 -393q-6 -16 -23 -17h-109q-25 0 -14 23zM385 1022l154 393q8 18 24 19h148q10 0 13 -7.5t-1 -17.5l-191 -393q-8 -16 -24 -17h-107q-23 0 -16 23z" />
<glyph unicode="&#x201e;" horiz-adv-x="622" d="M-51 -149l152 393q2 8 9 13.5t15 5.5h146q20 0 14 -25l-190 -393q-6 -16 -23 -17h-109q-25 0 -14 23zM242 -149l154 393q8 18 24 19h148q10 0 13 -7.5t-1 -17.5l-191 -393q-8 -16 -24 -17h-107q-23 0 -16 23z" />
<glyph unicode="&#x2022;" horiz-adv-x="618" d="M96 524q0 74 38 137.5t101.5 100.5t133.5 37q90 0 150.5 -60.5t60.5 -152.5q0 -74 -38 -138.5t-101.5 -102.5t-133.5 -38q-90 0 -150.5 62.5t-60.5 154.5z" />
<glyph unicode="&#x2026;" horiz-adv-x="1619" d="M115 111q0 66 42 108.5t103 42.5q49 0 80 -31.5t31 -82.5q0 -63 -42 -105.5t-102 -42.5q-51 0 -81.5 31t-30.5 80zM656 111q0 66 42 108.5t103 42.5q49 0 80 -31.5t31 -82.5q0 -63 -42 -105.5t-102 -42.5q-51 0 -81.5 31t-30.5 80zM1188 111q0 66 42 108.5t103 42.5 q49 0 80 -31.5t31 -82.5q0 -63 -42 -105.5t-102 -42.5q-51 0 -81.5 31t-30.5 80z" />
<glyph unicode="&#x202f;" horiz-adv-x="405" />
<glyph unicode="&#x2039;" horiz-adv-x="702" d="M133 573q0 8 6 17l271 330q8 12 24 12h150q12 0 15 -7t-7 -18l-268 -325q-2 -4 -2 -13l188 -325l4 -11q0 -14 -18 -14h-150q-14 0 -22 12l-187 330q-4 8 -4 12z" />
<glyph unicode="&#x203a;" horiz-adv-x="759" d="M165 226q-3 7 5 18l270 325q4 6 0 13l-188 325q-4 8 -4 11q0 14 20 14h148q18 0 22 -12l191 -330q2 -4 2 -12q0 -6 -6 -17l-271 -330q-10 -12 -24 -12h-150q-12 0 -15 7z" />
<glyph unicode="&#x205f;" horiz-adv-x="507" />
<glyph unicode="&#x20ac;" horiz-adv-x="1261" d="M154 563l10 70q0 8 6 14t16 6h138q2 0 5 2t3 7l12 108q2 2 0 5t-6 3h-137q-20 0 -17 21l9 69q4 20 22 21h137q8 0 8 8l17 127q23 193 155 309.5t326 116.5q176 0 279.5 -93t103.5 -253q0 -25 -20 -27l-154 -20h-4q-14 0 -14 18q-2 92 -58.5 148.5t-154.5 56.5 q-106 0 -180 -68.5t-89 -181.5l-16 -133q0 -8 8 -8h453q10 0 13 -6t-1 -17l-31 -71q-2 -8 -10 -12.5t-16 -4.5h-422q-8 0 -8 -8l-15 -108q0 -8 6 -9h387q10 0 13.5 -6t-0.5 -16l-31 -72q-10 -16 -27 -16h-354q-6 0 -10 -8l-14 -132q-2 -14 -3 -41q0 -96 56.5 -152t152.5 -56 q97 0 168.5 56t96.5 150q2 8 8 13.5t14 3.5l148 -27q20 -4 14 -24q-43 -158 -169 -251t-300 -93q-176 0 -278.5 98t-102.5 264q0 18 4 68l14 123q2 2 0 5t-6 3h-137q-18 0 -18 20z" />
<glyph unicode="&#x2122;" horiz-adv-x="1314" d="M164 1354l8 59q0 8 6 14.5t17 6.5h475q10 0 15 -6.5t3 -14.5l-8 -59q0 -8 -6 -14.5t-17 -6.5h-178q-8 0 -8 -8l-74 -590q0 -8 -6 -14t-14 -6h-72q-10 0 -15 6t-3 14l71 590q2 2 0 5t-6 3h-170q-10 0 -15 6.5t-3 14.5zM731 735l84 678q4 20 23 21h73q14 0 23 -13l121 -233 q2 -2 6 -2t6 2l184 233q9 13 25 13h72q18 0 18 -21l-84 -678q-4 -20 -22 -20h-72q-20 0 -17 20l62 500q0 6 -3 8t-7 -4l-142 -186q-12 -12 -26 -13h-19q-18 0 -22 13l-99 186q-2 6 -6 4t-4 -8l-61 -500q-4 -20 -23 -20h-71q-18 0 -19 20z" />
<glyph unicode="&#x25fc;" horiz-adv-x="1044" d="M0 0v1044h1044v-1044h-1044z" />
</font>
</defs>
</svg>
