<svg width="1205" height="806" viewBox="0 0 1205 806" fill="none" xmlns="http://www.w3.org/2000/svg">
<path d="M358.355 805.999C340.896 804.678 322.72 805.713 319.022 788.771C314.32 767.349 334.331 762.927 349.239 759.825C388.716 751.211 428.594 744.348 468.328 736.854C501.213 731.284 532.767 719.596 561.358 702.395C582.914 690.075 599.79 670.952 609.349 648.011C618.907 625.07 620.612 599.604 614.195 575.591C608.805 550.149 601.178 525.167 594.47 500.013C588.278 476.898 585.611 454.069 551.094 477.758C526.841 494.384 507.575 470.637 494.216 452.403C480.856 434.169 490.203 415.849 505.54 402.583C517.577 391.919 532.552 385.148 548.499 383.16C564.446 381.171 580.621 384.059 594.9 391.442C609.703 395.482 622.802 404.214 632.238 416.331C641.675 428.448 646.941 443.299 647.249 458.664C645.411 477.426 647.953 496.359 654.674 513.968C664.278 534.442 691.943 552.388 681.938 574.901C664.88 613.436 656.137 655.82 621.734 687.55C545.648 757.93 451.786 783.86 358.355 805.999Z" fill="#137EBD"/>
<path d="M663.337 294.414C651.354 240.545 675.292 187.25 681.771 131.887C683.239 123.979 686.552 116.531 691.44 110.149C696.327 103.766 702.65 98.6311 709.895 95.1612C725.519 86.317 743.322 85.8858 741.774 111.069C742.183 131.968 740.976 152.868 738.163 173.581C729.807 226.099 730.194 279.64 739.309 332.031C745.53 380.846 721.85 424.722 721.363 472.217C721.363 480.659 706.684 485.541 695.847 480.487C687.603 477.508 680.483 472.042 675.468 464.842C670.452 457.643 667.786 449.064 667.839 440.286C668.469 392.906 656.686 345.728 663.337 294.414Z" fill="#137EBD"/>
<path d="M871.584 82.5561C868.23 113.539 863.241 144.264 862.41 175.994C861.521 210.452 832.25 218.349 802.205 215.075C770.183 211.543 762.07 188.198 767.804 161.637C776.258 123.511 794.886 88.3982 821.7 60.0436C825.321 54.5631 830.756 50.5362 837.048 48.6718C843.34 46.8073 850.087 47.2245 856.103 49.8495C862.038 52.6937 866.817 57.4962 869.636 63.4516C872.455 69.407 873.143 76.1529 871.584 82.5561Z" fill="#137EBD"/>
<path d="M779.013 439.397C784.001 410.682 787.385 385.068 793.061 360C798.136 337.66 804.529 309.634 835.806 321.005C864.475 331.458 859.286 356.009 846.299 378.435C833.118 397.356 826.556 420.113 827.636 443.159C829.356 459.268 821.643 474.171 804.958 473.108C800.885 473.014 796.884 472.009 793.249 470.166C789.614 468.323 786.437 465.689 783.949 462.457C781.462 459.225 779.728 455.477 778.874 451.487C778.02 447.497 778.067 443.366 779.013 439.397Z" fill="#137EBD"/>
<path d="M472.97 304.203C469.134 302.038 464.874 300.732 460.485 300.376C456.096 300.02 451.683 300.622 447.549 302.139C443.415 303.657 439.658 306.055 436.538 309.167C433.419 312.28 431.011 316.033 429.48 320.168C415.145 345.15 403.334 371.855 388.856 396.693C377.16 416.794 362.625 439.22 336.221 434.741C312.798 430.778 312.483 404.992 306.061 386.241C294.594 353.162 294.593 313.65 247.032 295.675C300.728 279.192 322.804 247.548 319.163 197.24C320.455 182.809 324.452 168.751 330.945 155.804C356.288 82.1216 350.354 67.6778 286.653 23.7152C268.827 9.93602 247.305 1.79178 224.836 0.323828C202.367 -1.14412 179.971 4.13036 160.51 15.4735C138.218 28.7307 115.252 40.8174 91.7054 51.6835C74.3833 57.3131 58.9556 67.6353 47.1302 81.507C35.3049 95.3787 27.5434 112.259 24.7066 130.276C0.0802493 279.853 -28.1576 430.118 61.2598 570.304C70.0324 584.059 74.7908 607.633 97.009 598.818C121.578 589.026 113.035 568.524 102.915 551.582C65.1015 488.266 77.5719 421.791 90.1288 355.344C90.4519 353.155 91.2241 351.055 92.3974 349.18C93.5707 347.304 95.1198 345.692 96.946 344.446C98.7722 343.199 100.836 342.345 103.008 341.938C105.18 341.53 107.414 341.578 109.566 342.078C149.186 355.402 180.665 330.592 210.394 319.881C223.542 387.293 256.205 449.339 304.312 498.287C309.902 504.098 317.03 508.189 324.861 510.082C332.692 511.974 340.9 511.588 348.519 508.969C408.465 489.73 459.811 461.13 472.139 391.238C474.147 375.446 477.749 359.898 482.889 344.834C489.541 327.777 490.773 313.621 472.97 304.203ZM104.721 293.205C79.7222 287.462 78.4609 266.098 78.5469 245.797C78.6329 225.495 81.0981 205.596 81.0981 185.495C81.3455 167.522 85.5822 149.829 93.5007 133.698C101.419 117.568 112.821 103.403 126.881 92.2322C140.94 81.061 157.304 73.1621 174.788 69.109C192.272 65.0558 210.438 64.9498 227.968 68.7979C235.846 69.7665 243.426 72.4119 250.199 76.5567C256.972 80.7015 262.782 86.249 267.238 92.8281C271.694 99.4071 274.693 106.865 276.034 114.701C277.375 122.537 277.027 130.569 275.013 138.259C279.629 223.169 178.314 309.946 104.721 293.205Z" fill="#137EBD"/>
<path d="M1188.86 347.766C1170.79 325.239 1156.86 299.679 1147.72 272.274C1139.89 238.994 1118.76 231.126 1089.29 244.278C1066.26 256.427 1040.18 261.576 1014.27 259.094C971.779 249.791 942.336 273.624 914.184 299.295C898.559 313.452 878.09 327.091 887.837 353.336C893.944 371.197 904.475 387.214 918.444 399.89C932.412 412.565 949.362 421.484 967.708 425.813C979.122 428.159 990.987 426.724 1001.52 421.725C1012.04 416.727 1020.66 408.437 1026.08 398.104C1072.44 335.878 1072.58 335.964 1106.66 400.371C1127.59 439.883 1157.9 455.504 1185.39 440.889C1210.04 427.68 1211.71 382.74 1188.86 347.766ZM1029.29 305.871C1025.58 315.2 1019.26 323.26 1011.1 329.086C1002.93 334.912 993.262 338.257 983.246 338.72C981.8 338.561 980.408 338.079 979.173 337.31C977.938 336.54 976.891 335.502 976.109 334.273C975.328 333.044 974.832 331.655 974.658 330.208C974.485 328.761 974.637 327.294 975.105 325.914C983.218 300.788 1006.47 302.569 1026.54 293.954C1028.72 303.143 1029.78 304.895 1029.29 305.871Z" fill="#137EBD"/>
</svg>
