<svg width="161" height="54" viewBox="0 0 161 54" fill="none" xmlns="http://www.w3.org/2000/svg">
<path d="M0.269531 1H79.1053V53.3943H0.269531V1Z" fill="#12306E"/>
<path d="M41.2946 11.856L39.5966 10.7055L37.9352 11.856L38.5194 9.9202L36.8945 8.67838L38.9394 8.64185L39.5966 6.70605L40.2904 8.64185L42.317 8.67838L40.6921 9.9202L41.2946 11.856Z" fill="#FFED00"/>
<path d="M50.1127 14.2481L48.4331 13.0976L46.7534 14.2481L47.3376 12.3123L45.731 11.0705L47.7575 11.0339L48.4331 9.09814L49.1086 11.0339L51.1352 11.0705L49.5285 12.3123L50.1127 14.2481Z" fill="#FFED00"/>
<path d="M32.4578 14.2481L30.7964 13.0976L29.1167 14.2481L29.7009 12.3123L28.0942 11.0705L30.1209 11.0339L30.7964 9.09814L31.4536 11.0339L33.4985 11.0705L31.8736 12.3123L32.4578 14.2481Z" fill="#FFED00"/>
<path d="M25.958 20.7676L24.2966 19.5989L22.6169 20.7676L23.2011 18.8136L21.5762 17.5717L23.621 17.5352L24.2966 15.6177L24.9721 17.5352L26.9987 17.5717L25.3738 18.8136L25.958 20.7676Z" fill="#FFED00"/>
<path d="M56.5391 20.7676L54.8594 19.5989L53.1796 20.7676L53.7822 18.8136L52.1572 17.5717L54.1839 17.5352L54.8594 15.6177L55.5349 17.5352L57.5615 17.5717L55.9366 18.8136L56.5391 20.7676Z" fill="#FFED00"/>
<path d="M58.9313 29.4424L57.2516 28.2919L55.5719 29.4424L56.1561 27.4884L54.5312 26.2648L56.5761 26.2283L57.2516 24.2925L57.9089 26.2283L59.9537 26.2648L58.3288 27.4884L58.9313 29.4424Z" fill="#FFED00"/>
<path d="M25.958 38.336L24.2966 37.1855L22.6169 38.336L23.2011 36.4002L21.5762 35.1584L23.621 35.1218L24.2966 33.186L24.9721 35.1218L26.9987 35.1584L25.3738 36.4002L25.958 38.336Z" fill="#FFED00"/>
<path d="M56.5391 38.336L54.8594 37.1855L53.1796 38.336L53.7822 36.4002L52.1572 35.1584L54.1839 35.1218L54.8594 33.186L55.5349 35.1218L57.5615 35.1584L55.9366 36.4002L56.5391 38.336Z" fill="#FFED00"/>
<path d="M50.1127 44.6915L48.4331 43.5409L46.7534 44.6915L47.3376 42.7374L45.731 41.5138L47.7575 41.4773L48.4331 39.5415L49.1086 41.4773L51.1352 41.5138L49.5285 42.7374L50.1127 44.6915Z" fill="#FFED00"/>
<path d="M32.4578 44.6915L30.7964 43.5409L29.1167 44.6915L29.7009 42.7374L28.0942 41.5138L30.1209 41.4773L30.7964 39.5415L31.4536 41.4773L33.4985 41.5138L31.8736 42.7374L32.4578 44.6915Z" fill="#FFED00"/>
<path d="M41.2946 47.084L39.5966 45.9335L37.9352 47.084L38.5194 45.1483L36.8945 43.9064L38.9394 43.8699L39.5966 41.9341L40.2904 43.8699L42.317 43.9064L40.6921 45.1483L41.2946 47.084Z" fill="#FFED00"/>
<path d="M23.8403 29.4424L22.1789 28.2919L20.4992 29.4424L21.0834 27.4884L19.4585 26.2648L21.5034 26.2283L22.1789 24.2925L22.8361 26.2283L24.8809 26.2648L23.256 27.4884L23.8403 29.4424Z" fill="#FFED00"/>
<path d="M89.855 11.198V18.344C89.855 22.106 91.727 23.528 94.211 23.528C96.839 23.528 98.801 21.998 98.801 18.272V11.198H97.217V18.38C97.217 21.062 96.065 22.25 94.265 22.25C92.645 22.25 91.439 21.098 91.439 18.38V11.198H89.855Z" fill="#12306E"/>
<path d="M103.003 23.33V18.146C103.003 16.13 102.967 14.672 102.877 13.142L102.931 13.124C103.543 14.438 104.353 15.824 105.199 17.174L109.051 23.33H110.635V11.198H109.159V16.274C109.159 18.164 109.195 19.64 109.339 21.26L109.303 21.278C108.727 20.036 108.025 18.758 107.125 17.336L103.237 11.198H101.527V23.33H103.003Z" fill="#12306E"/>
<path d="M113.375 11.198V23.33H114.941V11.198H113.375Z" fill="#12306E"/>
<path d="M122.596 11C119.356 11 116.962 13.52 116.962 17.372C116.962 21.044 119.212 23.528 122.416 23.528C125.512 23.528 128.05 21.314 128.05 17.138C128.05 13.538 125.908 11 122.596 11ZM122.524 12.278C125.134 12.278 126.394 14.798 126.394 17.21C126.394 19.964 124.99 22.25 122.506 22.25C120.04 22.25 118.636 19.928 118.636 17.336C118.636 14.672 119.932 12.278 122.524 12.278Z" fill="#12306E"/>
<path d="M131.568 23.33V18.146C131.568 16.13 131.532 14.672 131.442 13.142L131.496 13.124C132.108 14.438 132.918 15.824 133.764 17.174L137.616 23.33H139.2V11.198H137.724V16.274C137.724 18.164 137.76 19.64 137.904 21.26L137.868 21.278C137.292 20.036 136.59 18.758 135.69 17.336L131.802 11.198H130.092V23.33H131.568Z" fill="#12306E"/>
<path d="M148.221 16.346H143.505V12.512H148.491V11.198H141.939V23.33H148.761V22.016H143.505V17.642H148.221V16.346Z" fill="#12306E"/>
<path d="M96.155 35.7786H91.439V31.9446H96.425V30.6306H89.873V42.7626H96.695V41.4486H91.439V37.0746H96.155V35.7786Z" fill="#12306E"/>
<path d="M98.7144 30.6306V37.7766C98.7144 41.5386 100.586 42.9606 103.07 42.9606C105.698 42.9606 107.66 41.4306 107.66 37.7046V30.6306H106.076V37.8126C106.076 40.4946 104.924 41.6826 103.124 41.6826C101.504 41.6826 100.298 40.5306 100.298 37.8126V30.6306H98.7144Z" fill="#12306E"/>
<path d="M110.387 42.7626H111.953V37.5066H113.429C114.851 37.5606 115.499 38.1906 115.859 39.8646C116.201 41.3766 116.471 42.4206 116.669 42.7626H118.289C118.037 42.2946 117.749 41.1246 117.353 39.4326C117.065 38.1726 116.507 37.3086 115.571 36.9846V36.9306C116.849 36.4986 117.857 35.4366 117.857 33.8346C117.857 32.8986 117.515 32.0706 116.903 31.5306C116.147 30.8466 115.067 30.5406 113.393 30.5406C112.313 30.5406 111.179 30.6306 110.387 30.7926V42.7626ZM111.953 31.8906C112.205 31.8186 112.745 31.7466 113.501 31.7466C115.157 31.7646 116.291 32.4486 116.291 34.0146C116.291 35.4006 115.229 36.3186 113.555 36.3186H111.953V31.8906Z" fill="#12306E"/>
<path d="M125.039 30.4326C121.799 30.4326 119.405 32.9526 119.405 36.8046C119.405 40.4766 121.655 42.9606 124.859 42.9606C127.955 42.9606 130.493 40.7466 130.493 36.5706C130.493 32.9706 128.351 30.4326 125.039 30.4326ZM124.967 31.7106C127.577 31.7106 128.837 34.2306 128.837 36.6426C128.837 39.3966 127.433 41.6826 124.949 41.6826C122.483 41.6826 121.079 39.3606 121.079 36.7686C121.079 34.1046 122.375 31.7106 124.967 31.7106Z" fill="#12306E"/>
<path d="M132.535 42.7626H134.101V37.9026C134.461 37.9926 134.893 38.0106 135.361 38.0106C136.891 38.0106 138.241 37.5606 139.069 36.6786C139.681 36.0486 140.005 35.1846 140.005 34.0866C140.005 33.0066 139.609 32.1246 138.943 31.5486C138.223 30.9006 137.089 30.5406 135.541 30.5406C134.281 30.5406 133.291 30.6486 132.535 30.7746V42.7626ZM134.101 31.9086C134.371 31.8366 134.893 31.7826 135.577 31.7826C137.305 31.7826 138.439 32.5566 138.439 34.1586C138.439 35.8326 137.287 36.7506 135.397 36.7506C134.875 36.7506 134.443 36.7146 134.101 36.6246V31.9086Z" fill="#12306E"/>
<path d="M148.397 35.7786H143.681V31.9446H148.667V30.6306H142.115V42.7626H148.937V41.4486H143.681V37.0746H148.397V35.7786Z" fill="#12306E"/>
<path d="M157.239 38.9466L158.535 42.7626H160.209L156.069 30.6306H154.179L150.057 42.7626H151.677L152.937 38.9466H157.239ZM153.261 37.7226L154.449 34.2126C154.683 33.4746 154.881 32.7366 155.061 32.0166H155.097C155.277 32.7186 155.457 33.4386 155.727 34.2306L156.915 37.7226H153.261Z" fill="#12306E"/>
</svg>
