<svg width="94" height="90" viewBox="0 0 94 90" fill="none" xmlns="http://www.w3.org/2000/svg">
<path d="M77.3062 43.5488L71.3081 32.9611L75.0959 27.1153C75.5453 26.4232 75.5728 25.516 75.1601 24.7958L71.4916 18.314C71.088 17.5938 70.2993 17.1636 69.4922 17.2197L62.632 17.6406L55.9645 5.85561C54.9281 4.02239 53.0663 2.90936 50.9936 2.89066C48.9209 2.89066 47.0958 3.9008 46.0136 5.62178L22.1039 36.6836L6.58601 45.8217C0.294477 49.5162 -1.86996 57.7563 1.76189 64.1632C4.97186 69.8312 11.8045 72.3098 17.7934 70.0276L26.8914 86.0964C29.0008 89.8189 33.7057 91.1097 37.365 88.9584C41.0244 86.7979 42.29 82.0184 40.1714 78.2771L34.8246 68.8491L39.3093 66.2116C40.3457 65.6036 40.6942 64.2474 40.0981 63.1998L37.9428 59.3931C49.5079 57.139 61.0546 54.7726 72.6105 52.4531C76.9026 52.2192 79.4614 47.3649 77.3062 43.5488ZM68.41 21.6999L70.7395 25.8246L68.8777 28.6867L65.0441 21.9056L68.41 21.6999ZM17.5916 65.2575C13.3728 67.7455 7.94337 66.2583 5.51297 61.9559C4.74257 60.5903 4.32986 59.0377 4.32986 57.457C4.32986 54.2395 6.02656 51.2465 8.75045 49.6378L22.7642 41.3883L31.6054 57.008L17.5916 65.2575ZM36.4112 80.4845L36.4571 80.5593C37.3192 82.1774 36.7597 84.207 35.1914 85.133C33.5956 86.0683 31.5504 85.5071 30.6333 83.889L21.627 67.9793L27.4141 64.5748C30.4131 69.878 33.4305 75.1719 36.4112 80.4845ZM32.6601 65.0237L31.156 62.3674L33.7607 60.8335L35.2648 63.4898L32.6601 65.0237ZM35.65 55.3525L26.1485 38.5636L46.2429 12.4683L66.9701 49.0859L35.65 55.3525ZM72.2895 48.0571C72.0327 48.0664 71.73 48.1319 71.4549 48.188L49.1227 8.72703C49.2969 8.50255 49.4987 8.25937 49.6363 8.03489C49.9206 7.55788 50.3975 7.28664 50.9386 7.29599C51.4889 7.30535 51.9474 7.57659 52.2226 8.06295L73.5551 45.7562C74.1237 46.757 73.4267 48.029 72.2895 48.0571ZM91.1916 8.18454L80.9747 13.9835C80.0851 14.4886 79.7733 15.6297 80.2594 16.5276C80.7546 17.4255 81.8643 17.7528 82.754 17.2478L92.9708 11.4488C93.8513 10.9437 94.1723 9.81199 93.6862 8.90474C93.2001 7.99748 92.072 7.67947 91.1916 8.18454ZM90.1185 27.5549L83.0291 25.6188C82.0478 25.3476 81.0481 25.9462 80.7821 26.947C80.5162 27.9478 81.1031 28.9673 82.0753 29.2385L89.1647 31.1746C90.1552 31.4459 91.1549 30.8379 91.4117 29.8465C91.6777 28.8457 91.0999 27.8262 90.1185 27.5549ZM72.3078 1.3848L70.4093 8.61479C70.1434 9.61558 70.7303 10.6351 71.7025 10.9063C72.6838 11.1682 73.6835 10.579 73.9495 9.57817L75.8479 2.35753C76.1139 1.35674 75.5269 0.32789 74.5456 0.066001C73.5734 -0.205241 72.5738 0.384009 72.3078 1.3848Z" fill="#0075BF"/>
</svg>
