<?xml version="1.0" encoding="utf-8"?>
<!-- Generator: Adobe Illustrator 22.1.0, SVG Export Plug-In . SVG Version: 6.00 Build 0)  -->
<svg version="1.1" id="Capa_1" xmlns="http://www.w3.org/2000/svg" xmlns:xlink="http://www.w3.org/1999/xlink" x="0px" y="0px"
	 viewBox="0 0 512 512" style="enable-background:new 0 0 512 512;" xml:space="preserve">
<path d="M93.9,256 M494.9,426.7h-17.1v-59.7c0-4.7-3.8-8.5-8.5-8.5H42.7c-4.7,0-8.5,3.8-8.5,8.5v59.7H17.1V93.9
	c0-4.7,3.8-8.5,8.5-8.5s8.5,3.8,8.5,8.5v187.7v51.2c0,4.7,3.8,8.5,8.5,8.5h426.7c4.7,0,8.5-3.8,8.5-8.5v-51.2V162.1
	c0-4.7,3.8-8.5,8.5-8.5s8.5,3.8,8.5,8.5L494.9,426.7L494.9,426.7z M188-7935V8448 M-7935,273.5H8448 M486.4,136.5
	c-14.1,0-25.6,11.5-25.6,25.6v110.9h-17.1v-51.2c0-47.1-38.3-85.3-85.3-85.3H196.3c-4.7,0-8.5,3.8-8.5,8.5l-0.2,0.2V274H50.6V118
	h0.6V93.9c0-14.1-11.5-25.6-25.6-25.6C11.5,68.3,0,79.8,0,93.9v341.3c0,4.7,3.8,8.5,8.5,8.5h34.1c4.7,0,8.5-3.8,8.5-8.5v-59.7h409.6
	v59.7c0,4.7,3.8,8.5,8.5,8.5h34.1c4.7,0,8.5-3.8,8.5-8.5V162.1C512,148,500.5,136.5,486.4,136.5z M204.8,153.6h153.6
	c37.6,0,68.3,30.6,68.3,68.3v51.2H204.8V153.6z M460.8,324.3H51.2v-34.1h409.6V324.3z M121.8,159.5c-28.9,0-52.2,23.4-52.2,52.2
	S92.9,264,121.8,264s52.2-23.4,52.2-52.2S150.6,159.5,121.8,159.5z M121.8,247.9c-20,0-36.1-16.2-36.1-36.1s16.2-36.1,36.1-36.1
	s36.1,16.2,36.1,36.1S141.7,247.9,121.8,247.9z"/>
</svg>
