<svg width="30" height="30" viewBox="0 0 30 30" fill="none" xmlns="http://www.w3.org/2000/svg">
<g clip-path="url(#clip0)">
<path d="M28.3225 29.0182L16.6635 16.2958V14.7658C16.6635 13.4735 15.6121 12.4221 14.3197 12.4221H11.3899V7.7344C11.3899 7.43347 11.3322 7.14589 11.2284 6.88134C12.6744 6.44441 13.7336 5.09728 13.7336 3.51561C13.7336 1.5771 12.1565 0 10.218 0C8.27949 0 6.70239 1.5771 6.70239 3.51561C6.70239 4.40834 7.03256 5.24307 7.61457 5.88062C7.06028 6.3097 6.70239 6.98089 6.70239 7.7344V14.7658V20.3346L1.69504 25.3419C1.46624 25.5707 1.46624 25.9417 1.69504 26.1706L4.18093 28.6565C4.29079 28.7664 4.43986 28.8281 4.59525 28.8281C4.75064 28.8281 4.8997 28.7664 5.00956 28.6565L6.70233 26.9638V29.4141C6.70233 29.7377 6.96465 30.0001 7.28826 30.0001H10.8039C11.1275 30.0001 11.3898 29.7377 11.3898 29.4141V25.8983C11.3898 25.5748 11.1275 25.3124 10.8039 25.3124C10.4803 25.3124 10.2179 25.5748 10.2179 25.8983V28.8282H7.8742V16.7942C8.2192 16.9943 8.61933 17.1095 9.04607 17.1095H10.2179V20.6249C10.2179 20.9484 10.4803 21.2108 10.8039 21.2108C11.1275 21.2108 11.3898 20.9484 11.3898 20.6249V17.1095H15.8197L27.4585 29.8099C27.574 29.936 27.7321 30 27.8906 30C28.032 30 28.1739 29.9491 28.2863 29.846C28.525 29.6274 28.5411 29.2567 28.3225 29.0182ZM7.8742 3.51561C7.8742 2.22327 8.9256 1.17187 10.2179 1.17187C11.5103 1.17187 12.5617 2.22327 12.5617 3.51561C12.5617 4.73043 11.6246 5.73783 10.4356 5.8484C10.0464 5.56094 9.56579 5.3906 9.04601 5.3906C8.97218 5.3906 8.89923 5.39447 8.82711 5.40115C8.22746 4.95977 7.8742 4.26889 7.8742 3.51561ZM4.59525 27.4134L2.93799 25.7562L6.70233 21.9918V25.3064L4.59525 27.4134ZM15.4916 15.9377H9.04607C8.3999 15.9377 7.8742 15.412 7.8742 14.7658V7.7344C7.8742 7.08823 8.3999 6.56253 9.04607 6.56253C9.69224 6.56253 10.2179 7.08823 10.2179 7.7344V13.008C10.2179 13.3315 10.4803 13.5939 10.8039 13.5939H14.3197C14.9658 13.5939 15.4915 14.1196 15.4915 14.7658V15.9377H15.4916Z" fill="#003A54"/>
<path d="M10.8047 22.6755C10.4811 22.6755 10.2188 22.9379 10.2188 23.2615V23.2619C10.2188 23.5854 10.4811 23.8476 10.8047 23.8476C11.1283 23.8476 11.3906 23.5851 11.3906 23.2615C11.3906 22.9379 11.1283 22.6755 10.8047 22.6755Z" fill="#003A54"/>
</g>
<defs>
<clipPath id="clip0">
<rect width="30" height="30" fill="white"/>
</clipPath>
</defs>
</svg>
