<svg width="17" height="16" viewBox="0 0 17 16" fill="none" xmlns="http://www.w3.org/2000/svg">
<path fill-rule="evenodd" clip-rule="evenodd" d="M10.3498 1.86393H10.348H10.3461H10.3443H10.3424H5.87285H5.87141H5.86997H5.86853H5.86708H5.86564H4.84799V2.53151C5.19329 2.6248 5.49745 2.83426 5.70396 3.12709C5.91463 3.42584 6.00748 3.79308 5.96105 4.15584C5.91415 4.52067 5.73149 4.85255 5.45231 5.09209C5.16992 5.33451 4.80733 5.46589 4.43513 5.46589C4.06294 5.46589 3.70034 5.33435 3.41796 5.09209C3.13861 4.85255 2.95643 4.52067 2.90969 4.15584C2.86326 3.79324 2.95579 3.42584 3.1663 3.12709C3.37265 2.8341 3.67745 2.6248 4.02275 2.53135V1.86393H2.46209L2.14209 1.86345H1.80655C1.67016 1.86505 1.53521 1.87865 1.40938 1.93145C1.28484 1.98362 1.17054 2.05915 1.07497 2.15484C0.980516 2.24941 0.905116 2.36126 0.854369 2.48511C0.804263 2.60736 0.778969 2.73953 0.78105 2.87235V6.00754H15.1961V2.85843C15.1945 2.72577 15.1653 2.5952 15.1118 2.47391C15.0577 2.3515 14.9791 2.24172 14.8821 2.14971C14.7839 2.05675 14.6676 1.9841 14.5416 1.93545C14.4145 1.88633 14.2782 1.86185 14.1412 1.86393H13.5975H13.0541H12.1181V2.53135C12.4634 2.6248 12.768 2.8341 12.9745 3.12709C13.185 3.42584 13.278 3.79308 13.2316 4.15584C13.1848 4.52067 13.0022 4.85271 12.723 5.09209C12.4405 5.33451 12.0779 5.46589 11.7057 5.46589C11.3335 5.46589 10.9709 5.33451 10.6885 5.09209C10.4093 4.85255 10.2263 4.52083 10.1798 4.15584C10.1335 3.79308 10.2263 3.42584 10.4368 3.12709C10.643 2.83426 10.9477 2.6248 11.2928 2.53151V1.86393H10.3498ZM2.90809 1.04496H4.02275V0.39802C4.02275 0.292409 4.06566 0.191599 4.14154 0.117992C4.19885 0.0627862 4.27073 0.0258225 4.34789 0.010781L4.34773 0.00886089L4.39239 0.00326024C4.4537 -0.00442053 4.51613 0.00166026 4.57505 0.0207022C4.6338 0.0397441 4.68774 0.0719073 4.73225 0.115272C4.77611 0.157836 4.80989 0.210321 4.8299 0.268247C4.84991 0.325853 4.85599 0.385858 4.84783 0.442984V1.04496H11.2928V0.39802C11.2928 0.292409 11.3364 0.191759 11.4121 0.118152C11.4691 0.0629463 11.5409 0.0259825 11.6179 0.010781L11.6178 0.00886089L11.6625 0.00326024C11.7239 -0.00442053 11.7865 0.00150024 11.8456 0.0207022C11.904 0.0395841 11.958 0.0722274 12.0023 0.115272C12.0463 0.157996 12.0798 0.210161 12.1 0.268087C12.1201 0.325853 12.1267 0.386019 12.1179 0.443144V1.04496H14.1412V1.05969C14.6314 1.05969 15.1041 1.25283 15.4553 1.59382C15.8017 1.93001 16.0068 2.3883 16.0068 2.87235V14.1725C16.0068 14.6583 15.808 15.1205 15.4612 15.4598C15.1094 15.804 14.6341 15.9999 14.1412 15.9999H1.88019C1.38553 15.9999 0.906396 15.8098 0.55149 15.4651C0.201386 15.1253 0 14.661 0 14.1725V2.87235C0 2.3859 0.207149 1.92585 0.556772 1.58902C0.878862 1.27891 1.30661 1.07601 1.7502 1.04496H1.74668H2.19491H2.46209H2.90809ZM0.78105 6.81178V14.2013C0.782651 14.3337 0.811786 14.4641 0.865415 14.585C0.919683 14.7073 0.997804 14.8175 1.09514 14.9094C1.19359 15.002 1.30965 15.0747 1.43563 15.1235C1.56258 15.1728 1.69881 15.1974 1.83552 15.1957H14.2152C14.3514 15.1936 14.4868 15.1659 14.6125 15.1134C14.7373 15.0614 14.851 14.9856 14.9467 14.89C15.0415 14.7956 15.1169 14.6833 15.1675 14.5596C15.2178 14.4375 15.2427 14.3053 15.2408 14.1725V6.81178H0.78105ZM11.6533 3.28167C11.4739 3.28167 11.2994 3.3508 11.1707 3.47593C11.0442 3.59914 10.9712 3.76588 10.9712 3.94285C10.9712 4.07407 11.0112 4.20176 11.0857 4.30993C11.1612 4.4197 11.2682 4.50403 11.3919 4.5538C11.5169 4.60388 11.6544 4.61716 11.7868 4.59156C11.9184 4.56612 12.0402 4.50339 12.1363 4.4101C12.2309 4.31809 12.2961 4.2008 12.3225 4.07151C12.3486 3.94381 12.3353 3.8102 12.2842 3.69019C12.2323 3.56842 12.1441 3.46553 12.0332 3.39352C11.9205 3.32007 11.7878 3.28167 11.6533 3.28167ZM4.3831 3.28167C4.20333 3.28167 4.029 3.35048 3.89997 3.47593C3.77366 3.59898 3.70066 3.7662 3.70066 3.94285C3.70066 4.07423 3.74085 4.20176 3.81561 4.30993C3.89133 4.41954 3.99826 4.50403 4.12185 4.5538C4.24655 4.60388 4.38471 4.61716 4.51677 4.59156C4.6482 4.56612 4.77019 4.50339 4.86624 4.4101C4.96069 4.31809 5.026 4.20064 5.05242 4.07151C5.07851 3.94365 5.06506 3.81036 5.01368 3.69019C4.96165 3.56842 4.87376 3.46553 4.76266 3.39352C4.64996 3.32007 4.51757 3.28167 4.3831 3.28167Z" fill="#0075BF"/>
<path fill-rule="evenodd" clip-rule="evenodd" d="M10.3498 1.86393H10.348H10.3461H10.3443H10.3424H5.87285H5.87141H5.86997H5.86853H5.86708H5.86564H4.84799V2.53151C5.19329 2.6248 5.49745 2.83426 5.70396 3.12709C5.91463 3.42584 6.00748 3.79308 5.96105 4.15584C5.91415 4.52067 5.73149 4.85255 5.45231 5.09209C5.16992 5.33451 4.80733 5.46589 4.43513 5.46589C4.06294 5.46589 3.70034 5.33435 3.41796 5.09209C3.13861 4.85255 2.95643 4.52067 2.90969 4.15584C2.86326 3.79324 2.95579 3.42584 3.1663 3.12709C3.37265 2.8341 3.67745 2.6248 4.02275 2.53135V1.86393H2.46209L2.14209 1.86345H1.80655C1.67016 1.86505 1.53521 1.87865 1.40938 1.93145C1.28484 1.98362 1.17054 2.05915 1.07497 2.15484C0.980516 2.24941 0.905116 2.36126 0.854369 2.48511C0.804263 2.60736 0.778969 2.73953 0.78105 2.87235V6.00754H15.1961V2.85843C15.1945 2.72577 15.1653 2.5952 15.1118 2.47391C15.0577 2.3515 14.9791 2.24172 14.8821 2.14971C14.7839 2.05675 14.6676 1.9841 14.5416 1.93545C14.4145 1.88633 14.2782 1.86185 14.1412 1.86393H13.5975H13.0541H12.1181V2.53135C12.4634 2.6248 12.768 2.8341 12.9745 3.12709C13.185 3.42584 13.278 3.79308 13.2316 4.15584C13.1848 4.52067 13.0022 4.85271 12.723 5.09209C12.4405 5.33451 12.0779 5.46589 11.7057 5.46589C11.3335 5.46589 10.9709 5.33451 10.6885 5.09209C10.4093 4.85255 10.2263 4.52083 10.1798 4.15584C10.1335 3.79308 10.2263 3.42584 10.4368 3.12709C10.643 2.83426 10.9477 2.6248 11.2928 2.53151V1.86393H10.3498ZM2.90809 1.04496H4.02275V0.39802C4.02275 0.292409 4.06566 0.191599 4.14154 0.117992C4.19885 0.0627862 4.27073 0.0258225 4.34789 0.010781L4.34773 0.00886089L4.39239 0.00326024C4.4537 -0.00442053 4.51613 0.00166026 4.57505 0.0207022C4.6338 0.0397441 4.68774 0.0719073 4.73225 0.115272C4.77611 0.157836 4.80989 0.210321 4.8299 0.268247C4.84991 0.325853 4.85599 0.385858 4.84783 0.442984V1.04496H11.2928V0.39802C11.2928 0.292409 11.3364 0.191759 11.4121 0.118152C11.4691 0.0629463 11.5409 0.0259825 11.6179 0.010781L11.6178 0.00886089L11.6625 0.00326024C11.7239 -0.00442053 11.7865 0.00150024 11.8456 0.0207022C11.904 0.0395841 11.958 0.0722274 12.0023 0.115272C12.0463 0.157996 12.0798 0.210161 12.1 0.268087C12.1201 0.325853 12.1267 0.386019 12.1179 0.443144V1.04496H14.1412V1.05969C14.6314 1.05969 15.1041 1.25283 15.4553 1.59382C15.8017 1.93001 16.0068 2.3883 16.0068 2.87235V14.1725C16.0068 14.6583 15.808 15.1205 15.4612 15.4598C15.1094 15.804 14.6341 15.9999 14.1412 15.9999H1.88019C1.38553 15.9999 0.906396 15.8098 0.55149 15.4651C0.201386 15.1253 0 14.661 0 14.1725V2.87235C0 2.3859 0.207149 1.92585 0.556772 1.58902C0.878862 1.27891 1.30661 1.07601 1.7502 1.04496H1.74668H2.19491H2.46209H2.90809ZM0.78105 6.81178V14.2013C0.782651 14.3337 0.811786 14.4641 0.865415 14.585C0.919683 14.7073 0.997804 14.8175 1.09514 14.9094C1.19359 15.002 1.30965 15.0747 1.43563 15.1235C1.56258 15.1728 1.69881 15.1974 1.83552 15.1957H14.2152C14.3514 15.1936 14.4868 15.1659 14.6125 15.1134C14.7373 15.0614 14.851 14.9856 14.9467 14.89C15.0415 14.7956 15.1169 14.6833 15.1675 14.5596C15.2178 14.4375 15.2427 14.3053 15.2408 14.1725V6.81178H0.78105ZM11.6533 3.28167C11.4739 3.28167 11.2994 3.3508 11.1707 3.47593C11.0442 3.59914 10.9712 3.76588 10.9712 3.94285C10.9712 4.07407 11.0112 4.20176 11.0857 4.30993C11.1612 4.4197 11.2682 4.50403 11.3919 4.5538C11.5169 4.60388 11.6544 4.61716 11.7868 4.59156C11.9184 4.56612 12.0402 4.50339 12.1363 4.4101C12.2309 4.31809 12.2961 4.2008 12.3225 4.07151C12.3486 3.94381 12.3353 3.8102 12.2842 3.69019C12.2323 3.56842 12.1441 3.46553 12.0332 3.39352C11.9205 3.32007 11.7878 3.28167 11.6533 3.28167ZM4.3831 3.28167C4.20333 3.28167 4.029 3.35048 3.89997 3.47593C3.77366 3.59898 3.70066 3.7662 3.70066 3.94285C3.70066 4.07423 3.74085 4.20176 3.81561 4.30993C3.89133 4.41954 3.99826 4.50403 4.12185 4.5538C4.24655 4.60388 4.38471 4.61716 4.51677 4.59156C4.6482 4.56612 4.77019 4.50339 4.86624 4.4101C4.96069 4.31809 5.026 4.20064 5.05242 4.07151C5.07851 3.94365 5.06506 3.81036 5.01368 3.69019C4.96165 3.56842 4.87376 3.46553 4.76266 3.39352C4.64996 3.32007 4.51757 3.28167 4.3831 3.28167ZM10.348 1.69463H10.3498H11.2928C11.3863 1.69463 11.4622 1.77048 11.4622 1.86393V2.53151H11.462C11.4619 2.60624 11.4121 2.67473 11.3365 2.69489C11.1825 2.73649 11.037 2.80466 10.9075 2.89459C10.7793 2.98388 10.6659 3.09525 10.5752 3.22438C10.4818 3.35672 10.4144 3.50473 10.3759 3.65947C10.3373 3.81388 10.327 3.9755 10.3472 4.13471C10.3675 4.29489 10.4183 4.44866 10.494 4.5882C10.5705 4.72917 10.6738 4.85687 10.7983 4.96376C10.9232 5.07097 11.0666 5.15434 11.22 5.2105C11.3738 5.26699 11.5387 5.29659 11.7057 5.29659C11.8726 5.29659 12.0375 5.26699 12.1914 5.2105C12.3447 5.15434 12.488 5.07113 12.6132 4.96376C12.7366 4.85783 12.8397 4.73013 12.9165 4.58852C12.9929 4.44787 13.0438 4.29409 13.0641 4.13471C13.0845 3.9755 13.0742 3.81404 13.0357 3.65963C12.9971 3.50489 12.9295 3.35704 12.8362 3.22438C12.7451 3.09525 12.6319 2.98388 12.5037 2.89459C12.3758 2.80578 12.233 2.73841 12.0814 2.69665C12.0055 2.68001 11.9487 2.61232 11.9487 2.53135V1.86393C11.9487 1.77048 12.0246 1.69463 12.1181 1.69463H13.0541H13.5975H14.1412V1.69527C14.2137 1.69447 14.2872 1.69991 14.3592 1.71191C14.3644 1.71223 14.3695 1.71287 14.3746 1.71383C14.451 1.72743 14.5273 1.74904 14.6024 1.778C14.6757 1.80632 14.7468 1.84184 14.8131 1.88361C14.8792 1.92505 14.9416 1.97338 14.9984 2.0273C15.0532 2.07915 15.1031 2.13643 15.1468 2.19708C15.1486 2.19932 15.1504 2.20172 15.1521 2.20412C15.1963 2.26685 15.2352 2.33469 15.2666 2.40574C15.298 2.47679 15.3225 2.55136 15.3391 2.62736C15.3538 2.69585 15.3628 2.76754 15.3646 2.84082C15.3652 2.84658 15.3655 2.85251 15.3655 2.85843V6.00754C15.3655 6.10099 15.2896 6.17684 15.1961 6.17684H0.78105C0.687561 6.17684 0.611682 6.10099 0.611682 6.00754V2.87235H0.612322C0.611361 2.79554 0.618085 2.71857 0.632012 2.64416C0.64626 2.56816 0.668832 2.49295 0.698287 2.42094C0.727743 2.3491 0.764402 2.28029 0.807464 2.21596C0.851487 2.1502 0.901274 2.08907 0.955222 2.03514C1.01045 1.97994 1.07144 1.93001 1.13628 1.88681L1.1366 1.88729C1.19935 1.84504 1.26611 1.80904 1.33494 1.77944C1.33782 1.778 1.34086 1.77672 1.34391 1.77544C1.42059 1.74327 1.49935 1.72295 1.57891 1.71079C1.64599 1.70055 1.71722 1.69623 1.78958 1.69495C1.79518 1.69447 1.80079 1.69415 1.80655 1.69415H2.14209V1.69479L2.46209 1.69527V1.69463H4.02275C4.11624 1.69463 4.19212 1.77048 4.19212 1.86393V2.53135H4.19196C4.1918 2.60608 4.14202 2.67457 4.06646 2.69473C3.9123 2.73633 3.76662 2.8045 3.63695 2.89475C3.50872 2.98388 3.3957 3.09525 3.30462 3.22438C3.21129 3.35688 3.14405 3.50473 3.10547 3.65931H3.10531C3.06705 3.81372 3.05665 3.97518 3.07714 4.13471C3.09763 4.29409 3.14821 4.44803 3.22458 4.58868C3.30142 4.73029 3.40419 4.85767 3.52777 4.96376C3.65264 5.07097 3.79624 5.15418 3.9496 5.2105C4.10344 5.26699 4.26816 5.29659 4.43513 5.29659C4.6021 5.29659 4.76699 5.26699 4.92083 5.2105C5.07419 5.15434 5.21762 5.07097 5.34249 4.96376C5.46591 4.85783 5.56901 4.73013 5.64585 4.58852L5.64633 4.58884C5.64633 4.58868 5.64649 4.58868 5.64649 4.58852C5.72253 4.44867 5.77312 4.29505 5.79361 4.13471C5.81394 3.9755 5.80369 3.81388 5.76511 3.65947C5.72653 3.50473 5.65897 3.35688 5.56565 3.22438C5.47456 3.09509 5.36122 2.98372 5.23315 2.89443C5.10556 2.80594 4.96277 2.73857 4.81133 2.69681C4.73545 2.68001 4.67862 2.61232 4.67862 2.53151V1.86393C4.67862 1.77048 4.7545 1.69463 4.84799 1.69463H5.86564H5.86708H5.86853H5.86997H5.87141H5.87285H10.3424H10.3443H10.3461H10.348ZM4.02275 1.21426H2.90809H2.46209H2.19491H1.7526C1.55714 1.22914 1.3644 1.28099 1.18526 1.36244C0.997644 1.44805 0.823313 1.56694 0.673954 1.71063C0.51339 1.86537 0.385803 2.04811 0.299518 2.24732C0.215313 2.44158 0.169369 2.65377 0.169369 2.87235V14.1725C0.169369 14.3933 0.214513 14.6084 0.298717 14.8059C0.384042 15.0059 0.509868 15.1894 0.669312 15.3442C0.830196 15.5002 1.01926 15.6219 1.224 15.7042C1.42987 15.7869 1.65303 15.8306 1.88019 15.8306H14.1412C14.3664 15.8306 14.5867 15.7863 14.7894 15.7034C14.9925 15.6203 15.1814 15.4966 15.3428 15.3389L15.3431 15.3392C15.5013 15.1843 15.6255 15.0016 15.7097 14.8033C15.7929 14.6068 15.8374 14.3925 15.8374 14.1725V2.87235C15.8374 2.65569 15.7918 2.44478 15.7081 2.25021C15.6223 2.05115 15.496 1.86857 15.3375 1.71479C15.1779 1.55974 14.9898 1.43796 14.786 1.35524C14.5833 1.27283 14.3644 1.22898 14.1412 1.22898C14.1165 1.22898 14.0932 1.2237 14.072 1.21426H12.1179C12.0244 1.21426 11.9485 1.13841 11.9485 1.04496V0.443144C11.9485 0.434824 11.9492 0.426503 11.9504 0.418022C11.9527 0.40298 11.9532 0.387619 11.9517 0.373537C11.9501 0.358496 11.9471 0.343454 11.9426 0.329053C11.9418 0.327293 11.9412 0.325533 11.9405 0.323612C11.9357 0.309851 11.9291 0.29609 11.9211 0.282808C11.9199 0.280728 11.9184 0.278808 11.9171 0.276728C11.9077 0.261686 11.8963 0.247765 11.8845 0.236244C11.8738 0.225843 11.8622 0.216402 11.8504 0.208561C11.8475 0.206961 11.8446 0.205361 11.8417 0.2036C11.8275 0.195119 11.8131 0.188079 11.7992 0.183118C11.7972 0.182638 11.7953 0.181998 11.7934 0.181358C11.7768 0.176078 11.7599 0.172237 11.7439 0.170477C11.7422 0.170317 11.7403 0.170157 11.7385 0.169997C11.7217 0.168397 11.7028 0.168877 11.6829 0.171277L11.6629 0.173838C11.6588 0.174958 11.6546 0.175918 11.6504 0.176718C11.6293 0.180878 11.6091 0.187599 11.5912 0.19624C11.589 0.19752 11.5867 0.1988 11.5845 0.19992C11.5646 0.210161 11.5459 0.223602 11.5299 0.239124C11.5083 0.260086 11.4908 0.285529 11.4793 0.312731C11.4683 0.338654 11.4622 0.367937 11.4622 0.39802V1.04496C11.4622 1.13841 11.3863 1.21426 11.2928 1.21426H4.84783C4.75434 1.21426 4.67846 1.13841 4.67846 1.04496V0.442984H4.67862C4.67862 0.435143 4.67926 0.427143 4.68038 0.419142C4.68246 0.40394 4.68278 0.387939 4.68134 0.372737C4.6799 0.357536 4.67574 0.340574 4.66982 0.323132C4.66389 0.306011 4.65637 0.290169 4.64788 0.276887C4.63892 0.262806 4.62755 0.249045 4.61443 0.236244C4.61427 0.236084 4.61395 0.235764 4.61379 0.235604C4.60226 0.224402 4.58801 0.213521 4.572 0.20392C4.55632 0.194479 4.53951 0.186799 4.52286 0.181358C4.50573 0.175918 4.48844 0.172077 4.47195 0.170317C4.47083 0.170157 4.46971 0.170157 4.46859 0.169997C4.45178 0.168557 4.43289 0.168877 4.41288 0.171277L4.39175 0.173997C4.38775 0.174957 4.38374 0.175918 4.37958 0.176718C4.35797 0.180878 4.33588 0.188879 4.31507 0.1996C4.29394 0.210481 4.27457 0.224242 4.25872 0.239604C4.23711 0.260726 4.22014 0.285529 4.20909 0.311611C4.19805 0.337534 4.19212 0.367137 4.19212 0.39802V1.04496C4.19212 1.13841 4.11624 1.21426 4.02275 1.21426ZM0.611682 14.2013V6.81178C0.611682 6.71833 0.687561 6.64248 0.78105 6.64248H15.2408C15.3343 6.64248 15.4102 6.71833 15.4102 6.81178V14.1725H15.4095C15.4105 14.2495 15.4038 14.3266 15.3897 14.4012C15.3754 14.477 15.353 14.5521 15.3236 14.6238C15.2935 14.6972 15.2567 14.7665 15.2149 14.8292L15.2144 14.8289C15.2144 14.8291 15.2142 14.8291 15.2142 14.8292C15.171 14.8939 15.1211 14.9547 15.0658 15.0097C15.0101 15.0652 14.9491 15.1155 14.884 15.1587L14.8838 15.1585C14.8185 15.2022 14.7489 15.2397 14.6773 15.2694C14.6053 15.2994 14.5296 15.3227 14.4529 15.3386C14.3813 15.3534 14.3075 15.3619 14.2334 15.364C14.2275 15.3646 14.2214 15.365 14.2152 15.365H1.83552V15.3643C1.75788 15.3651 1.67928 15.3587 1.60228 15.3446C1.52384 15.3307 1.44748 15.3091 1.3748 15.2809C1.30148 15.2526 1.23057 15.2171 1.16461 15.1755C1.09866 15.1339 1.03622 15.0859 0.979395 15.0324C0.922565 14.9788 0.871018 14.9195 0.826355 14.8564L0.826675 14.8563C0.826514 14.8561 0.826515 14.8559 0.826355 14.8558C0.78057 14.7911 0.74135 14.723 0.710613 14.6532C0.681798 14.5879 0.658586 14.5186 0.641778 14.4465C0.640337 14.4418 0.639056 14.4372 0.638095 14.4324C0.623368 14.3639 0.614403 14.2922 0.612642 14.2189C0.612002 14.2132 0.611682 14.2072 0.611682 14.2013ZM11.3292 3.17558C11.4321 3.13429 11.5422 3.11237 11.6533 3.11237C11.7362 3.11237 11.8197 3.12469 11.9 3.14821C11.9786 3.17126 12.0547 3.20614 12.1251 3.25207C12.1949 3.29735 12.258 3.35256 12.3106 3.41496C12.3633 3.47705 12.4073 3.54794 12.4397 3.6241L12.4395 3.62426C12.4395 3.62442 12.4397 3.62458 12.4397 3.62474C12.4718 3.70059 12.4923 3.78076 12.5003 3.86141C12.5085 3.94173 12.5043 4.02446 12.4878 4.10527C12.4714 4.18672 12.4425 4.26465 12.4035 4.33537L12.4032 4.33521C12.3638 4.40738 12.3134 4.47347 12.2541 4.53107C12.197 4.5866 12.1325 4.63364 12.063 4.67077C12.0599 4.67253 12.0567 4.67445 12.0535 4.67605C11.9807 4.71381 11.9013 4.74149 11.8185 4.7575C11.7374 4.77318 11.6535 4.77686 11.5709 4.76902C11.488 4.76118 11.4062 4.74149 11.329 4.71045C11.2514 4.67925 11.1788 4.637 11.115 4.58612C11.0549 4.53843 11.0003 4.48083 10.9541 4.41554C10.9515 4.4125 10.9491 4.40914 10.9467 4.40578C10.9016 4.34033 10.8662 4.26849 10.842 4.19344C10.8409 4.19072 10.8399 4.188 10.8391 4.18512C10.8146 4.10639 10.8018 4.02446 10.8018 3.94285C10.8018 3.83244 10.8249 3.72443 10.8675 3.62458C10.9102 3.52425 10.9734 3.4324 11.0528 3.35496C11.1327 3.27719 11.2272 3.21654 11.3292 3.17558ZM4.05845 3.17558C4.16155 3.13413 4.27201 3.11237 4.3831 3.11237C4.46619 3.11237 4.54927 3.12453 4.62947 3.14821C4.70791 3.17126 4.78411 3.20614 4.85455 3.25207C4.92435 3.29735 4.9871 3.3524 5.03993 3.41464C5.09244 3.47673 5.13646 3.54746 5.16912 3.6241C5.20129 3.69947 5.22211 3.77996 5.23011 3.86141C5.23827 3.94173 5.23427 4.0243 5.21778 4.10527C5.20113 4.18688 5.17232 4.26465 5.13342 4.33537L5.1331 4.33521C5.09372 4.40738 5.04297 4.47363 4.98406 4.53107C4.92691 4.58644 4.86224 4.6338 4.79276 4.67077C4.78972 4.67269 4.78668 4.67445 4.78347 4.67605C4.71064 4.71397 4.63107 4.74149 4.54847 4.7575C4.46747 4.77318 4.38342 4.77686 4.30082 4.76902C4.21758 4.76118 4.13577 4.74133 4.05893 4.71045C3.98129 4.67925 3.90909 4.637 3.84506 4.58628C3.78135 4.53555 3.7242 4.47443 3.67665 4.40578C3.62943 4.33745 3.59277 4.26273 3.5686 4.18512H3.56876C3.56876 4.1848 3.5686 4.18464 3.5686 4.18448C3.54426 4.10607 3.5313 4.0243 3.5313 3.94285C3.5313 3.83276 3.55435 3.72459 3.59693 3.62442C3.63967 3.52441 3.70259 3.43256 3.78215 3.35496C3.86219 3.27719 3.9568 3.21638 4.05845 3.17558Z" fill="#0075BF"/>
</svg>
