<svg width="24" height="24" viewBox="0 0 24 24" fill="none" xmlns="http://www.w3.org/2000/svg">
<path d="M20.3793 4.79489C19.9838 4.41169 19.453 4.19373 18.901 4.19373V4.17791H16.6264V3.50116C16.637 3.43612 16.6282 3.36932 16.6071 3.30428C16.5842 3.23925 16.5473 3.18124 16.4981 3.13202C16.4489 3.0828 16.3874 3.04765 16.3223 3.02479C16.2555 3.0037 16.1852 2.99667 16.1167 3.00546L16.0657 3.01249V3.01425C15.9796 3.03183 15.8987 3.07225 15.8337 3.13554C15.7493 3.21815 15.7001 3.33241 15.7001 3.45018V4.17791H8.45092V3.4994C8.45971 3.43436 8.45268 3.36756 8.43159 3.30253C8.40873 3.23749 8.37006 3.17772 8.3226 3.13026C8.27338 3.08104 8.21186 3.04589 8.14506 3.02304C8.07827 3.00194 8.00796 2.99491 7.9394 3.0037L7.88843 3.01073V3.01249C7.8023 3.03007 7.72144 3.0705 7.6564 3.13378C7.57027 3.21639 7.52281 3.33065 7.52281 3.44842V4.17615H4.96873C4.46952 4.21131 3.98788 4.43982 3.62753 4.78786C3.23203 5.16755 3 5.68609 3 6.23277V18.9451C3 19.4953 3.22676 20.0174 3.6205 20.3988C4.01952 20.7873 4.55916 21 5.11463 21H18.9028C19.4565 21 19.9908 20.7803 20.3881 20.3918C20.7783 20.0104 21.0016 19.4901 21.0016 18.9434V6.23277C20.9998 5.68785 20.7695 5.17282 20.3793 4.79489ZM16.1044 6.69331C16.2555 6.69331 16.4049 6.7355 16.5315 6.81987C16.6563 6.90073 16.7547 7.01675 16.8145 7.15385C16.8725 7.2892 16.8866 7.43862 16.8585 7.58276C16.8286 7.72865 16.7547 7.86049 16.6493 7.9642C16.5403 8.06966 16.4049 8.13998 16.2555 8.1681C16.1061 8.19623 15.9514 8.18216 15.8108 8.12591C15.6719 8.06966 15.5507 7.97474 15.4663 7.8517C15.3819 7.73041 15.338 7.58627 15.338 7.43862C15.338 7.23999 15.4206 7.0519 15.563 6.91304C15.7071 6.77241 15.9022 6.69331 16.1044 6.69331ZM7.92886 6.69331C8.08003 6.69331 8.22944 6.7355 8.356 6.81987C8.4808 6.90073 8.57924 7.01675 8.639 7.15385C8.69701 7.2892 8.71283 7.43862 8.68295 7.58276C8.65307 7.72865 8.57924 7.86049 8.47377 7.9642C8.36479 8.06966 8.22768 8.13998 8.08003 8.1681C7.93061 8.19623 7.77593 8.18216 7.6353 8.12591C7.49644 8.06966 7.37515 7.97474 7.29078 7.8517C7.2064 7.73041 7.1607 7.58627 7.1607 7.43862C7.1607 7.23999 7.24332 7.0519 7.3857 6.91304C7.53159 6.77065 7.72671 6.69331 7.92886 6.69331ZM3.8789 6.23277C3.87714 6.08336 3.90526 5.93394 3.96151 5.79684C4.01776 5.65797 4.1039 5.53141 4.20936 5.42594C4.31659 5.31872 4.44491 5.23258 4.58553 5.17458C4.72791 5.11481 4.87908 5.10075 5.03201 5.09899H7.52456V5.84957C7.13609 5.95504 6.79332 6.19058 6.56129 6.51929C6.32399 6.85503 6.22028 7.26811 6.27301 7.67592C6.32575 8.08724 6.52965 8.45989 6.8443 8.72884C7.16246 9.0013 7.57027 9.14895 7.98862 9.14895C8.40698 9.14895 8.81478 9.0013 9.13295 8.72884C9.44759 8.45989 9.65149 8.08548 9.70423 7.67592C9.75696 7.26811 9.65149 6.85503 9.41595 6.51929C9.18392 6.18882 8.84115 5.95328 8.45268 5.84957V5.09899H15.7001V5.84957C15.3116 5.95504 14.9688 6.19058 14.7368 6.51929C14.4995 6.85503 14.3958 7.26811 14.4468 7.67592C14.4995 8.08724 14.7052 8.45989 15.0198 8.72884C15.338 9.0013 15.7458 9.14895 16.1641 9.14895C16.5825 9.14895 16.9903 9.0013 17.3084 8.72884C17.6231 8.45989 17.827 8.08548 17.8797 7.67592C17.9325 7.26811 17.827 6.85503 17.5915 6.51929C17.3594 6.18882 17.0167 5.95328 16.6282 5.84957V5.09899H18.9028C19.0575 5.09723 19.2104 5.1236 19.3528 5.17985C19.4951 5.23434 19.6252 5.31696 19.736 5.42067C19.8449 5.52438 19.9328 5.64742 19.9944 5.78629C20.0541 5.9234 20.0875 6.06929 20.0893 6.21871V9.76066H3.8789V6.23277ZM20.1385 18.9451C20.1403 19.0946 20.1121 19.244 20.0559 19.3811C19.9996 19.5199 19.9135 19.6465 19.808 19.752C19.7008 19.8592 19.5725 19.9453 19.4319 20.0033C19.2912 20.0631 19.1383 20.093 18.9854 20.0965H5.06365C4.91072 20.0983 4.75604 20.0701 4.61366 20.0156C4.47127 19.9611 4.3412 19.8785 4.23046 19.7748C4.12147 19.6711 4.03358 19.5481 3.97206 19.4092C3.9123 19.2738 3.8789 19.1262 3.87714 18.9768V10.6659H20.1367V18.9451H20.1385Z" fill="black"/>
</svg>
