<svg width="28" height="18" viewBox="0 0 28 18" fill="none" xmlns="http://www.w3.org/2000/svg">
<path d="M7.7 8.59912C9.62981 8.59912 11.2 7.01024 11.2 5.05745C11.2 3.10467 9.62981 1.51579 7.7 1.51579C5.77019 1.51579 4.2 3.10467 4.2 5.05745C4.2 7.01024 5.77019 8.59912 7.7 8.59912ZM23.1 2.93245H13.3C12.9132 2.93245 12.6 3.24943 12.6 3.64079V10.0158H2.8V0.807454C2.8 0.4161 2.48675 0.0991211 2.1 0.0991211H0.7C0.31325 0.0991211 0 0.4161 0 0.807454V16.3908C0 16.7821 0.31325 17.0991 0.7 17.0991H2.1C2.48675 17.0991 2.8 16.7821 2.8 16.3908V14.2658H25.2V16.3908C25.2 16.7821 25.5133 17.0991 25.9 17.0991H27.3C27.6868 17.0991 28 16.7821 28 16.3908V7.89079C28 5.15219 25.8064 2.93245 23.1 2.93245Z" fill="black"/>
</svg>
