<?xml version="1.0" encoding="utf-8"?>
<!-- Generator: Adobe Illustrator 22.1.0, SVG Export Plug-In . SVG Version: 6.00 Build 0)  -->
<svg version="1.1" id="Layer_1" xmlns="http://www.w3.org/2000/svg" xmlns:xlink="http://www.w3.org/1999/xlink" x="0px" y="0px"
	 viewBox="0 0 1024 1024" style="enable-background:new 0 0 1024 1024;" xml:space="preserve">
<path d="M27.9,69.8h875c15.4,0,27.9,12.6,27.9,27.9v395.1c-13.9-2.5-28.3-1.5-41.9,2.8V111.7H41.9v567.8h479
	c-3.1,8.9-4.7,18.4-4.7,28.3v13.6H27.9C12.6,721.5,0,708.9,0,693.5V97.7C0,82.4,12.6,69.8,27.9,69.8L27.9,69.8z"/>
<path d="M328.9,280.1V370c0,6.2-5.6,10.6-11.6,10.6h-64.2c-6,0-11.6-4.4-11.6-10.6v-53h-30v53c0,6.2-5.6,10.6-11.5,10.6h-64.2
	c-6,0-11.6-4.4-11.6-10.6v-89.9h-14.8c-6.7,0-13.2-3.5-16-9.8c-2.8-6.3-0.8-13.3,4.6-17.5l117.1-93.6c6.6-5.2,16.3-5.2,22.9,0
	l117.1,93.6c5.3,4.3,7.4,11.2,4.6,17.5c-2.8,6.3-9.3,9.8-16,9.8H328.9L328.9,280.1z M327.6,258.9c-33.7-26.9-67.3-53.8-101-80.7
	l-101,80.7h10.2c6,0,11.5,4.4,11.5,10.6v89.9h41.1v-53c0-6.2,5.6-10.6,11.6-10.6h53.1c6,0,11.5,4.4,11.5,10.6v53h41.1v-89.9
	c0-6.2,5.6-10.6,11.6-10.6H327.6L327.6,258.9z"/>
<path d="M825.8,209.1H417c-3.4,0-6.7,1.4-9.1,4c-2.4,2.5-3.8,6-3.8,9.6c0,3.6,1.4,7.1,3.8,9.6c2.4,2.5,5.7,4,9.1,4h408.8
	c3.4,0,6.7-1.4,9.2-4c2.4-2.5,3.8-6,3.8-9.6c0-3.6-1.4-7-3.8-9.6C832.5,210.6,829.2,209.1,825.8,209.1z"/>
<path d="M825.8,283.8H417c-3.4,0-6.7,1.4-9.1,4c-2.4,2.5-3.8,6-3.8,9.6c0,3.6,1.4,7.1,3.8,9.6c2.4,2.5,5.7,4,9.1,4h408.8
	c3.4,0,6.7-1.4,9.2-4c2.4-2.5,3.8-6,3.8-9.6c0-3.6-1.4-7-3.8-9.6C832.5,285.3,829.2,283.8,825.8,283.8z"/>
<path d="M485.9,563.9H99.5c-1.9,0-3.8,1.4-5.1,4s-2.1,6-2.1,9.6c0,3.6,0.8,7.1,2.1,9.6s3.2,4,5.1,4h386.4c1.9,0,3.8-1.4,5.1-4
	c1.4-2.5,2.1-6,2.1-9.6c0-3.6-0.8-7-2.1-9.6C489.7,565.4,487.8,563.9,485.9,563.9z"/>
<path d="M584.4,489.2H105.7c-3.6,0-7.1,1.4-9.6,4c-2.5,2.5-4,6-4,9.6c0,3.6,1.4,7.1,4,9.6c2.5,2.5,6,4,9.6,4h478.7
	c3.6,0,7-1.4,9.6-4c2.5-2.5,4-6,4-9.6c0-3.6-1.4-7-4-9.6S588,489.2,584.4,489.2z"/>
<path d="M976.6,833.5c9.3,18.6-3.9,40.6-24.3,40.6H563.7c-20.4,0-33.6-22-24.3-40.6L733.7,447c10.1-20.2,38.4-20.2,48.6,0
	L976.6,833.5L976.6,833.5z M806.6,434.3c-20.3-40.4-76.9-40.4-97.2,0L515.1,820.8c-18.6,37.1,7.7,81.2,48.6,81.2h388.7
	c40.8,0,67.2-44.1,48.6-81.2L806.6,434.3L806.6,434.3z M737.2,555.3v179.8c0,11.5,9.3,20.8,20.7,20.8s20.7-9.3,20.7-20.8V555.3
	c0-11.5-9.3-20.7-20.7-20.7S737.2,543.9,737.2,555.3z M758,825.1c11.5,0,20.7-9.3,20.7-20.7c0-11.5-9.3-20.7-20.7-20.7
	c-11.5,0-20.7,9.3-20.7,20.7C737.2,815.8,746.5,825.1,758,825.1L758,825.1z"/>
</svg>
