<svg width="20" height="24" viewBox="0 0 20 24" fill="none" xmlns="http://www.w3.org/2000/svg">
<path d="M19.184 3.53599C19.184 1.56799 17.648 0 15.728 0H3.45601C1.53601 0 0 1.58399 0 3.53599V20.48C0 22.416 1.53601 24 3.45601 24H12.816H12.928C12.96 24 12.96 24 12.992 23.968C13.024 23.968 13.024 23.968 13.056 23.936C13.088 23.936 13.088 23.904 13.12 23.904C13.12 23.904 13.152 23.904 13.152 23.872L13.232 23.776L18.992 17.888C18.992 17.888 18.992 17.856 19.024 17.856L19.088 17.792C19.088 17.76 19.12 17.76 19.12 17.728C19.12 17.696 19.152 17.696 19.152 17.664C19.152 17.632 19.152 17.632 19.184 17.6V17.536V17.424V3.53599ZM1.152 20.464V3.552C1.152 2.272 2.20801 1.18403 3.45601 1.18403H15.728C17.008 1.18403 18.032 2.24 18.032 3.552V16.96H14.272C13.168 16.96 12.24 17.904 12.24 19.008V22.848H3.45601C2.19201 22.832 1.152 21.776 1.152 20.464ZM17.2 18.112L13.424 21.968V18.976C13.424 18.48 13.808 18.096 14.304 18.096H17.2V18.112Z" fill="#94C21F"/>
<path d="M4.78574 4.60742V15.3914M4.38574 5.19941H14.7857H4.38574ZM4.38574 14.7994H14.7857H4.38574ZM4.38574 8.39941H14.7857H4.38574ZM4.38574 11.5994H14.7857H4.38574ZM14.3857 4.60742V15.3914V4.60742ZM9.58574 4.78345V14.3994V4.78345Z" stroke="#94C21F" stroke-width="0.75"/>
</svg>
