<svg width="42" height="40" viewBox="0 0 42 40" fill="none" xmlns="http://www.w3.org/2000/svg">
<path fill-rule="evenodd" clip-rule="evenodd" d="M20.6884 16.7231H26.6496C26.8575 16.7231 27.0255 16.883 27.0255 17.0812V18.4973C26.7715 18.5437 26.5211 18.5997 26.2746 18.6647V17.4388H21.0643V20.3446H22.8351C22.543 20.5679 22.2649 20.8071 22.0022 21.0608H20.6884C20.4813 21.0608 20.3127 20.9003 20.3127 20.7027V17.0812C20.3127 16.883 20.4813 16.7231 20.6884 16.7231Z" fill="#003A54"/>
<path fill-rule="evenodd" clip-rule="evenodd" d="M29.339 35H28.3516C27.5531 35 26.9033 34.3805 26.9033 33.619V33.3005C26.5636 33.1971 26.2339 33.0665 25.9171 32.9103L25.6803 33.1361C25.1068 33.6831 24.1884 33.6671 23.6317 33.1358L22.9336 32.4702C22.376 31.9392 22.3601 31.064 22.9339 30.5173L23.1704 30.2918C23.0066 29.9897 22.8696 29.6754 22.7612 29.3516H22.4271C21.6283 29.3516 20.9785 28.7321 20.9785 27.9708V27.0291C20.9785 26.2679 21.6283 25.6484 22.4271 25.6484H22.7612C22.8696 25.3245 23.0066 25.0103 23.1704 24.7082L22.9339 24.4825C22.3601 23.9363 22.376 23.0608 22.9339 22.5294L23.632 21.8642C24.19 21.3312 25.108 21.318 25.6806 21.8642L25.9171 22.0896C26.2339 21.9335 26.564 21.8028 26.9033 21.6995V21.3811C26.9033 20.6195 27.5531 20 28.3519 20H29.3393C30.1378 20 30.7876 20.6195 30.7876 21.3811V21.6995C31.1269 21.8028 31.457 21.9335 31.7738 22.0896L32.0106 21.8642C32.5838 21.3168 33.5025 21.3329 34.0592 21.8642L34.7573 22.5297C35.3149 23.0607 35.3308 23.936 34.757 24.4827L34.5205 24.7082C34.6843 25.0103 34.8213 25.3245 34.9297 25.6484H35.2638C36.0626 25.6484 36.7124 26.2679 36.7124 27.0291V27.9708C36.7124 28.7321 36.0626 29.3516 35.2638 29.3516H34.9297C34.8213 29.6754 34.6843 29.9897 34.5205 30.2918L34.7573 30.5175C35.3308 31.0637 35.3149 31.9392 34.757 32.4705L34.0589 33.1361C33.5009 33.6687 32.5829 33.6819 32.0103 33.1358L31.7738 32.9103C31.457 33.0665 31.1269 33.1971 30.7876 33.3005V33.6192C30.7876 34.3805 30.1378 35 29.339 35ZM26.0711 31.9874C26.5115 32.2357 26.9852 32.423 27.4794 32.5447C27.6829 32.5948 27.8253 32.7698 27.8253 32.9701V33.619C27.8253 33.8957 28.0614 34.121 28.3519 34.121H29.3393C29.6295 34.121 29.8656 33.8957 29.8656 33.619V32.9701C29.8656 32.7698 30.008 32.5948 30.2115 32.5447C30.7057 32.423 31.1794 32.2357 31.6198 31.9874C31.8009 31.8851 32.0314 31.9131 32.1804 32.0549L32.6625 32.5143C32.8703 32.7128 33.2042 32.7082 33.4072 32.5147L34.1054 31.849C34.3076 31.6565 34.3142 31.338 34.1054 31.1393L33.6232 30.6794C33.4745 30.5373 33.4451 30.3176 33.5524 30.1449C33.8128 29.7251 34.0093 29.2734 34.1369 28.8023C34.1895 28.6083 34.3731 28.4726 34.5831 28.4726H35.2638C35.5541 28.4726 35.7904 28.2474 35.7904 27.9708V27.0294C35.7904 26.7526 35.5541 26.5274 35.2638 26.5274H34.5831C34.3731 26.5274 34.1895 26.3916 34.1369 26.1977C34.0093 25.7265 33.8128 25.2749 33.5524 24.855C33.4451 24.6824 33.4745 24.4626 33.6232 24.3206L34.1054 23.861C34.3136 23.6625 34.3084 23.3446 34.1054 23.1515L33.4072 22.4856C33.205 22.2923 32.871 22.2866 32.6628 22.4853L32.1804 22.9451C32.0319 23.0871 31.8009 23.1149 31.6198 23.0129C31.1794 22.7646 30.7057 22.577 30.2115 22.4553C30.008 22.4053 29.8656 22.2302 29.8656 22.0299V21.3811C29.8656 21.1043 29.6295 20.879 29.3393 20.879H28.3519C28.0614 20.879 27.8253 21.1043 27.8253 21.3811V22.0299C27.8253 22.2302 27.6829 22.4053 27.4794 22.4553C26.9852 22.577 26.5115 22.7643 26.0711 23.0129C25.89 23.1149 25.6595 23.0868 25.5105 22.9451L25.0284 22.4856C24.8206 22.2872 24.4867 22.2915 24.2842 22.4853L23.5858 23.1511C23.3836 23.3438 23.3767 23.6619 23.5855 23.8607L24.0677 24.3206C24.2164 24.4626 24.2458 24.6824 24.1388 24.855C23.8781 25.2749 23.6816 25.7265 23.554 26.1977C23.5014 26.3916 23.3178 26.5274 23.1078 26.5274H22.4271C22.1368 26.5274 21.9005 26.7525 21.9005 27.0291V27.9708C21.9005 28.2474 22.1368 28.4726 22.4271 28.4726H23.1078C23.3178 28.4726 23.5014 28.6083 23.554 28.8023C23.6816 29.2734 23.8781 29.7251 24.1385 30.1449C24.2458 30.3176 24.2164 30.5373 24.0677 30.6794L23.5858 31.139C23.3773 31.3374 23.3825 31.6554 23.5855 31.8485L24.2837 32.5143C24.4864 32.7077 24.8199 32.7134 25.0281 32.5147L25.5105 32.0549C25.6202 31.9503 25.848 31.8618 26.0711 31.9874Z" fill="#003A54"/>
<path fill-rule="evenodd" clip-rule="evenodd" d="M28.8451 30.8333C26.9171 30.8333 25.3489 29.3382 25.3489 27.5001C25.3489 25.662 26.9171 24.167 28.8451 24.167C30.7731 24.167 32.3413 25.662 32.3413 27.5001C32.3413 29.3382 30.7731 30.8333 28.8451 30.8333ZM28.8451 25.0646C27.4364 25.0646 26.2904 26.1572 26.2904 27.5001C26.2904 28.8431 27.4364 29.9357 28.8451 29.9357C30.2538 29.9357 31.3998 28.8431 31.3998 27.5001C31.3998 26.1572 30.2538 25.0646 28.8451 25.0646Z" fill="#003A54"/>
<path d="M11.7427 24.5016L10.0999 23.6573C10.6471 23.2859 11.0016 22.6963 11.0016 22.0336C11.0016 20.9123 9.98712 20 8.74011 20C7.49325 20 6.47879 20.9123 6.47879 22.0336C6.47879 22.6965 6.83344 23.286 7.38078 23.6575L5.73785 24.503C5.42679 24.6634 5.23783 24.9632 5.24482 25.2869L5.33154 28.6213C5.33666 28.8186 5.51848 28.9744 5.73785 28.9701C5.95722 28.9655 6.13082 28.8018 6.1257 28.6047L6.03897 25.2715C6.03742 25.1983 6.0866 25.1465 6.13268 25.1228L8.13956 24.09C8.16842 24.0751 8.1996 24.0676 8.2328 24.0676H8.23296L9.24757 24.0671C9.28403 24.0671 9.31785 24.0759 9.3481 24.0932C9.35322 24.0962 9.35849 24.0989 9.36392 24.1017L11.3485 25.1216C11.4128 25.1546 11.4496 25.2189 11.4422 25.2853C11.4412 25.2944 11.4405 25.3035 11.4403 25.3125L11.2994 30.7321C11.2976 30.813 11.2351 30.8683 11.1738 30.8872C11.1707 30.8882 11.1674 30.8892 11.1643 30.8903L10.0285 31.2706C9.8734 31.3226 9.77039 31.4557 9.77008 31.6046L9.76465 34.1163C9.76465 34.2086 9.68118 34.2838 9.57801 34.2838L7.90173 34.2857C7.79795 34.2857 7.71339 34.2098 7.71339 34.1163C7.71339 33.3916 7.71246 32.5936 7.71029 31.6047C7.70998 31.4557 7.60697 31.3226 7.45183 31.2708L6.30225 30.8857C6.21909 30.8578 6.18139 30.7875 6.18093 30.73C6.18093 30.7282 6.18077 30.7262 6.18077 30.7244L6.1257 28.6047C6.12058 28.4074 5.93767 28.2515 5.71939 28.2559C5.50002 28.2605 5.32642 28.4242 5.33154 28.6213L5.38661 30.7388C5.39142 31.1008 5.64756 31.4285 6.02501 31.5551L6.9166 31.8536C6.9183 32.7293 6.91908 33.4535 6.91908 34.1163C6.91908 34.6037 7.35999 35 7.90235 35L9.57848 34.9979C10.1191 34.9979 10.559 34.6024 10.559 34.117L10.5638 31.8536L11.4374 31.5611C11.8221 31.4398 12.0855 31.113 12.0934 30.7474L12.2342 25.3413C12.2653 25.0002 12.0739 24.6719 11.7427 24.5016ZM8.74026 20.7143C9.54916 20.7143 10.2073 21.3061 10.2073 22.0336C10.2073 22.761 9.54916 23.3528 8.74026 23.3528C7.93121 23.3528 7.27311 22.761 7.27311 22.0336C7.27311 21.3062 7.93121 20.7143 8.74026 20.7143Z" fill="#003A54"/>
<path fill-rule="evenodd" clip-rule="evenodd" d="M13.9856 28.4157H18.1305C18.3384 28.4157 18.5064 28.255 18.5064 28.0573V23.4384C18.5064 23.2403 18.3384 23.0801 18.1305 23.0801H13.9856V23.796H17.7555V27.6992H13.9856V28.4157Z" fill="#003A54"/>
<path fill-rule="evenodd" clip-rule="evenodd" d="M12.1693 16.7231H18.1306C18.3385 16.7231 18.5065 16.883 18.5065 17.0812V20.7027C18.5065 20.9003 18.3385 21.0608 18.1306 21.0608H12.8438C12.6169 20.4729 12.2549 19.9473 11.7937 19.5182V17.0812C11.7937 16.883 11.9623 16.7231 12.1693 16.7231ZM12.5452 20.3446H17.7555V17.4388H12.5452V20.3446Z" fill="#003A54"/>
<path fill-rule="evenodd" clip-rule="evenodd" d="M7.91512 18.2789C7.16784 18.5556 6.31902 18.3674 5.77228 17.7973C5.39666 17.4061 5.20743 16.8775 5.25071 16.3485C5.29398 15.8202 5.56919 15.33 6.00081 14.9973L18.0761 5.69179C19.1746 4.72454 19.5596 4.81461 20.7017 5.69422L32.7727 14.9973C33.2044 15.33 33.479 15.8202 33.5229 16.3485C33.5664 16.8773 33.3777 17.4061 33.0021 17.7973C32.6296 18.1859 32.1106 18.4103 31.5579 18.4103C31.3175 18.4103 31.081 18.3625 30.8584 18.2789V18.5345C30.5002 18.4618 30.1345 18.4081 29.7627 18.3745V17.5703L19.3868 9.82989L9.0103 17.5703V18.3411C8.92124 18.336 8.83146 18.3333 8.74104 18.3333C8.45868 18.3333 8.18257 18.3589 7.91512 18.4076C7.91512 18.3647 7.91512 18.3218 7.91512 18.2789ZM13.9857 31.6667H20.2787C20.0957 31.3253 19.9345 30.9716 19.7967 30.6072H13.9857V31.6667ZM20.2401 23.2422C20.2401 23.0447 20.3797 22.879 20.5702 22.8296C20.4532 23.0175 20.3431 23.2098 20.2401 23.4061V23.2422ZM6.57527 17.0774C6.88499 17.4001 7.39015 17.4408 7.75191 17.1715L19.3868 8.49241L30.8304 17.0294L31.0216 17.1712C31.3823 17.439 31.8903 17.3991 32.1991 17.0774C32.3686 16.9005 32.4497 16.6707 32.4302 16.4321C32.4104 16.1929 32.2919 15.9801 32.0956 15.8302L19.847 6.46516C19.4914 6.13537 19.3008 6.1804 18.9255 6.46758L6.67795 15.8302C6.48165 15.9801 6.36286 16.1929 6.34334 16.4321C6.32383 16.671 6.40557 16.9002 6.57527 17.0774Z" fill="#003A54"/>
</svg>
