<svg width="15" height="16" viewBox="0 0 15 16" fill="none" xmlns="http://www.w3.org/2000/svg">
<path d="M11.3586 8.33951C11.5183 8.17984 11.5183 7.92848 11.3586 7.76881C11.2043 7.60914 10.9476 7.60914 10.7937 7.76881L7.89989 10.6572V1.11353C7.89989 0.890933 7.72296 0.708252 7.50036 0.708252C7.27776 0.708252 7.09508 0.890933 7.09508 1.11353V10.6572L4.20706 7.76881C4.0474 7.60914 3.79028 7.60914 3.63636 7.76881C3.4767 7.92848 3.4767 8.17984 3.63636 8.33951L7.21519 11.9183C7.36946 12.0726 7.62622 12.0726 7.78589 11.9183L11.3586 8.33951ZM14.1952 10.9596C14.1952 10.737 14.3721 10.5601 14.5947 10.5601C14.8173 10.5601 15 10.737 15 10.9596V14.8865C15 15.1091 14.8173 15.2918 14.5947 15.2918H0.399525C0.176927 15.2918 0 15.1091 0 14.8865V10.9596C0 10.737 0.176927 10.5601 0.399525 10.5601C0.622123 10.5601 0.804804 10.737 0.804804 10.9596V14.487H14.1952V10.9596Z" fill="#0075BF"/>
</svg>
