<svg width="15" height="18" viewBox="0 0 15 18" fill="none" xmlns="http://www.w3.org/2000/svg">
<path d="M9.79071 3.14807H1.4229C0.637717 3.14807 0 3.78579 0 4.57097V16.5771C0 17.3623 0.637717 18 1.4229 18H9.79071C10.5759 18 11.2136 17.3623 11.2136 16.5771V4.57097C11.2099 3.78579 10.5722 3.14807 9.79071 3.14807ZM10.2146 16.5734C10.2146 16.8093 10.0229 17.001 9.78702 17.001H1.41921C1.18329 17.001 0.991601 16.8093 0.991601 16.5734V4.57099C0.991601 4.33507 1.18329 4.14338 1.41921 4.14338H9.78702C10.0229 4.14338 10.2146 4.33507 10.2146 4.57099V16.5734Z" fill="#0075BF"/>
<path d="M12.9899 1.75781e-05H4.62212C3.83694 1.75781e-05 3.19922 0.637735 3.19922 1.42292C3.19922 1.69938 3.42039 1.92055 3.69686 1.92055C3.97332 1.92055 4.19449 1.69938 4.19449 1.42292C4.19449 1.187 4.38618 0.99531 4.6221 0.99531H12.9899C13.2258 0.99531 13.4175 1.187 13.4175 1.42292V13.4291C13.4175 13.665 13.2258 13.8567 12.9899 13.8567C12.7134 13.8567 12.4923 14.0778 12.4923 14.3543C12.4923 14.6308 12.7134 14.8519 12.9899 14.8519C13.7751 14.8519 14.4128 14.2142 14.4128 13.429V1.4229C14.4128 0.637717 13.7751 0 12.9899 0L12.9899 1.75781e-05Z" fill="#0075BF"/>
</svg>
