<svg width="30" height="30" viewBox="0 0 30 30" fill="none" xmlns="http://www.w3.org/2000/svg">
<path fill-rule="evenodd" clip-rule="evenodd" d="M17.7973 11.9019C17.534 11.9019 17.3206 12.1377 17.3206 12.4284V22.3876C17.3206 22.6783 17.534 22.9148 17.7973 22.9148C18.0601 22.9148 18.2734 22.6783 18.2734 22.3876V12.4284C18.2734 12.1377 18.0601 11.9019 17.7973 11.9019Z" fill="#1D83C4"/>
<path fill-rule="evenodd" clip-rule="evenodd" d="M12.1759 11.9019C11.9127 11.9019 11.6994 12.1377 11.6994 12.4284V22.3876C11.6994 22.6783 11.9127 22.9148 12.1759 22.9148C12.4387 22.9148 12.6522 22.6783 12.6522 22.3876V12.4284C12.6522 12.1377 12.4387 11.9019 12.1759 11.9019Z" fill="#1D83C4"/>
<path fill-rule="evenodd" clip-rule="evenodd" d="M8.07862 10.4483V23.4311C8.07862 24.1979 8.33306 24.9186 8.7774 25.4357C9.21975 25.9546 9.83526 26.2484 10.4796 26.25H19.4933C20.1377 26.2484 20.7532 25.9546 21.1955 25.4357C21.6399 24.9186 21.8943 24.1979 21.8943 23.4311V10.4483C22.7779 10.1891 23.3498 9.24494 23.2317 8.24253C23.1134 7.24036 22.3413 6.49041 21.4271 6.49041H18.9882V5.83182C18.9912 5.2774 18.793 4.74594 18.4385 4.3542C18.0843 3.96359 17.6023 3.74579 17.1018 3.75006H12.8712C12.3707 3.74579 11.8886 3.96359 11.5344 4.3542C11.18 4.74594 10.9817 5.2774 10.9848 5.83182V6.49041H8.54543C7.63163 6.49041 6.85949 7.24036 6.7412 8.24253C6.62312 9.24494 7.19545 10.1891 8.07862 10.4483ZM19.4933 25.1961H10.4796C9.66519 25.1961 9.0314 24.4223 9.0314 23.4311V10.4951H20.9415V23.4311C20.9415 24.4223 20.3077 25.1961 19.4933 25.1961ZM11.9376 5.83182C11.9345 5.55709 12.0318 5.29293 12.2076 5.09942C12.3837 4.90592 12.6229 4.79904 12.8712 4.80399H17.1018C17.35 4.79904 17.5893 4.90592 17.7653 5.09942C17.9411 5.29293 18.0385 5.55709 18.0354 5.83182V6.49041H11.9376V5.83182ZM8.54543 7.54434H21.4271C21.9011 7.54434 22.2851 7.96893 22.2851 8.49252C22.2851 9.01656 21.9011 9.44114 21.4271 9.44114H8.54543C8.07179 9.44114 7.68825 9.01656 7.68825 8.49252C7.68825 7.96893 8.07179 7.54434 8.54543 7.54434Z" fill="#1D83C4"/>
<path fill-rule="evenodd" clip-rule="evenodd" d="M14.9866 11.9019C14.7233 11.9019 14.5099 12.1377 14.5099 12.4284V22.3876C14.5099 22.6783 14.7233 22.9148 14.9866 22.9148C15.2498 22.9148 15.4626 22.6783 15.4626 22.3876V12.4284C15.4626 12.1377 15.2498 11.9019 14.9866 11.9019Z" fill="#1D83C4"/>
</svg>
