<svg width="50" height="50" viewBox="0 0 50 50" fill="none" xmlns="http://www.w3.org/2000/svg">
<path fill-rule="evenodd" clip-rule="evenodd" d="M43.0161 22.0701H41.8446V16.3577C41.8446 15.9531 41.5169 15.6254 41.1122 15.6254H32.1006C32.0725 15.6254 32.0447 15.6269 32.0174 15.6303C30.6977 13.4553 28.3952 11.9395 25.7316 11.7033V10.645H29.7111C30.1157 10.645 30.4439 10.3169 30.4439 9.91225V6.98312C30.4439 6.5785 30.1157 6.25 29.7111 6.25H24.9992C24.5954 6.25 24.2669 6.5785 24.2669 6.98312V11.7033C21.6047 11.9395 19.3041 13.4538 17.9845 15.6261C17.9766 15.6261 17.9695 15.6254 17.9624 15.6254H8.88625C8.48237 15.6254 8.15387 15.9531 8.15387 16.3577V22.0701H6.98313C6.5785 22.0701 6.25 22.3986 6.25 22.8025V43.0169C6.25 43.4215 6.5785 43.75 6.98313 43.75H43.0161C43.4211 43.75 43.7485 43.4215 43.7485 43.0169V22.8025C43.7485 22.3986 43.4211 22.0701 43.0161 22.0701ZM40.3799 17.0898V22.0701H38.6391L39.0014 19.9994C39.0385 19.786 38.9792 19.567 38.8409 19.4016C38.7014 19.2363 38.4959 19.141 38.2802 19.141H33.1682C33.1052 18.427 32.9504 17.7396 32.7156 17.0898H40.3799ZM14.8915 23.5356H18.1142V36.4259H14.8915V23.5356ZM30.4187 23.5356V36.4259H25.7316V29.3943C25.7316 28.9896 25.4039 28.6623 24.9992 28.6623C24.5954 28.6623 24.2669 28.9896 24.2669 29.3943V36.4259H19.5797V23.5356H30.4187ZM13.8167 37.8903H36.181L36.6606 39.355H13.3379L13.8167 37.8903ZM31.8842 36.4259V23.5356H35.1062V36.4259H31.8842ZM14.1602 22.0701H12.8459L12.5901 20.6058H37.4084L37.1526 22.0701H14.1602ZM25.7316 7.7155H28.9787V9.17988H25.7316V7.7155ZM24.9992 13.135C28.4669 13.135 31.3315 15.7686 31.6975 19.141H18.301C18.667 15.7686 21.5316 13.135 24.9992 13.135ZM9.61862 17.0898H17.2829C17.0481 17.7396 16.8932 18.427 16.8302 19.141H11.7194C11.5026 19.141 11.2971 19.2363 11.1588 19.4016C11.0192 19.567 10.96 19.786 10.9979 19.9994L11.3594 22.0701H9.61862V17.0898ZM7.7155 23.5356H13.4271V36.4259H13.2861C12.9689 36.4259 12.6884 36.6295 12.5901 36.9306L11.7977 39.355H10.8475C10.5359 39.355 10.2587 39.5515 10.1564 39.8463L9.30437 42.2845H7.7155V23.5356ZM35.8382 42.2845H10.8561L11.3672 40.8201H38.6312L39.1431 42.2845H35.8382ZM42.2841 42.2845H40.6941L39.8429 39.8463C39.7409 39.5515 39.4626 39.355 39.151 39.355H38.2015L37.4084 36.9306C37.3101 36.6295 37.0296 36.4259 36.7124 36.4259H36.5714V23.5356H42.2841V42.2845Z" fill="#000000"/>
</svg>
