<svg width="25" height="25" viewBox="0 0 25 25" fill="none" xmlns="http://www.w3.org/2000/svg">
<g clip-path="url(#clip0)">
<path d="M24.1071 11.6073H9.69464C9.21046 9.70489 7.27572 8.55519 5.37325 9.03938C4.1116 9.36049 3.12645 10.3457 2.80533 11.6073H0.892874C0.399745 11.6073 0 12.007 0 12.5002C0 12.9933 0.399745 13.393 0.892874 13.393H2.80538C3.28957 15.2954 5.22431 16.4451 7.12677 15.9609C8.38842 15.6398 9.37358 14.6546 9.6947 13.393H24.1071C24.6003 13.393 25 12.9932 25 12.5001C25 12.007 24.6003 11.6073 24.1071 11.6073ZM6.25001 14.2859C5.26381 14.2859 4.46432 13.4864 4.46432 12.5002C4.46432 11.514 5.26381 10.7145 6.25001 10.7145C7.23622 10.7145 8.03571 11.514 8.03571 12.5002C8.03571 13.4864 7.23622 14.2859 6.25001 14.2859Z" fill="#003A54"/>
<path d="M24.1071 2.67834H21.3018C20.8176 0.775931 18.8829 -0.373762 16.9804 0.110421C15.7188 0.431536 14.7336 1.41669 14.4125 2.67834H0.892874C0.399745 2.67834 0 3.07809 0 3.57122C0 4.06435 0.399745 4.46409 0.892874 4.46409H14.4125C14.8967 6.3665 16.8314 7.5162 18.7339 7.03201C19.9955 6.7109 20.9807 5.72574 21.3018 4.46409H24.1071C24.6003 4.46409 25 4.06435 25 3.57122C25 3.07809 24.6003 2.67834 24.1071 2.67834ZM17.8572 5.35691C16.871 5.35691 16.0715 4.55742 16.0715 3.57122C16.0715 2.58501 16.871 1.78552 17.8572 1.78552C18.8434 1.78552 19.6429 2.58501 19.6429 3.57122C19.6429 4.55742 18.8434 5.35691 17.8572 5.35691Z" fill="#003A54"/>
<path d="M24.1071 20.5358H19.516C19.0319 18.6334 17.0971 17.4837 15.1947 17.9678C13.933 18.289 12.9479 19.2741 12.6267 20.5358H0.892874C0.399745 20.5358 0 20.9355 0 21.4286C0 21.9217 0.399745 22.3215 0.892874 22.3215H12.6268C13.111 24.2239 15.0457 25.3736 16.9482 24.8894C18.2098 24.5683 19.195 23.5831 19.5161 22.3215H24.1071C24.6003 22.3215 25 21.9217 25 21.4286C25 20.9355 24.6003 20.5358 24.1071 20.5358ZM16.0714 23.2143C15.0852 23.2143 14.2857 22.4148 14.2857 21.4286C14.2857 20.4424 15.0852 19.6429 16.0714 19.6429C17.0576 19.6429 17.8571 20.4424 17.8571 21.4286C17.8571 22.4148 17.0577 23.2143 16.0714 23.2143Z" fill="#003A54"/>
</g>
<defs>
<clipPath id="clip0">
<rect width="25" height="25" fill="white"/>
</clipPath>
</defs>
</svg>
