<svg width="57" height="58" viewBox="0 0 57 58" fill="none" xmlns="http://www.w3.org/2000/svg">
<path fill-rule="evenodd" clip-rule="evenodd" d="M28.5 48.3023C38.9767 48.3023 47.4695 39.6605 47.4695 29C47.4695 18.3395 38.9767 9.69774 28.5 9.69774C18.0233 9.69774 9.53054 18.3395 9.53054 29C9.53054 39.6605 18.0233 48.3023 28.5 48.3023ZM28.5 50.75C40.305 50.75 49.875 41.0121 49.875 29C49.875 16.9879 40.305 7.25 28.5 7.25C16.695 7.25 7.125 16.9879 7.125 29C7.125 41.0121 16.695 50.75 28.5 50.75Z" fill="#000000"/>
<path d="M37 22.6114L35.3886 21L29 27.3886L22.6114 21L21 22.6114L27.3886 29L21 35.3886L22.6114 37L29 30.6114L35.3886 37L37 35.3886L30.6114 29L37 22.6114Z" fill="#000000"/>
</svg>
