<svg width="24" height="24" viewBox="0 0 24 24" fill="none" xmlns="http://www.w3.org/2000/svg">
<path fill-rule="evenodd" clip-rule="evenodd" d="M20.9996 13.1097C21 13.0159 20.9629 12.9259 20.8972 12.8599C20.831 12.7933 20.7415 12.7562 20.6477 12.7562H18.012V10.839C19.6855 10.3647 20.915 8.82066 20.915 6.99492C20.915 4.79226 19.1258 3 16.927 3C14.7281 3 12.9392 4.79226 12.9392 6.99492C12.9392 8.82066 14.1686 10.3647 15.8421 10.839V12.7567H14.5157C14.4604 12.7567 14.4061 12.7695 14.3569 12.7949L12.356 13.8104V13.6778C12.356 13.483 12.1984 13.3255 12.0041 13.3255H9.70734L3.3726 12.9517C3.2763 12.9461 3.18108 12.9808 3.1107 13.0472C3.04014 13.1138 3 13.2064 3 13.3039V18.9421C3 18.9421 3.5094 18.9421 3.7038 18.9421V13.6778L9.345 14.0099V19.6432L3.70416 20.2546V18.9421H3V20.6474C3 20.7475 3.04266 20.8429 3.11718 20.9096C3.1818 20.968 3.26568 21 3.3519 21C3.36468 21 3.3771 20.9993 3.39006 20.9977L9.71562 20.3122H12.0041C12.1577 20.3122 12.2873 20.2139 12.3357 20.0766L13.9044 20.9251C13.9559 20.9528 14.0129 20.9674 14.0707 20.9674L15.278 20.9708H15.2787C15.2794 20.9708 15.2798 20.9708 15.2801 20.9708L16.702 20.9746H16.7047C17.2799 20.9746 17.7485 20.5068 17.7501 19.9304V19.8714C17.7505 19.7531 17.7312 19.6379 17.6941 19.529H17.6945H17.6975C17.9832 19.529 18.2523 19.418 18.4553 19.2157C18.6586 19.0132 18.7712 18.743 18.772 18.4557C18.7723 18.2908 18.7361 18.1317 18.6674 17.9873C19.0475 17.823 19.3143 17.4457 19.3156 17.0078C19.3159 16.8517 19.283 16.7002 19.2211 16.5614C19.6291 16.4105 19.9213 16.0194 19.9229 15.5609C19.9232 15.3557 19.8669 15.1639 19.7683 15.0001C20.4913 14.6759 20.9973 13.9514 20.9996 13.1097V13.1097ZM13.6429 6.99492C13.6429 5.1807 15.1162 3.70524 16.927 3.70524C18.7376 3.70524 20.2112 5.1807 20.2112 6.99492C20.2112 8.67486 18.9475 10.0641 17.3222 10.2607C17.0663 10.2909 16.8056 10.2916 16.5497 10.2626C14.9162 10.0747 13.6429 8.6808 13.6429 6.99492V6.99492ZM16.5459 10.9713C16.7992 10.9954 17.0549 10.9954 17.3082 10.9713V12.7567H16.5459V10.9713V10.9713ZM10.0486 19.6073V14.0304H11.6522V14.3841V19.6073H10.0486ZM18.8492 15.1811C19.0537 15.1819 19.2194 15.3512 19.2191 15.5591C19.2184 15.7636 19.0558 15.9231 18.8479 15.9231C18.8472 15.9231 18.8468 15.9231 18.8461 15.9231L16.4253 15.9224C16.1981 15.9132 16.0304 15.6952 16.0784 15.4726C16.1146 15.3055 16.2637 15.1801 16.4424 15.1801L18.8492 15.1811V15.1811ZM18.5025 16.739C18.5732 16.8109 18.6121 16.9054 18.6118 17.0058C18.611 17.2103 18.4485 17.3707 18.241 17.3707C18.2402 17.3707 18.2395 17.3707 18.2388 17.3707L16.0757 17.3703C16.0754 17.3703 16.075 17.3703 16.0747 17.3703C15.8729 17.3672 15.7091 17.2002 15.71 16.9975C15.7103 16.7934 15.8767 16.6276 16.0819 16.6276L18.2422 16.628C18.34 16.6283 18.4327 16.6676 18.5025 16.739V16.739ZM17.0463 19.9281C17.0459 20.1167 16.8926 20.2697 16.7047 20.2697C16.7043 20.2697 16.7043 20.2697 16.7039 20.2697L15.2798 20.2656C15.0784 20.2652 14.9093 20.0948 14.9099 19.893C14.9102 19.6889 15.0766 19.5226 15.2821 19.5226L15.422 19.5229L16.7057 19.5263C16.8181 19.5267 16.9243 19.5838 16.9878 19.6765C17.0404 19.7535 17.0467 19.8383 17.0463 19.9281ZM17.9591 18.7162C17.8887 18.786 17.7962 18.8231 17.6965 18.8242L15.5386 18.818C15.3358 18.8162 15.1657 18.6515 15.166 18.4458C15.1667 18.2426 15.3372 18.075 15.5392 18.075L17.6983 18.0755C17.9017 18.0759 18.0687 18.2516 18.0683 18.4534C18.068 18.5527 18.0293 18.6458 17.9591 18.7162ZM18.9194 14.4763C18.9183 14.4763 18.9172 14.4763 18.916 14.4763L16.8683 14.4752H16.4435C16.4428 14.4752 16.4417 14.4752 16.4404 14.4752C16.1548 14.4752 15.8857 14.5862 15.6826 14.7886C15.508 14.9623 15.4007 15.186 15.3732 15.4276C15.3471 15.6551 15.3943 15.8891 15.5084 16.0874C15.442 16.1294 15.3795 16.1789 15.323 16.2356C15.1536 16.4042 15.0474 16.6192 15.0161 16.8524C15.0114 16.8854 15.0085 16.9185 15.0073 16.9514C14.9918 17.0074 14.9344 17.1824 14.7742 17.3525C14.5119 17.6309 14.1026 17.7724 13.5575 17.7724C13.3633 17.7724 13.2056 17.9299 13.2056 18.1247C13.2056 18.3193 13.3633 18.4773 13.5575 18.4773C13.9116 18.4773 14.2126 18.4255 14.4676 18.3409C14.4442 18.5819 14.5027 18.8294 14.6354 19.0328C14.5958 19.0627 14.558 19.0952 14.5223 19.1307C14.2288 19.4232 14.1285 19.873 14.2703 20.2631H14.1611L12.356 19.2864V14.6006L14.5999 13.4616L20.2487 13.4611C20.0906 14.0455 19.5548 14.4763 18.9194 14.4763V14.4763Z" fill="#0075BF"/>
<path fill-rule="evenodd" clip-rule="evenodd" d="M11.2028 15.2231C11.1454 15.0848 11.0024 14.9959 10.8523 15.0073C10.6997 15.0186 10.5697 15.1309 10.5357 15.2805C10.466 15.587 10.823 15.8255 11.0807 15.6448C11.2134 15.5516 11.2654 15.3732 11.2028 15.2231V15.2231Z" fill="#0075BF"/>
<path d="M18.282 5.238C18.282 5.278 18.262 5.298 18.222 5.298H16.092C16.076 5.298 16.068 5.306 16.068 5.322V6.612C16.068 6.628 16.076 6.636 16.092 6.636H17.556C17.596 6.636 17.616 6.656 17.616 6.696V7.074C17.616 7.114 17.596 7.134 17.556 7.134H16.092C16.076 7.134 16.068 7.142 16.068 7.158V8.478C16.068 8.494 16.076 8.502 16.092 8.502H18.222C18.262 8.502 18.282 8.522 18.282 8.562V8.94C18.282 8.98 18.262 9 18.222 9H15.552C15.512 9 15.492 8.98 15.492 8.94V4.86C15.492 4.82 15.512 4.8 15.552 4.8H18.222C18.262 4.8 18.282 4.82 18.282 4.86V5.238Z" fill="#0075BF"/>
</svg>
