<svg width="24" height="24" viewBox="0 0 24 24" fill="none" xmlns="http://www.w3.org/2000/svg">
<path fill-rule="evenodd" clip-rule="evenodd" d="M12 19.9875C16.4114 19.9875 19.9875 16.4114 19.9875 12C19.9875 7.58856 16.4114 4.0125 12 4.0125C7.58856 4.0125 4.0125 7.58856 4.0125 12C4.0125 16.4114 7.58856 19.9875 12 19.9875ZM12 21C16.9703 21 21 16.9703 21 12C21 7.02966 16.9703 3 12 3C7.02966 3 3 7.02966 3 12C3 16.9703 7.02966 21 12 21Z" fill="#0075BF"/>
<path d="M15.6667 8.04286C15.6667 8.1381 15.6189 8.18571 15.5233 8.18571H10.4337C10.3955 8.18571 10.3763 8.20476 10.3763 8.24286V11.3143C10.3763 11.3524 10.3955 11.3714 10.4337 11.3714H13.9319C14.0275 11.3714 14.0753 11.419 14.0753 11.5143V12.4143C14.0753 12.5095 14.0275 12.5571 13.9319 12.5571H10.4337C10.3955 12.5571 10.3763 12.5762 10.3763 12.6143V15.7571C10.3763 15.7952 10.3955 15.8143 10.4337 15.8143H15.5233C15.6189 15.8143 15.6667 15.8619 15.6667 15.9571V16.8571C15.6667 16.9524 15.6189 17 15.5233 17H9.14337C9.04779 17 9 16.9524 9 16.8571V7.14286C9 7.04762 9.04779 7 9.14337 7H15.5233C15.6189 7 15.6667 7.04762 15.6667 7.14286V8.04286Z" fill="#0075BF"/>
</svg>
