<svg width="30" height="30" viewBox="0 0 30 30" fill="none" xmlns="http://www.w3.org/2000/svg">
<path d="M27.1875 9.98203V7.5C27.1875 5.69109 25.7152 4.21875 23.9062 4.21875C22.0973 4.21875 20.625 5.69109 20.625 7.5C20.625 8.41781 21.0047 9.2475 21.6145 9.84375H21.5625C19.7536 9.84375 18.2812 11.3161 18.2812 13.125V14.0625H17.7703C17.5462 12.7345 16.3912 11.7188 15 11.7188C13.4489 11.7188 12.1875 12.9802 12.1875 14.5312C12.1875 15.2522 12.4622 15.908 12.9094 16.4062H9.44953L9.375 15.9033V9.84375H13.125C13.26 9.84375 13.3884 9.78563 13.478 9.68344L16.7592 5.93344C16.9219 5.74781 16.912 5.46797 16.7377 5.29359L15.3314 3.88734C15.1481 3.70406 14.8519 3.70406 14.6686 3.88734L11.9934 6.5625H8.38547C8.99531 5.96625 9.375 5.13656 9.375 4.21875V1.40625C9.375 1.14703 9.16547 0.9375 8.90625 0.9375H6.09375C4.28484 0.9375 2.8125 2.40984 2.8125 4.21875C2.8125 5.13656 3.19219 5.96625 3.80203 6.5625H3.75C1.94109 6.5625 0.46875 8.03484 0.46875 9.84375V16.4062C0.46875 16.6655 0.678281 16.875 0.9375 16.875H2.8125V28.5938C2.8125 28.853 3.02203 29.0625 3.28125 29.0625H6.09375C6.35297 29.0625 6.5625 28.853 6.5625 28.5938V23.0077L7.50656 28.6706C7.54406 28.8966 7.73953 29.0625 7.96875 29.0625H10.7812C10.9177 29.0625 11.047 29.003 11.1361 28.8998C11.2252 28.7962 11.265 28.6594 11.2448 28.5248L9.86625 19.2188H12.1875V28.5938C12.1875 28.853 12.397 29.0625 12.6562 29.0625H17.3438C17.603 29.0625 17.8125 28.853 17.8125 28.5938V22.9688H19.2188C19.478 22.9688 19.6875 22.7592 19.6875 22.5V18.75C19.6875 18.2203 19.5042 17.7366 19.2066 17.3438H19.2188C19.7466 17.3438 20.2289 17.1619 20.6213 16.8661L19.6922 23.3709C19.673 23.5055 19.7133 23.6419 19.8019 23.7445C19.8914 23.8472 20.0203 23.9062 20.1562 23.9062H21.0938V28.5938C21.0938 28.853 21.3033 29.0625 21.5625 29.0625H26.25C26.5092 29.0625 26.7188 28.853 26.7188 28.5938V23.9062H27.6562C27.7922 23.9062 27.9211 23.8472 28.0106 23.7445C28.0992 23.6419 28.1395 23.5055 28.1203 23.3709L27.4603 18.75H29.0625C29.3217 18.75 29.5312 18.5405 29.5312 18.2812V13.125C29.5312 11.6419 28.5413 10.3866 27.1875 9.98203ZM21.5625 7.5C21.5625 6.20766 22.6139 5.15625 23.9062 5.15625C25.1986 5.15625 26.25 6.20766 26.25 7.5V9.84375H23.9062C22.6139 9.84375 21.5625 8.79234 21.5625 7.5ZM13.125 14.5312C13.125 13.4972 13.9659 12.6562 15 12.6562C16.0341 12.6562 16.875 13.4972 16.875 14.5312C16.875 15.5653 16.0341 16.4062 15 16.4062C13.9659 16.4062 13.125 15.5653 13.125 14.5312ZM3.75 4.21875C3.75 2.92641 4.80141 1.875 6.09375 1.875H8.4375V4.21875C8.4375 5.51109 7.38609 6.5625 6.09375 6.5625C4.80141 6.5625 3.75 5.51109 3.75 4.21875ZM8.36578 28.125L6.55641 17.2669C6.51609 17.0255 6.29344 16.8572 6.05578 16.8764C5.81203 16.8966 5.625 17.0995 5.625 17.3438V28.125H3.75V9.84375H2.8125V15.9375H1.40625V9.84375C1.40625 8.55141 2.45766 7.5 3.75 7.5H12.1875C12.3122 7.5 12.4313 7.45078 12.5189 7.36266L15 4.88156L15.765 5.64656L12.9122 8.90625H8.90625C8.64703 8.90625 8.4375 9.11578 8.4375 9.375V15.9375C8.4375 15.9605 8.43937 15.9834 8.44266 16.0059L10.238 28.125H8.36578ZM18.75 18.75V22.0312H17.8125V18.75H16.875V28.125H15.4688V22.5H14.5312V28.125H13.125V18.75C13.125 18.4908 12.9155 18.2812 12.6562 18.2812H9.7275L9.58875 17.3438H15H17.3438C18.1191 17.3438 18.75 17.9747 18.75 18.75ZM22.0312 23.9062H23.4375V28.125H22.0312V23.9062ZM25.7812 28.125H24.375V23.9062H25.7812V28.125ZM20.6967 22.9688L21.5002 17.3438H26.3119L27.1153 22.9688H20.6967ZM28.5938 17.8125H27.3263L27.1875 16.8408V12.6562H26.25V16.4062H21.5625V15V12.6562H20.625V15C20.625 15.7753 19.9941 16.4062 19.2188 16.4062H17.3438H17.0906C17.4384 16.0186 17.6798 15.5353 17.7703 15H18.75C19.0092 15 19.2188 14.7905 19.2188 14.5312V13.125C19.2188 11.8327 20.2702 10.7812 21.5625 10.7812H23.9062H26.25C27.5423 10.7812 28.5938 11.8327 28.5938 13.125V17.8125Z" fill="#003A54"/>
<path d="M5.15625 9.375H5.625V14.0625H6.5625V9.375H7.03125V8.4375H5.15625V9.375Z" fill="#003A54"/>
</svg>
