<svg width="18" height="18" viewBox="0 0 18 18" fill="none" xmlns="http://www.w3.org/2000/svg">
<circle cx="9" cy="9" r="8.5" stroke="#0075BF"/>
<path d="M8.08631 11.8857C8.09618 11.2988 8.16276 10.8352 8.28607 10.495C8.40937 10.1547 8.66091 9.7774 9.04069 9.36315L10.0099 8.36449C10.4242 7.89599 10.6313 7.39296 10.6313 6.85541C10.6313 6.33759 10.4957 5.9332 10.2244 5.64223C9.95314 5.34633 9.55857 5.19839 9.04069 5.19839C8.53761 5.19839 8.13317 5.33154 7.82737 5.59785C7.52158 5.86416 7.36868 6.2217 7.36868 6.67048H6C6.00986 5.87155 6.29346 5.22798 6.8508 4.73974C7.41307 4.24658 8.14303 4 9.04069 4C9.97287 4 10.6979 4.25151 11.2158 4.75454C11.7386 5.25263 12 5.93813 12 6.81103C12 7.67406 11.6005 8.52477 10.8015 9.36315L9.99507 10.1621C9.63502 10.5615 9.45499 11.1361 9.45499 11.8857H8.08631ZM8.02713 14.2307C8.02713 14.0087 8.09371 13.8238 8.22688 13.6759C8.36498 13.523 8.5672 13.4465 8.83354 13.4465C9.09988 13.4465 9.3021 13.523 9.4402 13.6759C9.5783 13.8238 9.64735 14.0087 9.64735 14.2307C9.64735 14.4526 9.5783 14.6375 9.4402 14.7855C9.3021 14.9285 9.09988 15 8.83354 15C8.5672 15 8.36498 14.9285 8.22688 14.7855C8.09371 14.6375 8.02713 14.4526 8.02713 14.2307Z" fill="#0075BF"/>
</svg>
