<svg width="35" height="35" viewBox="0 0 35 35" fill="none" xmlns="http://www.w3.org/2000/svg">
<path d="M32.9492 16.8161H31.0418L34.3995 13.4585C34.7866 13.0711 35 12.556 35 12.0083C35 11.4606 34.7866 10.9455 34.3995 10.5583L31.354 7.51286C31.0872 7.24609 30.6544 7.24609 30.3873 7.51286C30.0002 7.90031 29.4851 8.11367 28.9374 8.11367C28.3894 8.11367 27.8746 7.90031 27.4871 7.51286C27.0997 7.12566 26.8866 6.61057 26.8866 6.06289C26.8866 5.51495 27.1 5.00011 27.4871 4.61266C27.6153 4.48448 27.6874 4.31065 27.6874 4.12933C27.6874 3.94802 27.6153 3.77419 27.4871 3.64601L24.4419 0.600815C24.0545 0.213356 23.5397 0 22.9917 0C22.444 0 21.9289 0.213356 21.5417 0.600815L10.2512 11.8911C9.98421 12.1578 9.98421 12.5907 10.2512 12.8577C10.5183 13.1247 10.9511 13.1247 11.2181 12.8577L22.5084 1.56746C22.6376 1.43822 22.8091 1.36719 22.9917 1.36719C23.1744 1.36719 23.3461 1.43822 23.475 1.56746L26.0852 4.1774C25.717 4.73175 25.5194 5.38223 25.5194 6.06289C25.5194 6.97586 25.8748 7.83409 26.5205 8.47977C27.1662 9.12518 28.0244 9.48086 28.9374 9.48086C29.618 9.48086 30.2682 9.28326 30.8229 8.91502L33.4328 11.525C33.6993 11.7915 33.6993 12.2251 33.4328 12.4916L29.1083 16.8161H26.1114L28.3574 14.5702C28.6242 14.3031 28.6242 13.8703 28.3574 13.6035L21.3968 6.64288C21.1297 6.37585 20.6969 6.37585 20.4298 6.64288L10.2566 16.8161H2.05078C0.919914 16.8161 0 17.7361 0 18.8669V23.1736C0 23.5509 0.306015 23.8572 0.683594 23.8572C1.81446 23.8572 2.73438 24.7771 2.73438 25.9079C2.73438 27.0385 1.81446 27.9587 0.683594 27.9587C0.306015 27.9587 0 28.2647 0 28.6423V32.949C0 34.0796 0.919914 34.9997 2.05078 34.9997H32.9492C34.0801 34.9997 35 34.0796 35 32.949V28.6423C35 28.2647 34.694 27.9587 34.3164 27.9587C33.1855 27.9587 32.2656 27.0385 32.2656 25.9079C32.2656 24.7771 33.1855 23.8572 34.3164 23.8572C34.694 23.8572 35 23.5509 35 23.1736V18.8669C35 17.7361 34.0801 16.8161 32.9492 16.8161ZM20.9132 8.09284L26.9072 14.0868L24.1779 16.8161H21.471L23.475 14.8118C23.7421 14.5451 23.7421 14.1122 23.475 13.8452C23.2083 13.5781 22.7754 13.5781 22.5084 13.8452L19.5374 16.8159H12.1901L20.9132 8.09284ZM33.6328 22.5586C32.0747 22.8761 30.8984 24.2572 30.8984 25.9079C30.8984 27.5584 32.0747 28.9395 33.6328 29.2573V32.949C33.6328 33.3257 33.3263 33.6325 32.9492 33.6325H2.05078C1.67374 33.6325 1.36719 33.3257 1.36719 32.949V29.2573C2.9253 28.9395 4.10156 27.5584 4.10156 25.9079C4.10156 24.2572 2.9253 22.8764 1.36719 22.5586V18.8669C1.36719 18.4899 1.67374 18.1833 2.05078 18.1833H32.9492C33.3263 18.1833 33.6328 18.4899 33.6328 18.8669V22.5586Z" fill="white"/>
</svg>
