<svg width="24" height="24" viewBox="0 0 24 24" fill="none" xmlns="http://www.w3.org/2000/svg">
<path d="M21.8805 5.64853C21.4493 5.19685 20.8539 4.92994 20.1764 4.92994H16.7682V4.88889C16.7682 4.3756 16.5629 3.88284 16.2138 3.55434C15.8648 3.2053 15.3926 3 14.8793 3H8.71984C8.18602 3 7.71379 3.20532 7.36474 3.55434C7.0157 3.90337 6.8104 4.3756 6.8104 4.88889V4.92994H3.42271C2.74516 4.92994 2.14975 5.19685 1.71859 5.64853C1.28743 6.07969 1 6.69565 1 7.35265V17.5773C1 18.2548 1.26691 18.8502 1.71859 19.2814C2.14975 19.7126 2.76571 20 3.42271 20H20.1765C20.8539 20 21.4494 19.7331 21.8805 19.2814C22.3117 18.8502 22.5991 18.2343 22.5991 17.5773V7.35265C22.5991 6.6751 22.3322 6.07969 21.8805 5.64853H21.8805ZM21.5315 17.5774H21.511C21.511 17.9469 21.3672 18.2755 21.1208 18.5218C20.8745 18.7682 20.5459 18.9119 20.1764 18.9119H3.42267C3.0531 18.9119 2.7246 18.7682 2.47821 18.5218C2.23183 18.2754 2.08812 17.9469 2.08812 17.5774V7.35269C2.08812 6.98312 2.23183 6.65462 2.47821 6.40823C2.7246 6.16185 3.0531 6.01814 3.42267 6.01814H7.38525C7.69322 6.01814 7.93959 5.77176 7.93959 5.4638V4.86839C7.93959 4.64255 8.0217 4.43723 8.16543 4.2935C8.30916 4.14977 8.51445 4.06766 8.74032 4.06766H14.8793C15.1051 4.06766 15.3104 4.14977 15.4541 4.2935C15.5978 4.43723 15.68 4.64253 15.68 4.86839V5.4638C15.68 5.77178 15.9264 6.01814 16.2344 6.01814H20.1969C20.5664 6.01814 20.895 6.16185 21.1413 6.40823C21.3877 6.6546 21.5314 6.98312 21.5314 7.35269V17.5774H21.5315Z" fill="#003A54"/>
<path d="M11.7988 7.41406C10.4026 7.41406 9.12967 7.98895 8.2263 8.89234C7.30239 9.81627 6.74805 11.0687 6.74805 12.4648C6.74805 13.861 7.32293 15.1339 8.2263 16.0373C9.15021 16.9612 10.4026 17.5156 11.7988 17.5156C13.1949 17.5156 14.4678 16.9407 15.3712 16.0373C16.2952 15.1134 16.8495 13.861 16.8495 12.4648C16.8495 11.0687 16.2746 9.79575 15.3712 8.89234C14.4678 7.98893 13.1949 7.41406 11.7988 7.41406ZM14.591 15.2776C13.8724 15.9757 12.8869 16.4274 11.7988 16.4274C10.7105 16.4274 9.7251 15.9757 9.00647 15.2776C8.28787 14.559 7.85669 13.5735 7.85669 12.4854C7.85669 11.3971 8.3084 10.4117 9.00647 9.69305C9.72506 8.97445 10.7105 8.54329 11.7988 8.54329C12.8869 8.54329 13.8724 8.99498 14.591 9.69305C15.3096 10.4117 15.7408 11.3971 15.7408 12.4854C15.7613 13.5735 15.3096 14.559 14.591 15.2776Z" fill="#003A54"/>
<path d="M19.1096 9.40636C19.6652 9.40636 20.1156 8.95594 20.1156 8.40031C20.1156 7.84468 19.6652 7.39429 19.1096 7.39429C18.554 7.39429 18.1035 7.84471 18.1035 8.40031C18.1035 8.95592 18.554 9.40636 19.1096 9.40636Z" fill="#003A54"/>
</svg>
