<?xml version="1.0" encoding="utf-8"?>
<!-- Generator: Adobe Illustrator 22.1.0, SVG Export Plug-In . SVG Version: 6.00 Build 0)  -->
<svg version="1.1" id="Layer_1" xmlns="http://www.w3.org/2000/svg" xmlns:xlink="http://www.w3.org/1999/xlink" x="0px" y="0px"
	 viewBox="0 0 1024 1024" style="enable-background:new 0 0 1024 1024;" xml:space="preserve">
<path d="M27.9,69.8h875c15.4,0,27.9,12.6,27.9,27.9v395.1c-13.9-2.5-28.3-1.5-41.9,2.8V111.7H41.9v567.8h479
	c-3.1,8.9-4.7,18.4-4.7,28.3v13.6H27.9C12.6,721.5,0,708.9,0,693.5V97.7C0,82.4,12.6,69.8,27.9,69.8L27.9,69.8z M328.9,280.1V370
	c0,6.2-5.6,10.6-11.6,10.6h-64.2c-6,0-11.6-4.4-11.6-10.6v-53h-30v53c0,6.2-5.6,10.6-11.5,10.6h-64.2c-6,0-11.6-4.4-11.6-10.6v-89.9
	h-14.8c-6.7,0-13.2-3.5-16-9.8c-2.8-6.3-0.8-13.3,4.6-17.5l117.1-93.6c6.6-5.2,16.3-5.2,22.9,0l117.1,93.6
	c5.3,4.3,7.4,11.2,4.6,17.5c-2.8,6.3-9.3,9.8-16,9.8H328.9L328.9,280.1z M327.6,258.9c-33.7-26.9-67.3-53.8-101-80.7l-101,80.7h10.2
	c6,0,11.5,4.4,11.5,10.6v89.9h41.1v-53c0-6.2,5.6-10.6,11.6-10.6h53.1c6,0,11.5,4.4,11.5,10.6v53h41.1v-89.9
	c0-6.2,5.6-10.6,11.6-10.6H327.6L327.6,258.9z M825.8,209.1H417c-3.4,0-6.7,1.4-9.1,4c-2.4,2.5-3.8,6-3.8,9.6c0,3.6,1.4,7.1,3.8,9.6
	c2.4,2.5,5.7,4,9.1,4h408.8c3.4,0,6.7-1.4,9.2-4c2.4-2.5,3.8-6,3.8-9.6c0-3.6-1.4-7-3.8-9.6C832.5,210.6,829.2,209.1,825.8,209.1z
	 M825.8,283.8H417c-3.4,0-6.7,1.4-9.1,4c-2.4,2.5-3.8,6-3.8,9.6c0,3.6,1.4,7.1,3.8,9.6c2.4,2.5,5.7,4,9.1,4h408.8
	c3.4,0,6.7-1.4,9.2-4c2.4-2.5,3.8-6,3.8-9.6c0-3.6-1.4-7-3.8-9.6C832.5,285.3,829.2,283.8,825.8,283.8z M485.9,563.9H99.5
	c-1.9,0-3.8,1.4-5.1,4s-2.1,6-2.1,9.6c0,3.6,0.8,7.1,2.1,9.6s3.2,4,5.1,4h386.4c1.9,0,3.8-1.4,5.1-4c1.4-2.5,2.1-6,2.1-9.6
	c0-3.6-0.8-7-2.1-9.6C489.7,565.4,487.8,563.9,485.9,563.9z M584.4,489.2H105.7c-3.6,0-7.1,1.4-9.6,4c-2.5,2.5-4,6-4,9.6
	c0,3.6,1.4,7.1,4,9.6c2.5,2.5,6,4,9.6,4h478.7c3.6,0,7-1.4,9.6-4c2.5-2.5,4-6,4-9.6c0-3.6-1.4-7-4-9.6S588,489.2,584.4,489.2z
	 M806.8,954.2h-29.1c-23.5,0-42.7-19.1-42.7-42.7v-9.8c-10-3.2-19.7-7.2-29-12.1l-7,7c-16.9,16.9-43.9,16.4-60.3,0L618.1,876
	c-16.4-16.4-16.9-43.4,0-60.3l7-7c-4.8-9.3-8.9-19.1-12.1-29h-9.8c-23.5,0-42.7-19.1-42.7-42.7v-29.1c0-23.5,19.1-42.7,42.7-42.7
	h9.8c3.2-10,7.2-19.7,12.1-29l-7-7c-16.9-16.9-16.4-43.9,0-60.3l20.6-20.6c16.4-16.5,43.5-16.9,60.3,0l7,7c9.3-4.8,19.1-8.9,29-12
	v-9.8c0-23.5,19.1-42.7,42.7-42.7h29.1c23.5,0,42.7,19.1,42.7,42.7v9.8c10,3.2,19.7,7.2,29,12l7-7c16.9-16.9,43.9-16.4,60.3,0
	l20.6,20.6c16.4,16.4,16.9,43.4,0,60.3l-7,7c4.8,9.3,8.9,19,12.1,29h9.8c23.5,0,42.7,19.1,42.7,42.7V737c0,23.5-19.1,42.7-42.7,42.7
	h-9.8c-3.2,10-7.2,19.7-12.1,29l7,7c16.9,16.9,16.4,43.9,0,60.3l-20.6,20.6c-16.4,16.5-43.5,16.9-60.3,0l-7-7
	c-9.3,4.8-19.1,8.9-29,12.1v9.9C849.5,935,830.3,954.2,806.8,954.2L806.8,954.2z M710.5,861.1c13,7.7,26.9,13.5,41.5,17.2
	c6,1.5,10.2,7,10.2,13.2v20c0,8.6,7,15.5,15.5,15.5h29.1c8.5,0,15.5-7,15.5-15.5v-20c0-6.2,4.2-11.6,10.2-13.2
	c14.5-3.8,28.5-9.6,41.5-17.2c5.3-3.2,12.1-2.3,16.5,2.1l14.2,14.2c6.1,6.1,16,6,21.9,0l20.6-20.6c6-6,6.1-15.8,0-21.9L933,820.7
	c-4.4-4.4-5.2-11.2-2.1-16.5c7.7-13,13.5-26.9,17.2-41.5c1.5-6,7-10.2,13.2-10.2h20.1c8.5,0,15.5-7,15.5-15.5v-29.1
	c0-8.5-7-15.5-15.5-15.5h-20.1c-6.2,0-11.6-4.2-13.2-10.2c-3.7-14.6-9.5-28.5-17.2-41.5c-3.2-5.3-2.3-12.1,2.1-16.5l14.2-14.2
	c6.1-6.1,6-16,0-21.9l-20.6-20.6c-6-6-15.8-6.1-21.9,0l-14.2,14.2c-4.4,4.4-11.2,5.2-16.5,2.1c-13-7.7-26.9-13.5-41.5-17.2
	c-6-1.5-10.2-7-10.2-13.1v-20c0-8.6-7-15.5-15.5-15.5h-29.1c-8.6,0-15.5,7-15.5,15.5v20c0,6.2-4.2,11.6-10.2,13.1
	c-14.6,3.7-28.5,9.5-41.5,17.2c-5.3,3.2-12.1,2.3-16.5-2.1l-14.2-14.2c-6.1-6.1-16-6-21.9,0l-20.6,20.6c-6,6-6.2,15.8,0,21.9
	l14.2,14.2c4.4,4.4,5.2,11.2,2.1,16.5c-7.7,13-13.5,26.9-17.2,41.5c-1.5,6-7,10.2-13.1,10.2h-20c-8.6,0-15.5,7-15.5,15.5V737
	c0,8.6,7,15.5,15.5,15.5h20c6.2,0,11.6,4.2,13.1,10.2c3.8,14.6,9.6,28.5,17.2,41.5c3.2,5.3,2.3,12.1-2.1,16.5l-14.2,14.2
	c-6.1,6.1-6,16,0,21.9l20.6,20.6c6,6,15.8,6.2,21.9,0l14.2-14.2C697.2,860,704,857.2,710.5,861.1L710.5,861.1z M792.3,825.4
	c-56.8,0-103-46.2-103-103c0-56.8,46.2-103,103-103c56.8,0,103,46.2,103,103C895.2,779.2,849,825.4,792.3,825.4L792.3,825.4z
	 M792.3,647.2c-41.5,0-75.3,33.8-75.3,75.3c0,41.5,33.8,75.3,75.3,75.3c41.5,0,75.3-33.8,75.3-75.3
	C867.5,680.9,833.7,647.2,792.3,647.2z"/>
</svg>
