<svg width="30" height="32" viewBox="0 0 30 32" fill="none" xmlns="http://www.w3.org/2000/svg">
<path fill-rule="evenodd" clip-rule="evenodd" d="M5.60154 6.6665H24.7875C25.1243 6.6665 25.3998 6.96121 25.3998 7.32101V16.581C25.0946 16.5234 24.7786 16.5455 24.4813 16.6471V7.64852H5.90768V20.9573H16.4106C16.3434 21.1656 16.3069 21.389 16.3069 21.6216V21.9393H5.60154C5.26472 21.9393 4.98926 21.6446 4.98926 21.2848V7.32101C4.98926 6.96121 5.26472 6.6665 5.60154 6.6665Z" fill="#003A54"/>
<path fill-rule="evenodd" clip-rule="evenodd" d="M11.5478 11.228V13.0696C11.5478 13.1973 11.441 13.287 11.3262 13.287H10.0958C9.98104 13.287 9.87423 13.1973 9.87423 13.0696V11.983H9.29966V13.0696C9.29966 13.1971 9.19308 13.287 9.07831 13.287H7.84742C7.73264 13.287 7.62583 13.1973 7.62583 13.0696V11.228H7.34171C7.21265 11.228 7.0878 11.1557 7.03463 11.0272C6.98076 10.8975 7.02011 10.7556 7.12247 10.6682L9.36782 8.75097C9.49337 8.64356 9.68075 8.64356 9.8063 8.75097L12.0512 10.6682C12.1535 10.7556 12.1934 10.897 12.1395 11.0272C12.0863 11.1557 11.961 11.228 11.8319 11.228H11.5478ZM11.5225 10.7931C10.8772 10.2423 10.2321 9.69142 9.58706 9.14032L7.65137 10.7931H7.84742C7.96219 10.7931 8.06877 10.883 8.06877 11.0107V12.8523H8.85672V11.7656C8.85672 11.6377 8.9633 11.5483 9.07831 11.5483H10.0958C10.2108 11.5483 10.3172 11.6379 10.3172 11.7656V12.8523H11.1047V11.0107C11.1047 10.883 11.2117 10.7931 11.3262 10.7931H11.5225Z" fill="#003A54"/>
<path fill-rule="evenodd" clip-rule="evenodd" d="M23.0816 9.93164H13.7069C13.628 9.93164 13.5523 9.96519 13.497 10.0248C13.4413 10.0844 13.4094 10.1653 13.4094 10.2491C13.4094 10.3338 13.4413 10.4146 13.497 10.4742C13.5523 10.5338 13.628 10.5671 13.7069 10.5671H23.0816C23.16 10.5671 23.2357 10.5338 23.2914 10.4742C23.3472 10.4146 23.3786 10.3338 23.3786 10.2491C23.3786 10.1653 23.3472 10.0844 23.2914 10.0248C23.2357 9.96519 23.16 9.93164 23.0816 9.93164Z" fill="#003A54"/>
<path fill-rule="evenodd" clip-rule="evenodd" d="M23.0816 11.6821H13.7069C13.628 11.6821 13.5523 11.7157 13.497 11.7753C13.4413 11.8349 13.4094 11.9157 13.4094 11.9996C13.4094 12.0842 13.4413 12.1651 13.497 12.2247C13.5523 12.2843 13.628 12.3176 13.7069 12.3176H23.0816C23.16 12.3176 23.2357 12.2843 23.2914 12.2247C23.3472 12.1651 23.3786 12.0842 23.3786 11.9996C23.3786 11.9157 23.3472 11.8349 23.2914 11.7753C23.2357 11.7157 23.16 11.6821 23.0816 11.6821Z" fill="#003A54"/>
<path fill-rule="evenodd" clip-rule="evenodd" d="M23.0823 14.7466H7.30797C7.2288 14.7466 7.15314 14.7799 7.09787 14.8395C7.04212 14.8993 7.0105 14.9799 7.0105 15.0641C7.0105 15.1485 7.04212 15.2293 7.09787 15.2889C7.15314 15.3485 7.2288 15.3821 7.30797 15.3821H23.0823C23.1608 15.3821 23.236 15.3485 23.292 15.2889C23.3477 15.2293 23.3789 15.1485 23.3789 15.0641C23.3789 14.9799 23.3477 14.8993 23.292 14.8395C23.236 14.7799 23.1608 14.7466 23.0823 14.7466Z" fill="#003A54"/>
<path fill-rule="evenodd" clip-rule="evenodd" d="M15.6429 18.2471H7.17024C7.12785 18.2471 7.08709 18.2806 7.05734 18.3402C7.0276 18.3998 7.0105 18.4807 7.0105 18.5646C7.0105 18.6492 7.0276 18.7301 7.05734 18.7897C7.08709 18.8492 7.12785 18.8825 7.17024 18.8825H15.6429C15.685 18.8825 15.7256 18.8492 15.7553 18.7897C15.7853 18.7301 15.8022 18.6492 15.8022 18.5646C15.8022 18.4807 15.7853 18.3998 15.7553 18.3402C15.7256 18.2806 15.685 18.2471 15.6429 18.2471Z" fill="#003A54"/>
<path fill-rule="evenodd" clip-rule="evenodd" d="M17.8034 16.4971H7.30797C7.2288 16.4971 7.15314 16.5306 7.09787 16.5902C7.04212 16.6498 7.0105 16.7307 7.0105 16.8146C7.0105 16.8992 7.04212 16.9798 7.09787 17.0397C7.15314 17.0992 7.2288 17.1326 7.30797 17.1326H17.8034C17.8821 17.1326 17.9573 17.0992 18.0131 17.0397C18.0688 16.9798 18.0997 16.8992 18.0997 16.8146C18.0997 16.7307 18.0688 16.6498 18.0131 16.5902C17.9573 16.5306 17.8821 16.4971 17.8034 16.4971Z" fill="#003A54"/>
<path fill-rule="evenodd" clip-rule="evenodd" d="M22.6788 27.3938H22.041C21.5252 27.3938 21.1055 26.9451 21.1055 26.3935V26.1629C20.8862 26.088 20.6733 25.9934 20.4686 25.8802L20.3156 26.0439C19.9453 26.44 19.352 26.4283 18.9925 26.0437L18.5416 25.5617C18.1815 25.1771 18.1712 24.5434 18.5418 24.1473L18.6948 23.984C18.5889 23.7652 18.5003 23.5376 18.4303 23.3032H18.2146C17.6986 23.3032 17.2791 22.8545 17.2791 22.3032V21.6211C17.2791 21.07 17.6986 20.6213 18.2146 20.6213H18.4303C18.5003 20.3867 18.5889 20.1591 18.6948 19.9405L18.5418 19.777C18.1712 19.3814 18.1815 18.7474 18.5418 18.3626L18.9927 17.8808C19.3532 17.495 19.946 17.4852 20.3159 17.8808L20.4686 18.0441C20.6733 17.9309 20.8865 17.8363 21.1055 17.7617V17.5311C21.1055 16.9795 21.5252 16.5308 22.0412 16.5308H22.679C23.1946 16.5308 23.6143 16.9795 23.6143 17.5311V17.7617C23.8336 17.8363 24.0467 17.9309 24.2512 18.0441L24.4044 17.8808C24.7745 17.4845 25.3678 17.496 25.7273 17.8808L26.1782 18.3628C26.5385 18.7474 26.5486 19.3812 26.178 19.7773L26.0253 19.9405C26.1312 20.1591 26.2197 20.3867 26.2897 20.6213H26.5055C27.0212 20.6213 27.441 21.07 27.441 21.6211V22.3032C27.441 22.8545 27.0212 23.3032 26.5055 23.3032H26.2897C26.2197 23.5376 26.1312 23.7652 26.0253 23.984L26.1782 24.1475C26.5486 24.5431 26.5385 25.1771 26.178 25.5619L25.7271 26.0439C25.3669 26.4295 24.7738 26.439 24.4042 26.0437L24.2512 25.8802C24.0467 25.9934 23.8336 26.088 23.6143 26.1629V26.3937C23.6143 26.9451 23.1946 27.3938 22.6788 27.3938ZM20.5681 25.2119C20.8525 25.3917 21.1584 25.5274 21.4777 25.6155C21.6091 25.6518 21.7011 25.7785 21.7011 25.9237V26.3935C21.7011 26.594 21.8536 26.757 22.0412 26.757H22.679C22.8662 26.757 23.0189 26.594 23.0189 26.3935V25.9237C23.0189 25.7785 23.1107 25.6518 23.2424 25.6155C23.5614 25.5274 23.8675 25.3917 24.1519 25.2119C24.2688 25.1378 24.4177 25.1581 24.514 25.2607L24.8253 25.5935C24.9595 25.7372 25.1753 25.734 25.3062 25.5937L25.7573 25.1117C25.8878 24.9723 25.8922 24.7417 25.7573 24.5977L25.4458 24.2647C25.3498 24.1618 25.3308 24.0028 25.4001 23.8776C25.5683 23.5736 25.6952 23.2466 25.7775 22.9053C25.8114 22.7649 25.9302 22.6665 26.0658 22.6665H26.5055C26.6928 22.6665 26.8456 22.5035 26.8456 22.3032V21.6214C26.8456 21.4211 26.6928 21.2578 26.5055 21.2578H26.0658C25.9302 21.2578 25.8114 21.1596 25.7775 21.0192C25.6952 20.6779 25.5683 20.3509 25.4001 20.0467C25.3308 19.9217 25.3498 19.7625 25.4458 19.6596L25.7573 19.3268C25.8918 19.1831 25.8883 18.9527 25.7573 18.813L25.3062 18.3308C25.1757 18.1908 24.96 18.1868 24.8255 18.3305L24.514 18.6635C24.418 18.7665 24.2688 18.7865 24.1519 18.7126C23.8675 18.5328 23.5614 18.3969 23.2424 18.309C23.1107 18.2727 23.0189 18.1458 23.0189 18.0008V17.5311C23.0189 17.3305 22.8662 17.1675 22.679 17.1675H22.0412C21.8536 17.1675 21.7011 17.3305 21.7011 17.5311V18.0008C21.7011 18.1458 21.6091 18.2727 21.4777 18.309C21.1584 18.3969 20.8525 18.5326 20.5681 18.7126C20.451 18.7865 20.3023 18.7662 20.206 18.6635L19.8947 18.3308C19.7605 18.1871 19.5448 18.1903 19.4138 18.3305L18.9629 18.8128C18.8322 18.9525 18.8278 19.1828 18.9627 19.3266L19.2742 19.6596C19.3703 19.7625 19.3893 19.9217 19.3202 20.0467C19.1517 20.3509 19.0248 20.6779 18.9423 21.0192C18.9084 21.1596 18.7899 21.2578 18.6542 21.2578H18.2146C18.027 21.2578 17.8745 21.4211 17.8745 21.6211V22.3032C17.8745 22.5035 18.027 22.6665 18.2146 22.6665H18.6542C18.7899 22.6665 18.9084 22.7649 18.9423 22.9053C19.0248 23.2466 19.1517 23.5736 19.3199 23.8776C19.3892 24.0028 19.3703 24.1618 19.2742 24.2647L18.9629 24.5974C18.8283 24.7412 18.8315 24.9715 18.9627 25.1115L19.4136 25.5935C19.5445 25.7337 19.76 25.7377 19.8945 25.5937L20.206 25.2607C20.2768 25.1851 20.4241 25.121 20.5681 25.2119Z" fill="#003A54"/>
<path fill-rule="evenodd" clip-rule="evenodd" d="M22.3598 24.376C21.1146 24.376 20.1016 23.2934 20.1016 21.9621C20.1016 20.631 21.1146 19.5483 22.3598 19.5483C23.605 19.5483 24.6178 20.631 24.6178 21.9621C24.6178 23.2934 23.605 24.376 22.3598 24.376ZM22.3598 20.1983C21.45 20.1983 20.7096 20.9896 20.7096 21.9621C20.7096 22.9348 21.45 23.726 22.3598 23.726C23.2696 23.726 24.0097 22.9348 24.0097 21.9621C24.0097 20.9896 23.2696 20.1983 22.3598 20.1983Z" fill="#003A54"/>
</svg>
