<svg width="30" height="30" viewBox="0 0 30 30" fill="none" xmlns="http://www.w3.org/2000/svg">
<path d="M25.794 24.3603L28.1035 22.0506L18.8896 18.1122C18.6708 18.0149 18.4034 17.942 18.3061 18.0878C18.1846 18.2337 18.3306 18.647 18.3306 18.647L22.3662 27.8124L24.6758 25.5027L28.7114 29.5385L29.854 28.3957L25.7941 24.3602L25.794 24.3603ZM24.6513 23.2175L22.8766 24.9922L21.029 20.7865L25.2834 22.5854L24.6513 23.2176L24.6513 23.2175Z" fill="#003A54"/>
<path d="M15.0001 8.78905e-05C6.73426 8.78905e-05 0.0243457 6.70992 0 15C0 23.2659 6.70989 29.9757 15.0001 30C17.0665 30 19.1086 29.5626 20.9806 28.736L20.3729 27.3502C19.3518 27.7878 18.3063 28.1282 17.2124 28.2983C18.1361 27.5446 18.9627 26.6937 19.6677 25.7455L18.9628 24.1411C18.0875 25.4539 16.9936 26.5966 15.7293 27.5204L14.9756 28.1281L14.222 27.5204C12.3987 26.1589 10.9157 24.3841 9.91892 22.342H18.1603L17.5039 20.8347H9.23818C8.63041 19.1816 8.26573 17.4556 8.19281 15.7051H21.7098C21.6854 16.3128 21.6125 16.8963 21.5153 17.4798L22.9497 18.0875C23.0955 17.2853 23.1685 16.5073 23.2171 15.7051H28.4197C28.3467 17.1881 28.0064 18.6466 27.4473 20.008L28.8329 20.5915C29.5623 18.7925 29.9513 16.8721 29.9513 14.9514C29.9999 6.70997 23.29 0 15 0L15.0001 8.78905e-05ZM26.3047 7.60956H21.7342C20.7131 5.29998 19.1814 3.28216 17.2366 1.67765C20.9561 2.28542 24.2382 4.44914 26.3046 7.60956H26.3047ZM14.2707 2.43123L15.0243 1.87213L15.778 2.43123C17.6013 3.79265 19.0844 5.56737 20.0811 7.60956H9.9677C10.9645 5.56743 12.4475 3.79268 14.2708 2.43123H14.2707ZM2.86878 9.11683H7.70668C7.14752 10.77 6.83144 12.496 6.75852 14.2465H1.55596C1.62888 12.4474 2.09083 10.7214 2.86878 9.11683ZM1.55593 15.7294H6.75849C6.83141 17.4798 7.14749 19.206 7.70665 20.8592H2.86875C2.09077 19.2546 1.62885 17.5041 1.55593 15.7294ZM8.29013 22.342C9.31121 24.6516 10.8429 26.6695 12.7877 28.274C9.06814 27.6419 5.76184 25.5025 3.69539 22.342H8.29019H8.29013ZM3.71959 7.60956C5.78604 4.44908 9.06805 2.28539 12.7877 1.67765C10.8428 3.28218 9.31115 5.30003 8.2901 7.60956H3.71956H3.71959ZM8.24153 14.2221C8.31445 12.4717 8.65482 10.7456 9.2869 9.09242H20.7374C21.3453 10.7213 21.71 12.4716 21.7829 14.2221H8.24156H8.24153ZM23.2659 14.2221C23.1928 12.4717 22.8769 10.7456 22.3177 9.09242H27.1556C27.9337 10.697 28.3712 12.4474 28.4685 14.2221H23.2659Z" fill="#003A54"/>
</svg>
