<svg width="26" height="30" viewBox="0 0 26 30" fill="none" xmlns="http://www.w3.org/2000/svg">
<path d="M25.9839 22.0776L19.258 15.3516H15.8203V8.10737C17.6609 7.70383 19.043 6.06151 19.043 4.10155C19.043 1.8399 17.2031 0 14.9414 0C12.6798 0 10.8398 1.83996 10.8398 4.10155C10.8398 4.52278 10.9038 4.92937 11.0223 5.31216L5.27325 8.56996V14.6298C2.13644 15.735 0 18.7104 0 22.0898C0 26.4515 3.54849 29.9999 7.91014 29.9999C12.2718 29.9999 15.8203 26.4515 15.8203 22.0898C15.8203 21.5912 15.7736 21.1015 15.6842 20.6253H17.0736L19.4674 23.0191C17.945 23.4184 16.8185 24.8058 16.8185 26.4516C16.8185 28.4082 18.4103 30 20.3669 30C22.3235 30 23.9153 28.4082 23.9153 26.4516C23.9153 25.7915 23.7335 25.1732 23.4182 24.6433L25.9839 22.0776ZM14.9414 1.75781C16.2338 1.75781 17.2852 2.80921 17.2852 4.10155C17.2852 5.39395 16.2338 6.44536 14.9414 6.44536C13.649 6.44536 12.5976 5.39395 12.5976 4.10155C12.5976 2.80921 13.649 1.75781 14.9414 1.75781ZM7.03106 9.59436L11.8912 6.84028C12.4552 7.46782 13.2096 7.9204 14.0625 8.10743V15.3517H12.0593C11.588 15.0615 11.0821 14.8183 10.5469 14.6298V11.7189H8.7891V16.8163C8.7891 17.3009 8.39477 17.6953 7.91008 17.6953C7.4254 17.6953 7.03112 17.3009 7.03112 16.8163V9.59436H7.03106ZM7.91014 19.4531C9.36403 19.4531 10.5469 20.6359 10.5469 22.0898C10.5469 23.5437 9.36403 24.7265 7.91014 24.7265C6.45626 24.7265 5.27343 23.5437 5.27343 22.0898C5.27343 20.6359 6.45626 19.4531 7.91014 19.4531ZM7.91014 28.2421C4.51775 28.2421 1.75781 25.4822 1.75781 22.0898C1.75781 19.6774 3.15767 17.5308 5.27325 16.5295V16.8163C5.27325 17.3585 5.43796 17.863 5.71973 18.2826C4.40378 19.0426 3.51562 20.464 3.51562 22.0898C3.51562 24.5129 5.487 26.4843 7.91014 26.4843C10.3333 26.4843 12.3047 24.5129 12.3047 22.0898C12.3047 20.4639 11.4164 19.0425 10.1004 18.2824C10.3821 17.8629 10.5469 17.3585 10.5469 16.8163V16.5294C12.6626 17.5307 14.0625 19.6773 14.0625 22.0898C14.0625 25.4822 11.3026 28.2421 7.91014 28.2421ZM15.1358 18.8674C14.854 18.2351 14.4912 17.6442 14.0584 17.1095H18.5299L23.498 22.0776L22.2549 23.3207L17.8017 18.8675H15.1358V18.8674ZM20.3669 28.2421C19.3796 28.2421 18.5764 27.4389 18.5764 26.4516C18.5764 25.4642 19.3796 24.661 20.3669 24.661C21.3542 24.661 22.1575 25.4642 22.1575 26.4516C22.1575 27.4389 21.3542 28.2421 20.3669 28.2421Z" fill="#003A54"/>
</svg>
