<svg width="35" height="32" viewBox="0 0 35 32" fill="none" xmlns="http://www.w3.org/2000/svg">
<path fill-rule="evenodd" clip-rule="evenodd" d="M19.6551 14.8122C20.4296 15.0682 21.1438 15.4578 21.7659 15.9524C22.206 15.5874 22.7108 15.2946 23.2585 15.086C22.5302 14.5138 22.1249 13.6638 22.1249 12.7813C22.1249 11.1951 23.4442 9.80024 25.2141 9.80024C26.9845 9.80024 28.304 11.1949 28.304 12.7813C28.304 13.6623 27.8953 14.5124 27.1696 15.0855C29.2516 15.8761 30.5455 17.8119 30.5455 19.8723V20.1992C30.5455 20.2746 30.4779 20.3389 30.3947 20.3389H24.2265C24.2532 20.5777 24.2679 20.8177 24.2679 21.0577V21.3949C24.2679 22.862 23.0457 24.1525 21.4085 24.1525H13.459C11.8226 24.1525 10.6004 22.8615 10.6004 21.3949V21.0577C10.6004 20.8177 10.6148 20.5777 10.6418 20.3389H4.51445C4.4312 20.3389 4.36365 20.2746 4.36365 20.1992V19.8723C4.36365 17.8146 5.65467 15.8806 7.73377 15.0903C7.00539 14.5184 6.6001 13.6678 6.6001 12.7858C6.6001 11.1997 7.91992 9.80528 9.68955 9.80528C11.4592 9.80528 12.7787 11.1999 12.7787 12.7858C12.7787 13.6669 12.3706 14.5174 11.6448 15.0901C12.1839 15.2953 12.6798 15.5835 13.117 15.939C13.7339 15.4525 14.4389 15.068 15.2027 14.8129C14.1488 14.1015 13.5501 12.9471 13.5501 11.7445C13.5501 9.75632 15.2092 8 17.4289 8C19.6512 8 21.308 9.75368 21.308 11.7445C21.308 12.9457 20.7061 14.0996 19.6551 14.8122ZM23.2059 12.776C23.2059 13.7946 24.0361 14.7054 25.1735 14.7243C25.1868 14.7243 25.2007 14.7243 25.2141 14.7243C25.2279 14.7243 25.2418 14.7243 25.2528 14.7243C26.386 14.7006 27.223 13.7914 27.223 12.776C27.223 11.7462 26.3663 10.8272 25.2141 10.8272C24.0621 10.8272 23.2059 11.7464 23.2059 12.776ZM14.6201 11.7445C14.6201 13.1209 15.7224 14.3679 17.2511 14.4519C17.3077 14.4519 17.3621 14.4519 17.4184 14.4519C17.475 14.4519 17.5294 14.4519 17.5821 14.4522C19.1145 14.3679 20.2173 13.1209 20.2173 11.7445C20.2173 10.3098 19.0231 9.032 17.4184 9.032C15.8143 9.032 14.6201 10.31 14.6201 11.7445ZM7.66518 12.776C7.66518 13.7926 8.49854 14.7054 9.63326 14.7243C9.64688 14.7243 9.66049 14.7243 9.67411 14.7243C9.68772 14.7243 9.70134 14.7243 9.71207 14.7243C10.8452 14.7006 11.6825 13.7919 11.6825 12.776C11.6825 11.7464 10.8264 10.8272 9.67411 10.8272C8.52237 10.8272 7.66518 11.7464 7.66518 12.776ZM12.3169 16.6561C11.5838 16.088 10.6727 15.7609 9.70448 15.7563C9.69453 15.7563 9.68432 15.7563 9.67411 15.7563C9.66416 15.7563 9.65395 15.7563 9.64426 15.7563C7.4607 15.771 5.74893 17.367 5.47088 19.3021H10.8295C11.1049 18.332 11.6118 17.4226 12.3169 16.6561ZM23.1766 21.3949V21.0577C23.1766 18.171 20.8197 15.5794 17.6056 15.489C17.5441 15.4935 17.4855 15.4935 17.4234 15.4935C17.3619 15.4935 17.3035 15.4935 17.2496 15.489C14.0279 15.5794 11.6713 18.1712 11.6713 21.0577V21.3949C11.6713 22.3052 12.43 23.1205 13.4487 23.1205H21.3983C22.4176 23.1205 23.1766 22.3057 23.1766 21.3949ZM24.0178 19.3021H29.4176C29.1395 17.3667 27.428 15.771 25.2442 15.7563C25.2345 15.7563 25.2243 15.7563 25.2141 15.7563C25.2046 15.7563 25.1947 15.7563 25.1853 15.7563C24.205 15.7657 23.2829 16.0938 22.5448 16.6755C23.2441 17.4402 23.7429 18.3366 24.0178 19.3021Z" fill="#1D83C4"/>
</svg>
