<svg xmlns="http://www.w3.org/2000/svg" width="13.5" height="18" viewBox="0 0 13.5 18">
  <g id="ico-remove" transform="translate(-5.25 -3)">
    <path id="Path_1" data-name="Path 1" d="M14.3,9.522a.406.406,0,0,0-.39.421V17.91a.391.391,0,1,0,.779,0V9.943A.406.406,0,0,0,14.3,9.522Z" fill="#0075bf" fill-rule="evenodd"/>
    <path id="Path_2" data-name="Path 2" d="M9.7,9.522a.406.406,0,0,0-.389.421V17.91a.391.391,0,1,0,.779,0V9.943A.406.406,0,0,0,9.7,9.522Z" fill="#0075bf" fill-rule="evenodd"/>
    <path id="Path_3" data-name="Path 3" d="M6.355,8.359V18.745a2.436,2.436,0,0,0,.571,1.6A1.851,1.851,0,0,0,8.317,21h7.365a1.851,1.851,0,0,0,1.391-.651,2.436,2.436,0,0,0,.571-1.6V8.359a1.612,1.612,0,0,0,1.093-1.765,1.533,1.533,0,0,0-1.475-1.4H15.27V4.665a1.729,1.729,0,0,0-.449-1.182A1.473,1.473,0,0,0,13.728,3H10.271a1.473,1.473,0,0,0-1.092.483A1.729,1.729,0,0,0,8.73,4.665v.527H6.737a1.533,1.533,0,0,0-1.474,1.4A1.612,1.612,0,0,0,6.355,8.359Zm9.327,11.8H8.317a1.3,1.3,0,0,1-1.183-1.412V8.4h9.732V18.745A1.3,1.3,0,0,1,15.682,20.157ZM9.509,4.665a.848.848,0,0,1,.221-.586.721.721,0,0,1,.542-.236h3.457a.721.721,0,0,1,.542.236.848.848,0,0,1,.221.586v.527H9.509ZM6.737,6.035H17.262a.761.761,0,0,1,0,1.517H6.737a.761.761,0,0,1,0-1.517Z" fill="#0075bf" fill-rule="evenodd"/>
    <path id="Path_4" data-name="Path 4" d="M12,9.522a.406.406,0,0,0-.389.421V17.91a.391.391,0,1,0,.778,0V9.943A.406.406,0,0,0,12,9.522Z" fill="#0075bf" fill-rule="evenodd"/>
  </g>
</svg>
