<svg width="24" height="24" viewBox="0 0 24 24" fill="none" xmlns="http://www.w3.org/2000/svg">
<path fill-rule="evenodd" clip-rule="evenodd" d="M12 19.9871C16.4113 19.9871 19.9871 16.4113 19.9871 12C19.9871 7.58874 16.4113 4.01286 12 4.01286C7.58874 4.01286 4.01286 7.58874 4.01286 12C4.01286 16.4113 7.58874 19.9871 12 19.9871ZM12 21C16.9705 21 21 16.9705 21 12C21 7.02948 16.9705 3 12 3C7.02948 3 3 7.02948 3 12C3 16.9705 7.02948 21 12 21Z" fill="#0075BF"/>
<path fill-rule="evenodd" clip-rule="evenodd" d="M6.9375 12C6.9375 11.6891 7.18914 11.4375 7.5 11.4375H16.4996C16.8105 11.4375 17.0621 11.6891 17.0621 12C17.0621 12.3109 16.8105 12.5625 16.4996 12.5625H7.5C7.18914 12.5625 6.9375 12.3109 6.9375 12Z" fill="#0075BF"/>
</svg>
