<svg width="22" height="22" viewBox="0 0 22 22" fill="none" xmlns="http://www.w3.org/2000/svg">
<path fill-rule="evenodd" clip-rule="evenodd" d="M11 20.7621C16.3915 20.7621 20.7621 16.3915 20.7621 11C20.7621 5.60846 16.3915 1.23794 11 1.23794C5.60846 1.23794 1.23794 5.60846 1.23794 11C1.23794 16.3915 5.60846 20.7621 11 20.7621ZM11 22C17.0751 22 22 17.0751 22 11C22 4.92492 17.0751 0 11 0C4.92492 0 0 4.92492 0 11C0 17.0751 4.92492 22 11 22Z" fill="#0075BF"/>
<path fill-rule="evenodd" clip-rule="evenodd" d="M11 4.81274C11.3799 4.81274 11.6875 5.1203 11.6875 5.50024V16.4998C11.6875 16.8797 11.3799 17.1873 11 17.1873C10.6201 17.1873 10.3125 16.8797 10.3125 16.4998V5.50024C10.3125 5.1203 10.6201 4.81274 11 4.81274Z" fill="#0075BF"/>
<path fill-rule="evenodd" clip-rule="evenodd" d="M4.8125 11C4.8125 10.6201 5.12006 10.3125 5.5 10.3125H16.4996C16.8795 10.3125 17.1871 10.6201 17.1871 11C17.1871 11.3799 16.8795 11.6875 16.4996 11.6875H5.5C5.12006 11.6875 4.8125 11.3799 4.8125 11Z" fill="#0075BF"/>
</svg>
