<!-- Generated by IcoMoon.io -->
<svg version="1.1" xmlns="http://www.w3.org/2000/svg" width="50" height="50" viewBox="0 0 32 32">
<title>icon-impresa_professione</title>
<path d="M6.721 24.783v-10.925c-0.818-0.549-1.314-1.466-1.314-2.457 0-0.072 0.019-0.143 0.055-0.205l2.438-4.266c0.19-0.333 0.546-0.539 0.93-0.539h14.34c0.383 0 0.739 0.206 0.93 0.539l2.438 4.266c0.036 0.063 0.055 0.133 0.055 0.205 0 0.991-0.496 1.908-1.314 2.457v10.925h0.243c0.228 0 0.413 0.186 0.413 0.414s-0.185 0.413-0.413 0.413h-19.043c-0.228 0-0.413-0.185-0.413-0.413s0.185-0.414 0.413-0.414h0.243zM21.544 11.814c0.195 0.989 1.069 1.717 2.090 1.717s1.895-0.728 2.090-1.717h-4.18zM25.465 10.986l-2.084-3.646c-0.043-0.075-0.124-0.122-0.211-0.122h-14.34c-0.087 0-0.168 0.047-0.211 0.122l-2.084 3.646h18.93zM6.276 11.814c0.195 0.989 1.070 1.717 2.090 1.717s1.895-0.728 2.090-1.717h-4.18zM20.634 11.814h-4.18c0.195 0.989 1.070 1.717 2.090 1.717s1.895-0.728 2.090-1.717zM15.545 11.814h-4.18c0.195 0.989 1.069 1.717 2.090 1.717s1.895-0.727 2.090-1.717zM22.809 24.783v-2.791h-3.112v2.791h3.112zM22.809 21.165v-5.41h-3.112v5.41h3.112zM16 12.908c-0.53 0.893-1.493 1.45-2.545 1.45s-2.014-0.558-2.544-1.45c-0.53 0.892-1.494 1.45-2.545 1.45-0.277 0-0.552-0.039-0.818-0.116v10.54h11.321v-9.443c0-0.228 0.185-0.413 0.413-0.413h3.94c0.228 0 0.414 0.185 0.414 0.413v9.443h0.814v-10.54c-0.266 0.077-0.54 0.116-0.818 0.116-1.051 0-2.014-0.558-2.544-1.45-0.53 0.893-1.494 1.45-2.545 1.45s-2.014-0.558-2.545-1.45zM17.642 14.927h-8.865c-0.17 0-0.307 0.137-0.307 0.307v6.238c0 0.17 0.138 0.307 0.307 0.307h8.865c0.17 0 0.307-0.138 0.307-0.307v-6.238c0-0.17-0.137-0.307-0.307-0.307zM17.335 21.165h-8.25v-5.624h8.25v5.624z" fill="#464646"></path>
</svg>
