<!-- Generated by IcoMoon.io -->
<svg version="1.1" xmlns="http://www.w3.org/2000/svg" width="50" height="50" viewBox="0 0 32 32">
<title>icon-dati-gestore-immobile</title>
<path d="M7.144 14.776c-0.507 0.196-1.082 0.063-1.453-0.343-0.255-0.278-0.383-0.654-0.354-1.030 0.029-0.375 0.216-0.724 0.508-0.961l8.186-6.617c0.745-0.688 1.006-0.624 1.78 0.002l8.183 6.615c0.292 0.237 0.479 0.586 0.508 0.961 0.029 0.376-0.098 0.752-0.353 1.030-0.253 0.276-0.604 0.436-0.979 0.436-0.163 0-0.323-0.034-0.474-0.093v0.182c-0.243-0.052-0.491-0.090-0.743-0.114v-0.572l-7.034-5.504-7.034 5.504v0.548c-0.060-0.004-0.121-0.006-0.183-0.006-0.191 0-0.379 0.018-0.56 0.053v-0.091zM11.26 24.296h4.266c-0.124-0.243-0.233-0.494-0.327-0.753h-3.939v0.753zM10.028 13.67h4.041c0.141 0 0.255 0.114 0.255 0.255v2.575c0 0.141-0.114 0.255-0.255 0.255h-3.584c-0.154-0.418-0.4-0.792-0.712-1.097v-1.733c0-0.141 0.114-0.255 0.255-0.255zM10.283 16.245h3.532v-2.066h-3.532v2.066zM11.26 21.984h2.81c0.141 0 0.255-0.114 0.255-0.255v-3.284c0-0.141-0.114-0.255-0.255-0.255h-2.81v0.509h2.556v2.776h-2.556v0.509zM9.739 19.201l-1.113-0.6c0.371-0.264 0.611-0.684 0.611-1.155 0-0.797-0.688-1.446-1.533-1.446s-1.533 0.649-1.533 1.446c0 0.472 0.241 0.891 0.611 1.155l-1.114 0.602c-0.211 0.114-0.339 0.327-0.334 0.557l0.059 2.371 0.538-0.012-0.059-2.37c-0.001-0.052 0.032-0.089 0.064-0.106l1.36-0.734c0.020-0.011 0.041-0.016 0.063-0.016v0h0.688c0.025 0 0.048 0.006 0.068 0.018 0.004 0.002 0.007 0.004 0.011 0.006l1.345 0.725c0.044 0.024 0.068 0.069 0.064 0.116-0 0.007-0.001 0.013-0.001 0.020l-0.095 3.853c-0.002 0.058-0.044 0.097-0.085 0.11-0.002 0.001-0.004 0.002-0.006 0.002l-0.77 0.27c-0.105 0.037-0.175 0.132-0.175 0.237l-0.004 1.786c0 0.066-0.057 0.119-0.126 0.119l-1.136 0.001c-0.070 0-0.128-0.054-0.128-0.12 0-0.516-0.001-1.083-0.002-1.786 0-0.106-0.070-0.2-0.175-0.237l-0.779-0.274c-0.057-0.020-0.082-0.070-0.082-0.111 0-0.001-0-0.003-0-0.004l-0.037-1.507-0.538 0.012 0.037 1.506c0.004 0.258 0.177 0.49 0.433 0.58l0.604 0.212c0.002 0.623 0.002 1.137 0.002 1.609 0 0.346 0.299 0.628 0.666 0.628l1.136-0.002c0.367 0 0.664-0.281 0.664-0.626l0.004-1.609 0.592-0.208c0.261-0.086 0.439-0.319 0.445-0.578l0.096-3.845c0.021-0.242-0.109-0.476-0.333-0.597zM7.703 16.508c0.548 0 0.995 0.421 0.995 0.938s-0.446 0.938-0.995 0.938c-0.548 0-0.994-0.421-0.994-0.938s0.446-0.938 0.994-0.938zM21.333 23.704c-1.307 0-2.371-1.063-2.371-2.371s1.063-2.37 2.371-2.37c1.307 0 2.37 1.063 2.37 2.37s-1.063 2.371-2.37 2.371zM21.333 19.602c-0.955 0-1.732 0.777-1.732 1.732s0.777 1.732 1.732 1.732c0.954 0 1.732-0.777 1.732-1.732s-0.777-1.732-1.732-1.732zM21.668 26.667h-0.669c-0.541 0-0.982-0.441-0.982-0.982v-0.226c-0.23-0.073-0.454-0.167-0.669-0.278l-0.16 0.161c-0.389 0.389-1.011 0.378-1.389-0l-0.473-0.473c-0.378-0.378-0.389-1 0-1.389l0.16-0.16c-0.111-0.215-0.204-0.438-0.277-0.668h-0.227c-0.542 0-0.982-0.441-0.982-0.982v-0.67c0-0.541 0.44-0.982 0.982-0.982h0.227c0.073-0.23 0.166-0.454 0.277-0.669l-0.16-0.16c-0.389-0.388-0.378-1.011 0-1.389l0.473-0.473c0.378-0.379 1.001-0.388 1.389 0l0.16 0.16c0.215-0.111 0.439-0.204 0.669-0.277v-0.227c0-0.542 0.44-0.982 0.982-0.982h0.67c0.541 0 0.982 0.44 0.982 0.982v0.227c0.23 0.073 0.454 0.166 0.668 0.277l0.161-0.16c0.388-0.389 1.011-0.378 1.389 0l0.473 0.473c0.378 0.378 0.388 1-0 1.389l-0.16 0.16c0.111 0.215 0.204 0.439 0.278 0.669h0.226c0.542 0 0.982 0.44 0.982 0.982v0.67c0 0.541-0.441 0.982-0.982 0.982h-0.226c-0.073 0.23-0.167 0.454-0.278 0.668l0.161 0.161c0.388 0.388 0.378 1.010-0 1.389l-0.473 0.473c-0.378 0.378-1 0.388-1.389-0l-0.16-0.16c-0.215 0.111-0.439 0.204-0.668 0.278v0.226c0 0.542-0.441 0.982-0.982 0.982v0zM19.452 24.524c0.299 0.176 0.62 0.31 0.955 0.396 0.138 0.035 0.234 0.16 0.234 0.302v0.461c0 0.197 0.16 0.357 0.357 0.357h0.67c0.196 0 0.356-0.16 0.356-0.357v-0.461c0-0.142 0.097-0.267 0.235-0.302 0.335-0.086 0.656-0.22 0.955-0.396 0.123-0.073 0.279-0.053 0.38 0.048l0.327 0.327c0.141 0.141 0.367 0.137 0.505 0l0.474-0.474c0.137-0.137 0.141-0.363 0-0.504l-0.327-0.327c-0.101-0.101-0.121-0.257-0.048-0.38 0.176-0.298 0.31-0.62 0.396-0.955 0.035-0.138 0.16-0.235 0.302-0.235h0.461c0.197 0 0.357-0.16 0.357-0.356v-0.67c0-0.196-0.16-0.357-0.357-0.357h-0.461c-0.142 0-0.267-0.096-0.302-0.234-0.086-0.335-0.22-0.656-0.396-0.955-0.073-0.123-0.053-0.279 0.048-0.38l0.327-0.327c0.141-0.141 0.137-0.367 0-0.504l-0.474-0.474c-0.137-0.137-0.363-0.141-0.504-0l-0.327 0.327c-0.1 0.101-0.257 0.121-0.38 0.048-0.298-0.176-0.62-0.31-0.955-0.396-0.138-0.036-0.235-0.16-0.235-0.302v-0.462c0-0.197-0.16-0.357-0.356-0.357h-0.67c-0.196 0-0.357 0.16-0.357 0.357v0.462c0 0.142-0.096 0.267-0.234 0.302-0.335 0.086-0.656 0.219-0.955 0.396-0.123 0.073-0.279 0.052-0.38-0.048l-0.327-0.327c-0.141-0.141-0.367-0.138-0.504-0l-0.474 0.474c-0.137 0.137-0.141 0.363-0 0.505l0.327 0.327c0.101 0.101 0.121 0.257 0.048 0.38-0.177 0.299-0.31 0.62-0.396 0.955-0.036 0.138-0.16 0.234-0.302 0.234h-0.462c-0.197 0-0.357 0.16-0.357 0.357v0.67c0 0.196 0.16 0.356 0.357 0.356h0.462c0.142 0 0.267 0.097 0.302 0.235 0.086 0.335 0.219 0.656 0.396 0.955 0.073 0.123 0.052 0.279-0.048 0.38l-0.327 0.327c-0.141 0.141-0.138 0.367-0 0.504l0.474 0.474c0.137 0.137 0.364 0.141 0.505 0l0.327-0.327c0.074-0.074 0.229-0.137 0.38-0.048zM15.803 13.67h4.041c0.141 0 0.255 0.114 0.255 0.255v1.007c-0.172 0.033-0.342 0.073-0.509 0.119v-0.872h-3.532v2.066h1.2c-0.198 0.159-0.387 0.329-0.565 0.509h-0.89c-0.14 0-0.255-0.114-0.255-0.255v-2.575c0-0.141 0.115-0.255 0.255-0.255zM6.236 13.921c0.21 0.23 0.553 0.259 0.798 0.067l7.888-6.172 7.888 6.171c0.245 0.191 0.589 0.162 0.798-0.067 0.115-0.125 0.17-0.289 0.157-0.459s-0.094-0.322-0.227-0.428l-8.304-6.659c-0.241-0.234-0.37-0.202-0.624 0.002l-8.303 6.658c-0.133 0.107-0.214 0.258-0.227 0.428s0.042 0.333 0.157 0.459z" fill="#0075BF"></path>
</svg>
