<!-- Generated by IcoMoon.io -->
<svg version="1.1" xmlns="http://www.w3.org/2000/svg" width="50" height="50" viewBox="0 0 32 32">
<title>icon-normativa</title>
<path d="M12.534 11.099h6.814c0.246 0 0.445 0.199 0.445 0.445s-0.199 0.445-0.445 0.445h-6.814c-0.246 0-0.445-0.199-0.445-0.445s0.199-0.445 0.445-0.445zM12.466 13.472h5.776c0.208 0 0.377 0.199 0.377 0.445s-0.169 0.445-0.377 0.445h-5.776c-0.208 0-0.377-0.199-0.377-0.445s0.169-0.445 0.377-0.445zM12.325 15.844h3.612c0.13 0 0.236 0.199 0.236 0.445s-0.106 0.445-0.236 0.445h-3.612c-0.13 0-0.236-0.199-0.236-0.445s0.106-0.445 0.236-0.445zM22.538 21.419l-3.266 3.442v-2.659c-0.002-0.102 0.016-0.203 0.053-0.298s0.091-0.181 0.161-0.254c0.069-0.073 0.152-0.131 0.244-0.17s0.19-0.060 0.289-0.060h2.519zM8.7 23.495v-15.032c0-0.549 0.208-1.075 0.58-1.469s0.879-0.621 1.413-0.637h10.613c0.266 0.002 0.529 0.058 0.774 0.165s0.466 0.263 0.651 0.459c0.186 0.196 0.331 0.427 0.429 0.682s0.145 0.526 0.139 0.799v2.181c0.324 0.072 0.632 0.233 0.881 0.482l0.115 0.115v-2.764c0.006-0.408-0.068-0.813-0.215-1.193s-0.366-0.725-0.644-1.017c-0.278-0.292-0.609-0.525-0.975-0.685s-0.758-0.244-1.156-0.249h-10.613c-0.397 0.004-0.79 0.088-1.156 0.249s-0.697 0.393-0.974 0.685c-0.278 0.292-0.497 0.637-0.644 1.017s-0.22 0.785-0.215 1.193v15.061c-0.004 0.407 0.071 0.811 0.219 1.188s0.367 0.722 0.645 1.012c0.277 0.29 0.608 0.522 0.972 0.681s0.756 0.243 1.153 0.247h8.206l0.069-0.086 5.328-5.234v-0.647l-0.996-0.996v0.676h-3.252c-0.466 0.007-0.911 0.202-1.239 0.542s-0.514 0.799-0.518 1.278v3.413h-7.597c-0.266-0.004-0.528-0.061-0.771-0.169s-0.464-0.264-0.649-0.46c-0.185-0.195-0.331-0.426-0.429-0.679s-0.147-0.524-0.143-0.797v-0.014zM13.771 20.646c-0.927 0-1.682 0.754-1.682 1.682s0.755 1.682 1.682 1.682 1.682-0.755 1.682-1.682c0-0.928-0.755-1.682-1.682-1.682zM13.771 23.336c-0.556 0-1.009-0.453-1.009-1.009s0.453-1.009 1.009-1.009 1.009 0.453 1.009 1.009c0 0.556-0.453 1.009-1.009 1.009zM21.909 17.533c0.103 0.271 0.051 0.585-0.15 0.802-0.089 0.096-0.202 0.168-0.327 0.208-0.091 0.029-0.163 0.102-0.192 0.192-0.041 0.124-0.112 0.237-0.208 0.327-0.142 0.132-0.328 0.202-0.521 0.202-0.209 0-0.409-0.082-0.557-0.23l-1.841-1.841c-0.291-0.291-0.311-0.774-0.028-1.078 0.089-0.096 0.202-0.168 0.327-0.208 0.091-0.029 0.163-0.101 0.192-0.192 0.040-0.125 0.112-0.237 0.208-0.327 0.216-0.202 0.531-0.253 0.802-0.15l1.897-1.897c-0.103-0.271-0.051-0.585 0.15-0.802 0.089-0.096 0.202-0.168 0.327-0.208 0.091-0.029 0.163-0.101 0.192-0.192 0.040-0.125 0.112-0.238 0.208-0.327 0.304-0.283 0.786-0.263 1.078 0.028l1.841 1.841c0.291 0.291 0.31 0.773 0.028 1.077-0.089 0.096-0.202 0.168-0.327 0.208-0.091 0.029-0.163 0.101-0.192 0.192-0.040 0.125-0.112 0.237-0.208 0.327-0.141 0.132-0.328 0.202-0.521 0.202-0.096 0-0.192-0.018-0.281-0.051l-0.423 0.423 5.17 5.17c0.317 0.317 0.317 0.832 0 1.149-0.153 0.153-0.359 0.238-0.575 0.238s-0.422-0.085-0.575-0.238l-5.17-5.17-0.324 0.324zM20.745 18.449l-2.046-2.046c-0.036 0.017-0.073 0.033-0.112 0.045-0.033 0.011-0.062 0.029-0.086 0.055-0.076 0.081-0.063 0.213 0.013 0.289l1.841 1.841c0.077 0.077 0.208 0.089 0.289 0.013 0.026-0.024 0.044-0.052 0.055-0.086 0.012-0.038 0.028-0.076 0.045-0.112zM19.1 16.002l2.046 2.046c0.036-0.017 0.073-0.033 0.111-0.045 0.034-0.011 0.062-0.029 0.086-0.055 0.076-0.081 0.063-0.212-0.013-0.289l-1.841-1.841c-0.041-0.041-0.097-0.064-0.156-0.064-0.049 0-0.098 0.017-0.134 0.051-0.026 0.024-0.044 0.052-0.055 0.086-0.012 0.038-0.028 0.076-0.045 0.112zM22.676 12.426l2.046 2.046c0.036-0.018 0.073-0.033 0.112-0.045 0.034-0.011 0.062-0.029 0.086-0.055 0.076-0.081 0.063-0.212-0.013-0.289l-1.841-1.841c-0.041-0.041-0.097-0.064-0.156-0.064-0.049 0-0.098 0.017-0.134 0.051-0.026 0.024-0.044 0.052-0.055 0.086-0.012 0.038-0.028 0.076-0.045 0.111zM24.321 14.873l-2.046-2.046c-0.036 0.018-0.073 0.033-0.112 0.045-0.034 0.011-0.062 0.029-0.086 0.055-0.076 0.082-0.063 0.212 0.013 0.289l1.841 1.841c0.077 0.077 0.208 0.089 0.289 0.014 0.026-0.024 0.044-0.052 0.055-0.086 0.012-0.038 0.028-0.075 0.045-0.111zM21.864 13.792l-1.799 1.799 1.492 1.492 1.799-1.799-1.492-1.492zM22.982 16.461l-0.347 0.347 5.17 5.17c0.096 0.096 0.251 0.096 0.347 0s0.096-0.251 0-0.347l-5.17-5.17z" fill="#0075BF"></path>
</svg>
