<!-- Generated by IcoMoon.io -->
<svg version="1.1" xmlns="http://www.w3.org/2000/svg" width="50" height="50" viewBox="0 0 32 32">
<title>icon-suggerisci_evento</title>
<path d="M21.641 11.843c-0.193 0.193-0.204 0.51-0.013 0.707 0.336 0.345 0.789 0.536 1.27 0.535 0.489-0.001 0.945-0.196 1.29-0.541 0.193-0.193 0.204-0.51 0.012-0.708-0.039-0.040-0.085-0.074-0.136-0.098-0.188-0.090-0.409-0.045-0.556 0.101-0.158 0.158-0.368 0.247-0.591 0.247-0.222 0-0.432-0.088-0.587-0.247-0.191-0.196-0.5-0.188-0.691 0.003zM26.454 7.894c-1.352-0.946-4.425-1.208-5.981-1.208-1.554 0-4.631 0.262-5.982 1.208-0.135 0.095-0.213 0.251-0.213 0.415v1.421l-0.121 0.025c-1.321 0.268-2.628 0.769-3.84 1.35-1.411 0.677-4.091 2.254-4.916 3.692-0.082 0.143-0.090 0.32-0.021 0.47l2.596 5.659c1.215 2.647 3.828 4.388 6.747 4.388 0.64 0 1.276-0.085 1.898-0.252 0.056-0.016 0.109-0.041 0.156-0.075 1.085-0.793 1.932-1.858 2.47-3.089l0.055-0.127 0.131 0.044c0.311 0.103 0.629 0.185 0.951 0.246 0.014 0.003 0.028 0.005 0.043 0.006s0.030 0.002 0.044 0.002 0.059-0.003 0.088-0.008c3.589-0.675 6.107-3.874 6.107-7.501v-6.251c0-0.164-0.078-0.32-0.213-0.415zM8.858 20.498l-2.473-5.391 0.060-0.073c1.038-1.259 2.84-2.327 4.283-3.020 1.429-0.686 3.391-1.426 5.010-1.438l0.098-0.001 2.474 5.393c1.299 2.832 0.488 6.237-2 8.127l-0.025 0.019-0.030 0.007c-3.024 0.751-6.105-0.808-7.397-3.625zM25.692 14.56c0 3.106-2.128 5.856-5.189 6.49l-0.031 0.006-0.031-0.006c-0.23-0.048-0.457-0.108-0.68-0.181l-0.134-0.044 0.034-0.137c0.305-1.209 0.316-2.479 0.030-3.692l-0.033-0.141 0.139-0.039c0.877-0.249 1.81 0.003 2.449 0.656 0.091 0.093 0.213 0.145 0.344 0.145s0.253-0.052 0.344-0.145c0.192-0.196 0.192-0.516 0-0.712-0.9-0.921-2.224-1.267-3.454-0.894l-0.131 0.040-0.053-0.126c-0.034-0.080-0.068-0.159-0.103-0.238l-1.134-2.471 0.234-0.002c0.479-0.004 0.924-0.197 1.259-0.54 0.192-0.196 0.192-0.516 0-0.713-0.19-0.194-0.497-0.194-0.687 0-0.156 0.16-0.364 0.249-0.587 0.249s-0.432-0.089-0.587-0.249c-0.058-0.059-0.129-0.102-0.208-0.126l-0.066-0.020-0.821-1.789c-0.068-0.147-0.201-0.255-0.362-0.281-0.246-0.041-0.573-0.031-0.82-0.016l-0.16 0.009v-0.99l0.087-0.041c1.461-0.691 3.551-0.873 5.133-0.873 1.587 0 3.667 0.183 5.132 0.874l0.087 0.041v5.956zM12.1 17.216c0.091-0.257-0.035-0.548-0.293-0.644-0.452-0.167-0.943-0.144-1.377 0.065-0.441 0.211-0.768 0.584-0.931 1.044-0.091 0.257 0.035 0.548 0.294 0.644 0.053 0.019 0.108 0.030 0.165 0.030 0.208 0 0.389-0.136 0.458-0.331 0.074-0.21 0.226-0.381 0.426-0.478s0.428-0.107 0.636-0.030c0.257 0.095 0.532-0.046 0.623-0.301zM14.013 16.3c0.053 0.019 0.108 0.030 0.164 0.030 0.208 0 0.389-0.135 0.458-0.33 0.074-0.21 0.225-0.381 0.427-0.477 0.2-0.096 0.428-0.106 0.636-0.030 0.257 0.095 0.532-0.045 0.623-0.301 0.091-0.257-0.035-0.548-0.293-0.644-0.947-0.35-1.975 0.165-2.308 1.108-0.091 0.257 0.035 0.549 0.293 0.644zM16.633 18.953c0.091-0.257-0.035-0.548-0.294-0.644-0.257-0.095-0.532 0.046-0.623 0.301-0.464 1.312-1.897 2.024-3.212 1.538-0.257-0.095-0.532 0.046-0.622 0.301-0.091 0.257 0.035 0.548 0.293 0.644 0.378 0.14 0.776 0.212 1.178 0.212 1.482 0 2.786-0.958 3.278-2.352z" fill="#0075BF"></path>
</svg>
