<!-- Generated by IcoMoon.io -->
<svg version="1.1" xmlns="http://www.w3.org/2000/svg" width="50" height="50" viewBox="0 0 32 32">
<title>icon-ente</title>
<path d="M26.25 14.333h-0.666v-3.25c0-0.23-0.186-0.417-0.417-0.417h-5.127c-0.016 0-0.032 0.001-0.047 0.003-0.751-1.237-2.061-2.1-3.576-2.234v-0.602h2.264c0.23 0 0.417-0.187 0.417-0.417v-1.666c0-0.23-0.187-0.417-0.417-0.417h-2.681c-0.23 0-0.417 0.187-0.417 0.417v2.685c-1.514 0.134-2.823 0.996-3.574 2.232-0.004 0-0.009-0-0.013-0h-5.163c-0.23 0-0.417 0.186-0.417 0.417v3.25h-0.666c-0.23 0-0.417 0.187-0.417 0.417v11.5c0 0.23 0.187 0.417 0.417 0.417h20.499c0.23 0 0.417-0.187 0.417-0.417v-11.5c0-0.23-0.186-0.417-0.417-0.417zM24.75 11.5v2.833h-0.99l0.206-1.178c0.021-0.121-0.013-0.246-0.091-0.34s-0.196-0.148-0.319-0.148h-2.908c-0.036-0.406-0.124-0.797-0.258-1.167h4.36zM10.25 15.167h1.833v7.333h-1.833v-7.333zM19.083 15.167v7.333h-2.666v-4c0-0.23-0.186-0.416-0.417-0.416s-0.417 0.186-0.417 0.416v4h-2.666v-7.333h6.166zM9.638 23.333h12.723l0.273 0.833h-13.268l0.272-0.833zM19.917 22.5v-7.333h1.833v7.333h-1.833zM9.834 14.333h-0.748l-0.146-0.833h14.119l-0.145 0.833h-13.080zM16.417 6.167h1.847v0.833h-1.847v-0.833zM16 9.25c1.973 0 3.602 1.498 3.811 3.417h-7.621c0.208-1.918 1.838-3.417 3.811-3.417zM7.25 11.5h4.36c-0.134 0.37-0.222 0.761-0.258 1.167h-2.908c-0.123 0-0.24 0.054-0.319 0.148s-0.113 0.219-0.092 0.34l0.206 1.178h-0.99v-2.833zM6.167 15.167h3.249v7.333h-0.080c-0.18 0-0.34 0.116-0.396 0.287l-0.451 1.379h-0.541c-0.177 0-0.335 0.112-0.393 0.279l-0.485 1.387h-0.904v-10.666zM22.166 25.833h-14.212l0.291-0.833h15.51l0.291 0.833h-1.88zM25.833 25.833h-0.905l-0.484-1.387c-0.058-0.168-0.216-0.279-0.394-0.279h-0.54l-0.451-1.379c-0.056-0.171-0.215-0.287-0.396-0.287h-0.080v-7.333h3.25v10.666z" fill="#464646"></path>
</svg>
