<svg width="65" height="66" viewBox="0 0 65 66" fill="none" xmlns="http://www.w3.org/2000/svg">
<path d="M56.6093 28.1894C57.0129 28.1894 57.34 27.8623 57.34 27.4587V24.2977C57.34 21.5591 55.1119 19.3311 52.3732 19.3311H50.3493C50.0178 18.6955 49.3537 18.2599 48.5889 18.2599H46.2261C45.461 18.2599 44.7969 18.6955 44.4657 19.3311H41.9775V17.2018C41.9775 14.2416 39.5693 11.8333 36.6091 11.8333H28.3907C25.4304 11.8333 23.0221 14.2416 23.0221 17.2018V19.3312H20.5342C20.2028 18.6956 19.5387 18.2599 18.7737 18.2599H16.4111C15.6461 18.2599 14.982 18.6956 14.6507 19.3312H12.6265C9.88789 19.3312 7.65985 21.5592 7.65985 24.2977V45.9883C7.65985 46.3919 7.98704 46.7193 8.39059 46.7193C8.79416 46.7193 9.12132 46.3919 9.12132 45.9883V24.2977C9.12132 22.3651 10.6937 20.7927 12.6264 20.7927H14.4258V51.6994H12.6265C10.6938 51.6994 9.12143 50.1269 9.12143 48.1943V45.0943C9.12143 44.6908 8.79424 44.3636 8.39069 44.3636C7.98713 44.3636 7.65985 44.6908 7.65985 45.0943V48.1943C7.65985 50.9329 9.88789 53.1608 12.6265 53.1608H14.6507C14.982 53.7962 15.6461 54.2319 16.4111 54.2319H18.7738C19.5388 54.2319 20.2029 53.7962 20.5343 53.1608H44.4657C44.7969 53.7962 45.461 54.2319 46.2261 54.2319H48.5889C49.3537 54.2319 50.0178 53.7962 50.3493 53.1608H52.3735C55.1122 53.1608 57.34 50.9327 57.34 48.194V27.3583C57.34 26.9548 57.0129 26.6276 56.6093 26.6276C56.2058 26.6276 55.8786 26.9548 55.8786 27.3583V48.1943C55.8786 50.1269 54.3062 51.6994 52.3735 51.6994H50.5741V20.7927H52.3735C54.3062 20.7927 55.8786 22.3651 55.8786 24.2977V27.4587C55.8786 27.8623 56.2058 28.1894 56.6093 28.1894ZM24.4837 17.2018C24.4837 15.0474 26.2363 13.2948 28.3907 13.2948H36.6091C38.7636 13.2948 40.5164 15.0475 40.5164 17.2018V19.3312H38.0805V17.2018C38.0805 16.3905 37.4205 15.7306 36.6091 15.7306H28.3907C27.5792 15.7306 26.9194 16.3905 26.9194 17.2018V19.3312H24.4836L24.4837 17.2018ZM36.6188 17.2018V19.3312H28.3809V17.2018L28.3907 17.1922H36.6091L36.6188 17.2018ZM44.2406 51.6994H20.759V27.2639C20.759 26.8603 20.4318 26.5331 20.0283 26.5331C19.6247 26.5331 19.2975 26.8603 19.2975 27.2639V52.2467C19.2975 52.5354 19.0625 52.7705 18.7738 52.7705H16.4111C16.1224 52.7705 15.8874 52.5354 15.8874 52.2467V20.2454C15.8873 19.9565 16.1224 19.7216 16.4111 19.7216H18.7738C19.0626 19.7216 19.2975 19.9566 19.2975 20.2453V28.9109C19.2975 29.2164 19.5002 29.5005 19.7883 29.6013C20.2543 29.764 20.759 29.4036 20.759 28.9109V20.7928H44.2406V51.6994ZM49.1124 52.2467C49.1124 52.5354 48.8773 52.7703 48.5889 52.7703H46.2261C45.9371 52.7703 45.7023 52.5354 45.7023 52.2467V20.2453C45.7023 19.9565 45.9371 19.7216 46.2261 19.7216H48.5889C48.8776 19.7216 49.1124 19.9565 49.1124 20.2453V52.2467Z" fill="#000000" stroke="#000000" stroke-width="0.3"/>
</svg>
