<!-- Generated by IcoMoon.io -->
<svg version="1.1" xmlns="http://www.w3.org/2000/svg" width="50" height="50" viewBox="0 0 32 32">
<title>icon-creazione_agenda</title>
<path d="M24.208 12.644v0.66h0.899c0.833 0 1.559 0.646 1.559 1.494v2.401c0 0.849-0.727 1.494-1.559 1.494h-0.899v0.66h0.899c0.833 0 1.559 0.646 1.559 1.495v2.401c0 0.849-0.726 1.494-1.559 1.494h-0.961c-0.266 1.146-1.333 1.921-2.502 1.921h-12.143c-1.369 0-2.563-1.060-2.563-2.455v-0.474h-1.050c-0.298 0-0.556-0.231-0.556-0.535s0.258-0.534 0.556-0.534h1.050v-3.734h-1.050c-0.298 0-0.556-0.231-0.556-0.534s0.258-0.534 0.556-0.534h1.050v-3.734h-1.050c-0.298 0-0.556-0.231-0.556-0.534s0.258-0.534 0.556-0.534h1.050v-3.734h-1.050c-0.298 0-0.556-0.231-0.556-0.534s0.258-0.535 0.556-0.535h1.050v-0.474c0-1.395 1.194-2.455 2.563-2.455h12.143c1.168 0 2.235 0.775 2.502 1.921h0.961c0.833 0 1.559 0.646 1.559 1.495v2.401c0 0.849-0.726 1.495-1.559 1.495h-0.899zM11.108 21.811v-15.463h-1.606c-0.83 0-1.505 0.646-1.505 1.441v0.528h1.104c0.277 0 0.502 0.215 0.502 0.481s-0.224 0.48-0.502 0.48h-1.104v3.842h1.104c0.277 0 0.502 0.215 0.502 0.48s-0.224 0.48-0.502 0.48h-1.104v3.842h1.104c0.277 0 0.502 0.215 0.502 0.48s-0.224 0.48-0.502 0.48h-1.104v3.842h1.104c0.277 0 0.502 0.215 0.502 0.48s-0.224 0.481-0.502 0.481h-1.104v0.528c0 0.795 0.675 1.44 1.505 1.44h1.606v-3.841zM12.165 25.598h9.48c0.774 0 1.451-0.597 1.451-1.386v-16.423c0-0.789-0.678-1.387-1.451-1.387h-9.48v19.196zM24.208 8.323v3.254h0.899c0.238 0 0.448-0.183 0.448-0.427v-2.401c0-0.243-0.21-0.426-0.448-0.426h-0.899zM24.208 20.424v3.254h0.899c0.238 0 0.448-0.183 0.448-0.426v-2.401c0-0.243-0.21-0.427-0.448-0.427h-0.899zM24.208 14.373v3.253h0.899c0.238 0 0.448-0.183 0.448-0.426v-2.401c0-0.243-0.21-0.426-0.448-0.426h-0.899z" fill="#0075BF"></path>
</svg>
