<!-- Generated by IcoMoon.io -->
<svg version="1.1" xmlns="http://www.w3.org/2000/svg" width="50" height="50" viewBox="0 0 32 32">
<title>icon-edu_co</title>
<path d="M16.019 9.396c-0.637-0.004-1.262 0.182-1.794 0.533s-0.948 0.854-1.195 1.442c-0.246 0.588-0.313 1.237-0.191 1.863s0.427 1.202 0.877 1.654c0.45 0.452 1.024 0.761 1.649 0.887 0.624 0.125 1.275 0.062 1.863-0.18 0.589-0.243 1.094-0.656 1.449-1.186s0.544-1.153 0.544-1.791c0-0.851-0.337-1.668-0.937-2.271s-1.414-0.945-2.266-0.95zM18.327 12.617c-0.002 0.455-0.143 0.9-0.399 1.276s-0.618 0.669-1.040 0.841c-0.42 0.171-0.888 0.214-1.332 0.122-0.446-0.091-0.855-0.313-1.176-0.636s-0.538-0.735-0.626-1.182c-0.087-0.446-0.040-0.91 0.135-1.33s0.471-0.78 0.85-1.033c0.379-0.252 0.825-0.39 1.28-0.387 0.614 0.003 1.201 0.254 1.633 0.69s0.676 1.025 0.674 1.639zM22.546 13.716c0.040-0.077 0.060-0.163 0.060-0.251 0-0.092-0.023-0.183-0.073-0.274l-0.731-1.622 0.212-1.814c0.020-0.088 0.014-0.181-0.019-0.266-0.031-0.082-0.087-0.153-0.159-0.204l-1.422-0.988-0.714-1.632c-0.029-0.080-0.081-0.151-0.15-0.201-0.065-0.048-0.144-0.075-0.225-0.075h-1.656l-1.251-0.824-0.215-0.165c-0.071-0.045-0.151-0.068-0.235-0.068s-0.165 0.024-0.233 0.067l-1.424 0.99h-1.7c-0.081 0-0.159 0.028-0.224 0.075-0.069 0.050-0.121 0.121-0.154 0.211l-0.71 1.623-1.422 0.988c-0.070 0.048-0.122 0.117-0.153 0.195-0.032 0.082-0.040 0.172-0.022 0.269l0.229 1.796-0.714 1.631c-0.042 0.083-0.056 0.18-0.040 0.272 0.016 0.091 0.060 0.175 0.128 0.237l0.009 0.008 1.095 1.348 0.231 1.801c0.009 0.088 0.044 0.171 0.1 0.239 0.053 0.064 0.125 0.111 0.208 0.133l1.259 0.354-0.001 8.682c-0.042 0.428 0.489 0.546 0.735 0.256l2.886-3.052 2.89 3.056c0.223 0.254 0.743 0.192 0.73-0.276v-8.666l1.276-0.358c0.080-0.014 0.151-0.057 0.203-0.119 0.055-0.066 0.086-0.15 0.089-0.253l0.229-1.798 1.078-1.326zM19.005 16.834l-1.255 1.208-1.411-0.269h-0.325l-1.438 0.473-1.303-1.412-1.482-0.466-0.219-1.617c-0.002-0.079-0.030-0.156-0.086-0.221l-0.996-1.25 0.601-1.465c0.021-0.098 0.020-0.201-0.005-0.313l-0.217-1.594 1.291-0.896c0.052-0.032 0.093-0.073 0.119-0.119l0.63-1.507h1.571c0.073-0.002 0.142-0.032 0.195-0.082l0.009-0.009 1.304-0.905 1.236 0.843c0.054 0.041 0.201 0.025 0.312 0.025h1.472l0.611 1.49c0.030 0.074 0.087 0.135 0.16 0.169l0.013 0.006 1.295 0.899-0.22 1.631c-0.021 0.091-0.022 0.186-0.003 0.277l0.799 1.446-0.9 1.344-0.012 0.014c-0.052 0.061-0.080 0.14-0.085 0.237l-0.217 1.597-1.446 0.468zM17.639 19.174h0.164c0.064 0.002 0.127-0.010 0.186-0.034 0.061-0.025 0.113-0.060 0.155-0.103l0.673-0.781v6.507l-0.246 0.173-2.136-2.243c-0.037-0.042-0.083-0.077-0.135-0.1-0.050-0.023-0.105-0.035-0.174-0.034-0.050 0.002-0.099 0.013-0.145 0.034-0.052 0.024-0.098 0.058-0.143 0.109l-2.456 2.41v-6.856l0.618 0.853c0.048 0.055 0.116 0.101 0.193 0.126 0.061 0.020 0.127 0.025 0.19 0.016 0.013-0.002 0.025-0.004 0.034-0.006l1.268-0.384v2.357c0 0.098 0.029 0.195 0.085 0.276 0.014 0.020 0.029 0.039 0.045 0.056 0.080 0.084 0.188 0.133 0.321 0.133 0.111-0.004 0.213-0.053 0.29-0.133 0.019-0.020 0.036-0.041 0.051-0.064 0.052-0.079 0.080-0.173 0.080-0.268v-2.354l1.082 0.31z" fill="#0075BF"></path>
</svg>
