<!-- Generated by IcoMoon.io -->
<svg version="1.1" xmlns="http://www.w3.org/2000/svg" width="50" height="50" viewBox="0 0 32 32">
<title>icon-zoom_out</title>
<path d="M13.091 19.426c3.499 0 6.336-2.837 6.336-6.336s-2.837-6.335-6.336-6.335c-3.499 0-6.335 2.836-6.335 6.335s2.836 6.336 6.335 6.336zM19.014 18.1l7.463 7.463c0.253 0.253 0.253 0.662 0 0.914s-0.662 0.253-0.914 0l-7.463-7.463c-1.351 1.145-3.1 1.834-5.009 1.834-4.284 0-7.757-3.473-7.757-7.757s3.473-7.757 7.757-7.757c4.285 0 7.757 3.473 7.757 7.757 0 1.91-0.69 3.657-1.834 5.009zM8.73 13.098c0-0.268 0.217-0.485 0.485-0.485h7.764c0.268 0 0.485 0.217 0.485 0.485s-0.217 0.485-0.485 0.485h-7.764c-0.268 0-0.485-0.217-0.485-0.485z"></path>
</svg>
