<!-- Generated by IcoMoon.io -->
<svg version="1.1" xmlns="http://www.w3.org/2000/svg" width="50" height="50" viewBox="0 0 32 32">
<title>icon-manifestazione_intresse</title>
<path d="M26.666 17.315c0-0.111-0.044-0.218-0.121-0.296s-0.185-0.123-0.296-0.123h-3.124v-2.272c1.983-0.562 3.441-2.392 3.441-4.556 0-2.611-2.121-4.735-4.727-4.735s-4.726 2.124-4.726 4.735c0 2.164 1.457 3.994 3.44 4.556v2.273h-1.572c-0.066 0-0.13 0.015-0.188 0.045l-2.371 1.204v-0.157c0-0.231-0.187-0.418-0.417-0.418h-2.722l-7.508-0.443c-0.114-0.007-0.227 0.035-0.31 0.113s-0.131 0.189-0.131 0.304v6.682c0 0 0.604 0 0.834 0v-6.239l6.686 0.394v6.676l-6.685 0.725v-1.556h-0.835v2.021c0 0.119 0.051 0.232 0.139 0.311 0.077 0.069 0.176 0.107 0.278 0.107 0.015 0 0.030-0.001 0.045-0.003l7.497-0.812h2.712c0.182 0 0.336-0.116 0.393-0.279l1.859 1.006c0.061 0.033 0.129 0.050 0.197 0.050l1.432 0.004c0.001 0 0.001 0 0.002 0l1.688 0.004c0.682 0 1.237-0.554 1.239-1.238v-0.070c0-0.14-0.022-0.277-0.066-0.406h0.004c0.339 0 0.657-0.132 0.898-0.371s0.374-0.56 0.375-0.901c0-0.195-0.042-0.384-0.124-0.555 0.451-0.195 0.767-0.642 0.768-1.161 0-0.185-0.039-0.365-0.112-0.529 0.484-0.179 0.83-0.642 0.832-1.186 0-0.243-0.066-0.471-0.183-0.665 0.857-0.384 1.457-1.243 1.459-2.24zM17.947 10.068c0-2.15 1.746-3.899 3.892-3.899s3.892 1.749 3.892 3.899c0 1.991-1.498 3.638-3.424 3.87-0.303 0.036-0.612 0.037-0.916 0.002-1.936-0.223-3.445-1.875-3.445-3.873zM21.388 14.781c0.3 0.029 0.603 0.029 0.903 0v2.116h-0.903v-2.116zM13.687 25.016v-6.61h1.901v6.61h-1.901zM24.118 19.77c0.242 0.001 0.439 0.202 0.438 0.448-0.001 0.242-0.194 0.431-0.44 0.431-0.001 0-0.001 0-0.002 0l-2.869-0.001c-0.269-0.011-0.468-0.269-0.411-0.533 0.043-0.198 0.22-0.347 0.431-0.347l2.852 0.001zM23.707 21.617c0.084 0.085 0.13 0.197 0.13 0.316-0.001 0.242-0.194 0.432-0.439 0.432-0.001 0-0.002 0-0.003 0l-2.564-0c-0 0-0.001 0-0.001 0-0.239-0.004-0.433-0.202-0.432-0.442 0-0.242 0.198-0.438 0.441-0.438l2.56 0c0.116 0 0.226 0.047 0.308 0.132zM21.981 25.396c-0 0.224-0.182 0.405-0.405 0.405-0 0-0 0-0.001 0l-1.688-0.005c-0.239-0-0.439-0.202-0.438-0.442 0-0.242 0.198-0.439 0.441-0.439l1.687 0.004c0.133 0 0.259 0.068 0.334 0.178 0.062 0.091 0.070 0.192 0.069 0.298zM23.063 23.96c-0.083 0.083-0.193 0.127-0.311 0.128l-2.557-0.007c-0.24-0.002-0.442-0.197-0.442-0.441 0.001-0.241 0.203-0.439 0.442-0.439l2.559 0.001c0.241 0 0.439 0.209 0.439 0.448-0 0.118-0.046 0.228-0.13 0.311zM24.201 18.935c-0.001 0-0.003 0-0.004 0l-2.93-0.001c-0.001 0-0.002 0-0.004 0-0.339 0-0.657 0.132-0.898 0.371-0.207 0.206-0.334 0.471-0.367 0.757-0.031 0.27 0.025 0.547 0.16 0.782-0.079 0.050-0.153 0.108-0.22 0.176-0.201 0.2-0.327 0.455-0.364 0.731-0.006 0.039-0.009 0.078-0.010 0.117-0.018 0.066-0.086 0.274-0.276 0.475-0.311 0.33-0.796 0.498-1.442 0.498-0.23 0-0.417 0.187-0.417 0.418s0.187 0.418 0.417 0.418c0.42 0 0.776-0.061 1.079-0.162-0.028 0.286 0.042 0.579 0.199 0.82-0.047 0.035-0.092 0.074-0.134 0.116-0.348 0.347-0.467 0.88-0.299 1.342h-0.13l-2.139-1.158v-5.553l2.659-1.35 6.695-0.001c-0.187 0.693-0.822 1.203-1.575 1.203zM21.556 12.025l2.665-2.665c0.163-0.163 0.163-0.427 0-0.589s-0.426-0.163-0.59 0l-2.34 2.34-0.698-0.848c-0.146-0.177-0.409-0.203-0.587-0.056s-0.203 0.409-0.057 0.586l0.99 1.202c0.075 0.090 0.184 0.146 0.302 0.151 0.007 0 0.013 0 0.020 0 0.11 0 0.216-0.043 0.295-0.122zM15.055 19.82c-0.068-0.164-0.237-0.269-0.415-0.256-0.181 0.013-0.335 0.147-0.375 0.324-0.083 0.363 0.34 0.646 0.646 0.432 0.157-0.11 0.219-0.322 0.145-0.5z" fill="#0075BF"></path>
</svg>
