<!-- Generated by IcoMoon.io -->
<svg version="1.1" xmlns="http://www.w3.org/2000/svg" width="50" height="50" viewBox="0 0 32 32">
<title>icon-monitoraggio_CPS</title>
<path d="M17.514 24.215l-0.612 0.645v-0.831c-0.345-0.127-0.674-0.288-0.982-0.478v2.063h-7.597c-0.266-0.004-0.528-0.061-0.771-0.169s-0.464-0.264-0.649-0.46c-0.185-0.195-0.331-0.426-0.429-0.679s-0.147-0.524-0.143-0.797v-15.047c0-0.549 0.208-1.075 0.58-1.469s0.879-0.621 1.413-0.637h10.613c0.266 0.002 0.529 0.058 0.774 0.165s0.466 0.263 0.651 0.459c0.186 0.196 0.331 0.427 0.429 0.682s0.145 0.526 0.139 0.799v5.227c0.352 0.144 0.685 0.323 0.996 0.533v-5.746c0.006-0.408-0.068-0.813-0.215-1.193s-0.366-0.725-0.644-1.017c-0.278-0.292-0.609-0.525-0.975-0.685s-0.758-0.244-1.156-0.249h-10.613c-0.397 0.004-0.79 0.088-1.156 0.249s-0.697 0.393-0.974 0.685c-0.278 0.292-0.497 0.637-0.644 1.017s-0.22 0.785-0.215 1.193v15.061c-0.004 0.407 0.071 0.811 0.219 1.188s0.367 0.722 0.645 1.012c0.277 0.29 0.608 0.522 0.972 0.681s0.756 0.243 1.153 0.247h8.206l0.069-0.086 2.249-2.21h-0.022c-0.451 0-0.89-0.054-1.311-0.156zM13.509 17.229c-0.606-0.221-1.104-0.663-1.397-1.229h1.936c0.104-0.176 0.217-0.345 0.339-0.508v-0.282h-2.536c-0.020-0.13-0.032-0.261-0.032-0.395s0.012-0.265 0.032-0.395h2.536v-0.79h-2.276c0.426-0.821 1.288-1.382 2.276-1.382 0.636 0 1.22 0.233 1.671 0.62l0.7-0.699c-0.628-0.565-1.462-0.908-2.37-0.908-1.549 0-2.86 0.991-3.35 2.37h-1.391v0.79h1.209c-0.016 0.13-0.024 0.261-0.024 0.395s0.008 0.265 0.024 0.395h-1.209v0.79h1.391c0.371 1.044 1.213 1.866 2.273 2.204 0.037-0.335 0.104-0.661 0.199-0.975zM18.824 22.483c2.021 0 3.66-1.639 3.66-3.66s-1.639-3.66-3.66-3.66c-2.021 0-3.66 1.638-3.66 3.66s1.638 3.66 3.66 3.66zM22.246 21.717l4.311 4.311c0.146 0.146 0.146 0.383 0 0.528s-0.382 0.146-0.528 0l-4.311-4.311c-0.78 0.661-1.791 1.060-2.893 1.060-2.475 0-4.481-2.006-4.481-4.481s2.007-4.481 4.481-4.481c2.475 0 4.481 2.007 4.481 4.481 0 1.103-0.399 2.113-1.060 2.893z" fill="#0075BF"></path>
</svg>
