<!-- Generated by IcoMoon.io -->
<svg version="1.1" xmlns="http://www.w3.org/2000/svg" width="50" height="50" viewBox="0 0 32 32">
<title>icon-offerte</title>
<path d="M26.483 5.517c-0.244-0.244-0.64-0.244-0.884 0l-1.82 1.82c-0.112-0.053-0.23-0.096-0.353-0.127l-5.657-1.398c-0.636-0.159-1.318 0.030-1.781 0.493l-10.107 10.090c-0.731 0.731-0.731 1.921 0 2.652l7.072 7.071c0.731 0.731 1.921 0.731 2.652 0l10.090-10.106c0.463-0.463 0.652-1.145 0.493-1.781l-1.398-5.657c-0.031-0.123-0.074-0.241-0.127-0.353l1.82-1.82c0.244-0.244 0.244-0.64 0-0.884zM24.975 14.535c0.053 0.212-0.010 0.439-0.164 0.594l-10.090 10.106c-0.244 0.244-0.64 0.244-0.884 0l-7.071-7.071c-0.244-0.244-0.244-0.64 0-0.884l10.106-10.089c0.118-0.118 0.279-0.183 0.444-0.183 0.050 0 0.1 0.006 0.15 0.019l5.314 1.312-1.505 1.505c-0.697-0.332-1.558-0.21-2.134 0.366-0.731 0.731-0.731 1.921 0 2.652 0.365 0.365 0.846 0.548 1.326 0.548s0.96-0.183 1.325-0.548c0.576-0.576 0.698-1.437 0.366-2.134l1.506-1.505 1.311 5.314zM20.908 11.976c-0.244 0.244-0.64 0.244-0.884 0s-0.244-0.64 0-0.884c0.122-0.122 0.282-0.183 0.442-0.183s0.32 0.061 0.442 0.183v0c0.244 0.244 0.244 0.64 0 0.884z" fill="#0075BF"></path>
</svg>
