<svg width="15" height="15" viewBox="-10 -5 50 50" fill="none" xmlns="http://www.w3.org/2000/svg">
<path d="M8.96677 14.8226C9.14674 14.8226 9.32298 14.7494 9.45009 14.6223C9.57719 14.495 9.65036 14.3187 9.65036 14.139C9.65036 13.959 9.57719 13.7828 9.45009 13.6557C9.32298 13.5286 9.14674 13.4554 8.96677 13.4554C8.78625 13.4554 8.61082 13.5286 8.48344 13.6557C8.35634 13.7828 8.28317 13.959 8.28317 14.139C8.28317 14.3187 8.35634 14.495 8.48344 14.6223C8.61082 14.7494 8.78706 14.8226 8.96677 14.8226Z" fill="#0075BF"/>
<path d="M18.7589 13.9177C18.6313 13.7906 18.4556 13.7174 18.2751 13.7174C18.0954 13.7174 17.9189 13.7906 17.7918 13.9177C17.6647 14.0448 17.5915 14.2213 17.5915 14.401C17.5915 14.5807 17.6647 14.7572 17.7918 14.8844C17.9189 15.0115 18.0954 15.0846 18.2751 15.0846C18.4556 15.0846 18.6313 15.0115 18.7589 14.8844C18.886 14.7572 18.9587 14.5815 18.9587 14.401C18.9587 14.2213 18.886 14.0448 18.7589 13.9177Z" fill="#0075BF"/>
<path d="M20.6682 12.692C20.8482 12.692 21.0244 12.6189 21.1515 12.4918C21.2786 12.3647 21.3513 12.1882 21.3513 12.0085C21.3513 11.8287 21.2786 11.6522 21.1515 11.5251C21.0244 11.398 20.8482 11.3249 20.6682 11.3249C20.488 11.3249 20.3114 11.398 20.1843 11.5251C20.0572 11.6522 19.9841 11.8287 19.9841 12.0085C19.9841 12.1882 20.0572 12.3647 20.1843 12.4918C20.3114 12.6189 20.488 12.692 20.6682 12.692Z" fill="#0075BF"/>
<path d="M32.9492 16.8161H31.0418L34.3995 13.4585C34.7866 13.0711 35 12.556 35 12.0083C35 11.4606 34.7866 10.9455 34.3995 10.5583L31.354 7.51286C31.0872 7.24609 30.6544 7.24609 30.3873 7.51286C30.0002 7.90031 29.4851 8.11367 28.9374 8.11367C28.3894 8.11367 27.8746 7.90031 27.4871 7.51286C27.0997 7.12566 26.8866 6.61057 26.8866 6.06289C26.8866 5.51495 27.1 5.00011 27.4871 4.61266C27.6153 4.48448 27.6874 4.31065 27.6874 4.12933C27.6874 3.94802 27.6153 3.77419 27.4871 3.64601L24.4419 0.600815C24.0545 0.213356 23.5397 0 22.9917 0C22.444 0 21.9289 0.213356 21.5417 0.600815L10.2512 11.8911C9.98421 12.1578 9.98421 12.5907 10.2512 12.8577C10.5183 13.1247 10.9511 13.1247 11.2181 12.8577L22.5084 1.56746C22.6376 1.43822 22.8091 1.36719 22.9917 1.36719C23.1744 1.36719 23.3461 1.43822 23.475 1.56746L26.0852 4.1774C25.717 4.73175 25.5194 5.38223 25.5194 6.06289C25.5194 6.97586 25.8748 7.83409 26.5205 8.47977C27.1662 9.12518 28.0244 9.48086 28.9374 9.48086C29.618 9.48086 30.2682 9.28326 30.8229 8.91502L33.4328 11.525C33.6993 11.7915 33.6993 12.2251 33.4328 12.4916L29.1083 16.8161H26.1114L28.3574 14.5702C28.6242 14.3031 28.6242 13.8703 28.3574 13.6035L21.3968 6.64288C21.1297 6.37585 20.6969 6.37585 20.4298 6.64288L10.2566 16.8161H2.05078C0.919914 16.8161 0 17.7361 0 18.8669V23.1736C0 23.5509 0.306015 23.8572 0.683594 23.8572C1.81446 23.8572 2.73438 24.7771 2.73438 25.9079C2.73438 27.0385 1.81446 27.9587 0.683594 27.9587C0.306015 27.9587 0 28.2647 0 28.6423V32.949C0 34.0796 0.919914 34.9997 2.05078 34.9997H32.9492C34.0801 34.9997 35 34.0796 35 32.949V28.6423C35 28.2647 34.694 27.9587 34.3164 27.9587C33.1855 27.9587 32.2656 27.0385 32.2656 25.9079C32.2656 24.7771 33.1855 23.8572 34.3164 23.8572C34.694 23.8572 35 23.5509 35 23.1736V18.8669C35 17.7361 34.0801 16.8161 32.9492 16.8161ZM20.9132 8.09284L26.9072 14.0868L24.1779 16.8161H21.471L23.475 14.8118C23.7421 14.5451 23.7421 14.1122 23.475 13.8452C23.2083 13.5781 22.7754 13.5781 22.5084 13.8452L19.5374 16.8159H12.1901L20.9132 8.09284ZM33.6328 22.5586C32.0747 22.8761 30.8984 24.2572 30.8984 25.9079C30.8984 27.5584 32.0747 28.9395 33.6328 29.2573V32.949C33.6328 33.3257 33.3263 33.6325 32.9492 33.6325H2.05078C1.67374 33.6325 1.36719 33.3257 1.36719 32.949V29.2573C2.9253 28.9395 4.10156 27.5584 4.10156 25.9079C4.10156 24.2572 2.9253 22.8764 1.36719 22.5586V18.8669C1.36719 18.4899 1.67374 18.1833 2.05078 18.1833H32.9492C33.3263 18.1833 33.6328 18.4899 33.6328 18.8669V22.5586Z" fill="#0075BF"/>
<path d="M14.5995 24.7509C14.7266 24.6235 14.7998 24.4473 14.7998 24.2675C14.7998 24.0876 14.7266 23.9113 14.5995 23.7842C14.4724 23.6571 14.2959 23.584 14.1162 23.584C13.9365 23.584 13.76 23.6571 13.6329 23.7842C13.5058 23.9113 13.4326 24.0876 13.4326 24.2675C13.4326 24.4473 13.5058 24.6235 13.6329 24.7509C13.76 24.878 13.9365 24.9511 14.1162 24.9511C14.2959 24.9511 14.4724 24.878 14.5995 24.7509Z" fill="#0075BF"/>
<path d="M21.3671 24.7509C21.4942 24.6235 21.5674 24.4473 21.5674 24.2675C21.5674 24.0876 21.4942 23.9113 21.3671 23.7842C21.24 23.6571 21.0635 23.584 20.8838 23.584C20.7041 23.584 20.5276 23.6571 20.4005 23.7842C20.2734 23.9113 20.2002 24.0876 20.2002 24.2675C20.2002 24.4473 20.2734 24.6235 20.4005 24.7509C20.5276 24.878 20.7041 24.9511 20.8838 24.9511C21.0635 24.9511 21.24 24.878 21.3671 24.7509Z" fill="#0075BF"/>
<path d="M17.9833 24.7509C18.1104 24.6235 18.1836 24.4473 18.1836 24.2675C18.1836 24.0876 18.1104 23.9113 17.9833 23.7842C17.8562 23.6571 17.6797 23.584 17.5 23.584C17.3203 23.584 17.1438 23.6571 17.0167 23.7842C16.8896 23.9113 16.8164 24.0876 16.8164 24.2675C16.8164 24.4473 16.8896 24.6235 17.0167 24.7509C17.1438 24.878 17.3203 24.9511 17.5 24.9511C17.6797 24.9511 17.8562 24.878 17.9833 24.7509Z" fill="#0075BF"/>
<path d="M10.7324 24.9511C10.9121 24.9511 11.0886 24.878 11.2157 24.7509C11.3428 24.6235 11.416 24.4473 11.416 24.2675C11.416 24.0876 11.3428 23.9113 11.2157 23.7842C11.0886 23.6571 10.9121 23.584 10.7324 23.584C10.5527 23.584 10.3762 23.6571 10.2491 23.7842C10.122 23.9113 10.0488 24.0876 10.0488 24.2675C10.0488 24.4473 10.122 24.6235 10.2491 24.7509C10.3762 24.878 10.5527 24.9511 10.7324 24.9511Z" fill="#0075BF"/>
<path d="M24.7509 24.7509C24.878 24.6235 24.9512 24.4473 24.9512 24.2675C24.9512 24.0876 24.878 23.9113 24.7509 23.7842C24.6238 23.6571 24.4473 23.584 24.2676 23.584C24.0879 23.584 23.9114 23.6571 23.7843 23.7842C23.6572 23.9113 23.584 24.0876 23.584 24.2675C23.584 24.4473 23.6572 24.6235 23.7843 24.7509C23.9114 24.878 24.0879 24.9511 24.2676 24.9511C24.4473 24.9511 24.6238 24.878 24.7509 24.7509Z" fill="#0075BF"/>
<path d="M10.7324 28.2324H24.2676C24.6452 28.2324 24.9512 27.9261 24.9512 27.5488C24.9512 27.1712 24.6452 26.8652 24.2676 26.8652H10.7324C10.3548 26.8652 10.0488 27.1712 10.0488 27.5488C10.0488 27.9261 10.3548 28.2324 10.7324 28.2324Z" fill="#0075BF"/>
<path d="M13.2161 30.1465C13.0364 30.1465 12.8598 30.2196 12.7327 30.3467C12.6056 30.4738 12.5325 30.6501 12.5325 30.83C12.5325 31.0098 12.6056 31.186 12.7327 31.3134C12.8598 31.4405 13.0364 31.5136 13.2161 31.5136C13.3966 31.5136 13.5723 31.4405 13.6994 31.3134C13.8273 31.186 13.8997 31.0098 13.8997 30.83C13.8997 30.6501 13.8273 30.4738 13.6994 30.3467C13.5723 30.2196 13.3966 30.1465 13.2161 30.1465Z" fill="#0075BF"/>
<path d="M27.8906 20.3027H7.10938C6.7318 20.3027 6.42578 20.6087 6.42578 20.9863V30.83C6.42578 31.2074 6.7318 31.5136 7.10938 31.5136H9.95697C10.3345 31.5136 10.6406 31.2074 10.6406 30.83C10.6406 30.4525 10.3345 30.1465 9.95697 30.1465H7.79297V21.6699H27.207V30.1465H16.1093C15.7317 30.1465 15.4257 30.4525 15.4257 30.83C15.4257 31.2074 15.7317 31.5136 16.1093 31.5136H27.8906C28.2682 31.5136 28.5742 31.2074 28.5742 30.83V20.9863C28.5742 20.6087 28.2682 20.3027 27.8906 20.3027Z" fill="#0075BF"/>
</svg>
