<!-- Generated by IcoMoon.io -->
<svg version="1.1" xmlns="http://www.w3.org/2000/svg" width="50" height="50" viewBox="0 0 32 32">
<title>icon-calendario</title>
<path d="M19.127 7.82h-7.332v0.89c0.46 0.124 0.866 0.404 1.141 0.794 0.281 0.398 0.404 0.888 0.343 1.372-0.063 0.486-0.306 0.929-0.678 1.248-0.376 0.323-0.86 0.498-1.356 0.498s-0.979-0.175-1.356-0.498c-0.372-0.319-0.615-0.762-0.677-1.248-0.062-0.483 0.061-0.973 0.342-1.372 0.275-0.391 0.681-0.67 1.141-0.794v-0.89l-2.953-0.001c-0.182 0.002-0.362 0.020-0.529 0.091-0.166 0.070-0.318 0.17-0.446 0.298-0.126 0.126-0.226 0.275-0.294 0.44-0.067 0.163-0.1 0.339-0.098 0.516v4.18h19.21v-4.198c-0.002-0.177-0.041-0.351-0.112-0.513-0.072-0.163-0.177-0.31-0.306-0.432-0.131-0.124-0.286-0.221-0.454-0.286-0.169-0.066-0.351-0.098-0.534-0.095h-2.696v0.89c0.46 0.125 0.866 0.404 1.141 0.794 0.281 0.398 0.404 0.888 0.343 1.372-0.062 0.486-0.306 0.929-0.678 1.248-0.377 0.323-0.86 0.498-1.356 0.498s-0.979-0.175-1.356-0.498c-0.372-0.319-0.616-0.762-0.678-1.248-0.062-0.484 0.062-0.973 0.343-1.372 0.275-0.39 0.681-0.67 1.141-0.794v-0.89h-1.257zM9.21 6.728h1.485v-0.862c0-0.141 0.057-0.275 0.158-0.373 0.076-0.074 0.172-0.123 0.275-0.143l-0-0.003 0.060-0.007c0.082-0.010 0.165-0.002 0.243 0.023s0.15 0.068 0.21 0.126c0.058 0.057 0.103 0.127 0.13 0.204s0.035 0.157 0.024 0.233v0.803h8.589v-0.862c0-0.141 0.058-0.275 0.159-0.373 0.076-0.074 0.172-0.123 0.274-0.143l-0-0.003 0.060-0.007c0.082-0.010 0.165-0.002 0.244 0.023s0.15 0.069 0.209 0.126c0.059 0.057 0.103 0.127 0.13 0.204s0.036 0.157 0.024 0.233v0.802h2.696v0.020c0.653 0 1.283 0.258 1.751 0.712 0.462 0.448 0.735 1.059 0.735 1.705v15.065c0 0.648-0.265 1.264-0.727 1.716-0.469 0.459-1.102 0.72-1.759 0.72h-16.339c-0.659 0-1.298-0.253-1.771-0.713-0.467-0.453-0.735-1.072-0.735-1.723v-15.065c0-0.649 0.276-1.262 0.742-1.711 0.429-0.413 0.999-0.684 1.59-0.725h1.543zM6.375 14.416v9.852c0.002 0.176 0.041 0.35 0.112 0.512 0.072 0.163 0.176 0.31 0.306 0.432 0.131 0.124 0.286 0.22 0.454 0.285 0.169 0.066 0.351 0.099 0.533 0.096h16.497c0.182-0.003 0.362-0.040 0.529-0.11 0.166-0.069 0.318-0.17 0.445-0.298 0.126-0.126 0.227-0.276 0.294-0.441 0.067-0.163 0.1-0.339 0.098-0.516v-9.813h-19.27zM20.864 9.71c-0.239 0-0.472 0.092-0.643 0.259-0.169 0.164-0.266 0.387-0.266 0.623 0 0.175 0.053 0.345 0.153 0.489 0.101 0.146 0.243 0.259 0.408 0.325 0.167 0.067 0.35 0.084 0.526 0.050 0.175-0.034 0.338-0.118 0.466-0.242 0.126-0.123 0.213-0.279 0.248-0.451 0.035-0.17 0.017-0.348-0.051-0.508-0.069-0.162-0.187-0.3-0.334-0.396-0.15-0.098-0.327-0.149-0.506-0.149zM11.175 9.71c-0.24 0-0.472 0.092-0.644 0.259-0.168 0.164-0.266 0.387-0.266 0.623 0 0.175 0.054 0.345 0.153 0.489 0.101 0.146 0.243 0.259 0.408 0.325 0.166 0.067 0.35 0.084 0.526 0.050s0.338-0.118 0.466-0.242c0.126-0.123 0.213-0.279 0.248-0.451 0.035-0.17 0.017-0.348-0.052-0.508-0.069-0.162-0.186-0.3-0.335-0.396-0.15-0.098-0.327-0.149-0.506-0.149zM19.127 7.82h-7.332v0.89c0.46 0.124 0.866 0.404 1.141 0.794 0.281 0.398 0.404 0.888 0.343 1.372-0.063 0.486-0.306 0.929-0.678 1.248-0.376 0.323-0.86 0.498-1.356 0.498s-0.979-0.175-1.356-0.498c-0.372-0.319-0.615-0.762-0.677-1.248-0.062-0.483 0.061-0.973 0.342-1.372 0.275-0.391 0.681-0.67 1.141-0.794v-0.89l-2.953-0.001c-0.182 0.002-0.362 0.020-0.529 0.091-0.166 0.070-0.318 0.17-0.446 0.298-0.126 0.126-0.226 0.275-0.294 0.44-0.067 0.163-0.1 0.339-0.098 0.516v4.18h19.21v-4.198c-0.002-0.177-0.041-0.351-0.112-0.513-0.072-0.163-0.177-0.31-0.306-0.432-0.131-0.124-0.286-0.221-0.454-0.286-0.169-0.066-0.351-0.098-0.534-0.095h-2.696v0.89c0.46 0.125 0.866 0.404 1.141 0.794 0.281 0.398 0.404 0.888 0.343 1.372-0.062 0.486-0.306 0.929-0.678 1.248-0.377 0.323-0.86 0.498-1.356 0.498s-0.979-0.175-1.356-0.498c-0.372-0.319-0.616-0.762-0.678-1.248-0.062-0.484 0.062-0.973 0.343-1.372 0.275-0.39 0.681-0.67 1.141-0.794v-0.89h-1.257zM9.21 6.728h1.485v-0.862c0-0.141 0.057-0.275 0.158-0.373 0.076-0.074 0.172-0.123 0.275-0.143l-0-0.003 0.060-0.007c0.082-0.010 0.165-0.002 0.243 0.023s0.15 0.068 0.21 0.126c0.058 0.057 0.103 0.127 0.13 0.204s0.035 0.157 0.024 0.233v0.803h8.589v-0.862c0-0.141 0.058-0.275 0.159-0.373 0.076-0.074 0.172-0.123 0.274-0.143l-0-0.003 0.060-0.007c0.082-0.010 0.165-0.002 0.244 0.023s0.15 0.069 0.209 0.126c0.059 0.057 0.103 0.127 0.13 0.204s0.036 0.157 0.024 0.233v0.802h2.696v0.020c0.653 0 1.283 0.258 1.751 0.712 0.462 0.448 0.735 1.059 0.735 1.705v15.065c0 0.648-0.265 1.264-0.727 1.716-0.469 0.459-1.102 0.72-1.759 0.72h-16.339c-0.659 0-1.298-0.253-1.771-0.713-0.467-0.453-0.735-1.072-0.735-1.723v-15.065c0-0.649 0.276-1.262 0.742-1.711 0.429-0.413 0.999-0.684 1.59-0.725h1.543zM6.375 14.416v9.852c0.002 0.176 0.041 0.35 0.112 0.512 0.072 0.163 0.176 0.31 0.306 0.432 0.131 0.124 0.286 0.22 0.454 0.285 0.169 0.066 0.351 0.099 0.533 0.096h16.497c0.182-0.003 0.362-0.040 0.529-0.11 0.166-0.069 0.318-0.17 0.445-0.298 0.126-0.126 0.227-0.276 0.294-0.441 0.067-0.163 0.1-0.339 0.098-0.516v-9.813h-19.27zM20.864 9.71c-0.239 0-0.472 0.092-0.643 0.259-0.169 0.164-0.266 0.387-0.266 0.623 0 0.175 0.053 0.345 0.153 0.489 0.101 0.146 0.243 0.259 0.408 0.325 0.167 0.067 0.35 0.084 0.526 0.050 0.175-0.034 0.338-0.118 0.466-0.242 0.126-0.123 0.213-0.279 0.248-0.451 0.035-0.17 0.017-0.348-0.051-0.508-0.069-0.162-0.187-0.3-0.334-0.396-0.15-0.098-0.327-0.149-0.506-0.149zM11.175 9.71c-0.24 0-0.472 0.092-0.644 0.259-0.168 0.164-0.266 0.387-0.266 0.623 0 0.175 0.054 0.345 0.153 0.489 0.101 0.146 0.243 0.259 0.408 0.325 0.166 0.067 0.35 0.084 0.526 0.050s0.338-0.118 0.466-0.242c0.126-0.123 0.213-0.279 0.248-0.451 0.035-0.17 0.017-0.348-0.052-0.508-0.069-0.162-0.186-0.3-0.335-0.396-0.15-0.098-0.327-0.149-0.506-0.149zM19.124 7.594h1.259c0.125 0 0.226 0.101 0.226 0.226v0.89h-0c-0 0.1-0.067 0.191-0.167 0.218-0.205 0.055-0.399 0.146-0.572 0.266-0.171 0.119-0.322 0.268-0.443 0.44-0.124 0.176-0.214 0.374-0.266 0.58s-0.065 0.421-0.038 0.634c0.027 0.214 0.095 0.419 0.196 0.605 0.102 0.188 0.24 0.358 0.406 0.501s0.358 0.254 0.562 0.329c0.205 0.075 0.425 0.115 0.647 0.115s0.442-0.039 0.647-0.115c0.204-0.075 0.395-0.186 0.562-0.329 0.164-0.141 0.302-0.311 0.404-0.5 0.102-0.188 0.17-0.393 0.197-0.605s0.013-0.428-0.038-0.633c-0.051-0.206-0.141-0.403-0.266-0.58-0.121-0.172-0.272-0.321-0.443-0.44s-0.361-0.208-0.563-0.264c-0.101-0.022-0.177-0.112-0.177-0.22v-0.89c0-0.125 0.101-0.226 0.226-0.226l2.696 0.001c0.097-0.001 0.195 0.006 0.291 0.022 0.007 0 0.014 0.001 0.020 0.003 0.102 0.018 0.204 0.047 0.304 0.086 0.098 0.038 0.192 0.085 0.281 0.141s0.171 0.12 0.247 0.192c0.073 0.069 0.14 0.146 0.198 0.226 0.002 0.003 0.005 0.006 0.007 0.009 0.059 0.084 0.111 0.174 0.153 0.269s0.074 0.194 0.097 0.295c0.020 0.091 0.032 0.187 0.034 0.285 0.001 0.008 0.001 0.016 0.001 0.023v4.198c0 0.125-0.101 0.226-0.226 0.226h-19.21c-0.125 0-0.226-0.101-0.226-0.226v-4.18h0.001c-0.001-0.102 0.008-0.205 0.026-0.304 0.019-0.101 0.049-0.202 0.088-0.298s0.088-0.188 0.146-0.273c0.059-0.088 0.125-0.169 0.197-0.241 0.074-0.074 0.155-0.14 0.241-0.198l0 0.001c0.084-0.056 0.173-0.104 0.264-0.144 0.004-0.002 0.008-0.004 0.012-0.005 0.102-0.043 0.207-0.070 0.313-0.086 0.089-0.014 0.184-0.019 0.281-0.021 0.007-0.001 0.015-0.001 0.023-0.001h0.447v0.001l0.426 0.001v-0.001h2.080c0.125 0 0.226 0.101 0.226 0.226v0.89h-0c-0 0.1-0.067 0.191-0.167 0.218-0.205 0.055-0.4 0.146-0.572 0.267-0.171 0.119-0.322 0.267-0.443 0.439-0.124 0.177-0.214 0.374-0.265 0.58h-0c-0.051 0.206-0.065 0.421-0.038 0.634s0.095 0.418 0.196 0.605c0.102 0.189 0.239 0.359 0.404 0.5 0.166 0.143 0.358 0.254 0.562 0.329s0.425 0.115 0.647 0.115 0.442-0.039 0.647-0.115c0.204-0.075 0.396-0.186 0.562-0.329 0.164-0.141 0.302-0.311 0.404-0.5l0.001 0c0-0 0-0 0-0 0.101-0.186 0.169-0.391 0.196-0.605 0.027-0.212 0.013-0.428-0.038-0.634s-0.141-0.403-0.266-0.58c-0.121-0.172-0.272-0.321-0.443-0.44-0.17-0.118-0.36-0.208-0.562-0.263-0.101-0.022-0.177-0.113-0.177-0.22v-0.89c0-0.125 0.101-0.226 0.226-0.226h7.329zM10.695 6.953h-3.025c-0.26 0.020-0.517 0.089-0.756 0.198-0.25 0.114-0.482 0.273-0.681 0.464-0.214 0.206-0.384 0.45-0.499 0.716-0.112 0.259-0.173 0.542-0.173 0.833v15.065c0 0.294 0.060 0.581 0.172 0.844 0.114 0.267 0.281 0.511 0.494 0.718 0.214 0.208 0.466 0.37 0.739 0.48 0.274 0.11 0.572 0.169 0.874 0.169h16.339c0.3 0 0.594-0.059 0.864-0.17s0.522-0.276 0.738-0.486l0 0c0.211-0.206 0.376-0.45 0.489-0.714 0.111-0.262 0.17-0.548 0.17-0.841v-15.065c0-0.289-0.061-0.57-0.172-0.829-0.114-0.265-0.283-0.509-0.494-0.714-0.213-0.207-0.463-0.369-0.735-0.479-0.27-0.11-0.562-0.168-0.859-0.168-0.033 0-0.064-0.007-0.092-0.020h-2.604c-0.125 0-0.226-0.101-0.226-0.226v-0.802c0-0.011 0.001-0.022 0.003-0.034 0.003-0.020 0.004-0.041 0.002-0.059-0.002-0.020-0.006-0.040-0.012-0.059-0.001-0.002-0.002-0.005-0.003-0.007-0.006-0.018-0.015-0.037-0.026-0.054-0.002-0.003-0.004-0.005-0.005-0.008-0.013-0.020-0.028-0.039-0.044-0.054-0.014-0.014-0.030-0.026-0.045-0.037-0.004-0.002-0.008-0.004-0.012-0.007-0.019-0.011-0.038-0.021-0.057-0.027-0.003-0.001-0.005-0.002-0.008-0.002-0.022-0.007-0.045-0.012-0.066-0.014-0.002-0-0.005-0-0.007-0.001-0.022-0.002-0.048-0.002-0.074 0.002l-0.027 0.003c-0.006 0.002-0.011 0.003-0.017 0.004-0.028 0.006-0.055 0.014-0.079 0.026-0.003 0.002-0.006 0.003-0.009 0.005-0.026 0.014-0.051 0.032-0.073 0.052-0.029 0.028-0.052 0.062-0.067 0.098-0.015 0.035-0.023 0.074-0.023 0.114v0.862c0 0.125-0.101 0.226-0.226 0.226h-8.589c-0.125 0-0.226-0.101-0.226-0.226v-0.803h0c0-0.010 0.001-0.021 0.002-0.032 0.003-0.020 0.003-0.042 0.001-0.062s-0.007-0.043-0.015-0.066c-0.008-0.023-0.018-0.044-0.029-0.062-0.012-0.019-0.027-0.037-0.045-0.054v0c-0-0-0.001-0.001-0.001-0.001-0.015-0.015-0.034-0.029-0.056-0.042s-0.043-0.023-0.066-0.030c-0.023-0.007-0.046-0.012-0.068-0.015-0.002-0-0.003-0-0.004-0-0.022-0.002-0.048-0.002-0.074 0.002l-0.028 0.004c-0.005 0.001-0.011 0.003-0.016 0.004-0.029 0.006-0.058 0.016-0.086 0.030s-0.054 0.033-0.075 0.053v0c-0.029 0.028-0.051 0.061-0.066 0.096s-0.023 0.074-0.023 0.115v0.862c0 0.125-0.101 0.226-0.226 0.226zM6.15 24.268v-9.852c0-0.125 0.101-0.226 0.226-0.226h19.27c0.125 0 0.226 0.101 0.226 0.226v9.813h-0.001c0.001 0.103-0.008 0.205-0.026 0.305-0.019 0.101-0.049 0.201-0.088 0.297-0.040 0.098-0.089 0.19-0.145 0.274l-0.001-0c0 0-0 0-0 0-0.058 0.086-0.124 0.167-0.198 0.241s-0.156 0.141-0.242 0.199l-0-0c-0.087 0.058-0.18 0.108-0.275 0.148s-0.197 0.071-0.299 0.092c-0.095 0.020-0.194 0.031-0.292 0.034-0.008 0.001-0.016 0.001-0.024 0.001l-16.497-0.001c-0.103 0.001-0.208-0.007-0.311-0.026-0.105-0.019-0.206-0.047-0.303-0.085s-0.192-0.085-0.28-0.141-0.171-0.119-0.247-0.191c-0.076-0.071-0.144-0.151-0.204-0.235l0-0c-0-0-0-0-0-0.001-0.061-0.086-0.113-0.177-0.154-0.27-0.038-0.087-0.069-0.179-0.092-0.276-0.002-0.006-0.004-0.012-0.005-0.019-0.020-0.091-0.032-0.187-0.034-0.285-0.001-0.008-0.001-0.016-0.001-0.023zM20.432 9.568c0.137-0.055 0.284-0.084 0.432-0.084 0.11 0 0.222 0.016 0.329 0.048 0.105 0.031 0.206 0.077 0.3 0.138s0.177 0.134 0.247 0.217c0.070 0.083 0.129 0.177 0.172 0.279l-0 0c0 0 0 0 0 0.001 0.043 0.101 0.070 0.208 0.081 0.316s0.005 0.217-0.017 0.325c-0.022 0.109-0.060 0.212-0.112 0.307l-0-0c-0.052 0.096-0.12 0.184-0.199 0.261-0.076 0.074-0.162 0.137-0.255 0.186-0.004 0.002-0.008 0.005-0.013 0.007-0.097 0.050-0.203 0.087-0.313 0.109-0.108 0.021-0.22 0.026-0.33 0.015v0c-0.11-0.010-0.22-0.037-0.322-0.078s-0.2-0.098-0.285-0.166c-0.080-0.064-0.153-0.14-0.214-0.227-0.003-0.004-0.007-0.009-0.010-0.013-0.060-0.087-0.107-0.183-0.14-0.283-0.002-0.004-0.003-0.007-0.004-0.011-0.033-0.105-0.050-0.214-0.050-0.323 0-0.147 0.031-0.291 0.087-0.424s0.141-0.256 0.247-0.359c0.106-0.104 0.232-0.185 0.368-0.239zM10.743 9.568c0.137-0.055 0.285-0.084 0.433-0.084 0.111 0 0.221 0.016 0.328 0.048 0.105 0.031 0.206 0.077 0.3 0.138s0.177 0.134 0.247 0.217c0.070 0.083 0.129 0.177 0.172 0.279 0.043 0.1 0.071 0.208 0.081 0.316 0.011 0.107 0.006 0.217-0.016 0.325s-0.061 0.212-0.112 0.307l-0-0c-0.052 0.096-0.12 0.185-0.199 0.261-0.076 0.074-0.162 0.137-0.255 0.186-0.004 0.003-0.008 0.005-0.012 0.007-0.097 0.051-0.203 0.087-0.313 0.109-0.108 0.021-0.22 0.026-0.33 0.015v0c-0.111-0.010-0.22-0.037-0.322-0.078-0.103-0.042-0.2-0.098-0.285-0.166s-0.161-0.149-0.224-0.241c-0.063-0.091-0.112-0.191-0.144-0.294h0c0-0-0-0.001-0-0.001-0.032-0.105-0.050-0.214-0.050-0.322 0-0.147 0.031-0.291 0.087-0.425s0.141-0.256 0.247-0.359c0.107-0.104 0.233-0.185 0.368-0.239z" fill="#0075BF"></path>
</svg>
