<!-- Generated by IcoMoon.io -->
<svg version="1.1" xmlns="http://www.w3.org/2000/svg" width="50" height="50" viewBox="0 0 32 32">
<title>icon-locazione_turistica</title>
<path d="M7.348 15.957c-0.564 0.219-1.204 0.070-1.616-0.381-0.283-0.31-0.426-0.728-0.393-1.146s0.24-0.806 0.566-1.069l9.108-7.362c0.829-0.765 1.119-0.694 1.98 0.002l9.104 7.36c0.326 0.263 0.533 0.651 0.566 1.069s-0.109 0.837-0.393 1.146c-0.281 0.307-0.672 0.485-1.089 0.485-0.181 0-0.36-0.038-0.528-0.104 0 3.512 0 7.024 0 10.537v0.055h-17.304v-0.055c0-3.512-0.001-7.024-0.001-10.537zM21.788 25.71h2.038v-10.314l-7.826-6.124-7.826 6.124v10.314h8.47v-5.827c0-0.187 0.151-0.338 0.339-0.338h4.467c0.187 0 0.338 0.151 0.338 0.338v5.827zM21.111 20.222h-3.791v5.489h3.791v-5.489zM6.337 15.007c0.234 0.255 0.615 0.288 0.887 0.074l8.775-6.866 8.775 6.866c0.272 0.212 0.655 0.18 0.888-0.074 0.128-0.14 0.189-0.322 0.174-0.511s-0.104-0.358-0.252-0.476l-9.238-7.409c-0.268-0.261-0.412-0.225-0.695 0.002l-9.238 7.407c-0.148 0.119-0.238 0.287-0.252 0.476s0.047 0.37 0.175 0.511zM15.053 14.726h-4.496c-0.156 0-0.283 0.127-0.283 0.283v2.865c0 0.156 0.127 0.283 0.283 0.283h4.496c0.157 0 0.284-0.127 0.284-0.283v-2.865c0-0.157-0.127-0.283-0.284-0.283zM14.77 17.591h-3.93v-2.299h3.93v2.299zM21.478 14.726h-4.496c-0.156 0-0.283 0.127-0.283 0.283v2.865c0 0.156 0.127 0.283 0.283 0.283h4.496c0.157 0 0.284-0.127 0.284-0.283v-2.865c0-0.157-0.127-0.283-0.284-0.283zM21.195 17.591h-3.93v-2.299h3.93v2.299zM15.053 19.756h-4.496c-0.156 0-0.283 0.127-0.283 0.284v3.654c0 0.156 0.127 0.284 0.283 0.284h4.496c0.157 0 0.284-0.127 0.284-0.284v-3.654c0-0.157-0.127-0.284-0.284-0.284zM14.77 23.41h-3.93v-3.088h3.93v3.088z" fill="#464646"></path>
</svg>
