<!-- Generated by IcoMoon.io -->
<svg version="1.1" xmlns="http://www.w3.org/2000/svg" width="50" height="50" viewBox="0 0 32 32">
<title>icon-accetta_rifiuta</title>
<path d="M22.538 21.419l-3.266 3.442v-2.659c-0.002-0.102 0.016-0.203 0.053-0.298s0.091-0.181 0.161-0.254c0.069-0.073 0.152-0.131 0.244-0.17s0.19-0.060 0.289-0.060h2.519zM8.7 23.495v-15.032c0-0.549 0.208-1.075 0.58-1.469s0.879-0.621 1.413-0.637h10.613c0.266 0.002 0.529 0.058 0.774 0.165s0.466 0.263 0.651 0.459c0.186 0.196 0.331 0.427 0.429 0.682s0.145 0.526 0.139 0.799v11.918h-3.252c-0.466 0.007-0.911 0.202-1.239 0.542s-0.514 0.799-0.518 1.278v3.413h-7.597c-0.266-0.004-0.528-0.061-0.771-0.169s-0.464-0.264-0.649-0.46c-0.185-0.195-0.331-0.426-0.429-0.679s-0.147-0.524-0.143-0.797v-0.014zM24.296 8.477c0.006-0.408-0.068-0.813-0.215-1.193s-0.366-0.725-0.644-1.017c-0.278-0.292-0.609-0.525-0.975-0.685s-0.758-0.244-1.156-0.249h-10.613c-0.397 0.004-0.79 0.088-1.156 0.249s-0.697 0.393-0.974 0.685c-0.278 0.292-0.497 0.637-0.644 1.017s-0.22 0.785-0.215 1.193v15.061c-0.004 0.407 0.071 0.811 0.219 1.188s0.367 0.722 0.645 1.012c0.277 0.29 0.608 0.522 0.972 0.681s0.756 0.243 1.153 0.247h8.206l0.069-0.086 5.328-5.234v-12.871zM15.225 12.185l3.392-2.907c0.203-0.174 0.511-0.15 0.684 0.052s0.15 0.511-0.053 0.684l-3.733 3.2c-0.192 0.165-0.48 0.154-0.659-0.025l-2.133-2.133c-0.19-0.19-0.19-0.497 0-0.686s0.497-0.189 0.686 0l1.815 1.815zM16 17.301l1.376-1.376c0.194-0.194 0.509-0.194 0.703 0s0.194 0.509 0 0.703l-1.376 1.376 1.376 1.376c0.194 0.194 0.194 0.509 0 0.703s-0.509 0.194-0.703 0l-1.376-1.376-1.376 1.376c-0.194 0.194-0.509 0.194-0.703 0s-0.194-0.509 0-0.703l1.376-1.376-1.376-1.376c-0.194-0.194-0.194-0.509 0-0.703s0.509-0.194 0.703 0l1.376 1.376z" fill="#0075BF"></path>
</svg>
