<!-- Generated by IcoMoon.io -->
<svg version="1.1" xmlns="http://www.w3.org/2000/svg" width="50" height="50" viewBox="0 0 32 32">
<title>icon-salva</title>
<path d="M24.222 26.667h-16.444c-1.349 0-2.445-1.096-2.445-2.445v-16.444c0-1.349 1.096-2.445 2.445-2.445h13.785c0.877 0 1.736 0.356 2.356 0.977l1.771 1.771c0.63 0.63 0.977 1.468 0.977 2.357v13.783c0 1.349-1.096 2.445-2.445 2.445zM7.778 6.667c-0.613 0-1.111 0.499-1.111 1.111v16.444c0 0.613 0.499 1.111 1.111 1.111h16.444c0.613 0 1.111-0.499 1.111-1.111v-13.783c0-0.535-0.208-1.037-0.586-1.415l-1.771-1.77c-0.372-0.373-0.887-0.587-1.414-0.587h-13.785zM18.889 11.556h-9.333c-0.368 0-0.666-0.299-0.666-0.667v-4.889c0-0.368 0.298-0.667 0.666-0.667s0.667 0.299 0.667 0.667v4.222h8v-4.222c0-0.368 0.299-0.667 0.667-0.667s0.667 0.299 0.667 0.667v4.889c0 0.368-0.299 0.667-0.667 0.667zM16 22.667c-2.205 0-4-1.795-4-4s1.795-4 4-4 4 1.795 4 4c0 2.206-1.795 4-4 4zM16 16c-1.47 0-2.666 1.197-2.666 2.666s1.196 2.667 2.666 2.667 2.666-1.196 2.666-2.667c0-1.47-1.196-2.666-2.666-2.666z"></path>
</svg>
