<!-- Generated by IcoMoon.io -->
<svg version="1.1" xmlns="http://www.w3.org/2000/svg" width="50" height="50" viewBox="0 0 32 32">
<title>icon-bacheca</title>
<path d="M10.163 11.099h6.814c0.245 0 0.445 0.2 0.445 0.445v0c0 0.245-0.2 0.445-0.445 0.445h-6.814c-0.245 0-0.445-0.2-0.445-0.445v0c0-0.245 0.2-0.445 0.445-0.445zM10.163 13.472h6.814c0.074 0 0.144 0.018 0.206 0.051-0.602 0.186-1.16 0.472-1.655 0.838h-5.365c-0.245 0-0.445-0.2-0.445-0.445v0c0-0.245 0.2-0.445 0.445-0.445zM10.163 15.844h3.981c-0.179 0.28-0.333 0.578-0.46 0.889h-3.521c-0.245 0-0.445-0.2-0.445-0.445v0c0-0.245 0.2-0.445 0.445-0.445zM17.514 24.215l-0.612 0.645v-0.831c-0.345-0.127-0.674-0.288-0.982-0.478v2.063h-7.597c-0.266-0.004-0.528-0.061-0.771-0.169s-0.464-0.264-0.649-0.46c-0.185-0.195-0.331-0.426-0.429-0.679s-0.147-0.524-0.143-0.797v-15.047c0-0.549 0.208-1.075 0.58-1.469s0.879-0.621 1.413-0.637h10.613c0.266 0.002 0.529 0.058 0.774 0.165s0.466 0.263 0.651 0.459c0.186 0.196 0.331 0.427 0.429 0.682s0.145 0.526 0.139 0.799v5.227c0.352 0.144 0.685 0.323 0.996 0.533v-5.746c0.006-0.408-0.068-0.813-0.215-1.193s-0.366-0.725-0.644-1.017c-0.278-0.292-0.609-0.525-0.975-0.685s-0.758-0.244-1.156-0.249h-10.613c-0.397 0.004-0.79 0.088-1.156 0.249s-0.697 0.393-0.974 0.685c-0.278 0.292-0.497 0.637-0.644 1.017s-0.22 0.785-0.215 1.193v15.061c-0.004 0.407 0.071 0.811 0.219 1.188s0.367 0.722 0.645 1.012c0.277 0.29 0.608 0.522 0.972 0.681s0.756 0.243 1.153 0.247h8.206l0.069-0.086 2.249-2.21h-0.023c-0.451 0-0.89-0.054-1.31-0.156zM18.824 22.483c2.021 0 3.66-1.639 3.66-3.66s-1.639-3.66-3.66-3.66c-2.021 0-3.66 1.638-3.66 3.66s1.638 3.66 3.66 3.66zM22.246 21.717l4.311 4.311c0.146 0.146 0.146 0.383 0 0.528s-0.382 0.146-0.528 0l-4.311-4.311c-0.78 0.661-1.791 1.060-2.893 1.060-2.475 0-4.481-2.006-4.481-4.481s2.007-4.481 4.481-4.481c2.475 0 4.481 2.007 4.481 4.481 0 1.103-0.399 2.113-1.060 2.893z" fill="#0075BF"></path>
</svg>
