<!-- Generated by IcoMoon.io -->
<svg version="1.1" xmlns="http://www.w3.org/2000/svg" width="50" height="50" viewBox="0 0 32 32">
<title>icon-cambio_SPOT</title>
<path d="M13.539 18.735c0-0.318 0.245-0.576 0.547-0.576h12.034c0.302 0 0.547 0.258 0.547 0.576s-0.245 0.576-0.547 0.576h-12.034c-0.302 0-0.547-0.258-0.547-0.576zM18.462 13.265c0 0.318-0.245 0.576-0.547 0.576h-12.034c-0.302 0-0.547-0.258-0.547-0.576s0.245-0.576 0.547-0.576h12.034c0.302 0 0.547 0.258 0.547 0.576zM21.357 13.721c0.213-0.225 0.56-0.225 0.774 0l4.376 4.606c0.214 0.225 0.214 0.589 0 0.814l-4.376 4.606c-0.214 0.225-0.56 0.225-0.774 0s-0.214-0.589 0-0.814l3.989-4.199-3.989-4.199c-0.214-0.225-0.214-0.59 0-0.815zM10.643 18.279c-0.213 0.225-0.56 0.225-0.774 0l-4.376-4.607c-0.214-0.225-0.214-0.589 0-0.815l4.376-4.606c0.214-0.225 0.56-0.225 0.774 0s0.214 0.589 0 0.814l-3.989 4.199 3.989 4.199c0.214 0.225 0.214 0.589 0 0.814z" fill="#0075BF"></path>
</svg>
