<!-- Generated by IcoMoon.io -->
<svg version="1.1" xmlns="http://www.w3.org/2000/svg" width="50" height="50" viewBox="0 0 32 32">
<title>icon-attenzione</title>
<path d="M15.111 10.963v7.703c0 0.491 0.398 0.889 0.889 0.889s0.889-0.398 0.889-0.889v-7.703c0-0.491-0.398-0.889-0.889-0.889s-0.889 0.398-0.889 0.889zM16.889 21.63c0 0.491-0.398 0.889-0.889 0.889s-0.889-0.398-0.889-0.889c0-0.491 0.398-0.889 0.889-0.889s0.889 0.398 0.889 0.889zM16 25.466c-5.228 0-9.466-4.238-9.466-9.466s4.238-9.466 9.466-9.466c5.228 0 9.466 4.238 9.466 9.466s-4.238 9.466-9.466 9.466zM16 26.667c5.891 0 10.667-4.776 10.667-10.667s-4.776-10.667-10.667-10.667c-5.891 0-10.667 4.776-10.667 10.667s4.776 10.667 10.667 10.667z" fill="#0075BF"></path>
</svg>
