<!-- Generated by IcoMoon.io -->
<svg version="1.1" xmlns="http://www.w3.org/2000/svg" width="50" height="50" viewBox="0 0 32 32">
<title>icon-monitoraggio_SPOT</title>
<path d="M24.951 12.359v4.662c-0.194-0.515-0.465-0.992-0.8-1.416v-4.242c0-0.639-0.52-1.159-1.159-1.159h-0.531v3.993c-0.255-0.135-0.523-0.25-0.801-0.342v-3.984c0-0.034-0.027-0.061-0.061-0.061h-0.87c-0.034 0-0.061 0.027-0.061 0.061v3.758c-0.223-0.029-0.45-0.044-0.681-0.044l-0.119 0.002v-3.383h-8.382v11.115h3.786c0.146 0.283 0.317 0.55 0.509 0.8h-4.434c-0.157 0.244-0.428 0.394-0.723 0.394h-0.87c-0.295 0-0.566-0.151-0.723-0.394h-0.67c-1.081 0-1.959-0.879-1.959-1.959v-8.928h0.004c0.068-1.020 0.919-1.828 1.955-1.828h0.67c0.157-0.244 0.428-0.394 0.723-0.394h0.87c0.295 0 0.566 0.151 0.723 0.394h0.71v-0.653c0-1.162 0.945-2.108 2.107-2.108h3.025c1.162 0 2.108 0.945 2.108 2.108v0.653h0.71c0.157-0.244 0.428-0.394 0.723-0.394h0.87c0.295 0 0.566 0.151 0.723 0.394h0.67c1.080 0 1.959 0.879 1.959 1.959v0.996zM19.986 22.072c1.758 0 3.183-1.425 3.183-3.183s-1.425-3.182-3.183-3.182c-1.758 0-3.182 1.425-3.182 3.182s1.425 3.183 3.182 3.183zM22.962 21.405l3.749 3.749c0.127 0.127 0.127 0.333 0 0.459s-0.332 0.127-0.459 0l-3.749-3.749c-0.679 0.575-1.557 0.921-2.516 0.921-2.152 0-3.897-1.744-3.897-3.897s1.745-3.897 3.897-3.897c2.152 0 3.897 1.745 3.897 3.897 0 0.959-0.347 1.837-0.921 2.516zM8.891 21.319v-11.115h-0.531c-0.639 0-1.159 0.52-1.159 1.159v8.797c0 0.639 0.52 1.159 1.159 1.159h0.531zM12.856 9.404h0.634v-0.653c0-0.371 0.302-0.673 0.673-0.673h3.026c0.371 0 0.673 0.301 0.673 0.673v0.653h0.634v-0.653c0-0.721-0.586-1.307-1.307-1.307h-3.026c-0.721 0-1.307 0.587-1.307 1.307v0.653zM17.061 8.879h-2.77v0.525h2.77v-0.525zM10.684 21.652v-11.781c0-0.034-0.028-0.061-0.061-0.061h-0.87c-0.034 0-0.061 0.027-0.061 0.061v11.781c0 0.034 0.027 0.062 0.061 0.062h0.87c0.034 0 0.061-0.028 0.061-0.062z" fill="#0075BF"></path>
</svg>
