<!-- Generated by IcoMoon.io -->
<svg version="1.1" xmlns="http://www.w3.org/2000/svg" width="50" height="50" viewBox="0 0 32 32">
<title>icon-errore</title>
<path d="M25.365 23.734c0.399 0.795-0.166 1.739-1.041 1.739h-16.649c-0.875 0-1.44-0.944-1.041-1.739l8.325-16.558c0.435-0.865 1.646-0.865 2.081 0l8.325 16.558zM18.081 6.631c-0.87-1.73-3.292-1.73-4.162 0l-8.324 16.558c-0.799 1.589 0.332 3.478 2.081 3.478h16.649c1.75 0 2.88-1.889 2.081-3.478l-8.324-16.558zM15.111 11.816v7.703c0 0.491 0.398 0.889 0.889 0.889s0.889-0.398 0.889-0.889v-7.703c0-0.491-0.398-0.889-0.889-0.889s-0.889 0.398-0.889 0.889zM16.889 22.483c0 0.491-0.398 0.889-0.889 0.889s-0.889-0.398-0.889-0.889c0-0.491 0.398-0.889 0.889-0.889s0.889 0.398 0.889 0.889z"></path>
</svg>
