<!-- Generated by IcoMoon.io -->
<svg version="1.1" xmlns="http://www.w3.org/2000/svg" width="50" height="50" viewBox="0 0 32 32">
<title>icon-SPOT</title>
<path d="M26.667 13.447v8.971c0 1.242-1.011 2.253-2.253 2.253h-0.771c-0.181 0.28-0.493 0.454-0.831 0.454h-1.001c-0.339 0-0.65-0.173-0.831-0.454h-9.958c-0.181 0.28-0.493 0.454-0.831 0.454h-1.001c-0.339 0-0.65-0.173-0.831-0.454h-0.771c-1.243 0-2.253-1.011-2.253-2.253v-10.267h0.005c0.078-1.172 1.057-2.103 2.248-2.103h0.771c0.181-0.28 0.493-0.453 0.831-0.453h1c0.339 0 0.651 0.173 0.832 0.453h0.816v-0.75c0-1.336 1.087-2.424 2.423-2.424h3.479c1.337 0 2.424 1.087 2.424 2.424v0.75h0.816c0.181-0.28 0.493-0.453 0.831-0.453h1.001c0.339 0 0.65 0.173 0.831 0.453h0.771c1.242 0 2.253 1.011 2.253 2.254v1.145zM8.198 23.751v-12.782h-0.611c-0.735 0-1.333 0.598-1.333 1.333v10.116c0 0.735 0.598 1.333 1.333 1.333h0.611zM23.802 10.969v12.782h0.611c0.735 0 1.333-0.598 1.333-1.333v-10.116c0-0.735-0.598-1.333-1.333-1.333h-0.611zM12.757 10.049h0.729v-0.75c0-0.427 0.347-0.774 0.773-0.774h3.479c0.427 0 0.774 0.346 0.774 0.774v0.75h0.729v-0.75c0-0.829-0.674-1.503-1.503-1.503h-3.479c-0.829 0-1.503 0.675-1.503 1.503v0.75zM17.593 9.445h-3.186v0.604h3.186v-0.604zM10.26 24.134v-13.548c0-0.039-0.032-0.070-0.071-0.070h-1.001c-0.039 0-0.070 0.032-0.070 0.070v13.548c0 0.039 0.031 0.071 0.070 0.071h1.001c0.039 0 0.071-0.032 0.071-0.071zM11.18 23.751h9.639v-12.782h-9.639v12.782zM22.882 24.134v-13.548c0-0.039-0.031-0.070-0.070-0.070h-1.001c-0.039 0-0.071 0.032-0.071 0.070v13.548c0 0.039 0.032 0.071 0.071 0.071h1.001c0.039 0 0.070-0.032 0.070-0.071z" fill="#0075BF"></path>
</svg>
