<svg version="1.1" xmlns="http://www.w3.org/2000/svg" width="50" height="50" viewBox="-5 -5 32 32">
<path d="M9.18834 4.1971C7.64653 5.76072 7.64653 8.3048 9.18834 9.86843C9.95924 10.6502 10.9719 11.0411 11.9845 11.0411C12.9971 11.0411 14.0097 10.6502 14.7806 9.86843C16.3225 8.3048 16.3225 5.76072 14.7806 4.1971C13.2389 2.63352 10.7301 2.63352 9.18834 4.1971ZM14.9557 8.80644V5.25903C15.5884 6.34956 15.5884 7.71602 14.9557 8.80644ZM14.4487 4.58892V9.47661C14.4398 9.48591 14.4313 9.49563 14.4223 9.50488C13.0781 10.8679 10.8911 10.8681 9.54682 9.50488C9.34641 9.30165 9.17662 9.07913 9.03599 8.84361H9.32831C9.46834 8.84361 9.5818 8.72849 9.5818 8.58654C9.5818 8.44459 9.46834 8.32948 9.32831 8.32948H8.78347C8.58443 7.82208 8.50732 7.27679 8.55148 6.73978H10.545C10.6851 6.73978 10.7985 6.62467 10.7985 6.48272C10.7985 6.34077 10.6851 6.22565 10.545 6.22565H8.63163C8.76613 5.64674 9.04801 5.09657 9.47625 4.63596H12.725C12.8651 4.63596 12.9785 4.52084 12.9785 4.37889C12.9785 4.23694 12.8651 4.12183 12.725 4.12183H10.0751C10.6511 3.73304 11.3177 3.53834 11.9845 3.53834C12.8673 3.53834 13.7501 3.87911 14.4222 4.56069C14.4313 4.56989 14.4398 4.57961 14.4487 4.58892Z" fill="#0075BF"/>
<path d="M19.7327 13.5811L16.0602 9.85671C16.6189 9.03116 16.9199 8.05527 16.9199 7.03229C16.9199 5.69542 16.4065 4.43851 15.4743 3.49321C15.0899 3.10334 14.6568 2.79275 14.1953 2.55866V0.257069C14.1953 0.115116 14.0818 0 13.9418 0H2.82334C2.75611 0 2.69162 0.0270951 2.64412 0.0752699L0.0742716 2.68093C0.0267175 2.72915 0 2.79455 0 2.86273V19.7429C0 19.8849 0.113461 20 0.253487 20H13.9418C14.0818 20 14.1953 19.8849 14.1953 19.7429V11.506C14.3921 11.4062 14.5835 11.2922 14.7683 11.1641L18.4422 14.8899C18.6201 15.0703 18.8537 15.1606 19.0874 15.1606C19.3211 15.1606 19.5548 15.0703 19.7327 14.8899C19.9051 14.7152 20 14.4827 20 14.2355C20 13.9883 19.905 13.7559 19.7327 13.5811ZM16.4129 7.03229C16.4129 8.23188 15.9522 9.35964 15.1158 10.2078C13.3891 11.9589 10.5799 11.9588 8.85323 10.2078C8.01682 9.35959 7.55619 8.23182 7.55619 7.03229C7.55619 5.83275 8.01682 4.70494 8.85323 3.85676C9.71655 2.98129 10.8505 2.54355 11.9845 2.54355C13.1186 2.54355 14.2525 2.98129 15.1159 3.85676C15.9522 4.70499 16.4129 5.83275 16.4129 7.03229ZM2.56985 0.877532V2.6056H0.865556L2.56985 0.877532ZM13.6883 19.4859H0.506973V3.11979H2.82334C2.96336 3.11979 3.07682 3.00468 3.07682 2.86273V0.514139H13.6883V2.33666C11.9387 1.68689 9.89663 2.07157 8.4948 3.49326C8.18245 3.81003 7.9174 4.1619 7.70265 4.5399H5.32332C5.1833 4.5399 5.06984 4.65501 5.06984 4.79697C5.06984 4.93892 5.1833 5.05404 5.32332 5.05404H7.44866C7.30559 5.39116 7.19973 5.74422 7.13312 6.10802H2.45882C2.3188 6.10802 2.20533 6.22314 2.20533 6.36509C2.20533 6.50704 2.3188 6.62216 2.45882 6.62216H7.06574C7.05494 6.75789 7.04921 6.89471 7.04921 7.03239C7.04921 7.24946 7.06295 7.46432 7.08962 7.67614H4.71485C4.57483 7.67614 4.46137 7.79126 4.46137 7.93321C4.46137 8.07517 4.57483 8.19028 4.71485 8.19028H7.18158C7.26655 8.55579 7.39172 8.90895 7.55492 9.24427H2.45882C2.3188 9.24427 2.20533 9.35938 2.20533 9.50134C2.20533 9.64329 2.3188 9.75841 2.45882 9.75841H7.84399C8.03046 10.0484 8.24775 10.3209 8.49475 10.5715C8.57799 10.6559 8.66423 10.7353 8.75178 10.8124H7.88344C7.74341 10.8124 7.62995 10.9275 7.62995 11.0695C7.62995 11.2114 7.74341 11.3265 7.88344 11.3265H9.44948C10.2269 11.7985 11.1056 12.0351 11.9845 12.0351C12.5622 12.0351 13.1395 11.9319 13.6883 11.7281V19.4859ZM15.4743 10.5714C15.5706 10.4738 15.6621 10.3726 15.7494 10.2686L18.3489 12.9048L17.7753 13.4865L15.1748 10.8493C15.2772 10.7611 15.3776 10.6694 15.4743 10.5714ZM19.3742 14.5264C19.2161 14.6867 18.9587 14.6867 18.8006 14.5264L18.1337 13.8501L18.7073 13.2684L19.3742 13.9447C19.4508 14.0224 19.493 14.1257 19.493 14.2355C19.493 14.3454 19.4508 14.4487 19.3742 14.5264Z" fill="#0075BF"/>
<path d="M2.45905 5.05434H4.48697C4.627 5.05434 4.74046 4.93919 4.74046 4.79719C4.74046 4.65519 4.627 4.54004 4.48697 4.54004H2.45905C2.31903 4.54004 2.20557 4.65519 2.20557 4.79719C2.20557 4.93919 2.31903 5.05434 2.45905 5.05434Z" fill="#0075BF"/>
<path d="M2.45905 8.18995H3.85327C3.9933 8.18995 4.10676 8.07483 4.10676 7.93286C4.10676 7.7909 3.9933 7.67578 3.85327 7.67578H2.45905C2.31903 7.67578 2.20557 7.7909 2.20557 7.93286C2.20557 8.07483 2.31903 8.18995 2.45905 8.18995Z" fill="#0075BF"/>
<path d="M2.45905 11.3256H7.13844C7.27847 11.3256 7.39193 11.2105 7.39193 11.0685C7.39193 10.9266 7.27847 10.8115 7.13844 10.8115H2.45905C2.31903 10.8115 2.20557 10.9266 2.20557 11.0685C2.20557 11.2105 2.31903 11.3256 2.45905 11.3256Z" fill="#0075BF"/>
<path d="M11.7364 12.3804H4.38532C4.2453 12.3804 4.13184 12.4955 4.13184 12.6375C4.13184 12.7794 4.2453 12.8945 4.38532 12.8945H11.7364C11.8764 12.8945 11.9899 12.7794 11.9899 12.6375C11.9899 12.4955 11.8764 12.3804 11.7364 12.3804Z" fill="#0075BF"/>
<path d="M2.45905 12.8945H3.57445C3.71447 12.8945 3.82793 12.7794 3.82793 12.6375C3.82793 12.4955 3.71447 12.3804 3.57445 12.3804H2.45905C2.31903 12.3804 2.20557 12.4955 2.20557 12.6375C2.20557 12.7794 2.31903 12.8945 2.45905 12.8945Z" fill="#0075BF"/>
<path d="M11.7369 15.5166H6.94611C6.80609 15.5166 6.69263 15.6317 6.69263 15.7736C6.69263 15.9155 6.80609 16.0306 6.94611 16.0306H11.7369C11.877 16.0306 11.9904 15.9155 11.9904 15.7736C11.9904 15.6317 11.877 15.5166 11.7369 15.5166Z" fill="#0075BF"/>
<path d="M2.45905 16.0306H6.14987C6.2899 16.0306 6.40336 15.9155 6.40336 15.7736C6.40336 15.6317 6.2899 15.5166 6.14987 15.5166H2.45905C2.31903 15.5166 2.20557 15.6317 2.20557 15.7736C2.20557 15.9155 2.31903 16.0306 2.45905 16.0306Z" fill="#0075BF"/>
<path d="M11.736 17.085H9.02375C8.88372 17.085 8.77026 17.2001 8.77026 17.342C8.77026 17.4839 8.88372 17.599 9.02375 17.599H11.736C11.8761 17.599 11.9895 17.4839 11.9895 17.342C11.9895 17.2001 11.8761 17.085 11.736 17.085Z" fill="#0075BF"/>
<path d="M8.2687 17.085H3.73127C3.59124 17.085 3.47778 17.2001 3.47778 17.342C3.47778 17.4839 3.59124 17.599 3.73127 17.599H8.2687C8.40873 17.599 8.52219 17.4839 8.52219 17.342C8.52219 17.2001 8.40867 17.085 8.2687 17.085Z" fill="#0075BF"/>
<path d="M2.96608 17.085H2.45905C2.31903 17.085 2.20557 17.2001 2.20557 17.342C2.20557 17.4839 2.31903 17.599 2.45905 17.599H2.96608C3.1061 17.599 3.21956 17.4839 3.21956 17.342C3.21956 17.2001 3.1061 17.085 2.96608 17.085Z" fill="#0075BF"/>
<path d="M11.7365 13.9478H10.1903C10.0502 13.9478 9.93677 14.0629 9.93677 14.2048C9.93677 14.3468 10.0502 14.4619 10.1903 14.4619H11.7365C11.8765 14.4619 11.99 14.3468 11.99 14.2048C11.99 14.0629 11.8765 13.9478 11.7365 13.9478Z" fill="#0075BF"/>
<path d="M2.45905 14.4619H9.3032C9.44323 14.4619 9.55669 14.3468 9.55669 14.2048C9.55669 14.0629 9.44323 13.9478 9.3032 13.9478H2.45905C2.31903 13.9478 2.20557 14.0629 2.20557 14.2048C2.20557 14.3468 2.31903 14.4619 2.45905 14.4619Z" fill="#0075BF"/>
<path d="M12.7246 6.22461H11.8375C11.6974 6.22461 11.584 6.3397 11.584 6.48163C11.584 6.62355 11.6974 6.73864 11.8375 6.73864H12.7246C12.8647 6.73864 12.9781 6.62355 12.9781 6.48163C12.9781 6.3397 12.8647 6.22461 12.7246 6.22461Z" fill="#0075BF"/>
<path d="M12.7252 8.32959H10.3931C10.2531 8.32959 10.1396 8.44471 10.1396 8.58667C10.1396 8.72863 10.2531 8.84376 10.3931 8.84376H12.7252C12.8652 8.84376 12.9787 8.72863 12.9787 8.58667C12.9787 8.44471 12.8652 8.32959 12.7252 8.32959Z" fill="#0075BF"/>
</svg>
