<svg width="14" height="18" viewBox="0 0 14 18" fill="none" xmlns="http://www.w3.org/2000/svg">
<path d="M7.18672 18C6.79381 18 6.44197 17.7963 6.24559 17.4549C6.24351 17.4513 6.24151 17.4477 6.2395 17.4441L1.776 9.27427C0.710553 7.32412 0.741104 5.0094 1.85773 3.08241C2.95014 1.19719 4.89049 0.0454395 7.04817 0.00142383C7.14035 -0.00047461 7.23302 -0.00047461 7.32513 0.00142383C9.48282 0.0454395 11.4232 1.19719 12.5156 3.08241C13.6322 5.0094 13.6628 7.32408 12.5974 9.27427L8.13386 17.4441C8.13186 17.4477 8.12986 17.4513 8.12778 17.4549C7.93143 17.7962 7.57963 18 7.18672 18ZM7.18668 1.12502C7.14805 1.12502 7.10952 1.1254 7.07105 1.12618C5.30976 1.16211 3.72471 2.10426 2.83107 3.64646C1.91325 5.23042 1.88786 7.13262 2.76322 8.73483L7.18668 16.8313L11.6101 8.73487C12.4854 7.13262 12.4601 5.23042 11.5422 3.64646C10.6486 2.1043 9.06352 1.16211 7.30224 1.12618C7.26389 1.1254 7.22532 1.12502 7.18668 1.12502Z" fill="#003A54"/>
<path d="M7.18555 8.15625C5.78981 8.15625 4.6543 7.02074 4.6543 5.625C4.6543 4.22926 5.78981 3.09375 7.18555 3.09375C8.58125 3.09375 9.71675 4.22926 9.71675 5.625C9.71675 7.02074 8.58135 8.15625 7.18555 8.15625ZM7.18555 4.21875C6.41014 4.21875 5.7793 4.84959 5.7793 5.625C5.7793 6.40041 6.41014 7.03125 7.18555 7.03125C7.96096 7.03125 8.59175 6.40041 8.59175 5.625C8.59175 4.84959 7.96096 4.21875 7.18555 4.21875Z" fill="#003A54"/>
</svg>
