<svg width="20" height="27" viewBox="0 0 20 27" fill="none" xmlns="http://www.w3.org/2000/svg">
<path d="M10.0001 0C4.85342 0 0.666748 4.18667 0.666748 9.33333C0.666748 16.3333 10.0001 26.6667 10.0001 26.6667C10.0001 26.6667 19.3334 16.3333 19.3334 9.33333C19.3334 4.18667 15.1467 0 10.0001 0ZM10.0001 2.66667C11.4667 2.66667 12.6667 3.86667 12.6667 5.33333C12.6667 6.81333 11.4667 8 10.0001 8C8.53342 8 7.33342 6.81333 7.33342 5.33333C7.33342 3.86667 8.53342 2.66667 10.0001 2.66667ZM10.0001 16C7.77342 16 5.81341 14.8667 4.66675 13.1333C4.69341 11.3733 8.22675 10.4 10.0001 10.4C11.7734 10.4 15.3067 11.3733 15.3334 13.1333C14.1867 14.8667 12.2267 16 10.0001 16Z" fill="#003A54"/>
</svg>
