<svg width="34" height="32" viewBox="0 0 34 32" fill="none" xmlns="http://www.w3.org/2000/svg">
<rect width="34" height="32" rx="4" fill="#0075BF"/>
<path fill-rule="evenodd" clip-rule="evenodd" d="M17 23.9875C21.4114 23.9875 24.9875 20.4114 24.9875 16C24.9875 11.5886 21.4114 8.0125 17 8.0125C12.5886 8.0125 9.0125 11.5886 9.0125 16C9.0125 20.4114 12.5886 23.9875 17 23.9875ZM17 25C21.9703 25 26 20.9703 26 16C26 11.0297 21.9703 7 17 7C12.0297 7 8 11.0297 8 16C8 20.9703 12.0297 25 17 25Z" fill="white"/>
<path fill-rule="evenodd" clip-rule="evenodd" d="M16.1006 14.499H17.9003V19.9989H16.1006V14.499Z" fill="white"/>
<path fill-rule="evenodd" clip-rule="evenodd" d="M17.9003 12.8998C17.9003 13.3968 17.4974 13.7998 17.0004 13.7998C16.5034 13.7998 16.1006 13.3968 16.1006 12.8998C16.1006 12.4028 16.5034 12 17.0004 12C17.4974 12 17.9003 12.4028 17.9003 12.8998Z" fill="white"/>
</svg>
