<svg width="18" height="18" viewBox="0 0 18 18" fill="none" xmlns="http://www.w3.org/2000/svg">
<path fill-rule="evenodd" clip-rule="evenodd" d="M9 16.9875C13.4114 16.9875 16.9875 13.4114 16.9875 9C16.9875 4.58856 13.4114 1.0125 9 1.0125C4.58856 1.0125 1.0125 4.58856 1.0125 9C1.0125 13.4114 4.58856 16.9875 9 16.9875ZM9 18C13.9703 18 18 13.9703 18 9C18 4.02966 13.9703 0 9 0C4.02966 0 0 4.02966 0 9C0 13.9703 4.02966 18 9 18Z" fill="#373435"/>
<path fill-rule="evenodd" clip-rule="evenodd" d="M8.1001 7.49976H9.89975V12.9996H8.1001V7.49976Z" fill="#373435"/>
<path fill-rule="evenodd" clip-rule="evenodd" d="M9.89975 5.90008C9.89975 6.39707 9.49691 6.80009 8.99992 6.80009C8.50294 6.80009 8.1001 6.39707 8.1001 5.90008C8.1001 5.40309 8.50294 5.00024 8.99992 5.00024C9.49691 5.00024 9.89975 5.40309 9.89975 5.90008Z" fill="#373435"/>
</svg>
