<svg width="90" height="90" viewBox="0 0 90 90" fill="none" xmlns="http://www.w3.org/2000/svg">
<path d="M7.53418 16.7172H21.7134V54.6339H7.53418V16.7172Z" fill="#EDE49D"/>
<path d="M41.9688 16.7172H56.148V54.6339H41.9688V16.7172Z" fill="#D3BA2A"/>
<path d="M21.7129 16.7172H41.9689V54.6339H21.7129V16.7172Z" fill="#EEE045"/>
<path d="M56.1482 55.6886H7.53418C6.95164 55.6886 6.47949 55.2164 6.47949 54.6339V16.7172C6.47949 16.1346 6.95164 15.6625 7.53418 15.6625H56.1482C56.7308 15.6625 57.2029 16.1346 57.2029 16.7172V54.6339C57.2029 55.2164 56.7308 55.6886 56.1482 55.6886ZM8.58887 53.5792H55.0936V17.7719H8.58887V53.5792Z" fill="#1C2D6B"/>
<path d="M7.53418 16.7172H21.7134V25.1026H7.53418V16.7172Z" fill="#EF7F72"/>
<path d="M41.9688 16.7172H56.148V25.1026H41.9688V16.7172Z" fill="#E8383B"/>
<path d="M21.7129 16.7172H41.9689V25.1026H21.7129V16.7172Z" fill="#E95947"/>
<path d="M56.1482 26.1573H7.53418C6.95164 26.1573 6.47949 25.6852 6.47949 25.1026V16.7172C6.47949 16.1346 6.95164 15.6625 7.53418 15.6625H56.1482C56.7308 15.6625 57.2029 16.1346 57.2029 16.7172V25.1026C57.2029 25.6852 56.7308 26.1573 56.1482 26.1573ZM8.58887 24.0479H55.0936V17.7719H8.58887V24.0479Z" fill="#1C2D6B"/>
<path d="M45.6011 31.4307H49.8198V35.6495H45.6011V31.4307Z" fill="#E95947"/>
<path d="M35.0542 31.4307H39.273V35.6495H35.0542V31.4307Z" fill="#E95947"/>
<path d="M24.5073 31.4307H28.7261V35.6495H24.5073V31.4307Z" fill="#E95947"/>
<path d="M13.9604 31.4307H18.1792V35.6495H13.9604V31.4307Z" fill="#E95947"/>
<path d="M24.5073 44.087H28.7261V48.3057H24.5073V44.087Z" fill="#E95947"/>
<path d="M35.0542 44.087H39.273V48.3057H35.0542V44.087Z" fill="#E95947"/>
<path d="M45.6011 44.087H49.8198V48.3057H45.6011V44.087Z" fill="#E95947"/>
<path d="M39.2729 49.3604H35.0542C34.4717 49.3604 33.9995 48.8883 33.9995 48.3057V44.087C33.9995 43.5044 34.4717 43.0323 35.0542 43.0323H39.2729C39.8555 43.0323 40.3276 43.5044 40.3276 44.087V48.3057C40.3276 48.8883 39.8555 49.3604 39.2729 49.3604ZM36.1089 47.251H38.2183V45.1417H36.1089V47.251Z" fill="#1C2D6B"/>
<path d="M49.8198 49.3604H45.6011C45.0185 49.3604 44.5464 48.8883 44.5464 48.3057V44.087C44.5464 43.5044 45.0185 43.0323 45.6011 43.0323H49.8198C50.4024 43.0323 50.8745 43.5044 50.8745 44.087V48.3057C50.8745 48.8883 50.4024 49.3604 49.8198 49.3604ZM46.6558 47.251H48.7651V45.1417H46.6558V47.251Z" fill="#1C2D6B"/>
<path d="M13.9604 44.087H18.1792V48.3057H13.9604V44.087Z" fill="#E95947"/>
<path d="M49.8198 36.7042H45.6011C45.0185 36.7042 44.5464 36.232 44.5464 35.6495V31.4307C44.5464 30.8482 45.0185 30.376 45.6011 30.376H49.8198C50.4024 30.376 50.8745 30.8482 50.8745 31.4307V35.6495C50.8745 36.232 50.4024 36.7042 49.8198 36.7042ZM46.6558 34.5948H48.7651V32.4854H46.6558V34.5948Z" fill="#1C2D6B"/>
<path d="M39.2729 36.7042H35.0542C34.4717 36.7042 33.9995 36.232 33.9995 35.6495V31.4307C33.9995 30.8482 34.4717 30.376 35.0542 30.376H39.2729C39.8555 30.376 40.3276 30.8482 40.3276 31.4307V35.6495C40.3276 36.232 39.8555 36.7042 39.2729 36.7042ZM36.1089 34.5948H38.2183V32.4854H36.1089V34.5948Z" fill="#1C2D6B"/>
<path d="M28.7261 36.7042H24.5073C23.9248 36.7042 23.4526 36.232 23.4526 35.6495V31.4307C23.4526 30.8482 23.9248 30.376 24.5073 30.376H28.7261C29.3086 30.376 29.7808 30.8482 29.7808 31.4307V35.6495C29.7808 36.232 29.3086 36.7042 28.7261 36.7042ZM25.562 34.5948H27.6714V32.4854H25.562V34.5948Z" fill="#1C2D6B"/>
<path d="M18.1792 36.7042H13.9604C13.3779 36.7042 12.9058 36.232 12.9058 35.6495V31.4307C12.9058 30.8482 13.3779 30.376 13.9604 30.376H18.1792C18.7617 30.376 19.2339 30.8482 19.2339 31.4307V35.6495C19.2339 36.232 18.7617 36.7042 18.1792 36.7042ZM15.0151 34.5948H17.1245V32.4854H15.0151V34.5948Z" fill="#1C2D6B"/>
<path d="M28.7261 49.3604H24.5073C23.9248 49.3604 23.4526 48.8883 23.4526 48.3057V44.087C23.4526 43.5044 23.9248 43.0323 24.5073 43.0323H28.7261C29.3086 43.0323 29.7808 43.5044 29.7808 44.087V48.3057C29.7808 48.8883 29.3086 49.3604 28.7261 49.3604ZM25.562 47.251H27.6714V45.1417H25.562V47.251Z" fill="#1C2D6B"/>
<path d="M18.1792 49.3604H13.9604C13.3779 49.3604 12.9058 48.8883 12.9058 48.3057V44.087C12.9058 43.5044 13.3779 43.0323 13.9604 43.0323H18.1792C18.7617 43.0323 19.2339 43.5044 19.2339 44.087V48.3057C19.2339 48.8883 18.7617 49.3604 18.1792 49.3604ZM15.0151 47.251H17.1245V45.1417H15.0151V47.251Z" fill="#1C2D6B"/>
<path d="M47.7104 20.8839C46.5454 20.8839 45.6011 19.9396 45.6011 18.7745V14.5557C45.6011 13.3906 46.5454 12.4464 47.7104 12.4464C48.8755 12.4464 49.8198 13.3906 49.8198 14.5557V18.7745C49.8198 19.9392 48.8755 20.8839 47.7104 20.8839Z" fill="#EEE045"/>
<path d="M37.1636 20.8839C35.9985 20.8839 35.0542 19.9396 35.0542 18.7745V14.5557C35.0542 13.3906 35.9985 12.4464 37.1636 12.4464C38.3286 12.4464 39.2729 13.3906 39.2729 14.5557V18.7745C39.2729 19.9392 38.3286 20.8839 37.1636 20.8839Z" fill="#EEE045"/>
<path d="M26.6167 20.8839C25.4516 20.8839 24.5073 19.9396 24.5073 18.7745V14.5557C24.5073 13.3906 25.4516 12.4464 26.6167 12.4464C27.7818 12.4464 28.7261 13.3906 28.7261 14.5557V18.7745C28.7261 19.9392 27.7818 20.8839 26.6167 20.8839Z" fill="#EEE045"/>
<path d="M16.0698 20.8839C14.9047 20.8839 13.9604 19.9396 13.9604 18.7745V14.5557C13.9604 13.3906 14.9047 12.4464 16.0698 12.4464C17.2349 12.4464 18.1792 13.3906 18.1792 14.5557V18.7745C18.1792 19.9392 17.2349 20.8839 16.0698 20.8839Z" fill="#EEE045"/>
<path d="M47.7105 21.9385C45.966 21.9385 44.5464 20.5189 44.5464 18.7745V14.5557C44.5464 12.8113 45.966 11.3917 47.7105 11.3917C49.4549 11.3917 50.8745 12.8113 50.8745 14.5557V18.7745C50.8745 20.5189 49.4549 21.9385 47.7105 21.9385ZM47.7105 13.501C47.129 13.501 46.6558 13.9742 46.6558 14.5557V18.7745C46.6558 19.356 47.129 19.8292 47.7105 19.8292C48.2919 19.8292 48.7651 19.356 48.7651 18.7745V14.5557C48.7651 13.9742 48.2919 13.501 47.7105 13.501Z" fill="#1C2D6B"/>
<path d="M37.1636 21.9385C35.4191 21.9385 33.9995 20.5189 33.9995 18.7745V14.5557C33.9995 12.8113 35.4191 11.3917 37.1636 11.3917C38.908 11.3917 40.3276 12.8113 40.3276 14.5557V18.7745C40.3276 20.5189 38.908 21.9385 37.1636 21.9385ZM37.1636 13.501C36.5821 13.501 36.1089 13.9742 36.1089 14.5557V18.7745C36.1089 19.356 36.5821 19.8292 37.1636 19.8292C37.7451 19.8292 38.2183 19.356 38.2183 18.7745V14.5557C38.2183 13.9742 37.7451 13.501 37.1636 13.501Z" fill="#1C2D6B"/>
<path d="M26.6167 21.9385C24.8722 21.9385 23.4526 20.5189 23.4526 18.7745V14.5557C23.4526 12.8113 24.8722 11.3917 26.6167 11.3917C28.3612 11.3917 29.7808 12.8113 29.7808 14.5557V18.7745C29.7808 20.5189 28.3612 21.9385 26.6167 21.9385ZM26.6167 13.501C26.0352 13.501 25.562 13.9742 25.562 14.5557V18.7745C25.562 19.356 26.0352 19.8292 26.6167 19.8292C27.1982 19.8292 27.6714 19.356 27.6714 18.7745V14.5557C27.6714 13.9742 27.1982 13.501 26.6167 13.501Z" fill="#1C2D6B"/>
<path d="M16.0698 21.9385C14.3254 21.9385 12.9058 20.5189 12.9058 18.7745V14.5557C12.9058 12.8113 14.3254 11.3917 16.0698 11.3917C17.8143 11.3917 19.2339 12.8113 19.2339 14.5557V18.7745C19.2339 20.5189 17.8143 21.9385 16.0698 21.9385ZM16.0698 13.501C15.4883 13.501 15.0151 13.9742 15.0151 14.5557V18.7745C15.0151 19.356 15.4883 19.8292 16.0698 19.8292C16.6513 19.8292 17.1245 19.356 17.1245 18.7745V14.5557C17.1245 13.9742 16.6513 13.501 16.0698 13.501Z" fill="#1C2D6B"/>
<path d="M36.1267 58.6814V41.5821C36.1267 40.4793 37.0207 39.5849 38.124 39.5849H35.3564C33.4148 39.5849 31.8408 41.1588 31.8408 43.1005V57.163C31.8408 59.1047 33.4148 60.6786 35.3564 60.6786H38.124C37.0207 60.6786 36.1267 59.7846 36.1267 58.6814Z" fill="#A4D4A0"/>
<path d="M40.2114 39.5849H44.4973V60.6786H40.2114V39.5849Z" fill="#419B46"/>
<path d="M38.1242 39.5849C37.0213 39.5849 36.127 40.4789 36.127 41.5821V58.6814C36.127 59.7843 37.021 60.6786 38.1242 60.6786H40.2114V39.5849H38.1242Z" fill="#65BC49"/>
<path d="M44.4971 61.7333H35.3564C32.8364 61.7333 30.7861 59.683 30.7861 57.163V43.1005C30.7861 40.5805 32.8364 38.5302 35.3564 38.5302H44.4971C45.0796 38.5302 45.5518 39.0024 45.5518 39.5849V60.6786C45.5518 61.2612 45.0796 61.7333 44.4971 61.7333ZM35.3564 40.6396C33.9994 40.6396 32.8955 41.7435 32.8955 43.1005V57.163C32.8955 58.5201 33.9994 59.624 35.3564 59.624H43.4424V40.6396H35.3564Z" fill="#1C2D6B"/>
<path d="M55.9383 50.1314V35.7711L44.4971 39.5849V50.1317V60.6786L55.9383 64.4924V50.1317V50.1314Z" fill="#89AADB"/>
<path d="M64.6968 32.8518V50.1314V50.1318V67.4118L76.138 71.2255V50.1318V29.038L64.6968 32.8518Z" fill="#4B67B0"/>
<path d="M64.6966 50.1314V32.8517L55.9385 35.7711V50.1314V50.1317V64.4924L64.6966 67.4117V50.1317V50.1314Z" fill="#6287C5"/>
<path d="M76.1377 72.2802C76.0255 72.2802 75.913 72.2623 75.8041 72.2261L44.1634 61.6792C43.7328 61.5354 43.4424 61.1325 43.4424 60.6786V39.5849C43.4424 39.1307 43.7328 38.7278 44.1634 38.5843L75.8041 28.0374C76.1254 27.9302 76.4791 27.984 76.7543 28.1826C77.0296 28.3809 77.1924 28.6991 77.1924 29.0383V71.2259C77.1924 71.5648 77.0296 71.8833 76.7543 72.0816C76.5726 72.2123 76.356 72.2802 76.1377 72.2802ZM45.5518 59.9185L75.083 69.7623V30.5012L45.5518 40.3449V59.9185Z" fill="#1C2D6B"/>
<path d="M82.4658 50.1318C82.4658 46.6369 79.6326 43.8036 76.1377 43.8036V48.3423H80.6767C81.6646 48.3427 82.4658 49.1439 82.4658 50.1318Z" fill="#EDE49D"/>
<path d="M80.6767 51.9212H76.1377V56.4599C79.6326 56.4599 82.4658 53.6267 82.4658 50.1318C82.4658 51.12 81.6646 51.9212 80.6767 51.9212Z" fill="#D3BA2A"/>
<path d="M80.6767 48.3427H76.1377V51.9212H80.6767C81.665 51.9212 82.4658 51.12 82.4658 50.1318C82.4658 49.1439 81.6646 48.3427 80.6767 48.3427Z" fill="#EEE045"/>
<path d="M76.1377 57.5146C75.5552 57.5146 75.083 57.0424 75.083 56.4599V43.8036C75.083 43.5242 75.1941 43.2556 75.392 43.058C75.5896 42.8601 75.8579 42.749 76.1377 42.749C80.2088 42.749 83.5205 46.0607 83.5205 50.1318C83.5205 54.2029 80.2084 57.5146 76.1377 57.5146ZM77.1924 44.9642V55.299C79.5967 54.809 81.4111 52.6781 81.4111 50.1314C81.4111 47.5854 79.5964 45.4542 77.1924 44.9642Z" fill="#1C2D6B"/>
<path d="M36.7988 71.4146L37.5659 60.679H36.0594L33.3756 71.4146C32.5958 74.533 34.9545 77.554 38.1688 77.554C37.2498 77.5536 36.5759 74.533 36.7988 71.4146Z" fill="#EF7F72"/>
<path d="M42.962 71.4146L40.2782 60.679H38.7717L39.5389 71.4146C39.7617 74.533 39.0874 77.554 38.1685 77.554C41.3831 77.5536 43.7418 74.533 42.962 71.4146Z" fill="#E8383B"/>
<path d="M39.5398 71.4146L38.7727 60.679H37.5668L36.7997 71.4146C36.5768 74.533 37.2511 77.554 38.1701 77.554C39.0884 77.5536 39.7627 74.533 39.5398 71.4146Z" fill="#E95947"/>
<path d="M38.169 78.6083C36.31 78.6083 34.5873 77.7677 33.4433 76.3024C32.2994 74.8371 31.9017 72.9622 32.3524 71.1587L35.0363 60.4227C35.1537 59.9534 35.5756 59.624 36.0597 59.624H40.2784C40.7622 59.624 41.1844 59.9534 41.3018 60.4227L43.986 71.1587C44.4367 72.9622 44.0391 74.8371 42.8951 76.3024C41.7511 77.7677 40.0281 78.6083 38.169 78.6083ZM36.883 61.7333L34.3989 71.6702C34.1064 72.8392 34.3644 74.0545 35.1059 75.0045C35.8473 75.9544 36.9639 76.499 38.1687 76.499C39.3738 76.499 40.4901 75.9544 41.2315 75.0045C41.9729 74.0545 42.231 72.8392 41.9385 71.6702L39.4544 61.7333H36.883Z" fill="#1C2D6B"/>
<path d="M27.6221 43.8036H29.3915V56.4599H27.6221V43.8036Z" fill="#EDE49D"/>
<path d="M30.0718 43.8036H31.8412V56.4599H30.0718V43.8036Z" fill="#D3BA2A"/>
<path d="M29.3916 43.8036H30.0715V56.4599H29.3916V43.8036Z" fill="#EEE045"/>
<path d="M31.8408 57.5146H27.6221C27.0395 57.5146 26.5674 57.0424 26.5674 56.4599V43.8036C26.5674 43.2211 27.0395 42.749 27.6221 42.749H31.8408C32.4234 42.749 32.8955 43.2211 32.8955 43.8036V56.4599C32.8955 57.0424 32.4234 57.5146 31.8408 57.5146ZM28.6768 55.4052H30.7861V44.8583H28.6768V55.4052Z" fill="#1C2D6B"/>
</svg>
