<svg width="30" height="30" viewBox="0 0 30 30" fill="none" xmlns="http://www.w3.org/2000/svg">
<path fill-rule="evenodd" clip-rule="evenodd" d="M22.815 5.89867C21.6419 4.70044 19.7399 4.70044 18.5664 5.89867L6.65697 18.0617C6.5757 18.1453 6.51637 18.2483 6.48582 18.3621L4.91968 24.1364C4.85545 24.373 4.92066 24.6268 5.09082 24.8006C5.26099 24.9744 5.50948 25.041 5.74113 24.9754L11.395 23.3758C11.5064 23.3446 11.6072 23.284 11.6893 23.201L23.5981 11.0374C24.7697 9.83873 24.7697 7.8975 23.5981 6.69888L22.815 5.89867ZM8.11189 18.5049L17.8587 8.54991L21.0022 11.7608L11.2548 21.7155L8.11189 18.5049ZM7.48371 19.7917L9.99526 22.3571L6.52146 23.3398L7.48371 19.7917ZM22.6545 10.0735L21.9464 10.7963L18.8027 7.58569L19.511 6.86288C20.1627 6.19727 21.2191 6.19727 21.871 6.86288L22.6545 7.6627C23.3048 8.32931 23.3048 9.40753 22.6545 10.0735Z" fill="#1D83C4"/>
</svg>
