<svg width="24" height="24" viewBox="0 0 24 24" fill="none" xmlns="http://www.w3.org/2000/svg">
<path d="M11.9999 3C16.9674 3 20.9999 7.03265 20.9999 12.0001C20.9999 16.9675 16.9674 21 11.9999 21C7.03253 21 3 16.9675 3 12.0001C3 7.03265 7.0142 3 11.9999 3Z" stroke="#0075BF" stroke-width="0.75"/>
<path d="M12.7893 11.8174C12.7893 12.019 12.6976 12.2206 12.551 12.3673L8.79333 16.1249C8.50005 16.4181 8.02348 16.4365 7.71187 16.1432L7.69358 16.1249C7.38197 15.8316 7.38195 15.3551 7.67523 15.0435L7.69358 15.0251L11.2129 11.5058V8.40804C11.2129 7.96812 11.5611 7.61975 12.0011 7.61975C12.441 7.61975 12.7893 7.96812 12.7893 8.40804V11.8174Z" fill="#0075BF"/>
</svg>
