<svg width="24" height="24" viewBox="0 0 24 24" fill="none" xmlns="http://www.w3.org/2000/svg">
<g clip-path="url(#clip0)">
<path d="M14.0172 10.736C14.7271 10.9921 15.3818 11.3816 15.952 11.8762C16.3555 11.5112 16.8181 11.2184 17.3202 11.0098C16.6526 10.4377 16.2811 9.58759 16.2811 8.70512C16.2811 7.11897 17.4904 5.72409 19.1128 5.72409C20.7357 5.72409 21.9453 7.11871 21.9453 8.70512C21.9453 9.58616 21.5707 10.4362 20.9054 11.0094C22.8138 11.7999 24 13.7357 24 15.7961V16.123C24 16.1984 23.938 16.2627 23.8616 16.2627H18.2076C18.2321 16.5015 18.2455 16.7415 18.2455 16.9815V17.3187C18.2455 18.7858 17.1252 20.0763 15.6245 20.0763H8.33735C6.83735 20.0763 5.71704 18.7854 5.71704 17.3187V16.9815C5.71704 16.7415 5.73023 16.5015 5.75494 16.2627H0.138234C0.0619219 16.2627 0 16.1984 0 16.123V15.7961C0 13.7384 1.18343 11.8045 3.08927 11.0141C2.42159 10.4422 2.05008 9.59167 2.05008 8.70967C2.05008 7.12351 3.2599 5.72912 4.88205 5.72912C6.50421 5.72912 7.71382 7.12375 7.71382 8.70967C7.71382 9.59071 7.33966 10.4413 6.67439 11.0139C7.16855 11.2191 7.62312 11.5073 8.0239 11.8628C8.58935 11.3763 9.23564 10.9918 9.93574 10.7367C8.96974 10.0253 8.42086 8.87094 8.42086 7.6683C8.42086 5.68014 9.94174 3.92383 11.9765 3.92383C14.0135 3.92383 15.5323 5.67749 15.5323 7.6683C15.5323 8.86949 14.9806 10.0234 14.0172 10.736L14.0172 10.736ZM17.272 8.69983C17.272 9.7184 18.033 10.6292 19.0756 10.6482C19.0879 10.6482 19.1006 10.6482 19.1128 10.6482C19.1255 10.6482 19.1382 10.6482 19.1483 10.6482C20.187 10.6244 20.9543 9.71528 20.9543 8.69983C20.9543 7.67001 20.169 6.75102 19.1128 6.75102C18.0568 6.75102 17.272 7.67022 17.272 8.69983H17.272ZM9.40167 7.6683C9.40167 9.04469 10.4121 10.2917 11.8135 10.3757C11.8653 10.3757 11.9151 10.3757 11.9668 10.3757C12.0186 10.3757 12.0686 10.3757 12.1168 10.376C13.5215 10.2917 14.5324 9.04471 14.5324 7.6683C14.5324 6.23359 13.4377 4.95583 11.9668 4.95583C10.4963 4.95583 9.40167 6.23383 9.40167 7.6683ZM3.02634 8.69983C3.02634 9.71648 3.79027 10.6292 4.83042 10.6482C4.84289 10.6482 4.85538 10.6482 4.86785 10.6482C4.88032 10.6482 4.89281 10.6482 4.90266 10.6482C5.94138 10.6244 6.70889 9.71577 6.70889 8.69983C6.70889 7.67022 5.92409 6.75102 4.86785 6.75102C3.81209 6.75102 3.02632 7.67022 3.02632 8.69983H3.02634ZM7.29042 12.5799C6.61842 12.0118 5.78323 11.6847 4.89572 11.6801C4.8866 11.6801 4.87723 11.6801 4.86788 11.6801C4.85876 11.6801 4.84938 11.6801 4.84052 11.6801C2.83894 11.6948 1.26982 13.2908 1.01494 15.2259H5.92699C6.17948 14.2558 6.64411 13.3464 7.29045 12.5799H7.29042ZM17.2451 17.3187V16.9815C17.2451 14.0948 15.0846 11.5033 12.1384 11.4128C12.082 11.4173 12.0282 11.4173 11.9713 11.4173C11.9149 11.4173 11.8615 11.4173 11.812 11.4128C8.85884 11.5032 6.69858 14.095 6.69858 16.9815V17.3187C6.69858 18.229 7.39409 19.0442 8.32793 19.0442H15.615C16.5494 19.0442 17.2451 18.2295 17.2451 17.3187ZM18.0163 15.2259H22.9659C22.7111 13.2906 21.1422 11.6948 19.1404 11.6802C19.1315 11.6802 19.1221 11.6802 19.1128 11.6802C19.1041 11.6802 19.095 11.6802 19.0864 11.6802C18.1878 11.6895 17.3426 12.0176 16.6661 12.5994C17.3071 13.364 17.7642 14.2604 18.0163 15.2259H18.0163Z" fill="black"/>
</g>
<defs>
<clipPath id="clip0">
<rect width="24" height="24" fill="white"/>
</clipPath>
</defs>
</svg>
