<svg width="23" height="14" viewBox="0 0 23 14" fill="none" xmlns="http://www.w3.org/2000/svg">
<path d="M15.656 6C17.3523 6 18.7113 4.66 18.7113 3C18.7113 1.34 17.3523 0 15.656 0C13.9597 0 12.5904 1.34 12.5904 3C12.5904 4.66 13.9597 6 15.656 6ZM7.48113 6C9.17741 6 10.5365 4.66 10.5365 3C10.5365 1.34 9.17741 0 7.48113 0C5.78485 0 4.41556 1.34 4.41556 3C4.41556 4.66 5.78485 6 7.48113 6ZM7.48113 8C5.1002 8 0.328125 9.17 0.328125 11.5V14H14.6341V11.5C14.6341 9.17 9.86206 8 7.48113 8ZM15.656 8C15.3597 8 15.0224 8.02 14.6648 8.05C15.8501 8.89 16.6779 10.02 16.6779 11.5V14H22.809V11.5C22.809 9.17 18.0369 8 15.656 8Z" fill="black"/>
</svg>
