<svg width="30" height="30" viewBox="0 0 30 30" fill="none" xmlns="http://www.w3.org/2000/svg">
<g clip-path="url(#clip0)">
<path d="M11.8737 29.8518C10.4922 29.8518 9.11105 29.3386 8.05751 28.3112C7.55914 27.8252 7.16354 27.2593 6.88167 26.6292C6.1525 24.9987 4.85297 23.6992 3.2225 22.97C2.59234 22.6882 2.02644 22.2926 1.54044 21.7942C-0.518987 19.6821 -0.512656 16.2515 1.55457 14.1467C2.3956 13.2904 3.46591 12.7449 4.64971 12.5692C5.32319 12.4693 5.92205 12.1689 6.38149 11.7008L6.41713 11.6648C7.69837 10.3835 9.52582 9.82265 11.5627 10.0856C13.5149 10.3376 15.4393 11.3257 16.9816 12.868C18.5238 14.4102 19.512 16.3346 19.764 18.2868C20.0269 20.3238 19.4661 22.1512 18.1848 23.4325L18.1524 23.4646C17.6829 23.9262 17.3823 24.5257 17.2829 25.1987C17.1077 26.3834 16.5624 27.4544 15.706 28.296C14.6509 29.3329 13.2621 29.8518 11.8737 29.8518ZM10.6116 11.7763C9.46901 11.7763 8.42467 12.1445 7.66074 12.9084L7.63711 12.9323C6.90688 13.6764 5.96326 14.1523 4.90784 14.309C4.10562 14.428 3.37996 14.7981 2.80925 15.3791C1.40701 16.8068 1.40267 19.1338 2.79958 20.5663C3.12999 20.9052 3.51386 21.1737 3.94047 21.3646C5.96637 22.2706 7.58106 23.8853 8.48711 25.9112C8.67793 26.3379 8.94649 26.7217 9.28528 27.0521C10.7182 28.4494 13.0456 28.4447 14.4733 27.0417C15.0545 26.4706 15.4244 25.7444 15.5431 24.9417C15.699 23.8868 16.1748 22.9425 16.9191 22.2109L16.9412 22.189C17.8282 21.3019 18.2112 19.9961 18.0197 18.5121C17.8171 16.9433 17.0068 15.3806 15.7379 14.1117C14.2107 12.5843 12.3037 11.7763 10.6116 11.7763Z" fill="#003A54"/>
<path d="M17.7291 9.05943C16.7147 9.05943 15.8064 8.70159 15.1319 8.02711C14.3447 7.23996 13.9888 6.134 14.1298 4.91297C14.262 3.76797 14.8239 2.64836 15.7119 1.76031C16.5999 0.872323 17.7195 0.310464 18.8645 0.178207C20.0856 0.0373906 21.1914 0.393184 21.9786 1.18028C22.7659 1.96749 23.1217 3.07344 22.9808 4.29448C22.8486 5.43948 22.2867 6.55909 21.3987 7.44708C20.5107 8.33513 19.391 8.89698 18.246 9.02918C18.0711 9.04941 17.8986 9.05943 17.7291 9.05943ZM19.3735 1.90728C19.2734 1.90728 19.1708 1.91326 19.0662 1.92534C18.3137 2.01222 17.5641 2.39527 16.9555 3.00386C16.3469 3.6125 15.9638 4.36213 15.8769 5.11464C15.7988 5.79117 15.9759 6.3838 16.3755 6.78345C16.7751 7.18309 17.3679 7.36008 18.0443 7.28205C18.7968 7.19517 19.5464 6.81212 20.1551 6.20347C20.7637 5.59483 21.1468 4.84526 21.2336 4.09275C21.3117 3.41622 21.1346 2.82359 20.735 2.42394C20.3972 2.08609 19.9213 1.90728 19.3735 1.90728Z" fill="#003A54"/>
<path d="M5.92444 9.50692C4.91005 9.50692 4.00172 9.14908 3.32725 8.47466C2.54003 7.68745 2.18412 6.58155 2.32512 5.36052C2.45731 4.21552 3.01917 3.0959 3.90722 2.20786C4.79521 1.31987 5.91488 0.758011 7.05982 0.625754C8.28103 0.48482 9.38681 0.840731 10.174 1.62783C10.9612 2.41504 11.3171 3.52099 11.1761 4.74203C11.0439 5.88702 10.482 7.00664 9.59399 7.89463C8.706 8.78267 7.58633 9.34453 6.44133 9.47673C6.26657 9.49696 6.09398 9.50692 5.92444 9.50692ZM7.56892 2.35483C7.46873 2.35483 7.36619 2.36081 7.26161 2.37289C6.5091 2.45977 5.75947 2.84282 5.15088 3.4514C4.54218 4.0601 4.15919 4.80974 4.07225 5.56224C3.99416 6.23877 4.17121 6.83141 4.57085 7.23105C4.97044 7.63064 5.56296 7.80786 6.23966 7.7296C6.99217 7.64272 7.7418 7.25966 8.35044 6.65102C8.95908 6.04238 9.34214 5.29275 9.42896 4.5403C9.50711 3.86377 9.33 3.27113 8.93042 2.87149C8.59256 2.53363 8.1167 2.35483 7.56892 2.35483Z" fill="#003A54"/>
<path d="M24.7194 16.0478C23.705 16.0478 22.7966 15.69 22.1222 15.0156C21.335 14.2284 20.979 13.1225 21.12 11.9014C21.2522 10.7564 21.8141 9.63683 22.7021 8.74879C23.5901 7.8608 24.7098 7.29894 25.8548 7.16674C27.0757 7.02552 28.1817 7.38166 28.9689 8.16881C29.7562 8.95596 30.1121 10.0619 29.9711 11.283C29.8389 12.4279 29.277 13.5476 28.389 14.4356C27.501 15.3236 26.3813 15.8854 25.2364 16.0177C25.0615 16.0378 24.8889 16.0478 24.7194 16.0478ZM26.3638 8.89576C26.2636 8.89576 26.1611 8.90174 26.0565 8.91381C25.304 9.0007 24.5544 9.38375 23.9457 9.99239C23.3371 10.601 22.9541 11.3506 22.8672 12.1031C22.7891 12.7796 22.9661 13.3723 23.3658 13.7719C23.7654 14.1716 24.3582 14.3488 25.0346 14.2705C25.7871 14.1836 26.5367 13.8005 27.1454 13.1919C27.754 12.5833 28.1371 11.8337 28.2239 11.0812C28.302 10.4046 28.1249 9.812 27.7253 9.41236C27.3875 9.0745 26.9117 8.89576 26.3638 8.89576Z" fill="#003A54"/>
<path d="M24.1256 27.7098C23.1113 27.7098 22.2029 27.352 21.5284 26.6776C20.7412 25.8903 20.3853 24.7844 20.5263 23.5634C20.6585 22.4184 21.2203 21.2988 22.1084 20.4108C22.9964 19.5228 24.1161 18.9609 25.2611 18.8287C26.482 18.6875 27.588 19.0436 28.3752 19.8308C29.1624 20.6179 29.5183 21.7239 29.3773 22.9449C29.2451 24.0899 28.6833 25.2095 27.7953 26.0976C26.9072 26.9856 25.7876 27.5474 24.6426 27.6797C24.4677 27.6999 24.2952 27.7098 24.1256 27.7098ZM25.7701 20.5578C25.6699 20.5578 25.5674 20.5638 25.4628 20.5758C24.7103 20.6627 23.9606 21.0458 23.352 21.6544C22.7434 22.2631 22.3603 23.0126 22.2734 23.7651C22.1953 24.4417 22.3724 25.0343 22.772 25.434C23.1716 25.8336 23.7645 26.0107 24.4408 25.9325C25.1933 25.8456 25.943 25.4626 26.5516 24.854C27.1603 24.2453 27.5433 23.4957 27.6301 22.7432C27.7083 22.0667 27.5312 21.474 27.1316 21.0744C26.7937 20.7365 26.3179 20.5578 25.7701 20.5578Z" fill="#003A54"/>
</g>
<defs>
<clipPath id="clip0">
<rect width="30" height="30" fill="white"/>
</clipPath>
</defs>
</svg>
