<svg width="20" height="24" viewBox="0 0 20 24" fill="none" xmlns="http://www.w3.org/2000/svg">
<path d="M13.9156 15.92C14.2679 16 14.7644 15.984 15.0847 15.888C16.1095 15.632 16.1255 14.864 16.1575 14.544C16.1895 14.112 15.9173 13.344 14.7963 13.136C14.2679 13.056 13.9156 13.056 13.6114 13.056C13.2911 13.056 13.0349 13.088 12.6185 13.136C12.5064 13.168 12.3624 13.2 12.2663 13.2C11.978 12.912 11.7699 12.608 11.4496 12.176C10.8411 11.296 10.4568 10.688 9.84825 9.6C9.76819 9.456 9.67205 9.27999 9.59199 9.13599C9.65604 8.86399 9.70415 8.57602 9.76821 8.22402L9.84825 7.80801C10.0885 6.68801 10.1365 6.32001 9.96036 5.40801C9.75219 4.41601 9.0636 4.17601 8.74333 4.20801C8.56718 4.20801 7.86263 4.31999 7.57438 5.34399C7.36621 6.04799 7.39824 6.576 7.57438 7.296C7.68648 7.824 7.95862 8.46401 8.39098 9.26401C8.24686 9.87201 8.07078 10.432 7.75051 11.376C7.43024 12.336 7.28609 12.72 7.22204 12.96C7.12596 13.216 7.126 13.216 6.96587 13.664L6.93381 13.728C6.72564 14.288 6.38937 14.96 6.14917 15.392C5.79688 15.568 5.4446 15.744 4.9642 16.032C3.90732 16.64 3.18669 17.088 2.93047 17.792C2.78635 18.176 2.43401 19.104 3.18664 19.728C3.44286 19.968 3.79518 20.08 4.11544 20.08C4.46774 20.08 4.78803 19.968 5.04425 19.728C5.39654 19.408 5.54065 19.104 5.82889 18.56C5.92497 18.416 6.00502 18.24 6.11711 18C6.5815 17.088 6.86976 16.48 6.93381 16.384C6.93381 16.352 6.9658 16.32 6.99783 16.304C7.206 16.224 7.43019 16.128 7.70242 16.016C8.66322 15.6 9.0636 15.488 9.94433 15.2L10.3447 15.056C10.6649 14.944 10.9051 14.88 11.1293 14.8C11.4175 14.688 11.6578 14.624 11.882 14.544C12.0902 14.72 12.2823 14.928 12.5545 15.136C13.115 15.568 13.4993 15.808 13.9156 15.92ZM13.5953 14.224C13.8836 14.224 14.1719 14.224 14.5882 14.304C14.8765 14.368 14.9725 14.48 14.9725 14.512V14.72C14.9725 14.72 14.9404 14.752 14.7963 14.784C14.5882 14.848 14.2999 14.848 14.2199 14.816C14.0757 14.752 13.8356 14.672 13.3552 14.256C13.4353 14.224 13.4992 14.224 13.5953 14.224ZM5.09224 17.44C4.98014 17.648 4.88407 17.856 4.80401 18C4.51577 18.56 4.45178 18.672 4.27564 18.848C4.16354 18.928 4.01937 18.88 3.92329 18.816C3.89127 18.784 3.81118 18.736 4.00334 18.208C4.11543 17.92 4.67597 17.568 5.17238 17.248C5.14035 17.328 5.10825 17.392 5.09224 17.44ZM8.69524 5.68003C8.72727 5.60003 8.75929 5.50402 8.79132 5.47202C8.82334 5.50402 8.82341 5.552 8.85543 5.648C8.96753 6.288 8.96746 6.49599 8.79132 7.34399C8.75929 7.26399 8.7273 7.168 8.7273 7.104C8.58318 6.464 8.55112 6.14403 8.69524 5.68003ZM10.729 13.648C10.5208 13.728 10.2967 13.792 9.97639 13.904L9.57605 14.048C8.85545 14.288 8.4391 14.432 7.76654 14.688C7.86262 14.512 7.9106 14.336 8.00668 14.16L8.03874 14.096C8.21488 13.632 8.21487 13.632 8.32697 13.328C8.39102 13.12 8.53517 12.72 8.85543 11.776C8.99955 11.392 9.07964 11.04 9.17572 10.752C9.60808 11.52 9.96029 12.096 10.4887 12.832C10.6969 13.088 10.8411 13.328 11.0172 13.536L10.729 13.648ZM19.2 3.53599C19.2 1.56799 17.6628 0 15.7412 0H3.45894C1.53734 0 0 1.58399 0 3.53599V20.48C0 22.416 1.53734 24 3.45894 24H12.8267H12.9388C12.9708 24 12.9708 24 13.0028 23.968C13.0349 23.968 13.0349 23.968 13.067 23.936C13.099 23.936 13.0989 23.904 13.131 23.904C13.131 23.904 13.163 23.904 13.163 23.872L13.2431 23.776L19.0078 17.888C19.0078 17.888 19.0079 17.856 19.0399 17.856L19.1039 17.792C19.1039 17.76 19.136 17.76 19.136 17.728C19.136 17.696 19.168 17.696 19.168 17.664C19.168 17.632 19.168 17.632 19.2 17.6V17.536V17.424V3.48799V3.53599ZM1.15301 20.464V3.552C1.15301 2.272 2.2099 1.18403 3.45894 1.18403H15.7412C17.0222 1.18403 18.0471 2.24 18.0471 3.552V16.96H14.284C13.1791 16.96 12.2503 17.904 12.2503 19.008V22.848H3.45894C2.2099 22.832 1.15301 21.776 1.15301 20.464ZM17.2304 18.112L13.4513 21.968V18.976C13.4513 18.48 13.8356 18.096 14.332 18.096H17.2304V18.112Z" fill="#E30512"/>
</svg>
