<svg width="58" height="58" viewBox="0 0 58 58" fill="none" xmlns="http://www.w3.org/2000/svg">
<path fill-rule="evenodd" clip-rule="evenodd" d="M48.0965 44.7704L31.1217 11.007C30.2352 9.24309 27.7652 9.24309 26.8787 11.007L9.90392 44.7704C9.09003 46.3908 10.2419 48.3166 12.0259 48.3166H45.9746C47.7585 48.3166 48.9104 46.3908 48.0965 44.7704ZM33.2437 9.89559C31.4697 6.36814 26.5307 6.36814 24.7567 9.89559L7.7824 43.659C6.15374 46.8985 8.4584 50.75 12.0259 50.75H45.9746C49.542 50.75 51.8467 46.8985 50.218 43.659L33.2437 9.89559V9.89559Z" fill="#000000"/>
<path fill-rule="evenodd" clip-rule="evenodd" d="M27.1885 20.469V36.177C27.1885 37.1784 27.9998 37.9901 29.0007 37.9901C30.0017 37.9901 30.8129 37.1784 30.8129 36.177V20.469C30.8129 19.468 30.0017 18.6567 29.0007 18.6567C27.9998 18.6567 27.1885 19.468 27.1885 20.469Z" fill="#000000"/>
<path d="M29.0007 44.0312C30.0016 44.0312 30.8129 43.2198 30.8129 42.219C30.8129 41.2181 30.0016 40.4067 29.0007 40.4067C27.9998 40.4067 27.1885 41.2181 27.1885 42.219C27.1885 43.2198 27.9998 44.0312 29.0007 44.0312Z" fill="#000000"/>
</svg>
