<svg width="24" height="24" viewBox="0 0 24 24" fill="none" xmlns="http://www.w3.org/2000/svg">
<path d="M15.8792 21.0469C15.6259 21.0469 15.4203 21.2569 15.4203 21.5156C15.4203 21.7744 15.6259 21.9844 15.8792 21.9844C16.1326 21.9844 16.3382 21.7744 16.3382 21.5156C16.3382 21.2569 16.1326 21.0469 15.8792 21.0469Z" fill="#1D83C4"/>
<path d="M18.8796 16.8649C18.4122 16.1626 17.7564 15.6262 16.9832 15.3136L13.6165 13.9528C14.4969 13.078 15.0048 11.8721 15.0048 10.5937C15.0048 10.0883 14.9275 9.596 14.7748 9.12462C14.9149 9.04222 15.0048 8.88865 15.0048 8.71873V7.28253L15.8058 5.64627L16.5869 5.24741C16.7424 5.16801 16.8406 5.00568 16.8406 4.82816V3.42187C16.8406 3.22012 16.7142 3.04101 16.5268 2.97717L15.2216 2.53284L12.0693 0.0950154C11.9896 0.0333749 11.8923 0 11.7923 0H9.03864C8.93859 0 8.84134 0.0333749 8.76162 0.0950154L5.60927 2.53279L4.30414 2.97712C4.11671 3.04092 3.99032 3.22007 3.99032 3.42182V4.82807C3.99032 5.00563 4.08853 5.16791 4.24402 5.24732L5.02508 5.64618L5.82607 7.28244V8.71873C5.82607 8.88865 5.91588 9.04217 6.05609 9.12462C5.90331 9.59586 5.82607 10.088 5.82607 10.5937C5.82607 11.8721 6.33393 13.0779 7.21399 13.9524L3.84708 15.3137C3.074 15.6262 2.41836 16.1626 1.95102 16.8649C1.48369 17.5671 1.23673 18.3871 1.23673 19.2361V23.5312C1.23673 23.7901 1.44225 24 1.69567 24H9.95596C9.95633 24 9.95665 24 9.95702 24C9.95734 24 9.95771 24 9.95803 24H10.873C10.8733 24 10.8737 24 10.874 24C10.8744 24 10.8747 24 10.8751 24H19.1354C19.3888 24 19.5943 23.7901 19.5943 23.5312V19.2365C19.5942 18.3873 19.3471 17.5673 18.8796 16.8649ZM15.0587 15.544L12.2512 20.2945V18.8751C12.2512 18.5724 12.1533 18.2726 11.9758 18.0314L11.1658 16.9281C11.5426 16.6769 11.7923 16.2428 11.7923 15.75V15.0657C12.1341 14.9563 12.4608 14.8068 12.7687 14.6183L15.0587 15.544ZM5.77761 5.08724C5.73318 4.99654 5.66117 4.92294 5.57232 4.87762L4.90815 4.53843V3.75974L5.97114 3.39782C6.01859 3.38165 6.06316 3.3577 6.10304 3.32685L9.19275 0.937498H11.6381L14.7278 3.32685C14.7677 3.3577 14.8122 3.38165 14.8597 3.39782L15.9227 3.75974V4.53843L15.2585 4.87762C15.1696 4.92299 15.0976 4.99654 15.0532 5.08724L14.2622 6.70311H6.56863L5.77761 5.08724ZM6.74395 7.64061H14.087V8.37926L12.8868 8.78244C12.0857 9.05122 11.2525 9.18748 10.4104 9.18748C9.98836 9.18748 9.5638 9.15275 9.14846 9.08426C8.73395 9.01592 8.31999 8.91256 7.91841 8.77719L7.03197 8.47756C6.99251 8.43055 6.94331 8.3907 6.88534 8.36178C6.83954 8.33895 6.79186 8.32498 6.74395 8.31852V7.64061ZM6.74395 10.5937C6.74395 10.1926 6.80494 9.80234 6.92481 9.42879L7.63038 9.66734C8.07831 9.81833 8.53982 9.93354 9.0022 10.0098C9.46572 10.0863 9.93953 10.125 10.4104 10.125C11.35 10.125 12.2796 9.97301 13.1734 9.67311L13.9059 9.42715C14.0261 9.80126 14.087 10.1922 14.087 10.5938C14.087 11.8379 13.4857 12.9964 12.4776 13.6967C12.4704 13.7013 12.4636 13.7062 12.4567 13.7111C12.0829 13.9675 11.6709 14.1492 11.2318 14.2509C10.7001 14.3742 10.131 14.3742 9.59914 14.2509C9.15755 14.1486 8.74285 13.9653 8.3662 13.7057C7.35039 13.0068 6.74395 11.8434 6.74395 10.5937ZM10.8744 15.2575V15.75C10.8744 16.0084 10.6685 16.2187 10.4155 16.2187C10.293 16.2187 10.1778 16.1699 10.0911 16.0813C10.0043 15.9927 9.95651 15.875 9.95651 15.75V15.2575C10.1087 15.273 10.2619 15.2812 10.4155 15.2812C10.569 15.2812 10.7222 15.273 10.8744 15.2575ZM8.06179 14.6178C8.37001 14.8066 8.69687 14.9562 9.03864 15.0657V15.75C9.03864 16.1254 9.18187 16.4785 9.44204 16.7443C9.51066 16.8143 9.58532 16.8758 9.66463 16.9288L8.85529 18.031C8.67759 18.2726 8.5797 18.5724 8.5797 18.8751V20.2947L5.77219 15.5436L8.06179 14.6178ZM2.15456 23.0625V19.2361C2.15456 17.8814 2.95151 16.684 4.18486 16.1853L4.90682 15.8935L8.60765 22.1563L9.14332 23.0625H2.15456ZM11.3333 21.8476L10.6154 23.0625H10.2155L9.49753 21.8479V18.8751C9.49753 18.7742 9.53002 18.6744 9.58932 18.5939L10.4154 17.4688L11.2417 18.5942C11.3008 18.6744 11.3333 18.7742 11.3333 18.8751V21.8476ZM11.6875 23.0625L15.9241 15.8938L16.6455 16.1854C17.8792 16.6841 18.6763 17.8817 18.6763 19.2365V23.0625H11.6875Z" fill="#1D83C4"/>
<path d="M11.7488 2.01562C10.7366 2.01562 9.91303 2.85675 9.91303 3.89062C9.91303 4.92449 10.7366 5.76562 11.7488 5.76562C12.761 5.76562 13.5845 4.92449 13.5845 3.89062C13.5845 2.85675 12.761 2.01562 11.7488 2.01562ZM11.7488 4.82812C11.2427 4.82812 10.8309 4.40756 10.8309 3.89062C10.8309 3.37368 11.2426 2.95312 11.7488 2.95312C12.2549 2.95312 12.6667 3.37368 12.6667 3.89062C12.6667 4.40756 12.2549 4.82812 11.7488 4.82812Z" fill="#1D83C4"/>
<path d="M18.6329 21.0469H17.715C17.4615 21.0469 17.256 21.2567 17.256 21.5156C17.256 21.7745 17.4615 21.9844 17.715 21.9844H18.6329C18.8863 21.9844 19.0918 21.7745 19.0918 21.5156C19.0918 21.2567 18.8863 21.0469 18.6329 21.0469Z" fill="#1D83C4"/>
</svg>
