<svg width="23" height="18" viewBox="0 0 23 18" fill="none" xmlns="http://www.w3.org/2000/svg">
<path d="M8.19596 13.7561C7.92123 13.7715 7.70757 14.0013 7.72283 14.2771C7.73809 14.5528 7.96702 14.7672 8.24177 14.7519H19.2003C19.475 14.7519 19.7039 14.5374 19.7039 14.2617C19.7039 13.9859 19.4902 13.7561 19.2156 13.7561H8.2418C8.21128 13.7561 8.19598 13.7561 8.19598 13.7561H8.19596ZM8.19596 10.7537C7.92123 10.769 7.70757 10.9988 7.72283 11.2746C7.73809 11.5503 7.96702 11.7648 8.24177 11.7495H19.2003C19.475 11.7495 19.7039 11.5349 19.7039 11.2592C19.7039 10.9835 19.4902 10.7537 19.2156 10.7537H8.2418C8.21128 10.7537 8.19598 10.7537 8.19598 10.7537H8.19596ZM8.73016 4.25859H18.6966V7.75129H8.73016V4.25859ZM1.00733 4.25859H4.48719V15.3799C4.48719 16.2684 3.76982 16.9884 2.88458 17.0037C2.8693 17.0037 2.85404 17.0037 2.83878 17.0037H2.74721C1.86197 17.0803 1.08362 16.4063 1.00731 15.5179C1.00731 15.4719 1.00731 15.4259 1.00731 15.3799V4.25859H1.00733ZM8.1807 3.24757C7.92125 3.27819 7.72285 3.49261 7.72285 3.753V8.2567C7.72285 8.53243 7.95176 8.76224 8.22649 8.76224H19.1851C19.4597 8.76224 19.6887 8.53241 19.6887 8.2567V3.753C19.6887 3.47726 19.4598 3.24757 19.1851 3.24757H8.22649C8.21119 3.24757 8.19598 3.24757 8.1807 3.24757ZM5.49452 0.995696H21.9323V15.3646C22.0086 16.1765 21.4286 16.8965 20.6197 16.9884C20.5281 17.0037 20.4365 17.0037 20.3449 16.9884H4.86874C5.26556 16.5442 5.49452 15.9621 5.49452 15.3646V0.995696ZM4.94503 2.25306e-05C4.68558 0.03065 4.48719 0.245065 4.48719 0.505455V3.24754H0.503642C0.228912 3.24754 0 3.47726 0 3.75298V15.3798C0.030538 16.8505 1.23626 18.03 2.71674 17.9994C2.732 17.9994 2.73198 17.9994 2.74726 17.9994H20.3297C21.7339 18.0147 22.8938 16.8811 22.9091 15.4564C22.9091 15.4258 22.9091 15.3952 22.9091 15.3798V0.505432C22.9091 0.229695 22.6802 0 22.4054 0H4.94506L4.94503 2.25306e-05Z" fill="#003A54"/>
</svg>
