<svg width="18" height="18" viewBox="0 0 18 18" fill="none" xmlns="http://www.w3.org/2000/svg">
<path fill-rule="evenodd" clip-rule="evenodd" d="M6.54541 11.8911C9.49761 11.8911 11.8911 9.49761 11.8911 6.54541C11.8911 3.59338 9.49761 1.20025 6.54541 1.20025C3.59338 1.20025 1.20025 3.59338 1.20025 6.54541C1.20025 9.49761 3.59338 11.8911 6.54541 11.8911ZM11.543 10.7717L17.8402 17.0689C18.0533 17.282 18.0533 17.6274 17.8402 17.8402C17.627 18.0533 17.282 18.0533 17.0689 17.8402L10.7717 11.543C9.63154 12.5087 8.15642 13.0908 6.54541 13.0908C2.93079 13.0908 0 10.1606 0 6.54541C0 2.93079 2.93079 0 6.54541 0C10.1606 0 13.0908 2.93079 13.0908 6.54541C13.0908 8.15678 12.5083 9.63118 11.543 10.7717Z" fill="#0075BF"/>
</svg>
