<svg width="115" height="115" viewBox="0 0 115 115" fill="none" xmlns="http://www.w3.org/2000/svg">
<g clip-path="url(#clip0)">
<path d="M111.035 104.095H3.96582V10.9052C3.96582 9.81024 4.8537 8.92236 5.94867 8.92236H109.052C110.147 8.92236 111.035 9.81024 111.035 10.9052V104.095Z" fill="#B9785F"/>
<path d="M111.034 40.4758C110.628 40.5769 110.21 40.6465 109.772 40.6465C106.886 40.6465 104.545 38.3061 104.545 35.4192C104.545 38.3059 102.205 40.6465 99.3177 40.6465C96.4308 40.6465 94.0904 38.3061 94.0904 35.4192C94.0904 38.3059 91.7502 40.6465 88.8631 40.6465C85.9762 40.6465 83.6357 38.3061 83.6357 35.4192C83.6357 38.3059 81.2953 40.6465 78.4084 40.6465C75.5215 40.6465 73.1811 38.3061 73.1811 35.4192C73.1811 38.3059 70.8406 40.6465 67.9537 40.6465C65.0668 40.6465 62.7264 38.3061 62.7264 35.4192C62.7264 38.3059 60.3862 40.6465 57.4991 40.6465C54.6119 40.6465 52.2717 38.3061 52.2717 35.4192C52.2717 38.3059 49.9313 40.6465 47.0444 40.6465C44.1575 40.6465 41.8171 38.3061 41.8171 35.4192C41.8171 38.3059 39.4769 40.6465 36.5897 40.6465C33.7028 40.6465 31.3624 38.3061 31.3624 35.4192C31.3624 38.3059 29.022 40.6465 26.1351 40.6465C23.2482 40.6465 20.9077 38.3061 20.9077 35.4192C20.9077 38.3059 18.5673 40.6465 15.6804 40.6465C12.7935 40.6465 10.4531 38.3061 10.4531 35.4192C10.4531 38.3059 8.11285 40.6465 5.22572 40.6465C4.78818 40.6465 4.37019 40.5769 3.96387 40.4758V44.4846C4.38029 44.5424 4.79357 44.6122 5.22572 44.6122C7.16612 44.6122 8.96794 44.008 10.4531 42.9777C11.9386 44.0078 13.7402 44.612 15.6808 44.612C17.6212 44.612 19.4231 44.0078 20.9082 42.9775C22.3933 44.0078 24.1951 44.612 26.1355 44.612C28.0759 44.612 29.8777 44.0078 31.3628 42.9775C32.848 44.0078 34.6498 44.612 36.5902 44.612C38.5306 44.612 40.3324 44.0078 41.8175 42.9775C43.3026 44.0078 45.1045 44.612 47.0448 44.612C48.9852 44.612 50.7871 44.0078 52.2722 42.9775C53.7571 44.0078 55.5589 44.612 57.4993 44.612C59.4397 44.612 61.2415 44.0078 62.7266 42.9775C64.2118 44.0078 66.0136 44.612 67.954 44.612C69.8944 44.612 71.6962 44.0078 73.1813 42.9775C74.6664 44.0078 76.4682 44.612 78.4086 44.612C80.349 44.612 82.1509 44.0078 83.636 42.9775C85.1211 44.0078 86.9229 44.612 88.8633 44.612C90.8037 44.612 92.6055 44.0078 94.0906 42.9775C95.5758 44.0078 97.3776 44.612 99.318 44.612C101.259 44.612 103.06 44.0078 104.545 42.9775C106.03 44.0078 107.832 44.612 109.773 44.612C110.205 44.612 110.618 44.5424 111.035 44.4844V40.4758H111.034Z" fill="#AA6455"/>
<path d="M69.3961 48.5776H13.8789V84.2674H69.3961V48.5776Z" fill="#B4E1FA"/>
<path d="M59.4824 82.2846H55.5167L31.7236 50.5603H35.6893L59.4824 82.2846Z" fill="#DAF0FD"/>
<path d="M47.0457 40.6467C44.1588 40.6467 41.8184 38.3063 41.8184 35.4194V30.7329H52.273V35.4194C52.273 38.3063 49.9326 40.6467 47.0457 40.6467Z" fill="#D2555A"/>
<path d="M67.9549 40.6467C65.068 40.6467 62.7275 38.3063 62.7275 35.4194V30.7329H73.1822V35.4194C73.182 38.3063 70.8418 40.6467 67.9549 40.6467Z" fill="#D2555A"/>
<path d="M26.1365 40.6467C23.2496 40.6467 20.9092 38.3063 20.9092 35.4194V30.7329H31.3638V35.4194C31.3636 38.3063 29.0234 40.6467 26.1365 40.6467Z" fill="#D2555A"/>
<path d="M5.22733 40.6467C2.34043 40.6467 0 38.3063 0 35.4194V30.7329H10.4547V35.4194C10.4547 38.3063 8.11424 40.6467 5.22733 40.6467Z" fill="#D2555A"/>
<path d="M88.864 40.6467C85.9771 40.6467 83.6367 38.3063 83.6367 35.4194V30.7329H94.0914V35.4194C94.0914 38.3063 91.7512 40.6467 88.864 40.6467Z" fill="#D2555A"/>
<path d="M36.5906 40.6467C33.7037 40.6467 31.3633 38.3063 31.3633 35.4194V30.7329H41.818V35.4194C41.818 38.3063 39.4777 40.6467 36.5906 40.6467Z" fill="#C7CFE2"/>
<path d="M78.409 40.6467C75.5221 40.6467 73.1816 38.3063 73.1816 35.4194V30.7329H83.6363V35.4194C83.6361 38.3063 81.2959 40.6467 78.409 40.6467Z" fill="#C7CFE2"/>
<path d="M109.773 40.6467C106.886 40.6467 104.546 38.3063 104.546 35.4194V30.7329H115.001V35.4194C115.001 38.3063 112.66 40.6467 109.773 40.6467Z" fill="#D2555A"/>
<path d="M99.3181 40.6467C96.4312 40.6467 94.0908 38.3063 94.0908 35.4194V30.7329H104.545V35.4194C104.545 38.3063 102.205 40.6467 99.3181 40.6467Z" fill="#C7CFE2"/>
<path d="M15.6814 40.6467C12.7945 40.6467 10.4541 38.3063 10.4541 35.4194V30.7329H20.9088V35.4194C20.9088 38.3063 18.5683 40.6467 15.6814 40.6467Z" fill="#C7CFE2"/>
<path d="M57.4998 40.6467C54.6129 40.6467 52.2725 38.3063 52.2725 35.4194V30.7329H62.7271V35.4194C62.7271 38.3063 60.3867 40.6467 57.4998 40.6467Z" fill="#C7CFE2"/>
<path d="M52.2728 30.7327H41.8184L42.8999 14.8706H52.6335L52.2728 30.7327Z" fill="#FF6464"/>
<path d="M73.1814 30.7327H62.7269L62.3662 14.8706H72.0999L73.1814 30.7327Z" fill="#FF6464"/>
<path d="M31.3636 30.7327H20.9092L23.4327 14.8706H33.1661L31.3636 30.7327Z" fill="#FF6464"/>
<path d="M10.4547 30.7327H0L3.96548 14.8706H13.6992L10.4547 30.7327Z" fill="#FF6464"/>
<path d="M94.0909 30.7327H83.6363L81.834 14.8706H91.5672L94.0909 30.7327Z" fill="#FF6464"/>
<path d="M41.8179 30.7327H31.3633L33.1658 14.8706H42.8994L41.8179 30.7327Z" fill="#EFF2FA"/>
<path d="M83.6355 30.7327H73.1811L72.0996 14.8706H81.8333L83.6355 30.7327Z" fill="#EFF2FA"/>
<path d="M115 30.7327H104.545L101.301 14.8706H111.034L115 30.7327Z" fill="#FF6464"/>
<path d="M104.545 30.7327H94.0901L91.5664 14.8706H101.3L104.545 30.7327Z" fill="#EFF2FA"/>
<path d="M20.9085 30.7327H10.4541L13.6986 14.8706H23.432L20.9085 30.7327Z" fill="#EFF2FA"/>
<path d="M62.7271 30.7327H52.2725L52.6332 14.8706H62.3664L62.7271 30.7327Z" fill="#EFF2FA"/>
<path d="M113.017 106.078H1.98285C0.887881 106.078 0 105.19 0 104.095C0 103 0.887881 102.112 1.98285 102.112H113.017C114.112 102.112 115 103 115 104.095C115 105.19 114.112 106.078 113.017 106.078Z" fill="#C7CFE2"/>
<g opacity="0.97">
<path opacity="0.97" d="M111.035 98.1467H3.96582V102.112H111.035V98.1467Z" fill="#AFB9D2"/>
</g>
<path d="M111.035 90.2153H3.96582V98.1463H111.035V90.2153Z" fill="#AA6455"/>
<path d="M67.4139 50.5602V82.2843H15.8622V50.5602H67.4139ZM69.3967 46.5947H13.8793C12.7844 46.5947 11.8965 47.4826 11.8965 48.5776V84.2673C11.8965 85.3623 12.7844 86.2502 13.8793 86.2502H69.3965C70.4915 86.2502 71.3793 85.3623 71.3793 84.2673V48.5776C71.3793 47.4826 70.4917 46.5947 69.3967 46.5947Z" fill="#5B5D6E"/>
<path d="M101.121 46.5947H81.2934C80.1984 46.5947 79.3105 47.4826 79.3105 48.5776V98.1466H103.104V48.5776C103.104 47.4826 102.216 46.5947 101.121 46.5947Z" fill="#5B5D6E"/>
<path d="M99.1385 50.5603H83.2764V82.2844H99.1385V50.5603Z" fill="#B4E1FA"/>
<path d="M67.414 50.5603H15.8623V54.5258H67.414V50.5603Z" fill="#A0D2F0"/>
<path d="M99.1385 50.5603H83.2764V54.5258H99.1385V50.5603Z" fill="#A0D2F0"/>
<path d="M51.5512 82.2846H43.6202L19.8271 50.5603H27.7581L51.5512 82.2846Z" fill="#A0D2F0"/>
<path d="M38.6634 54.526L35.6893 50.5603H31.7236L34.6979 54.526H38.6634Z" fill="#B4E1FA"/>
<path d="M99.1383 66.4224L87.2418 50.5603H83.2764L99.1383 71.71V66.4224Z" fill="#DAF0FD"/>
<path d="M90.2159 54.526L87.2418 50.5603H83.2764L86.2504 54.526H90.2159Z" fill="#B4E1FA"/>
<path d="M99.1385 50.5603H83.2764V54.5258H99.1385V50.5603Z" fill="#A0D2F0"/>
<path d="M99.1383 66.4224L87.2418 50.5603H83.2764L99.1383 71.71V66.4224Z" fill="#DAF0FD"/>
<path d="M83.2764 55.8477V66.4223L95.1728 82.2844H99.1383V76.9969L83.2764 55.8477Z" fill="#A0D2F0"/>
</g>
<defs>
<clipPath id="clip0">
<rect width="115" height="115" fill="white"/>
</clipPath>
</defs>
</svg>
