<svg width="35" height="35" viewBox="0 0 32 32" fill="none" xmlns="http://www.w3.org/2000/svg">
<path fill-rule="evenodd" clip-rule="evenodd" d="M7.26659 13.3279L8.90469 16.482L7.22463 16.9848L6.63649 14.1508L7.26659 13.3279ZM12.2021 16.9848L10.522 16.482L12.1601 13.3279L12.7902 14.1508L12.2021 16.9848ZM8.82076 20.0246H10.5847L11.3829 22.859H8.02281L8.82076 20.0246ZM8.48484 13.1676C9.29853 13.3864 10.1494 13.3864 10.9629 13.1676L9.72385 15.4536L8.48484 13.1676ZM8.82076 18.7219L8.5056 17.716L9.72385 17.3275L10.9841 17.716L10.6689 18.7219H8.82076ZM18.3554 19.8876V22.7448H12.496L11.593 19.362L12.0128 18.036L12.4539 18.1732H12.6219C12.6788 18.1788 12.7362 18.1711 12.7902 18.1514C12.8444 18.1317 12.8945 18.1005 12.9371 18.0588C13.0518 17.9812 13.1344 17.8586 13.1679 17.716L13.8402 14.4936C15.0787 14.6133 16.2312 15.2332 17.0709 16.2314C17.9102 17.2298 18.3761 18.534 18.3766 19.8876H18.3554ZM5.31334 6.83636L6.7838 5.62508C7.63093 6.34964 8.67761 6.74372 9.75554 6.74372C10.833 6.74372 11.8799 6.34964 12.7271 5.62508L14.1973 6.85916V7.29356C14.1973 8.57588 13.7291 9.8054 12.8962 10.7121C12.0629 11.6186 10.9336 12.1276 9.75554 12.1276C8.57707 12.1276 7.44778 11.6186 6.61442 10.7121C5.78149 9.8054 5.31334 8.57588 5.31334 7.29356V6.83636ZM13.1266 2.4698C13.8122 3.21572 14.1973 4.22756 14.1973 5.28236C11.363 2.84036 13.3681 5.4566 9.82897 5.4566C6.33772 5.4566 8.34912 2.78948 5.2716 5.35076C5.2716 4.82828 5.36623 4.31132 5.54982 3.82892C5.73319 3.34628 6.00267 2.9078 6.34187 2.53844C6.68086 2.16908 7.08388 1.87628 7.52712 1.67612C9.15385 0.9446 11.8937 1.12748 13.1266 2.4698ZM5.60752 14.562L6.30057 17.8989C6.35324 18.018 6.43258 18.1197 6.5318 18.1958C6.62687 18.2311 6.73003 18.2311 6.82554 18.1958L7.43489 18.036L7.85474 19.362L6.95165 22.7448H1.09188V19.8876C1.09232 18.534 1.55829 17.2298 2.39799 16.2314C3.23725 15.2332 4.39015 14.6133 5.62872 14.4936L5.60752 14.562ZM12.8532 12.2762C13.5834 11.7153 14.1794 10.9725 14.5925 10.11C15.0053 9.24668 15.2226 8.28908 15.2261 7.3166V5.30492C15.2261 3.93884 14.7291 2.62868 13.8435 1.66052C12.9579 0.6926 11.756 0.1454 10.5008 0.13916H8.92589C7.67071 0.1454 6.46886 0.6926 5.58326 1.66052C4.69766 2.62868 4.20066 3.93884 4.20066 5.30492V7.3166C4.20416 8.28908 4.4214 9.24668 4.83426 10.11C5.24733 10.9725 5.84334 11.7153 6.57355 12.2762L5.77559 13.3048C4.21377 13.3759 2.7385 14.1045 1.66101 15.3372C0.583518 16.5691 -0.0120543 18.209 0.000184972 19.9101V23.5444C0.00521181 23.7002 0.0644415 23.8483 0.165853 23.9587C0.266827 24.0686 0.403207 24.1329 0.546363 24.1392H18.8804C19.0235 24.1329 19.1594 24.0686 19.2609 23.9587C19.3623 23.8483 19.4215 23.7002 19.4265 23.5444V20.1158C19.4388 18.4149 18.8432 16.7752 17.7657 15.5426C16.6882 14.31 15.2129 13.5813 13.6511 13.5103L12.8532 12.2762Z" fill="#1D83C4"/>
</svg>
