<svg width="21" height="21" viewBox="0 0 21 21" fill="none" xmlns="http://www.w3.org/2000/svg">
<path d="M10.4999 20.9998C8.4232 20.9998 6.39314 20.384 4.66644 19.2303C2.93975 18.0765 1.59397 16.4366 0.79926 14.518C0.00454931 12.5994 -0.203383 10.4883 0.201757 8.45149C0.606897 6.41471 1.60691 4.54378 3.07535 3.07535C4.54378 1.60691 6.41466 0.606897 8.45144 0.201757C10.4882 -0.203383 12.5994 0.00454931 14.518 0.79926C16.4366 1.59397 18.0765 2.9398 19.2302 4.6665C20.384 6.39319 20.9997 8.4232 20.9997 10.4999C21.0087 11.8812 20.7432 13.2507 20.2187 14.5286C19.6942 15.8066 18.9212 16.9676 17.9444 17.9444C16.9676 18.9212 15.8065 19.6943 14.5286 20.2188C13.2506 20.7433 11.8812 21.0087 10.4999 20.9998ZM5.08979 14.1066C6.03955 14.7142 7.13526 15.0551 8.26206 15.0938C9.38886 15.1324 10.5053 14.8673 11.4945 14.3262C12.4836 13.7851 13.3089 12.9879 13.8842 12.0182C14.4594 11.0485 14.7632 9.94197 14.7639 8.81451C14.7639 8.71339 14.7639 8.62915 14.7639 8.52802C15.1991 8.2143 15.5756 7.82636 15.8762 7.38198C15.4734 7.55806 15.0479 7.67717 14.6122 7.7359C15.0768 7.45835 15.4244 7.02091 15.5897 6.50555C15.1571 6.76286 14.6842 6.94522 14.1909 7.04489C13.9739 6.81816 13.7118 6.6395 13.4215 6.52047C13.1312 6.40144 12.8191 6.34468 12.5055 6.35388C11.9229 6.35832 11.3656 6.5929 10.9552 7.00646C10.5448 7.42003 10.3144 7.97906 10.3145 8.56171C10.2946 8.72967 10.2946 8.8994 10.3145 9.06736C9.43648 9.02303 8.57766 8.79455 7.79371 8.39676C7.00975 7.99898 6.31821 7.44079 5.76398 6.7584C5.56359 7.08852 5.45854 7.4677 5.46058 7.85388C5.45996 8.21685 5.54884 8.57437 5.71934 8.8948C5.88984 9.21522 6.13674 9.48867 6.43812 9.69094C6.08833 9.67752 5.74706 9.57916 5.44376 9.4044C5.44529 9.91275 5.62216 10.405 5.94457 10.798C6.26698 11.1911 6.71515 11.4608 7.21338 11.5617C7.02317 11.5864 6.83057 11.5864 6.64036 11.5617H6.21902C6.35393 11.9996 6.62377 12.3837 6.99001 12.6592C7.35624 12.9346 7.80013 13.0873 8.25831 13.0954C7.47653 13.7132 6.50753 14.0461 5.51114 14.0392H4.98868" fill="white"/>
</svg>
