<svg width="568" height="551" viewBox="0 0 568 551" fill="none" xmlns="http://www.w3.org/2000/svg">
<path d="M568 421.405H17V421.625H568V421.405Z" fill="#D1E3FF"/>
<path d="M137.559 434.629H73.8633V434.849H137.559V434.629Z" fill="#D1E3FF"/>
<path d="M276.631 428.678H247.649V428.898H276.631V428.678Z" fill="#D1E3FF"/>
<path d="M343.853 428.458H287.321V428.678H343.853V428.458Z" fill="#D1E3FF"/>
<path d="M451.408 431.764H437.633V431.984H451.408V431.764Z" fill="#D1E3FF"/>
<path d="M390.027 431.764H335.147V431.984H390.027V431.764Z" fill="#D1E3FF"/>
<path d="M159.158 434.629H148.248V434.849H159.158V434.629Z" fill="#D1E3FF"/>
<path d="M508.051 431.764H460.334V431.984H508.051V431.764Z" fill="#D1E3FF"/>
<path d="M278.174 372.256H65.3776C61.9614 372.256 59.0962 369.39 59.0962 365.974V66.8914C59.0962 63.4752 61.9614 60.61 65.3776 60.61H278.174C281.59 60.61 284.455 63.4752 284.455 66.8914V365.974C284.455 369.39 281.7 372.256 278.174 372.256ZM65.3776 60.8304C62.0716 60.8304 59.3166 63.4752 59.3166 66.8914V365.974C59.3166 369.28 61.9614 372.035 65.3776 372.035H278.174C281.48 372.035 284.235 369.39 284.235 365.974V66.8914C284.235 63.5854 281.59 60.8304 278.174 60.8304H65.3776Z" fill="#D1E3FF"/>
<path d="M516.537 372.256H303.74C300.324 372.256 297.459 369.39 297.459 365.974V66.8914C297.459 63.4752 300.324 60.61 303.74 60.61H516.537C519.953 60.61 522.818 63.4752 522.818 66.8914V365.974C522.818 369.39 520.063 372.256 516.537 372.256ZM303.74 60.8304C300.434 60.8304 297.679 63.4752 297.679 66.8914V365.974C297.679 369.28 300.324 372.035 303.74 372.035H516.537C519.843 372.035 522.598 369.39 522.598 365.974V66.8914C522.598 63.5854 519.953 60.8304 516.537 60.8304H303.74Z" fill="#D1E3FF"/>
<path d="M101.413 150.754C96.5642 140.395 100.421 133.011 112.213 133.011C119.596 133.011 128.743 135.877 137.559 140.615C138.55 137.86 141.416 136.317 145.934 136.317C153.978 136.317 164.998 141.276 173.704 148.329C175.798 146.786 178.884 145.795 182.741 145.684C190.455 145.354 199.711 148.219 207.756 152.958C208.417 152.186 209.629 151.635 211.282 151.635C215.69 151.415 221.641 154.39 224.617 158.137C224.837 158.357 224.947 158.578 225.168 158.798H216.021H208.748H183.402H170.949H161.252H146.264H143.509H106.372H99.0988C98.7682 155.492 99.5396 152.737 101.413 150.754Z" fill="#F3F8FF"/>
<path d="M244.342 101.384C244.673 101.384 245.114 101.274 245.554 101.274C245.224 97.1964 247.318 94.6618 251.726 94.6618C254.921 94.6618 258.889 95.9842 262.966 98.2984C261.754 90.4742 265.501 85.2948 273.876 85.2948C280.598 85.2948 289.194 88.6008 297.679 94.0006C298.451 90.915 300.875 89.0416 305.063 89.0416C312.446 89.0416 322.915 94.772 331.29 102.817C333.053 101.053 335.808 99.9514 339.445 99.731C346.498 99.4004 355.204 102.706 362.918 107.996C363.469 107.114 364.571 106.563 366.113 106.453C369.97 106.233 375.26 109.208 378.346 113.175H369.419H363.358H339.996H329.086H319.389H305.614H279.496H269.358H265.721H251.285H238.281C234.865 107.335 237.51 102.045 244.342 101.384Z" fill="#F3F8FF"/>
<path d="M432.454 84.1928C429.368 77.5808 431.793 72.8422 439.397 72.8422C444.135 72.8422 449.976 74.7156 455.706 77.8012C456.367 76.038 458.131 75.0462 461.106 75.0462C466.285 75.0462 473.338 78.242 478.848 82.7602C480.171 81.7684 482.154 81.1072 484.689 80.997C489.648 80.7766 495.599 82.65 500.778 85.6254C501.219 85.0744 501.99 84.854 503.092 84.7438C505.957 84.6336 509.814 86.507 511.688 88.9314C511.798 89.0416 511.908 89.262 512.018 89.3722H506.178H501.439H485.13H477.085H470.804H461.106H459.343H435.54H428.487C425.952 86.9478 428.928 84.303 432.454 84.1928Z" fill="#F3F8FF"/>
<path d="M152.766 301.397H115.188V421.405H152.766V301.397Z" fill="#E3EEFF"/>
<path d="M140.427 421.433H202.029L202.029 259.659H140.427L140.427 421.433Z" fill="#F3F8FF"/>
<path d="M233.984 259.631H202.026V421.405H233.984V259.631Z" fill="#E3EEFF"/>
<path d="M148.82 259.705H202.046V243.615H148.82V259.705Z" fill="#F3F8FF"/>
<path d="M148.82 259.608H202.046V255.971H148.82V259.608Z" fill="#E3EEFF"/>
<path d="M225.719 243.542H202.026V259.631H225.719V243.542Z" fill="#E3EEFF"/>
<path d="M157.102 243.532H202.063V227.443H157.102V243.532Z" fill="#F3F8FF"/>
<path d="M157.102 243.546H202.063V239.909H157.102V243.546Z" fill="#E3EEFF"/>
<path d="M217.454 227.563H202.026V243.652H217.454V227.563Z" fill="#E3EEFF"/>
<path d="M188.691 205.082H185.716V227.563H188.691V205.082Z" fill="#E3EEFF"/>
<path d="M223.749 421.456H268.71V287.783H223.749V421.456Z" fill="#F3F8FF"/>
<path d="M292.059 287.732H268.697V421.405H292.059V287.732Z" fill="#E3EEFF"/>
<path d="M280.378 325.972L314.54 355.175V421.405H280.378V325.972Z" fill="#F3F8FF"/>
<path d="M332.282 355.175H314.54V421.405H332.282V355.175Z" fill="#E3EEFF"/>
<path d="M332.172 355.175H314.54L280.378 325.972H298.12L332.172 355.175Z" fill="#E3EEFF"/>
<path d="M491.962 421.405C491.962 421.405 492.733 413.47 501.549 409.393C497.913 415.123 498.684 421.405 498.684 421.405H491.962Z" fill="#E3EEFF"/>
<path d="M174.035 421.405C174.035 421.405 173.264 413.47 164.448 409.393C168.084 415.123 167.313 421.405 167.313 421.405H174.035Z" fill="#E3EEFF"/>
<path d="M95.352 421.405C95.352 421.405 94.801 407.299 88.9604 403.222C91.3848 408.952 90.8338 421.405 90.8338 421.405H95.352Z" fill="#E3EEFF"/>
<path d="M93.1479 421.405C93.1479 421.405 93.699 413.36 99.5396 410.936C97.1152 414.242 97.6661 421.405 97.6661 421.405H93.1479Z" fill="#E3EEFF"/>
<path d="M179.104 421.405C179.104 421.405 178.553 408.07 167.864 403.222C172.602 410.054 172.382 421.405 172.382 421.405H179.104Z" fill="#E3EEFF"/>
<path d="M442.703 403.332H415.704C415.042 403.332 414.602 402.891 414.602 402.23V375.231C414.602 374.57 415.042 374.129 415.704 374.129H442.703C443.364 374.129 443.805 374.57 443.805 375.231V402.23C443.805 402.891 443.254 403.332 442.703 403.332ZM416.806 401.128H441.601V376.333H416.806V401.128Z" fill="#D1E3FF"/>
<path d="M442.703 376.333H415.704C415.042 376.333 414.602 375.892 414.602 375.231V348.232C414.602 347.571 415.042 347.13 415.704 347.13H442.703C443.364 347.13 443.805 347.571 443.805 348.232V375.231C443.805 375.892 443.254 376.333 442.703 376.333ZM416.806 374.129H441.601V349.334H416.806V374.129Z" fill="#D1E3FF"/>
<path d="M442.703 403.332C442.372 403.332 442.152 403.222 441.931 403.001L414.932 376.002C414.491 375.562 414.491 374.9 414.932 374.46C415.373 374.019 416.034 374.019 416.475 374.46L443.474 401.458C443.915 401.899 443.915 402.561 443.474 403.001C443.254 403.222 443.033 403.332 442.703 403.332Z" fill="#D1E3FF"/>
<path d="M442.703 376.333C442.372 376.333 442.152 376.223 441.931 376.002L414.932 349.003C414.491 348.563 414.491 347.901 414.932 347.46C415.373 347.02 416.034 347.02 416.475 347.46L443.474 374.46C443.915 374.9 443.915 375.562 443.474 376.002C443.254 376.223 443.033 376.333 442.703 376.333Z" fill="#D1E3FF"/>
<path d="M442.703 349.334H415.704C415.042 349.334 414.602 348.893 414.602 348.232V321.233C414.602 320.572 415.042 320.131 415.704 320.131H442.703C443.364 320.131 443.805 320.572 443.805 321.233V348.232C443.805 348.893 443.254 349.334 442.703 349.334ZM416.806 347.13H441.601V322.335H416.806V347.13Z" fill="#D1E3FF"/>
<path d="M442.703 322.335H415.704C415.042 322.335 414.602 321.894 414.602 321.233V294.234C414.602 293.573 415.042 293.132 415.704 293.132H442.703C443.364 293.132 443.805 293.573 443.805 294.234V321.233C443.805 321.784 443.254 322.335 442.703 322.335ZM416.806 320.131H441.601V295.336H416.806V320.131Z" fill="#D1E3FF"/>
<path d="M442.703 349.334C442.372 349.334 442.152 349.224 441.931 349.003L414.932 322.004C414.491 321.564 414.491 320.902 414.932 320.462C415.373 320.021 416.034 320.021 416.475 320.462L443.474 347.461C443.915 347.901 443.915 348.563 443.474 349.003C443.254 349.224 443.033 349.334 442.703 349.334Z" fill="#D1E3FF"/>
<path d="M442.703 322.335C442.372 322.335 442.152 322.225 441.931 322.004L414.932 295.005C414.491 294.565 414.491 293.903 414.932 293.463C415.373 293.022 416.034 293.022 416.475 293.463L443.474 320.462C443.915 320.902 443.915 321.564 443.474 322.004C443.254 322.225 443.033 322.335 442.703 322.335Z" fill="#D1E3FF"/>
<path d="M442.703 295.336H415.704C415.042 295.336 414.602 294.895 414.602 294.234V267.235C414.602 266.574 415.042 266.133 415.704 266.133H442.703C443.364 266.133 443.805 266.574 443.805 267.235V294.234C443.805 294.785 443.254 295.336 442.703 295.336ZM416.806 293.132H441.601V268.337H416.806V293.132Z" fill="#D1E3FF"/>
<path d="M442.703 268.337H415.704C415.042 268.337 414.602 267.896 414.602 267.235V240.236C414.602 239.575 415.042 239.134 415.704 239.134H442.703C443.364 239.134 443.805 239.575 443.805 240.236V267.235C443.805 267.786 443.254 268.337 442.703 268.337ZM416.806 266.133H441.601V241.338H416.806V266.133Z" fill="#D1E3FF"/>
<path d="M442.703 295.336C442.372 295.336 442.152 295.226 441.931 295.005L414.932 268.006C414.491 267.566 414.491 266.904 414.932 266.464C415.373 266.023 416.034 266.023 416.475 266.464L443.474 293.463C443.915 293.903 443.915 294.565 443.474 295.005C443.254 295.226 443.033 295.336 442.703 295.336Z" fill="#D1E3FF"/>
<path d="M415.703 178.083H388.705C388.043 178.083 387.603 177.642 387.603 176.981V149.872C387.603 149.211 388.043 148.77 388.705 148.77H415.703C416.365 148.77 416.805 149.211 416.805 149.872V176.871C416.805 177.532 416.254 178.083 415.703 178.083ZM389.807 175.879H414.601V150.974H389.807V175.879Z" fill="#D1E3FF"/>
<path d="M442.703 178.083H415.704C415.042 178.083 414.602 177.642 414.602 176.981C414.602 176.32 415.042 175.879 415.704 175.879H441.601V122.983C441.601 122.322 442.041 121.881 442.703 121.881C443.364 121.881 443.805 122.322 443.805 122.983V176.981C443.805 177.532 443.254 178.083 442.703 178.083Z" fill="#D1E3FF"/>
<path d="M415.703 178.083C415.483 178.083 415.373 178.083 415.263 177.973C414.712 177.753 414.491 177.091 414.822 176.54L441.821 122.542C442.041 121.991 442.702 121.771 443.253 122.102C443.804 122.322 444.025 122.983 443.694 123.534L416.695 177.532C416.475 177.863 416.034 178.083 415.703 178.083Z" fill="#D1E3FF"/>
<path d="M388.705 178.083H361.706C361.044 178.083 360.604 177.642 360.604 176.981V149.872C360.604 149.211 361.044 148.77 361.706 148.77H388.705C389.366 148.77 389.807 149.211 389.807 149.872V176.871C389.807 177.532 389.256 178.083 388.705 178.083ZM362.697 175.879H387.492V150.974H362.697V175.879Z" fill="#D1E3FF"/>
<path d="M388.705 178.083C388.374 178.083 388.154 177.973 387.933 177.753C387.492 177.312 387.492 176.651 387.933 176.21L414.932 149.211C415.373 148.77 416.034 148.77 416.475 149.211C416.916 149.652 416.916 150.313 416.475 150.754L389.476 177.753C389.256 177.973 388.925 178.083 388.705 178.083Z" fill="#D1E3FF"/>
<path d="M469.702 178.083H442.703C442.041 178.083 441.601 177.642 441.601 176.981V149.872C441.601 149.211 442.041 148.77 442.703 148.77H469.702C470.363 148.77 470.804 149.211 470.804 149.872V176.871C470.804 177.532 470.363 178.083 469.702 178.083ZM443.805 175.879H468.6V150.974H443.805V175.879Z" fill="#D1E3FF"/>
<path d="M442.703 178.083C442.372 178.083 442.152 177.973 441.931 177.753C441.49 177.312 441.49 176.651 441.931 176.21L468.93 149.211C469.371 148.77 470.032 148.77 470.473 149.211C470.914 149.652 470.914 150.313 470.473 150.754L443.474 177.753C443.254 177.973 443.033 178.083 442.703 178.083Z" fill="#D1E3FF"/>
<path d="M280.598 178.083C280.268 178.083 280.047 177.973 279.827 177.753C279.386 177.312 279.386 176.651 279.827 176.21L306.826 149.211C306.936 149.101 307.157 148.99 307.377 148.88L442.482 121.881C442.813 121.771 443.254 121.881 443.474 122.212L497.472 176.21C497.913 176.651 497.913 177.312 497.472 177.753C497.031 178.193 496.37 178.193 495.929 177.753L442.372 124.085L308.148 150.974L281.37 177.753C281.149 177.973 280.929 178.083 280.598 178.083Z" fill="#D1E3FF"/>
<path d="M361.595 178.083C361.265 178.083 361.044 177.973 360.824 177.753C360.383 177.312 360.383 176.651 360.824 176.21L387.823 149.211C388.264 148.77 388.925 148.77 389.366 149.211C389.806 149.652 389.806 150.313 389.366 150.754L362.367 177.753C362.256 177.973 361.926 178.083 361.595 178.083Z" fill="#D1E3FF"/>
<path d="M361.595 178.083H334.596C333.935 178.083 333.494 177.642 333.494 176.981V149.872C333.494 149.211 333.935 148.77 334.596 148.77H361.595C362.257 148.77 362.697 149.211 362.697 149.872V176.871C362.697 177.532 362.257 178.083 361.595 178.083ZM335.698 175.879H360.493V150.974H335.698V175.879Z" fill="#D1E3FF"/>
<path d="M334.596 178.083H307.597C306.936 178.083 306.495 177.642 306.495 176.981V149.872C306.495 149.211 306.936 148.77 307.597 148.77H334.596C335.258 148.77 335.698 149.211 335.698 149.872V176.871C335.698 177.532 335.258 178.083 334.596 178.083ZM308.699 175.879H333.494V150.974H308.699V175.879Z" fill="#D1E3FF"/>
<path d="M334.596 178.083C334.266 178.083 334.045 177.973 333.825 177.753C333.384 177.312 333.384 176.651 333.825 176.21L360.824 149.211C361.265 148.77 361.926 148.77 362.367 149.211C362.808 149.652 362.808 150.313 362.367 150.754L335.368 177.753C335.147 177.973 334.927 178.083 334.596 178.083Z" fill="#D1E3FF"/>
<path d="M307.597 178.083C307.267 178.083 307.046 177.973 306.826 177.753C306.385 177.312 306.385 176.651 306.826 176.21L333.825 149.211C334.266 148.77 334.927 148.77 335.368 149.211C335.809 149.652 335.809 150.313 335.368 150.754L308.369 177.753C308.148 177.973 307.928 178.083 307.597 178.083Z" fill="#D1E3FF"/>
<path d="M307.597 178.083H280.598C279.937 178.083 279.496 177.642 279.496 176.981C279.496 176.32 279.937 175.879 280.598 175.879H306.495V149.872C306.495 149.211 306.936 148.77 307.597 148.77C308.259 148.77 308.699 149.211 308.699 149.872V176.871C308.699 177.532 308.259 178.083 307.597 178.083Z" fill="#D1E3FF"/>
<path d="M442.703 268.337C442.372 268.337 442.152 268.227 441.931 268.006L414.932 241.007C414.491 240.567 414.491 239.905 414.932 239.465C415.373 239.024 416.034 239.024 416.475 239.465L443.474 266.464C443.915 266.904 443.915 267.566 443.474 268.006C443.254 268.227 443.033 268.337 442.703 268.337Z" fill="#D1E3FF"/>
<path d="M442.703 241.228H415.704C415.042 241.228 414.602 240.787 414.602 240.126V213.127C414.602 212.466 415.042 212.025 415.704 212.025H442.703C443.364 212.025 443.805 212.466 443.805 213.127V240.126C443.805 240.787 443.254 241.228 442.703 241.228ZM416.806 239.024H441.601V214.229H416.806V239.024Z" fill="#D1E3FF"/>
<path d="M442.703 214.229H415.704C415.042 214.229 414.602 213.788 414.602 213.127V186.128C414.602 185.467 415.042 185.026 415.704 185.026H442.703C443.364 185.026 443.805 185.467 443.805 186.128V213.127C443.805 213.788 443.254 214.229 442.703 214.229ZM416.806 212.025H441.601V187.23H416.806V212.025Z" fill="#D1E3FF"/>
<path d="M442.703 241.228C442.372 241.228 442.152 241.118 441.931 240.897L414.932 213.898C414.491 213.457 414.491 212.796 414.932 212.355C415.373 211.915 416.034 211.915 416.475 212.355L443.474 239.354C443.915 239.795 443.915 240.456 443.474 240.897C443.254 241.118 443.033 241.228 442.703 241.228Z" fill="#D1E3FF"/>
<path d="M442.703 214.229C442.372 214.229 442.152 214.119 441.931 213.898L414.932 186.899C414.491 186.458 414.491 185.797 414.932 185.356C415.373 184.916 416.034 184.916 416.475 185.356L443.474 212.355C443.915 212.796 443.915 213.457 443.474 213.898C443.254 214.119 443.033 214.229 442.703 214.229Z" fill="#D1E3FF"/>
<path d="M496.701 176.981H280.598L307.597 186.128H496.701V176.981Z" fill="#D1E3FF"/>
<path d="M496.701 187.23H307.597C307.487 187.23 307.377 187.23 307.267 187.12L280.268 177.863C279.717 177.642 279.496 177.202 279.496 176.651C279.607 176.1 280.047 175.769 280.598 175.769H496.701C497.362 175.769 497.803 176.21 497.803 176.871V186.128C497.803 186.789 497.362 187.23 496.701 187.23ZM307.818 185.026H495.599V177.973H287.21L307.818 185.026Z" fill="#D1E3FF"/>
<path d="M395.655 224.073H415.711V181.536H395.655V224.073Z" fill="#D1E3FF"/>
<path d="M395.647 181.499H386.39V224.037H395.647V181.499Z" fill="#F3F8FF"/>
<path d="M418.682 421.442H458.023V402.268H418.682V421.442Z" fill="#D1E3FF"/>
<path d="M418.679 402.23H400.386V421.405H418.679V402.23Z" fill="#F3F8FF"/>
<path d="M469.702 224.367C469.04 224.367 468.6 223.926 468.6 223.265V181.499C468.6 180.838 469.04 180.397 469.702 180.397C470.363 180.397 470.804 180.838 470.804 181.499V223.265C470.804 223.926 470.363 224.367 469.702 224.367Z" fill="#D1E3FF"/>
<path d="M469.702 229.436C467.718 229.436 466.065 227.783 466.065 225.8C466.065 223.816 467.718 222.163 469.702 222.163C471.685 222.163 473.338 223.816 473.338 225.8C473.338 227.894 471.685 229.436 469.702 229.436ZM469.702 224.367C468.93 224.367 468.269 225.028 468.269 225.8C468.269 226.571 468.93 227.232 469.702 227.232C470.473 227.232 471.134 226.571 471.134 225.8C471.134 225.028 470.473 224.367 469.702 224.367Z" fill="#D1E3FF"/>
<path d="M311.014 246.297C310.352 246.297 309.912 245.856 309.912 245.195V181.499C309.912 180.838 310.352 180.397 311.014 180.397C311.675 180.397 312.116 180.838 312.116 181.499V245.195C312.116 245.856 311.565 246.297 311.014 246.297Z" fill="#D1E3FF"/>
<path d="M321.372 252.909C320.821 252.909 320.381 252.468 320.27 252.027C319.499 250.705 312.336 246.517 311.014 246.297C309.801 246.517 302.638 250.705 301.757 252.027C301.647 252.578 301.206 252.909 300.655 252.909C299.994 252.909 299.553 252.468 299.553 251.807C299.553 249.383 309.581 244.093 311.014 244.093C312.446 244.093 322.474 249.272 322.474 251.807C322.474 252.468 321.923 252.909 321.372 252.909Z" fill="#D1E3FF"/>
<path d="M292.5 471.105C410.511 471.105 506.178 465.53 506.178 458.652C506.178 451.775 410.511 446.2 292.5 446.2C174.489 446.2 78.8223 451.775 78.8223 458.652C78.8223 465.53 174.489 471.105 292.5 471.105Z" fill="#F0F6FF"/>
<path d="M268 165.431C268 168.745 265.314 171.431 262 171.431H217.029C211.724 171.431 209.029 165.054 212.725 161.25L229.168 144.328C202.928 118.378 160.444 117.417 134.204 143.367C107.964 169.413 107.964 211.413 134.204 237.459C160.444 263.506 202.928 263.506 229.168 237.459C240.837 225.964 247.297 212.707 248.55 196.458C248.805 193.154 251.463 190.461 254.776 190.461H262C265.314 190.461 268.02 193.149 267.736 196.451C266.185 214.45 257.815 235.899 242.625 250.915C208.888 284.362 154.101 284.362 120.363 250.915C86.7222 217.564 86.4338 163.358 120.171 130.007C153.908 96.6567 208.023 96.6567 241.76 130.007L257.697 113.605C261.451 109.741 268 112.398 268 117.786V165.431ZM180.3 151.056C183.614 151.056 186.3 153.742 186.3 157.056V188.489C186.3 190.605 187.415 192.566 189.235 193.647L214.78 208.827C217.63 210.52 218.566 214.204 216.871 217.053L216.085 218.374C214.392 221.219 210.714 222.155 207.867 220.465L174.82 200.855C172.999 199.774 171.882 197.813 171.882 195.695V157.056C171.882 153.742 174.569 151.056 177.882 151.056H180.3Z" fill="#9FC6FF"/>
<path d="M362.257 204.311C365.673 208.719 368.979 213.127 372.064 217.645C375.15 222.163 378.236 226.902 381.101 231.751C381.762 232.963 382.533 234.175 383.195 235.387C384.407 237.591 384.737 239.685 384.958 241.448C385.178 245.085 384.737 248.06 384.076 251.036C382.644 256.876 380.55 262.056 377.905 267.125L372.285 264.921C373.387 259.852 374.379 254.452 374.709 249.493C374.93 247.068 374.93 244.534 374.489 242.771C374.268 241.889 374.048 241.228 373.828 241.007C373.056 239.905 372.395 238.803 371.624 237.701C368.648 233.293 365.452 228.996 362.257 224.698L352.669 211.694L362.257 204.311Z" fill="#FF8B7B"/>
<path d="M371.734 264.26L368.758 269.549L379.007 271.092C379.007 271.092 380.109 266.684 377.574 263.598L371.734 264.26Z" fill="#FF8B7B"/>
<path d="M367.326 276.492L375.811 277.373L379.007 270.982L368.869 269.549L367.326 276.492Z" fill="#FF8B7B"/>
<path d="M323.026 170.039C322.915 170.7 322.474 171.141 322.034 171.141C321.593 171.03 321.372 170.479 321.483 169.818C321.593 169.157 322.034 168.716 322.475 168.716C322.915 168.826 323.136 169.377 323.026 170.039Z" fill="#0F264C"/>
<path d="M322.585 171.141C322.585 171.141 320.491 174.667 318.617 176.21C319.609 177.422 321.593 177.312 321.593 177.312L322.585 171.141Z" fill="#FF5652"/>
<path d="M326.001 166.843C325.891 166.843 325.78 166.843 325.78 166.733C324.568 165.52 323.136 165.851 323.136 165.851C322.915 165.851 322.695 165.741 322.695 165.52C322.695 165.3 322.805 165.08 323.025 165.08C323.136 165.08 324.789 164.749 326.331 166.182C326.442 166.292 326.442 166.622 326.331 166.733C326.221 166.843 326.111 166.843 326.001 166.843Z" fill="#0F264C"/>
<path d="M344.625 177.202C343.413 183.152 342.311 193.952 346.498 197.919C346.498 197.919 344.845 203.98 333.825 203.98C321.703 203.98 328.095 197.919 328.095 197.919C334.707 196.376 334.486 191.417 333.384 186.789L344.625 177.202Z" fill="#FF8B7B"/>
<path d="M352.008 202.327C351.898 202.107 351.788 201.886 351.677 201.666C350.796 198.14 346.829 195.385 341.759 195.274C336.47 195.164 330.409 195.825 326.882 198.691C325.34 200.013 327.103 201.886 327.103 201.886L352.008 202.327Z" fill="#77B3FC"/>
<path d="M390.909 424.049C390.578 424.049 390.358 423.939 390.137 423.388C390.027 423.168 390.137 422.837 390.248 422.617C390.909 421.625 393.554 421.074 393.664 420.964C393.774 420.964 393.774 420.964 393.884 421.074C393.884 421.184 393.884 421.184 393.884 421.295C393.443 422.066 391.901 424.049 390.909 424.049ZM393.333 421.515C392.452 421.735 391.019 422.176 390.688 422.837C390.578 422.948 390.578 423.168 390.578 423.278C390.688 423.609 390.799 423.609 390.909 423.609C391.46 423.719 392.562 422.617 393.333 421.515Z" fill="#407BFF"/>
<path d="M392.341 421.625C391.349 421.625 390.247 421.405 389.917 420.964C389.807 420.854 389.696 420.523 390.027 420.193C390.247 419.972 390.468 419.862 390.798 419.752C392.011 419.642 393.774 421.074 393.884 421.184C393.884 421.184 393.994 421.295 393.994 421.405C393.994 421.515 393.884 421.515 393.884 421.515C393.443 421.515 392.892 421.625 392.341 421.625ZM390.909 420.082H390.798C390.578 420.082 390.468 420.193 390.358 420.303C390.247 420.523 390.247 420.633 390.358 420.633C390.688 421.074 392.341 421.295 393.333 421.074C392.782 420.744 391.68 420.082 390.909 420.082Z" fill="#407BFF"/>
<path d="M310.903 450.828C309.912 450.828 308.81 450.718 308.479 450.167C308.369 450.057 308.259 449.726 308.479 449.285C308.589 449.065 308.81 448.955 309.14 448.845C310.463 448.514 313.328 450.057 313.438 450.167C313.548 450.167 313.548 450.277 313.548 450.387C313.548 450.498 313.438 450.498 313.438 450.498C312.887 450.718 311.895 450.828 310.903 450.828ZM309.581 449.285C309.471 449.285 309.361 449.285 309.25 449.285C309.03 449.285 308.92 449.396 308.92 449.506C308.81 449.726 308.81 449.836 308.92 449.947C309.25 450.498 311.344 450.498 312.887 450.277C312.005 449.947 310.573 449.285 309.581 449.285Z" fill="#407BFF"/>
<path d="M313.328 450.608C313.328 450.608 313.218 450.608 313.328 450.608C312.226 450.167 310.352 448.404 310.463 447.522C310.463 447.302 310.683 447.081 311.124 446.971C311.565 446.971 311.895 447.081 312.226 447.302C313.218 448.183 313.438 450.277 313.438 450.387C313.438 450.498 313.438 450.498 313.328 450.608C313.438 450.608 313.328 450.608 313.328 450.608ZM311.344 447.302H311.234C310.903 447.302 310.903 447.522 310.903 447.522C310.793 448.073 312.116 449.396 313.107 450.057C312.997 449.396 312.667 448.073 312.005 447.522C311.785 447.412 311.565 447.302 311.344 447.302Z" fill="#407BFF"/>
<path d="M322.254 450.387H314.099L313.328 431.653H321.372L322.254 450.387Z" fill="#FF8B7B"/>
<path d="M400.937 415.454L394.435 420.193L378.897 408.291L385.509 403.552L400.937 415.454Z" fill="#FF8B7B"/>
<path d="M393.443 420.193L399.725 413.581C399.945 413.36 400.276 413.25 400.606 413.47L406.888 417.327C407.549 417.768 407.659 418.65 407.108 419.201C404.904 421.405 403.692 422.397 400.937 425.372C399.284 427.135 394.545 433.416 392.231 435.841C389.917 438.265 387.162 436.282 387.933 435.069C391.239 429.67 392.892 424.27 392.892 421.515C392.892 420.964 393.113 420.523 393.443 420.193Z" fill="#14365B"/>
<path d="M314.209 449.506H323.025C323.356 449.506 323.687 449.726 323.687 450.057L325.34 457.22C325.56 457.991 324.899 458.652 324.127 458.652C320.932 458.652 316.303 458.432 312.336 458.432C307.597 458.432 303.63 458.652 298.12 458.652C294.814 458.652 293.822 455.346 295.255 455.016C301.536 453.583 306.716 453.473 312.226 450.057C312.777 449.726 313.438 449.506 314.209 449.506Z" fill="#14365B"/>
<path d="M351.016 215C352.118 217.094 353.33 218.967 354.543 220.841C356.636 224.037 358.62 226.792 360.053 228.665C361.375 230.428 362.146 231.42 362.146 231.42L378.456 220.29C378.456 220.29 368.538 201.005 360.934 199.793C353 198.47 345.837 205.854 351.016 215Z" fill="#19437F"/>
<path d="M354.543 220.841C356.637 224.037 358.62 226.792 360.053 228.665C359.943 224.918 359.061 218.747 356.196 214.119C355.094 215.11 354.653 217.865 354.543 220.841Z" fill="#133A68"/>
<path d="M311.565 226.571C311.565 229.326 311.675 232.302 311.785 235.718C312.226 244.754 313.218 256.105 315.091 270.21H358.4C358.73 263.598 354.543 231.089 360.934 199.793C360.934 199.793 353.551 198.36 346.388 197.919C340.878 197.699 332.833 197.478 327.985 197.919C321.593 198.47 315.532 200.123 315.532 200.123C315.532 200.123 311.565 204.641 311.565 226.571Z" fill="#19437F"/>
<path d="M311.565 226.571C311.565 229.326 311.675 232.302 311.785 235.718C316.854 230.759 317.185 220.62 317.185 220.62L311.565 226.571Z" fill="#133A68"/>
<path d="M320.601 214.008C319.609 215.661 318.728 216.763 317.846 217.976C316.965 219.188 315.973 220.29 315.091 221.392C313.218 223.596 311.234 225.69 309.251 227.783C305.173 231.861 300.765 235.718 295.586 239.024C294.263 239.795 292.941 240.567 291.398 241.338L290.847 241.558L290.517 241.669C290.406 241.669 290.296 241.779 290.186 241.779C289.635 241.999 289.084 242.22 288.533 242.33L287.762 242.55L286.99 242.66C286.439 242.771 285.998 242.771 285.558 242.771C281.701 242.991 278.725 242.22 275.75 241.338C269.909 239.575 264.84 237.04 259.991 233.955L262.636 228.445C267.705 229.877 272.995 231.2 277.954 231.971C280.378 232.302 282.803 232.412 284.566 232.081C284.786 232.081 285.007 231.971 285.117 231.971L285.337 231.861L285.558 231.751C285.668 231.751 285.778 231.64 285.778 231.64L286.439 231.31C287.431 230.759 288.423 230.098 289.415 229.326C293.382 226.461 297.129 222.824 300.655 219.078C302.418 217.204 304.181 215.221 305.834 213.237C306.716 212.245 307.487 211.253 308.259 210.262C309.03 209.27 309.802 208.278 310.242 207.507L320.601 214.008Z" fill="#FF8B7B"/>
<path d="M263.628 230.098L258.228 223.706L254.591 233.073C254.591 233.073 259.22 235.277 262.856 233.955L263.628 230.098Z" fill="#FF8B7B"/>
<path d="M250.404 222.273L248.861 229.767L254.591 233.073L258.228 223.706L250.404 222.273Z" fill="#FF8B7B"/>
<path d="M327.103 209.6C326.111 217.314 308.589 233.514 308.589 233.514L292.831 221.061C292.831 221.061 299.112 211.584 306.606 205.082C318.067 195.164 328.205 200.344 327.103 209.6Z" fill="#19437F"/>
<path d="M313.438 261.615C329.197 261.615 332.723 243.873 333.605 236.159C333.054 231.53 330.409 216.543 320.05 199.793C319.719 199.242 320.05 198.47 320.711 198.36L324.127 197.699C324.568 197.589 324.899 197.809 325.119 198.14C334.596 213.237 337.682 226.13 338.674 232.742C339.555 232.742 340.547 232.742 341.539 232.742C344.404 226.461 350.796 212.135 350.245 198.691C350.245 198.14 350.686 197.589 351.347 197.699L355.094 198.029C355.534 198.029 355.975 198.47 355.975 198.911C356.526 211.804 349.253 229.767 346.388 235.497C347.38 256.546 359.061 260.292 359.061 260.292C359.061 260.292 359.612 267.015 358.4 275.941C333.605 280.018 321.152 277.484 314.099 274.618C314.65 269.439 313.658 265.692 313.438 261.615Z" fill="#0053CC"/>
<path d="M313.328 431.653L313.769 441.351H321.813L321.372 431.653H313.328Z" fill="#EA7063"/>
<path d="M385.509 403.552L378.897 408.291L386.831 414.462L393.443 409.724L385.509 403.552Z" fill="#EA7063"/>
<path d="M344.845 172.022C343.082 179.846 342.531 184.585 337.902 188.001C330.96 193.181 321.703 188.001 321.042 179.846C320.491 172.463 323.356 160.892 331.621 158.908C339.666 157.035 346.498 164.198 344.845 172.022Z" fill="#FF8B7B"/>
<path d="M351.788 159.9C358.62 160.121 355.865 163.757 352.339 165.741C352.339 165.741 356.306 167.614 354.212 172.243C351.127 179.185 345.176 186.789 339.115 186.348C331.511 185.797 329.417 177.642 329.638 169.488C325.67 165.741 325.009 163.647 324.348 159.129C323.246 150.092 328.866 145.133 351.788 159.9Z" fill="#14365B"/>
<path d="M342.972 144.803C352.779 147.337 358.73 157.366 356.196 167.173L320.601 158.137C323.136 148.219 333.054 142.268 342.972 144.803Z" fill="#9FC6FF"/>
<path d="M349.914 167.173C349.804 167.173 349.694 167.173 349.473 167.173C348.592 166.953 348.041 166.071 348.261 165.19C349.253 161.223 348.482 157.035 346.167 153.398C343.743 149.762 339.996 147.117 335.588 145.905C334.707 145.684 334.156 144.803 334.376 143.921C334.596 143.04 335.478 142.489 336.36 142.709C341.539 144.031 346.057 147.117 348.922 151.525C351.788 155.933 352.669 161.002 351.457 165.851C351.347 166.622 350.686 167.173 349.914 167.173Z" fill="#77B3FC"/>
<path d="M315.532 158.468L357.408 169.157C358.289 169.377 359.281 168.826 359.502 167.945C359.722 167.063 359.171 166.071 358.289 165.851L316.413 155.162C315.532 154.941 314.54 155.492 314.32 156.374C314.099 157.366 314.65 158.247 315.532 158.468Z" fill="#77B3FC"/>
<path d="M333.935 171.361C333.715 173.455 332.723 175.438 331.511 176.651C329.637 178.524 327.874 177.312 327.654 174.887C327.433 172.794 328.095 169.157 330.299 168.165C332.392 167.173 334.156 168.937 333.935 171.361Z" fill="#FF8B7B"/>
<path d="M330.409 270.1C330.409 270.1 329.527 327.735 336.69 350.326C348.151 386.141 382.754 415.123 382.754 415.123L395.096 406.197C395.096 406.197 366.224 381.733 361.045 351.538C356.306 324.429 358.29 292.25 358.29 270.1C348.261 270.1 330.409 270.1 330.409 270.1Z" fill="#0053CC"/>
<path d="M338.564 280.018C340.107 290.377 334.707 319.36 332.833 328.727C330.85 310.984 330.519 290.046 330.519 278.586C334.376 275.941 337.792 275.169 338.564 280.018Z" fill="#004DAA"/>
<path d="M377.574 412.478L382.644 415.564L396.198 405.756L391.68 402.34L377.574 412.478Z" fill="#77B3FC"/>
<path d="M315.091 270.1C315.091 270.1 302.859 321.784 302.088 346.469C301.096 374.129 310.793 439.478 310.793 439.478H324.458C324.458 439.478 326.111 373.688 326.772 348.452C327.434 321.013 343.523 270.1 343.523 270.1H315.091Z" fill="#0053CC"/>
<path d="M308.038 433.968C307.928 433.968 308.81 439.698 308.81 439.698H325.56L326.001 434.629L308.038 433.968Z" fill="#77B3FC"/>
</svg>
