<svg width="551" height="551" viewBox="0 0 551 551" fill="none" xmlns="http://www.w3.org/2000/svg">
<path d="M551 421.405H0V421.625H551V421.405Z" fill="#D1E3FF"/>
<path d="M120.559 434.629H56.8633V434.849H120.559V434.629Z" fill="#D1E3FF"/>
<path d="M259.631 428.678H230.648V428.898H259.631V428.678Z" fill="#D1E3FF"/>
<path d="M326.853 428.458H270.321V428.678H326.853V428.458Z" fill="#D1E3FF"/>
<path d="M434.408 431.764H420.633V431.984H434.408V431.764Z" fill="#D1E3FF"/>
<path d="M373.027 431.764H318.147V431.984H373.027V431.764Z" fill="#D1E3FF"/>
<path d="M142.158 434.629H131.248V434.849H142.158V434.629Z" fill="#D1E3FF"/>
<path d="M491.051 431.764H443.334V431.984H491.051V431.764Z" fill="#D1E3FF"/>
<path d="M261.174 372.256H48.3776C44.9614 372.256 42.0962 369.39 42.0962 365.974V66.8914C42.0962 63.4752 44.9614 60.61 48.3776 60.61H261.174C264.59 60.61 267.455 63.4752 267.455 66.8914V365.974C267.455 369.39 264.7 372.256 261.174 372.256ZM48.3776 60.8304C45.0716 60.8304 42.3166 63.4752 42.3166 66.8914V365.974C42.3166 369.28 44.9614 372.035 48.3776 372.035H261.174C264.48 372.035 267.235 369.39 267.235 365.974V66.8914C267.235 63.5854 264.59 60.8304 261.174 60.8304H48.3776Z" fill="#D1E3FF"/>
<path d="M499.537 372.256H286.74C283.324 372.256 280.459 369.39 280.459 365.974V66.8914C280.459 63.4752 283.324 60.61 286.74 60.61H499.537C502.953 60.61 505.818 63.4752 505.818 66.8914V365.974C505.818 369.39 503.063 372.256 499.537 372.256ZM286.74 60.8304C283.434 60.8304 280.679 63.4752 280.679 66.8914V365.974C280.679 369.28 283.324 372.035 286.74 372.035H499.537C502.843 372.035 505.598 369.39 505.598 365.974V66.8914C505.598 63.5854 502.953 60.8304 499.537 60.8304H286.74Z" fill="#D1E3FF"/>
<path d="M84.413 150.754C79.5642 140.395 83.4212 133.011 95.2126 133.011C102.596 133.011 111.743 135.877 120.559 140.615C121.55 137.86 124.416 136.317 128.934 136.317C136.978 136.317 147.998 141.276 156.704 148.329C158.798 146.786 161.884 145.795 165.741 145.684C173.455 145.354 182.711 148.219 190.756 152.958C191.417 152.186 192.629 151.635 194.282 151.635C198.69 151.415 204.641 154.39 207.617 158.137C207.837 158.357 207.947 158.578 208.168 158.798H199.021H191.748H166.402H153.949H144.252H129.264H126.509H89.372H82.0988C81.7682 155.492 82.5396 152.737 84.413 150.754Z" fill="#F3F8FF"/>
<path d="M227.343 101.384C227.673 101.384 228.114 101.274 228.555 101.274C228.224 97.1964 230.318 94.6618 234.726 94.6618C237.922 94.6618 241.889 95.9842 245.966 98.2984C244.754 90.4742 248.501 85.2948 256.876 85.2948C263.598 85.2948 272.194 88.6008 280.679 94.0006C281.451 90.915 283.875 89.0416 288.063 89.0416C295.446 89.0416 305.915 94.772 314.29 102.817C316.054 101.053 318.809 99.9514 322.445 99.731C329.498 99.4004 338.204 102.706 345.918 107.996C346.469 107.114 347.571 106.563 349.114 106.453C352.971 106.233 358.26 109.208 361.346 113.175H352.42H346.359H322.996H312.086H302.389H288.614H262.496H252.358H248.721H234.285H221.282C217.865 107.335 220.51 102.045 227.343 101.384Z" fill="#F3F8FF"/>
<path d="M415.454 84.1928C412.368 77.5808 414.793 72.8422 422.397 72.8422C427.135 72.8422 432.976 74.7156 438.706 77.8012C439.367 76.038 441.131 75.0462 444.106 75.0462C449.285 75.0462 456.338 78.242 461.848 82.7602C463.171 81.7684 465.154 81.1072 467.689 80.997C472.648 80.7766 478.599 82.65 483.778 85.6254C484.219 85.0744 484.99 84.854 486.092 84.7438C488.957 84.6336 492.814 86.507 494.688 88.9314C494.798 89.0416 494.908 89.262 495.018 89.3722H489.178H484.439H468.13H460.085H453.804H444.106H442.343H418.54H411.487C408.952 86.9478 411.928 84.303 415.454 84.1928Z" fill="#F3F8FF"/>
<path d="M135.766 301.397H98.188V421.405H135.766V301.397Z" fill="#E3EEFF"/>
<path d="M123.427 421.433H185.029L185.029 259.659H123.427L123.427 421.433Z" fill="#F3F8FF"/>
<path d="M216.984 259.631H185.026V421.405H216.984V259.631Z" fill="#E3EEFF"/>
<path d="M131.819 259.705H185.046V243.615H131.819V259.705Z" fill="#F3F8FF"/>
<path d="M131.819 259.608H185.046V255.971H131.819V259.608Z" fill="#E3EEFF"/>
<path d="M208.719 243.542H185.026V259.631H208.719V243.542Z" fill="#E3EEFF"/>
<path d="M140.101 243.532H185.063V227.443H140.101V243.532Z" fill="#F3F8FF"/>
<path d="M140.101 243.546H185.063V239.909H140.101V243.546Z" fill="#E3EEFF"/>
<path d="M200.454 227.563H185.026V243.652H200.454V227.563Z" fill="#E3EEFF"/>
<path d="M171.692 205.082H168.716V227.563H171.692V205.082Z" fill="#E3EEFF"/>
<path d="M206.749 421.456H251.71L251.71 287.783H206.749V421.456Z" fill="#F3F8FF"/>
<path d="M275.059 287.732H251.697V421.405H275.059V287.732Z" fill="#E3EEFF"/>
<path d="M263.378 325.972L297.54 355.175V421.405H263.378V325.972Z" fill="#F3F8FF"/>
<path d="M315.282 355.175H297.54V421.405H315.282V355.175Z" fill="#E3EEFF"/>
<path d="M315.172 355.175H297.54L263.378 325.972H281.12L315.172 355.175Z" fill="#E3EEFF"/>
<path d="M474.962 421.405C474.962 421.405 475.733 413.47 484.549 409.393C480.913 415.123 481.684 421.405 481.684 421.405H474.962Z" fill="#E3EEFF"/>
<path d="M157.035 421.405C157.035 421.405 156.263 413.47 147.447 409.393C151.084 415.123 150.312 421.405 150.312 421.405H157.035Z" fill="#E3EEFF"/>
<path d="M78.352 421.405C78.352 421.405 77.801 407.299 71.9604 403.222C74.3848 408.952 73.8338 421.405 73.8338 421.405H78.352Z" fill="#E3EEFF"/>
<path d="M76.1479 421.405C76.1479 421.405 76.699 413.36 82.5396 410.936C80.1152 414.242 80.6661 421.405 80.6661 421.405H76.1479Z" fill="#E3EEFF"/>
<path d="M162.104 421.405C162.104 421.405 161.553 408.07 150.864 403.222C155.602 410.054 155.382 421.405 155.382 421.405H162.104Z" fill="#E3EEFF"/>
<path d="M425.702 403.332H398.703C398.042 403.332 397.601 402.891 397.601 402.23V375.231C397.601 374.57 398.042 374.129 398.703 374.129H425.702C426.363 374.129 426.804 374.57 426.804 375.231V402.23C426.804 402.891 426.253 403.332 425.702 403.332ZM399.805 401.128H424.6V376.333H399.805V401.128Z" fill="#D1E3FF"/>
<path d="M425.702 376.333H398.703C398.042 376.333 397.601 375.892 397.601 375.231V348.232C397.601 347.571 398.042 347.13 398.703 347.13H425.702C426.363 347.13 426.804 347.571 426.804 348.232V375.231C426.804 375.892 426.253 376.333 425.702 376.333ZM399.805 374.129H424.6V349.334H399.805V374.129Z" fill="#D1E3FF"/>
<path d="M425.703 403.332C425.372 403.332 425.152 403.222 424.931 403.001L397.932 376.002C397.491 375.562 397.491 374.9 397.932 374.46C398.373 374.019 399.034 374.019 399.475 374.46L426.474 401.458C426.915 401.899 426.915 402.561 426.474 403.001C426.254 403.222 426.033 403.332 425.703 403.332Z" fill="#D1E3FF"/>
<path d="M425.703 376.333C425.372 376.333 425.152 376.223 424.931 376.002L397.932 349.003C397.491 348.563 397.491 347.901 397.932 347.46C398.373 347.02 399.034 347.02 399.475 347.46L426.474 374.46C426.915 374.9 426.915 375.562 426.474 376.002C426.254 376.223 426.033 376.333 425.703 376.333Z" fill="#D1E3FF"/>
<path d="M425.702 349.334H398.703C398.042 349.334 397.601 348.893 397.601 348.232V321.233C397.601 320.572 398.042 320.131 398.703 320.131H425.702C426.363 320.131 426.804 320.572 426.804 321.233V348.232C426.804 348.893 426.253 349.334 425.702 349.334ZM399.805 347.13H424.6V322.335H399.805V347.13Z" fill="#D1E3FF"/>
<path d="M425.702 322.335H398.703C398.042 322.335 397.601 321.894 397.601 321.233V294.234C397.601 293.573 398.042 293.132 398.703 293.132H425.702C426.363 293.132 426.804 293.573 426.804 294.234V321.233C426.804 321.784 426.253 322.335 425.702 322.335ZM399.805 320.131H424.6V295.336H399.805V320.131Z" fill="#D1E3FF"/>
<path d="M425.703 349.334C425.372 349.334 425.152 349.224 424.931 349.003L397.932 322.004C397.491 321.564 397.491 320.902 397.932 320.462C398.373 320.021 399.034 320.021 399.475 320.462L426.474 347.461C426.915 347.901 426.915 348.563 426.474 349.003C426.254 349.224 426.033 349.334 425.703 349.334Z" fill="#D1E3FF"/>
<path d="M425.703 322.335C425.372 322.335 425.152 322.225 424.931 322.004L397.932 295.005C397.491 294.565 397.491 293.903 397.932 293.463C398.373 293.022 399.034 293.022 399.475 293.463L426.474 320.462C426.915 320.902 426.915 321.564 426.474 322.004C426.254 322.225 426.033 322.335 425.703 322.335Z" fill="#D1E3FF"/>
<path d="M425.702 295.336H398.703C398.042 295.336 397.601 294.895 397.601 294.234V267.235C397.601 266.574 398.042 266.133 398.703 266.133H425.702C426.363 266.133 426.804 266.574 426.804 267.235V294.234C426.804 294.785 426.253 295.336 425.702 295.336ZM399.805 293.132H424.6V268.337H399.805V293.132Z" fill="#D1E3FF"/>
<path d="M425.702 268.337H398.703C398.042 268.337 397.601 267.896 397.601 267.235V240.236C397.601 239.575 398.042 239.134 398.703 239.134H425.702C426.363 239.134 426.804 239.575 426.804 240.236V267.235C426.804 267.786 426.253 268.337 425.702 268.337ZM399.805 266.133H424.6V241.338H399.805V266.133Z" fill="#D1E3FF"/>
<path d="M425.703 295.336C425.372 295.336 425.152 295.226 424.931 295.005L397.932 268.006C397.491 267.566 397.491 266.904 397.932 266.464C398.373 266.023 399.034 266.023 399.475 266.464L426.474 293.463C426.915 293.903 426.915 294.565 426.474 295.005C426.254 295.226 426.033 295.336 425.703 295.336Z" fill="#D1E3FF"/>
<path d="M398.703 178.083H371.705C371.043 178.083 370.603 177.642 370.603 176.981V149.872C370.603 149.211 371.043 148.77 371.705 148.77H398.703C399.365 148.77 399.805 149.211 399.805 149.872V176.871C399.805 177.532 399.254 178.083 398.703 178.083ZM372.807 175.879H397.601V150.974H372.807V175.879Z" fill="#D1E3FF"/>
<path d="M425.702 178.083H398.703C398.042 178.083 397.601 177.642 397.601 176.981C397.601 176.32 398.042 175.879 398.703 175.879H424.6V122.983C424.6 122.322 425.041 121.881 425.702 121.881C426.363 121.881 426.804 122.322 426.804 122.983V176.981C426.804 177.532 426.253 178.083 425.702 178.083Z" fill="#D1E3FF"/>
<path d="M398.703 178.083C398.483 178.083 398.373 178.083 398.263 177.973C397.712 177.753 397.491 177.091 397.822 176.54L424.821 122.542C425.041 121.991 425.702 121.771 426.253 122.102C426.804 122.322 427.025 122.983 426.694 123.534L399.695 177.532C399.475 177.863 399.034 178.083 398.703 178.083Z" fill="#D1E3FF"/>
<path d="M371.705 178.083H344.706C344.044 178.083 343.604 177.642 343.604 176.981V149.872C343.604 149.211 344.044 148.77 344.706 148.77H371.705C372.366 148.77 372.807 149.211 372.807 149.872V176.871C372.807 177.532 372.256 178.083 371.705 178.083ZM345.697 175.879H370.492V150.974H345.697V175.879Z" fill="#D1E3FF"/>
<path d="M371.705 178.083C371.374 178.083 371.154 177.973 370.933 177.753C370.492 177.312 370.492 176.651 370.933 176.21L397.932 149.211C398.373 148.77 399.034 148.77 399.475 149.211C399.916 149.652 399.916 150.313 399.475 150.754L372.476 177.753C372.256 177.973 371.925 178.083 371.705 178.083Z" fill="#D1E3FF"/>
<path d="M452.701 178.083H425.702C425.041 178.083 424.6 177.642 424.6 176.981V149.872C424.6 149.211 425.041 148.77 425.702 148.77H452.701C453.362 148.77 453.803 149.211 453.803 149.872V176.871C453.803 177.532 453.362 178.083 452.701 178.083ZM426.804 175.879H451.599V150.974H426.804V175.879Z" fill="#D1E3FF"/>
<path d="M425.702 178.083C425.371 178.083 425.151 177.973 424.931 177.753C424.49 177.312 424.49 176.651 424.931 176.21L451.93 149.211C452.371 148.77 453.032 148.77 453.473 149.211C453.913 149.652 453.913 150.313 453.473 150.754L426.473 177.753C426.253 177.973 426.033 178.083 425.702 178.083Z" fill="#D1E3FF"/>
<path d="M263.598 178.083C263.267 178.083 263.047 177.973 262.827 177.753C262.386 177.312 262.386 176.651 262.827 176.21L289.826 149.211C289.936 149.101 290.156 148.99 290.377 148.88L425.482 121.881C425.812 121.771 426.253 121.881 426.474 122.212L480.472 176.21C480.912 176.651 480.912 177.312 480.472 177.753C480.031 178.193 479.37 178.193 478.929 177.753L425.372 124.085L291.148 150.974L264.369 177.753C264.149 177.973 263.929 178.083 263.598 178.083Z" fill="#D1E3FF"/>
<path d="M344.595 178.083C344.265 178.083 344.044 177.973 343.824 177.753C343.383 177.312 343.383 176.651 343.824 176.21L370.823 149.211C371.264 148.77 371.925 148.77 372.366 149.211C372.806 149.652 372.806 150.313 372.366 150.754L345.367 177.753C345.256 177.973 344.926 178.083 344.595 178.083Z" fill="#D1E3FF"/>
<path d="M344.595 178.083H317.596C316.935 178.083 316.494 177.642 316.494 176.981V149.872C316.494 149.211 316.935 148.77 317.596 148.77H344.595C345.256 148.77 345.697 149.211 345.697 149.872V176.871C345.697 177.532 345.256 178.083 344.595 178.083ZM318.698 175.879H343.493V150.974H318.698V175.879Z" fill="#D1E3FF"/>
<path d="M317.596 178.083H290.597C289.936 178.083 289.495 177.642 289.495 176.981V149.872C289.495 149.211 289.936 148.77 290.597 148.77H317.596C318.257 148.77 318.698 149.211 318.698 149.872V176.871C318.698 177.532 318.257 178.083 317.596 178.083ZM291.699 175.879H316.494V150.974H291.699V175.879Z" fill="#D1E3FF"/>
<path d="M317.596 178.083C317.266 178.083 317.045 177.973 316.825 177.753C316.384 177.312 316.384 176.651 316.825 176.21L343.824 149.211C344.265 148.77 344.926 148.77 345.367 149.211C345.807 149.652 345.807 150.313 345.367 150.754L318.368 177.753C318.147 177.973 317.927 178.083 317.596 178.083Z" fill="#D1E3FF"/>
<path d="M290.597 178.083C290.267 178.083 290.046 177.973 289.826 177.753C289.385 177.312 289.385 176.651 289.826 176.21L316.825 149.211C317.265 148.77 317.927 148.77 318.367 149.211C318.808 149.652 318.808 150.313 318.367 150.754L291.369 177.753C291.148 177.973 290.928 178.083 290.597 178.083Z" fill="#D1E3FF"/>
<path d="M290.597 178.083H263.598C262.937 178.083 262.496 177.642 262.496 176.981C262.496 176.32 262.937 175.879 263.598 175.879H289.495V149.872C289.495 149.211 289.936 148.77 290.597 148.77C291.258 148.77 291.699 149.211 291.699 149.872V176.871C291.699 177.532 291.258 178.083 290.597 178.083Z" fill="#D1E3FF"/>
<path d="M425.703 268.337C425.372 268.337 425.152 268.227 424.931 268.006L397.932 241.007C397.491 240.567 397.491 239.905 397.932 239.465C398.373 239.024 399.034 239.024 399.475 239.465L426.474 266.464C426.915 266.904 426.915 267.566 426.474 268.006C426.254 268.227 426.033 268.337 425.703 268.337Z" fill="#D1E3FF"/>
<path d="M425.702 241.228H398.703C398.042 241.228 397.601 240.787 397.601 240.126V213.127C397.601 212.466 398.042 212.025 398.703 212.025H425.702C426.363 212.025 426.804 212.466 426.804 213.127V240.126C426.804 240.787 426.253 241.228 425.702 241.228ZM399.805 239.024H424.6V214.229H399.805V239.024Z" fill="#D1E3FF"/>
<path d="M425.702 214.229H398.703C398.042 214.229 397.601 213.788 397.601 213.127V186.128C397.601 185.467 398.042 185.026 398.703 185.026H425.702C426.363 185.026 426.804 185.467 426.804 186.128V213.127C426.804 213.788 426.253 214.229 425.702 214.229ZM399.805 212.025H424.6V187.23H399.805V212.025Z" fill="#D1E3FF"/>
<path d="M425.703 241.228C425.372 241.228 425.152 241.118 424.931 240.897L397.932 213.898C397.491 213.457 397.491 212.796 397.932 212.355C398.373 211.915 399.034 211.915 399.475 212.355L426.474 239.354C426.915 239.795 426.915 240.456 426.474 240.897C426.254 241.118 426.033 241.228 425.703 241.228Z" fill="#D1E3FF"/>
<path d="M425.703 214.229C425.372 214.229 425.152 214.119 424.931 213.898L397.932 186.899C397.491 186.458 397.491 185.797 397.932 185.356C398.373 184.916 399.034 184.916 399.475 185.356L426.474 212.355C426.915 212.796 426.915 213.457 426.474 213.898C426.254 214.119 426.033 214.229 425.703 214.229Z" fill="#D1E3FF"/>
<path d="M479.7 176.981H263.598L290.597 186.128H479.7V176.981Z" fill="#D1E3FF"/>
<path d="M479.7 187.23H290.597C290.487 187.23 290.377 187.23 290.266 187.12L263.267 177.863C262.716 177.642 262.496 177.202 262.496 176.651C262.606 176.1 263.047 175.769 263.598 175.769H479.7C480.361 175.769 480.802 176.21 480.802 176.871V186.128C480.802 186.789 480.361 187.23 479.7 187.23ZM290.817 185.026H478.598V177.973H270.21L290.817 185.026Z" fill="#D1E3FF"/>
<path d="M378.654 224.073H398.71V181.536H378.654V224.073Z" fill="#D1E3FF"/>
<path d="M378.647 181.499H369.39V224.037H378.647V181.499Z" fill="#F3F8FF"/>
<path d="M401.682 421.442H441.023V402.268H401.682V421.442Z" fill="#D1E3FF"/>
<path d="M401.679 402.23H383.385V421.405H401.679V402.23Z" fill="#F3F8FF"/>
<path d="M452.701 224.367C452.04 224.367 451.599 223.926 451.599 223.265V181.499C451.599 180.838 452.04 180.397 452.701 180.397C453.362 180.397 453.803 180.838 453.803 181.499V223.265C453.803 223.926 453.362 224.367 452.701 224.367Z" fill="#D1E3FF"/>
<path d="M452.701 229.436C450.717 229.436 449.064 227.783 449.064 225.8C449.064 223.816 450.717 222.163 452.701 222.163C454.685 222.163 456.338 223.816 456.338 225.8C456.338 227.894 454.685 229.436 452.701 229.436ZM452.701 224.367C451.93 224.367 451.268 225.028 451.268 225.8C451.268 226.571 451.93 227.232 452.701 227.232C453.472 227.232 454.134 226.571 454.134 225.8C454.134 225.028 453.472 224.367 452.701 224.367Z" fill="#D1E3FF"/>
<path d="M294.013 246.297C293.352 246.297 292.911 245.856 292.911 245.195V181.499C292.911 180.838 293.352 180.397 294.013 180.397C294.674 180.397 295.115 180.838 295.115 181.499V245.195C295.115 245.856 294.564 246.297 294.013 246.297Z" fill="#D1E3FF"/>
<path d="M304.372 252.909C303.821 252.909 303.381 252.468 303.27 252.027C302.499 250.705 295.336 246.517 294.014 246.297C292.801 246.517 285.638 250.705 284.757 252.027C284.647 252.578 284.206 252.909 283.655 252.909C282.994 252.909 282.553 252.468 282.553 251.807C282.553 249.383 292.581 244.093 294.014 244.093C295.446 244.093 305.474 249.272 305.474 251.807C305.474 252.468 304.923 252.909 304.372 252.909Z" fill="#D1E3FF"/>
<path d="M316.274 332.584L332.473 316.384L329.057 309.772C329.388 309.111 329.608 308.45 329.939 307.789L336.991 305.585V282.773L329.939 280.569C329.718 279.908 329.388 279.247 329.057 278.586L332.473 271.974L316.274 255.774L309.662 259.19C309.001 258.86 308.339 258.639 307.678 258.309L305.474 251.256H282.663L280.459 258.309C279.798 258.529 279.136 258.86 278.475 259.08L271.863 255.664L255.664 271.974L259.08 278.586C258.749 279.247 258.529 279.908 258.198 280.569L251.146 282.773V305.585L258.198 307.789C258.419 308.45 258.749 309.111 259.08 309.772L255.664 316.384L271.863 332.584L278.475 329.167C279.136 329.498 279.798 329.718 280.459 330.049L282.663 337.102H305.474L307.678 330.049C308.339 329.829 309.001 329.498 309.662 329.167L316.274 332.584ZM306.025 306.246C299.413 312.858 288.614 312.858 282.002 306.246C275.39 299.634 275.39 288.834 282.002 282.222C288.614 275.61 299.413 275.61 306.025 282.222C312.637 288.834 312.637 299.634 306.025 306.246Z" fill="#D1E3FF"/>
<path d="M275.5 471.105C393.511 471.105 489.178 465.53 489.178 458.652C489.178 451.775 393.511 446.2 275.5 446.2C157.489 446.2 61.8223 451.775 61.8223 458.652C61.8223 465.53 157.489 471.105 275.5 471.105Z" fill="#F0F6FF"/>
<path d="M193.842 179.736H180.067C178.744 179.736 177.642 180.397 176.981 181.499L170.149 193.401C169.488 194.503 169.488 195.825 170.149 197.038L176.981 208.939C177.642 210.041 178.855 210.702 180.067 210.702H193.842C195.164 210.702 196.266 210.041 196.927 208.939L203.76 197.038C204.421 195.936 204.421 194.613 203.76 193.401L196.927 181.499C196.266 180.508 195.164 179.736 193.842 179.736Z" fill="#9FC6FF"/>
<path d="M105.792 140.285L105.021 139.513L111.633 132.901L112.404 133.673L105.792 140.285ZM117.143 128.934L116.371 128.163L130.146 114.388L130.918 115.159L117.143 128.934Z" fill="#9FC6FF"/>
<path d="M280.459 220.18V170.259L265.031 165.41C264.48 163.978 263.819 162.435 263.268 161.002L270.761 146.676L235.497 111.412L221.171 118.906C219.739 118.245 218.306 117.694 216.763 117.143L211.915 101.715H161.994L157.145 117.143C155.713 117.694 154.17 118.355 152.737 118.906L138.411 111.412L103.147 146.676L110.641 161.002C109.98 162.435 109.429 163.867 108.878 165.41L93.4497 170.259V220.18L108.878 225.028C109.429 226.461 110.09 228.004 110.641 229.436L103.147 243.762L138.411 279.026L152.737 271.533C154.17 272.194 155.603 272.745 157.145 273.296L161.994 288.724H211.915L216.763 273.296C218.196 272.745 219.739 272.084 221.171 271.533L235.497 279.026L270.761 243.762L263.268 229.436C263.929 228.004 264.48 226.571 265.031 225.028L280.459 220.18ZM224.037 195.274C224.037 215.772 207.396 232.412 186.899 232.412C166.402 232.412 149.762 215.772 149.762 195.274C149.762 174.777 166.402 158.137 186.899 158.137C207.507 158.137 224.037 174.777 224.037 195.274Z" fill="#9FC6FF"/>
<path d="M209.49 285.749H164.529C164.419 285.749 164.308 285.638 164.308 285.528L160.011 271.643C160.011 271.533 160.011 271.312 160.231 271.312C160.341 271.312 160.562 271.312 160.562 271.533L164.859 285.198H209.49L214.009 270.761C214.009 270.651 214.119 270.651 214.229 270.541L215.772 269.99C217.094 269.549 218.417 268.998 219.959 268.227L221.392 267.566C221.502 267.455 221.723 267.566 221.723 267.676C221.833 267.786 221.723 268.006 221.612 268.006L220.18 268.668C218.637 269.329 217.315 269.88 215.992 270.431L214.56 270.982L210.041 285.528C209.711 285.638 209.601 285.749 209.49 285.749ZM234.836 275.28C234.726 275.28 234.726 275.28 234.616 275.169C234.506 275.059 234.506 274.839 234.616 274.729L266.354 242.991L259.301 229.547C259.301 229.436 259.301 229.436 259.301 229.326L259.962 227.894C260.623 226.351 261.174 225.028 261.725 223.706L262.276 222.163C262.276 222.053 262.386 222.053 262.497 221.943L277.043 217.425V173.014L262.717 168.496C262.607 168.496 262.497 168.275 262.497 168.165C262.497 168.055 262.717 167.945 262.827 167.945L277.263 172.463C277.374 172.463 277.484 172.573 277.484 172.683V217.645C277.484 217.755 277.374 217.865 277.263 217.865L262.717 222.384L262.166 223.816C261.725 225.139 261.064 226.461 260.403 228.004L259.852 229.326L266.905 242.881C267.015 242.991 266.905 243.101 266.905 243.211L235.057 275.059C234.947 275.28 234.947 275.28 234.836 275.28ZM139.073 275.28C138.962 275.28 138.962 275.28 138.852 275.169L107.004 243.322C106.894 243.211 106.894 243.101 107.004 242.991L114.167 229.326C114.278 229.216 114.388 229.106 114.498 229.216C114.608 229.326 114.718 229.436 114.608 229.547L107.555 242.991L139.293 274.729C139.403 274.839 139.403 275.059 139.293 275.169C139.183 275.28 139.183 275.28 139.073 275.28ZM157.807 270.321C157.807 270.321 157.696 270.321 157.807 270.321C156.594 269.88 155.382 269.329 154.06 268.778C153.95 268.668 153.839 268.557 153.95 268.447C154.06 268.337 154.17 268.227 154.28 268.337C155.603 268.888 156.815 269.439 157.917 269.88C158.027 269.88 158.137 270.1 158.027 270.21C158.027 270.21 157.917 270.321 157.807 270.321ZM187.01 235.938C164.529 235.938 146.346 217.645 146.346 195.274C146.346 195.164 146.456 195.054 146.566 195.054C146.676 195.054 146.787 195.164 146.787 195.274C146.787 217.425 164.749 235.387 186.899 235.387C209.05 235.387 227.012 217.425 227.012 195.274C227.012 173.124 209.05 155.162 186.899 155.162C186.789 155.162 186.679 155.051 186.679 154.941C186.679 154.831 186.789 154.721 186.899 154.721C209.38 154.721 227.563 173.014 227.563 195.385C227.673 217.755 209.38 235.938 187.01 235.938ZM111.963 224.147C111.853 224.147 111.743 224.037 111.743 223.926L111.192 222.494L96.6457 217.976C96.5355 217.976 96.4253 217.865 96.4253 217.755V172.794C96.4253 172.683 96.5355 172.573 96.6457 172.573L110.531 168.275C110.641 168.275 110.861 168.275 110.861 168.496C110.861 168.606 110.861 168.826 110.641 168.826L96.9763 173.014V217.645L111.412 222.163C111.523 222.163 111.523 222.273 111.633 222.384L112.184 223.926C112.294 223.926 112.294 224.147 111.963 224.147C112.074 224.147 112.074 224.147 111.963 224.147ZM112.074 166.953C111.963 166.953 111.963 166.843 112.074 166.953C111.853 166.843 111.743 166.733 111.853 166.622C112.404 165.19 112.955 163.867 113.616 162.545C113.727 162.435 113.837 162.325 113.947 162.435C114.057 162.545 114.167 162.655 114.057 162.765C113.396 164.088 112.845 165.41 112.404 166.843C112.184 166.843 112.184 166.953 112.074 166.953ZM259.852 160.561H259.742C259.631 160.451 259.521 160.341 259.631 160.231L266.243 147.448L260.954 142.158C260.844 142.048 260.844 141.827 260.954 141.717C261.064 141.607 261.284 141.607 261.395 141.717L266.905 147.227C267.015 147.337 267.015 147.448 266.905 147.558L260.182 160.451C260.072 160.561 259.962 160.561 259.852 160.561ZM107.225 147.668C107.115 147.668 107.115 147.668 107.004 147.558C106.894 147.448 106.894 147.227 107.004 147.117L138.852 115.269C138.962 115.159 139.073 115.159 139.183 115.269L152.737 122.322L154.06 121.771C155.382 121.22 156.594 120.669 157.696 120.228C157.807 120.118 158.027 120.228 158.027 120.338C158.137 120.449 158.027 120.669 157.917 120.669C156.815 121.11 155.603 121.661 154.28 122.212L152.848 122.873C152.737 122.873 152.627 122.873 152.627 122.873L139.183 115.82L107.445 147.558C107.445 147.668 107.335 147.668 107.225 147.668ZM256.656 137.64C256.546 137.64 256.546 137.64 256.436 137.53L234.726 115.93L221.282 122.983C221.172 122.983 221.172 122.983 221.061 122.983L219.629 122.322C218.086 121.661 216.764 121.11 215.441 120.559L213.898 120.008C213.788 120.008 213.788 119.898 213.678 119.787L209.16 105.351H164.529L160.672 117.804C160.672 117.914 160.451 118.024 160.341 118.024C160.231 118.024 160.121 117.804 160.121 117.694L164.088 105.021C164.088 104.91 164.198 104.8 164.308 104.8H209.27C209.38 104.8 209.49 104.91 209.49 105.021L214.009 119.567L215.441 120.118C216.764 120.559 218.086 121.22 219.629 121.881L220.951 122.432L234.506 115.379C234.616 115.379 234.726 115.379 234.836 115.379L256.656 137.199C256.766 137.309 256.766 137.53 256.656 137.64C256.656 137.64 256.766 137.64 256.656 137.64Z" fill="white"/>
<path d="M345.256 204.311C348.673 208.719 351.979 213.127 355.064 217.645C358.15 222.163 361.235 226.902 364.101 231.751C364.762 232.963 365.533 234.175 366.194 235.387C367.407 237.591 367.737 239.685 367.958 241.448C368.178 245.085 367.737 248.06 367.076 251.036C365.643 256.876 363.55 262.056 360.905 267.125L355.285 264.921C356.387 259.852 357.378 254.452 357.709 249.493C357.929 247.068 357.929 244.534 357.489 242.771C357.268 241.889 357.048 241.228 356.827 241.007C356.056 239.905 355.395 238.803 354.623 237.701C351.648 233.293 348.452 228.996 345.256 224.698L335.669 211.694L345.256 204.311Z" fill="#FF8B7B"/>
<path d="M354.734 264.26L351.758 269.549L362.007 271.092C362.007 271.092 363.109 266.684 360.574 263.598L354.734 264.26Z" fill="#FF8B7B"/>
<path d="M350.326 276.492L358.811 277.373L362.007 270.982L351.868 269.549L350.326 276.492Z" fill="#FF8B7B"/>
<path d="M377.986 307.788L381.071 291.589C381.843 287.732 385.59 285.087 389.447 285.859L415.013 290.597C411.487 278.916 401.789 269.549 388.896 267.125C379.639 265.362 370.713 267.566 363.55 272.525L247.73 203.98C249.162 186.899 237.481 171.251 220.29 168.055C207.396 165.631 194.944 170.81 187.45 180.508L213.017 185.246C216.874 186.018 219.518 189.764 218.747 193.621L215.661 209.821C214.89 213.678 211.143 216.323 207.286 215.551L181.72 210.813C185.246 222.494 194.944 231.861 207.837 234.285C217.204 236.048 226.351 233.734 233.514 228.665L349.113 297.099C347.571 314.29 359.252 330.159 376.443 333.355C389.337 335.779 401.789 330.6 409.283 320.902L383.716 316.164C379.859 315.503 377.214 311.646 377.986 307.788Z" fill="#407BFF"/>
<path d="M341.62 284.757L247.73 229.106C246.077 228.114 245.416 225.91 246.518 224.147L250.375 217.645C251.366 215.992 253.57 215.331 255.334 216.433L349.224 272.084C350.877 273.075 351.538 275.279 350.436 277.043L346.579 283.544C345.587 285.197 343.383 285.748 341.62 284.757Z" fill="#5592FF"/>
<path d="M306.026 170.039C305.915 170.7 305.474 171.141 305.034 171.141C304.593 171.03 304.372 170.479 304.483 169.818C304.593 169.157 305.034 168.716 305.475 168.716C305.915 168.826 306.136 169.377 306.026 170.039Z" fill="#0F264C"/>
<path d="M305.584 171.141C305.584 171.141 303.491 174.667 301.617 176.21C302.609 177.422 304.593 177.312 304.593 177.312L305.584 171.141Z" fill="#FF5652"/>
<path d="M309.001 166.843C308.891 166.843 308.78 166.843 308.78 166.733C307.568 165.52 306.136 165.851 306.136 165.851C305.915 165.851 305.695 165.741 305.695 165.52C305.695 165.3 305.805 165.08 306.025 165.08C306.136 165.08 307.789 164.749 309.331 166.182C309.442 166.292 309.442 166.622 309.331 166.733C309.221 166.843 309.111 166.843 309.001 166.843Z" fill="#0F264C"/>
<path d="M327.625 177.202C326.412 183.152 325.31 193.952 329.498 197.919C329.498 197.919 327.845 203.98 316.825 203.98C304.703 203.98 311.095 197.919 311.095 197.919C317.707 196.376 317.486 191.417 316.384 186.789L327.625 177.202Z" fill="#FF8B7B"/>
<path d="M335.008 202.327C334.898 202.107 334.788 201.886 334.677 201.666C333.796 198.14 329.829 195.385 324.759 195.274C319.47 195.164 313.409 195.825 309.882 198.691C308.34 200.013 310.103 201.886 310.103 201.886L335.008 202.327Z" fill="#77B3FC"/>
<path d="M373.908 424.049C373.578 424.049 373.357 423.939 373.137 423.388C373.027 423.168 373.137 422.837 373.247 422.617C373.908 421.625 376.553 421.074 376.663 420.964C376.773 420.964 376.773 420.964 376.884 421.074C376.884 421.184 376.884 421.184 376.884 421.295C376.443 422.066 374.9 424.049 373.908 424.049ZM376.333 421.515C375.451 421.735 374.019 422.176 373.688 422.837C373.578 422.948 373.578 423.168 373.578 423.278C373.688 423.609 373.798 423.609 373.908 423.609C374.459 423.719 375.561 422.617 376.333 421.515Z" fill="#407BFF"/>
<path d="M375.341 421.625C374.349 421.625 373.247 421.405 372.917 420.964C372.807 420.854 372.696 420.523 373.027 420.193C373.247 419.972 373.468 419.862 373.798 419.752C375.011 419.642 376.774 421.074 376.884 421.184C376.884 421.184 376.994 421.295 376.994 421.405C376.994 421.515 376.884 421.515 376.884 421.515C376.443 421.515 375.892 421.625 375.341 421.625ZM373.909 420.082H373.798C373.578 420.082 373.468 420.193 373.358 420.303C373.247 420.523 373.247 420.633 373.358 420.633C373.688 421.074 375.341 421.295 376.333 421.074C375.782 420.744 374.68 420.082 373.909 420.082Z" fill="#407BFF"/>
<path d="M293.903 450.828C292.911 450.828 291.809 450.718 291.479 450.167C291.369 450.057 291.258 449.726 291.479 449.285C291.589 449.065 291.809 448.955 292.14 448.845C293.462 448.514 296.328 450.057 296.438 450.167C296.548 450.167 296.548 450.277 296.548 450.387C296.548 450.498 296.438 450.498 296.438 450.498C295.887 450.718 294.895 450.828 293.903 450.828ZM292.581 449.285C292.471 449.285 292.36 449.285 292.25 449.285C292.03 449.285 291.92 449.396 291.92 449.506C291.809 449.726 291.809 449.836 291.92 449.947C292.25 450.498 294.344 450.498 295.887 450.277C295.005 449.947 293.573 449.285 292.581 449.285Z" fill="#407BFF"/>
<path d="M296.328 450.608C296.328 450.608 296.218 450.608 296.328 450.608C295.226 450.167 293.352 448.404 293.463 447.522C293.463 447.302 293.683 447.081 294.124 446.971C294.565 446.971 294.895 447.081 295.226 447.302C296.218 448.183 296.438 450.277 296.438 450.387C296.438 450.498 296.438 450.498 296.328 450.608C296.438 450.608 296.328 450.608 296.328 450.608ZM294.344 447.302H294.234C293.903 447.302 293.903 447.522 293.903 447.522C293.793 448.073 295.116 449.396 296.107 450.057C295.997 449.396 295.667 448.073 295.005 447.522C294.785 447.412 294.565 447.302 294.344 447.302Z" fill="#407BFF"/>
<path d="M305.254 450.387H297.099L296.328 431.653H304.372L305.254 450.387Z" fill="#FF8B7B"/>
<path d="M383.937 415.454L377.435 420.193L361.896 408.291L368.508 403.552L383.937 415.454Z" fill="#FF8B7B"/>
<path d="M376.443 420.193L382.724 413.581C382.945 413.36 383.275 413.25 383.606 413.47L389.887 417.327C390.549 417.768 390.659 418.65 390.108 419.201C387.904 421.405 386.692 422.397 383.937 425.372C382.284 427.135 377.545 433.416 375.231 435.841C372.917 438.265 370.162 436.282 370.933 435.069C374.239 429.67 375.892 424.27 375.892 421.515C375.892 420.964 376.112 420.523 376.443 420.193Z" fill="#14365B"/>
<path d="M297.209 449.506H306.025C306.356 449.506 306.687 449.726 306.687 450.057L308.34 457.22C308.56 457.991 307.899 458.652 307.127 458.652C303.932 458.652 299.303 458.432 295.336 458.432C290.597 458.432 286.63 458.652 281.12 458.652C277.814 458.652 276.822 455.346 278.255 455.016C284.536 453.583 289.716 453.473 295.226 450.057C295.777 449.726 296.438 449.506 297.209 449.506Z" fill="#14365B"/>
<path d="M334.016 215C335.118 217.094 336.33 218.967 337.543 220.841C339.636 224.037 341.62 226.792 343.053 228.665C344.375 230.428 345.146 231.42 345.146 231.42L361.456 220.29C361.456 220.29 351.538 201.005 343.934 199.793C336 198.47 328.837 205.854 334.016 215Z" fill="#19437F"/>
<path d="M337.542 220.841C339.636 224.037 341.62 226.792 343.052 228.665C342.942 224.918 342.061 218.747 339.195 214.119C338.093 215.11 337.653 217.865 337.542 220.841Z" fill="#133A68"/>
<path d="M294.564 226.571C294.564 229.326 294.675 232.302 294.785 235.718C295.226 244.754 296.217 256.105 298.091 270.21H341.399C341.73 263.598 337.542 231.089 343.934 199.793C343.934 199.793 336.551 198.36 329.388 197.919C323.878 197.699 315.833 197.478 310.984 197.919C304.593 198.47 298.532 200.123 298.532 200.123C298.532 200.123 294.564 204.641 294.564 226.571Z" fill="#19437F"/>
<path d="M294.564 226.571C294.564 229.326 294.675 232.302 294.785 235.718C299.854 230.759 300.185 220.62 300.185 220.62L294.564 226.571Z" fill="#133A68"/>
<path d="M303.601 214.008C302.609 215.661 301.728 216.763 300.846 217.976C299.965 219.188 298.973 220.29 298.091 221.392C296.218 223.596 294.234 225.69 292.251 227.783C288.173 231.861 283.765 235.718 278.586 239.024C277.263 239.795 275.941 240.567 274.398 241.338L273.847 241.558L273.517 241.669C273.406 241.669 273.296 241.779 273.186 241.779C272.635 241.999 272.084 242.22 271.533 242.33L270.762 242.55L269.99 242.66C269.439 242.771 268.998 242.771 268.558 242.771C264.701 242.991 261.725 242.22 258.75 241.338C252.909 239.575 247.84 237.04 242.991 233.955L245.636 228.445C250.705 229.877 255.995 231.2 260.954 231.971C263.378 232.302 265.803 232.412 267.566 232.081C267.786 232.081 268.007 231.971 268.117 231.971L268.337 231.861L268.558 231.751C268.668 231.751 268.778 231.64 268.778 231.64L269.439 231.31C270.431 230.759 271.423 230.098 272.415 229.326C276.382 226.461 280.129 222.824 283.655 219.078C285.418 217.204 287.181 215.221 288.834 213.237C289.716 212.245 290.487 211.253 291.259 210.262C292.03 209.27 292.802 208.278 293.242 207.507L303.601 214.008Z" fill="#FF8B7B"/>
<path d="M246.628 230.098L241.228 223.706L237.591 233.073C237.591 233.073 242.22 235.277 245.856 233.955L246.628 230.098Z" fill="#FF8B7B"/>
<path d="M233.404 222.273L231.861 229.767L237.591 233.073L241.228 223.706L233.404 222.273Z" fill="#FF8B7B"/>
<path d="M310.103 209.6C309.111 217.314 291.589 233.514 291.589 233.514L275.831 221.061C275.831 221.061 282.112 211.584 289.606 205.082C301.066 195.164 311.205 200.344 310.103 209.6Z" fill="#19437F"/>
<path d="M296.438 261.615C312.197 261.615 315.723 243.873 316.605 236.159C316.054 231.53 313.409 216.543 303.05 199.793C302.719 199.242 303.05 198.47 303.711 198.36L307.127 197.699C307.568 197.589 307.899 197.809 308.119 198.14C317.596 213.237 320.682 226.13 321.674 232.742C322.555 232.742 323.547 232.742 324.539 232.742C327.404 226.461 333.796 212.135 333.245 198.691C333.245 198.14 333.686 197.589 334.347 197.699L338.094 198.029C338.534 198.029 338.975 198.47 338.975 198.911C339.526 211.804 332.253 229.767 329.388 235.497C330.38 256.546 342.061 260.292 342.061 260.292C342.061 260.292 342.612 267.015 341.4 275.941C316.605 280.018 304.152 277.484 297.099 274.618C297.65 269.439 296.658 265.692 296.438 261.615Z" fill="#0053CC"/>
<path d="M296.328 431.653L296.768 441.351H304.813L304.372 431.653H296.328Z" fill="#EA7063"/>
<path d="M368.509 403.552L361.896 408.291L369.831 414.462L376.443 409.724L368.509 403.552Z" fill="#EA7063"/>
<path d="M327.845 172.022C326.082 179.846 325.531 184.585 320.902 188.001C313.96 193.181 304.703 188.001 304.042 179.846C303.491 172.463 306.356 160.892 314.621 158.908C322.666 157.035 329.498 164.198 327.845 172.022Z" fill="#FF8B7B"/>
<path d="M334.788 159.9C341.62 160.121 338.865 163.757 335.339 165.741C335.339 165.741 339.306 167.614 337.212 172.243C334.127 179.185 328.176 186.789 322.115 186.348C314.511 185.797 312.417 177.642 312.638 169.488C308.67 165.741 308.009 163.647 307.348 159.129C306.246 150.092 311.866 145.133 334.788 159.9Z" fill="#14365B"/>
<path d="M325.972 144.803C335.779 147.337 341.73 157.366 339.196 167.173L303.601 158.137C306.136 148.219 316.054 142.268 325.972 144.803Z" fill="#9FC6FF"/>
<path d="M332.914 167.173C332.804 167.173 332.694 167.173 332.473 167.173C331.592 166.953 331.041 166.071 331.261 165.19C332.253 161.223 331.481 157.035 329.167 153.398C326.743 149.762 322.996 147.117 318.588 145.905C317.706 145.684 317.155 144.803 317.376 143.921C317.596 143.04 318.478 142.489 319.359 142.709C324.539 144.031 329.057 147.117 331.922 151.525C334.787 155.933 335.669 161.002 334.457 165.851C334.347 166.622 333.685 167.173 332.914 167.173Z" fill="#77B3FC"/>
<path d="M298.532 158.468L340.408 169.157C341.289 169.377 342.281 168.826 342.502 167.945C342.722 167.063 342.171 166.071 341.289 165.851L299.413 155.162C298.532 154.941 297.54 155.492 297.32 156.374C297.099 157.366 297.65 158.247 298.532 158.468Z" fill="#77B3FC"/>
<path d="M316.935 171.361C316.715 173.455 315.723 175.438 314.511 176.651C312.637 178.524 310.874 177.312 310.654 174.887C310.433 172.794 311.095 169.157 313.299 168.165C315.392 167.173 317.156 168.937 316.935 171.361Z" fill="#FF8B7B"/>
<path d="M313.409 270.1C313.409 270.1 312.527 327.735 319.69 350.326C331.151 386.141 365.754 415.123 365.754 415.123L378.096 406.197C378.096 406.197 349.224 381.733 344.045 351.538C339.306 324.429 341.29 292.25 341.29 270.1C331.261 270.1 313.409 270.1 313.409 270.1Z" fill="#0053CC"/>
<path d="M321.564 280.018C323.107 290.377 317.707 319.36 315.833 328.727C313.85 310.984 313.519 290.046 313.519 278.586C317.376 275.941 320.792 275.169 321.564 280.018Z" fill="#004DAA"/>
<path d="M360.574 412.478L365.643 415.564L379.198 405.756L374.68 402.34L360.574 412.478Z" fill="#77B3FC"/>
<path d="M298.091 270.1C298.091 270.1 285.859 321.784 285.087 346.469C284.096 374.129 293.793 439.478 293.793 439.478H307.458C307.458 439.478 309.111 373.688 309.772 348.452C310.433 321.013 326.522 270.1 326.522 270.1H298.091Z" fill="#0053CC"/>
<path d="M291.038 433.968C290.928 433.968 291.81 439.698 291.81 439.698H308.56L309.001 434.629L291.038 433.968Z" fill="#77B3FC"/>
</svg>
